M48
;Layer_Color=9474304
;FILE_FORMAT=2:5
INCH,LZ
;TYPE=PLATED
T1F00S00C0.01181
T3F00S00C0.02756
T4F00S00C0.03150
T5F00S00C0.03898
T6F00S00C0.03937
T7F00S00C0.04331
T8F00S00C0.04724
T9F00S00C0.05118
T10F00S00C0.05118
T11F00S00C0.05200
T13F00S00C0.07874
T14F00S00C0.11811
;TYPE=NON_PLATED
T15F00S00C0.02756
T16F00S00C0.05100
T17F00S00C0.07874
T18F00S00C0.13780
%
T01
X02955Y0147
X04105Y01345
X0414275Y0132985
X04195Y0136
X04225Y0133
X04925Y0136
X0496Y0133
X0509Y0139
X0513Y0138
X07375Y0141
X0742Y0138
X07475Y01395
X0755991Y01385
X0759Y014
X0753233Y0135433
X0793181Y02845
X08025Y03015
X0782Y03065
X0779017Y0309672
X07625Y0302
X0746217Y0281137
X0741217
X0736379Y0281027
X0731217Y0281137
X0726217Y0281137
X0721217Y0281137
X0716292Y0281212
X0716217Y0271137
X0713217Y0252137
X0731217Y0243137
X0745217Y0249137
X0756217Y0252137
X0727Y02265
X0709971Y02155
X06905Y0227
X0656Y0236
X0638106Y0252137
X0627106Y0249137
X0628106Y0281137
X0653217Y0292527
X0659003Y028715
X06625Y0287
X0666Y02955
X065592Y0312383
X0688327Y0288027
X07055Y0304
X0708796Y0306748
X0711373Y0309745
X063Y0215
X0613106Y0243137
X0595106Y0252137
X0598106Y0271137
X0598181Y0281212
X0603106Y0281153
X0608106
X0613106
X0618269Y0281027
X0623106Y0281137
X0584675Y02936
X0583411Y0302861
X0581923Y03056
X0585Y03056
X05385Y03025
X0539Y02925
X0522Y02905
X05225Y0286
X049Y0287
X0477Y03015
X05035Y0308
X0505498Y0234909
X05065Y02275
X0507081Y02125
X0519Y0205
X0531Y01925
X0497
X0555Y02275
X04155Y02215
X0406381Y0225094
X040255Y0226978
X04075Y02015
X0409111Y0287201
X0422835Y0283465
Y0279528
X0438976Y0277559
Y0281496
X0438949Y0284993
X0438976Y0273228
X0442913Y0269685
X0461607Y0297054
X0464173Y0294882
X0459055Y0299606
X0456693Y0302362
X0453937Y0304724
X04095Y0307
Y0311
X0228256Y0300395
X0231256Y0289394
X0237256Y0275395
X0228256Y0257395
X0209256Y0260395
X0199181Y026047
X0199256Y0265394
Y0270394
Y0275395
X0199366Y0280557
X0199256Y0285395
Y0290394
X0199366Y0232505
X0209366
X0301Y01565
X0312152Y0398671
X0311901Y0416279
X0244Y043
X02295Y0451
X02435Y03825
X0345Y0381
Y03775
X03495Y04025
X03475Y0406
X035748Y0409842
X0365341Y040984
X0367295Y0413354
X0366728Y0401181
X0372091Y0401425
X0376562Y0395607
X0388583Y0397638
X0390158Y04105
X0385039Y041053
X0381102
X0377547Y0409606
X0377953Y0439126
X0387795
X0397638
X0415357Y0439143
X0423546Y0439126
X0437008Y0438976
X04355Y04425
X0435468Y0446127
X0453Y0433
X0453Y0418
X0455Y0416
X0458Y0414
X0459Y0418
X046226Y0417177
X0465Y0417
X0466779Y0425011
X0445944Y0420445
X0431Y0414
X0428Y0417
X0429528Y0369685
X0433465
X0437402
X0441339
X0444882
X0425591
X0421669
X0416499Y0368476
X0413287Y0368734
X0409888Y0368841
X0405988Y0368841
X0401988Y0368841
X0398031Y0368898
X0394172Y0368504
X0390172Y0368504
X0386272
X0382272
X0378372
X0374472
X0370472
X0366535
X03685Y03425
X03727Y0342468
X0376599
X0396063Y0371654
X0400063
X0403963
X0407863
X0411728Y0371712
X0415763Y0371757
X0383528Y0452727
X0367273Y0452444
X0366142Y0439126
X0358268
X03331Y04389
X03325Y04413
X03351Y04417
X03274Y04313
X03175Y04255
X04805Y0419
X04795Y04165
X04775Y04145
X04885Y0423
X0502533Y042419
X0506421Y0423796
X05085Y0415
X0513951Y0411981
X0513937Y0418102
X0528881Y0424163
X05305Y0413232
X05225Y0386
X0521519Y0371232
X05175Y03725
X04965Y0373
X0503441Y0362
X05035Y0324
X0574803Y034252
X0581647Y0344368
X058357Y0345824
X0585464Y034423
X0592Y0335
X05908Y0358
X0595644Y036462
X0598425Y0372047
X0599448Y0389103
X0604448
X0609285Y0389213
X0614448Y0389103
X0619448Y0389103
X0624448Y0389103
X06145Y0354
X06142Y03453
X0578Y03645
X05385Y0384
X04945Y0412
X0489Y04485
X0572Y0449
X0589448Y0418103
X0600448Y0421103
X0632448Y0418103
X0629448Y0399103
X0629874Y0389103
X06275Y0358
X0661Y03455
X06665Y0332
X0660699Y0324758
X0656063Y032559
X06825Y0332
X0686Y03335
X0691011Y0333447
X0691Y03235
X0708376Y0312562
X06955Y03545
X06815Y0361
X0680879Y0382419
X0686Y0382
X06845Y0386
X0662Y03815
X0657412Y0381262
X0657337Y0399214
X06645Y0368
X0717558Y0389103
X0722558
X0727396Y0389213
X0732558Y0389103
X0737558Y0389103
X0742558Y0389103
X0747483Y0389028
X0747558Y0399103
X0750558Y0418103
X0732558Y0427103
X0718558Y0421103
X0707558Y0418103
X0695Y0415
X0775448Y0399214
Y0389213
X07815Y03125
T03
X0265784Y01385
X0271689
X0277594
X02835
X0289405
X0295311
X03315Y0355189
Y0361094
Y0367
Y0372905
Y0378811
Y0384717
T04
X0664437Y0219986
X0670037
X0675637
X0681237Y0219986
X0739105Y0219986
X0744705Y0219986
X0750305Y0219986
X0755905
X06066
X0601
X05954Y0219986
X05898Y0219986
X0497514Y0185905
Y0180305
X0497514Y0174705
X0497514Y0169105
X0321Y01689
X0321Y01745
X0321Y01801
Y01857
T05
X0562Y0437
X0579717
X0669283
X0687
T06
X0667832Y016046
X0677832
X0742635
X0752635
X0603195
X0593195
X0459164Y0160458
X0449164
X0368943Y016046
X0358943
T07
X0194658Y0369043
X02045
X0214342
T08
X0641336Y0266222
Y0285907
X070236
Y0276065
Y0266222
X0759446Y0266222
Y0285907
X058425
Y0276065
Y0266222
X0214171Y0246538
X0204328
X0194486
Y0303624
X0214171
X0186311Y043
X01745
X0162689
X0521435Y0409245
X0539866Y0420366
X0586218Y0404018
Y0384333
X0643304
Y0394175
Y0404018
X0704328
Y0384333
X0761414
Y0394175
Y0404018
T09
X0557059Y0427197
X0584657
X0664342
X0691941
T10
X0672832Y0202188
X0692517Y0193921
X0747635Y0202188
X076732Y0193921
X061788
X0598195Y0202188
X0473849Y0193918
X0454165Y0202186
X0383628Y0193921
X0363943Y0202188
T11
X038848Y0231886
X0423547Y0231937
Y0322837
X038848Y0322786
X03606Y03437
X0360488Y0369725
X0451388
X04515Y03437
T13
X0641732Y0217717
X0568197Y0235086
X024378
X0271654Y0162992
X0276772Y0393307
X024378Y0395086
X0568197
X0635039Y0322047
T14
X0777559Y0230315
X0531496Y0167323
X0236221
X0158661Y0230315
X0158656Y0358268
X0295276Y0417323
X0777559Y0358268
T15
X0504622Y043463
X0527378
T16
X02155Y0420878
Y04445
X02563Y0444681
Y0421059
T17
X0651179Y017896
X0694486
X0725982
X0769289
X0619849
X0576542
X0475818Y0178958
X0432512
X0385597Y017896
X034229
T18
X0672832Y017896
X0747635
X0598195
X0454165Y0178958
X0363943Y017896
M30
