G04*
G04 #@! TF.GenerationSoftware,Altium Limited,Altium Designer,21.8.1 (53)*
G04*
G04 Layer_Color=8421504*
%FSLAX25Y25*%
%MOIN*%
G70*
G04*
G04 #@! TF.SameCoordinates,5834F34B-C4A2-4629-ADC7-1C587854752A*
G04*
G04*
G04 #@! TF.FilePolarity,Positive*
G04*
G01*
G75*
%ADD18R,0.13400X0.05100*%
%ADD19R,0.08200X0.02800*%
%ADD20R,0.09843X0.21654*%
%ADD21R,0.06693X0.09843*%
%ADD22R,0.04724X0.02362*%
%ADD23R,0.09843X0.06299*%
%ADD24R,0.05118X0.05512*%
%ADD25R,0.19291X0.23032*%
%ADD26R,0.03937X0.08268*%
%ADD27R,0.05512X0.05118*%
%ADD28R,0.03347X0.03740*%
%ADD29R,0.10000X0.06000*%
%ADD30R,0.12000X0.06000*%
%ADD31R,0.03740X0.03347*%
%ADD32R,0.10236X0.01181*%
%ADD33R,0.13780X0.10433*%
%ADD34R,0.03150X0.01968*%
%ADD35R,0.02362X0.05709*%
%ADD36R,0.01181X0.05709*%
%ADD37R,0.01260X0.02205*%
%ADD38R,0.02559X0.06102*%
%ADD39R,0.05118X0.03740*%
%ADD40R,0.05118X0.12795*%
%ADD41R,0.10630X0.05118*%
%ADD42R,0.04724X0.03347*%
%ADD43R,0.02933X0.04528*%
%ADD44R,0.03740X0.03543*%
%ADD45R,0.05118X0.03347*%
%ADD46R,0.02559X0.02953*%
%ADD47R,0.02559X0.03347*%
%ADD48R,0.02756X0.02559*%
%ADD49R,0.02756X0.02953*%
%ADD50R,0.05807X0.01772*%
%ADD51R,0.02953X0.02362*%
%ADD52R,0.06102X0.02559*%
%ADD53R,0.03543X0.01772*%
%ADD54R,0.03937X0.04921*%
%ADD55R,0.02520X0.02362*%
%ADD56R,0.05100X0.13400*%
%ADD57R,0.02800X0.08200*%
D18*
X388480Y226786D02*
D03*
Y327986D02*
D03*
X423547Y226837D02*
D03*
Y328037D02*
D03*
D19*
X380780Y316686D02*
D03*
X396180Y314786D02*
D03*
X380780Y312786D02*
D03*
X396180Y310786D02*
D03*
X380780Y308886D02*
D03*
X396180Y306886D02*
D03*
X380780Y304886D02*
D03*
X396180Y302986D02*
D03*
X380780Y300986D02*
D03*
X396180Y298986D02*
D03*
X380780Y297086D02*
D03*
X396180Y295086D02*
D03*
X380780Y293086D02*
D03*
X396180Y291086D02*
D03*
X380780Y289186D02*
D03*
X396180Y287186D02*
D03*
X380780Y285186D02*
D03*
X396180Y283286D02*
D03*
X380780Y281286D02*
D03*
X396180Y279286D02*
D03*
X380780Y277386D02*
D03*
X396180Y275386D02*
D03*
X380780Y273386D02*
D03*
X396180Y271486D02*
D03*
X380780Y269486D02*
D03*
X396180Y267486D02*
D03*
X380780Y265586D02*
D03*
X396180Y263586D02*
D03*
X380780Y261586D02*
D03*
X396180Y259686D02*
D03*
X380780Y257686D02*
D03*
X396180Y255686D02*
D03*
X380780Y253686D02*
D03*
X396180Y251786D02*
D03*
X380780Y249786D02*
D03*
X396180Y247786D02*
D03*
X380780Y245886D02*
D03*
X396180Y243886D02*
D03*
X380780Y241886D02*
D03*
X396180Y239986D02*
D03*
X380780Y237986D02*
D03*
X431247Y316737D02*
D03*
X415847Y314837D02*
D03*
X431247Y312837D02*
D03*
X415847Y310837D02*
D03*
X431247Y308937D02*
D03*
X415847Y306937D02*
D03*
X431247Y304937D02*
D03*
X415847Y303037D02*
D03*
X431247Y301037D02*
D03*
X415847Y299037D02*
D03*
X431247Y297137D02*
D03*
X415847Y295137D02*
D03*
X431247Y293137D02*
D03*
X415847Y291137D02*
D03*
X431247Y289237D02*
D03*
X415847Y287237D02*
D03*
X431247Y285237D02*
D03*
X415847Y283337D02*
D03*
X431247Y281337D02*
D03*
X415847Y279337D02*
D03*
X431247Y277437D02*
D03*
X415847Y275437D02*
D03*
X431247Y273437D02*
D03*
X415847Y271537D02*
D03*
X431247Y269537D02*
D03*
X415847Y267537D02*
D03*
X431247Y265637D02*
D03*
X415847Y263637D02*
D03*
X431247Y261637D02*
D03*
X415847Y259737D02*
D03*
X431247Y257737D02*
D03*
X415847Y255737D02*
D03*
X431247Y253737D02*
D03*
X415847Y251837D02*
D03*
X431247Y249837D02*
D03*
X415847Y247837D02*
D03*
X431247Y245937D02*
D03*
X415847Y243937D02*
D03*
X431247Y241937D02*
D03*
X415847Y240037D02*
D03*
X431247Y238037D02*
D03*
D20*
X478858Y444000D02*
D03*
X463858Y444000D02*
D03*
D21*
X446000Y428000D02*
D03*
Y443748D02*
D03*
D22*
X464079Y428740D02*
D03*
X464079Y425000D02*
D03*
X464079Y421260D02*
D03*
X473921Y421260D02*
D03*
Y425000D02*
D03*
X473921Y428740D02*
D03*
D23*
X431220Y409000D02*
D03*
X445000D02*
D03*
X457221Y409000D02*
D03*
X471000D02*
D03*
D24*
X427701Y422000D02*
D03*
X434000D02*
D03*
X427701Y430500D02*
D03*
X434000D02*
D03*
X265759Y148753D02*
D03*
X272058D02*
D03*
X583350Y364500D02*
D03*
X589650D02*
D03*
D25*
X330500Y412354D02*
D03*
D26*
X321524Y439126D02*
D03*
X339476D02*
D03*
D27*
X312000Y410299D02*
D03*
Y404000D02*
D03*
Y430799D02*
D03*
Y424500D02*
D03*
X489000Y437201D02*
D03*
X489000Y443500D02*
D03*
X476500Y293650D02*
D03*
Y287350D02*
D03*
X496560Y378376D02*
D03*
Y384676D02*
D03*
D28*
X413118Y415500D02*
D03*
X408000D02*
D03*
X413118Y409500D02*
D03*
X408000D02*
D03*
X413118Y397500D02*
D03*
X408000D02*
D03*
X413118Y427500D02*
D03*
X408000D02*
D03*
X413118Y421500D02*
D03*
X408000D02*
D03*
X413118Y403500D02*
D03*
X408000D02*
D03*
X700000Y215500D02*
D03*
X694882D02*
D03*
X479941Y397500D02*
D03*
X485059D02*
D03*
X490000Y410000D02*
D03*
X484882D02*
D03*
X490000Y404000D02*
D03*
X484882D02*
D03*
X508500Y367500D02*
D03*
X503382D02*
D03*
X508500Y373500D02*
D03*
X503382D02*
D03*
X508500Y379500D02*
D03*
X503382D02*
D03*
X508500Y385500D02*
D03*
X503382D02*
D03*
X508500Y391500D02*
D03*
X503382D02*
D03*
X515000Y234500D02*
D03*
X509882D02*
D03*
X398000Y201500D02*
D03*
X403118D02*
D03*
X417559D02*
D03*
X412441D02*
D03*
X580500Y415000D02*
D03*
X575382D02*
D03*
X684500D02*
D03*
X689618D02*
D03*
X725059Y215500D02*
D03*
X719941D02*
D03*
X620382Y215000D02*
D03*
X625500D02*
D03*
D29*
X242324Y445576D02*
D03*
Y418016D02*
D03*
X270276Y434552D02*
D03*
Y448725D02*
D03*
D30*
X269434Y410859D02*
D03*
D31*
X523500Y416382D02*
D03*
Y421500D02*
D03*
X504500Y414941D02*
D03*
Y420059D02*
D03*
X498500Y420000D02*
D03*
Y414882D02*
D03*
X295500Y151500D02*
D03*
Y156618D02*
D03*
X289500Y151382D02*
D03*
Y156500D02*
D03*
D32*
X530315Y349606D02*
D03*
X530315Y353543D02*
D03*
X530315Y355512D02*
D03*
Y347638D02*
D03*
Y351575D02*
D03*
X530315Y377165D02*
D03*
Y365354D02*
D03*
X530315Y316142D02*
D03*
Y304331D02*
D03*
Y373228D02*
D03*
Y357480D02*
D03*
Y306299D02*
D03*
Y298425D02*
D03*
Y367323D02*
D03*
X530315Y288583D02*
D03*
X530315Y318110D02*
D03*
X530315Y385039D02*
D03*
X530315Y320079D02*
D03*
X530315Y312205D02*
D03*
X530315Y375197D02*
D03*
X530315Y310236D02*
D03*
Y314173D02*
D03*
X530315Y359449D02*
D03*
Y369291D02*
D03*
Y371260D02*
D03*
Y296457D02*
D03*
Y302362D02*
D03*
Y322047D02*
D03*
Y300394D02*
D03*
X530315Y379134D02*
D03*
Y381102D02*
D03*
X530315Y292520D02*
D03*
Y294488D02*
D03*
Y308268D02*
D03*
X530315Y290551D02*
D03*
Y383071D02*
D03*
X530315Y361417D02*
D03*
X530315Y363386D02*
D03*
Y341732D02*
D03*
Y339764D02*
D03*
X530315Y343701D02*
D03*
Y335827D02*
D03*
Y337795D02*
D03*
Y345669D02*
D03*
Y329921D02*
D03*
X530315Y333858D02*
D03*
Y331890D02*
D03*
Y327953D02*
D03*
Y325984D02*
D03*
X530315Y324016D02*
D03*
D33*
X537773Y281447D02*
D03*
Y392175D02*
D03*
D34*
X497913Y405000D02*
D03*
Y408543D02*
D03*
X505000D02*
D03*
Y405000D02*
D03*
D35*
X503205Y428941D02*
D03*
X506354D02*
D03*
X525646D02*
D03*
X528795D02*
D03*
D36*
X509110Y428941D02*
D03*
X511079D02*
D03*
X513047D02*
D03*
X515016Y428941D02*
D03*
X522890Y428941D02*
D03*
X520921D02*
D03*
X518953D02*
D03*
X516984Y428941D02*
D03*
D37*
X512000Y421000D02*
D03*
X515937Y414819D02*
D03*
X513969D02*
D03*
X512000D02*
D03*
X513969Y421000D02*
D03*
X515937D02*
D03*
D38*
X656000Y301228D02*
D03*
X661000Y301228D02*
D03*
X666000Y301228D02*
D03*
X671000D02*
D03*
X676000D02*
D03*
X681000D02*
D03*
X686000Y301228D02*
D03*
X691000Y301228D02*
D03*
Y279772D02*
D03*
X686000Y279772D02*
D03*
X681000Y279772D02*
D03*
X676000D02*
D03*
X671000D02*
D03*
X666000D02*
D03*
X661000Y279772D02*
D03*
X656000Y279772D02*
D03*
Y375728D02*
D03*
X661000Y375728D02*
D03*
X666000Y375728D02*
D03*
X671000D02*
D03*
X676000D02*
D03*
X681000D02*
D03*
X686000Y375728D02*
D03*
X691000Y375728D02*
D03*
Y354272D02*
D03*
X686000Y354272D02*
D03*
X681000Y354272D02*
D03*
X676000D02*
D03*
X671000D02*
D03*
X666000D02*
D03*
X661000Y354272D02*
D03*
X656000Y354272D02*
D03*
Y317772D02*
D03*
X661000Y317772D02*
D03*
X666000Y317772D02*
D03*
X671000D02*
D03*
X676000D02*
D03*
X681000D02*
D03*
X686000Y317772D02*
D03*
X691000Y317772D02*
D03*
Y339228D02*
D03*
X686000Y339228D02*
D03*
X681000Y339228D02*
D03*
X676000D02*
D03*
X671000D02*
D03*
X666000D02*
D03*
X661000Y339228D02*
D03*
X656000Y339228D02*
D03*
D39*
X484811Y305016D02*
D03*
Y296000D02*
D03*
Y286984D02*
D03*
D40*
X511189Y296000D02*
D03*
D41*
X488500Y417500D02*
D03*
X488500Y428524D02*
D03*
D42*
X357772Y452756D02*
D03*
D43*
X350894Y395276D02*
D03*
D44*
X402213Y394980D02*
D03*
D45*
X400000Y452756D02*
D03*
D46*
X387646Y452953D02*
D03*
D47*
X362646Y452756D02*
D03*
D48*
X379181Y401181D02*
D03*
X363433D02*
D03*
D49*
X357528Y405905D02*
D03*
X361465D02*
D03*
X365402D02*
D03*
X369339D02*
D03*
X373276D02*
D03*
X377213D02*
D03*
X381150D02*
D03*
X385087D02*
D03*
D50*
X620867Y358016D02*
D03*
Y355457D02*
D03*
Y352898D02*
D03*
Y350339D02*
D03*
Y347779D02*
D03*
Y345220D02*
D03*
Y342661D02*
D03*
Y340102D02*
D03*
Y337543D02*
D03*
Y334984D02*
D03*
X597733D02*
D03*
Y337543D02*
D03*
Y340102D02*
D03*
Y342661D02*
D03*
Y345220D02*
D03*
Y347779D02*
D03*
Y350339D02*
D03*
Y352898D02*
D03*
Y355457D02*
D03*
Y358016D02*
D03*
D51*
X581636Y357900D02*
D03*
X586164D02*
D03*
D52*
X490772Y227500D02*
D03*
X490772Y222500D02*
D03*
X490772Y217500D02*
D03*
Y212500D02*
D03*
Y207500D02*
D03*
Y202500D02*
D03*
X490772Y197500D02*
D03*
X490772Y192500D02*
D03*
X512228D02*
D03*
X512228Y197500D02*
D03*
X512228Y202500D02*
D03*
Y207500D02*
D03*
Y212500D02*
D03*
Y217500D02*
D03*
X512228Y222500D02*
D03*
X512228Y227500D02*
D03*
X547228Y192500D02*
D03*
X547228Y197500D02*
D03*
X547228Y202500D02*
D03*
Y207500D02*
D03*
Y212500D02*
D03*
Y217500D02*
D03*
X547228Y222500D02*
D03*
X547228Y227500D02*
D03*
X525772Y227500D02*
D03*
X525772Y222500D02*
D03*
X525772Y217500D02*
D03*
X525772Y212500D02*
D03*
Y207500D02*
D03*
X525772Y202500D02*
D03*
X525772Y197500D02*
D03*
X525772Y192500D02*
D03*
D53*
X471153Y214925D02*
D03*
Y211776D02*
D03*
Y221224D02*
D03*
Y218075D02*
D03*
X477846D02*
D03*
Y221224D02*
D03*
Y211776D02*
D03*
Y214925D02*
D03*
X403154Y212425D02*
D03*
Y209276D02*
D03*
Y218724D02*
D03*
Y215575D02*
D03*
X409846D02*
D03*
Y218724D02*
D03*
Y209276D02*
D03*
Y212425D02*
D03*
X562000Y214299D02*
D03*
Y217449D02*
D03*
Y208000D02*
D03*
Y211150D02*
D03*
X555307D02*
D03*
Y208000D02*
D03*
Y217449D02*
D03*
Y214299D02*
D03*
X561846Y195075D02*
D03*
Y198224D02*
D03*
Y188776D02*
D03*
Y191925D02*
D03*
X555154D02*
D03*
Y188776D02*
D03*
Y198224D02*
D03*
Y195075D02*
D03*
D54*
X751500Y446000D02*
D03*
X743626D02*
D03*
D55*
X532000Y416768D02*
D03*
Y420232D02*
D03*
D56*
X355388Y369725D02*
D03*
X456588D02*
D03*
D57*
X445288Y362025D02*
D03*
X443388Y377425D02*
D03*
X441388Y362025D02*
D03*
X439388Y377425D02*
D03*
X437488Y362025D02*
D03*
X435488Y377425D02*
D03*
X433488Y362025D02*
D03*
X431588Y377425D02*
D03*
X429588Y362025D02*
D03*
X427588Y377425D02*
D03*
X425688Y362025D02*
D03*
X423688Y377425D02*
D03*
X421688Y362025D02*
D03*
X419688Y377425D02*
D03*
X417788Y362025D02*
D03*
X415788Y377425D02*
D03*
X413788Y362025D02*
D03*
X411888Y377425D02*
D03*
X409888Y362025D02*
D03*
X407888Y377425D02*
D03*
X405988Y362025D02*
D03*
X403988Y377425D02*
D03*
X401988Y362025D02*
D03*
X400088Y377425D02*
D03*
X398088Y362025D02*
D03*
X396088Y377425D02*
D03*
X394188Y362025D02*
D03*
X392188Y377425D02*
D03*
X390188Y362025D02*
D03*
X388288Y377425D02*
D03*
X386288Y362025D02*
D03*
X384288Y377425D02*
D03*
X382288Y362025D02*
D03*
X380388Y377425D02*
D03*
X378388Y362025D02*
D03*
X376388Y377425D02*
D03*
X374488Y362025D02*
D03*
X372488Y377425D02*
D03*
X370488Y362025D02*
D03*
X368588Y377425D02*
D03*
X366588Y362025D02*
D03*
M02*
