G04*
G04 #@! TF.GenerationSoftware,Altium Limited,Altium Designer,21.8.1 (53)*
G04*
G04 Layer_Color=65535*
%FSLAX25Y25*%
%MOIN*%
G70*
G04*
G04 #@! TF.SameCoordinates,5834F34B-C4A2-4629-ADC7-1C587854752A*
G04*
G04*
G04 #@! TF.FilePolarity,Positive*
G04*
G01*
G75*
%ADD10C,0.00600*%
%ADD11C,0.00984*%
%ADD12C,0.01000*%
%ADD13C,0.00787*%
%ADD14C,0.00394*%
%ADD15C,0.00500*%
%ADD16C,0.00591*%
%ADD17C,0.00050*%
D10*
X279528Y162992D02*
G03*
X279528Y162992I-7874J0D01*
G01*
X284646Y393307D02*
G03*
X284646Y393307I-7874J0D01*
G01*
X642913Y322047D02*
G03*
X642913Y322047I-7874J0D01*
G01*
X649606Y217717D02*
G03*
X649606Y217717I-7874J0D01*
G01*
X249683Y395086D02*
G03*
X249683Y395086I-5904J0D01*
G01*
Y235086D02*
G03*
X249683Y235086I-5904J0D01*
G01*
X307087Y417323D02*
G03*
X307087Y417323I-11811J0D01*
G01*
X789370Y358268D02*
G03*
X789370Y358268I-11811J0D01*
G01*
Y230315D02*
G03*
X789370Y230315I-11811J0D01*
G01*
X543307Y167323D02*
G03*
X543307Y167323I-11811J0D01*
G01*
X248031D02*
G03*
X248031Y167323I-11811J0D01*
G01*
X170472Y230315D02*
G03*
X170472Y230315I-11811J0D01*
G01*
X574101Y235086D02*
G03*
X574101Y235086I-5904J0D01*
G01*
Y395086D02*
G03*
X574101Y395086I-5904J0D01*
G01*
X396480Y328686D02*
X399580D01*
Y225986D02*
Y237286D01*
X377580Y225986D02*
X380480D01*
X377580Y319486D02*
Y328686D01*
Y225986D02*
Y235286D01*
X399580Y317486D02*
Y328686D01*
X377580D02*
X380480D01*
X396480Y225986D02*
X399580D01*
X459858Y455500D02*
X482858D01*
X459858Y432500D02*
X482858D01*
X469358Y444000D02*
X472858D01*
X523373Y288547D02*
X524973D01*
X523373Y296421D02*
X524973D01*
X523373Y306264D02*
X524973Y306264D01*
X523373Y316106D02*
X524973Y316106D01*
X523373Y325949D02*
X524973D01*
X523373Y335791D02*
X524973D01*
X523373Y345634D02*
X524973Y345634D01*
X523373Y355476D02*
X524973D01*
X523373Y365319D02*
X524973D01*
X523373Y375161D02*
X524973Y375161D01*
X523373Y385004D02*
X524973D01*
X412447Y328737D02*
X415547D01*
X412447Y226037D02*
Y237337D01*
X431547Y226037D02*
X434447D01*
Y319537D02*
Y328737D01*
Y226037D02*
Y235337D01*
X412447Y317537D02*
Y328737D01*
X431547D02*
X434447D01*
X412447Y226037D02*
X415547D01*
X457288Y377725D02*
X457288Y380825D01*
X354588D02*
X365888D01*
X354588Y361725D02*
X354588Y358825D01*
X448088D02*
X457288D01*
X354588D02*
X363888D01*
X446088Y380825D02*
X457288D01*
Y358825D02*
Y361725D01*
X354588Y380825D02*
X354588Y377725D01*
X545600Y421099D02*
Y418600D01*
X546850D01*
X547266Y419017D01*
Y419433D01*
X546850Y419850D01*
X545600D01*
X546850D01*
X547266Y420266D01*
Y420683D01*
X546850Y421099D01*
X545600D01*
X548099Y418600D02*
Y420266D01*
X548932Y421099D01*
X549765Y420266D01*
Y418600D01*
Y419850D01*
X548099D01*
X550598Y421099D02*
X552264D01*
X551431D01*
Y418600D01*
X553098Y419850D02*
X554764D01*
X527600Y409599D02*
Y407100D01*
X528850D01*
X529266Y407516D01*
Y407933D01*
X528850Y408350D01*
X527600D01*
X528850D01*
X529266Y408766D01*
Y409183D01*
X528850Y409599D01*
X527600D01*
X530099Y407100D02*
Y408766D01*
X530932Y409599D01*
X531765Y408766D01*
Y407100D01*
Y408350D01*
X530099D01*
X532598Y409599D02*
X534265D01*
X533431D01*
Y407100D01*
X535098Y408350D02*
X536764D01*
X535931Y409183D02*
Y407516D01*
X522273Y288147D02*
Y288980D01*
Y288564D01*
X519774D01*
X520191Y288147D01*
X519774Y297687D02*
Y296021D01*
X521024D01*
X520607Y296854D01*
Y297271D01*
X521024Y297687D01*
X521857D01*
X522273Y297271D01*
Y296438D01*
X521857Y296021D01*
X522273Y305864D02*
Y306697D01*
Y306280D01*
X519774D01*
X520191Y305864D01*
Y307946D02*
X519774Y308363D01*
Y309196D01*
X520191Y309613D01*
X521857D01*
X522273Y309196D01*
Y308363D01*
X521857Y307946D01*
X520191D01*
X522273Y315706D02*
Y316539D01*
Y316123D01*
X519774D01*
X520191Y315706D01*
X519774Y319455D02*
Y317789D01*
X521024D01*
X520607Y318622D01*
Y319039D01*
X521024Y319455D01*
X521857D01*
X522273Y319039D01*
Y318205D01*
X521857Y317789D01*
X522273Y327215D02*
Y325549D01*
X520607Y327215D01*
X520191D01*
X519774Y326798D01*
Y325965D01*
X520191Y325549D01*
Y328048D02*
X519774Y328465D01*
Y329298D01*
X520191Y329714D01*
X521857D01*
X522273Y329298D01*
Y328465D01*
X521857Y328048D01*
X520191D01*
X522273Y337057D02*
Y335391D01*
X520607Y337057D01*
X520191D01*
X519774Y336641D01*
Y335808D01*
X520191Y335391D01*
X519774Y339557D02*
Y337891D01*
X521024D01*
X520607Y338724D01*
Y339140D01*
X521024Y339557D01*
X521857D01*
X522273Y339140D01*
Y338307D01*
X521857Y337891D01*
X520191Y345234D02*
X519774Y345650D01*
Y346483D01*
X520191Y346900D01*
X520607D01*
X521024Y346483D01*
Y346067D01*
Y346483D01*
X521440Y346900D01*
X521857D01*
X522273Y346483D01*
Y345650D01*
X521857Y345234D01*
X520191Y347733D02*
X519774Y348150D01*
Y348983D01*
X520191Y349399D01*
X521857D01*
X522273Y348983D01*
Y348150D01*
X521857Y347733D01*
X520191D01*
Y355076D02*
X519774Y355493D01*
Y356326D01*
X520191Y356743D01*
X520607D01*
X521024Y356326D01*
Y355909D01*
Y356326D01*
X521440Y356743D01*
X521857D01*
X522273Y356326D01*
Y355493D01*
X521857Y355076D01*
X519774Y359242D02*
Y357576D01*
X521024D01*
X520607Y358409D01*
Y358825D01*
X521024Y359242D01*
X521857D01*
X522273Y358825D01*
Y357992D01*
X521857Y357576D01*
X522273Y366168D02*
X519774D01*
X521024Y364919D01*
Y366585D01*
X520191Y367418D02*
X519774Y367835D01*
Y368668D01*
X520191Y369084D01*
X521857D01*
X522273Y368668D01*
Y367835D01*
X521857Y367418D01*
X520191D01*
X522273Y376011D02*
X519774D01*
X521024Y374761D01*
Y376428D01*
X519774Y378927D02*
Y377261D01*
X521024D01*
X520607Y378094D01*
Y378510D01*
X521024Y378927D01*
X521857D01*
X522273Y378510D01*
Y377677D01*
X521857Y377261D01*
X519774Y386270D02*
Y384604D01*
X521024D01*
X520607Y385437D01*
Y385854D01*
X521024Y386270D01*
X521857D01*
X522273Y385854D01*
Y385020D01*
X521857Y384604D01*
X520191Y387103D02*
X519774Y387520D01*
Y388353D01*
X520191Y388769D01*
X521857D01*
X522273Y388353D01*
Y387520D01*
X521857Y387103D01*
X520191D01*
D11*
X343984Y442276D02*
G03*
X343984Y442276I-492J0D01*
G01*
D12*
X507397Y177500D02*
G03*
X507397Y177500I-9897J0D01*
G01*
X216311Y394500D02*
G03*
X216311Y394500I-11811J0D01*
G01*
X618777Y399175D02*
G03*
X618777Y389175I-5000J-5000D01*
G01*
X625588Y394175D02*
G03*
X625588Y394175I-11811J0D01*
G01*
X743698D02*
G03*
X743698Y394175I-11811J0D01*
G01*
X736887Y399175D02*
G03*
X736887Y389175I-5000J-5000D01*
G01*
X608092Y220000D02*
G03*
X608092Y220000I-9897J0D01*
G01*
X625588Y276065D02*
G03*
X625588Y276065I-11811J0D01*
G01*
X608777Y271065D02*
G03*
X608777Y281065I5000J5000D01*
G01*
X216139Y276065D02*
G03*
X216139Y276065I-11811J0D01*
G01*
X209328Y271065D02*
G03*
X199328Y271065I-5000J5000D01*
G01*
X682729Y220000D02*
G03*
X682729Y220000I-9897J0D01*
G01*
X757397D02*
G03*
X757397Y220000I-9897J0D01*
G01*
X330884Y177295D02*
G03*
X330884Y177295I-9897J0D01*
G01*
X743698Y276065D02*
G03*
X743698Y276065I-11811J0D01*
G01*
X726887Y271065D02*
G03*
X726887Y281065I5000J5000D01*
G01*
X501500Y174013D02*
X502287Y174800D01*
X501500Y175587D02*
X501500Y174013D01*
X501500Y175587D02*
X502287Y174800D01*
X424637Y149430D02*
X483692D01*
Y208485D01*
X424637Y149430D02*
Y208485D01*
X483692D01*
X334415Y149432D02*
X393471D01*
Y208488D01*
X334415Y149432D02*
Y208488D01*
X393471D01*
X718108Y149432D02*
X777163D01*
Y208488D01*
X718108Y149432D02*
Y208488D01*
X777163D01*
X643304Y149432D02*
X702360D01*
Y208488D01*
X643304Y149432D02*
Y208488D01*
X702360D01*
X568667Y149432D02*
X627723D01*
Y208488D01*
X568667Y149432D02*
Y208488D01*
X627723D01*
X224500Y404500D02*
Y418323D01*
X184500D02*
X224500D01*
X184500Y404500D02*
Y418323D01*
Y368823D02*
X190000D01*
X184500D02*
Y392323D01*
X224500Y368823D02*
Y392323D01*
X218500Y368823D02*
X224500D01*
X618777Y389175D02*
Y399175D01*
X622242Y369569D02*
X640155D01*
X622242Y418782D02*
X640155D01*
X587399Y369569D02*
X605312D01*
X587399Y418782D02*
X605312D01*
X587399Y408743D02*
Y418783D01*
X640155Y407562D02*
Y418782D01*
Y397797D02*
Y400553D01*
Y387876D02*
Y390632D01*
Y369569D02*
Y380790D01*
X587399Y389156D02*
Y399195D01*
Y369569D02*
Y379608D01*
X705509Y369569D02*
Y379608D01*
Y389156D02*
Y399195D01*
X758265Y369569D02*
Y380790D01*
Y387876D02*
Y390632D01*
Y397797D02*
Y400553D01*
Y407562D02*
Y418782D01*
X705509Y408743D02*
Y418783D01*
Y418782D02*
X723422D01*
X705509Y369569D02*
X723422D01*
X740352Y418782D02*
X758265D01*
X740352Y369569D02*
X758265D01*
X736887Y389175D02*
Y399175D01*
X595495Y215213D02*
X596282Y216000D01*
X594708D02*
X596282D01*
X594708D02*
X595495Y215213D01*
X640155Y290632D02*
Y300671D01*
Y271046D02*
Y281085D01*
X587399Y289451D02*
Y300671D01*
Y279608D02*
Y282364D01*
Y269687D02*
Y272443D01*
Y251458D02*
Y262678D01*
X640155Y251457D02*
Y261497D01*
X622242Y251458D02*
X640155D01*
X622242Y300671D02*
X640155D01*
X587399Y251458D02*
X605312D01*
X587399Y300671D02*
X605312D01*
X608777Y271065D02*
Y281065D01*
X179722Y302443D02*
X189761D01*
X199309D02*
X209348D01*
X179722Y249687D02*
X190942D01*
X198029D02*
X200785D01*
X207950D02*
X210706D01*
X217715D02*
X228935D01*
X218896Y302443D02*
X228936D01*
X228935Y284530D02*
Y302443D01*
X179722Y284530D02*
Y302443D01*
X228935Y249687D02*
Y267600D01*
X179722Y249687D02*
Y267600D01*
X199328Y271065D02*
X209328D01*
X670132Y215213D02*
X670919Y216000D01*
X669345D02*
X670919D01*
X669345D02*
X670132Y215213D01*
X744800Y215213D02*
X745587Y216000D01*
X744013D02*
X745587D01*
X744013D02*
X744800Y215213D01*
X324986Y175382D02*
X325773Y174595D01*
X324986Y175382D02*
X324986Y173808D01*
X325773Y174595D01*
X758265Y290632D02*
Y300671D01*
Y271046D02*
Y281085D01*
X705509Y289451D02*
Y300671D01*
Y279608D02*
Y282364D01*
Y269687D02*
Y272443D01*
Y251458D02*
Y262678D01*
X758265Y251457D02*
Y261497D01*
X740352Y251458D02*
X758265D01*
X740352Y300671D02*
X758265D01*
X705509Y251458D02*
X723422D01*
X705509Y300671D02*
X723422D01*
X726887Y271065D02*
Y281065D01*
D13*
X526867Y285447D02*
G03*
X526080Y285447I-394J0D01*
G01*
D02*
G03*
X526867Y285447I394J0D01*
G01*
X529779Y423803D02*
G03*
X529779Y423803I-394J0D01*
G01*
X518102Y421650D02*
G03*
X518102Y421650I-197J0D01*
G01*
X446000Y437055D02*
Y437843D01*
Y433906D02*
Y434299D01*
X444031Y437055D02*
X447575D01*
X444031D02*
X446000Y434299D01*
X447575Y437055D01*
X444031Y434299D02*
X447968D01*
X439500Y421110D02*
X445000D01*
X439500D02*
Y450374D01*
X445000Y421110D02*
X445000Y421874D01*
X439500Y421874D02*
X445000Y421874D01*
X447000Y421874D02*
X452500Y421874D01*
X447000Y421110D02*
Y421874D01*
X439500Y450374D02*
X441374D01*
X447000Y421110D02*
X452500D01*
X450626Y450374D02*
X452500D01*
Y421110D02*
Y450374D01*
X467819Y430709D02*
X470181Y430709D01*
X470181Y419291D02*
X470181Y430709D01*
X467819Y419291D02*
X470181Y419291D01*
X467819Y430709D02*
X467819Y419291D01*
X461717Y431299D02*
X466441D01*
X446652Y413377D02*
Y414754D01*
X443700Y417707D02*
X446652Y414754D01*
X429133Y417707D02*
X443700Y417707D01*
X429133Y413377D02*
Y417707D01*
X446575Y403291D02*
Y404669D01*
X443622Y400339D02*
X446575Y403291D01*
X429055Y400339D02*
X443622D01*
X429055D02*
Y404669D01*
X472652Y413377D02*
X472652Y414754D01*
X469699Y417707D02*
X472652Y414754D01*
X455133Y417707D02*
X469699Y417707D01*
X455133Y413377D02*
X455133Y417707D01*
X472575Y403291D02*
Y404669D01*
X469622Y400339D02*
X472575Y403291D01*
X455055Y400339D02*
X469622Y400339D01*
X455055Y400339D02*
X455055Y404669D01*
X343295Y425347D02*
X343295Y433614D01*
X317705D02*
X343295D01*
X317705D02*
X317705Y425347D01*
X663969Y431806D02*
Y447357D01*
X691921Y431806D02*
Y447357D01*
X663969D02*
X691921D01*
X665937Y431609D02*
Y432790D01*
X690347D01*
Y431609D02*
Y432790D01*
X663969Y421373D02*
Y422554D01*
Y421373D02*
X665937D01*
Y422554D01*
X692315Y421373D02*
Y422554D01*
X690347Y421373D02*
X692315D01*
X690347D02*
Y422554D01*
X671055Y447357D02*
Y483700D01*
X685228D01*
Y447357D02*
Y483700D01*
X556685Y431806D02*
Y447357D01*
X584638Y431806D02*
Y447357D01*
X556685D02*
X584638D01*
X558654Y431609D02*
Y432790D01*
X583063D01*
Y431609D02*
Y432790D01*
X556685Y421373D02*
Y422554D01*
Y421373D02*
X558654Y421373D01*
Y422554D01*
X585032Y422554D02*
X585032Y421373D01*
X583063D02*
X585032D01*
X583063D02*
Y422554D01*
X563772Y447357D02*
Y483700D01*
X577945D01*
Y447357D02*
Y483700D01*
X653342Y276720D02*
Y282823D01*
X653421Y284201D02*
X693579D01*
Y296799D01*
X653421D02*
X693579D01*
X653421Y284201D02*
Y296799D01*
X653342Y351220D02*
Y357323D01*
X653421Y358701D02*
X693579D01*
Y371299D01*
X653421D02*
X693579D01*
X653421Y358701D02*
Y371299D01*
X491102Y308803D02*
X504898D01*
Y283197D02*
Y308803D01*
X491102Y283197D02*
X504898D01*
X491102D02*
Y308803D01*
X482252Y308264D02*
X487370D01*
X594832Y360279D02*
X600639Y360279D01*
X602017Y333705D02*
Y359295D01*
Y333705D02*
X616583D01*
Y359295D01*
X602017D02*
X616583D01*
X495201Y230079D02*
X507799D01*
Y189921D02*
Y230079D01*
X495201Y189921D02*
X507799D01*
X495201D02*
Y230079D01*
X487720Y230157D02*
X493823D01*
X480799Y209709D02*
Y223291D01*
X468201Y209709D02*
X480799D01*
X468201D02*
Y223291D01*
X480799D01*
X412799Y207209D02*
Y220791D01*
X400201Y207209D02*
X412799D01*
X400201D02*
Y220791D01*
X412799D01*
X530201Y189921D02*
X542799D01*
X530201D02*
Y230079D01*
X542799D01*
Y189921D02*
Y230079D01*
X544177Y189842D02*
X550280D01*
X552354Y205933D02*
Y219516D01*
X564953D01*
Y205933D02*
Y219516D01*
X552354Y205933D02*
X564953D01*
X552201Y186709D02*
Y200291D01*
X564799D01*
Y186709D02*
Y200291D01*
X552201Y186709D02*
X564799D01*
X754256Y442752D02*
Y449248D01*
X740870Y442752D02*
Y449248D01*
Y442752D02*
X754256D01*
X740870Y449248D02*
X754256D01*
X653421Y322201D02*
Y334799D01*
X693579D01*
Y322201D02*
Y334799D01*
X653421Y322201D02*
X693579D01*
X653342Y314721D02*
Y320823D01*
D14*
X385260Y391043D02*
G03*
X384866Y391043I-197J0D01*
G01*
D02*
G03*
X385260Y391043I197J0D01*
G01*
X542661Y390347D02*
X548173Y390347D01*
X542661Y387198D02*
Y390347D01*
X542520Y276772D02*
Y279921D01*
Y276772D02*
X548032D01*
Y390347D01*
X365402Y453445D02*
X396012D01*
X403539Y398327D02*
Y449508D01*
X356642Y393406D02*
X396012D01*
X349114Y398327D02*
Y453445D01*
X352705D01*
D15*
X388480Y231886D02*
Y322786D01*
X387079Y277356D02*
X390229D01*
X153831Y455590D02*
X195169D01*
X153831Y430000D02*
Y455590D01*
X195169Y430000D02*
Y455590D01*
X174500D02*
Y473307D01*
X186311Y455590D02*
Y473307D01*
X174500Y455590D02*
X186311D01*
X174500Y473307D02*
X176469Y471339D01*
X178437Y473307D01*
X180405Y471339D01*
X182374Y473307D01*
X184343Y471339D01*
X183358Y472323D02*
X184343Y471339D01*
X183358Y472323D02*
X184343Y471339D01*
X186311Y473307D01*
X153831Y435906D02*
X195169D01*
X222087Y398500D02*
X222146Y398441D01*
X500079Y409134D02*
X502835D01*
X500079Y404410D02*
X502835D01*
X533598Y454394D02*
Y459236D01*
X498402D02*
X533598D01*
X498402Y454394D02*
Y459236D01*
Y437937D02*
X498402Y443606D01*
X533598Y437937D02*
Y443606D01*
X423547Y231937D02*
Y322837D01*
X421798Y277407D02*
X424948Y277407D01*
X360488Y369725D02*
X451388D01*
X405959Y368324D02*
Y371474D01*
D16*
X430850Y418457D02*
Y425543D01*
X437543Y423969D02*
Y425543D01*
X424157D02*
X437543D01*
X424157Y423969D02*
Y425543D01*
Y418457D02*
Y420031D01*
Y418457D02*
X437543D01*
Y420031D01*
X430850Y426957D02*
X430850Y434043D01*
X437543Y432469D02*
Y434043D01*
X424157D02*
X437543D01*
X424157Y432469D02*
X424157Y434043D01*
X424157Y428532D02*
X424157Y426957D01*
X437543D01*
X437543Y428532D01*
X313968Y413842D02*
X315543D01*
Y400457D02*
Y413842D01*
X313968Y400457D02*
X315543D01*
X308457D02*
X310032D01*
X308457D02*
Y413842D01*
X310032D01*
X308457Y407150D02*
X315543D01*
X313968Y434342D02*
X315543D01*
Y420957D02*
Y434342D01*
X313968Y420957D02*
X315543D01*
X308457D02*
X310032D01*
X308457D02*
Y434342D01*
X310032D01*
X308457Y427650D02*
X315543D01*
X405559Y412744D02*
Y413500D01*
Y412744D02*
X415559D01*
Y413500D01*
Y417500D02*
Y418256D01*
X405559D02*
X415559D01*
X405559Y417500D02*
Y418256D01*
X410559Y412744D02*
Y418256D01*
X405559Y406744D02*
Y407500D01*
Y406744D02*
X415559D01*
Y407500D01*
Y411500D02*
Y412256D01*
X405559D02*
X415559D01*
X405559Y411500D02*
Y412256D01*
X410559Y406744D02*
Y412256D01*
X405559Y394744D02*
Y395500D01*
Y394744D02*
X415559D01*
Y395500D01*
Y399500D02*
Y400256D01*
X405559D02*
X415559D01*
X405559Y399500D02*
Y400256D01*
X410559Y394744D02*
Y400256D01*
X405559Y424744D02*
Y425500D01*
Y424744D02*
X415559D01*
Y425500D01*
Y429500D02*
Y430256D01*
X405559D02*
X415559D01*
X405559Y429500D02*
Y430256D01*
X410559Y424744D02*
Y430256D01*
X405559Y418744D02*
Y419500D01*
Y418744D02*
X415559D01*
Y419500D01*
Y423500D02*
Y424256D01*
X405559D02*
X415559D01*
X405559Y423500D02*
Y424256D01*
X410559Y418744D02*
Y424256D01*
X405559Y400744D02*
Y401500D01*
Y400744D02*
X415559D01*
Y401500D01*
Y405500D02*
Y406256D01*
X405559D02*
X415559D01*
X405559Y405500D02*
Y406256D01*
X410559Y400744D02*
Y406256D01*
X268909Y145210D02*
Y152296D01*
X275602Y150721D02*
Y152296D01*
X262216D02*
X275602D01*
X262216Y150721D02*
Y152296D01*
Y145210D02*
Y146784D01*
Y145210D02*
X275602D01*
Y146784D01*
X520744Y418941D02*
X526256D01*
X520744Y413941D02*
X521500D01*
X520744D02*
Y423941D01*
X521500D01*
X525500D02*
X526256D01*
Y413941D02*
Y423941D01*
X525500Y413941D02*
X526256D01*
X485457Y433658D02*
X487032D01*
X485457D02*
X485457Y447043D01*
X487032Y447043D01*
X490969D02*
X492543Y447043D01*
Y433658D02*
Y447043D01*
X490969Y433658D02*
X492543D01*
X485457Y440350D02*
X492543Y440350D01*
X692441Y212744D02*
Y213500D01*
Y212744D02*
X702441D01*
Y213500D01*
Y217500D02*
Y218256D01*
X692441D02*
X702441D01*
X692441Y217500D02*
Y218256D01*
X697441Y212744D02*
Y218256D01*
X482500Y394744D02*
Y400256D01*
X477500Y399500D02*
Y400256D01*
X487500D01*
Y399500D02*
Y400256D01*
Y394744D02*
Y395500D01*
X477500Y394744D02*
X487500D01*
X477500D02*
Y395500D01*
X495256Y402933D02*
X507657D01*
Y410610D01*
X495256D02*
X507657D01*
X495256Y402933D02*
Y410610D01*
X510622Y415547D02*
Y420272D01*
X517291Y415547D02*
Y420272D01*
X482441Y407244D02*
Y408000D01*
Y407244D02*
X492441D01*
X492441Y408000D01*
X492441Y412756D02*
X492441Y412000D01*
X482441Y412756D02*
X492441D01*
X482441Y412000D02*
Y412756D01*
X487441Y407244D02*
Y412756D01*
X501744Y422500D02*
X502500D01*
X501744Y412500D02*
Y422500D01*
Y412500D02*
X502500Y412500D01*
X506500D02*
X507256Y412500D01*
Y422500D01*
X506500D02*
X507256D01*
X501744Y417500D02*
X507256D01*
X500500Y412441D02*
X501256D01*
X501256Y422441D02*
X501256Y412441D01*
X500500Y422441D02*
X501256Y422441D01*
X495744D02*
X496500D01*
X495744Y412441D02*
Y422441D01*
Y412441D02*
X496500D01*
X495744Y417441D02*
X501256D01*
X482441Y401244D02*
Y402000D01*
Y401244D02*
X492441D01*
X492441Y402000D01*
X492441Y406756D02*
X492441Y406000D01*
X482441Y406756D02*
X492441D01*
X482441Y406000D02*
Y406756D01*
X487441Y401244D02*
Y406756D01*
X472957Y290500D02*
X480043D01*
X478469Y283807D02*
X480043D01*
Y297193D01*
X478469Y297193D02*
X480043Y297193D01*
X472957D02*
X474532Y297193D01*
X472957Y283807D02*
Y297193D01*
Y283807D02*
X474532D01*
X493017Y381526D02*
X500104D01*
X493017Y388219D02*
X494592D01*
X493017Y374833D02*
Y388219D01*
Y374833D02*
X494592Y374833D01*
X498529D02*
X500104Y374833D01*
Y388219D01*
X498529D02*
X500104D01*
X505941Y364744D02*
Y370256D01*
X510941Y364744D02*
Y365500D01*
X500941Y364744D02*
X510941D01*
X500941Y365500D02*
X500941Y364744D01*
X500941Y369500D02*
X500941Y370256D01*
X510941D01*
Y369500D02*
Y370256D01*
X505941Y370744D02*
Y376256D01*
X510941Y370744D02*
Y371500D01*
X500941Y370744D02*
X510941D01*
X500941Y371500D02*
X500941Y370744D01*
X500941Y375500D02*
X500941Y376256D01*
X510941D01*
Y375500D02*
Y376256D01*
X505941Y376744D02*
Y382256D01*
X510941Y376744D02*
X510941Y377500D01*
X500941Y376744D02*
X510941D01*
X500941D02*
Y377500D01*
Y381500D02*
Y382256D01*
X510941D01*
Y381500D02*
Y382256D01*
X505941Y382744D02*
Y388256D01*
X510941Y382744D02*
Y383500D01*
X500941Y382744D02*
X510941Y382744D01*
X500941Y382744D02*
X500941Y383500D01*
X500941Y387500D02*
Y388256D01*
X510941D01*
Y387500D02*
Y388256D01*
X505941Y388744D02*
Y394256D01*
X510941Y388744D02*
Y389500D01*
X500941Y388744D02*
X510941D01*
X500941Y389500D02*
X500941Y388744D01*
X500941Y393500D02*
Y394256D01*
X510941D01*
Y393500D02*
Y394256D01*
X482102Y423012D02*
X494898D01*
X493421Y413661D02*
X494898Y413661D01*
X494898Y432362D02*
X494898Y413661D01*
X493421Y432362D02*
X494898D01*
X482102Y432362D02*
X483579Y432362D01*
X482102Y413661D02*
Y432362D01*
Y413661D02*
X483579Y413661D01*
X579400Y355900D02*
Y356400D01*
Y355900D02*
X588400D01*
Y356400D01*
Y359400D02*
Y359900D01*
X579400D02*
X588400D01*
X579400Y359400D02*
Y359900D01*
X583900Y355900D02*
Y359900D01*
X586500Y360957D02*
Y368043D01*
X593193Y366469D02*
Y368043D01*
X579807D02*
X593193D01*
X579807Y366469D02*
Y368043D01*
Y360957D02*
Y362531D01*
Y360957D02*
X593193D01*
Y362531D01*
X512441Y231744D02*
Y237256D01*
X517441Y231744D02*
Y232500D01*
X507441Y231744D02*
X517441D01*
X507441D02*
Y232500D01*
Y236500D02*
Y237256D01*
X517441D01*
Y236500D02*
Y237256D01*
X400559Y198744D02*
Y204256D01*
X395559Y203500D02*
Y204256D01*
X405559D01*
Y203500D02*
Y204256D01*
Y198744D02*
Y199500D01*
X395559Y198744D02*
X405559D01*
X395559D02*
Y199500D01*
X415000Y198744D02*
Y204256D01*
X420000Y198744D02*
Y199500D01*
X410000Y198744D02*
X420000D01*
X410000D02*
Y199500D01*
Y203500D02*
Y204256D01*
X420000D01*
Y203500D02*
Y204256D01*
X577941Y412244D02*
Y417756D01*
X582941Y412244D02*
Y413000D01*
X572941Y412244D02*
X582941D01*
X572941D02*
Y413000D01*
Y417000D02*
Y417756D01*
X582941D01*
Y417000D02*
Y417756D01*
X687059Y412244D02*
Y417756D01*
X682059Y417000D02*
Y417756D01*
X692059D01*
Y417000D02*
Y417756D01*
Y412244D02*
Y413000D01*
X682059Y412244D02*
X692059D01*
X682059D02*
Y413000D01*
X292744Y154059D02*
X298256D01*
X292744Y149059D02*
X293500D01*
X292744D02*
Y159059D01*
X293500D01*
X297500D02*
X298256D01*
Y149059D02*
Y159059D01*
X297500Y149059D02*
X298256D01*
X722500Y212744D02*
Y218256D01*
X727500Y212744D02*
Y213500D01*
X717500Y212744D02*
X727500D01*
X717500D02*
Y213500D01*
Y217500D02*
Y218256D01*
X727500D01*
Y217500D02*
Y218256D01*
X622941Y212244D02*
Y217756D01*
X617941Y217000D02*
Y217756D01*
X627941D01*
Y217000D02*
Y217756D01*
Y212244D02*
Y213000D01*
X617941Y212244D02*
X627941D01*
X617941D02*
Y213000D01*
X286744Y153941D02*
X292256D01*
X286744Y148941D02*
X287500D01*
X286744D02*
Y158941D01*
X287500D01*
X291500D02*
X292256D01*
Y148941D02*
Y158941D01*
X291500Y148941D02*
X292256D01*
X530031Y422437D02*
X530819D01*
X530031Y414563D02*
Y422437D01*
Y414563D02*
X530819D01*
X533181D02*
X533968D01*
Y422437D01*
X533181D02*
X533968D01*
D17*
X244489Y407977D02*
X268111D01*
Y456009D01*
X246458D02*
Y463883D01*
X266143Y456009D02*
Y463883D01*
X244489Y456009D02*
X268111D01*
X246458Y463883D02*
X266143D01*
X244489Y407977D02*
Y456009D01*
M02*
