G04*
G04 #@! TF.GenerationSoftware,Altium Limited,Altium Designer,21.8.1 (53)*
G04*
G04 Layer_Color=32896*
%FSLAX25Y25*%
%MOIN*%
G70*
G04*
G04 #@! TF.SameCoordinates,5834F34B-C4A2-4629-ADC7-1C587854752A*
G04*
G04*
G04 #@! TF.FilePolarity,Positive*
G04*
G01*
G75*
%ADD10C,0.00600*%
%ADD12C,0.01000*%
%ADD13C,0.00787*%
%ADD15C,0.00500*%
%ADD16C,0.00591*%
%ADD17C,0.00050*%
%ADD117C,0.00800*%
D10*
X647636Y217717D02*
G03*
X647636Y217717I-5904J0D01*
G01*
X640943Y322047D02*
G03*
X640943Y322047I-5904J0D01*
G01*
X282675Y393307D02*
G03*
X282675Y393307I-5904J0D01*
G01*
X277557Y162992D02*
G03*
X277557Y162992I-5904J0D01*
G01*
X251654Y395086D02*
G03*
X251654Y395086I-7874J0D01*
G01*
X576071D02*
G03*
X576071Y395086I-7874J0D01*
G01*
Y235086D02*
G03*
X576071Y235086I-7874J0D01*
G01*
X251654D02*
G03*
X251654Y235086I-7874J0D01*
G01*
X354700Y332600D02*
Y335700D01*
X446100Y332600D02*
X457400D01*
Y351700D02*
Y354600D01*
X354700D02*
X363900D01*
X448100D02*
X457400D01*
X354700Y332600D02*
X365900D01*
X354700Y351700D02*
Y354600D01*
X457400Y332600D02*
Y335700D01*
D12*
X337012Y390622D02*
X337012Y349362D01*
X322839Y390622D02*
X337012D01*
X322839Y349284D02*
Y390622D01*
Y349284D02*
X337012Y349284D01*
X328980D02*
Y351725D01*
X334575D01*
Y349284D02*
Y351725D01*
X334575Y388181D02*
Y390622D01*
X328980Y388181D02*
X334575Y388181D01*
X328980Y388181D02*
Y390622D01*
X259878Y144012D02*
X301138D01*
X259878Y129839D02*
Y144012D01*
Y129839D02*
X301216D01*
X301216Y144012D01*
X298776Y135980D02*
X301216D01*
X298776D02*
Y141575D01*
X301216D01*
X259878Y141575D02*
X262319D01*
X262319Y135980D01*
X259878D02*
X262319D01*
X332300Y400098D02*
Y394100D01*
Y397099D01*
X328301D01*
Y400098D01*
Y394100D01*
X322303D02*
X326302D01*
X322303Y398099D01*
Y399098D01*
X323303Y400098D01*
X325302D01*
X326302Y399098D01*
X268400Y153498D02*
Y147500D01*
Y150499D01*
X264401D01*
Y153498D01*
Y147500D01*
X262402D02*
X260403D01*
X261402D01*
Y153498D01*
X262402Y152498D01*
D13*
X748244Y269838D02*
Y282436D01*
X714189Y282436D02*
X748244Y282436D01*
X714189Y269838D02*
Y282436D01*
Y269838D02*
X748244D01*
X748874Y262358D02*
Y268460D01*
X197957Y292422D02*
X210555D01*
X197957Y258367D02*
Y292422D01*
Y258367D02*
X210555D01*
Y292422D01*
X211933Y293052D02*
X218036D01*
X715530Y387804D02*
Y400403D01*
Y387804D02*
X749585Y387804D01*
Y400403D01*
X715530D02*
X749585D01*
X714900Y401781D02*
Y407883D01*
X597420Y387804D02*
Y400403D01*
Y387804D02*
X631475Y387804D01*
Y400403D01*
X597420D02*
X631475D01*
X596790Y401781D02*
Y407883D01*
X630134Y269838D02*
Y282436D01*
X596079Y282436D02*
X630134Y282436D01*
X596079Y269838D02*
Y282436D01*
Y269838D02*
X630134D01*
X630764Y262358D02*
Y268460D01*
D15*
X360600Y343700D02*
X451500D01*
X406030Y341951D02*
Y345101D01*
D16*
X456000Y419244D02*
Y424756D01*
X451000Y419244D02*
Y420000D01*
Y419244D02*
X461000D01*
Y420000D01*
Y424756D02*
X461000Y424000D01*
X451000Y424756D02*
X461000D01*
X451000Y424000D02*
Y424756D01*
X456000Y425244D02*
Y430756D01*
X461000Y430000D02*
Y430756D01*
X451000D02*
X461000D01*
X451000Y430000D02*
Y430756D01*
X451000Y425244D02*
Y426000D01*
Y425244D02*
X461000D01*
Y426000D01*
X715658Y255137D02*
X721169D01*
X715658Y260137D02*
X716413D01*
X715658Y250137D02*
Y260137D01*
Y250137D02*
X716413D01*
X720413D02*
X721169D01*
Y260137D01*
X720413D02*
X721169D01*
X748461Y255137D02*
X753972D01*
X748461Y260137D02*
X749217D01*
X748461Y250137D02*
Y260137D01*
Y250137D02*
X749217D01*
X753217D02*
X753972D01*
Y260137D01*
X753217Y260137D02*
X753972Y260137D01*
X742461Y255137D02*
X747972D01*
X742461Y260137D02*
X743217D01*
X742461Y250137D02*
Y260137D01*
Y250137D02*
X743217D01*
X747217D02*
X747972D01*
Y260137D01*
X747217Y260137D02*
X747972Y260137D01*
X721366Y246680D02*
X721366Y239594D01*
X728059D02*
Y241169D01*
X714673Y239594D02*
X728059D01*
X714673D02*
Y241169D01*
Y245106D02*
Y246680D01*
X728059D01*
Y245106D02*
Y246680D01*
X755366Y238594D02*
X755366Y245680D01*
X762059Y238594D02*
Y240169D01*
X748673Y238594D02*
X762059D01*
X748673D02*
Y240169D01*
X748673Y245680D02*
X748673Y244106D01*
X748673Y245680D02*
X762059D01*
Y244106D02*
Y245680D01*
X741067Y238594D02*
Y245680D01*
X734374Y244106D02*
Y245680D01*
X747760D01*
Y244106D02*
Y245680D01*
Y238594D02*
Y240169D01*
X734374Y238594D02*
X747760D01*
X734374D02*
Y240169D01*
X225256Y259836D02*
Y265347D01*
X220256Y259836D02*
Y260591D01*
Y259836D02*
X230256D01*
X230256Y260591D01*
X230256Y265347D02*
X230256Y264591D01*
X220256Y265347D02*
X230256D01*
X220256Y264591D02*
Y265347D01*
X225256Y292639D02*
Y298150D01*
X220256Y292639D02*
Y293394D01*
Y292639D02*
X230256D01*
Y293394D01*
Y297394D02*
Y298150D01*
X220256D02*
X230256D01*
X220256Y297394D02*
Y298150D01*
X225256Y286639D02*
Y292150D01*
X220256Y286639D02*
Y287394D01*
Y286639D02*
X230256D01*
Y287394D01*
Y291394D02*
Y292150D01*
X220256D02*
X230256D01*
X220256Y291394D02*
Y292150D01*
X233713Y265544D02*
X240799D01*
X239225Y272237D02*
X240799D01*
Y258851D02*
Y272237D01*
X239225Y258851D02*
X240799D01*
X233713D02*
X235288D01*
X233713D02*
Y272237D01*
X235288D01*
X234713Y299544D02*
X241799D01*
X240225Y306237D02*
X241799D01*
Y292851D02*
Y306237D01*
X240225Y292851D02*
X241799D01*
X234713D02*
X236288D01*
X234713D02*
Y306237D01*
X236288D01*
X234713Y285245D02*
X241799D01*
X234713Y278552D02*
X236288D01*
X234713D02*
Y291938D01*
X236288D01*
X240225D02*
X241799D01*
Y278552D02*
Y291938D01*
X240225Y278552D02*
X241799D01*
X191925Y315505D02*
Y316261D01*
X201925D01*
X201925Y315505D01*
X201925Y310749D02*
X201925Y311505D01*
X191925Y310749D02*
X201925D01*
X191925D02*
Y311505D01*
X196925Y310749D02*
Y316261D01*
X216807Y234749D02*
Y235505D01*
X206807Y234749D02*
X216807D01*
X206807D02*
Y235505D01*
Y239505D02*
Y240261D01*
X216807D01*
Y239505D02*
Y240261D01*
X211807Y234749D02*
Y240261D01*
X191925Y239505D02*
Y240261D01*
X201925D01*
Y239505D02*
Y240261D01*
Y234749D02*
Y235505D01*
X191925Y234749D02*
X201925D01*
X191925D02*
Y235505D01*
X196925Y234749D02*
Y240261D01*
X771207Y288348D02*
X771963D01*
Y278348D02*
Y288348D01*
X771207Y278348D02*
X771963D01*
X766451Y278348D02*
X767207D01*
X766451D02*
Y288348D01*
X767207D01*
X766451Y283348D02*
X771963Y283348D01*
X653217Y288468D02*
X653972D01*
Y278468D02*
Y288468D01*
X653217Y278468D02*
X653972D01*
X648461D02*
X649217Y278468D01*
X648461Y278468D02*
Y288468D01*
X649217D01*
X648461Y283468D02*
X653972D01*
X649581Y381773D02*
X650337D01*
X649581D02*
Y391773D01*
X650337D01*
X654337D02*
X655093D01*
Y381773D02*
Y391773D01*
X654337Y381773D02*
X655093D01*
X649581Y386773D02*
X655093D01*
X722707Y424560D02*
Y431647D01*
X729400Y424560D02*
Y426135D01*
X716014Y424560D02*
X729400D01*
X716014D02*
Y426135D01*
Y430072D02*
Y431647D01*
X729400D01*
Y430072D02*
Y431647D01*
X708408Y424560D02*
X708408Y431647D01*
X701715Y430072D02*
Y431647D01*
X715101D01*
Y430072D02*
Y431647D01*
X715101Y426135D02*
X715101Y424560D01*
X701715D02*
X715101D01*
X701715D02*
Y426135D01*
X742408Y430647D02*
X742408Y423560D01*
X735715Y429072D02*
Y430647D01*
X749101D01*
Y429072D02*
Y430647D01*
Y423560D02*
Y425135D01*
X735715Y423560D02*
X749101D01*
X735715D02*
Y425135D01*
X715802Y415103D02*
X721314D01*
X720558Y410103D02*
X721314D01*
Y420103D01*
X720558D02*
X721314D01*
X715802D02*
X716558D01*
X715802Y410103D02*
Y420103D01*
Y410103D02*
X716558Y410103D01*
X709802Y415103D02*
X715314D01*
X714558Y410103D02*
X715314D01*
Y420103D01*
X714558D02*
X715314D01*
X709802D02*
X710558D01*
X709802Y410103D02*
Y420103D01*
Y410103D02*
X710558Y410103D01*
X742605Y415103D02*
X748117D01*
X747361Y410103D02*
X748117D01*
Y420103D01*
X747361D02*
X748117D01*
X742605D02*
X743361D01*
X742605Y410103D02*
Y420103D01*
Y410103D02*
X743361D01*
X643150Y421457D02*
Y428543D01*
X649843Y421457D02*
Y423032D01*
X636457Y421457D02*
X649843D01*
X636457D02*
Y423032D01*
Y426968D02*
Y428543D01*
X649843D01*
Y426968D02*
Y428543D01*
X577500Y411457D02*
X577500Y418543D01*
X570807Y416968D02*
Y418543D01*
X584193D01*
Y416968D02*
Y418543D01*
X584193Y413031D02*
X584193Y411457D01*
X570807D02*
X584193D01*
X570807D02*
Y413031D01*
X643150Y420543D02*
X643150Y413457D01*
X649843D02*
Y415031D01*
X636457Y413457D02*
X649843D01*
X636457D02*
X636457Y415031D01*
Y418968D02*
Y420543D01*
X649843D01*
Y418968D02*
Y420543D01*
X597692Y415103D02*
X603203D01*
X602448Y410103D02*
X603203D01*
Y420103D01*
X602448D02*
X603203D01*
X597692D02*
X598448D01*
X597692Y410103D02*
Y420103D01*
Y410103D02*
X598448Y410103D01*
X591692Y415103D02*
X597203D01*
X596448Y410103D02*
X597203D01*
Y420103D01*
X596448D02*
X597203D01*
X591692D02*
X592448D01*
X591692Y410103D02*
Y420103D01*
Y410103D02*
X592448Y410103D01*
X624495Y415103D02*
X630007D01*
X629251Y410103D02*
X630007D01*
Y420103D01*
X629251D02*
X630007D01*
X624495D02*
X625251D01*
X624495Y410103D02*
Y420103D01*
Y410103D02*
X625251D01*
X622957Y238594D02*
Y245680D01*
X616264Y244106D02*
Y245680D01*
X629650D01*
Y244106D02*
Y245680D01*
Y238594D02*
Y240169D01*
X616264Y238594D02*
X629650D01*
X616264D02*
Y240169D01*
X637256Y238594D02*
X637256Y245680D01*
X643949Y238594D02*
Y240169D01*
X630563Y238594D02*
X643949D01*
X630563D02*
Y240169D01*
X630563Y245680D02*
X630563Y244106D01*
X630563Y245680D02*
X643949D01*
Y244106D02*
Y245680D01*
X603256Y246680D02*
X603256Y239594D01*
X609949D02*
Y241169D01*
X596563Y239594D02*
X609949D01*
X596563D02*
Y241169D01*
Y245106D02*
Y246680D01*
X609949D01*
Y245106D02*
Y246680D01*
X624351Y255137D02*
X629862D01*
X624351Y260137D02*
X625106D01*
X624351Y250137D02*
Y260137D01*
Y250137D02*
X625106D01*
X629106D02*
X629862D01*
Y260137D01*
X629106Y260137D02*
X629862Y260137D01*
X630350Y255137D02*
X635862D01*
X630350Y260137D02*
X631106D01*
X630350Y250137D02*
Y260137D01*
Y250137D02*
X631106D01*
X635106D02*
X635862D01*
Y260137D01*
X635106Y260137D02*
X635862Y260137D01*
X597547Y255137D02*
X603059D01*
X597547Y260137D02*
X598303D01*
X597547Y250137D02*
Y260137D01*
Y250137D02*
X598303D01*
X602303D02*
X603059D01*
Y260137D01*
X602303D02*
X603059D01*
X767496Y401459D02*
X773008D01*
X767496Y406459D02*
X768252D01*
X767496Y396459D02*
Y406459D01*
Y396459D02*
X768252D01*
X772252D02*
X773008D01*
Y406459D01*
X772252D02*
X773008D01*
X649581Y401654D02*
X655093D01*
X649581Y406655D02*
X650337D01*
X649581Y396655D02*
Y406655D01*
Y396655D02*
X650337Y396655D01*
X654337D02*
X655093D01*
Y406655D01*
X654337D02*
X655093D01*
X691752Y386832D02*
X697263D01*
X696508Y381833D02*
X697263D01*
Y391832D01*
X696508D02*
X697263D01*
X691752Y391832D02*
X692508D01*
X691752Y381833D02*
Y391832D01*
Y381833D02*
X692508D01*
X573701Y381774D02*
X579213D01*
X573701Y386774D02*
X574457D01*
X573701Y376774D02*
Y386774D01*
Y376774D02*
X574457D01*
X578457Y376774D02*
X579213D01*
Y386774D01*
X578457Y386774D02*
X579213Y386774D01*
X690571Y283468D02*
X696083D01*
X690571Y288468D02*
X691327D01*
X690571Y278468D02*
Y288468D01*
Y278468D02*
X691327D01*
X695327D02*
X696083D01*
Y288468D01*
X695327D02*
X696083D01*
X572580Y283348D02*
X578092D01*
X572580Y288348D02*
X573336D01*
X572580Y278348D02*
Y288348D01*
Y278348D02*
X573336D01*
X577336D02*
X578092D01*
Y288348D01*
X577336D02*
X578092D01*
X690571Y268586D02*
X696083D01*
X695327Y263586D02*
X696083D01*
Y273586D01*
X695327Y273586D02*
X696083Y273586D01*
X690571D02*
X691327Y273586D01*
X690571Y263586D02*
Y273586D01*
Y263586D02*
X691327D01*
X572558Y268684D02*
X578070D01*
X577314Y263684D02*
X578070Y263684D01*
X578070Y273684D01*
X577314D02*
X578070D01*
X572558Y273684D02*
X573314D01*
X572558Y263684D02*
Y273684D01*
Y263684D02*
X573314D01*
X767572Y386892D02*
X773084D01*
X772328Y381892D02*
X773084D01*
Y391892D01*
X772328D02*
X773084D01*
X767572D02*
X768328D01*
X767572Y381892D02*
Y391892D01*
Y381892D02*
X768328D01*
D17*
X203689Y407796D02*
X227311D01*
X203689D02*
Y455828D01*
X225342D02*
Y463702D01*
X205658Y455828D02*
Y463702D01*
X203689Y455828D02*
X227311D01*
X205658Y463702D02*
X225342D01*
X227311Y407796D02*
Y455828D01*
D117*
X323000Y352189D02*
X326000Y349189D01*
X323000Y352189D02*
Y352689D01*
X298311Y130000D02*
X301311Y133000D01*
X297811Y130000D02*
X298311D01*
M02*
