G04*
G04 #@! TF.GenerationSoftware,Altium Limited,Altium Designer,21.8.1 (53)*
G04*
G04 Layer_Color=8388736*
%FSLAX25Y25*%
%MOIN*%
G70*
G04*
G04 #@! TF.SameCoordinates,5834F34B-C4A2-4629-ADC7-1C587854752A*
G04*
G04*
G04 #@! TF.FilePolarity,Negative*
G04*
G01*
G75*
%ADD58R,0.13800X0.05500*%
%ADD59R,0.08600X0.03200*%
%ADD60R,0.10243X0.22054*%
%ADD61R,0.07093X0.10243*%
%ADD62R,0.05124X0.02762*%
%ADD63R,0.10243X0.06699*%
%ADD64R,0.05518X0.05912*%
%ADD65R,0.19691X0.23432*%
%ADD66R,0.04337X0.08668*%
%ADD67R,0.05912X0.05518*%
%ADD68R,0.03747X0.04140*%
%ADD69R,0.10600X0.06600*%
%ADD70R,0.12600X0.06600*%
%ADD71R,0.04140X0.03747*%
%ADD72R,0.11036X0.01981*%
%ADD73R,0.14179X0.10833*%
%ADD74R,0.03550X0.02368*%
%ADD75R,0.02762X0.06109*%
%ADD76R,0.01981X0.06509*%
%ADD77R,0.01460X0.02405*%
%ADD78R,0.02959X0.06502*%
%ADD79R,0.05518X0.04140*%
%ADD80R,0.05518X0.13195*%
%ADD81R,0.11030X0.05518*%
%ADD82R,0.05124X0.03747*%
%ADD83R,0.03333X0.04928*%
%ADD84R,0.04140X0.03943*%
%ADD85R,0.05518X0.03747*%
%ADD86R,0.02959X0.03353*%
%ADD87R,0.02959X0.03747*%
%ADD88R,0.03156X0.02959*%
%ADD89R,0.03156X0.03353*%
%ADD90R,0.06607X0.02572*%
%ADD91R,0.03353X0.02762*%
%ADD92R,0.06502X0.02959*%
%ADD93R,0.03943X0.02172*%
%ADD94R,0.04337X0.05321*%
%ADD95R,0.02920X0.02762*%
%ADD96R,0.05500X0.13800*%
%ADD97R,0.03200X0.08600*%
%ADD98C,0.10243*%
%ADD99C,0.08200*%
%ADD100C,0.16148*%
%ADD101O,0.06699X0.04731*%
%ADD102O,0.04731X0.06699*%
%ADD103C,0.06660*%
%ADD104C,0.07880*%
%ADD105C,0.00600*%
%ADD106O,0.05124X0.04731*%
%ADD107C,0.07487*%
%ADD108C,0.14180*%
%ADD109C,0.08274*%
%ADD110C,0.08668*%
%ADD111C,0.07487*%
%ADD112O,0.09849X0.15361*%
%ADD113C,0.03156*%
%ADD114O,0.04534X0.08668*%
%ADD115O,0.15361X0.09849*%
%ADD116O,0.04731X0.05124*%
D58*
X388480Y226786D02*
D03*
Y327986D02*
D03*
X423547Y226837D02*
D03*
Y328037D02*
D03*
D59*
X380780Y316686D02*
D03*
X396180Y314786D02*
D03*
X380780Y312786D02*
D03*
X396180Y310786D02*
D03*
X380780Y308886D02*
D03*
X396180Y306886D02*
D03*
X380780Y304886D02*
D03*
X396180Y302986D02*
D03*
X380780Y300986D02*
D03*
X396180Y298986D02*
D03*
X380780Y297086D02*
D03*
X396180Y295086D02*
D03*
X380780Y293086D02*
D03*
X396180Y291086D02*
D03*
X380780Y289186D02*
D03*
X396180Y287186D02*
D03*
X380780Y285186D02*
D03*
X396180Y283286D02*
D03*
X380780Y281286D02*
D03*
X396180Y279286D02*
D03*
X380780Y277386D02*
D03*
X396180Y275386D02*
D03*
X380780Y273386D02*
D03*
X396180Y271486D02*
D03*
X380780Y269486D02*
D03*
X396180Y267486D02*
D03*
X380780Y265586D02*
D03*
X396180Y263586D02*
D03*
X380780Y261586D02*
D03*
X396180Y259686D02*
D03*
X380780Y257686D02*
D03*
X396180Y255686D02*
D03*
X380780Y253686D02*
D03*
X396180Y251786D02*
D03*
X380780Y249786D02*
D03*
X396180Y247786D02*
D03*
X380780Y245886D02*
D03*
X396180Y243886D02*
D03*
X380780Y241886D02*
D03*
X396180Y239986D02*
D03*
X380780Y237986D02*
D03*
X431247Y316737D02*
D03*
X415847Y314837D02*
D03*
X431247Y312837D02*
D03*
X415847Y310837D02*
D03*
X431247Y308937D02*
D03*
X415847Y306937D02*
D03*
X431247Y304937D02*
D03*
X415847Y303037D02*
D03*
X431247Y301037D02*
D03*
X415847Y299037D02*
D03*
X431247Y297137D02*
D03*
X415847Y295137D02*
D03*
X431247Y293137D02*
D03*
X415847Y291137D02*
D03*
X431247Y289237D02*
D03*
X415847Y287237D02*
D03*
X431247Y285237D02*
D03*
X415847Y283337D02*
D03*
X431247Y281337D02*
D03*
X415847Y279337D02*
D03*
X431247Y277437D02*
D03*
X415847Y275437D02*
D03*
X431247Y273437D02*
D03*
X415847Y271537D02*
D03*
X431247Y269537D02*
D03*
X415847Y267537D02*
D03*
X431247Y265637D02*
D03*
X415847Y263637D02*
D03*
X431247Y261637D02*
D03*
X415847Y259737D02*
D03*
X431247Y257737D02*
D03*
X415847Y255737D02*
D03*
X431247Y253737D02*
D03*
X415847Y251837D02*
D03*
X431247Y249837D02*
D03*
X415847Y247837D02*
D03*
X431247Y245937D02*
D03*
X415847Y243937D02*
D03*
X431247Y241937D02*
D03*
X415847Y240037D02*
D03*
X431247Y238037D02*
D03*
D60*
X478858Y444000D02*
D03*
X463858Y444000D02*
D03*
D61*
X446000Y428000D02*
D03*
Y443748D02*
D03*
D62*
X464079Y428740D02*
D03*
X464079Y425000D02*
D03*
X464079Y421260D02*
D03*
X473921Y421260D02*
D03*
Y425000D02*
D03*
X473921Y428740D02*
D03*
D63*
X431220Y409000D02*
D03*
X445000D02*
D03*
X457221Y409000D02*
D03*
X471000D02*
D03*
D64*
X427701Y422000D02*
D03*
X434000D02*
D03*
X427701Y430500D02*
D03*
X434000D02*
D03*
X265759Y148753D02*
D03*
X272058D02*
D03*
X583350Y364500D02*
D03*
X589650D02*
D03*
D65*
X330500Y412354D02*
D03*
D66*
X321524Y439126D02*
D03*
X339476D02*
D03*
D67*
X312000Y410299D02*
D03*
Y404000D02*
D03*
Y430799D02*
D03*
Y424500D02*
D03*
X489000Y437201D02*
D03*
X489000Y443500D02*
D03*
X476500Y293650D02*
D03*
Y287350D02*
D03*
X496560Y378376D02*
D03*
Y384676D02*
D03*
D68*
X413118Y415500D02*
D03*
X408000D02*
D03*
X413118Y409500D02*
D03*
X408000D02*
D03*
X413118Y397500D02*
D03*
X408000D02*
D03*
X413118Y427500D02*
D03*
X408000D02*
D03*
X413118Y421500D02*
D03*
X408000D02*
D03*
X413118Y403500D02*
D03*
X408000D02*
D03*
X700000Y215500D02*
D03*
X694882D02*
D03*
X479941Y397500D02*
D03*
X485059D02*
D03*
X490000Y410000D02*
D03*
X484882D02*
D03*
X490000Y404000D02*
D03*
X484882D02*
D03*
X508500Y367500D02*
D03*
X503382D02*
D03*
X508500Y373500D02*
D03*
X503382D02*
D03*
X508500Y379500D02*
D03*
X503382D02*
D03*
X508500Y385500D02*
D03*
X503382D02*
D03*
X508500Y391500D02*
D03*
X503382D02*
D03*
X515000Y234500D02*
D03*
X509882D02*
D03*
X398000Y201500D02*
D03*
X403118D02*
D03*
X417559D02*
D03*
X412441D02*
D03*
X580500Y415000D02*
D03*
X575382D02*
D03*
X684500D02*
D03*
X689618D02*
D03*
X725059Y215500D02*
D03*
X719941D02*
D03*
X620382Y215000D02*
D03*
X625500D02*
D03*
D69*
X242324Y445576D02*
D03*
Y418016D02*
D03*
X270276Y434552D02*
D03*
Y448725D02*
D03*
D70*
X269434Y410859D02*
D03*
D71*
X523500Y416382D02*
D03*
Y421500D02*
D03*
X504500Y414941D02*
D03*
Y420059D02*
D03*
X498500Y420000D02*
D03*
Y414882D02*
D03*
X295500Y151500D02*
D03*
Y156618D02*
D03*
X289500Y151382D02*
D03*
Y156500D02*
D03*
D72*
X530315Y349606D02*
D03*
X530315Y353543D02*
D03*
X530315Y355512D02*
D03*
Y347638D02*
D03*
Y351575D02*
D03*
X530315Y377165D02*
D03*
Y365354D02*
D03*
X530315Y316142D02*
D03*
Y304331D02*
D03*
Y373228D02*
D03*
Y357480D02*
D03*
Y306299D02*
D03*
Y298425D02*
D03*
Y367323D02*
D03*
X530315Y288583D02*
D03*
X530315Y318110D02*
D03*
X530315Y385039D02*
D03*
X530315Y320079D02*
D03*
X530315Y312205D02*
D03*
X530315Y375197D02*
D03*
X530315Y310236D02*
D03*
Y314173D02*
D03*
X530315Y359449D02*
D03*
Y369291D02*
D03*
Y371260D02*
D03*
Y296457D02*
D03*
Y302362D02*
D03*
Y322047D02*
D03*
Y300394D02*
D03*
X530315Y379134D02*
D03*
Y381102D02*
D03*
X530315Y292520D02*
D03*
Y294488D02*
D03*
Y308268D02*
D03*
X530315Y290551D02*
D03*
Y383071D02*
D03*
X530315Y361417D02*
D03*
X530315Y363386D02*
D03*
Y341732D02*
D03*
Y339764D02*
D03*
X530315Y343701D02*
D03*
Y335827D02*
D03*
Y337795D02*
D03*
Y345669D02*
D03*
Y329921D02*
D03*
X530315Y333858D02*
D03*
Y331890D02*
D03*
Y327953D02*
D03*
Y325984D02*
D03*
X530315Y324016D02*
D03*
D73*
X537773Y281447D02*
D03*
Y392175D02*
D03*
D74*
X497913Y405000D02*
D03*
Y408543D02*
D03*
X505000D02*
D03*
Y405000D02*
D03*
D75*
X503205Y428941D02*
D03*
X506354D02*
D03*
X525646D02*
D03*
X528795D02*
D03*
D76*
X509110Y428941D02*
D03*
X511079D02*
D03*
X513047D02*
D03*
X515016Y428941D02*
D03*
X522890Y428941D02*
D03*
X520921D02*
D03*
X518953D02*
D03*
X516984Y428941D02*
D03*
D77*
X512000Y421000D02*
D03*
X515937Y414819D02*
D03*
X513969D02*
D03*
X512000D02*
D03*
X513969Y421000D02*
D03*
X515937D02*
D03*
D78*
X656000Y301228D02*
D03*
X661000Y301228D02*
D03*
X666000Y301228D02*
D03*
X671000D02*
D03*
X676000D02*
D03*
X681000D02*
D03*
X686000Y301228D02*
D03*
X691000Y301228D02*
D03*
Y279772D02*
D03*
X686000Y279772D02*
D03*
X681000Y279772D02*
D03*
X676000D02*
D03*
X671000D02*
D03*
X666000D02*
D03*
X661000Y279772D02*
D03*
X656000Y279772D02*
D03*
Y375728D02*
D03*
X661000Y375728D02*
D03*
X666000Y375728D02*
D03*
X671000D02*
D03*
X676000D02*
D03*
X681000D02*
D03*
X686000Y375728D02*
D03*
X691000Y375728D02*
D03*
Y354272D02*
D03*
X686000Y354272D02*
D03*
X681000Y354272D02*
D03*
X676000D02*
D03*
X671000D02*
D03*
X666000D02*
D03*
X661000Y354272D02*
D03*
X656000Y354272D02*
D03*
Y317772D02*
D03*
X661000Y317772D02*
D03*
X666000Y317772D02*
D03*
X671000D02*
D03*
X676000D02*
D03*
X681000D02*
D03*
X686000Y317772D02*
D03*
X691000Y317772D02*
D03*
Y339228D02*
D03*
X686000Y339228D02*
D03*
X681000Y339228D02*
D03*
X676000D02*
D03*
X671000D02*
D03*
X666000D02*
D03*
X661000Y339228D02*
D03*
X656000Y339228D02*
D03*
D79*
X484811Y305016D02*
D03*
Y296000D02*
D03*
Y286984D02*
D03*
D80*
X511189Y296000D02*
D03*
D81*
X488500Y417500D02*
D03*
X488500Y428524D02*
D03*
D82*
X357772Y452756D02*
D03*
D83*
X350894Y395276D02*
D03*
D84*
X402213Y394980D02*
D03*
D85*
X400000Y452756D02*
D03*
D86*
X387646Y452953D02*
D03*
D87*
X362646Y452756D02*
D03*
D88*
X379181Y401181D02*
D03*
X363433D02*
D03*
D89*
X357528Y405905D02*
D03*
X361465D02*
D03*
X365402D02*
D03*
X369339D02*
D03*
X373276D02*
D03*
X377213D02*
D03*
X381150D02*
D03*
X385087D02*
D03*
D90*
X620867Y358016D02*
D03*
Y355457D02*
D03*
Y352898D02*
D03*
Y350339D02*
D03*
Y347779D02*
D03*
Y345220D02*
D03*
Y342661D02*
D03*
Y340102D02*
D03*
Y337543D02*
D03*
Y334984D02*
D03*
X597733D02*
D03*
Y337543D02*
D03*
Y340102D02*
D03*
Y342661D02*
D03*
Y345220D02*
D03*
Y347779D02*
D03*
Y350339D02*
D03*
Y352898D02*
D03*
Y355457D02*
D03*
Y358016D02*
D03*
D91*
X581636Y357900D02*
D03*
X586164D02*
D03*
D92*
X490772Y227500D02*
D03*
X490772Y222500D02*
D03*
X490772Y217500D02*
D03*
Y212500D02*
D03*
Y207500D02*
D03*
Y202500D02*
D03*
X490772Y197500D02*
D03*
X490772Y192500D02*
D03*
X512228D02*
D03*
X512228Y197500D02*
D03*
X512228Y202500D02*
D03*
Y207500D02*
D03*
Y212500D02*
D03*
Y217500D02*
D03*
X512228Y222500D02*
D03*
X512228Y227500D02*
D03*
X547228Y192500D02*
D03*
X547228Y197500D02*
D03*
X547228Y202500D02*
D03*
Y207500D02*
D03*
Y212500D02*
D03*
Y217500D02*
D03*
X547228Y222500D02*
D03*
X547228Y227500D02*
D03*
X525772Y227500D02*
D03*
X525772Y222500D02*
D03*
X525772Y217500D02*
D03*
X525772Y212500D02*
D03*
Y207500D02*
D03*
X525772Y202500D02*
D03*
X525772Y197500D02*
D03*
X525772Y192500D02*
D03*
D93*
X471153Y214925D02*
D03*
Y211776D02*
D03*
Y221224D02*
D03*
Y218075D02*
D03*
X477846D02*
D03*
Y221224D02*
D03*
Y211776D02*
D03*
Y214925D02*
D03*
X403154Y212425D02*
D03*
Y209276D02*
D03*
Y218724D02*
D03*
Y215575D02*
D03*
X409846D02*
D03*
Y218724D02*
D03*
Y209276D02*
D03*
Y212425D02*
D03*
X562000Y214299D02*
D03*
Y217449D02*
D03*
Y208000D02*
D03*
Y211150D02*
D03*
X555307D02*
D03*
Y208000D02*
D03*
Y217449D02*
D03*
Y214299D02*
D03*
X561846Y195075D02*
D03*
Y198224D02*
D03*
Y188776D02*
D03*
Y191925D02*
D03*
X555154D02*
D03*
Y188776D02*
D03*
Y198224D02*
D03*
Y195075D02*
D03*
D94*
X751500Y446000D02*
D03*
X743626D02*
D03*
D95*
X532000Y416768D02*
D03*
Y420232D02*
D03*
D96*
X355388Y369725D02*
D03*
X456588D02*
D03*
D97*
X445288Y362025D02*
D03*
X443388Y377425D02*
D03*
X441388Y362025D02*
D03*
X439388Y377425D02*
D03*
X437488Y362025D02*
D03*
X435488Y377425D02*
D03*
X433488Y362025D02*
D03*
X431588Y377425D02*
D03*
X429588Y362025D02*
D03*
X427588Y377425D02*
D03*
X425688Y362025D02*
D03*
X423688Y377425D02*
D03*
X421688Y362025D02*
D03*
X419688Y377425D02*
D03*
X417788Y362025D02*
D03*
X415788Y377425D02*
D03*
X413788Y362025D02*
D03*
X411888Y377425D02*
D03*
X409888Y362025D02*
D03*
X407888Y377425D02*
D03*
X405988Y362025D02*
D03*
X403988Y377425D02*
D03*
X401988Y362025D02*
D03*
X400088Y377425D02*
D03*
X398088Y362025D02*
D03*
X396088Y377425D02*
D03*
X394188Y362025D02*
D03*
X392188Y377425D02*
D03*
X390188Y362025D02*
D03*
X388288Y377425D02*
D03*
X386288Y362025D02*
D03*
X384288Y377425D02*
D03*
X382288Y362025D02*
D03*
X380388Y377425D02*
D03*
X378388Y362025D02*
D03*
X376388Y377425D02*
D03*
X374488Y362025D02*
D03*
X372488Y377425D02*
D03*
X370488Y362025D02*
D03*
X368588Y377425D02*
D03*
X366588Y362025D02*
D03*
D98*
X641732Y217717D02*
D03*
X635039Y322047D02*
D03*
X271654Y162992D02*
D03*
X276772Y393307D02*
D03*
X243780Y235086D02*
D03*
Y395086D02*
D03*
X568197Y235086D02*
D03*
Y395086D02*
D03*
D99*
X451500Y343700D02*
D03*
X360600D02*
D03*
X388480Y231886D02*
D03*
Y322786D02*
D03*
X423547Y231937D02*
D03*
Y322837D02*
D03*
X360488Y369725D02*
D03*
X451388D02*
D03*
D100*
X295276Y417323D02*
D03*
X236221Y167323D02*
D03*
X158661Y230315D02*
D03*
X158656Y358268D02*
D03*
X531496Y167323D02*
D03*
X777559Y230315D02*
D03*
Y358268D02*
D03*
D101*
X331500Y384717D02*
D03*
Y378811D02*
D03*
Y372905D02*
D03*
Y367000D02*
D03*
Y361094D02*
D03*
Y355189D02*
D03*
D102*
X265784Y138500D02*
D03*
X271689D02*
D03*
X277594D02*
D03*
X283500D02*
D03*
X289405D02*
D03*
X295311D02*
D03*
D103*
X687000Y437000D02*
D03*
X669283D02*
D03*
X579717D02*
D03*
X562000D02*
D03*
D104*
X664342Y427197D02*
D03*
X691941D02*
D03*
X557059D02*
D03*
X584657D02*
D03*
D105*
X215500Y420878D02*
D03*
Y444500D02*
D03*
X256300Y421059D02*
D03*
Y444681D02*
D03*
D106*
X497514Y180305D02*
D03*
X497514Y174705D02*
D03*
X497514Y169105D02*
D03*
Y185905D02*
D03*
X321000Y185700D02*
D03*
Y168900D02*
D03*
X321000Y174500D02*
D03*
X321000Y180100D02*
D03*
D107*
X186311Y430000D02*
D03*
X162689D02*
D03*
X174500D02*
D03*
X214342Y369043D02*
D03*
X204500D02*
D03*
X194658D02*
D03*
X521435Y409245D02*
D03*
X539866Y420366D02*
D03*
X586218Y384333D02*
D03*
Y404018D02*
D03*
X643304Y384333D02*
D03*
Y394175D02*
D03*
Y404018D02*
D03*
X761414D02*
D03*
Y394175D02*
D03*
Y384333D02*
D03*
X704328Y404018D02*
D03*
Y384333D02*
D03*
X584250Y266222D02*
D03*
Y276065D02*
D03*
Y285907D02*
D03*
X641336Y266222D02*
D03*
Y285907D02*
D03*
X214171Y246538D02*
D03*
X204328D02*
D03*
X194486D02*
D03*
X214171Y303624D02*
D03*
X194486D02*
D03*
X702360Y266222D02*
D03*
Y276065D02*
D03*
Y285907D02*
D03*
X759446Y266222D02*
D03*
Y285907D02*
D03*
D108*
X454165Y178958D02*
D03*
X363943Y178960D02*
D03*
X747635D02*
D03*
X672832D02*
D03*
X598195D02*
D03*
D109*
X432512Y178958D02*
D03*
X475818D02*
D03*
X342290Y178960D02*
D03*
X385597D02*
D03*
X725982D02*
D03*
X769289D02*
D03*
X651179D02*
D03*
X694486D02*
D03*
X576542D02*
D03*
X619849D02*
D03*
D110*
X454165Y202186D02*
D03*
X473849Y193918D02*
D03*
X363943Y202188D02*
D03*
X383628Y193921D02*
D03*
X747635Y202188D02*
D03*
X767320Y193921D02*
D03*
X672832Y202188D02*
D03*
X692517Y193921D02*
D03*
X598195Y202188D02*
D03*
X617880Y193921D02*
D03*
D111*
X449164Y160458D02*
D03*
X459164D02*
D03*
X358943Y160460D02*
D03*
X368943D02*
D03*
X742635D02*
D03*
X752635D02*
D03*
X667832D02*
D03*
X677832D02*
D03*
X593195D02*
D03*
X603195D02*
D03*
D112*
X223500Y398500D02*
D03*
X185500D02*
D03*
X226769Y276065D02*
D03*
X181887D02*
D03*
D113*
X504622Y434630D02*
D03*
X527378D02*
D03*
D114*
X498992Y449000D02*
D03*
X533008D02*
D03*
X498992Y432543D02*
D03*
X533008D02*
D03*
D115*
X613777Y371734D02*
D03*
Y416616D02*
D03*
X731887D02*
D03*
Y371734D02*
D03*
X613777Y253624D02*
D03*
Y298506D02*
D03*
X731887Y253624D02*
D03*
Y298506D02*
D03*
D116*
X606600Y219986D02*
D03*
X589800D02*
D03*
X595400Y219986D02*
D03*
X601000Y219986D02*
D03*
X681237Y219986D02*
D03*
X664437Y219986D02*
D03*
X670037D02*
D03*
X675637D02*
D03*
X755905Y219986D02*
D03*
X739105D02*
D03*
X744705Y219986D02*
D03*
X750305Y219986D02*
D03*
M02*
