M48
;Layer_Color=9474304
;FILE_FORMAT=2:5
INCH,LZ
;TYPE=PLATED
T2F00S00C0.02362
T12F00S00C0.05512
;TYPE=NON_PLATED
%
G90
G05
T02
G00X0498992Y0434807
M15
G01Y0430279
M16
G00X0498992Y0450772
M15
G01Y0447228
M16
G00X0533008Y0450772
M15
G01Y0447228
M16
G00X0533008Y0434807
M15
G01Y0430279
M16
T12
G00X0729131Y0253624
M15
G01X0734643
M16
G00X0729131Y0298506
M15
G01X0734643
M16
G00X0611021Y0298506
M15
G01X0616533
M16
G00X0611021Y0253624
M15
G01X0616533
M16
G00X0226769Y0273309
M15
G01Y0278821
M16
G00X0181887Y0273309
M15
G01Y0278821
M16
G00X01855Y0395744
M15
G01Y0401256
M16
G00X02235Y0395744
M15
G01Y0401256
M16
G00X0616533Y0416616
M15
G01X0611021
M16
G00X0616533Y0371734
M15
G01X0611021
M16
G00X0734643Y0371734
M15
G01X0729131
M16
G00X0734643Y0416616
M15
G01X0729131
M16
M17
M30
