G04*
G04 #@! TF.GenerationSoftware,Altium Limited,Altium Designer,21.8.1 (53)*
G04*
G04 Layer_Color=8388736*
%FSLAX25Y25*%
%MOIN*%
G70*
G04*
G04 #@! TF.SameCoordinates,F5C5D764-6AA7-4F14-928A-87DEF657E23D*
G04*
G04*
G04 #@! TF.FilePolarity,Negative*
G04*
G01*
G75*
%ADD42R,0.06600X0.10600*%
%ADD43R,0.06600X0.12600*%
%ADD44R,0.10600X0.06600*%
%ADD45R,0.12600X0.06600*%
%ADD46R,0.04147X0.04540*%
%ADD47R,0.04343X0.04737*%
%ADD48R,0.04800X0.06300*%
%ADD49R,0.05642X0.07887*%
%ADD50R,0.10446X0.10839*%
%ADD51R,0.03320X0.03162*%
%ADD52R,0.05918X0.06312*%
%ADD53R,0.03162X0.03320*%
%ADD54R,0.03162X0.03753*%
%ADD55R,0.05524X0.06312*%
%ADD56R,0.01872X0.06272*%
%ADD57R,0.06312X0.05918*%
%ADD58R,0.07887X0.05642*%
%ADD59R,0.04540X0.04147*%
%ADD60R,0.02572X0.04343*%
%ADD61C,0.00600*%
%ADD62O,0.08674X0.07887*%
%ADD63R,0.08674X0.07887*%
%ADD64C,0.04332*%
D42*
X449866Y202565D02*
D03*
X435693D02*
D03*
X419158Y230518D02*
D03*
X446717D02*
D03*
X446716Y605969D02*
D03*
X419158D02*
D03*
X435693Y578016D02*
D03*
X449866D02*
D03*
X446716Y663576D02*
D03*
X419158D02*
D03*
X435693Y635624D02*
D03*
X449866D02*
D03*
X446716Y490754D02*
D03*
X419158D02*
D03*
X435693Y462802D02*
D03*
X449866D02*
D03*
X446717Y345733D02*
D03*
X419158D02*
D03*
X435693Y317780D02*
D03*
X449866D02*
D03*
X446717Y548362D02*
D03*
X419158D02*
D03*
X435693Y520409D02*
D03*
X449866D02*
D03*
X446717Y288125D02*
D03*
X419158Y288125D02*
D03*
X435693Y260173D02*
D03*
X449866D02*
D03*
X446717Y403340D02*
D03*
X419158Y403340D02*
D03*
X435693Y375387D02*
D03*
X449866D02*
D03*
D43*
X412000Y203408D02*
D03*
X412000Y578859D02*
D03*
Y636466D02*
D03*
X412000Y463644D02*
D03*
X412000Y318623D02*
D03*
X412000Y521251D02*
D03*
X412000Y261015D02*
D03*
Y376230D02*
D03*
D44*
X368276Y203205D02*
D03*
Y230765D02*
D03*
X340324Y214229D02*
D03*
Y200056D02*
D03*
X340324Y663195D02*
D03*
X340324Y635635D02*
D03*
X368276Y652171D02*
D03*
Y666344D02*
D03*
D45*
X341166Y237922D02*
D03*
X367434Y628478D02*
D03*
D46*
X380300Y286900D02*
D03*
X385418D02*
D03*
X380082Y299000D02*
D03*
X385200D02*
D03*
X379985Y251300D02*
D03*
X385103D02*
D03*
X380000Y595000D02*
D03*
X385118D02*
D03*
X380200Y239400D02*
D03*
X385318D02*
D03*
X379882Y589000D02*
D03*
X385000D02*
D03*
X380000Y655000D02*
D03*
X385118D02*
D03*
X380000Y649000D02*
D03*
X385118D02*
D03*
X324000Y626000D02*
D03*
X329118D02*
D03*
D47*
X379985Y293100D02*
D03*
X385300D02*
D03*
X379685Y583000D02*
D03*
X385000D02*
D03*
X380182Y245700D02*
D03*
X385497D02*
D03*
X379685Y643000D02*
D03*
X385000D02*
D03*
D48*
X380100Y279800D02*
D03*
X387500D02*
D03*
X380100Y232500D02*
D03*
X387500D02*
D03*
X380100Y602500D02*
D03*
X387500Y602500D02*
D03*
X380100Y662500D02*
D03*
X387500D02*
D03*
D49*
X385500Y269915D02*
D03*
Y259600D02*
D03*
X382900Y316915D02*
D03*
Y306600D02*
D03*
X385000Y623685D02*
D03*
Y634000D02*
D03*
D50*
X324200Y224900D02*
D03*
Y201081D02*
D03*
X324000Y592091D02*
D03*
Y615909D02*
D03*
X324100Y261919D02*
D03*
X324100Y238100D02*
D03*
X344000Y592091D02*
D03*
Y615909D02*
D03*
D51*
X355300Y265632D02*
D03*
Y262168D02*
D03*
X375700Y550900D02*
D03*
Y547435D02*
D03*
X335200Y542200D02*
D03*
Y538735D02*
D03*
X379000Y572268D02*
D03*
Y575732D02*
D03*
D52*
X343999Y259800D02*
D03*
X337700D02*
D03*
X319900Y580400D02*
D03*
X326199D02*
D03*
X326100Y553400D02*
D03*
X319801D02*
D03*
X377135Y260200D02*
D03*
X370835D02*
D03*
X366500Y316000D02*
D03*
X372799D02*
D03*
X344000Y316200D02*
D03*
X337701D02*
D03*
D53*
X337700Y265900D02*
D03*
X341165D02*
D03*
X357600Y540600D02*
D03*
X361065D02*
D03*
X370835Y265900D02*
D03*
X374300D02*
D03*
X337868Y583100D02*
D03*
X341332D02*
D03*
X336635Y310300D02*
D03*
X340100D02*
D03*
X371600D02*
D03*
X368135D02*
D03*
D54*
X339300Y538764D02*
D03*
Y534236D02*
D03*
X332100Y562436D02*
D03*
Y566964D02*
D03*
X316600Y290336D02*
D03*
Y294864D02*
D03*
D55*
X326381Y562570D02*
D03*
X319688D02*
D03*
X326381Y571231D02*
D03*
X319688D02*
D03*
D56*
X338400Y577000D02*
D03*
X340900D02*
D03*
X343500D02*
D03*
X346000D02*
D03*
X348600D02*
D03*
X351200D02*
D03*
X353700D02*
D03*
X356300D02*
D03*
X358800D02*
D03*
X361400D02*
D03*
X364000D02*
D03*
X366500D02*
D03*
X369100D02*
D03*
X371600D02*
D03*
Y548000D02*
D03*
X369100D02*
D03*
X366500D02*
D03*
X364000D02*
D03*
X361400D02*
D03*
X358800D02*
D03*
X356300D02*
D03*
X353700D02*
D03*
X351200D02*
D03*
X348600D02*
D03*
X346000D02*
D03*
X343500D02*
D03*
X340900D02*
D03*
X338400D02*
D03*
X337700Y301900D02*
D03*
X340200D02*
D03*
X342800D02*
D03*
X345300D02*
D03*
X347900D02*
D03*
X350500D02*
D03*
X353000D02*
D03*
X355600D02*
D03*
X358100D02*
D03*
X360700D02*
D03*
X363300D02*
D03*
X365800D02*
D03*
X368400D02*
D03*
X370900D02*
D03*
Y272900D02*
D03*
X368400D02*
D03*
X365800D02*
D03*
X363300D02*
D03*
X360700D02*
D03*
X358100D02*
D03*
X355600D02*
D03*
X353000D02*
D03*
X350500D02*
D03*
X347900D02*
D03*
X345300D02*
D03*
X342800D02*
D03*
X340200D02*
D03*
X337700D02*
D03*
D57*
X385100Y558100D02*
D03*
Y551801D02*
D03*
X329700Y535901D02*
D03*
Y542200D02*
D03*
X385000Y574000D02*
D03*
Y567701D02*
D03*
D58*
X358685Y587000D02*
D03*
X369000D02*
D03*
D59*
X371000Y240682D02*
D03*
Y245800D02*
D03*
X358000Y616000D02*
D03*
Y621118D02*
D03*
X338000Y221841D02*
D03*
Y226959D02*
D03*
D60*
X349775Y533153D02*
D03*
X352924D02*
D03*
X343476D02*
D03*
X346625D02*
D03*
Y539847D02*
D03*
X343476D02*
D03*
X352924D02*
D03*
X349775D02*
D03*
X325125Y295947D02*
D03*
X321976D02*
D03*
X331424D02*
D03*
X328275D02*
D03*
Y289253D02*
D03*
X331424D02*
D03*
X321976D02*
D03*
X325125D02*
D03*
D61*
X445822Y216542D02*
D03*
X422200D02*
D03*
X354300Y227722D02*
D03*
Y204100D02*
D03*
Y638678D02*
D03*
Y662300D02*
D03*
X422200Y591993D02*
D03*
X445822D02*
D03*
X422200Y649600D02*
D03*
X445822D02*
D03*
X422200Y476778D02*
D03*
X445822Y476778D02*
D03*
X422200Y331756D02*
D03*
X445822D02*
D03*
X422200Y534385D02*
D03*
X445822D02*
D03*
X422200Y274149D02*
D03*
X445822D02*
D03*
X422200Y389364D02*
D03*
X445822D02*
D03*
D62*
X398814Y658074D02*
D03*
Y638073D02*
D03*
Y648073D02*
D03*
Y618074D02*
D03*
Y628074D02*
D03*
Y598073D02*
D03*
Y608074D02*
D03*
Y578074D02*
D03*
Y588073D02*
D03*
Y558074D02*
D03*
Y568074D02*
D03*
Y538073D02*
D03*
Y548073D02*
D03*
Y518074D02*
D03*
Y528074D02*
D03*
Y498073D02*
D03*
Y508074D02*
D03*
Y478074D02*
D03*
Y488073D02*
D03*
Y458074D02*
D03*
Y468074D02*
D03*
Y438073D02*
D03*
Y448073D02*
D03*
Y418074D02*
D03*
Y428074D02*
D03*
Y398074D02*
D03*
Y408074D02*
D03*
Y378074D02*
D03*
Y388073D02*
D03*
Y358073D02*
D03*
Y368074D02*
D03*
Y338073D02*
D03*
Y348074D02*
D03*
Y318074D02*
D03*
Y328074D02*
D03*
Y298074D02*
D03*
Y308073D02*
D03*
Y278074D02*
D03*
Y288073D02*
D03*
Y258073D02*
D03*
Y268074D02*
D03*
Y248074D02*
D03*
Y238073D02*
D03*
Y228074D02*
D03*
Y218074D02*
D03*
Y208073D02*
D03*
Y198073D02*
D03*
X308814Y658074D02*
D03*
Y638073D02*
D03*
Y648073D02*
D03*
Y618074D02*
D03*
Y628074D02*
D03*
Y598073D02*
D03*
Y608074D02*
D03*
Y578074D02*
D03*
Y588073D02*
D03*
Y558074D02*
D03*
Y568074D02*
D03*
Y538073D02*
D03*
Y548073D02*
D03*
Y518074D02*
D03*
Y528074D02*
D03*
Y498073D02*
D03*
Y508074D02*
D03*
Y478074D02*
D03*
Y488073D02*
D03*
Y458074D02*
D03*
Y468074D02*
D03*
Y438073D02*
D03*
Y448073D02*
D03*
Y418074D02*
D03*
Y428074D02*
D03*
Y398074D02*
D03*
Y408074D02*
D03*
Y378074D02*
D03*
Y388073D02*
D03*
Y358073D02*
D03*
Y368074D02*
D03*
Y338073D02*
D03*
Y348074D02*
D03*
Y318074D02*
D03*
Y328074D02*
D03*
Y298074D02*
D03*
Y308073D02*
D03*
Y278074D02*
D03*
Y288073D02*
D03*
Y258073D02*
D03*
Y268074D02*
D03*
Y248074D02*
D03*
Y238073D02*
D03*
Y228074D02*
D03*
Y218074D02*
D03*
Y208073D02*
D03*
Y198073D02*
D03*
D63*
X398814Y668074D02*
D03*
X308814D02*
D03*
D64*
X370100Y382800D02*
D03*
M02*
