G04*
G04 #@! TF.GenerationSoftware,Altium Limited,Altium Designer,21.8.1 (53)*
G04*
G04 Layer_Color=65535*
%FSLAX25Y25*%
%MOIN*%
G70*
G04*
G04 #@! TF.SameCoordinates,F5C5D764-6AA7-4F14-928A-87DEF657E23D*
G04*
G04*
G04 #@! TF.FilePolarity,Positive*
G04*
G01*
G75*
%ADD10C,0.00984*%
%ADD11C,0.00394*%
%ADD12C,0.00600*%
%ADD13C,0.00050*%
%ADD14C,0.00591*%
%ADD15C,0.00200*%
%ADD16C,0.00787*%
%ADD17C,0.01000*%
%ADD18R,0.02362X0.00591*%
%ADD19R,0.02362X0.00591*%
%ADD20R,0.02362X0.00591*%
%ADD21R,0.02657X0.02165*%
%ADD22R,0.00591X0.02362*%
D10*
X390717Y276962D02*
G03*
X390717Y276962I-492J0D01*
G01*
X388117Y323962D02*
G03*
X388117Y323962I-492J0D01*
G01*
X331680Y230510D02*
G03*
X331680Y230510I-492J0D01*
G01*
X352130Y591724D02*
G03*
X352130Y591724I-492J0D01*
G01*
X380768Y616638D02*
G03*
X380768Y616638I-492J0D01*
G01*
X317504Y586480D02*
G03*
X317504Y586480I-492J0D01*
G01*
X331580Y267529D02*
G03*
X331580Y267529I-492J0D01*
G01*
X337504Y586480D02*
G03*
X337504Y586480I-492J0D01*
G01*
D11*
X330318Y558239D02*
G03*
X330318Y558239I-197J0D01*
G01*
D12*
X335700Y561300D02*
G03*
X335700Y563700I0J1200D01*
G01*
X335000Y286200D02*
G03*
X335000Y288600I0J1200D01*
G01*
X412500Y237500D02*
X452500D01*
X412500D02*
X417500Y242500D01*
X412500Y295107D02*
X417500Y300107D01*
X412500Y295107D02*
X452500D01*
X412500Y352715D02*
X452500D01*
X412500Y410322D02*
X452500D01*
X447178Y415322D02*
X452178Y410322D01*
X447178Y357715D02*
X452178Y352715D01*
X449678Y570215D02*
X454678Y565215D01*
X449678Y627822D02*
X454678Y622822D01*
X415000Y622822D02*
X455000D01*
X415000Y565215D02*
X455000D01*
X415000Y507607D02*
X455000D01*
X415000D02*
X420000Y512607D01*
X415000Y450000D02*
X420000Y455000D01*
X415000Y450000D02*
X455000D01*
X335700Y553600D02*
X336400D01*
X335700D02*
Y561300D01*
Y563700D01*
Y571400D01*
X373600D02*
X374300D01*
Y553600D02*
Y571400D01*
X373600Y553600D02*
X374300D01*
X335700Y571400D02*
X336400D01*
X335000Y278500D02*
X335700D01*
X335000D02*
Y286200D01*
Y288600D01*
Y296300D01*
X372900D02*
X373600D01*
Y278500D02*
Y296300D01*
X372900Y278500D02*
X373600D01*
X335000Y296300D02*
X335700D01*
X393814Y673073D02*
X403814D01*
X393814D02*
X393814Y193073D01*
X403814D02*
X403814Y673073D01*
X393814Y193073D02*
X403814D01*
X303814Y673073D02*
X313814D01*
X303814D02*
X303814Y193073D01*
X313814D02*
X313814Y673073D01*
X303814Y193073D02*
X313814D01*
X315100Y405900D02*
Y408199D01*
X316250D01*
X316633Y407816D01*
Y407050D01*
X316250Y406666D01*
X315100D01*
X318932Y407816D02*
X318549Y408199D01*
X317782D01*
X317399Y407816D01*
Y406283D01*
X317782Y405900D01*
X318549D01*
X318932Y406283D01*
X319699Y407816D02*
X320082Y408199D01*
X320848D01*
X321231Y407816D01*
Y406283D01*
X320848Y405900D01*
X320082D01*
X319699Y406283D01*
Y407816D01*
X314700Y471781D02*
Y474081D01*
X315850D01*
X316233Y473698D01*
Y472931D01*
X315850Y472548D01*
X314700D01*
X318532Y473698D02*
X318149Y474081D01*
X317383D01*
X316999Y473698D01*
Y472165D01*
X317383Y471781D01*
X318149D01*
X318532Y472165D01*
X319299Y471781D02*
X320065D01*
X319682D01*
Y474081D01*
X319299Y473698D01*
X322364Y471781D02*
Y474081D01*
X321215Y472931D01*
X322747D01*
X315850Y469882D02*
X315083D01*
X314700Y469498D01*
Y467966D01*
X315083Y467582D01*
X315850D01*
X316233Y467966D01*
Y469498D01*
X315850Y469882D01*
X318532Y469498D02*
X318149Y469882D01*
X317383D01*
X316999Y469498D01*
Y469115D01*
X317383Y468732D01*
X318149D01*
X318532Y468349D01*
Y467966D01*
X318149Y467582D01*
X317383D01*
X316999Y467966D01*
X320831Y469498D02*
X320448Y469882D01*
X319682D01*
X319299Y469498D01*
Y467966D01*
X319682Y467582D01*
X320448D01*
X320831Y467966D01*
X314700Y465299D02*
X315083Y465683D01*
X315850D01*
X316233Y465299D01*
Y464916D01*
X315850Y464533D01*
X315466D01*
X315850D01*
X316233Y464150D01*
Y463766D01*
X315850Y463383D01*
X315083D01*
X314700Y463766D01*
X318532Y463383D02*
X316999D01*
X318532Y464916D01*
Y465299D01*
X318149Y465683D01*
X317383D01*
X316999Y465299D01*
X319299Y463000D02*
X320831D01*
X321598Y465683D02*
X322364D01*
X321981D01*
Y463383D01*
X321598D01*
X322364D01*
X323514D02*
Y465683D01*
X325047Y463383D01*
Y465683D01*
X380500Y225678D02*
Y228677D01*
X381999D01*
X382499Y228177D01*
Y227177D01*
X381999Y226677D01*
X380500D01*
X385498Y228677D02*
X383499D01*
Y225678D01*
X385498D01*
X383499Y227177D02*
X384499D01*
X386498Y228177D02*
X386998Y228677D01*
X387998D01*
X388497Y228177D01*
Y227677D01*
X387998Y227177D01*
X388497Y226677D01*
Y226178D01*
X387998Y225678D01*
X386998D01*
X386498Y226178D01*
Y226677D01*
X386998Y227177D01*
X386498Y227677D01*
Y228177D01*
X386998Y227177D02*
X387998D01*
X380500Y215600D02*
Y218599D01*
X381999D01*
X382499Y218099D01*
Y217099D01*
X381999Y216600D01*
X380500D01*
X385498Y218599D02*
X383499D01*
Y215600D01*
X385498D01*
X383499Y217099D02*
X384499D01*
X386498Y218599D02*
X388497D01*
Y218099D01*
X386498Y216100D01*
Y215600D01*
X316387Y458113D02*
X315845Y458655D01*
X315303D01*
X314219Y457571D01*
Y457029D01*
X314761Y456487D01*
X315303D01*
X316387Y457571D01*
Y458113D01*
X317200Y457300D02*
X315845Y455945D01*
Y455403D01*
X316387Y454861D01*
X316929D01*
X318284Y456216D01*
X318826Y455674D02*
X319910Y454590D01*
X319368Y455132D01*
X317742Y453506D01*
X316333Y429316D02*
X315950Y429699D01*
X315183D01*
X314800Y429316D01*
Y427783D01*
X315183Y427400D01*
X315950D01*
X316333Y427783D01*
Y428550D01*
X315566D01*
X315300Y448466D02*
X316833D01*
X316066Y449233D02*
Y447700D01*
X382599Y199299D02*
X382100Y199799D01*
X381100D01*
X380600Y199299D01*
Y197300D01*
X381100Y196800D01*
X382100D01*
X382599Y197300D01*
Y198300D01*
X381600D01*
X383599Y196800D02*
Y199799D01*
X385598Y196800D01*
Y199799D01*
X386598D02*
Y196800D01*
X388098D01*
X388597Y197300D01*
Y199299D01*
X388098Y199799D01*
X386598D01*
X386766Y456295D02*
X386350Y456711D01*
X385517D01*
X385100Y456295D01*
Y454629D01*
X385517Y454212D01*
X386350D01*
X386766Y454629D01*
X387599Y456711D02*
X389265D01*
Y456295D01*
X387599Y454629D01*
Y454212D01*
X386766Y447417D02*
X386350Y447833D01*
X385517D01*
X385100Y447417D01*
Y445751D01*
X385517Y445334D01*
X386350D01*
X386766Y445751D01*
X389265Y447833D02*
X388432Y447417D01*
X387599Y446584D01*
Y445751D01*
X388016Y445334D01*
X388849D01*
X389265Y445751D01*
Y446167D01*
X388849Y446584D01*
X387599D01*
X385100Y438955D02*
Y436456D01*
X386350D01*
X386766Y436873D01*
Y438539D01*
X386350Y438955D01*
X385100D01*
X387599Y436456D02*
X388432D01*
X388016D01*
Y438955D01*
X387599Y438539D01*
X391348Y438955D02*
X389682D01*
Y437706D01*
X390515Y438122D01*
X390931D01*
X391348Y437706D01*
Y436873D01*
X390931Y436456D01*
X390098D01*
X389682Y436873D01*
X385100Y430077D02*
Y427578D01*
X386350D01*
X386766Y427995D01*
Y429661D01*
X386350Y430077D01*
X385100D01*
X387599Y427578D02*
X388432D01*
X388016D01*
Y430077D01*
X387599Y429661D01*
X390931Y427578D02*
Y430077D01*
X389682Y428828D01*
X391348D01*
X385100Y421199D02*
Y418700D01*
X386350D01*
X386766Y419116D01*
Y420783D01*
X386350Y421199D01*
X385100D01*
X387599Y418700D02*
X388432D01*
X388016D01*
Y421199D01*
X387599Y420783D01*
X389682D02*
X390098Y421199D01*
X390931D01*
X391348Y420783D01*
Y420366D01*
X390931Y419950D01*
X390515D01*
X390931D01*
X391348Y419533D01*
Y419116D01*
X390931Y418700D01*
X390098D01*
X389682Y419116D01*
X315300Y438366D02*
X316833D01*
X316066Y439133D02*
Y437600D01*
X380800Y405521D02*
Y408521D01*
X382299D01*
X382799Y408021D01*
Y407021D01*
X382299Y406521D01*
X380800D01*
X383799Y408521D02*
Y405521D01*
X385298D01*
X385798Y406021D01*
Y408021D01*
X385298Y408521D01*
X383799D01*
X386798Y405521D02*
X387798D01*
X387298D01*
Y408521D01*
X386798Y408021D01*
X391297Y405521D02*
X389297D01*
X391297Y407521D01*
Y408021D01*
X390797Y408521D01*
X389797D01*
X389297Y408021D01*
X380800Y395444D02*
Y398443D01*
X382299D01*
X382799Y397943D01*
Y396943D01*
X382299Y396443D01*
X380800D01*
X383799Y398443D02*
Y395444D01*
X385298D01*
X385798Y395944D01*
Y397943D01*
X385298Y398443D01*
X383799D01*
X386798Y395444D02*
X387798D01*
X387298D01*
Y398443D01*
X386798Y397943D01*
X389297Y395444D02*
X390297D01*
X389797D01*
Y398443D01*
X389297Y397943D01*
X380800Y385366D02*
Y388365D01*
X382299D01*
X382799Y387865D01*
Y386866D01*
X382299Y386366D01*
X380800D01*
X383799Y388365D02*
Y385366D01*
X385298D01*
X385798Y385866D01*
Y387865D01*
X385298Y388365D01*
X383799D01*
X386798Y385366D02*
X387798D01*
X387298D01*
Y388365D01*
X386798Y387865D01*
X389297D02*
X389797Y388365D01*
X390797D01*
X391297Y387865D01*
Y385866D01*
X390797Y385366D01*
X389797D01*
X389297Y385866D01*
Y387865D01*
X380800Y375288D02*
Y378287D01*
X382299D01*
X382799Y377788D01*
Y376788D01*
X382299Y376288D01*
X380800D01*
X383799Y378287D02*
Y375288D01*
X385298D01*
X385798Y375788D01*
Y377788D01*
X385298Y378287D01*
X383799D01*
X386798Y375788D02*
X387298Y375288D01*
X388298D01*
X388797Y375788D01*
Y377788D01*
X388298Y378287D01*
X387298D01*
X386798Y377788D01*
Y377288D01*
X387298Y376788D01*
X388797D01*
X380800Y365211D02*
Y368210D01*
X382299D01*
X382799Y367710D01*
Y366710D01*
X382299Y366210D01*
X380800D01*
X383799Y368210D02*
Y365211D01*
X385298D01*
X385798Y365711D01*
Y367710D01*
X385298Y368210D01*
X383799D01*
X386798Y367710D02*
X387298Y368210D01*
X388298D01*
X388797Y367710D01*
Y367210D01*
X388298Y366710D01*
X388797Y366210D01*
Y365711D01*
X388298Y365211D01*
X387298D01*
X386798Y365711D01*
Y366210D01*
X387298Y366710D01*
X386798Y367210D01*
Y367710D01*
X387298Y366710D02*
X388298D01*
X380800Y355133D02*
Y358132D01*
X382299D01*
X382799Y357632D01*
Y356633D01*
X382299Y356133D01*
X380800D01*
X383799Y358132D02*
Y355133D01*
X385298D01*
X385798Y355633D01*
Y356133D01*
X385298Y356633D01*
X383799D01*
X385298D01*
X385798Y357132D01*
Y357632D01*
X385298Y358132D01*
X383799D01*
X386798Y355133D02*
X387798D01*
X387298D01*
Y358132D01*
X386798Y357632D01*
X391297Y358132D02*
X389297D01*
Y356633D01*
X390297Y357132D01*
X390797D01*
X391297Y356633D01*
Y355633D01*
X390797Y355133D01*
X389797D01*
X389297Y355633D01*
X380800Y345055D02*
Y348054D01*
X382299D01*
X382799Y347555D01*
Y346555D01*
X382299Y346055D01*
X380800D01*
X383799Y348054D02*
Y345055D01*
X385298D01*
X385798Y345555D01*
Y346055D01*
X385298Y346555D01*
X383799D01*
X385298D01*
X385798Y347055D01*
Y347555D01*
X385298Y348054D01*
X383799D01*
X386798Y345055D02*
X387798D01*
X387298D01*
Y348054D01*
X386798Y347555D01*
X390797Y345055D02*
Y348054D01*
X389297Y346555D01*
X391297D01*
X380800Y334978D02*
Y337977D01*
X382299D01*
X382799Y337477D01*
Y336477D01*
X382299Y335977D01*
X380800D01*
X383799Y337977D02*
Y334978D01*
X385298D01*
X385798Y335477D01*
Y335977D01*
X385298Y336477D01*
X383799D01*
X385298D01*
X385798Y336977D01*
Y337477D01*
X385298Y337977D01*
X383799D01*
X386798Y334978D02*
X387798D01*
X387298D01*
Y337977D01*
X386798Y337477D01*
X389297D02*
X389797Y337977D01*
X390797D01*
X391297Y337477D01*
Y336977D01*
X390797Y336477D01*
X390297D01*
X390797D01*
X391297Y335977D01*
Y335477D01*
X390797Y334978D01*
X389797D01*
X389297Y335477D01*
X380800Y324900D02*
Y327899D01*
X382299D01*
X382799Y327399D01*
Y326399D01*
X382299Y325900D01*
X380800D01*
X383799Y327899D02*
Y324900D01*
X385298D01*
X385798Y325400D01*
Y325900D01*
X385298Y326399D01*
X383799D01*
X385298D01*
X385798Y326899D01*
Y327399D01*
X385298Y327899D01*
X383799D01*
X386798Y324900D02*
X387798D01*
X387298D01*
Y327899D01*
X386798Y327399D01*
X391297Y324900D02*
X389297D01*
X391297Y326899D01*
Y327399D01*
X390797Y327899D01*
X389797D01*
X389297Y327399D01*
X317199Y199299D02*
X316700Y199799D01*
X315700D01*
X315200Y199299D01*
Y197300D01*
X315700Y196800D01*
X316700D01*
X317199Y197300D01*
Y198300D01*
X316200D01*
X318199Y196800D02*
Y199799D01*
X320198Y196800D01*
Y199799D01*
X321198D02*
Y196800D01*
X322698D01*
X323197Y197300D01*
Y199299D01*
X322698Y199799D01*
X321198D01*
X315900Y646978D02*
Y649977D01*
X317400D01*
X317899Y649477D01*
Y648477D01*
X317400Y647977D01*
X315900D01*
X318899Y649977D02*
Y646978D01*
X320398D01*
X320898Y647477D01*
Y649477D01*
X320398Y649977D01*
X318899D01*
X323897D02*
X322898Y649477D01*
X321898Y648477D01*
Y647477D01*
X322398Y646978D01*
X323398D01*
X323897Y647477D01*
Y647977D01*
X323398Y648477D01*
X321898D01*
X315900Y636900D02*
Y639899D01*
X317400D01*
X317899Y639399D01*
Y638400D01*
X317400Y637900D01*
X315900D01*
X318899Y639899D02*
Y636900D01*
X320398D01*
X320898Y637400D01*
Y639399D01*
X320398Y639899D01*
X318899D01*
X321898D02*
X323897D01*
Y639399D01*
X321898Y637400D01*
Y636900D01*
X380600Y536644D02*
Y539643D01*
X382100D01*
X382599Y539143D01*
Y538143D01*
X382100Y537643D01*
X380600D01*
X383599Y536644D02*
Y538643D01*
X384599Y539643D01*
X385598Y538643D01*
Y536644D01*
Y538143D01*
X383599D01*
X386598Y536644D02*
X387598D01*
X387098D01*
Y539643D01*
X386598Y539143D01*
X389097D02*
X389597Y539643D01*
X390597D01*
X391097Y539143D01*
Y538643D01*
X390597Y538143D01*
X390097D01*
X390597D01*
X391097Y537643D01*
Y537144D01*
X390597Y536644D01*
X389597D01*
X389097Y537144D01*
X380600Y526566D02*
Y529565D01*
X382100D01*
X382599Y529065D01*
Y528066D01*
X382100Y527566D01*
X380600D01*
X383599Y526566D02*
Y528565D01*
X384599Y529565D01*
X385598Y528565D01*
Y526566D01*
Y528066D01*
X383599D01*
X386598Y526566D02*
X387598D01*
X387098D01*
Y529565D01*
X386598Y529065D01*
X391097Y526566D02*
X389097D01*
X391097Y528565D01*
Y529065D01*
X390597Y529565D01*
X389597D01*
X389097Y529065D01*
X380600Y516488D02*
Y519487D01*
X382100D01*
X382599Y518988D01*
Y517988D01*
X382100Y517488D01*
X380600D01*
X383599Y516488D02*
Y518488D01*
X384599Y519487D01*
X385598Y518488D01*
Y516488D01*
Y517988D01*
X383599D01*
X386598Y516488D02*
X387598D01*
X387098D01*
Y519487D01*
X386598Y518988D01*
X389097Y516488D02*
X390097D01*
X389597D01*
Y519487D01*
X389097Y518988D01*
X380600Y506411D02*
Y509410D01*
X382100D01*
X382599Y508910D01*
Y507910D01*
X382100Y507410D01*
X380600D01*
X383599Y506411D02*
Y508410D01*
X384599Y509410D01*
X385598Y508410D01*
Y506411D01*
Y507910D01*
X383599D01*
X386598Y506411D02*
X387598D01*
X387098D01*
Y509410D01*
X386598Y508910D01*
X389097D02*
X389597Y509410D01*
X390597D01*
X391097Y508910D01*
Y506911D01*
X390597Y506411D01*
X389597D01*
X389097Y506911D01*
Y508910D01*
X380600Y496333D02*
Y499332D01*
X382100D01*
X382599Y498832D01*
Y497833D01*
X382100Y497333D01*
X380600D01*
X383599Y496333D02*
Y498332D01*
X384599Y499332D01*
X385598Y498332D01*
Y496333D01*
Y497833D01*
X383599D01*
X386598Y496833D02*
X387098Y496333D01*
X388098D01*
X388597Y496833D01*
Y498832D01*
X388098Y499332D01*
X387098D01*
X386598Y498832D01*
Y498332D01*
X387098Y497833D01*
X388597D01*
X380600Y486255D02*
Y489254D01*
X382100D01*
X382599Y488755D01*
Y487755D01*
X382100Y487255D01*
X380600D01*
X383599Y486255D02*
Y488255D01*
X384599Y489254D01*
X385598Y488255D01*
Y486255D01*
Y487755D01*
X383599D01*
X386598Y488755D02*
X387098Y489254D01*
X388098D01*
X388597Y488755D01*
Y488255D01*
X388098Y487755D01*
X388597Y487255D01*
Y486755D01*
X388098Y486255D01*
X387098D01*
X386598Y486755D01*
Y487255D01*
X387098Y487755D01*
X386598Y488255D01*
Y488755D01*
X387098Y487755D02*
X388098D01*
X380600Y476178D02*
Y479177D01*
X382100D01*
X382599Y478677D01*
Y477677D01*
X382100Y477177D01*
X380600D01*
X385598Y478677D02*
X385099Y479177D01*
X384099D01*
X383599Y478677D01*
Y476678D01*
X384099Y476178D01*
X385099D01*
X385598Y476678D01*
X386598D02*
X387098Y476178D01*
X388098D01*
X388597Y476678D01*
Y478677D01*
X388098Y479177D01*
X387098D01*
X386598Y478677D01*
Y478177D01*
X387098Y477677D01*
X388597D01*
X380600Y466100D02*
Y469099D01*
X382100D01*
X382599Y468599D01*
Y467599D01*
X382100Y467100D01*
X380600D01*
X385598Y468599D02*
X385099Y469099D01*
X384099D01*
X383599Y468599D01*
Y466600D01*
X384099Y466100D01*
X385099D01*
X385598Y466600D01*
X386598Y468599D02*
X387098Y469099D01*
X388098D01*
X388597Y468599D01*
Y468099D01*
X388098Y467599D01*
X388597Y467100D01*
Y466600D01*
X388098Y466100D01*
X387098D01*
X386598Y466600D01*
Y467100D01*
X387098Y467599D01*
X386598Y468099D01*
Y468599D01*
X387098Y467599D02*
X388098D01*
X315900Y536966D02*
Y539965D01*
X317400D01*
X317899Y539465D01*
Y538466D01*
X317400Y537966D01*
X315900D01*
X320898Y539965D02*
X318899D01*
Y536966D01*
X320898D01*
X318899Y538466D02*
X319899D01*
X323897Y536966D02*
X321898D01*
X323897Y538965D01*
Y539465D01*
X323398Y539965D01*
X322398D01*
X321898Y539465D01*
X315900Y526888D02*
Y529887D01*
X317400D01*
X317899Y529388D01*
Y528388D01*
X317400Y527888D01*
X315900D01*
X320898Y529887D02*
X318899D01*
Y526888D01*
X320898D01*
X318899Y528388D02*
X319899D01*
X321898Y529388D02*
X322398Y529887D01*
X323398D01*
X323897Y529388D01*
Y528888D01*
X323398Y528388D01*
X322898D01*
X323398D01*
X323897Y527888D01*
Y527388D01*
X323398Y526888D01*
X322398D01*
X321898Y527388D01*
X315900Y516811D02*
Y519810D01*
X317400D01*
X317899Y519310D01*
Y518310D01*
X317400Y517810D01*
X315900D01*
X320898Y519810D02*
X318899D01*
Y516811D01*
X320898D01*
X318899Y518310D02*
X319899D01*
X323398Y516811D02*
Y519810D01*
X321898Y518310D01*
X323897D01*
X315900Y506733D02*
Y509732D01*
X317400D01*
X317899Y509232D01*
Y508233D01*
X317400Y507733D01*
X315900D01*
X320898Y509732D02*
X318899D01*
Y506733D01*
X320898D01*
X318899Y508233D02*
X319899D01*
X323897Y509732D02*
X321898D01*
Y508233D01*
X322898Y508732D01*
X323398D01*
X323897Y508233D01*
Y507233D01*
X323398Y506733D01*
X322398D01*
X321898Y507233D01*
X315900Y496655D02*
Y499654D01*
X317400D01*
X317899Y499155D01*
Y498155D01*
X317400Y497655D01*
X315900D01*
X320898Y499654D02*
X318899D01*
Y496655D01*
X320898D01*
X318899Y498155D02*
X319899D01*
X323897Y499654D02*
X322898Y499155D01*
X321898Y498155D01*
Y497155D01*
X322398Y496655D01*
X323398D01*
X323897Y497155D01*
Y497655D01*
X323398Y498155D01*
X321898D01*
X315900Y489577D02*
Y487577D01*
X316900Y486578D01*
X317899Y487577D01*
Y489577D01*
X318899D02*
Y486578D01*
X320398D01*
X320898Y487078D01*
Y487577D01*
X320398Y488077D01*
X318899D01*
X320398D01*
X320898Y488577D01*
Y489077D01*
X320398Y489577D01*
X318899D01*
X321898Y486578D02*
Y488577D01*
X322898Y489577D01*
X323897Y488577D01*
Y486578D01*
Y488077D01*
X321898D01*
X324897Y489577D02*
X326896D01*
X325897D01*
Y486578D01*
X315900Y476500D02*
Y479499D01*
X317400D01*
X317899Y478999D01*
Y477999D01*
X317400Y477500D01*
X315900D01*
X320898Y478999D02*
X320398Y479499D01*
X319399D01*
X318899Y478999D01*
Y477000D01*
X319399Y476500D01*
X320398D01*
X320898Y477000D01*
X321898Y476500D02*
X322898D01*
X322398D01*
Y479499D01*
X321898Y478999D01*
X324397D02*
X324897Y479499D01*
X325897D01*
X326397Y478999D01*
Y478499D01*
X325897Y477999D01*
X325397D01*
X325897D01*
X326397Y477500D01*
Y477000D01*
X325897Y476500D01*
X324897D01*
X324397Y477000D01*
X316433Y419816D02*
X316050Y420199D01*
X315283D01*
X314900Y419816D01*
Y418283D01*
X315283Y417900D01*
X316050D01*
X316433Y418283D01*
Y419050D01*
X315666D01*
X315200Y396281D02*
Y399230D01*
X316674D01*
X317166Y398739D01*
Y397756D01*
X316674Y397264D01*
X315200D01*
X320115Y398739D02*
X319624Y399230D01*
X318641D01*
X318149Y398739D01*
Y396773D01*
X318641Y396281D01*
X319624D01*
X320115Y396773D01*
X321098Y396281D02*
X322081D01*
X321590D01*
Y399230D01*
X321098Y398739D01*
X315200Y386323D02*
Y389273D01*
X316674D01*
X317166Y388781D01*
Y387798D01*
X316674Y387306D01*
X315200D01*
X320115Y388781D02*
X319624Y389273D01*
X318641D01*
X318149Y388781D01*
Y386815D01*
X318641Y386323D01*
X319624D01*
X320115Y386815D01*
X323064Y386323D02*
X321098D01*
X323064Y388290D01*
Y388781D01*
X322573Y389273D01*
X321590D01*
X321098Y388781D01*
X315200Y376366D02*
Y379315D01*
X316674D01*
X317166Y378823D01*
Y377840D01*
X316674Y377349D01*
X315200D01*
X320115Y378823D02*
X319624Y379315D01*
X318641D01*
X318149Y378823D01*
Y376857D01*
X318641Y376366D01*
X319624D01*
X320115Y376857D01*
X321098Y378823D02*
X321590Y379315D01*
X322573D01*
X323064Y378823D01*
Y378332D01*
X322573Y377840D01*
X322081D01*
X322573D01*
X323064Y377349D01*
Y376857D01*
X322573Y376366D01*
X321590D01*
X321098Y376857D01*
X315200Y369357D02*
Y367391D01*
X316183Y366408D01*
X317166Y367391D01*
Y369357D01*
X318149Y366408D02*
Y369357D01*
X319624D01*
X320115Y368866D01*
Y367883D01*
X319624Y367391D01*
X318149D01*
X319132D02*
X320115Y366408D01*
X323064Y369357D02*
X321098D01*
Y366408D01*
X323064D01*
X321098Y367883D02*
X322081D01*
X326013Y369357D02*
X324047D01*
Y367883D01*
X325030D01*
X324047D01*
Y366408D01*
X326996Y367883D02*
X328962D01*
X327979Y368866D02*
Y366900D01*
X315200Y359399D02*
Y357433D01*
X316183Y356450D01*
X317166Y357433D01*
Y359399D01*
X318149D02*
Y356450D01*
X319624D01*
X320115Y356942D01*
Y358908D01*
X319624Y359399D01*
X318149D01*
X321098D02*
Y356450D01*
X322573D01*
X323064Y356942D01*
Y358908D01*
X322573Y359399D01*
X321098D01*
X324047Y356450D02*
Y358416D01*
X325030Y359399D01*
X326013Y358416D01*
Y356450D01*
Y357925D01*
X324047D01*
X315200Y346493D02*
Y349442D01*
X316674D01*
X317166Y348950D01*
Y347967D01*
X316674Y347476D01*
X315200D01*
X318149Y346493D02*
Y348459D01*
X319132Y349442D01*
X320115Y348459D01*
Y346493D01*
Y347967D01*
X318149D01*
X321098Y348950D02*
X321590Y349442D01*
X322573D01*
X323064Y348950D01*
Y346984D01*
X322573Y346493D01*
X321590D01*
X321098Y346984D01*
Y348950D01*
X315200Y336535D02*
Y339484D01*
X316674D01*
X317166Y338993D01*
Y338009D01*
X316674Y337518D01*
X315200D01*
X318149Y336535D02*
Y338501D01*
X319132Y339484D01*
X320115Y338501D01*
Y336535D01*
Y338009D01*
X318149D01*
X321098Y336535D02*
X322081D01*
X321590D01*
Y339484D01*
X321098Y338993D01*
X315200Y326577D02*
Y329526D01*
X316674D01*
X317166Y329035D01*
Y328052D01*
X316674Y327560D01*
X315200D01*
X318149Y326577D02*
Y328543D01*
X319132Y329526D01*
X320115Y328543D01*
Y326577D01*
Y328052D01*
X318149D01*
X323064Y326577D02*
X321098D01*
X323064Y328543D01*
Y329035D01*
X322573Y329526D01*
X321590D01*
X321098Y329035D01*
X315200Y316619D02*
Y319568D01*
X316674D01*
X317166Y319077D01*
Y318094D01*
X316674Y317602D01*
X315200D01*
X318149Y316619D02*
Y318585D01*
X319132Y319568D01*
X320115Y318585D01*
Y316619D01*
Y318094D01*
X318149D01*
X321098Y319077D02*
X321590Y319568D01*
X322573D01*
X323064Y319077D01*
Y318585D01*
X322573Y318094D01*
X322081D01*
X322573D01*
X323064Y317602D01*
Y317111D01*
X322573Y316619D01*
X321590D01*
X321098Y317111D01*
X315200Y306662D02*
Y309611D01*
X316674D01*
X317166Y309119D01*
Y308136D01*
X316674Y307645D01*
X315200D01*
X318149Y306662D02*
Y308628D01*
X319132Y309611D01*
X320115Y308628D01*
Y306662D01*
Y308136D01*
X318149D01*
X322573Y306662D02*
Y309611D01*
X321098Y308136D01*
X323064D01*
X315200Y296704D02*
Y299653D01*
X316674D01*
X317166Y299162D01*
Y298179D01*
X316674Y297687D01*
X315200D01*
X318149Y296704D02*
Y298670D01*
X319132Y299653D01*
X320115Y298670D01*
Y296704D01*
Y298179D01*
X318149D01*
X323064Y299653D02*
X321098D01*
Y298179D01*
X322081Y298670D01*
X322573D01*
X323064Y298179D01*
Y297196D01*
X322573Y296704D01*
X321590D01*
X321098Y297196D01*
X315200Y286746D02*
Y289695D01*
X316674D01*
X317166Y289204D01*
Y288221D01*
X316674Y287729D01*
X315200D01*
X318149Y286746D02*
Y288712D01*
X319132Y289695D01*
X320115Y288712D01*
Y286746D01*
Y288221D01*
X318149D01*
X323064Y289695D02*
X322081Y289204D01*
X321098Y288221D01*
Y287238D01*
X321590Y286746D01*
X322573D01*
X323064Y287238D01*
Y287729D01*
X322573Y288221D01*
X321098D01*
X315200Y276789D02*
Y279738D01*
X316674D01*
X317166Y279246D01*
Y278263D01*
X316674Y277772D01*
X315200D01*
X318149Y276789D02*
Y278755D01*
X319132Y279738D01*
X320115Y278755D01*
Y276789D01*
Y278263D01*
X318149D01*
X321098Y279738D02*
X323064D01*
Y279246D01*
X321098Y277280D01*
Y276789D01*
X315200Y266831D02*
Y269780D01*
X316674D01*
X317166Y269288D01*
Y268305D01*
X316674Y267814D01*
X315200D01*
X320115Y269288D02*
X319624Y269780D01*
X318641D01*
X318149Y269288D01*
Y267322D01*
X318641Y266831D01*
X319624D01*
X320115Y267322D01*
X322573Y266831D02*
Y269780D01*
X321098Y268305D01*
X323064D01*
X315200Y256873D02*
Y259822D01*
X316674D01*
X317166Y259331D01*
Y258348D01*
X316674Y257856D01*
X315200D01*
X320115Y259331D02*
X319624Y259822D01*
X318641D01*
X318149Y259331D01*
Y257365D01*
X318641Y256873D01*
X319624D01*
X320115Y257365D01*
X323064Y259822D02*
X321098D01*
Y258348D01*
X322081Y258839D01*
X322573D01*
X323064Y258348D01*
Y257365D01*
X322573Y256873D01*
X321590D01*
X321098Y257365D01*
X315200Y246915D02*
Y249865D01*
X316674D01*
X317166Y249373D01*
Y248390D01*
X316674Y247899D01*
X315200D01*
X318149Y249865D02*
Y246915D01*
X319624D01*
X320115Y247407D01*
Y247899D01*
X319624Y248390D01*
X318149D01*
X319624D01*
X320115Y248882D01*
Y249373D01*
X319624Y249865D01*
X318149D01*
X321098Y249373D02*
X321590Y249865D01*
X322573D01*
X323064Y249373D01*
Y247407D01*
X322573Y246915D01*
X321590D01*
X321098Y247407D01*
Y249373D01*
X315200Y236958D02*
Y239907D01*
X316674D01*
X317166Y239415D01*
Y238432D01*
X316674Y237941D01*
X315200D01*
X318149Y239907D02*
Y236958D01*
X319624D01*
X320115Y237449D01*
Y237941D01*
X319624Y238432D01*
X318149D01*
X319624D01*
X320115Y238924D01*
Y239415D01*
X319624Y239907D01*
X318149D01*
X321098Y236958D02*
X322081D01*
X321590D01*
Y239907D01*
X321098Y239415D01*
X315200Y227000D02*
Y229949D01*
X316674D01*
X317166Y229457D01*
Y228474D01*
X316674Y227983D01*
X315200D01*
X318149Y229949D02*
Y227000D01*
X319624D01*
X320115Y227491D01*
Y227983D01*
X319624Y228474D01*
X318149D01*
X319624D01*
X320115Y228966D01*
Y229457D01*
X319624Y229949D01*
X318149D01*
X323064Y227000D02*
X321098D01*
X323064Y228966D01*
Y229457D01*
X322573Y229949D01*
X321590D01*
X321098Y229457D01*
X317799Y668699D02*
X317300Y669199D01*
X316300D01*
X315800Y668699D01*
Y666700D01*
X316300Y666200D01*
X317300D01*
X317799Y666700D01*
Y667699D01*
X316800D01*
X318799Y666200D02*
Y669199D01*
X320798Y666200D01*
Y669199D01*
X321798D02*
Y666200D01*
X323298D01*
X323797Y666700D01*
Y668699D01*
X323298Y669199D01*
X321798D01*
X382799Y668999D02*
X382299Y669499D01*
X381300D01*
X380800Y668999D01*
Y667000D01*
X381300Y666500D01*
X382299D01*
X382799Y667000D01*
Y668000D01*
X381800D01*
X383799Y666500D02*
Y669499D01*
X385798Y666500D01*
Y669499D01*
X386798D02*
Y666500D01*
X388298D01*
X388797Y667000D01*
Y668999D01*
X388298Y669499D01*
X386798D01*
D13*
X409118Y228353D02*
X457150D01*
X465024Y206699D02*
Y226384D01*
X457150Y204731D02*
Y228353D01*
Y206699D02*
X465024D01*
X457150Y226384D02*
X465024D01*
X409118Y204731D02*
X457150D01*
X409118D02*
Y228353D01*
X342489Y240804D02*
X366111D01*
X342489Y192772D02*
Y240804D01*
X364142Y192772D02*
X364142Y184898D01*
X344458Y184898D02*
Y192772D01*
X342489D02*
X366111D01*
X344458Y184898D02*
X364142Y184898D01*
X366111Y192772D02*
Y240804D01*
X342489Y625596D02*
X366111Y625596D01*
Y673628D01*
X344458Y673628D02*
Y681502D01*
X364142Y673628D02*
Y681502D01*
X342489Y673628D02*
X366111Y673628D01*
X344458Y681502D02*
X364142D01*
X342489Y625596D02*
Y673628D01*
X409118Y580182D02*
Y603804D01*
Y580182D02*
X457150D01*
Y601835D02*
X465024D01*
X457150Y582150D02*
X465024D01*
X457150Y580182D02*
Y603804D01*
X465024Y582150D02*
Y601835D01*
X409118Y603804D02*
X457150D01*
X409118Y637789D02*
Y661411D01*
Y637789D02*
X457150D01*
Y659443D02*
X465024D01*
X457150Y639757D02*
X465024D01*
X457150Y637789D02*
Y661411D01*
X465024Y639757D02*
Y659443D01*
X409118Y661411D02*
X457150D01*
X409118Y464967D02*
Y488589D01*
Y464967D02*
X457150D01*
Y486621D02*
X465024D01*
X457150Y466935D02*
X465024Y466935D01*
X457150Y464967D02*
Y488589D01*
X465024Y466935D02*
Y486621D01*
X409118Y488589D02*
X457150D01*
X409118Y319945D02*
Y343567D01*
Y319945D02*
X457150D01*
X457150Y341599D02*
X465024D01*
X457150Y321914D02*
X465024Y321914D01*
X457150Y343567D02*
X457150Y319945D01*
X465024Y321914D02*
Y341599D01*
X409118Y343567D02*
X457150Y343567D01*
X409118Y522574D02*
Y546196D01*
Y522574D02*
X457150D01*
Y544228D02*
X465024D01*
X457150Y524543D02*
X465024D01*
X457150Y522574D02*
Y546196D01*
X465024Y524543D02*
Y544228D01*
X409118Y546196D02*
X457150D01*
X409118Y262338D02*
Y285960D01*
Y262338D02*
X457150Y262338D01*
Y283992D02*
X465024D01*
X457150Y264307D02*
X465024D01*
X457150Y262338D02*
Y285960D01*
X465024Y264307D02*
Y283992D01*
X409118Y285960D02*
X457150D01*
X409118Y377553D02*
X409118Y401175D01*
X409118Y377553D02*
X457150D01*
Y399206D02*
X465024D01*
X457150Y379521D02*
X465024D01*
X457150Y377553D02*
Y401175D01*
X465024Y399206D02*
X465024Y379521D01*
X409118Y401175D02*
X457150D01*
D14*
X382859Y284144D02*
Y289656D01*
X377859Y288900D02*
Y289656D01*
X387859D01*
Y288900D02*
Y289656D01*
Y284144D02*
Y284900D01*
X377859Y284144D02*
X387859D01*
X377859D02*
Y284900D01*
X377131Y290344D02*
Y291525D01*
Y290344D02*
X388154D01*
Y291525D01*
Y294675D02*
Y295856D01*
X377131D02*
X388154D01*
X377131Y294675D02*
Y295856D01*
X382643Y290344D02*
Y295856D01*
X382641Y296244D02*
Y301756D01*
X377641Y301000D02*
Y301756D01*
X387641D01*
Y301000D02*
Y301756D01*
Y296244D02*
Y297000D01*
X377641Y296244D02*
X387641D01*
X377641D02*
Y297000D01*
X356481Y259963D02*
X357269D01*
Y267837D01*
X356481D02*
X357269D01*
X353331D02*
X354119D01*
X353331Y259963D02*
Y267837D01*
Y259963D02*
X354119D01*
X340850Y256257D02*
X340850Y263343D01*
X334157Y256257D02*
Y257832D01*
Y256257D02*
X347543D01*
Y257832D01*
Y261769D02*
Y263343D01*
X334157Y263343D02*
X347543Y263343D01*
X334157Y261769D02*
Y263343D01*
X343369Y267081D02*
X343369Y267868D01*
X335495Y267868D02*
X343369Y267868D01*
X335495Y267868D02*
X335495Y267081D01*
X335495Y263931D02*
X335495Y264719D01*
X335495Y263931D02*
X343369D01*
X343369Y264719D02*
X343369Y263931D01*
X382544Y248544D02*
Y254056D01*
X377544Y253300D02*
Y254056D01*
X387544D01*
Y253300D02*
Y254056D01*
Y248544D02*
Y249300D01*
X377544Y248544D02*
X387544D01*
X377544D02*
Y249300D01*
X363269Y541781D02*
Y542568D01*
X355395D02*
X363269D01*
X355395D02*
X355395Y541781D01*
X355395Y538631D02*
X355395Y539419D01*
X355395Y538631D02*
X363269D01*
Y539419D01*
X337300Y541000D02*
X337800Y541000D01*
X337300Y532000D02*
Y541000D01*
Y532000D02*
X337800Y532000D01*
X340800D02*
X341300Y532000D01*
Y541000D01*
X340800Y541000D02*
X341300Y541000D01*
X337300Y536500D02*
X341300D01*
X376881Y545231D02*
X377668Y545231D01*
Y553105D01*
X376881D02*
X377668D01*
X373731D02*
X374519D01*
X373731Y545231D02*
Y553105D01*
Y545231D02*
X374519Y545231D01*
X333600Y560200D02*
X334100D01*
Y569200D01*
X333600D02*
X334100D01*
X330100D02*
X330600D01*
X330100Y560200D02*
Y569200D01*
Y560200D02*
X330600D01*
X330100Y564700D02*
X334100D01*
X323050Y576857D02*
Y583943D01*
X329743Y582369D02*
Y583943D01*
X316357D02*
X329743D01*
X316357Y582369D02*
Y583943D01*
Y576857D02*
Y578432D01*
Y576857D02*
X329743D01*
Y578432D01*
X322950Y549857D02*
X322950Y556943D01*
X316258Y549857D02*
Y551432D01*
Y549857D02*
X329643D01*
Y551432D01*
Y555369D02*
Y556943D01*
X316258D02*
X329643D01*
X316258Y555369D02*
Y556943D01*
X381557Y554950D02*
X388643D01*
X387069Y548257D02*
X388643D01*
Y561643D01*
X387069Y561643D02*
X388643Y561643D01*
X381557D02*
X383132Y561643D01*
X381557Y548257D02*
Y561643D01*
Y548257D02*
X383132D01*
X373985Y256657D02*
Y263743D01*
X367292Y256657D02*
Y258231D01*
Y256657D02*
X380678D01*
X380678Y258231D01*
X380678Y263743D02*
X380678Y262169D01*
X367292Y263743D02*
X380678D01*
X367292Y262169D02*
Y263743D01*
X376505Y267081D02*
X376505Y267868D01*
X368631D02*
X376505D01*
X368631Y267081D02*
Y267868D01*
Y263931D02*
Y264719D01*
Y263931D02*
X376505D01*
X376505Y264719D02*
X376505Y263931D01*
X336381Y536531D02*
X337169Y536531D01*
X337169Y544405D01*
X336381D02*
X337169D01*
X333231D02*
X334019D01*
X333231Y536531D02*
Y544405D01*
Y536531D02*
X334019Y536531D01*
X326157Y539050D02*
X333243Y539050D01*
X326157Y545743D02*
X327731D01*
X326157Y532358D02*
Y545743D01*
Y532358D02*
X327731Y532358D01*
X331668Y532358D02*
X333243Y532358D01*
Y545743D01*
X331668Y545743D02*
X333243Y545743D01*
X343537Y584281D02*
X343537Y585069D01*
X335663D02*
X343537D01*
X335663Y584281D02*
Y585069D01*
Y581132D02*
Y581919D01*
Y581132D02*
X343537D01*
X343537Y581919D02*
X343537Y581132D01*
X342305Y311481D02*
Y312268D01*
X334431D02*
X342305D01*
X334431Y311481D02*
Y312268D01*
Y308331D02*
Y309119D01*
Y308331D02*
X342305D01*
Y309119D01*
X382559Y592244D02*
Y597756D01*
X377559Y597000D02*
Y597756D01*
X387559D01*
Y597000D02*
Y597756D01*
Y592244D02*
Y593000D01*
X377559Y592244D02*
X387559Y592244D01*
X377559Y592244D02*
Y593000D01*
X382759Y236644D02*
Y242156D01*
X377759Y241400D02*
Y242156D01*
X387759D01*
Y241400D02*
Y242156D01*
Y236644D02*
Y237400D01*
X377759Y236644D02*
X387759D01*
X377759D02*
Y237400D01*
X376831Y580244D02*
Y581425D01*
Y580244D02*
X387854D01*
Y581425D01*
X387854Y584575D02*
Y585756D01*
X376831Y585756D02*
X387854Y585756D01*
X376831Y585756D02*
X376831Y584575D01*
X382343Y580244D02*
Y585756D01*
X382441Y586244D02*
Y591756D01*
X377441Y591000D02*
Y591756D01*
X387441D01*
Y591000D02*
Y591756D01*
Y586244D02*
Y587000D01*
X377441Y586244D02*
X387441D01*
X377441Y587000D02*
X377441Y586244D01*
X377328Y242944D02*
Y244125D01*
Y242944D02*
X388351D01*
Y244125D01*
Y247275D02*
Y248456D01*
X377328D02*
X388351D01*
X377328Y247275D02*
Y248456D01*
X382839Y242944D02*
Y248456D01*
X382559Y652244D02*
Y657756D01*
X377559Y657000D02*
Y657756D01*
X387559D01*
Y657000D02*
Y657756D01*
Y652244D02*
Y653000D01*
X377559Y652244D02*
X387559D01*
X377559D02*
Y653000D01*
X376831Y640244D02*
Y641425D01*
Y640244D02*
X387854D01*
Y641425D01*
Y644575D02*
Y645756D01*
X376831D02*
X387854D01*
X376831Y644575D02*
Y645756D01*
X382343Y640244D02*
Y645756D01*
X382559Y646244D02*
Y651756D01*
X377559Y651000D02*
Y651756D01*
X387559D01*
Y651000D02*
Y651756D01*
Y646244D02*
Y647000D01*
X377559Y646244D02*
X387559D01*
X377559D02*
Y647000D01*
X326559Y623244D02*
Y628756D01*
X321559Y628000D02*
Y628756D01*
X331559D01*
Y628000D02*
Y628756D01*
Y623244D02*
Y624000D01*
X321559Y623244D02*
X331559D01*
X321559D02*
Y624000D01*
X368244Y243241D02*
X373756D01*
X368244Y238241D02*
X369000D01*
X368244D02*
Y248241D01*
X369000D01*
X373000D02*
X373756D01*
Y238241D02*
Y248241D01*
X373000Y238241D02*
X373756D01*
X355244Y618559D02*
X360756D01*
X355244Y613559D02*
X356000D01*
X355244D02*
Y623559D01*
X356000D01*
X360000D02*
X360756D01*
Y613559D02*
Y623559D01*
X360000Y613559D02*
X360756D01*
X335244Y224400D02*
X340756D01*
X335244Y219400D02*
X336000D01*
X335244D02*
Y229400D01*
X336000D01*
X340000D02*
X340756D01*
Y219400D02*
Y229400D01*
X340000Y219400D02*
X340756D01*
X318100Y288100D02*
X318600D01*
Y297100D01*
X318100D02*
X318600D01*
X314600D02*
X315100D01*
X314600Y288100D02*
Y297100D01*
Y288100D02*
X315100D01*
X314600Y292600D02*
X318600D01*
X381457Y570850D02*
X388543D01*
X386968Y564157D02*
X388543D01*
Y577543D01*
X386968D02*
X388543D01*
X381457D02*
X383032D01*
X381457Y564157D02*
Y577543D01*
Y564157D02*
X383032D01*
X377031Y577937D02*
X377819Y577937D01*
X377031Y570063D02*
Y577937D01*
Y570063D02*
X377819D01*
X380181D02*
X380968D01*
Y577937D01*
X380181Y577937D02*
X380968Y577937D01*
X369650Y312457D02*
Y319543D01*
X376343Y317969D02*
Y319543D01*
X362957D02*
X376343D01*
X362957Y317969D02*
Y319543D01*
Y312457D02*
Y314032D01*
Y312457D02*
X376343D01*
Y314032D01*
X365931Y308331D02*
X365931Y309119D01*
X365931Y308331D02*
X373805D01*
Y309119D01*
Y311481D02*
Y312268D01*
X365931D02*
X373805D01*
X365931D02*
X365931Y311481D01*
X340850Y312657D02*
Y319743D01*
X334157Y312657D02*
Y314231D01*
Y312657D02*
X347543D01*
Y314231D01*
Y318168D02*
Y319743D01*
X334157D02*
X347543D01*
X334157Y318168D02*
Y319743D01*
D15*
X382800Y282300D02*
X384800D01*
X382800Y277300D02*
X384800D01*
X377300Y276300D02*
X378300Y276300D01*
X377300Y276300D02*
Y277300D01*
Y282300D02*
Y283300D01*
X378300Y283300D01*
X389300Y283300D02*
X390300Y283300D01*
Y282300D02*
Y283300D01*
X389300Y276300D02*
X390300Y276300D01*
Y277300D01*
X382800Y235000D02*
X384800D01*
X382800Y230000D02*
X384800D01*
X377300Y229000D02*
X378300Y229000D01*
X377300Y230000D02*
X377300Y229000D01*
Y235000D02*
Y236000D01*
X378300Y236000D01*
X389300Y236000D02*
X390300Y236000D01*
X390300Y235000D01*
X389300Y229000D02*
X390300D01*
X390300Y230000D02*
X390300Y229000D01*
X382800Y605000D02*
X384800D01*
X382800Y600000D02*
X384800D01*
X377300Y599000D02*
X378300Y599000D01*
X377300Y599000D02*
Y600000D01*
Y605000D02*
Y606000D01*
X378300D01*
X389300D02*
X390300D01*
X390300Y605000D02*
X390300Y606000D01*
X389300Y599000D02*
X390300Y599000D01*
Y600000D01*
X382800Y665000D02*
X384800D01*
X382800Y660000D02*
X384800D01*
X377300Y659000D02*
X378300Y659000D01*
X377300Y660000D02*
X377300Y659000D01*
X377300Y666000D02*
X377300Y665000D01*
X377300Y666000D02*
X378300D01*
X389300Y666000D02*
X390300D01*
Y665000D02*
Y666000D01*
X389300Y659000D02*
X390300D01*
Y660000D01*
D16*
X386576Y274666D02*
X388938D01*
X386576D02*
Y275453D01*
X387757Y254981D02*
X388938Y254980D01*
X386576Y275453D02*
X388938D01*
Y254980D02*
Y275453D01*
X381957Y274600D02*
X384319D01*
Y275387D01*
X381957Y254915D02*
X383138D01*
X381957Y275387D02*
X384319D01*
X381957Y254915D02*
Y275387D01*
X383976Y321666D02*
X386338D01*
X383976D02*
Y322453D01*
X385157Y301981D02*
X386338Y301980D01*
X383976Y322453D02*
X386338D01*
Y301980D02*
Y322453D01*
X379357Y321600D02*
X381719D01*
X381719Y322387D01*
X379357Y301915D02*
X380538D01*
X379357Y322387D02*
X381719D01*
X379357Y301915D02*
Y322387D01*
X333255Y198030D02*
Y227951D01*
X315145Y198030D02*
Y227951D01*
X330598D02*
X333255D01*
X330598Y198030D02*
X333255D01*
X315145Y227951D02*
X317802D01*
X315145Y198030D02*
X317802D01*
X317802Y225786D02*
X317802Y227951D01*
X315145Y225786D02*
X317802D01*
X330598D02*
X333255D01*
X330598Y227951D02*
X330598Y225786D01*
X329727Y562570D02*
Y575168D01*
X316341D02*
X329727D01*
X316341Y558633D02*
Y575168D01*
Y558633D02*
X328940D01*
X329727Y559420D01*
Y562570D01*
X353934Y588075D02*
Y590438D01*
X353147Y588075D02*
X353934D01*
X373619Y589257D02*
Y590438D01*
X353147Y588075D02*
Y590438D01*
X373619D01*
X354000Y585819D02*
X354000Y583457D01*
X353213Y585819D02*
X354000Y585819D01*
X373685Y583457D02*
Y584638D01*
X353213Y583457D02*
Y585819D01*
Y583457D02*
X373685D01*
X381562Y618934D02*
X383925D01*
Y618147D02*
Y618934D01*
X381562Y638619D02*
X382743D01*
X381562Y618147D02*
X383925D01*
X381562D02*
Y638619D01*
X386181Y619000D02*
X388543D01*
X386181Y618213D02*
Y619000D01*
X387362Y638685D02*
X388543D01*
X386181Y618213D02*
X388543D01*
Y638685D01*
X314945Y589039D02*
Y618961D01*
X333055Y589039D02*
Y618961D01*
X314945Y589039D02*
X317602D01*
X314945Y618961D02*
X317602D01*
X330398Y589039D02*
X333055D01*
X330398Y618961D02*
X333055D01*
X330398Y589039D02*
Y591205D01*
X333055D01*
X314945D02*
X317602D01*
Y589039D02*
Y591205D01*
X333155Y235049D02*
Y264970D01*
X315045Y235049D02*
Y264970D01*
X330498D02*
X333155Y264970D01*
X330498Y235049D02*
X333155D01*
X315045Y264970D02*
X317702Y264970D01*
X315045Y235049D02*
X317702D01*
X317702Y264970D02*
X317702Y262805D01*
X315045D02*
X317702D01*
X330498Y262805D02*
X333155Y262805D01*
X330498Y264970D02*
X330498Y262805D01*
X334945Y589039D02*
Y618961D01*
X353055Y589039D02*
Y618961D01*
X334945Y589039D02*
X337602Y589039D01*
X334945Y618961D02*
X337602Y618961D01*
X350398Y589039D02*
X353055D01*
X350398Y618961D02*
X353055D01*
X350398Y589039D02*
Y591205D01*
X353055Y591205D01*
X334945D02*
X337602D01*
Y589039D02*
Y591205D01*
X341409Y542799D02*
X354991D01*
Y530201D02*
Y542799D01*
X341409Y530201D02*
X354991D01*
X341409D02*
Y542799D01*
X319909Y286301D02*
X333491D01*
X319909D02*
Y298899D01*
X333491D01*
Y286301D02*
Y298899D01*
D17*
X426000Y244498D02*
X427999D01*
X427000D01*
Y238500D01*
X426000D01*
X427999D01*
X430998D02*
Y242499D01*
X433997D01*
X434997Y241499D01*
Y238500D01*
X440995D02*
X436996D01*
X440995Y242499D01*
Y243498D01*
X439995Y244498D01*
X437996D01*
X436996Y243498D01*
X442994Y244498D02*
Y238500D01*
X446993D01*
X426000Y302105D02*
X427999D01*
X427000D01*
Y296107D01*
X426000D01*
X427999D01*
X430998D02*
Y300106D01*
X433997D01*
X434997Y299106D01*
Y296107D01*
X440995D02*
X436997D01*
X440995Y300106D01*
Y301106D01*
X439995Y302105D01*
X437996D01*
X436997Y301106D01*
X442994Y296107D02*
Y302105D01*
X445994D01*
X446993Y301106D01*
Y299106D01*
X445994Y298107D01*
X442994D01*
X444994D02*
X446993Y296107D01*
X421499Y359498D02*
X419500D01*
X418500Y358498D01*
Y354500D01*
X419500Y353500D01*
X421499D01*
X422499Y354500D01*
Y358498D01*
X421499Y359498D01*
X424498Y357499D02*
Y354500D01*
X425498Y353500D01*
X428497D01*
Y357499D01*
X431496Y358498D02*
Y357499D01*
X430496D01*
X432495D01*
X431496D01*
Y354500D01*
X432495Y353500D01*
X439493D02*
X435495D01*
X439493Y357499D01*
Y358498D01*
X438493Y359498D01*
X436494D01*
X435495Y358498D01*
X441493Y359498D02*
Y353500D01*
X445491D01*
X421499Y416998D02*
X419500D01*
X418500Y415998D01*
Y412000D01*
X419500Y411000D01*
X421499D01*
X422499Y412000D01*
Y415998D01*
X421499Y416998D01*
X424498Y414999D02*
Y412000D01*
X425498Y411000D01*
X428497D01*
Y414999D01*
X431496Y415998D02*
Y414999D01*
X430496D01*
X432495D01*
X431496D01*
Y412000D01*
X432495Y411000D01*
X439493D02*
X435495D01*
X439493Y414999D01*
Y415998D01*
X438493Y416998D01*
X436494D01*
X435495Y415998D01*
X441493Y411000D02*
Y416998D01*
X444492D01*
X445491Y415998D01*
Y413999D01*
X444492Y412999D01*
X441493D01*
X443492D02*
X445491Y411000D01*
X423999Y629498D02*
X422000D01*
X421000Y628498D01*
Y624500D01*
X422000Y623500D01*
X423999D01*
X424999Y624500D01*
Y628498D01*
X423999Y629498D01*
X426998Y627499D02*
Y624500D01*
X427998Y623500D01*
X430997D01*
Y627499D01*
X433996Y628498D02*
Y627499D01*
X432996D01*
X434996D01*
X433996D01*
Y624500D01*
X434996Y623500D01*
X437994D02*
X439994D01*
X438994D01*
Y629498D01*
X437994Y628498D01*
X442993Y623500D02*
Y629498D01*
X445992D01*
X446992Y628498D01*
Y626499D01*
X445992Y625499D01*
X442993D01*
X444992D02*
X446992Y623500D01*
X423999Y571998D02*
X422000D01*
X421000Y570998D01*
Y567000D01*
X422000Y566000D01*
X423999D01*
X424999Y567000D01*
Y570998D01*
X423999Y571998D01*
X426998Y569999D02*
Y567000D01*
X427998Y566000D01*
X430997D01*
Y569999D01*
X433996Y570998D02*
Y569999D01*
X432996D01*
X434996D01*
X433996D01*
Y567000D01*
X434996Y566000D01*
X437994D02*
X439994D01*
X438994D01*
Y571998D01*
X437994Y570998D01*
X442993Y571998D02*
Y566000D01*
X446992D01*
X428500Y514605D02*
X430499D01*
X429500D01*
Y508607D01*
X428500D01*
X430499D01*
X433498D02*
Y512606D01*
X436497D01*
X437497Y511606D01*
Y508607D01*
X439497D02*
X441496D01*
X440496D01*
Y514605D01*
X439497Y513606D01*
X444495Y508607D02*
Y514605D01*
X447494D01*
X448493Y513606D01*
Y511606D01*
X447494Y510607D01*
X444495D01*
X446494D02*
X448493Y508607D01*
X428500Y456998D02*
X430499D01*
X429500D01*
Y451000D01*
X428500D01*
X430499D01*
X433498D02*
Y454999D01*
X436497D01*
X437497Y453999D01*
Y451000D01*
X439496D02*
X441496D01*
X440496D01*
Y456998D01*
X439496Y455998D01*
X444495Y456998D02*
Y451000D01*
X448493D01*
D18*
X387757Y275158D02*
D03*
X382743Y618442D02*
D03*
D19*
X383138Y275092D02*
D03*
D20*
X385157Y322158D02*
D03*
X380538Y322092D02*
D03*
X387362Y618508D02*
D03*
D21*
X316474Y226869D02*
D03*
X331926Y226868D02*
D03*
X331726Y590122D02*
D03*
X316274D02*
D03*
X316374Y263887D02*
D03*
X331826D02*
D03*
X351726Y590122D02*
D03*
X336274Y590122D02*
D03*
D22*
X353442Y589257D02*
D03*
X353508Y584638D02*
D03*
M02*
