G04*
G04 #@! TF.GenerationSoftware,Altium Limited,Altium Designer,21.8.1 (53)*
G04*
G04 Layer_Physical_Order=1*
G04 Layer_Color=255*
%FSLAX25Y25*%
%MOIN*%
G70*
G04*
G04 #@! TF.SameCoordinates,F5C5D764-6AA7-4F14-928A-87DEF657E23D*
G04*
G04*
G04 #@! TF.FilePolarity,Positive*
G04*
G01*
G75*
%ADD23R,0.06000X0.10000*%
%ADD24R,0.06000X0.12000*%
%ADD25R,0.10000X0.06000*%
%ADD26R,0.12000X0.06000*%
%ADD27R,0.03347X0.03740*%
%ADD28R,0.03543X0.03937*%
%ADD29R,0.04000X0.05500*%
%ADD30R,0.04842X0.07087*%
%ADD31R,0.09646X0.10039*%
%ADD32R,0.02520X0.02362*%
%ADD33R,0.05118X0.05512*%
%ADD34R,0.02362X0.02520*%
%ADD35R,0.02362X0.02953*%
%ADD36R,0.04724X0.05512*%
%ADD37R,0.01400X0.05800*%
%ADD38R,0.05512X0.05118*%
%ADD39R,0.07087X0.04842*%
%ADD40R,0.03740X0.03347*%
%ADD41R,0.01772X0.03543*%
%ADD65C,0.00800*%
%ADD66O,0.07874X0.07087*%
%ADD67R,0.07874X0.07087*%
%ADD68C,0.03937*%
%ADD69C,0.02362*%
G36*
X408984Y673737D02*
Y665979D01*
X407299Y664294D01*
X403751D01*
Y667573D01*
X398814D01*
X393877D01*
Y664294D01*
X393001D01*
X390648Y666648D01*
X390351Y666846D01*
X390000Y666916D01*
X374076D01*
Y670144D01*
X362476D01*
Y666916D01*
X346124D01*
Y666994D01*
X334524D01*
Y666695D01*
X334452Y666648D01*
X328352Y660548D01*
X328154Y660251D01*
X328084Y659900D01*
Y641879D01*
X314452Y628248D01*
X314254Y627951D01*
X314184Y627600D01*
Y586100D01*
X314254Y585749D01*
X314452Y585452D01*
X314749Y585254D01*
X315100Y585184D01*
X335687D01*
Y583600D01*
X336682D01*
X336691Y583624D01*
X336699Y583700D01*
Y583600D01*
X337868D01*
Y582600D01*
X336699D01*
Y582100D01*
X336691Y582176D01*
X336667Y582244D01*
X336627Y582304D01*
X336571Y582356D01*
X336499Y582400D01*
X336411Y582436D01*
X336307Y582464D01*
X336187Y582484D01*
X336086Y582493D01*
X336002Y582483D01*
X335898Y582462D01*
X335796Y582432D01*
X335697Y582393D01*
X335687Y582388D01*
Y580840D01*
X336700D01*
Y577554D01*
X336701Y577554D01*
X336797Y577507D01*
X336814Y577500D01*
X337521D01*
D01*
X337594Y577544D01*
X337651Y577596D01*
X337691Y577656D01*
X337716Y577724D01*
X337724Y577800D01*
Y577500D01*
X338400D01*
Y577000D01*
X338900D01*
Y572830D01*
X338998Y572684D01*
X338919Y572494D01*
Y571706D01*
X339220Y570978D01*
X339778Y570421D01*
X340506Y570119D01*
X341294D01*
X341776Y570319D01*
X341791Y570312D01*
X342068Y569898D01*
X340493Y568324D01*
X334081D01*
Y569240D01*
X330119D01*
X329743Y569540D01*
Y570731D01*
X329531D01*
Y570507D01*
X329377Y570503D01*
X329239Y570491D01*
X329117Y570471D01*
X329011Y570443D01*
X328922Y570407D01*
X328849Y570363D01*
X328792Y570311D01*
X328751Y570251D01*
X328727Y570183D01*
X328719Y570107D01*
Y570731D01*
X326381D01*
Y571231D01*
X325881D01*
Y574987D01*
X323019D01*
Y574987D01*
X322850Y574787D01*
X321124D01*
Y576844D01*
X322640D01*
Y576644D01*
X325699D01*
Y580400D01*
Y584156D01*
X322640D01*
Y583956D01*
X316541D01*
Y576844D01*
X318676D01*
Y574787D01*
X316526D01*
Y567675D01*
X318472D01*
X318557Y567244D01*
X318823Y566847D01*
X318882Y566787D01*
X318691Y566326D01*
X316326D01*
Y563070D01*
X316538D01*
Y563293D01*
X316692Y563297D01*
X316830Y563309D01*
X316952Y563329D01*
X317057Y563357D01*
X317147Y563393D01*
X317220Y563437D01*
X317277Y563489D01*
X317317Y563549D01*
X317341Y563617D01*
X317350Y563693D01*
Y563070D01*
X319688D01*
Y562570D01*
X320188D01*
Y558814D01*
X323050D01*
Y558814D01*
X323219Y559014D01*
X325157D01*
Y556956D01*
X323360D01*
Y557156D01*
X320301D01*
Y553400D01*
Y549644D01*
X323360D01*
Y549844D01*
X324339D01*
X324490Y549344D01*
X324372Y549265D01*
X321635Y546528D01*
X321370Y546131D01*
X321276Y545663D01*
Y530737D01*
X321370Y530269D01*
X321635Y529872D01*
X329077Y522431D01*
Y446837D01*
X329170Y446369D01*
X329435Y445972D01*
X357961Y417446D01*
X357678Y417022D01*
X357294Y417181D01*
X356506D01*
X355778Y416880D01*
X355221Y416322D01*
X354919Y415594D01*
Y414949D01*
X323135Y383165D01*
X322870Y382768D01*
X322777Y382300D01*
Y314979D01*
X322755Y314965D01*
X322276Y314825D01*
X321923Y315178D01*
Y516581D01*
X321830Y517049D01*
X321565Y517446D01*
X313038Y525973D01*
X313439Y526940D01*
X313588Y528074D01*
X313439Y529207D01*
X313001Y530264D01*
X312305Y531171D01*
X311398Y531867D01*
X310341Y532305D01*
X309207Y532454D01*
X308420D01*
X307286Y532305D01*
X306229Y531867D01*
X305322Y531171D01*
X304626Y530264D01*
X304188Y529207D01*
X304039Y528074D01*
X304188Y526940D01*
X304626Y525883D01*
X305322Y524976D01*
X306229Y524280D01*
X307286Y523842D01*
X308420Y523693D01*
X309207D01*
X310341Y523842D01*
X311308Y524242D01*
X319477Y516074D01*
Y315178D01*
X319021Y314722D01*
X318891Y314410D01*
X318350D01*
X318179Y314822D01*
X317723Y315278D01*
Y490781D01*
X317630Y491249D01*
X317365Y491646D01*
X313038Y495973D01*
X313439Y496940D01*
X313588Y498073D01*
X313439Y499207D01*
X313001Y500264D01*
X312305Y501171D01*
X311398Y501867D01*
X310341Y502305D01*
X309207Y502454D01*
X308420D01*
X307286Y502305D01*
X306229Y501867D01*
X305322Y501171D01*
X304626Y500264D01*
X304188Y499207D01*
X304039Y498073D01*
X304188Y496940D01*
X304626Y495883D01*
X305322Y494976D01*
X306229Y494280D01*
X307286Y493842D01*
X308420Y493693D01*
X309207D01*
X310341Y493842D01*
X311308Y494242D01*
X315277Y490274D01*
Y315278D01*
X314821Y314822D01*
X314519Y314094D01*
Y313306D01*
X314821Y312578D01*
X315378Y312020D01*
X316106Y311719D01*
X316894D01*
X317622Y312020D01*
X318179Y312578D01*
X318309Y312890D01*
X318850D01*
X319021Y312478D01*
X319578Y311920D01*
X320306Y311619D01*
X320335D01*
X320527Y311157D01*
X315735Y306365D01*
X315470Y305968D01*
X315376Y305500D01*
Y297140D01*
X314619D01*
Y292587D01*
Y288060D01*
X315376D01*
Y287100D01*
X315470Y286632D01*
X315735Y286235D01*
X323935Y278035D01*
X324332Y277770D01*
X324800Y277677D01*
X337893D01*
X338508Y277062D01*
X338316Y276600D01*
X336200D01*
Y274024D01*
X333507D01*
X332881Y274649D01*
Y275294D01*
X332579Y276022D01*
X332022Y276579D01*
X331294Y276881D01*
X330506D01*
X329778Y276579D01*
X329221Y276022D01*
X328919Y275294D01*
Y274506D01*
X329221Y273778D01*
X329778Y273220D01*
X330506Y272919D01*
X331151D01*
X332135Y271935D01*
X332532Y271670D01*
X333000Y271576D01*
X336200D01*
Y270030D01*
X336196Y270012D01*
X336200Y269994D01*
Y269200D01*
X336476D01*
Y267960D01*
X335719D01*
Y263840D01*
X335719D01*
X335681Y263356D01*
X334540D01*
X327748Y270148D01*
X327451Y270346D01*
X327100Y270416D01*
X318400D01*
X318049Y270346D01*
X317752Y270148D01*
X314852Y267248D01*
X314654Y266951D01*
X314584Y266600D01*
Y209900D01*
X314654Y209549D01*
X314852Y209252D01*
X318577Y205527D01*
Y195261D01*
X329823D01*
Y201784D01*
X334524D01*
Y196256D01*
X346124D01*
Y201784D01*
X351596D01*
X352120Y201259D01*
X352930Y200792D01*
X353833Y200550D01*
X354767D01*
X355670Y200792D01*
X356480Y201259D01*
X357004Y201784D01*
X362476D01*
Y199406D01*
X374076D01*
Y201784D01*
X385200D01*
X385551Y201854D01*
X385848Y202052D01*
X391079Y207284D01*
X394143D01*
X394188Y206940D01*
X394626Y205883D01*
X395322Y204976D01*
X396230Y204280D01*
X397286Y203842D01*
X398420Y203693D01*
X399207D01*
X400341Y203842D01*
X401398Y204280D01*
X402305Y204976D01*
X403001Y205883D01*
X403439Y206940D01*
X403484Y207284D01*
X405121D01*
X408200Y204205D01*
Y196608D01*
X415797D01*
X418843Y193562D01*
X418651Y193100D01*
X400068D01*
X400035Y193600D01*
X400393Y193647D01*
X401499Y194105D01*
X402448Y194833D01*
X403176Y195782D01*
X403634Y196887D01*
X403724Y197573D01*
X398814D01*
X393903D01*
X393993Y196887D01*
X394451Y195782D01*
X395180Y194833D01*
X396129Y194105D01*
X397234Y193647D01*
X397592Y193600D01*
X397559Y193100D01*
X310068D01*
X310035Y193600D01*
X310393Y193647D01*
X311499Y194105D01*
X312448Y194833D01*
X313176Y195782D01*
X313634Y196887D01*
X313724Y197573D01*
X308814D01*
X303903D01*
X303994Y196887D01*
X304451Y195782D01*
X305180Y194833D01*
X306129Y194105D01*
X307234Y193647D01*
X307592Y193600D01*
X307559Y193100D01*
X300900D01*
Y674007D01*
X300925Y674068D01*
X408630Y674090D01*
X408984Y673737D01*
D02*
G37*
G36*
X442451Y664646D02*
X442538Y664573D01*
X442629Y664509D01*
X442723Y664454D01*
X442819Y664407D01*
X442918Y664368D01*
X443020Y664338D01*
X443124Y664317D01*
X443170Y664312D01*
X443221Y664316D01*
X443343Y664336D01*
X443448Y664364D01*
X443538Y664400D01*
X443611Y664444D01*
X443668Y664496D01*
X443708Y664556D01*
X443732Y664624D01*
X443741Y664700D01*
Y663100D01*
X443732Y663176D01*
X443708Y663244D01*
X443668Y663304D01*
X443611Y663356D01*
X443538Y663400D01*
X443448Y663436D01*
X443343Y663464D01*
X443221Y663484D01*
X443170Y663488D01*
X443124Y663483D01*
X443020Y663462D01*
X442918Y663432D01*
X442819Y663393D01*
X442723Y663346D01*
X442629Y663291D01*
X442538Y663227D01*
X442451Y663154D01*
X442366Y663073D01*
Y664727D01*
X442451Y664646D01*
D02*
G37*
G36*
X416182Y662271D02*
X416173Y662347D01*
X416149Y662415D01*
X416108Y662475D01*
X416052Y662527D01*
X415978Y662571D01*
X415889Y662607D01*
X415784Y662635D01*
X415662Y662655D01*
X415524Y662667D01*
X415370Y662671D01*
Y663471D01*
X415524Y663475D01*
X415662Y663487D01*
X415784Y663507D01*
X415889Y663535D01*
X415978Y663571D01*
X416052Y663615D01*
X416108Y663667D01*
X416149Y663727D01*
X416173Y663795D01*
X416182Y663871D01*
Y662271D01*
D02*
G37*
G36*
X389484Y663795D02*
X389509Y663727D01*
X389549Y663667D01*
X389606Y663615D01*
X389679Y663571D01*
X389768Y663535D01*
X389874Y663507D01*
X389996Y663487D01*
X390134Y663475D01*
X390288Y663471D01*
Y662671D01*
X390134Y662667D01*
X389996Y662655D01*
X389874Y662635D01*
X389768Y662607D01*
X389679Y662571D01*
X389606Y662527D01*
X389549Y662475D01*
X389509Y662415D01*
X389484Y662347D01*
X389476Y662271D01*
Y663871D01*
X389484Y663795D01*
D02*
G37*
G36*
X368724Y663360D02*
X368656Y663336D01*
X368596Y663295D01*
X368544Y663238D01*
X368500Y663165D01*
X368464Y663076D01*
X368436Y662970D01*
X368416Y662848D01*
X368404Y662712D01*
X368404Y662710D01*
X368417Y662602D01*
X368438Y662498D01*
X368468Y662396D01*
X368507Y662297D01*
X368554Y662200D01*
X368609Y662107D01*
X368673Y662016D01*
X368746Y661929D01*
X368827Y661843D01*
X367173D01*
X367254Y661929D01*
X367327Y662016D01*
X367391Y662107D01*
X367446Y662200D01*
X367493Y662297D01*
X367532Y662396D01*
X367562Y662498D01*
X367583Y662602D01*
X367596Y662710D01*
X367596Y662712D01*
X367584Y662848D01*
X367564Y662970D01*
X367536Y663076D01*
X367500Y663165D01*
X367456Y663238D01*
X367404Y663295D01*
X367344Y663336D01*
X367276Y663360D01*
X367200Y663368D01*
X368800D01*
X368724Y663360D01*
D02*
G37*
G36*
X380824Y659754D02*
X380756Y659730D01*
X380696Y659690D01*
X380644Y659634D01*
X380600Y659562D01*
X380564Y659474D01*
X380536Y659370D01*
X380516Y659250D01*
X380504Y659114D01*
X380500Y658962D01*
X379700D01*
X379696Y659114D01*
X379684Y659250D01*
X379664Y659370D01*
X379636Y659474D01*
X379600Y659562D01*
X379556Y659634D01*
X379504Y659690D01*
X379444Y659730D01*
X379376Y659754D01*
X379300Y659762D01*
X380900D01*
X380824Y659754D01*
D02*
G37*
G36*
X340724Y660210D02*
X340656Y660186D01*
X340596Y660145D01*
X340544Y660089D01*
X340500Y660015D01*
X340464Y659926D01*
X340436Y659821D01*
X340416Y659699D01*
X340412Y659648D01*
X340417Y659602D01*
X340438Y659498D01*
X340468Y659396D01*
X340507Y659297D01*
X340554Y659200D01*
X340609Y659107D01*
X340673Y659016D01*
X340746Y658928D01*
X340827Y658844D01*
X339173D01*
X339254Y658928D01*
X339327Y659016D01*
X339391Y659107D01*
X339446Y659200D01*
X339493Y659297D01*
X339532Y659396D01*
X339562Y659498D01*
X339583Y659602D01*
X339588Y659648D01*
X339584Y659699D01*
X339564Y659821D01*
X339536Y659926D01*
X339500Y660015D01*
X339456Y660089D01*
X339404Y660145D01*
X339344Y660186D01*
X339276Y660210D01*
X339200Y660218D01*
X340800D01*
X340724Y660210D01*
D02*
G37*
G36*
X380504Y657504D02*
X380516Y657366D01*
X380536Y657244D01*
X380564Y657138D01*
X380600Y657049D01*
X380644Y656976D01*
X380696Y656919D01*
X380756Y656879D01*
X380824Y656854D01*
X380900Y656846D01*
X379300D01*
X379376Y656854D01*
X379444Y656879D01*
X379504Y656919D01*
X379556Y656976D01*
X379600Y657049D01*
X379636Y657138D01*
X379664Y657244D01*
X379684Y657366D01*
X379696Y657504D01*
X379700Y657658D01*
X380500D01*
X380504Y657504D01*
D02*
G37*
G36*
X385842Y653146D02*
X385774Y653121D01*
X385714Y653081D01*
X385662Y653024D01*
X385618Y652951D01*
X385582Y652862D01*
X385554Y652756D01*
X385534Y652634D01*
X385522Y652496D01*
X385518Y652342D01*
X384718D01*
X384714Y652496D01*
X384702Y652634D01*
X384682Y652756D01*
X384654Y652862D01*
X384618Y652951D01*
X384574Y653024D01*
X384522Y653081D01*
X384462Y653121D01*
X384394Y653146D01*
X384318Y653154D01*
X385918D01*
X385842Y653146D01*
D02*
G37*
G36*
X385522Y651504D02*
X385534Y651366D01*
X385554Y651244D01*
X385582Y651138D01*
X385618Y651049D01*
X385662Y650976D01*
X385714Y650919D01*
X385774Y650879D01*
X385842Y650854D01*
X385918Y650846D01*
X384318D01*
X384394Y650854D01*
X384462Y650879D01*
X384522Y650919D01*
X384574Y650976D01*
X384618Y651049D01*
X384654Y651138D01*
X384682Y651244D01*
X384702Y651366D01*
X384714Y651504D01*
X384718Y651658D01*
X385518D01*
X385522Y651504D01*
D02*
G37*
G36*
X369000Y649187D02*
X368932Y649162D01*
X368872Y649122D01*
X368820Y649065D01*
X368776Y648992D01*
X368740Y648903D01*
X368712Y648797D01*
X368692Y648675D01*
X368680Y648537D01*
X368676Y648383D01*
X367876D01*
X367872Y648537D01*
X367860Y648675D01*
X367840Y648797D01*
X367812Y648903D01*
X367776Y648992D01*
X367732Y649065D01*
X367680Y649122D01*
X367620Y649162D01*
X367552Y649187D01*
X367476Y649195D01*
X369076D01*
X369000Y649187D01*
D02*
G37*
G36*
X376928Y649746D02*
X377016Y649673D01*
X377107Y649609D01*
X377201Y649554D01*
X377297Y649507D01*
X377396Y649468D01*
X377498Y649438D01*
X377602Y649417D01*
X377704Y649405D01*
X377831Y649416D01*
X377953Y649436D01*
X378058Y649464D01*
X378148Y649500D01*
X378221Y649544D01*
X378278Y649596D01*
X378318Y649656D01*
X378343Y649724D01*
X378351Y649800D01*
Y648200D01*
X378343Y648276D01*
X378318Y648344D01*
X378278Y648404D01*
X378221Y648456D01*
X378148Y648500D01*
X378058Y648536D01*
X377953Y648564D01*
X377831Y648584D01*
X377704Y648595D01*
X377602Y648583D01*
X377498Y648562D01*
X377396Y648532D01*
X377297Y648493D01*
X377201Y648446D01*
X377107Y648391D01*
X377016Y648327D01*
X376928Y648254D01*
X376844Y648173D01*
Y649827D01*
X376928Y649746D01*
D02*
G37*
G36*
X385842Y647146D02*
X385774Y647121D01*
X385714Y647081D01*
X385662Y647024D01*
X385618Y646951D01*
X385582Y646862D01*
X385554Y646756D01*
X385534Y646634D01*
X385522Y646496D01*
X385518Y646342D01*
X384718D01*
X384714Y646496D01*
X384702Y646634D01*
X384682Y646756D01*
X384654Y646862D01*
X384618Y646951D01*
X384574Y647024D01*
X384522Y647081D01*
X384462Y647121D01*
X384394Y647146D01*
X384318Y647154D01*
X385918D01*
X385842Y647146D01*
D02*
G37*
G36*
X385522Y645602D02*
X385534Y645464D01*
X385554Y645342D01*
X385582Y645237D01*
X385618Y645148D01*
X385662Y645074D01*
X385714Y645018D01*
X385774Y644977D01*
X385842Y644953D01*
X385918Y644944D01*
X384318D01*
X384394Y644953D01*
X384462Y644977D01*
X384522Y645018D01*
X384574Y645074D01*
X384618Y645148D01*
X384654Y645237D01*
X384682Y645342D01*
X384702Y645464D01*
X384714Y645602D01*
X384718Y645756D01*
X385518D01*
X385522Y645602D01*
D02*
G37*
G36*
X377937Y642200D02*
X377929Y642276D01*
X377905Y642344D01*
X377864Y642404D01*
X377807Y642456D01*
X377734Y642500D01*
X377645Y642536D01*
X377539Y642564D01*
X377418Y642584D01*
X377280Y642596D01*
X377125Y642600D01*
Y643400D01*
X377280Y643404D01*
X377418Y643416D01*
X377539Y643436D01*
X377645Y643464D01*
X377734Y643500D01*
X377807Y643544D01*
X377864Y643596D01*
X377905Y643656D01*
X377929Y643724D01*
X377937Y643800D01*
Y642200D01*
D02*
G37*
G36*
X375928Y643746D02*
X376016Y643673D01*
X376107Y643609D01*
X376201Y643554D01*
X376297Y643507D01*
X376396Y643468D01*
X376498Y643438D01*
X376602Y643417D01*
X376710Y643404D01*
X376820Y643400D01*
Y642600D01*
X376710Y642596D01*
X376602Y642583D01*
X376498Y642562D01*
X376396Y642532D01*
X376297Y642493D01*
X376201Y642446D01*
X376107Y642391D01*
X376016Y642327D01*
X375928Y642254D01*
X375844Y642173D01*
Y643827D01*
X375928Y643746D01*
D02*
G37*
G36*
X385724Y641047D02*
X385656Y641023D01*
X385596Y640982D01*
X385544Y640926D01*
X385500Y640852D01*
X385464Y640763D01*
X385436Y640658D01*
X385416Y640536D01*
X385404Y640398D01*
X385400Y640243D01*
X384600D01*
X384596Y640398D01*
X384584Y640536D01*
X384564Y640658D01*
X384536Y640763D01*
X384500Y640852D01*
X384456Y640926D01*
X384404Y640982D01*
X384344Y641023D01*
X384276Y641047D01*
X384200Y641055D01*
X385800D01*
X385724Y641047D01*
D02*
G37*
G36*
X385404Y638177D02*
X385416Y638039D01*
X385436Y637917D01*
X385464Y637812D01*
X385500Y637722D01*
X385544Y637649D01*
X385596Y637592D01*
X385656Y637552D01*
X385724Y637527D01*
X385800Y637519D01*
X384200D01*
X384276Y637527D01*
X384344Y637552D01*
X384404Y637592D01*
X384456Y637649D01*
X384500Y637722D01*
X384536Y637812D01*
X384564Y637917D01*
X384584Y638039D01*
X384596Y638177D01*
X384600Y638331D01*
X385400D01*
X385404Y638177D01*
D02*
G37*
G36*
X445600Y636693D02*
X445688Y636620D01*
X445779Y636556D01*
X445872Y636501D01*
X445968Y636454D01*
X446067Y636415D01*
X446169Y636386D01*
X446274Y636364D01*
X446320Y636359D01*
X446371Y636363D01*
X446492Y636383D01*
X446598Y636411D01*
X446687Y636447D01*
X446760Y636491D01*
X446817Y636543D01*
X446858Y636603D01*
X446882Y636671D01*
X446890Y636747D01*
Y635147D01*
X446882Y635223D01*
X446858Y635291D01*
X446817Y635351D01*
X446760Y635403D01*
X446687Y635447D01*
X446598Y635483D01*
X446492Y635511D01*
X446371Y635531D01*
X446320Y635536D01*
X446274Y635530D01*
X446169Y635509D01*
X446067Y635479D01*
X445968Y635440D01*
X445872Y635394D01*
X445779Y635338D01*
X445688Y635274D01*
X445600Y635202D01*
X445515Y635120D01*
Y636774D01*
X445600Y636693D01*
D02*
G37*
G36*
X335336Y634835D02*
X335328Y634911D01*
X335304Y634979D01*
X335264Y635039D01*
X335208Y635091D01*
X335136Y635135D01*
X335048Y635171D01*
X334944Y635199D01*
X334824Y635219D01*
X334688Y635231D01*
X334536Y635235D01*
Y636035D01*
X334688Y636039D01*
X334824Y636051D01*
X334944Y636071D01*
X335048Y636099D01*
X335136Y636135D01*
X335208Y636179D01*
X335264Y636231D01*
X335304Y636291D01*
X335328Y636359D01*
X335336Y636435D01*
Y634835D01*
D02*
G37*
G36*
X324404Y628504D02*
X324416Y628366D01*
X324436Y628244D01*
X324464Y628138D01*
X324500Y628049D01*
X324544Y627976D01*
X324596Y627919D01*
X324656Y627879D01*
X324724Y627854D01*
X324800Y627846D01*
X323200D01*
X323276Y627854D01*
X323344Y627879D01*
X323404Y627919D01*
X323456Y627976D01*
X323500Y628049D01*
X323536Y628138D01*
X323564Y628244D01*
X323584Y628366D01*
X323596Y628504D01*
X323600Y628658D01*
X324400D01*
X324404Y628504D01*
D02*
G37*
G36*
X332156Y625173D02*
X332071Y625254D01*
X331984Y625327D01*
X331893Y625391D01*
X331800Y625446D01*
X331703Y625493D01*
X331604Y625532D01*
X331502Y625562D01*
X331398Y625583D01*
X331347Y625589D01*
X331291Y625584D01*
X331171Y625564D01*
X331067Y625536D01*
X330979Y625500D01*
X330907Y625456D01*
X330851Y625404D01*
X330811Y625344D01*
X330787Y625276D01*
X330779Y625200D01*
Y626800D01*
X330787Y626724D01*
X330811Y626656D01*
X330851Y626596D01*
X330907Y626544D01*
X330979Y626500D01*
X331067Y626464D01*
X331171Y626436D01*
X331291Y626416D01*
X331347Y626411D01*
X331398Y626417D01*
X331502Y626438D01*
X331604Y626468D01*
X331703Y626507D01*
X331800Y626554D01*
X331893Y626609D01*
X331984Y626673D01*
X332071Y626746D01*
X332156Y626827D01*
Y625173D01*
D02*
G37*
G36*
X324724Y624146D02*
X324656Y624121D01*
X324596Y624081D01*
X324544Y624024D01*
X324500Y623951D01*
X324464Y623862D01*
X324436Y623756D01*
X324416Y623634D01*
X324404Y623496D01*
X324400Y623342D01*
X323600D01*
X323596Y623496D01*
X323584Y623634D01*
X323564Y623756D01*
X323536Y623862D01*
X323500Y623951D01*
X323456Y624024D01*
X323404Y624081D01*
X323344Y624121D01*
X323276Y624146D01*
X323200Y624154D01*
X324800D01*
X324724Y624146D01*
D02*
G37*
G36*
X344404Y621565D02*
X344416Y621429D01*
X344436Y621309D01*
X344464Y621205D01*
X344500Y621117D01*
X344544Y621045D01*
X344596Y620989D01*
X344656Y620949D01*
X344724Y620925D01*
X344800Y620917D01*
X343200D01*
X343276Y620925D01*
X343344Y620949D01*
X343404Y620989D01*
X343456Y621045D01*
X343500Y621117D01*
X343536Y621205D01*
X343564Y621309D01*
X343584Y621429D01*
X343596Y621565D01*
X343600Y621717D01*
X344400D01*
X344404Y621565D01*
D02*
G37*
G36*
X324404D02*
X324416Y621429D01*
X324436Y621309D01*
X324464Y621205D01*
X324500Y621117D01*
X324544Y621045D01*
X324596Y620989D01*
X324656Y620949D01*
X324724Y620925D01*
X324800Y620917D01*
X323200D01*
X323276Y620925D01*
X323344Y620949D01*
X323404Y620989D01*
X323456Y621045D01*
X323500Y621117D01*
X323536Y621205D01*
X323564Y621309D01*
X323584Y621429D01*
X323596Y621565D01*
X323600Y621717D01*
X324400D01*
X324404Y621565D01*
D02*
G37*
G36*
X356154Y620200D02*
X356146Y620276D01*
X356121Y620344D01*
X356081Y620404D01*
X356024Y620456D01*
X355951Y620500D01*
X355862Y620536D01*
X355756Y620564D01*
X355634Y620584D01*
X355496Y620596D01*
X355342Y620600D01*
Y621400D01*
X355496Y621404D01*
X355634Y621416D01*
X355756Y621436D01*
X355862Y621464D01*
X355951Y621500D01*
X356024Y621544D01*
X356081Y621596D01*
X356121Y621656D01*
X356146Y621724D01*
X356154Y621800D01*
Y620200D01*
D02*
G37*
G36*
X353928Y621746D02*
X354016Y621673D01*
X354107Y621609D01*
X354201Y621554D01*
X354297Y621507D01*
X354396Y621468D01*
X354498Y621438D01*
X354602Y621417D01*
X354710Y621404D01*
X354820Y621400D01*
Y620600D01*
X354710Y620596D01*
X354602Y620583D01*
X354498Y620562D01*
X354396Y620532D01*
X354297Y620493D01*
X354201Y620446D01*
X354107Y620391D01*
X354016Y620327D01*
X353928Y620254D01*
X353843Y620173D01*
Y621827D01*
X353928Y621746D01*
D02*
G37*
G36*
X385724Y620158D02*
X385656Y620133D01*
X385596Y620093D01*
X385544Y620036D01*
X385500Y619963D01*
X385464Y619873D01*
X385436Y619768D01*
X385416Y619646D01*
X385404Y619508D01*
X385400Y619354D01*
X384600D01*
X384596Y619508D01*
X384584Y619646D01*
X384564Y619768D01*
X384536Y619873D01*
X384500Y619963D01*
X384456Y620036D01*
X384404Y620093D01*
X384344Y620133D01*
X384276Y620158D01*
X384200Y620166D01*
X385800D01*
X385724Y620158D01*
D02*
G37*
G36*
X356154Y615109D02*
X356146Y615185D01*
X356121Y615253D01*
X356081Y615313D01*
X356024Y615365D01*
X355951Y615410D01*
X355862Y615445D01*
X355756Y615473D01*
X355634Y615493D01*
X355496Y615506D01*
X355342Y615510D01*
Y616309D01*
X355496Y616314D01*
X355634Y616326D01*
X355756Y616345D01*
X355862Y616373D01*
X355951Y616409D01*
X356024Y616453D01*
X356081Y616505D01*
X356121Y616565D01*
X356146Y616633D01*
X356154Y616710D01*
Y615109D01*
D02*
G37*
G36*
X348807Y616633D02*
X348831Y616565D01*
X348872Y616505D01*
X348929Y616453D01*
X349002Y616409D01*
X349091Y616373D01*
X349197Y616345D01*
X349319Y616326D01*
X349457Y616314D01*
X349611Y616309D01*
Y615510D01*
X349457Y615506D01*
X349319Y615493D01*
X349197Y615473D01*
X349091Y615445D01*
X349002Y615410D01*
X348929Y615365D01*
X348872Y615313D01*
X348831Y615253D01*
X348807Y615185D01*
X348799Y615109D01*
Y616710D01*
X348807Y616633D01*
D02*
G37*
G36*
X442451Y607038D02*
X442538Y606966D01*
X442629Y606902D01*
X442723Y606846D01*
X442819Y606799D01*
X442918Y606761D01*
X443020Y606731D01*
X443124Y606710D01*
X443170Y606704D01*
X443221Y606709D01*
X443343Y606729D01*
X443448Y606757D01*
X443538Y606793D01*
X443611Y606837D01*
X443668Y606889D01*
X443708Y606949D01*
X443732Y607017D01*
X443741Y607093D01*
Y605493D01*
X443732Y605569D01*
X443708Y605637D01*
X443668Y605697D01*
X443611Y605749D01*
X443538Y605793D01*
X443448Y605829D01*
X443343Y605857D01*
X443221Y605877D01*
X443170Y605881D01*
X443124Y605876D01*
X443020Y605854D01*
X442918Y605824D01*
X442819Y605786D01*
X442723Y605739D01*
X442629Y605684D01*
X442538Y605619D01*
X442451Y605547D01*
X442366Y605466D01*
Y607119D01*
X442451Y607038D01*
D02*
G37*
G36*
X416182Y602271D02*
X416173Y602347D01*
X416149Y602415D01*
X416108Y602475D01*
X416052Y602527D01*
X415978Y602571D01*
X415889Y602607D01*
X415784Y602635D01*
X415662Y602655D01*
X415524Y602667D01*
X415370Y602671D01*
Y603471D01*
X415524Y603475D01*
X415662Y603487D01*
X415784Y603507D01*
X415889Y603535D01*
X415978Y603571D01*
X416052Y603615D01*
X416108Y603667D01*
X416149Y603727D01*
X416173Y603795D01*
X416182Y603871D01*
Y602271D01*
D02*
G37*
G36*
X389484Y603795D02*
X389509Y603727D01*
X389549Y603667D01*
X389606Y603615D01*
X389679Y603571D01*
X389768Y603535D01*
X389874Y603507D01*
X389996Y603487D01*
X390134Y603475D01*
X390288Y603471D01*
Y602671D01*
X390134Y602667D01*
X389996Y602655D01*
X389874Y602635D01*
X389768Y602607D01*
X389679Y602571D01*
X389606Y602527D01*
X389549Y602475D01*
X389509Y602415D01*
X389484Y602347D01*
X389476Y602271D01*
Y603871D01*
X389484Y603795D01*
D02*
G37*
G36*
X358156Y599173D02*
X358071Y599254D01*
X357984Y599327D01*
X357893Y599391D01*
X357800Y599446D01*
X357703Y599493D01*
X357604Y599532D01*
X357502Y599562D01*
X357398Y599583D01*
X357290Y599596D01*
X357180Y599600D01*
Y600400D01*
X357290Y600404D01*
X357398Y600417D01*
X357502Y600438D01*
X357604Y600468D01*
X357703Y600507D01*
X357800Y600554D01*
X357893Y600609D01*
X357984Y600673D01*
X358071Y600746D01*
X358156Y600827D01*
Y599173D01*
D02*
G37*
G36*
X380724Y599754D02*
X380656Y599730D01*
X380596Y599690D01*
X380544Y599634D01*
X380500Y599562D01*
X380464Y599474D01*
X380436Y599370D01*
X380416Y599250D01*
X380404Y599114D01*
X380400Y598962D01*
X379600D01*
X379596Y599114D01*
X379584Y599250D01*
X379564Y599370D01*
X379536Y599474D01*
X379500Y599562D01*
X379456Y599634D01*
X379404Y599690D01*
X379344Y599730D01*
X379276Y599754D01*
X379200Y599762D01*
X380800D01*
X380724Y599754D01*
D02*
G37*
G36*
X329659Y597184D02*
X329455Y596974D01*
X328999Y596435D01*
X328900Y596286D01*
X328827Y596152D01*
X328781Y596034D01*
X328760Y595931D01*
X328766Y595843D01*
X328799Y595770D01*
X327876Y597086D01*
X327929Y597033D01*
X327995Y597005D01*
X328074Y597002D01*
X328167Y597022D01*
X328273Y597068D01*
X328393Y597138D01*
X328526Y597233D01*
X328673Y597352D01*
X329008Y597664D01*
X329659Y597184D01*
D02*
G37*
G36*
X380404Y597504D02*
X380416Y597366D01*
X380436Y597244D01*
X380464Y597138D01*
X380500Y597049D01*
X380544Y596976D01*
X380596Y596919D01*
X380656Y596879D01*
X380724Y596854D01*
X380800Y596846D01*
X379200D01*
X379276Y596854D01*
X379344Y596879D01*
X379404Y596919D01*
X379456Y596976D01*
X379500Y597049D01*
X379536Y597138D01*
X379564Y597244D01*
X379584Y597366D01*
X379596Y597504D01*
X379600Y597658D01*
X380400D01*
X380404Y597504D01*
D02*
G37*
G36*
X348807Y594724D02*
X348831Y594656D01*
X348872Y594596D01*
X348929Y594544D01*
X349002Y594500D01*
X349091Y594464D01*
X349197Y594436D01*
X349319Y594416D01*
X349457Y594404D01*
X349611Y594400D01*
Y593600D01*
X349457Y593596D01*
X349319Y593584D01*
X349197Y593564D01*
X349091Y593536D01*
X349002Y593500D01*
X348929Y593456D01*
X348872Y593404D01*
X348831Y593344D01*
X348807Y593276D01*
X348799Y593200D01*
Y594800D01*
X348807Y594724D01*
D02*
G37*
G36*
X360538Y593173D02*
X360453Y593254D01*
X360365Y593327D01*
X360274Y593391D01*
X360181Y593446D01*
X360084Y593493D01*
X359985Y593532D01*
X359883Y593562D01*
X359779Y593583D01*
X359671Y593596D01*
X359561Y593600D01*
Y594400D01*
X359671Y594404D01*
X359779Y594417D01*
X359883Y594438D01*
X359985Y594468D01*
X360084Y594507D01*
X360181Y594554D01*
X360274Y594609D01*
X360365Y594673D01*
X360453Y594746D01*
X360538Y594827D01*
Y593173D01*
D02*
G37*
G36*
X385842Y593146D02*
X385774Y593121D01*
X385714Y593081D01*
X385662Y593024D01*
X385618Y592951D01*
X385582Y592862D01*
X385554Y592756D01*
X385534Y592634D01*
X385522Y592496D01*
X385518Y592342D01*
X384718D01*
X384714Y592496D01*
X384702Y592634D01*
X384682Y592756D01*
X384654Y592862D01*
X384618Y592951D01*
X384574Y593024D01*
X384522Y593081D01*
X384462Y593121D01*
X384394Y593146D01*
X384318Y593154D01*
X385918D01*
X385842Y593146D01*
D02*
G37*
G36*
X385522Y591504D02*
X385534Y591366D01*
X385554Y591244D01*
X385582Y591138D01*
X385618Y591049D01*
X385662Y590976D01*
X385714Y590919D01*
X385774Y590879D01*
X385842Y590854D01*
X385918Y590846D01*
X384318D01*
X384394Y590854D01*
X384462Y590879D01*
X384522Y590919D01*
X384574Y590976D01*
X384618Y591049D01*
X384654Y591138D01*
X384682Y591244D01*
X384702Y591366D01*
X384714Y591504D01*
X384718Y591658D01*
X385518D01*
X385522Y591504D01*
D02*
G37*
G36*
X377125Y589746D02*
X377213Y589673D01*
X377304Y589609D01*
X377397Y589554D01*
X377494Y589507D01*
X377593Y589468D01*
X377695Y589438D01*
X377764Y589424D01*
X377835Y589436D01*
X377940Y589464D01*
X378030Y589500D01*
X378103Y589544D01*
X378160Y589596D01*
X378200Y589656D01*
X378224Y589724D01*
X378233Y589800D01*
Y588200D01*
X378224Y588276D01*
X378200Y588344D01*
X378160Y588404D01*
X378103Y588456D01*
X378030Y588500D01*
X377940Y588536D01*
X377835Y588564D01*
X377764Y588576D01*
X377695Y588562D01*
X377593Y588532D01*
X377494Y588493D01*
X377397Y588446D01*
X377304Y588391D01*
X377213Y588327D01*
X377125Y588254D01*
X377040Y588173D01*
Y589827D01*
X377125Y589746D01*
D02*
G37*
G36*
X385842Y587146D02*
X385774Y587121D01*
X385714Y587081D01*
X385662Y587024D01*
X385618Y586951D01*
X385582Y586862D01*
X385554Y586756D01*
X385534Y586634D01*
X385522Y586496D01*
X385518Y586342D01*
X384718D01*
X384714Y586496D01*
X384702Y586634D01*
X384682Y586756D01*
X384654Y586862D01*
X384618Y586951D01*
X384574Y587024D01*
X384522Y587081D01*
X384462Y587121D01*
X384394Y587146D01*
X384318Y587154D01*
X385918D01*
X385842Y587146D01*
D02*
G37*
G36*
X385522Y585602D02*
X385534Y585464D01*
X385554Y585342D01*
X385582Y585237D01*
X385618Y585147D01*
X385662Y585074D01*
X385714Y585018D01*
X385774Y584977D01*
X385842Y584953D01*
X385918Y584944D01*
X384318D01*
X384394Y584953D01*
X384462Y584977D01*
X384522Y585018D01*
X384574Y585074D01*
X384618Y585147D01*
X384654Y585237D01*
X384682Y585342D01*
X384702Y585464D01*
X384714Y585602D01*
X384718Y585756D01*
X385518D01*
X385522Y585602D01*
D02*
G37*
G36*
X371554Y584597D02*
X371522Y584579D01*
X371494Y584549D01*
X371469Y584506D01*
X371448Y584452D01*
X371430Y584386D01*
X371417Y584307D01*
X371408Y584217D01*
X371400Y584000D01*
X370600D01*
X370598Y584115D01*
X370583Y584307D01*
X370569Y584386D01*
X370552Y584452D01*
X370531Y584506D01*
X370507Y584549D01*
X370478Y584579D01*
X370445Y584597D01*
X370409Y584603D01*
X371591D01*
X371554Y584597D01*
D02*
G37*
G36*
X359524Y584595D02*
X359456Y584570D01*
X359396Y584530D01*
X359344Y584473D01*
X359300Y584400D01*
X359264Y584310D01*
X359236Y584205D01*
X359216Y584083D01*
X359204Y583945D01*
X359200Y583791D01*
X358400D01*
X358396Y583945D01*
X358384Y584083D01*
X358364Y584205D01*
X358336Y584310D01*
X358300Y584400D01*
X358256Y584473D01*
X358204Y584530D01*
X358144Y584570D01*
X358076Y584595D01*
X358000Y584603D01*
X359600D01*
X359524Y584595D01*
D02*
G37*
G36*
X376928Y583746D02*
X377016Y583673D01*
X377107Y583609D01*
X377201Y583554D01*
X377297Y583507D01*
X377396Y583468D01*
X377498Y583438D01*
X377523Y583433D01*
X377539Y583436D01*
X377645Y583464D01*
X377734Y583500D01*
X377807Y583544D01*
X377864Y583596D01*
X377905Y583656D01*
X377929Y583724D01*
X377937Y583800D01*
Y582200D01*
X377929Y582276D01*
X377905Y582344D01*
X377864Y582404D01*
X377807Y582456D01*
X377734Y582500D01*
X377645Y582536D01*
X377539Y582564D01*
X377523Y582567D01*
X377498Y582562D01*
X377396Y582532D01*
X377297Y582493D01*
X377201Y582446D01*
X377107Y582391D01*
X377016Y582327D01*
X376928Y582254D01*
X376844Y582173D01*
Y583827D01*
X376928Y583746D01*
D02*
G37*
G36*
X341774Y581856D02*
X341706Y581832D01*
X341646Y581791D01*
X341594Y581734D01*
X341550Y581661D01*
X341514Y581572D01*
X341486Y581466D01*
X341466Y581345D01*
X341454Y581206D01*
X341450Y581052D01*
X340650D01*
X340646Y581206D01*
X340634Y581345D01*
X340614Y581466D01*
X340586Y581572D01*
X340550Y581661D01*
X340506Y581734D01*
X340454Y581791D01*
X340394Y581832D01*
X340326Y581856D01*
X340250Y581864D01*
X341850D01*
X341774Y581856D01*
D02*
G37*
G36*
X339037Y581852D02*
X338992Y581844D01*
X338952Y581820D01*
X338916Y581780D01*
X338885Y581724D01*
X338859Y581652D01*
X338838Y581564D01*
X338821Y581460D01*
X338809Y581340D01*
X338800Y581052D01*
X338000D01*
X337996Y581206D01*
X337984Y581343D01*
X337964Y581465D01*
X337936Y581570D01*
X337900Y581660D01*
X337856Y581733D01*
X337804Y581790D01*
X337744Y581831D01*
X337676Y581855D01*
X337600Y581864D01*
X339037Y581852D01*
D02*
G37*
G36*
X385724Y581047D02*
X385656Y581023D01*
X385596Y580982D01*
X385544Y580926D01*
X385500Y580853D01*
X385464Y580763D01*
X385436Y580658D01*
X385416Y580536D01*
X385404Y580398D01*
X385400Y580243D01*
X384600D01*
X384596Y580398D01*
X384584Y580536D01*
X384564Y580658D01*
X384536Y580763D01*
X384500Y580853D01*
X384456Y580926D01*
X384404Y580982D01*
X384344Y581023D01*
X384276Y581047D01*
X384200Y581055D01*
X385800D01*
X385724Y581047D01*
D02*
G37*
G36*
X361803Y580536D02*
X361826Y580280D01*
X361846Y580176D01*
X361872Y580088D01*
X361904Y580016D01*
X361941Y579960D01*
X361984Y579920D01*
X362033Y579896D01*
X362088Y579888D01*
X360712D01*
X360767Y579896D01*
X360816Y579920D01*
X360859Y579960D01*
X360896Y580016D01*
X360928Y580088D01*
X360954Y580176D01*
X360974Y580280D01*
X360988Y580400D01*
X360997Y580536D01*
X361000Y580688D01*
X361800D01*
X361803Y580536D01*
D02*
G37*
G36*
X359203D02*
X359226Y580280D01*
X359246Y580176D01*
X359272Y580088D01*
X359304Y580016D01*
X359341Y579960D01*
X359384Y579920D01*
X359433Y579896D01*
X359488Y579888D01*
X358112D01*
X358167Y579896D01*
X358216Y579920D01*
X358259Y579960D01*
X358296Y580016D01*
X358328Y580088D01*
X358354Y580176D01*
X358374Y580280D01*
X358388Y580400D01*
X358397Y580536D01*
X358400Y580688D01*
X359200D01*
X359203Y580536D01*
D02*
G37*
G36*
X338803D02*
X338826Y580280D01*
X338846Y580176D01*
X338872Y580088D01*
X338904Y580016D01*
X338941Y579960D01*
X338984Y579920D01*
X339033Y579896D01*
X339088Y579888D01*
X337712D01*
X337767Y579896D01*
X337816Y579920D01*
X337859Y579960D01*
X337896Y580016D01*
X337928Y580088D01*
X337954Y580176D01*
X337974Y580280D01*
X337988Y580400D01*
X337997Y580536D01*
X338000Y580688D01*
X338800D01*
X338803Y580536D01*
D02*
G37*
G36*
X341451D02*
X341484Y580088D01*
X341500Y580016D01*
X341518Y579960D01*
X341538Y579920D01*
X341562Y579896D01*
X341588Y579888D01*
X340250Y579876D01*
X340326Y579885D01*
X340394Y579910D01*
X340454Y579951D01*
X340506Y580008D01*
X340550Y580081D01*
X340586Y580170D01*
X340614Y580275D01*
X340634Y580397D01*
X340646Y580534D01*
X340650Y580688D01*
X341450D01*
X341451Y580536D01*
D02*
G37*
G36*
X445600Y579086D02*
X445688Y579013D01*
X445779Y578949D01*
X445872Y578894D01*
X445968Y578847D01*
X446067Y578808D01*
X446169Y578778D01*
X446274Y578757D01*
X446320Y578752D01*
X446371Y578756D01*
X446492Y578776D01*
X446598Y578804D01*
X446687Y578840D01*
X446760Y578884D01*
X446817Y578936D01*
X446858Y578996D01*
X446882Y579064D01*
X446890Y579140D01*
Y577540D01*
X446882Y577616D01*
X446858Y577684D01*
X446817Y577744D01*
X446760Y577796D01*
X446687Y577840D01*
X446598Y577876D01*
X446492Y577904D01*
X446371Y577924D01*
X446320Y577928D01*
X446274Y577923D01*
X446169Y577902D01*
X446067Y577872D01*
X445968Y577833D01*
X445872Y577786D01*
X445779Y577731D01*
X445688Y577667D01*
X445600Y577594D01*
X445515Y577513D01*
Y579167D01*
X445600Y579086D01*
D02*
G37*
G36*
X373511Y576226D02*
X373426Y576307D01*
X373338Y576380D01*
X373248Y576444D01*
X373154Y576499D01*
X373058Y576546D01*
X372959Y576584D01*
X372857Y576614D01*
X372771Y576632D01*
X372680Y576617D01*
X372576Y576589D01*
X372488Y576553D01*
X372416Y576509D01*
X372360Y576457D01*
X372320Y576397D01*
X372296Y576329D01*
X372288Y576253D01*
Y577853D01*
X372296Y577777D01*
X372320Y577709D01*
X372360Y577649D01*
X372416Y577597D01*
X372488Y577553D01*
X372576Y577517D01*
X372680Y577489D01*
X372771Y577473D01*
X372857Y577491D01*
X372959Y577521D01*
X373058Y577559D01*
X373154Y577606D01*
X373248Y577662D01*
X373338Y577726D01*
X373426Y577798D01*
X373511Y577879D01*
Y576226D01*
D02*
G37*
G36*
X320624Y577660D02*
X320556Y577636D01*
X320496Y577595D01*
X320444Y577538D01*
X320400Y577465D01*
X320364Y577376D01*
X320336Y577270D01*
X320316Y577148D01*
X320304Y577010D01*
X320300Y576856D01*
X319500D01*
X319496Y577010D01*
X319484Y577148D01*
X319464Y577270D01*
X319436Y577376D01*
X319400Y577465D01*
X319356Y577538D01*
X319304Y577595D01*
X319244Y577636D01*
X319176Y577660D01*
X319100Y577668D01*
X320700D01*
X320624Y577660D01*
D02*
G37*
G36*
X382268Y574932D02*
X382260Y575008D01*
X382236Y575076D01*
X382195Y575136D01*
X382138Y575188D01*
X382065Y575232D01*
X381976Y575268D01*
X381870Y575296D01*
X381748Y575316D01*
X381610Y575328D01*
X381456Y575332D01*
Y576132D01*
X381610Y576136D01*
X381748Y576148D01*
X381870Y576168D01*
X381976Y576196D01*
X382065Y576232D01*
X382138Y576276D01*
X382195Y576328D01*
X382236Y576388D01*
X382260Y576456D01*
X382268Y576532D01*
Y574932D01*
D02*
G37*
G36*
X380244Y576456D02*
X380268Y576388D01*
X380309Y576328D01*
X380366Y576276D01*
X380439Y576232D01*
X380528Y576196D01*
X380634Y576168D01*
X380755Y576148D01*
X380894Y576136D01*
X381048Y576132D01*
Y575332D01*
X380894Y575328D01*
X380755Y575316D01*
X380634Y575296D01*
X380528Y575268D01*
X380439Y575232D01*
X380366Y575188D01*
X380309Y575136D01*
X380268Y575076D01*
X380244Y575008D01*
X380236Y574932D01*
Y576532D01*
X380244Y576456D01*
D02*
G37*
G36*
X377764Y574932D02*
X377756Y575008D01*
X377732Y575076D01*
X377691Y575136D01*
X377634Y575188D01*
X377561Y575232D01*
X377472Y575268D01*
X377366Y575296D01*
X377244Y575316D01*
X377106Y575328D01*
X376952Y575332D01*
Y576132D01*
X377106Y576136D01*
X377244Y576148D01*
X377366Y576168D01*
X377472Y576196D01*
X377561Y576232D01*
X377634Y576276D01*
X377691Y576328D01*
X377732Y576388D01*
X377756Y576456D01*
X377764Y576532D01*
Y574932D01*
D02*
G37*
G36*
X320304Y574623D02*
X320316Y574487D01*
X320336Y574367D01*
X320364Y574263D01*
X320400Y574175D01*
X320444Y574103D01*
X320496Y574047D01*
X320556Y574007D01*
X320624Y573983D01*
X320700Y573975D01*
X319100D01*
X319176Y573983D01*
X319244Y574007D01*
X319304Y574047D01*
X319356Y574103D01*
X319400Y574175D01*
X319436Y574263D01*
X319464Y574367D01*
X319484Y574487D01*
X319496Y574623D01*
X319500Y574775D01*
X320300D01*
X320304Y574623D01*
D02*
G37*
G36*
X369733Y574104D02*
X369684Y574080D01*
X369641Y574040D01*
X369604Y573984D01*
X369572Y573912D01*
X369546Y573824D01*
X369526Y573720D01*
X369512Y573600D01*
X369503Y573464D01*
X369500Y573312D01*
X368700D01*
X368697Y573464D01*
X368674Y573720D01*
X368654Y573824D01*
X368628Y573912D01*
X368596Y573984D01*
X368559Y574040D01*
X368516Y574080D01*
X368467Y574104D01*
X368412Y574112D01*
X369788D01*
X369733Y574104D01*
D02*
G37*
G36*
X351833D02*
X351784Y574080D01*
X351741Y574040D01*
X351704Y573984D01*
X351672Y573912D01*
X351646Y573824D01*
X351626Y573720D01*
X351611Y573600D01*
X351603Y573464D01*
X351600Y573312D01*
X350800D01*
X350797Y573464D01*
X350774Y573720D01*
X350754Y573824D01*
X350728Y573912D01*
X350696Y573984D01*
X350659Y574040D01*
X350616Y574080D01*
X350567Y574104D01*
X350512Y574112D01*
X351888D01*
X351833Y574104D01*
D02*
G37*
G36*
X349233D02*
X349184Y574080D01*
X349141Y574040D01*
X349104Y573984D01*
X349072Y573912D01*
X349046Y573824D01*
X349026Y573720D01*
X349011Y573600D01*
X349003Y573464D01*
X349000Y573312D01*
X348200D01*
X348197Y573464D01*
X348174Y573720D01*
X348154Y573824D01*
X348128Y573912D01*
X348096Y573984D01*
X348059Y574040D01*
X348016Y574080D01*
X347967Y574104D01*
X347912Y574112D01*
X349288D01*
X349233Y574104D01*
D02*
G37*
G36*
X346633D02*
X346584Y574080D01*
X346541Y574040D01*
X346504Y573984D01*
X346472Y573912D01*
X346446Y573824D01*
X346426Y573720D01*
X346411Y573600D01*
X346403Y573464D01*
X346400Y573312D01*
X345600D01*
X345597Y573464D01*
X345574Y573720D01*
X345554Y573824D01*
X345528Y573912D01*
X345496Y573984D01*
X345459Y574040D01*
X345416Y574080D01*
X345367Y574104D01*
X345312Y574112D01*
X346688D01*
X346633Y574104D01*
D02*
G37*
G36*
X344133D02*
X344084Y574080D01*
X344041Y574040D01*
X344004Y573984D01*
X343972Y573912D01*
X343946Y573824D01*
X343926Y573720D01*
X343912Y573600D01*
X343903Y573464D01*
X343900Y573312D01*
X343100D01*
X343097Y573464D01*
X343074Y573720D01*
X343054Y573824D01*
X343028Y573912D01*
X342996Y573984D01*
X342959Y574040D01*
X342916Y574080D01*
X342867Y574104D01*
X342812Y574112D01*
X344188D01*
X344133Y574104D01*
D02*
G37*
G36*
X341533D02*
X341484Y574080D01*
X341441Y574040D01*
X341404Y573984D01*
X341372Y573912D01*
X341346Y573824D01*
X341326Y573720D01*
X341321Y573681D01*
X341338Y573598D01*
X341368Y573496D01*
X341407Y573397D01*
X341454Y573301D01*
X341509Y573207D01*
X341573Y573116D01*
X341646Y573029D01*
X341727Y572943D01*
X340073D01*
X340154Y573029D01*
X340227Y573116D01*
X340291Y573207D01*
X340346Y573301D01*
X340393Y573397D01*
X340432Y573496D01*
X340462Y573598D01*
X340478Y573678D01*
X340474Y573720D01*
X340454Y573824D01*
X340428Y573912D01*
X340396Y573984D01*
X340359Y574040D01*
X340316Y574080D01*
X340267Y574104D01*
X340212Y574112D01*
X341588D01*
X341533Y574104D01*
D02*
G37*
G36*
X379724Y571091D02*
X379656Y571067D01*
X379596Y571027D01*
X379544Y570971D01*
X379500Y570899D01*
X379464Y570811D01*
X379436Y570707D01*
X379418Y570598D01*
X379438Y570498D01*
X379468Y570396D01*
X379507Y570297D01*
X379554Y570200D01*
X379609Y570107D01*
X379673Y570016D01*
X379746Y569929D01*
X379827Y569843D01*
X378173D01*
X378254Y569929D01*
X378327Y570016D01*
X378391Y570107D01*
X378446Y570200D01*
X378493Y570297D01*
X378532Y570396D01*
X378562Y570498D01*
X378582Y570598D01*
X378564Y570707D01*
X378536Y570811D01*
X378500Y570899D01*
X378456Y570971D01*
X378404Y571027D01*
X378344Y571067D01*
X378276Y571091D01*
X378200Y571099D01*
X379800D01*
X379724Y571091D01*
D02*
G37*
G36*
X320392Y568491D02*
X320328Y568468D01*
X320271Y568428D01*
X320223Y568373D01*
X320181Y568302D01*
X320148Y568216D01*
X320122Y568114D01*
X320103Y567996D01*
X320092Y567862D01*
X320088Y567712D01*
X319288D01*
X319284Y567862D01*
X319273Y567996D01*
X319254Y568114D01*
X319228Y568216D01*
X319194Y568302D01*
X319153Y568373D01*
X319104Y568428D01*
X319048Y568468D01*
X318984Y568491D01*
X318913Y568499D01*
X320463D01*
X320392Y568491D01*
D02*
G37*
G36*
X333265Y567824D02*
X333290Y567756D01*
X333330Y567696D01*
X333387Y567644D01*
X333460Y567600D01*
X333549Y567564D01*
X333655Y567536D01*
X333777Y567516D01*
X333915Y567504D01*
X334069Y567500D01*
Y566700D01*
X333915Y566696D01*
X333777Y566684D01*
X333655Y566664D01*
X333549Y566636D01*
X333460Y566600D01*
X333387Y566556D01*
X333330Y566504D01*
X333290Y566444D01*
X333265Y566376D01*
X333257Y566300D01*
Y567900D01*
X333265Y567824D01*
D02*
G37*
G36*
X330943Y566200D02*
X330935Y566276D01*
X330910Y566344D01*
X330870Y566404D01*
X330813Y566456D01*
X330740Y566500D01*
X330651Y566536D01*
X330545Y566564D01*
X330423Y566584D01*
X330285Y566596D01*
X330131Y566600D01*
Y567400D01*
X330285Y567404D01*
X330423Y567416D01*
X330545Y567436D01*
X330651Y567464D01*
X330740Y567500D01*
X330813Y567544D01*
X330870Y567596D01*
X330910Y567656D01*
X330935Y567724D01*
X330943Y567800D01*
Y566200D01*
D02*
G37*
G36*
X363546Y566971D02*
X363473Y566884D01*
X363409Y566793D01*
X363354Y566700D01*
X363307Y566603D01*
X363268Y566504D01*
X363238Y566402D01*
X363217Y566298D01*
X363204Y566190D01*
X363200Y566080D01*
X362400D01*
X362396Y566190D01*
X362383Y566298D01*
X362362Y566402D01*
X362332Y566504D01*
X362293Y566603D01*
X362246Y566700D01*
X362191Y566793D01*
X362127Y566884D01*
X362054Y566971D01*
X361973Y567057D01*
X363627D01*
X363546Y566971D01*
D02*
G37*
G36*
X385724Y565146D02*
X385656Y565122D01*
X385596Y565082D01*
X385544Y565026D01*
X385500Y564954D01*
X385464Y564866D01*
X385436Y564762D01*
X385416Y564642D01*
X385414Y564624D01*
X385417Y564602D01*
X385438Y564498D01*
X385468Y564396D01*
X385507Y564297D01*
X385554Y564200D01*
X385609Y564107D01*
X385673Y564016D01*
X385746Y563929D01*
X385827Y563843D01*
X384173D01*
X384254Y563929D01*
X384327Y564016D01*
X384391Y564107D01*
X384446Y564200D01*
X384493Y564297D01*
X384532Y564396D01*
X384562Y564498D01*
X384583Y564602D01*
X384586Y564624D01*
X384584Y564642D01*
X384564Y564762D01*
X384536Y564866D01*
X384500Y564954D01*
X384456Y565026D01*
X384404Y565082D01*
X384344Y565122D01*
X384276Y565146D01*
X384200Y565154D01*
X385800D01*
X385724Y565146D01*
D02*
G37*
G36*
X360488Y563054D02*
X360371Y563022D01*
X360151Y562945D01*
X360048Y562899D01*
X359949Y562849D01*
X359854Y562795D01*
X359764Y562736D01*
X359678Y562672D01*
X359597Y562604D01*
X359520Y562532D01*
X358795Y562938D01*
X358872Y563022D01*
X358938Y563108D01*
X358992Y563197D01*
X359035Y563288D01*
X359068Y563382D01*
X359088Y563479D01*
X359098Y563578D01*
X359097Y563679D01*
X359084Y563783D01*
X359060Y563890D01*
X360488Y563054D01*
D02*
G37*
G36*
X330943Y561770D02*
X330935Y561846D01*
X330910Y561914D01*
X330870Y561974D01*
X330813Y562026D01*
X330740Y562070D01*
X330651Y562106D01*
X330545Y562134D01*
X330423Y562154D01*
X330285Y562166D01*
X330131Y562170D01*
Y562970D01*
X330285Y562974D01*
X330423Y562986D01*
X330545Y563006D01*
X330651Y563034D01*
X330740Y563070D01*
X330813Y563114D01*
X330870Y563166D01*
X330910Y563226D01*
X330935Y563294D01*
X330943Y563370D01*
Y561770D01*
D02*
G37*
G36*
X328727Y563294D02*
X328751Y563226D01*
X328792Y563166D01*
X328849Y563114D01*
X328922Y563070D01*
X329011Y563034D01*
X329117Y563006D01*
X329239Y562986D01*
X329377Y562974D01*
X329531Y562970D01*
Y562170D01*
X329377Y562166D01*
X329239Y562154D01*
X329117Y562134D01*
X329011Y562106D01*
X328922Y562070D01*
X328849Y562026D01*
X328792Y561974D01*
X328751Y561914D01*
X328727Y561846D01*
X328719Y561770D01*
Y563370D01*
X328727Y563294D01*
D02*
G37*
G36*
X333265Y563124D02*
X333290Y563056D01*
X333330Y562996D01*
X333387Y562944D01*
X333460Y562900D01*
X333549Y562864D01*
X333655Y562836D01*
X333777Y562816D01*
X333915Y562804D01*
X334069Y562800D01*
Y562000D01*
X333915Y561996D01*
X333777Y561984D01*
X333655Y561964D01*
X333549Y561936D01*
X333460Y561900D01*
X333387Y561856D01*
X333330Y561804D01*
X333290Y561744D01*
X333265Y561676D01*
X333257Y561600D01*
Y563200D01*
X333265Y563124D01*
D02*
G37*
G36*
X385746Y562072D02*
X385673Y561984D01*
X385609Y561893D01*
X385554Y561799D01*
X385507Y561703D01*
X385468Y561604D01*
X385438Y561502D01*
X385417Y561398D01*
X385404Y561290D01*
X385404Y561290D01*
X385416Y561155D01*
X385436Y561033D01*
X385464Y560927D01*
X385500Y560838D01*
X385544Y560765D01*
X385596Y560708D01*
X385656Y560668D01*
X385724Y560643D01*
X385800Y560635D01*
X384200D01*
X384276Y560643D01*
X384344Y560668D01*
X384404Y560708D01*
X384456Y560765D01*
X384500Y560838D01*
X384536Y560927D01*
X384564Y561033D01*
X384584Y561155D01*
X384596Y561290D01*
X384596Y561290D01*
X384583Y561398D01*
X384562Y561502D01*
X384532Y561604D01*
X384493Y561703D01*
X384446Y561799D01*
X384391Y561893D01*
X384327Y561984D01*
X384254Y562072D01*
X384173Y562156D01*
X385827D01*
X385746Y562072D01*
D02*
G37*
G36*
X327105Y559830D02*
X327037Y559805D01*
X326977Y559765D01*
X326925Y559708D01*
X326881Y559635D01*
X326845Y559545D01*
X326817Y559440D01*
X326797Y559318D01*
X326785Y559180D01*
X326781Y559026D01*
X325981D01*
X325977Y559180D01*
X325965Y559318D01*
X325945Y559440D01*
X325917Y559545D01*
X325881Y559635D01*
X325837Y559708D01*
X325785Y559765D01*
X325725Y559805D01*
X325657Y559830D01*
X325581Y559838D01*
X327181D01*
X327105Y559830D01*
D02*
G37*
G36*
X326785Y556790D02*
X326797Y556652D01*
X326817Y556530D01*
X326845Y556424D01*
X326881Y556335D01*
X326925Y556262D01*
X326977Y556205D01*
X327037Y556164D01*
X327105Y556140D01*
X327181Y556132D01*
X325581D01*
X325657Y556140D01*
X325725Y556164D01*
X325785Y556205D01*
X325837Y556262D01*
X325881Y556335D01*
X325917Y556424D01*
X325945Y556530D01*
X325965Y556652D01*
X325977Y556790D01*
X325981Y556944D01*
X326781D01*
X326785Y556790D01*
D02*
G37*
G36*
X339146Y552671D02*
X339073Y552584D01*
X339009Y552493D01*
X338954Y552399D01*
X338907Y552303D01*
X338868Y552204D01*
X338838Y552102D01*
X338817Y551998D01*
X338804Y551890D01*
X338800Y551780D01*
X338000D01*
X337996Y551890D01*
X337983Y551998D01*
X337962Y552102D01*
X337932Y552204D01*
X337893Y552303D01*
X337846Y552399D01*
X337791Y552493D01*
X337727Y552584D01*
X337654Y552671D01*
X337573Y552757D01*
X339227D01*
X339146Y552671D01*
D02*
G37*
G36*
X355184Y582321D02*
Y580900D01*
X354200D01*
Y577000D01*
Y574112D01*
X354388D01*
X354333Y574104D01*
X354284Y574080D01*
X354241Y574040D01*
X354204Y573984D01*
X354200Y573976D01*
Y573414D01*
X354207Y573397D01*
X354254Y573301D01*
X354309Y573207D01*
X354373Y573116D01*
X354387Y573100D01*
X355184D01*
Y571379D01*
X353352Y569548D01*
X353154Y569251D01*
X353084Y568900D01*
Y554537D01*
X352600Y554123D01*
X349800D01*
X349332Y554030D01*
X348935Y553765D01*
X347735Y552565D01*
X347470Y552168D01*
X347376Y551700D01*
X340066D01*
X340023Y551720D01*
X340008Y551729D01*
X339993Y551740D01*
X339971Y551758D01*
X339940Y551790D01*
X339906Y551837D01*
X339889Y551871D01*
X339817Y552194D01*
X339855Y552253D01*
X340079Y552478D01*
X340381Y553206D01*
Y553994D01*
X340181Y554476D01*
X340478Y554977D01*
X344063D01*
X344531Y555070D01*
X344928Y555335D01*
X352065Y562472D01*
X352330Y562869D01*
X352424Y563337D01*
Y573100D01*
X353013D01*
X353027Y573116D01*
X353091Y573207D01*
X353146Y573301D01*
X353193Y573397D01*
X353200Y573414D01*
Y573976D01*
X353196Y573984D01*
X353159Y574040D01*
X353116Y574080D01*
X353067Y574104D01*
X353012Y574112D01*
X353200D01*
Y577000D01*
Y580900D01*
X352000D01*
Y580700D01*
X343672D01*
X343313Y581040D01*
Y585160D01*
X343803Y585184D01*
X352321D01*
X355184Y582321D01*
D02*
G37*
G36*
X361803Y551536D02*
X361826Y551280D01*
X361846Y551176D01*
X361872Y551088D01*
X361904Y551016D01*
X361941Y550960D01*
X361984Y550920D01*
X362033Y550896D01*
X362088Y550888D01*
X360712D01*
X360767Y550896D01*
X360816Y550920D01*
X360859Y550960D01*
X360896Y551016D01*
X360928Y551088D01*
X360954Y551176D01*
X360974Y551280D01*
X360988Y551400D01*
X360997Y551536D01*
X361000Y551688D01*
X361800D01*
X361803Y551536D01*
D02*
G37*
G36*
X359203D02*
X359226Y551280D01*
X359246Y551176D01*
X359272Y551088D01*
X359304Y551016D01*
X359341Y550960D01*
X359384Y550920D01*
X359433Y550896D01*
X359488Y550888D01*
X358112D01*
X358167Y550896D01*
X358216Y550920D01*
X358259Y550960D01*
X358296Y551016D01*
X358328Y551088D01*
X358354Y551176D01*
X358374Y551280D01*
X358388Y551400D01*
X358397Y551536D01*
X358400Y551688D01*
X359200D01*
X359203Y551536D01*
D02*
G37*
G36*
X349003D02*
X349026Y551280D01*
X349046Y551176D01*
X349072Y551088D01*
X349104Y551016D01*
X349141Y550960D01*
X349184Y550920D01*
X349233Y550896D01*
X349288Y550888D01*
X347912D01*
X347967Y550896D01*
X348016Y550920D01*
X348059Y550960D01*
X348096Y551016D01*
X348128Y551088D01*
X348154Y551176D01*
X348174Y551280D01*
X348188Y551400D01*
X348197Y551536D01*
X348200Y551688D01*
X349000D01*
X349003Y551536D01*
D02*
G37*
G36*
X338803D02*
X338826Y551280D01*
X338846Y551176D01*
X338872Y551088D01*
X338904Y551016D01*
X338941Y550960D01*
X338984Y550920D01*
X339033Y550896D01*
X339088Y550888D01*
X337712D01*
X337767Y550896D01*
X337816Y550920D01*
X337859Y550960D01*
X337896Y551016D01*
X337928Y551088D01*
X337954Y551176D01*
X337974Y551280D01*
X337988Y551400D01*
X337997Y551536D01*
X338000Y551688D01*
X338800D01*
X338803Y551536D01*
D02*
G37*
G36*
X382368Y550100D02*
X382360Y550176D01*
X382336Y550244D01*
X382295Y550304D01*
X382238Y550356D01*
X382165Y550400D01*
X382076Y550436D01*
X381970Y550464D01*
X381848Y550484D01*
X381710Y550496D01*
X381556Y550500D01*
Y551300D01*
X381710Y551304D01*
X381848Y551316D01*
X381970Y551336D01*
X382076Y551364D01*
X382165Y551400D01*
X382238Y551444D01*
X382295Y551496D01*
X382336Y551556D01*
X382360Y551624D01*
X382368Y551700D01*
Y550100D01*
D02*
G37*
G36*
X376944Y551624D02*
X376968Y551556D01*
X377009Y551496D01*
X377066Y551444D01*
X377139Y551400D01*
X377228Y551364D01*
X377334Y551336D01*
X377455Y551316D01*
X377594Y551304D01*
X377748Y551300D01*
Y550500D01*
X377594Y550496D01*
X377455Y550484D01*
X377334Y550464D01*
X377228Y550436D01*
X377139Y550400D01*
X377066Y550356D01*
X377009Y550304D01*
X376968Y550244D01*
X376944Y550176D01*
X376936Y550100D01*
Y551700D01*
X376944Y551624D01*
D02*
G37*
G36*
X374452Y549731D02*
X374444Y549801D01*
X374420Y549864D01*
X374380Y549919D01*
X374324Y549967D01*
X374252Y550008D01*
X374164Y550041D01*
X374060Y550067D01*
X373940Y550085D01*
X373804Y550096D01*
X373652Y550100D01*
Y550900D01*
X373806Y550904D01*
X373943Y550916D01*
X374065Y550936D01*
X374170Y550964D01*
X374260Y551000D01*
X374333Y551044D01*
X374390Y551096D01*
X374431Y551156D01*
X374455Y551224D01*
X374464Y551300D01*
X374452Y549731D01*
D02*
G37*
G36*
X373088Y550100D02*
X372936Y550096D01*
X372800Y550084D01*
X372680Y550064D01*
X372576Y550036D01*
X372488Y550000D01*
X372416Y549956D01*
X372360Y549904D01*
X372320Y549844D01*
X372296Y549776D01*
X372288Y549700D01*
Y550888D01*
X372296Y550890D01*
X372320Y550892D01*
X372488Y550897D01*
X373088Y550900D01*
Y550100D01*
D02*
G37*
G36*
X416182Y548000D02*
X416173Y548076D01*
X416149Y548144D01*
X416108Y548204D01*
X416052Y548256D01*
X415978Y548300D01*
X415889Y548336D01*
X415784Y548364D01*
X415662Y548384D01*
X415524Y548396D01*
X415370Y548400D01*
Y549200D01*
X415524Y549204D01*
X415662Y549216D01*
X415784Y549236D01*
X415889Y549264D01*
X415978Y549300D01*
X416052Y549344D01*
X416108Y549396D01*
X416149Y549456D01*
X416173Y549524D01*
X416182Y549600D01*
Y548000D01*
D02*
G37*
G36*
X442451Y549431D02*
X442538Y549358D01*
X442629Y549294D01*
X442723Y549239D01*
X442819Y549192D01*
X442918Y549154D01*
X443020Y549124D01*
X443124Y549102D01*
X443170Y549097D01*
X443221Y549101D01*
X443343Y549121D01*
X443448Y549149D01*
X443538Y549185D01*
X443611Y549229D01*
X443668Y549281D01*
X443708Y549341D01*
X443732Y549409D01*
X443741Y549485D01*
Y547885D01*
X443732Y547961D01*
X443708Y548029D01*
X443668Y548089D01*
X443611Y548141D01*
X443538Y548185D01*
X443448Y548221D01*
X443343Y548249D01*
X443221Y548269D01*
X443170Y548274D01*
X443124Y548268D01*
X443020Y548247D01*
X442918Y548217D01*
X442819Y548179D01*
X442723Y548132D01*
X442629Y548076D01*
X442538Y548012D01*
X442451Y547940D01*
X442366Y547858D01*
Y549512D01*
X442451Y549431D01*
D02*
G37*
G36*
X376424Y546270D02*
X376356Y546246D01*
X376296Y546205D01*
X376244Y546148D01*
X376200Y546075D01*
X376164Y545986D01*
X376136Y545881D01*
X376120Y545786D01*
X376138Y545698D01*
X376168Y545596D01*
X376207Y545497D01*
X376254Y545400D01*
X376309Y545307D01*
X376373Y545216D01*
X376446Y545128D01*
X376527Y545044D01*
X374873D01*
X374954Y545128D01*
X375027Y545216D01*
X375091Y545307D01*
X375146Y545400D01*
X375193Y545497D01*
X375232Y545596D01*
X375262Y545698D01*
X375280Y545786D01*
X375264Y545881D01*
X375236Y545986D01*
X375200Y546075D01*
X375156Y546148D01*
X375104Y546205D01*
X375044Y546246D01*
X374976Y546270D01*
X374900Y546278D01*
X376500D01*
X376424Y546270D01*
D02*
G37*
G36*
X369733Y545104D02*
X369684Y545080D01*
X369641Y545040D01*
X369604Y544984D01*
X369572Y544912D01*
X369546Y544824D01*
X369526Y544720D01*
X369512Y544600D01*
X369503Y544464D01*
X369500Y544312D01*
X368700D01*
X368697Y544464D01*
X368674Y544720D01*
X368654Y544824D01*
X368628Y544912D01*
X368596Y544984D01*
X368559Y545040D01*
X368516Y545080D01*
X368467Y545104D01*
X368412Y545112D01*
X369788D01*
X369733Y545104D01*
D02*
G37*
G36*
X367133D02*
X367084Y545080D01*
X367041Y545040D01*
X367004Y544984D01*
X366972Y544912D01*
X366946Y544824D01*
X366926Y544720D01*
X366912Y544600D01*
X366903Y544464D01*
X366900Y544312D01*
X366100D01*
X366097Y544464D01*
X366074Y544720D01*
X366054Y544824D01*
X366028Y544912D01*
X365996Y544984D01*
X365959Y545040D01*
X365916Y545080D01*
X365867Y545104D01*
X365812Y545112D01*
X367188D01*
X367133Y545104D01*
D02*
G37*
G36*
X356704Y545510D02*
X356717Y545402D01*
X356738Y545298D01*
X356768Y545196D01*
X356801Y545112D01*
X356988D01*
X356933Y545104D01*
X356884Y545080D01*
X356841Y545040D01*
X356837Y545034D01*
X356854Y545001D01*
X356909Y544907D01*
X356973Y544816D01*
X357046Y544729D01*
X357127Y544643D01*
X356717D01*
X356712Y544600D01*
X356703Y544464D01*
X356700Y544312D01*
X355900D01*
X355897Y544464D01*
X355881Y544643D01*
X355473D01*
X355554Y544729D01*
X355627Y544816D01*
X355691Y544907D01*
X355746Y545001D01*
X355763Y545034D01*
X355759Y545040D01*
X355716Y545080D01*
X355667Y545104D01*
X355612Y545112D01*
X355799D01*
X355832Y545196D01*
X355862Y545298D01*
X355883Y545402D01*
X355896Y545510D01*
X355900Y545620D01*
X356700D01*
X356704Y545510D01*
D02*
G37*
G36*
X351833Y545104D02*
X351784Y545080D01*
X351741Y545040D01*
X351704Y544984D01*
X351672Y544912D01*
X351646Y544824D01*
X351626Y544720D01*
X351611Y544600D01*
X351603Y544464D01*
X351600Y544312D01*
X350800D01*
X350797Y544464D01*
X350774Y544720D01*
X350754Y544824D01*
X350728Y544912D01*
X350696Y544984D01*
X350659Y545040D01*
X350616Y545080D01*
X350567Y545104D01*
X350512Y545112D01*
X351888D01*
X351833Y545104D01*
D02*
G37*
G36*
X346633D02*
X346584Y545080D01*
X346541Y545040D01*
X346504Y544984D01*
X346472Y544912D01*
X346446Y544824D01*
X346426Y544720D01*
X346411Y544600D01*
X346403Y544464D01*
X346400Y544312D01*
X345600D01*
X345597Y544464D01*
X345574Y544720D01*
X345554Y544824D01*
X345528Y544912D01*
X345496Y544984D01*
X345459Y545040D01*
X345416Y545080D01*
X345367Y545104D01*
X345312Y545112D01*
X346688D01*
X346633Y545104D01*
D02*
G37*
G36*
X344131D02*
X344080Y545080D01*
X344035Y545040D01*
X343996Y544984D01*
X343963Y544912D01*
X343936Y544824D01*
X343915Y544720D01*
X343900Y544600D01*
X343891Y544464D01*
X343888Y544312D01*
X343088D01*
X343085Y544464D01*
X343063Y544720D01*
X343044Y544824D01*
X343019Y544912D01*
X342988Y544984D01*
X342953Y545040D01*
X342911Y545080D01*
X342864Y545104D01*
X342812Y545112D01*
X344188D01*
X344131Y545104D01*
D02*
G37*
G36*
X341533D02*
X341484Y545080D01*
X341441Y545040D01*
X341404Y544984D01*
X341372Y544912D01*
X341346Y544824D01*
X341326Y544720D01*
X341312Y544600D01*
X341303Y544464D01*
X341300Y544312D01*
X340500D01*
X340497Y544464D01*
X340474Y544720D01*
X340454Y544824D01*
X340428Y544912D01*
X340396Y544984D01*
X340359Y545040D01*
X340316Y545080D01*
X340267Y545104D01*
X340212Y545112D01*
X341588D01*
X341533Y545104D01*
D02*
G37*
G36*
X339033D02*
X338984Y545080D01*
X338941Y545040D01*
X338904Y544984D01*
X338872Y544912D01*
X338846Y544824D01*
X338826Y544720D01*
X338811Y544600D01*
X338803Y544464D01*
X338800Y544312D01*
X338000D01*
X337997Y544464D01*
X337974Y544720D01*
X337954Y544824D01*
X337928Y544912D01*
X337896Y544984D01*
X337859Y545040D01*
X337816Y545080D01*
X337767Y545104D01*
X337712Y545112D01*
X339088D01*
X339033Y545104D01*
D02*
G37*
G36*
X364400Y545112D02*
X364688D01*
X364633Y545104D01*
X364584Y545080D01*
X364541Y545040D01*
X364504Y544984D01*
X364472Y544912D01*
X364446Y544824D01*
X364440Y544792D01*
X364468Y544696D01*
X364507Y544597D01*
X364554Y544500D01*
X364609Y544407D01*
X364673Y544316D01*
X364746Y544229D01*
X364827Y544143D01*
X363173D01*
X363254Y544229D01*
X363327Y544316D01*
X363391Y544407D01*
X363446Y544500D01*
X363493Y544597D01*
X363532Y544696D01*
X363560Y544792D01*
X363554Y544824D01*
X363528Y544912D01*
X363496Y544984D01*
X363459Y545040D01*
X363416Y545080D01*
X363367Y545104D01*
X363312Y545112D01*
X363600D01*
X363600Y545120D01*
X364400D01*
X364400Y545112D01*
D02*
G37*
G36*
X372233Y545104D02*
X372184Y545080D01*
X372141Y545040D01*
X372104Y544984D01*
X372072Y544912D01*
X372046Y544824D01*
X372026Y544720D01*
X372011Y544600D01*
X372003Y544464D01*
X372003Y544452D01*
X372004Y544410D01*
X372017Y544302D01*
X372038Y544198D01*
X372068Y544096D01*
X372107Y543997D01*
X372154Y543900D01*
X372209Y543807D01*
X372273Y543716D01*
X372346Y543629D01*
X372427Y543543D01*
X370773D01*
X370854Y543629D01*
X370927Y543716D01*
X370991Y543807D01*
X371046Y543900D01*
X371093Y543997D01*
X371132Y544096D01*
X371162Y544198D01*
X371183Y544302D01*
X371196Y544410D01*
X371197Y544452D01*
X371197Y544464D01*
X371174Y544720D01*
X371154Y544824D01*
X371128Y544912D01*
X371096Y544984D01*
X371059Y545040D01*
X371016Y545080D01*
X370967Y545104D01*
X370912Y545112D01*
X372288D01*
X372233Y545104D01*
D02*
G37*
G36*
X333964Y541400D02*
X333956Y541476D01*
X333932Y541544D01*
X333891Y541604D01*
X333834Y541656D01*
X333761Y541700D01*
X333672Y541736D01*
X333566Y541764D01*
X333444Y541784D01*
X333306Y541796D01*
X333198Y541799D01*
X333090Y541796D01*
X332952Y541784D01*
X332830Y541764D01*
X332724Y541736D01*
X332635Y541700D01*
X332562Y541656D01*
X332505Y541604D01*
X332464Y541544D01*
X332440Y541476D01*
X332432Y541400D01*
Y543000D01*
X332440Y542924D01*
X332464Y542856D01*
X332505Y542796D01*
X332562Y542744D01*
X332635Y542700D01*
X332724Y542664D01*
X332830Y542636D01*
X332952Y542616D01*
X333090Y542604D01*
X333198Y542601D01*
X333306Y542604D01*
X333444Y542616D01*
X333566Y542636D01*
X333672Y542664D01*
X333761Y542700D01*
X333834Y542744D01*
X333891Y542796D01*
X333932Y542856D01*
X333956Y542924D01*
X333964Y543000D01*
Y541400D01*
D02*
G37*
G36*
X363766Y542142D02*
X363656Y542160D01*
X363548Y542167D01*
X363444Y542163D01*
X363343Y542149D01*
X363245Y542125D01*
X363149Y542090D01*
X363057Y542045D01*
X362968Y541990D01*
X362882Y541924D01*
X362799Y541848D01*
X362640Y541683D01*
X362388Y541387D01*
X362297Y541257D01*
X362228Y541138D01*
X362181Y541030D01*
X362157Y540935D01*
X362156Y540850D01*
X362178Y540778D01*
X362222Y540717D01*
X361102Y541836D01*
X361163Y541792D01*
X361236Y541770D01*
X361320Y541772D01*
X361416Y541795D01*
X361524Y541842D01*
X361643Y541911D01*
X361773Y542003D01*
X361915Y542117D01*
X362234Y542414D01*
X362798Y541850D01*
X362349Y542529D01*
X362422Y542607D01*
X362490Y542690D01*
X362552Y542777D01*
X362610Y542868D01*
X362661Y542964D01*
X362707Y543065D01*
X362748Y543169D01*
X362783Y543279D01*
X362813Y543392D01*
X362838Y543511D01*
X363766Y542142D01*
D02*
G37*
G36*
X357441Y543473D02*
X357443Y543419D01*
X357454Y543361D01*
X357475Y543301D01*
X357504Y543238D01*
X357543Y543171D01*
X357592Y543102D01*
X357649Y543029D01*
X357716Y542953D01*
X357792Y542874D01*
X357509Y542591D01*
X357909D01*
X357912Y542448D01*
X357923Y542319D01*
X357940Y542206D01*
X357964Y542108D01*
X357995Y542025D01*
X358032Y541957D01*
X358077Y541904D01*
X358128Y541866D01*
X358187Y541843D01*
X358252Y541836D01*
X356765D01*
X356831Y541843D01*
X356889Y541866D01*
X356941Y541904D01*
X356985Y541957D01*
X357023Y542025D01*
X357054Y542108D01*
X357078Y542206D01*
X357095Y542319D01*
X357103Y542421D01*
X356998Y542508D01*
X356929Y542557D01*
X356862Y542596D01*
X356799Y542625D01*
X356739Y542646D01*
X356681Y542657D01*
X356627Y542659D01*
X356576Y542652D01*
X357448Y543524D01*
X357441Y543473D01*
D02*
G37*
G36*
X336441Y542723D02*
X336458Y542697D01*
X336487Y542675D01*
X336526Y542655D01*
X336577Y542638D01*
X336639Y542624D01*
X336712Y542614D01*
X336797Y542606D01*
X337000Y542600D01*
Y541800D01*
X336893Y541798D01*
X336712Y541786D01*
X336639Y541776D01*
X336577Y541762D01*
X336526Y541745D01*
X336487Y541725D01*
X336458Y541703D01*
X336441Y541677D01*
X336436Y541648D01*
Y542752D01*
X336441Y542723D01*
D02*
G37*
G36*
X350179Y542254D02*
X350191Y542118D01*
X350211Y541998D01*
X350239Y541894D01*
X350275Y541806D01*
X350319Y541734D01*
X350371Y541678D01*
X350431Y541638D01*
X350499Y541614D01*
X350575Y541606D01*
X348975D01*
X349051Y541614D01*
X349119Y541638D01*
X349179Y541678D01*
X349231Y541734D01*
X349275Y541806D01*
X349311Y541894D01*
X349339Y541998D01*
X349359Y542118D01*
X349371Y542254D01*
X349375Y542406D01*
X350175D01*
X350179Y542254D01*
D02*
G37*
G36*
X347029D02*
X347041Y542118D01*
X347061Y541998D01*
X347089Y541894D01*
X347125Y541806D01*
X347169Y541734D01*
X347221Y541678D01*
X347281Y541638D01*
X347349Y541614D01*
X347425Y541606D01*
X345825D01*
X345901Y541614D01*
X345969Y541638D01*
X346029Y541678D01*
X346081Y541734D01*
X346125Y541806D01*
X346161Y541894D01*
X346189Y541998D01*
X346209Y542118D01*
X346221Y542254D01*
X346225Y542406D01*
X347025D01*
X347029Y542254D01*
D02*
G37*
G36*
X343892D02*
X343904Y542118D01*
X343924Y541998D01*
X343952Y541894D01*
X343988Y541806D01*
X344032Y541734D01*
X344084Y541678D01*
X344144Y541638D01*
X344212Y541614D01*
X344288Y541606D01*
X342688D01*
X342764Y541614D01*
X342832Y541638D01*
X342892Y541678D01*
X342944Y541734D01*
X342988Y541806D01*
X343024Y541894D01*
X343052Y541998D01*
X343072Y542118D01*
X343084Y542254D01*
X343088Y542406D01*
X343888D01*
X343892Y542254D01*
D02*
G37*
G36*
X339704Y540874D02*
X339716Y540736D01*
X339736Y540614D01*
X339764Y540509D01*
X339800Y540419D01*
X339844Y540346D01*
X339896Y540289D01*
X339956Y540249D01*
X340024Y540224D01*
X340100Y540216D01*
X338500D01*
X338576Y540224D01*
X338644Y540249D01*
X338704Y540289D01*
X338756Y540346D01*
X338800Y540419D01*
X338836Y540509D01*
X338864Y540614D01*
X338884Y540736D01*
X338896Y540874D01*
X338900Y541028D01*
X339700D01*
X339704Y540874D01*
D02*
G37*
G36*
X350179Y535561D02*
X350191Y535425D01*
X350211Y535305D01*
X350239Y535201D01*
X350275Y535113D01*
X350319Y535041D01*
X350371Y534985D01*
X350431Y534945D01*
X350499Y534921D01*
X350575Y534913D01*
X348975D01*
X349051Y534921D01*
X349119Y534945D01*
X349179Y534985D01*
X349231Y535041D01*
X349275Y535113D01*
X349311Y535201D01*
X349339Y535305D01*
X349359Y535425D01*
X349371Y535561D01*
X349375Y535713D01*
X350175D01*
X350179Y535561D01*
D02*
G37*
G36*
X340024Y532764D02*
X339956Y532740D01*
X339896Y532700D01*
X339844Y532644D01*
X339800Y532572D01*
X339764Y532484D01*
X339736Y532380D01*
X339716Y532260D01*
X339704Y532124D01*
X339700Y531972D01*
X338900D01*
X338896Y532124D01*
X338884Y532260D01*
X338864Y532380D01*
X338836Y532484D01*
X338800Y532572D01*
X338756Y532644D01*
X338704Y532700D01*
X338644Y532740D01*
X338576Y532764D01*
X338500Y532772D01*
X340100D01*
X340024Y532764D01*
D02*
G37*
G36*
X353648Y531398D02*
X353580Y531373D01*
X353520Y531333D01*
X353468Y531276D01*
X353424Y531203D01*
X353388Y531114D01*
X353360Y531008D01*
X353340Y530886D01*
X353328Y530748D01*
X353324Y530594D01*
X352524D01*
X352520Y530748D01*
X352508Y530886D01*
X352488Y531008D01*
X352460Y531114D01*
X352424Y531203D01*
X352380Y531276D01*
X352328Y531333D01*
X352268Y531373D01*
X352200Y531398D01*
X352124Y531406D01*
X353724D01*
X353648Y531398D01*
D02*
G37*
G36*
X347349D02*
X347281Y531373D01*
X347221Y531333D01*
X347169Y531276D01*
X347125Y531203D01*
X347089Y531114D01*
X347061Y531008D01*
X347041Y530886D01*
X347029Y530748D01*
X347025Y530594D01*
X346225D01*
X346221Y530748D01*
X346209Y530886D01*
X346189Y531008D01*
X346161Y531114D01*
X346125Y531203D01*
X346081Y531276D01*
X346029Y531333D01*
X345969Y531373D01*
X345901Y531398D01*
X345825Y531406D01*
X347425D01*
X347349Y531398D01*
D02*
G37*
G36*
X344200D02*
X344132Y531373D01*
X344072Y531333D01*
X344020Y531276D01*
X343976Y531203D01*
X343940Y531114D01*
X343912Y531008D01*
X343892Y530886D01*
X343880Y530748D01*
X343876Y530594D01*
X343076D01*
X343072Y530748D01*
X343060Y530886D01*
X343040Y531008D01*
X343012Y531114D01*
X342976Y531203D01*
X342932Y531276D01*
X342880Y531333D01*
X342820Y531373D01*
X342752Y531398D01*
X342676Y531406D01*
X344276D01*
X344200Y531398D01*
D02*
G37*
G36*
X312153Y526148D02*
X312124Y526081D01*
X312113Y526009D01*
X312120Y525929D01*
X312144Y525842D01*
X312187Y525749D01*
X312247Y525649D01*
X312326Y525543D01*
X312423Y525429D01*
X312537Y525309D01*
X311971Y524744D01*
X311851Y524858D01*
X311738Y524955D01*
X311631Y525033D01*
X311531Y525094D01*
X311438Y525137D01*
X311352Y525161D01*
X311272Y525168D01*
X311199Y525157D01*
X311133Y525128D01*
X311074Y525081D01*
X312200Y526207D01*
X312153Y526148D01*
D02*
G37*
G36*
X445600Y521478D02*
X445688Y521406D01*
X445779Y521342D01*
X445872Y521286D01*
X445968Y521239D01*
X446067Y521201D01*
X446169Y521171D01*
X446274Y521150D01*
X446320Y521144D01*
X446371Y521148D01*
X446492Y521169D01*
X446598Y521197D01*
X446687Y521233D01*
X446760Y521277D01*
X446817Y521328D01*
X446858Y521388D01*
X446882Y521456D01*
X446890Y521532D01*
Y519933D01*
X446882Y520009D01*
X446858Y520077D01*
X446817Y520136D01*
X446760Y520189D01*
X446687Y520232D01*
X446598Y520268D01*
X446492Y520296D01*
X446371Y520317D01*
X446320Y520321D01*
X446274Y520316D01*
X446169Y520294D01*
X446067Y520264D01*
X445968Y520226D01*
X445872Y520179D01*
X445779Y520123D01*
X445688Y520059D01*
X445600Y519987D01*
X445515Y519906D01*
Y521559D01*
X445600Y521478D01*
D02*
G37*
G36*
X312153Y496148D02*
X312124Y496081D01*
X312113Y496008D01*
X312120Y495929D01*
X312144Y495842D01*
X312187Y495749D01*
X312247Y495649D01*
X312326Y495543D01*
X312423Y495430D01*
X312537Y495309D01*
X311971Y494744D01*
X311851Y494858D01*
X311738Y494955D01*
X311631Y495033D01*
X311531Y495094D01*
X311438Y495137D01*
X311352Y495161D01*
X311272Y495168D01*
X311199Y495157D01*
X311133Y495128D01*
X311074Y495081D01*
X312200Y496207D01*
X312153Y496148D01*
D02*
G37*
G36*
X416182Y492271D02*
X416173Y492347D01*
X416149Y492415D01*
X416108Y492475D01*
X416052Y492527D01*
X415978Y492571D01*
X415889Y492607D01*
X415784Y492635D01*
X415662Y492655D01*
X415524Y492667D01*
X415370Y492671D01*
Y493471D01*
X415524Y493475D01*
X415662Y493487D01*
X415784Y493507D01*
X415889Y493535D01*
X415978Y493571D01*
X416052Y493615D01*
X416108Y493667D01*
X416149Y493727D01*
X416173Y493795D01*
X416182Y493871D01*
Y492271D01*
D02*
G37*
G36*
X442451Y491824D02*
X442538Y491751D01*
X442629Y491687D01*
X442723Y491632D01*
X442819Y491585D01*
X442918Y491546D01*
X443020Y491516D01*
X443124Y491495D01*
X443170Y491490D01*
X443221Y491494D01*
X443343Y491514D01*
X443448Y491542D01*
X443538Y491578D01*
X443611Y491622D01*
X443668Y491674D01*
X443708Y491734D01*
X443732Y491802D01*
X443741Y491878D01*
Y490278D01*
X443732Y490354D01*
X443708Y490422D01*
X443668Y490482D01*
X443611Y490534D01*
X443538Y490578D01*
X443448Y490614D01*
X443343Y490642D01*
X443221Y490662D01*
X443170Y490666D01*
X443124Y490661D01*
X443020Y490639D01*
X442918Y490610D01*
X442819Y490571D01*
X442723Y490524D01*
X442629Y490469D01*
X442538Y490405D01*
X442451Y490332D01*
X442366Y490251D01*
Y491905D01*
X442451Y491824D01*
D02*
G37*
G36*
X445600Y463871D02*
X445688Y463798D01*
X445779Y463734D01*
X445872Y463679D01*
X445968Y463632D01*
X446067Y463593D01*
X446169Y463564D01*
X446274Y463542D01*
X446320Y463537D01*
X446371Y463541D01*
X446492Y463561D01*
X446598Y463589D01*
X446687Y463625D01*
X446760Y463669D01*
X446817Y463721D01*
X446858Y463781D01*
X446882Y463849D01*
X446890Y463925D01*
Y462325D01*
X446882Y462401D01*
X446858Y462469D01*
X446817Y462529D01*
X446760Y462581D01*
X446687Y462625D01*
X446598Y462661D01*
X446492Y462689D01*
X446371Y462709D01*
X446320Y462714D01*
X446274Y462708D01*
X446169Y462687D01*
X446067Y462657D01*
X445968Y462618D01*
X445872Y462572D01*
X445779Y462516D01*
X445688Y462452D01*
X445600Y462380D01*
X445515Y462298D01*
Y463952D01*
X445600Y463871D01*
D02*
G37*
G36*
X356758Y532812D02*
Y462686D01*
X356851Y462218D01*
X357116Y461821D01*
X386058Y432879D01*
Y432504D01*
X386151Y432036D01*
X386416Y431639D01*
X389274Y428781D01*
X389067Y428281D01*
X387382D01*
X354148Y461515D01*
Y530582D01*
X354610D01*
Y534306D01*
X355072Y534497D01*
X356758Y532812D01*
D02*
G37*
G36*
X395776Y421289D02*
X395889Y421192D01*
X395996Y421114D01*
X396096Y421053D01*
X396189Y421010D01*
X396275Y420986D01*
X396355Y420979D01*
X396428Y420990D01*
X396494Y421019D01*
X396553Y421066D01*
X395427Y419940D01*
X395474Y419999D01*
X395503Y420065D01*
X395514Y420138D01*
X395508Y420218D01*
X395483Y420304D01*
X395440Y420398D01*
X395380Y420498D01*
X395301Y420604D01*
X395205Y420717D01*
X395090Y420837D01*
X395656Y421403D01*
X395776Y421289D01*
D02*
G37*
G36*
X360384Y533021D02*
Y494400D01*
X360454Y494049D01*
X360652Y493752D01*
X372552Y481852D01*
X372849Y481654D01*
X373200Y481584D01*
X395113D01*
X395255Y481084D01*
X394626Y480264D01*
X394188Y479207D01*
X394039Y478074D01*
X394188Y476940D01*
X394626Y475883D01*
X395322Y474976D01*
X396230Y474280D01*
X397286Y473842D01*
X398420Y473693D01*
X399207D01*
X400341Y473842D01*
X401398Y474280D01*
X402305Y474976D01*
X403001Y475883D01*
X403439Y476940D01*
X403588Y478074D01*
X403439Y479207D01*
X403001Y480264D01*
X402564Y480833D01*
X402941Y481163D01*
X408784Y475321D01*
Y470444D01*
X408200D01*
Y456844D01*
X408784D01*
Y418521D01*
X408567Y418448D01*
X408284Y418438D01*
X408065Y418765D01*
X402865Y423965D01*
X402468Y424230D01*
X402219Y424280D01*
X402093Y424813D01*
X402305Y424976D01*
X403001Y425883D01*
X403439Y426940D01*
X403588Y428074D01*
X403439Y429207D01*
X403001Y430264D01*
X402305Y431171D01*
X401398Y431867D01*
X400341Y432305D01*
X399207Y432454D01*
X398420D01*
X397286Y432305D01*
X396230Y431867D01*
X395322Y431171D01*
X394626Y430264D01*
X394188Y429207D01*
X394052Y428171D01*
X393604Y427911D01*
X388505Y433011D01*
Y433386D01*
X388411Y433854D01*
X388146Y434251D01*
X359205Y463193D01*
Y533319D01*
X359161Y533536D01*
X359622Y533782D01*
X360384Y533021D01*
D02*
G37*
G36*
X351701Y461008D02*
X351794Y460540D01*
X352059Y460143D01*
X386010Y426192D01*
X386407Y425927D01*
X386875Y425834D01*
X388929D01*
X394589Y420174D01*
X394188Y419207D01*
X394039Y418074D01*
X394146Y417258D01*
X393673Y417025D01*
X347849Y462849D01*
Y530582D01*
X351701D01*
Y461008D01*
D02*
G37*
G36*
X345402Y462342D02*
X345495Y461874D01*
X345760Y461477D01*
X395054Y412183D01*
X395451Y411918D01*
X395469Y411914D01*
X395594Y411379D01*
X395322Y411171D01*
X394626Y410264D01*
X394532Y410038D01*
X393942Y409920D01*
X344699Y459164D01*
Y521724D01*
X344606Y522193D01*
X344341Y522589D01*
X342524Y524407D01*
Y525693D01*
X344341Y527510D01*
X344606Y527907D01*
X344699Y528376D01*
Y530582D01*
X345402D01*
Y462342D01*
D02*
G37*
G36*
X394925Y407657D02*
X394924Y407733D01*
X394904Y407801D01*
X394866Y407861D01*
X394809Y407912D01*
X394734Y407956D01*
X394639Y407992D01*
X394526Y408020D01*
X394394Y408040D01*
X394243Y408052D01*
X394073Y408056D01*
X394167Y408856D01*
X394337Y408860D01*
X394489Y408872D01*
X394624Y408892D01*
X394743Y408919D01*
X394845Y408955D01*
X394930Y408999D01*
X394998Y409050D01*
X395049Y409110D01*
X395083Y409177D01*
X395100Y409253D01*
X394925Y407657D01*
D02*
G37*
G36*
X442451Y404410D02*
X442538Y404337D01*
X442629Y404273D01*
X442723Y404217D01*
X442819Y404171D01*
X442918Y404132D01*
X443020Y404102D01*
X443124Y404081D01*
X443170Y404075D01*
X443221Y404080D01*
X443343Y404100D01*
X443448Y404128D01*
X443538Y404164D01*
X443611Y404208D01*
X443668Y404260D01*
X443708Y404320D01*
X443732Y404388D01*
X443741Y404464D01*
Y402864D01*
X443732Y402940D01*
X443708Y403008D01*
X443668Y403068D01*
X443611Y403120D01*
X443538Y403164D01*
X443448Y403200D01*
X443343Y403228D01*
X443221Y403248D01*
X443170Y403252D01*
X443124Y403247D01*
X443020Y403225D01*
X442918Y403195D01*
X442819Y403157D01*
X442723Y403110D01*
X442629Y403055D01*
X442538Y402991D01*
X442451Y402918D01*
X442366Y402837D01*
Y404491D01*
X442451Y404410D01*
D02*
G37*
G36*
X326144Y544661D02*
Y539460D01*
X325944D01*
Y536401D01*
X329700D01*
X333456D01*
Y536554D01*
X334673D01*
X334693Y536597D01*
X334700Y536614D01*
Y537375D01*
D01*
X334656Y537448D01*
X334604Y537505D01*
X334544Y537546D01*
X334476Y537570D01*
X334400Y537578D01*
X334700D01*
Y538735D01*
X335700D01*
Y537578D01*
X336000D01*
X335924Y537570D01*
X335856Y537546D01*
X335796Y537505D01*
X335744Y537448D01*
X335700Y537375D01*
Y536614D01*
X335707Y536597D01*
X335727Y536554D01*
X337319D01*
Y531960D01*
X337346D01*
X337538Y531498D01*
X336535Y530495D01*
X336270Y530098D01*
X336176Y529630D01*
Y453900D01*
X336270Y453432D01*
X336535Y453035D01*
X369719Y419851D01*
Y419206D01*
X370021Y418478D01*
X370578Y417920D01*
X371306Y417619D01*
X372094D01*
X372822Y417920D01*
X373379Y418478D01*
X373681Y419206D01*
Y419994D01*
X373379Y420722D01*
X372822Y421279D01*
X372094Y421581D01*
X371449D01*
X338623Y454407D01*
Y529123D01*
X340165Y530665D01*
X340430Y531062D01*
X340524Y531530D01*
Y531960D01*
X341281D01*
Y536487D01*
Y541040D01*
X341178D01*
X340981Y541515D01*
X341315Y541849D01*
X341790Y541652D01*
Y537275D01*
X348644D01*
X348828Y536775D01*
X348644Y536500D01*
X348551Y536031D01*
Y535725D01*
X341790D01*
Y530582D01*
X342252D01*
Y528882D01*
X340435Y527065D01*
X340170Y526668D01*
X340076Y526200D01*
Y523900D01*
X340170Y523432D01*
X340435Y523035D01*
X342252Y521218D01*
Y458657D01*
X342345Y458189D01*
X342611Y457792D01*
X392811Y407591D01*
X393208Y407326D01*
X393677Y407233D01*
X394150D01*
X394188Y406940D01*
X394626Y405883D01*
X395322Y404976D01*
X396230Y404280D01*
X397286Y403842D01*
X398420Y403693D01*
X399207D01*
X400341Y403842D01*
X401398Y404280D01*
X402305Y404976D01*
X403001Y405883D01*
X403439Y406940D01*
X403577Y407985D01*
X404076Y407952D01*
Y404673D01*
X401308Y401904D01*
X400341Y402305D01*
X399207Y402454D01*
X398420D01*
X397286Y402305D01*
X396230Y401867D01*
X395322Y401171D01*
X394626Y400264D01*
X394188Y399207D01*
X394039Y398074D01*
X394188Y396940D01*
X394626Y395883D01*
X395322Y394976D01*
X396230Y394280D01*
X397286Y393842D01*
X398420Y393693D01*
X399207D01*
X400341Y393842D01*
X401398Y394280D01*
X402305Y394976D01*
X403001Y395883D01*
X403176Y396306D01*
X403677Y396207D01*
Y389940D01*
X403176Y389841D01*
X403001Y390264D01*
X402305Y391171D01*
X401398Y391867D01*
X400341Y392305D01*
X399207Y392454D01*
X398420D01*
X397286Y392305D01*
X396230Y391867D01*
X395322Y391171D01*
X394626Y390264D01*
X394188Y389207D01*
X394039Y388073D01*
X394188Y386940D01*
X394626Y385883D01*
X395322Y384976D01*
X396230Y384280D01*
X397286Y383842D01*
X398420Y383693D01*
X399207D01*
X400341Y383842D01*
X401398Y384280D01*
X402305Y384976D01*
X403001Y385883D01*
X403176Y386306D01*
X403677Y386207D01*
Y379940D01*
X403176Y379841D01*
X403001Y380264D01*
X402305Y381171D01*
X401398Y381867D01*
X400341Y382305D01*
X399207Y382454D01*
X398420D01*
X397286Y382305D01*
X396230Y381867D01*
X395322Y381171D01*
X394626Y380264D01*
X394188Y379207D01*
X394039Y378074D01*
X394188Y376940D01*
X394626Y375883D01*
X395322Y374976D01*
X396230Y374280D01*
X397286Y373842D01*
X398420Y373693D01*
X399207D01*
X400341Y373842D01*
X401398Y374280D01*
X402305Y374976D01*
X403001Y375883D01*
X403176Y376306D01*
X403677Y376207D01*
Y369940D01*
X403176Y369841D01*
X403001Y370264D01*
X402305Y371171D01*
X401398Y371867D01*
X400341Y372305D01*
X399207Y372454D01*
X398420D01*
X397286Y372305D01*
X396230Y371867D01*
X395322Y371171D01*
X394626Y370264D01*
X394188Y369207D01*
X394039Y368074D01*
X394188Y366940D01*
X394626Y365883D01*
X395322Y364976D01*
X396230Y364280D01*
X397286Y363842D01*
X398420Y363693D01*
X399207D01*
X400341Y363842D01*
X401398Y364280D01*
X402305Y364976D01*
X403001Y365883D01*
X403176Y366306D01*
X403677Y366207D01*
Y359940D01*
X403176Y359841D01*
X403001Y360264D01*
X402305Y361171D01*
X401398Y361867D01*
X400341Y362305D01*
X399207Y362454D01*
X398420D01*
X397286Y362305D01*
X396230Y361867D01*
X395322Y361171D01*
X394626Y360264D01*
X394188Y359207D01*
X394039Y358073D01*
X394188Y356940D01*
X394626Y355883D01*
X395322Y354976D01*
X396230Y354280D01*
X397286Y353842D01*
X398420Y353693D01*
X399207D01*
X400341Y353842D01*
X401398Y354280D01*
X402305Y354976D01*
X403001Y355883D01*
X403176Y356306D01*
X403677Y356207D01*
Y349940D01*
X403176Y349841D01*
X403001Y350264D01*
X402305Y351171D01*
X401398Y351867D01*
X400341Y352305D01*
X399207Y352454D01*
X398420D01*
X397286Y352305D01*
X396230Y351867D01*
X395322Y351171D01*
X394626Y350264D01*
X394188Y349207D01*
X394039Y348074D01*
X394188Y346940D01*
X394626Y345883D01*
X395322Y344976D01*
X396230Y344280D01*
X397286Y343842D01*
X398420Y343693D01*
X399207D01*
X400341Y343842D01*
X401398Y344280D01*
X402305Y344976D01*
X403001Y345883D01*
X403176Y346306D01*
X403677Y346207D01*
Y339940D01*
X403176Y339841D01*
X403001Y340264D01*
X402305Y341171D01*
X401398Y341867D01*
X400341Y342305D01*
X399207Y342454D01*
X398420D01*
X397286Y342305D01*
X396230Y341867D01*
X395322Y341171D01*
X394626Y340264D01*
X394188Y339207D01*
X394039Y338073D01*
X394188Y336940D01*
X394626Y335883D01*
X395322Y334976D01*
X396230Y334280D01*
X397286Y333842D01*
X398420Y333693D01*
X399207D01*
X400341Y333842D01*
X401398Y334280D01*
X402305Y334976D01*
X403001Y335883D01*
X403176Y336306D01*
X403677Y336207D01*
Y329940D01*
X403176Y329841D01*
X403001Y330264D01*
X402305Y331171D01*
X401398Y331867D01*
X400341Y332305D01*
X399207Y332454D01*
X398420D01*
X397286Y332305D01*
X396230Y331867D01*
X395322Y331171D01*
X394626Y330264D01*
X394188Y329207D01*
X394039Y328074D01*
X394188Y326940D01*
X394626Y325883D01*
X395322Y324976D01*
X396230Y324280D01*
X397286Y323842D01*
X398420Y323693D01*
X399207D01*
X400341Y323842D01*
X401398Y324280D01*
X402305Y324976D01*
X403001Y325883D01*
X403176Y326306D01*
X403677Y326207D01*
Y319940D01*
X403176Y319841D01*
X403001Y320264D01*
X402305Y321171D01*
X401398Y321867D01*
X400341Y322305D01*
X399207Y322454D01*
X398420D01*
X397286Y322305D01*
X396599Y322020D01*
X396588Y322029D01*
X390723Y327894D01*
Y389900D01*
X390630Y390368D01*
X390365Y390765D01*
X333123Y448007D01*
Y523600D01*
X333030Y524068D01*
X332765Y524465D01*
X325324Y531907D01*
Y544493D01*
X325682Y544852D01*
X326144Y544661D01*
D02*
G37*
G36*
X402537Y400838D02*
X402423Y400717D01*
X402326Y400604D01*
X402247Y400497D01*
X402187Y400398D01*
X402144Y400305D01*
X402119Y400218D01*
X402113Y400138D01*
X402124Y400066D01*
X402153Y399999D01*
X402200Y399940D01*
X401074Y401066D01*
X401133Y401019D01*
X401199Y400990D01*
X401272Y400979D01*
X401352Y400986D01*
X401438Y401010D01*
X401532Y401053D01*
X401631Y401114D01*
X401738Y401192D01*
X401851Y401289D01*
X401971Y401403D01*
X402537Y400838D01*
D02*
G37*
G36*
X419881Y398356D02*
X419813Y398332D01*
X419754Y398291D01*
X419701Y398234D01*
X419658Y398161D01*
X419622Y398072D01*
X419593Y397966D01*
X419573Y397845D01*
X419561Y397707D01*
X419558Y397552D01*
X418757D01*
X418753Y397707D01*
X418742Y397845D01*
X418721Y397966D01*
X418693Y398072D01*
X418657Y398161D01*
X418613Y398234D01*
X418562Y398291D01*
X418502Y398332D01*
X418434Y398356D01*
X418358Y398364D01*
X419957D01*
X419881Y398356D01*
D02*
G37*
G36*
X370230Y381626D02*
X370111Y381610D01*
X369997Y381587D01*
X369887Y381557D01*
X369781Y381522D01*
X369680Y381480D01*
X369583Y381431D01*
X369491Y381376D01*
X369402Y381315D01*
X369319Y381248D01*
X369239Y381174D01*
X368601Y381667D01*
X368677Y381749D01*
X368743Y381835D01*
X368800Y381924D01*
X368847Y382017D01*
X368885Y382113D01*
X368913Y382213D01*
X368931Y382316D01*
X368940Y382423D01*
X368939Y382533D01*
X368929Y382647D01*
X370230Y381626D01*
D02*
G37*
G36*
X368964Y406443D02*
X368744Y405956D01*
X368078Y405680D01*
X367520Y405122D01*
X367219Y404394D01*
Y403712D01*
X326535Y363028D01*
X326270Y362631D01*
X326177Y362163D01*
Y311931D01*
X321110Y306865D01*
X320845Y306468D01*
X320752Y306000D01*
Y298518D01*
X320290D01*
Y293375D01*
X333110D01*
Y298518D01*
X332648D01*
Y352318D01*
X375549Y395219D01*
X376094D01*
X376822Y395520D01*
X377379Y396078D01*
X377681Y396806D01*
Y397019D01*
X378181Y397226D01*
X386677Y388731D01*
Y334007D01*
X383193Y330523D01*
X363200D01*
X362732Y330430D01*
X362335Y330165D01*
X351535Y319365D01*
X351424Y319198D01*
X350923Y319350D01*
Y361693D01*
X369362Y380132D01*
X369736Y380031D01*
X370464D01*
X371169Y380220D01*
X371800Y380585D01*
X372315Y381100D01*
X372680Y381731D01*
X372868Y382435D01*
Y383165D01*
X372680Y383869D01*
X372315Y384500D01*
X371800Y385015D01*
X371169Y385380D01*
X370464Y385568D01*
X369736D01*
X369031Y385380D01*
X368400Y385015D01*
X367885Y384500D01*
X367520Y383869D01*
X367332Y383165D01*
Y382435D01*
X367516Y381746D01*
X348835Y363065D01*
X348570Y362668D01*
X348477Y362200D01*
Y313807D01*
X347821Y313151D01*
X347359Y313343D01*
Y319756D01*
X341260D01*
Y319956D01*
X338201D01*
Y319002D01*
X338256Y318964D01*
X338324Y318940D01*
X338400Y318932D01*
X338201D01*
Y316200D01*
X337701D01*
Y315700D01*
X334142D01*
Y312444D01*
X334454D01*
Y310800D01*
X336635D01*
Y310300D01*
X337135D01*
Y309064D01*
X337368D01*
X337292Y309056D01*
X337224Y309032D01*
X337164Y308991D01*
X337135Y308960D01*
Y308129D01*
X337167Y308072D01*
X337187Y308040D01*
X338036D01*
X338314Y307624D01*
X338219Y307394D01*
Y306606D01*
X338346Y306300D01*
X338200Y306082D01*
Y304794D01*
X338224Y304785D01*
X338300Y304776D01*
X338200Y304777D01*
Y301900D01*
Y298000D01*
X339400D01*
Y298200D01*
X351402D01*
X351435Y298189D01*
X351459Y298178D01*
X351484Y298163D01*
X351518Y298137D01*
X351556Y298099D01*
X351594Y298046D01*
X351625Y297981D01*
X351684Y297700D01*
X351671Y297684D01*
X351659Y297660D01*
X351520Y297522D01*
X351219Y296794D01*
Y296006D01*
X351520Y295278D01*
X352078Y294721D01*
X352806Y294419D01*
X353594D01*
X354184Y294663D01*
X354684Y294429D01*
Y282500D01*
X354754Y282149D01*
X354952Y281852D01*
X355462Y281343D01*
X355270Y280881D01*
X355206D01*
X354478Y280579D01*
X353921Y280022D01*
X353619Y279294D01*
Y278519D01*
X353583Y278484D01*
X353186Y278244D01*
X341312Y290119D01*
X340915Y290384D01*
X340446Y290477D01*
X333110D01*
Y291825D01*
X320290D01*
Y286682D01*
X320752D01*
Y286324D01*
X320845Y285856D01*
X321110Y285459D01*
X325984Y280585D01*
X325793Y280123D01*
X325307D01*
X317870Y287560D01*
X317937Y288060D01*
X318581D01*
Y292587D01*
Y297140D01*
X317824D01*
Y304993D01*
X324865Y312035D01*
X325130Y312432D01*
X325223Y312900D01*
Y381793D01*
X356649Y413219D01*
X357294D01*
X358022Y413520D01*
X358579Y414078D01*
X358881Y414806D01*
Y415594D01*
X358722Y415978D01*
X359146Y416261D01*
X368964Y406443D01*
D02*
G37*
G36*
X445600Y376457D02*
X445688Y376384D01*
X445779Y376320D01*
X445872Y376265D01*
X445968Y376218D01*
X446067Y376179D01*
X446169Y376150D01*
X446274Y376128D01*
X446320Y376123D01*
X446371Y376127D01*
X446492Y376147D01*
X446598Y376175D01*
X446687Y376211D01*
X446760Y376255D01*
X446817Y376307D01*
X446858Y376367D01*
X446882Y376435D01*
X446890Y376511D01*
Y374911D01*
X446882Y374987D01*
X446858Y375055D01*
X446817Y375115D01*
X446760Y375167D01*
X446687Y375211D01*
X446598Y375247D01*
X446492Y375275D01*
X446371Y375295D01*
X446320Y375300D01*
X446274Y375294D01*
X446169Y375273D01*
X446067Y375243D01*
X445968Y375204D01*
X445872Y375157D01*
X445779Y375102D01*
X445688Y375038D01*
X445600Y374965D01*
X445515Y374884D01*
Y376538D01*
X445600Y376457D01*
D02*
G37*
G36*
X442451Y346802D02*
X442538Y346730D01*
X442629Y346666D01*
X442723Y346610D01*
X442819Y346563D01*
X442918Y346525D01*
X443020Y346495D01*
X443124Y346474D01*
X443170Y346468D01*
X443221Y346473D01*
X443343Y346493D01*
X443448Y346520D01*
X443538Y346556D01*
X443611Y346601D01*
X443668Y346653D01*
X443708Y346712D01*
X443732Y346780D01*
X443741Y346856D01*
Y345256D01*
X443732Y345333D01*
X443708Y345401D01*
X443668Y345461D01*
X443611Y345513D01*
X443538Y345556D01*
X443448Y345592D01*
X443343Y345620D01*
X443221Y345640D01*
X443170Y345645D01*
X443124Y345639D01*
X443020Y345618D01*
X442918Y345588D01*
X442819Y345550D01*
X442723Y345503D01*
X442629Y345447D01*
X442538Y345383D01*
X442451Y345311D01*
X442366Y345230D01*
Y346883D01*
X442451Y346802D01*
D02*
G37*
G36*
X419881Y340749D02*
X419813Y340724D01*
X419754Y340684D01*
X419701Y340627D01*
X419658Y340554D01*
X419622Y340464D01*
X419593Y340359D01*
X419573Y340237D01*
X419561Y340099D01*
X419558Y339945D01*
X418757D01*
X418753Y340099D01*
X418742Y340237D01*
X418721Y340359D01*
X418693Y340464D01*
X418657Y340554D01*
X418613Y340627D01*
X418562Y340684D01*
X418502Y340724D01*
X418434Y340749D01*
X418358Y340757D01*
X419957D01*
X419881Y340749D01*
D02*
G37*
G36*
X384177Y325295D02*
X384262Y325228D01*
X384351Y325169D01*
X384444Y325118D01*
X384541Y325075D01*
X384643Y325040D01*
X384748Y325013D01*
X384857Y324995D01*
X384971Y324984D01*
X385088Y324981D01*
X383919Y323812D01*
X383916Y323929D01*
X383905Y324043D01*
X383887Y324152D01*
X383860Y324257D01*
X383825Y324359D01*
X383782Y324456D01*
X383731Y324549D01*
X383672Y324638D01*
X383605Y324723D01*
X383530Y324804D01*
X384096Y325370D01*
X384177Y325295D01*
D02*
G37*
G36*
X395996Y321463D02*
X396112Y321363D01*
X396223Y321280D01*
X396326Y321216D01*
X396424Y321169D01*
X396514Y321141D01*
X396598Y321129D01*
X396675Y321136D01*
X396746Y321161D01*
X396810Y321203D01*
X395588Y320170D01*
X395639Y320225D01*
X395673Y320288D01*
X395687Y320358D01*
X395683Y320435D01*
X395660Y320520D01*
X395619Y320612D01*
X395559Y320711D01*
X395481Y320818D01*
X395383Y320932D01*
X395268Y321054D01*
X395872Y321581D01*
X395996Y321463D01*
D02*
G37*
G36*
X380503Y318600D02*
X380495Y318676D01*
X380470Y318744D01*
X380430Y318804D01*
X380373Y318856D01*
X380300Y318900D01*
X380210Y318936D01*
X380105Y318964D01*
X379983Y318984D01*
X379845Y318996D01*
X379691Y319000D01*
Y319800D01*
X379845Y319804D01*
X379983Y319816D01*
X380105Y319836D01*
X380210Y319864D01*
X380300Y319900D01*
X380373Y319944D01*
X380430Y319996D01*
X380470Y320056D01*
X380495Y320124D01*
X380503Y320200D01*
Y318600D01*
D02*
G37*
G36*
X445600Y318849D02*
X445688Y318777D01*
X445779Y318713D01*
X445872Y318657D01*
X445968Y318610D01*
X446067Y318572D01*
X446169Y318542D01*
X446274Y318521D01*
X446320Y318515D01*
X446371Y318520D01*
X446492Y318540D01*
X446598Y318568D01*
X446687Y318604D01*
X446760Y318648D01*
X446817Y318700D01*
X446858Y318760D01*
X446882Y318828D01*
X446890Y318904D01*
Y317304D01*
X446882Y317380D01*
X446858Y317448D01*
X446817Y317508D01*
X446760Y317560D01*
X446687Y317604D01*
X446598Y317640D01*
X446492Y317668D01*
X446371Y317688D01*
X446320Y317692D01*
X446274Y317687D01*
X446169Y317665D01*
X446067Y317635D01*
X445968Y317597D01*
X445872Y317550D01*
X445779Y317495D01*
X445688Y317431D01*
X445600Y317358D01*
X445515Y317277D01*
Y318931D01*
X445600Y318849D01*
D02*
G37*
G36*
X343524Y313460D02*
X343456Y313436D01*
X343396Y313395D01*
X343344Y313338D01*
X343300Y313265D01*
X343264Y313176D01*
X343236Y313070D01*
X343216Y312948D01*
X343204Y312810D01*
X343200Y312656D01*
X342400D01*
X342396Y312810D01*
X342384Y312948D01*
X342364Y313070D01*
X342336Y313176D01*
X342300Y313265D01*
X342256Y313338D01*
X342204Y313395D01*
X342144Y313436D01*
X342076Y313460D01*
X342000Y313468D01*
X343600D01*
X343524Y313460D01*
D02*
G37*
G36*
X372324Y313260D02*
X372256Y313236D01*
X372196Y313195D01*
X372144Y313138D01*
X372100Y313065D01*
X372064Y312976D01*
X372036Y312870D01*
X372016Y312748D01*
X372004Y312610D01*
X372000Y312456D01*
X371200D01*
X371196Y312610D01*
X371184Y312748D01*
X371164Y312870D01*
X371136Y312976D01*
X371100Y313065D01*
X371056Y313138D01*
X371004Y313195D01*
X370944Y313236D01*
X370876Y313260D01*
X370800Y313268D01*
X372400D01*
X372324Y313260D01*
D02*
G37*
G36*
X368859D02*
X368791Y313236D01*
X368731Y313195D01*
X368679Y313138D01*
X368635Y313065D01*
X368599Y312976D01*
X368571Y312870D01*
X368551Y312748D01*
X368539Y312610D01*
X368535Y312456D01*
X367735D01*
X367731Y312610D01*
X367719Y312748D01*
X367699Y312870D01*
X367671Y312976D01*
X367635Y313065D01*
X367591Y313138D01*
X367539Y313195D01*
X367479Y313236D01*
X367411Y313260D01*
X367335Y313268D01*
X368935D01*
X368859Y313260D01*
D02*
G37*
G36*
X375346Y313256D02*
X375349Y313085D01*
X375358Y313088D01*
X375363Y312974D01*
X375378Y312867D01*
X375402Y312767D01*
X375436Y312672D01*
X375481Y312585D01*
X375534Y312504D01*
X375598Y312430D01*
X375671Y312362D01*
X375754Y312301D01*
X375847Y312247D01*
X374265Y311768D01*
X374320Y311875D01*
X374414Y312088D01*
X374452Y312195D01*
X374511Y312407D01*
X374532Y312512D01*
X374547Y312618D01*
X374550Y312659D01*
X374542Y312747D01*
X374522Y312868D01*
X374494Y312974D01*
X374458Y313063D01*
X374414Y313136D01*
X374362Y313193D01*
X374302Y313234D01*
X374234Y313259D01*
X374158Y313268D01*
X375346Y313256D01*
D02*
G37*
G36*
X365124Y313259D02*
X365056Y313234D01*
X364996Y313193D01*
X364944Y313136D01*
X364900Y313063D01*
X364864Y312974D01*
X364836Y312869D01*
X364816Y312747D01*
X364804Y312610D01*
X364803Y312554D01*
X364804Y312510D01*
X364817Y312402D01*
X364838Y312298D01*
X364868Y312196D01*
X364907Y312097D01*
X364954Y312000D01*
X365009Y311907D01*
X365073Y311816D01*
X365146Y311729D01*
X365227Y311644D01*
X363573D01*
X363654Y311729D01*
X363727Y311816D01*
X363791Y311907D01*
X363846Y312000D01*
X363893Y312097D01*
X363932Y312196D01*
X363962Y312298D01*
X363983Y312402D01*
X363996Y312510D01*
X364000Y312608D01*
Y312608D01*
X363962Y313248D01*
X363953Y313256D01*
X365200Y313268D01*
X365124Y313259D01*
D02*
G37*
G36*
X372004Y312194D02*
X372016Y312055D01*
X372036Y311934D01*
X372064Y311828D01*
X372100Y311739D01*
X372144Y311666D01*
X372196Y311609D01*
X372256Y311568D01*
X372324Y311544D01*
X372400Y311536D01*
X370800D01*
X370876Y311544D01*
X370944Y311568D01*
X371004Y311609D01*
X371056Y311666D01*
X371100Y311739D01*
X371136Y311828D01*
X371164Y311934D01*
X371184Y312055D01*
X371196Y312194D01*
X371200Y312348D01*
X372000D01*
X372004Y312194D01*
D02*
G37*
G36*
X368539D02*
X368551Y312055D01*
X368571Y311934D01*
X368599Y311828D01*
X368635Y311739D01*
X368679Y311666D01*
X368731Y311609D01*
X368791Y311568D01*
X368859Y311544D01*
X368935Y311536D01*
X367335D01*
X367411Y311544D01*
X367479Y311568D01*
X367539Y311609D01*
X367591Y311666D01*
X367635Y311739D01*
X367671Y311828D01*
X367699Y311934D01*
X367719Y312055D01*
X367731Y312194D01*
X367735Y312348D01*
X368535D01*
X368539Y312194D01*
D02*
G37*
G36*
X395996Y311463D02*
X396112Y311363D01*
X396223Y311280D01*
X396326Y311216D01*
X396424Y311169D01*
X396514Y311140D01*
X396598Y311129D01*
X396675Y311136D01*
X396746Y311161D01*
X396810Y311204D01*
X395588Y310170D01*
X395639Y310225D01*
X395673Y310288D01*
X395687Y310358D01*
X395683Y310435D01*
X395660Y310520D01*
X395619Y310612D01*
X395559Y310712D01*
X395481Y310818D01*
X395383Y310932D01*
X395268Y311054D01*
X395872Y311581D01*
X395996Y311463D01*
D02*
G37*
G36*
X368892Y309056D02*
X368824Y309032D01*
X368764Y308991D01*
X368712Y308934D01*
X368668Y308861D01*
X368632Y308772D01*
X368604Y308666D01*
X368591Y308587D01*
X368607Y308509D01*
X368637Y308407D01*
X368677Y308309D01*
X368725Y308214D01*
X368781Y308122D01*
X368847Y308034D01*
X368921Y307948D01*
X369003Y307866D01*
X367351Y307821D01*
X367430Y307908D01*
X367501Y307998D01*
X367563Y308091D01*
X367618Y308186D01*
X367663Y308283D01*
X367701Y308383D01*
X367730Y308486D01*
X367747Y308572D01*
X367732Y308666D01*
X367704Y308772D01*
X367668Y308861D01*
X367624Y308934D01*
X367572Y308991D01*
X367512Y309032D01*
X367444Y309056D01*
X367368Y309064D01*
X368968D01*
X368892Y309056D01*
D02*
G37*
G36*
X340874D02*
X340806Y309032D01*
X340746Y308991D01*
X340694Y308934D01*
X340650Y308861D01*
X340614Y308772D01*
X340586Y308666D01*
X340574Y308590D01*
X340590Y308514D01*
X340620Y308413D01*
X340660Y308316D01*
X340708Y308222D01*
X340766Y308131D01*
X340832Y308043D01*
X340907Y307959D01*
X340990Y307878D01*
X339338Y307808D01*
X339417Y307897D01*
X339487Y307988D01*
X339548Y308082D01*
X339602Y308177D01*
X339647Y308276D01*
X339684Y308376D01*
X339713Y308479D01*
X339730Y308567D01*
X339714Y308666D01*
X339686Y308772D01*
X339650Y308861D01*
X339606Y308934D01*
X339554Y308991D01*
X339494Y309032D01*
X339426Y309056D01*
X339350Y309064D01*
X340950D01*
X340874Y309056D01*
D02*
G37*
G36*
X372374D02*
X372306Y309032D01*
X372246Y308991D01*
X372194Y308934D01*
X372150Y308861D01*
X372114Y308772D01*
X372086Y308666D01*
X372066Y308544D01*
X372060Y308478D01*
X372068Y308418D01*
X372090Y308314D01*
X372120Y308213D01*
X372160Y308116D01*
X372208Y308021D01*
X372266Y307930D01*
X372332Y307843D01*
X372407Y307759D01*
X372490Y307678D01*
X370838Y307608D01*
X370917Y307697D01*
X370987Y307788D01*
X371048Y307882D01*
X371102Y307977D01*
X371147Y308076D01*
X371184Y308176D01*
X371213Y308279D01*
X371234Y308384D01*
X371242Y308455D01*
X371234Y308544D01*
X371214Y308666D01*
X371186Y308772D01*
X371150Y308861D01*
X371106Y308934D01*
X371054Y308991D01*
X370994Y309032D01*
X370926Y309056D01*
X370850Y309064D01*
X372450D01*
X372374Y309056D01*
D02*
G37*
G36*
X371303Y305436D02*
X371326Y305180D01*
X371346Y305076D01*
X371372Y304988D01*
X371404Y304916D01*
X371441Y304860D01*
X371484Y304820D01*
X371533Y304796D01*
X371588Y304788D01*
X370212D01*
X370267Y304796D01*
X370316Y304820D01*
X370359Y304860D01*
X370396Y304916D01*
X370428Y304988D01*
X370454Y305076D01*
X370474Y305180D01*
X370489Y305300D01*
X370497Y305436D01*
X370500Y305588D01*
X371300D01*
X371303Y305436D01*
D02*
G37*
G36*
X369090Y306209D02*
X369029Y306109D01*
X368975Y306008D01*
X368929Y305905D01*
X368889Y305802D01*
X368857Y305698D01*
X368832Y305594D01*
X368814Y305488D01*
X368806Y305403D01*
X368826Y305180D01*
X368846Y305076D01*
X368872Y304988D01*
X368904Y304916D01*
X368941Y304860D01*
X368984Y304820D01*
X369033Y304796D01*
X369088Y304788D01*
X367712D01*
X367767Y304796D01*
X367816Y304820D01*
X367859Y304860D01*
X367896Y304916D01*
X367928Y304988D01*
X367954Y305076D01*
X367974Y305180D01*
X367988Y305295D01*
X367981Y305347D01*
X367957Y305450D01*
X367924Y305547D01*
X367882Y305640D01*
X367830Y305728D01*
X367769Y305810D01*
X367698Y305888D01*
X367618Y305961D01*
X367528Y306029D01*
X369158Y306309D01*
X369090Y306209D01*
D02*
G37*
G36*
X361103Y305436D02*
X361126Y305180D01*
X361146Y305076D01*
X361172Y304988D01*
X361204Y304916D01*
X361241Y304860D01*
X361284Y304820D01*
X361333Y304796D01*
X361388Y304788D01*
X360012D01*
X360067Y304796D01*
X360116Y304820D01*
X360159Y304860D01*
X360196Y304916D01*
X360228Y304988D01*
X360254Y305076D01*
X360274Y305180D01*
X360289Y305300D01*
X360297Y305436D01*
X360300Y305588D01*
X361100D01*
X361103Y305436D01*
D02*
G37*
G36*
X350903D02*
X350926Y305180D01*
X350946Y305076D01*
X350972Y304988D01*
X351004Y304916D01*
X351041Y304860D01*
X351084Y304820D01*
X351133Y304796D01*
X351188Y304788D01*
X349812D01*
X349867Y304796D01*
X349916Y304820D01*
X349959Y304860D01*
X349996Y304916D01*
X350028Y304988D01*
X350054Y305076D01*
X350074Y305180D01*
X350089Y305300D01*
X350097Y305436D01*
X350100Y305588D01*
X350900D01*
X350903Y305436D01*
D02*
G37*
G36*
X348303D02*
X348326Y305180D01*
X348346Y305076D01*
X348372Y304988D01*
X348404Y304916D01*
X348441Y304860D01*
X348484Y304820D01*
X348533Y304796D01*
X348588Y304788D01*
X347212D01*
X347267Y304796D01*
X347316Y304820D01*
X347359Y304860D01*
X347396Y304916D01*
X347428Y304988D01*
X347454Y305076D01*
X347474Y305180D01*
X347488Y305300D01*
X347497Y305436D01*
X347500Y305588D01*
X348300D01*
X348303Y305436D01*
D02*
G37*
G36*
X345776D02*
X345793Y305180D01*
X345808Y305076D01*
X345827Y304988D01*
X345851Y304916D01*
X345879Y304860D01*
X345911Y304820D01*
X345947Y304796D01*
X345988Y304788D01*
X344612D01*
X344681Y304796D01*
X344742Y304820D01*
X344796Y304860D01*
X344843Y304916D01*
X344883Y304988D01*
X344916Y305076D01*
X344941Y305180D01*
X344959Y305300D01*
X344970Y305436D01*
X344973Y305588D01*
X345774D01*
X345776Y305436D01*
D02*
G37*
G36*
X343203D02*
X343226Y305180D01*
X343246Y305076D01*
X343272Y304988D01*
X343304Y304916D01*
X343341Y304860D01*
X343384Y304820D01*
X343433Y304796D01*
X343488Y304788D01*
X342112D01*
X342167Y304796D01*
X342216Y304820D01*
X342259Y304860D01*
X342296Y304916D01*
X342328Y304988D01*
X342354Y305076D01*
X342374Y305180D01*
X342389Y305300D01*
X342397Y305436D01*
X342400Y305588D01*
X343200D01*
X343203Y305436D01*
D02*
G37*
G36*
X340946Y306071D02*
X340873Y305984D01*
X340809Y305893D01*
X340754Y305800D01*
X340707Y305703D01*
X340668Y305604D01*
X340638Y305502D01*
X340617Y305398D01*
X340611Y305346D01*
X340626Y305180D01*
X340646Y305076D01*
X340672Y304988D01*
X340704Y304916D01*
X340741Y304860D01*
X340784Y304820D01*
X340833Y304796D01*
X340888Y304788D01*
X339512D01*
X339567Y304796D01*
X339616Y304820D01*
X339659Y304860D01*
X339696Y304916D01*
X339728Y304988D01*
X339754Y305076D01*
X339774Y305180D01*
X339789Y305300D01*
X339791Y305333D01*
X339783Y305398D01*
X339762Y305502D01*
X339732Y305604D01*
X339693Y305703D01*
X339646Y305800D01*
X339591Y305893D01*
X339527Y305984D01*
X339454Y306071D01*
X339373Y306156D01*
X341027D01*
X340946Y306071D01*
D02*
G37*
G36*
X414071Y304105D02*
X413996Y304024D01*
X413929Y303939D01*
X413870Y303850D01*
X413819Y303757D01*
X413776Y303660D01*
X413741Y303558D01*
X413715Y303453D01*
X413696Y303344D01*
X413685Y303230D01*
X413682Y303113D01*
X412513Y304282D01*
X412630Y304285D01*
X412744Y304296D01*
X412853Y304315D01*
X412958Y304342D01*
X413060Y304376D01*
X413157Y304419D01*
X413250Y304470D01*
X413339Y304529D01*
X413424Y304596D01*
X413505Y304671D01*
X414071Y304105D01*
D02*
G37*
G36*
X375726Y399681D02*
X375519Y399181D01*
X375306D01*
X374578Y398880D01*
X374021Y398322D01*
X373719Y397594D01*
Y396849D01*
X330559Y353690D01*
X330294Y353293D01*
X330201Y352824D01*
Y302608D01*
X329701Y302401D01*
X329322Y302780D01*
X328594Y303081D01*
X327806D01*
X327593Y302993D01*
X327361Y303169D01*
X327181Y303363D01*
Y304094D01*
X326880Y304822D01*
X326322Y305380D01*
X325594Y305681D01*
X324806D01*
X324078Y305380D01*
X323943Y305244D01*
X323412Y305421D01*
X323376Y305670D01*
X328265Y310559D01*
X328530Y310956D01*
X328624Y311424D01*
Y361656D01*
X368987Y402019D01*
X369594D01*
X370322Y402320D01*
X370880Y402878D01*
X371156Y403544D01*
X371643Y403764D01*
X375726Y399681D01*
D02*
G37*
G36*
X385024Y303073D02*
X384956Y303048D01*
X384896Y303008D01*
X384844Y302951D01*
X384800Y302878D01*
X384764Y302788D01*
X384736Y302683D01*
X384716Y302561D01*
X384704Y302423D01*
X384700Y302269D01*
X383900D01*
X383896Y302423D01*
X383884Y302561D01*
X383864Y302683D01*
X383836Y302788D01*
X383800Y302878D01*
X383756Y302951D01*
X383704Y303008D01*
X383644Y303048D01*
X383576Y303073D01*
X383500Y303081D01*
X385100D01*
X385024Y303073D01*
D02*
G37*
G36*
X325972Y302806D02*
X325887Y302727D01*
X325811Y302644D01*
X325744Y302558D01*
X325686Y302469D01*
X325637Y302376D01*
X325597Y302279D01*
X325565Y302179D01*
X325543Y302075D01*
X325530Y301967D01*
X325525Y301856D01*
X324725Y301910D01*
X324721Y302019D01*
X324709Y302126D01*
X324689Y302232D01*
X324661Y302335D01*
X324624Y302436D01*
X324580Y302535D01*
X324527Y302632D01*
X324467Y302727D01*
X324398Y302820D01*
X324322Y302911D01*
X325972Y302806D01*
D02*
G37*
G36*
X384704Y301504D02*
X384716Y301367D01*
X384736Y301245D01*
X384764Y301140D01*
X384800Y301051D01*
X384844Y300977D01*
X384896Y300920D01*
X384956Y300880D01*
X385024Y300855D01*
X385100Y300846D01*
X383539Y300858D01*
X383607Y300866D01*
X383669Y300890D01*
X383723Y300930D01*
X383770Y300986D01*
X383810Y301058D01*
X383842Y301146D01*
X383868Y301250D01*
X383886Y301370D01*
X383896Y301506D01*
X383900Y301658D01*
X384700D01*
X384704Y301504D01*
D02*
G37*
G36*
X328974Y300195D02*
X328903Y300105D01*
X328841Y300012D01*
X328787Y299917D01*
X328741Y299819D01*
X328704Y299719D01*
X328675Y299616D01*
X328654Y299511D01*
X328642Y299404D01*
X328637Y299294D01*
X327837Y299267D01*
X327833Y299378D01*
X327820Y299485D01*
X327798Y299590D01*
X327767Y299691D01*
X327728Y299789D01*
X327680Y299884D01*
X327623Y299975D01*
X327558Y300064D01*
X327483Y300149D01*
X327400Y300231D01*
X329053Y300283D01*
X328974Y300195D01*
D02*
G37*
G36*
X358733Y299004D02*
X358684Y298980D01*
X358641Y298940D01*
X358604Y298884D01*
X358572Y298812D01*
X358546Y298724D01*
X358526Y298620D01*
X358511Y298500D01*
X358503Y298364D01*
X358500Y298212D01*
X357700D01*
X357697Y298364D01*
X357674Y298620D01*
X357654Y298724D01*
X357628Y298812D01*
X357596Y298884D01*
X357559Y298940D01*
X357516Y298980D01*
X357467Y299004D01*
X357412Y299012D01*
X358788D01*
X358733Y299004D01*
D02*
G37*
G36*
X377010Y299746D02*
X377098Y299673D01*
X377189Y299609D01*
X377282Y299554D01*
X377379Y299507D01*
X377478Y299468D01*
X377579Y299438D01*
X377684Y299417D01*
X377786Y299405D01*
X377913Y299416D01*
X378035Y299436D01*
X378140Y299464D01*
X378230Y299500D01*
X378303Y299544D01*
X378360Y299596D01*
X378400Y299656D01*
X378425Y299724D01*
X378433Y299800D01*
Y298200D01*
X378425Y298276D01*
X378400Y298344D01*
X378360Y298404D01*
X378303Y298456D01*
X378230Y298500D01*
X378140Y298536D01*
X378035Y298564D01*
X377913Y298584D01*
X377786Y298595D01*
X377684Y298583D01*
X377579Y298562D01*
X377478Y298532D01*
X377379Y298493D01*
X377282Y298446D01*
X377189Y298391D01*
X377098Y298327D01*
X377010Y298254D01*
X376925Y298173D01*
Y299827D01*
X377010Y299746D01*
D02*
G37*
G36*
X331828Y298352D02*
X331840Y298214D01*
X331860Y298092D01*
X331888Y297986D01*
X331924Y297897D01*
X331968Y297824D01*
X332020Y297767D01*
X332080Y297727D01*
X332148Y297702D01*
X332224Y297694D01*
X330624D01*
X330700Y297702D01*
X330768Y297727D01*
X330828Y297767D01*
X330880Y297824D01*
X330924Y297897D01*
X330960Y297986D01*
X330988Y298092D01*
X331008Y298214D01*
X331020Y298352D01*
X331024Y298506D01*
X331824D01*
X331828Y298352D01*
D02*
G37*
G36*
X328641D02*
X328653Y298214D01*
X328673Y298092D01*
X328701Y297986D01*
X328737Y297897D01*
X328781Y297824D01*
X328833Y297767D01*
X328893Y297727D01*
X328961Y297702D01*
X329037Y297694D01*
X327437D01*
X327513Y297702D01*
X327581Y297727D01*
X327641Y297767D01*
X327693Y297824D01*
X327737Y297897D01*
X327773Y297986D01*
X327801Y298092D01*
X327821Y298214D01*
X327833Y298352D01*
X327837Y298506D01*
X328637D01*
X328641Y298352D01*
D02*
G37*
G36*
X325529D02*
X325541Y298214D01*
X325561Y298092D01*
X325589Y297986D01*
X325625Y297897D01*
X325669Y297824D01*
X325721Y297767D01*
X325781Y297727D01*
X325849Y297702D01*
X325925Y297694D01*
X324325D01*
X324401Y297702D01*
X324469Y297727D01*
X324529Y297767D01*
X324581Y297824D01*
X324625Y297897D01*
X324661Y297986D01*
X324689Y298092D01*
X324709Y298214D01*
X324721Y298352D01*
X324725Y298506D01*
X325525D01*
X325529Y298352D01*
D02*
G37*
G36*
X322380D02*
X322392Y298214D01*
X322412Y298092D01*
X322440Y297986D01*
X322476Y297897D01*
X322520Y297824D01*
X322572Y297767D01*
X322632Y297727D01*
X322700Y297702D01*
X322776Y297694D01*
X321176D01*
X321252Y297702D01*
X321320Y297727D01*
X321380Y297767D01*
X321432Y297824D01*
X321476Y297897D01*
X321512Y297986D01*
X321540Y298092D01*
X321560Y298214D01*
X321572Y298352D01*
X321576Y298506D01*
X322376D01*
X322380Y298352D01*
D02*
G37*
G36*
X353652Y299004D02*
X353620Y298980D01*
X353592Y298940D01*
X353568Y298884D01*
X353547Y298812D01*
X353530Y298724D01*
X353517Y298620D01*
X353502Y298364D01*
X353500Y298242D01*
X353504Y298140D01*
X353518Y298032D01*
X353541Y297928D01*
X353572Y297829D01*
X353613Y297732D01*
X353663Y297640D01*
X353722Y297552D01*
X353789Y297468D01*
X353866Y297387D01*
X353952Y297310D01*
X352305Y297170D01*
X352380Y297263D01*
X352447Y297358D01*
X352506Y297454D01*
X352558Y297552D01*
X352601Y297652D01*
X352637Y297754D01*
X352664Y297857D01*
X352684Y297963D01*
X352696Y298070D01*
X352700Y298179D01*
X353068Y298212D01*
X352700D01*
X352696Y298364D01*
X352684Y298500D01*
X352665Y298620D01*
X352638Y298724D01*
X352603Y298812D01*
X352560Y298884D01*
X352510Y298940D01*
X352452Y298980D01*
X352386Y299004D01*
X352312Y299012D01*
X353688D01*
X353652Y299004D01*
D02*
G37*
G36*
X385924Y297146D02*
X385856Y297121D01*
X385796Y297081D01*
X385744Y297024D01*
X385700Y296951D01*
X385664Y296862D01*
X385636Y296756D01*
X385616Y296634D01*
X385604Y296496D01*
X385600Y296342D01*
X384800D01*
X384796Y296496D01*
X384784Y296634D01*
X384764Y296756D01*
X384736Y296862D01*
X384700Y296951D01*
X384656Y297024D01*
X384604Y297081D01*
X384544Y297121D01*
X384476Y297146D01*
X384400Y297154D01*
X386000D01*
X385924Y297146D01*
D02*
G37*
G36*
X317004Y296976D02*
X317016Y296840D01*
X317036Y296720D01*
X317064Y296616D01*
X317100Y296528D01*
X317144Y296456D01*
X317196Y296400D01*
X317256Y296360D01*
X317324Y296336D01*
X317400Y296328D01*
X315800D01*
X315876Y296336D01*
X315944Y296360D01*
X316004Y296400D01*
X316056Y296456D01*
X316100Y296528D01*
X316136Y296616D01*
X316164Y296720D01*
X316184Y296840D01*
X316196Y296976D01*
X316200Y297128D01*
X317000D01*
X317004Y296976D01*
D02*
G37*
G36*
X385604Y295702D02*
X385616Y295564D01*
X385636Y295442D01*
X385664Y295337D01*
X385700Y295248D01*
X385744Y295174D01*
X385796Y295118D01*
X385856Y295077D01*
X385924Y295053D01*
X386000Y295044D01*
X384400D01*
X384476Y295053D01*
X384544Y295077D01*
X384604Y295118D01*
X384656Y295174D01*
X384700Y295248D01*
X384736Y295337D01*
X384764Y295442D01*
X384784Y295564D01*
X384796Y295702D01*
X384800Y295856D01*
X385600D01*
X385604Y295702D01*
D02*
G37*
G36*
X412604Y295010D02*
X412617Y294902D01*
X412638Y294798D01*
X412668Y294696D01*
X412707Y294597D01*
X412754Y294500D01*
X412809Y294407D01*
X412873Y294316D01*
X412946Y294229D01*
X413027Y294144D01*
X411373D01*
X411454Y294229D01*
X411527Y294316D01*
X411591Y294407D01*
X411646Y294500D01*
X411693Y294597D01*
X411732Y294696D01*
X411762Y294798D01*
X411783Y294902D01*
X411796Y295010D01*
X411800Y295120D01*
X412600D01*
X412604Y295010D01*
D02*
G37*
G36*
X376878Y294232D02*
X376886Y294134D01*
X376902Y294037D01*
X376928Y293942D01*
X376963Y293849D01*
X377007Y293757D01*
X377060Y293667D01*
X377122Y293578D01*
X377194Y293491D01*
X377274Y293405D01*
X376713Y292835D01*
X376627Y292915D01*
X376540Y292986D01*
X376451Y293048D01*
X376361Y293101D01*
X376269Y293144D01*
X376176Y293178D01*
X376081Y293203D01*
X375985Y293219D01*
X375887Y293225D01*
X375788Y293222D01*
X376879Y294331D01*
X376878Y294232D01*
D02*
G37*
G36*
X378237Y292300D02*
X378229Y292376D01*
X378205Y292444D01*
X378164Y292504D01*
X378108Y292556D01*
X378034Y292600D01*
X377945Y292636D01*
X377839Y292664D01*
X377718Y292684D01*
X377580Y292696D01*
X377425Y292700D01*
Y293500D01*
X377580Y293504D01*
X377718Y293516D01*
X377839Y293536D01*
X377945Y293564D01*
X378034Y293600D01*
X378108Y293644D01*
X378164Y293696D01*
X378205Y293756D01*
X378229Y293824D01*
X378237Y293900D01*
Y292300D01*
D02*
G37*
G36*
X386024Y291147D02*
X385956Y291123D01*
X385896Y291082D01*
X385844Y291026D01*
X385800Y290952D01*
X385764Y290863D01*
X385736Y290758D01*
X385716Y290636D01*
X385704Y290498D01*
X385700Y290343D01*
X384900D01*
X384896Y290498D01*
X384884Y290636D01*
X384864Y290758D01*
X384836Y290863D01*
X384800Y290952D01*
X384756Y291026D01*
X384704Y291082D01*
X384644Y291123D01*
X384576Y291147D01*
X384500Y291156D01*
X386100D01*
X386024Y291147D01*
D02*
G37*
G36*
X385704Y289404D02*
X385716Y289266D01*
X385736Y289144D01*
X385764Y289038D01*
X385800Y288949D01*
X385844Y288876D01*
X385896Y288819D01*
X385956Y288779D01*
X386024Y288754D01*
X386100Y288746D01*
X384500D01*
X384576Y288754D01*
X384644Y288779D01*
X384704Y288819D01*
X384756Y288876D01*
X384800Y288949D01*
X384836Y289038D01*
X384864Y289144D01*
X384884Y289266D01*
X384896Y289404D01*
X384900Y289558D01*
X385700D01*
X385704Y289404D01*
D02*
G37*
G36*
X332294Y289978D02*
X332319Y289910D01*
X332359Y289849D01*
X332416Y289797D01*
X332489Y289754D01*
X332578Y289718D01*
X332684Y289689D01*
X332806Y289669D01*
X332944Y289657D01*
X333098Y289653D01*
Y288854D01*
X332944Y288849D01*
X332806Y288838D01*
X332684Y288818D01*
X332578Y288790D01*
X332489Y288754D01*
X332416Y288709D01*
X332359Y288657D01*
X332319Y288597D01*
X332294Y288529D01*
X332286Y288454D01*
Y290054D01*
X332294Y289978D01*
D02*
G37*
G36*
X317324Y288876D02*
X317256Y288851D01*
X317196Y288811D01*
X317144Y288754D01*
X317100Y288681D01*
X317064Y288592D01*
X317036Y288486D01*
X317016Y288364D01*
X317004Y288226D01*
X317000Y288072D01*
X316200D01*
X316196Y288226D01*
X316184Y288364D01*
X316164Y288486D01*
X316136Y288592D01*
X316100Y288681D01*
X316056Y288754D01*
X316004Y288811D01*
X315944Y288851D01*
X315876Y288876D01*
X315800Y288884D01*
X317400D01*
X317324Y288876D01*
D02*
G37*
G36*
X442451Y289195D02*
X442538Y289122D01*
X442629Y289058D01*
X442723Y289003D01*
X442819Y288956D01*
X442918Y288917D01*
X443020Y288888D01*
X443124Y288866D01*
X443170Y288861D01*
X443221Y288865D01*
X443343Y288885D01*
X443448Y288913D01*
X443538Y288949D01*
X443611Y288993D01*
X443668Y289045D01*
X443708Y289105D01*
X443732Y289173D01*
X443741Y289249D01*
Y287649D01*
X443732Y287725D01*
X443708Y287793D01*
X443668Y287853D01*
X443611Y287905D01*
X443538Y287949D01*
X443448Y287985D01*
X443343Y288013D01*
X443221Y288033D01*
X443170Y288037D01*
X443124Y288032D01*
X443020Y288011D01*
X442918Y287981D01*
X442819Y287942D01*
X442723Y287895D01*
X442629Y287840D01*
X442538Y287776D01*
X442451Y287703D01*
X442366Y287622D01*
Y289276D01*
X442451Y289195D01*
D02*
G37*
G36*
X415054Y288871D02*
X415142Y288799D01*
X415233Y288735D01*
X415326Y288679D01*
X415422Y288632D01*
X415521Y288594D01*
X415623Y288564D01*
X415701Y288548D01*
X415784Y288562D01*
X415889Y288590D01*
X415978Y288626D01*
X416052Y288669D01*
X416108Y288721D01*
X416149Y288781D01*
X416173Y288849D01*
X416182Y288926D01*
Y287326D01*
X416173Y287402D01*
X416149Y287470D01*
X416108Y287529D01*
X416052Y287581D01*
X415978Y287626D01*
X415889Y287662D01*
X415784Y287689D01*
X415701Y287703D01*
X415623Y287687D01*
X415521Y287657D01*
X415422Y287619D01*
X415326Y287572D01*
X415233Y287516D01*
X415142Y287452D01*
X415054Y287380D01*
X414969Y287299D01*
Y288952D01*
X415054Y288871D01*
D02*
G37*
G36*
X328776Y287489D02*
X328755Y287473D01*
X328736Y287447D01*
X328720Y287410D01*
X328706Y287363D01*
X328695Y287305D01*
X328686Y287236D01*
X328676Y287068D01*
X328675Y286969D01*
X327875D01*
X327873Y287068D01*
X327855Y287305D01*
X327843Y287363D01*
X327830Y287410D01*
X327813Y287447D01*
X327795Y287473D01*
X327773Y287489D01*
X327749Y287494D01*
X328800D01*
X328776Y287489D01*
D02*
G37*
G36*
X325828Y287487D02*
X325769Y287464D01*
X325718Y287427D01*
X325673Y287375D01*
X325635Y287308D01*
X325604Y287226D01*
X325580Y287130D01*
X325563Y287018D01*
X325553Y286892D01*
X325550Y286751D01*
X324749D01*
X324746Y286892D01*
X324736Y287018D01*
X324719Y287130D01*
X324694Y287226D01*
X324664Y287308D01*
X324626Y287375D01*
X324581Y287427D01*
X324530Y287464D01*
X324471Y287487D01*
X324406Y287494D01*
X325893D01*
X325828Y287487D01*
D02*
G37*
G36*
X322700Y287486D02*
X322632Y287462D01*
X322572Y287422D01*
X322520Y287366D01*
X322476Y287294D01*
X322440Y287206D01*
X322412Y287102D01*
X322392Y286982D01*
X322380Y286846D01*
X322376Y286694D01*
X321576D01*
X321572Y286846D01*
X321560Y286982D01*
X321540Y287102D01*
X321512Y287206D01*
X321476Y287294D01*
X321432Y287366D01*
X321380Y287422D01*
X321320Y287462D01*
X321252Y287486D01*
X321176Y287494D01*
X322776D01*
X322700Y287486D01*
D02*
G37*
G36*
X381024Y285046D02*
X380956Y285021D01*
X380896Y284981D01*
X380844Y284924D01*
X380800Y284851D01*
X380764Y284762D01*
X380736Y284656D01*
X380716Y284534D01*
X380704Y284396D01*
X380700Y284242D01*
X379900D01*
X379896Y284396D01*
X379884Y284534D01*
X379864Y284656D01*
X379836Y284762D01*
X379800Y284851D01*
X379756Y284924D01*
X379704Y284981D01*
X379644Y285021D01*
X379576Y285046D01*
X379500Y285054D01*
X381100D01*
X381024Y285046D01*
D02*
G37*
G36*
X380704Y283184D02*
X380716Y283046D01*
X380736Y282924D01*
X380764Y282818D01*
X380800Y282729D01*
X380844Y282656D01*
X380896Y282599D01*
X380956Y282558D01*
X381024Y282534D01*
X381100Y282526D01*
X379500D01*
X379576Y282534D01*
X379644Y282558D01*
X379704Y282599D01*
X379756Y282656D01*
X379800Y282729D01*
X379836Y282818D01*
X379864Y282924D01*
X379884Y283046D01*
X379896Y283184D01*
X379900Y283338D01*
X380700D01*
X380704Y283184D01*
D02*
G37*
G36*
X391256Y279573D02*
X391172Y279654D01*
X391084Y279727D01*
X390993Y279791D01*
X390899Y279846D01*
X390803Y279893D01*
X390704Y279932D01*
X390602Y279962D01*
X390498Y279983D01*
X390390Y279996D01*
X390283Y280000D01*
X390134Y279996D01*
X389996Y279984D01*
X389874Y279964D01*
X389768Y279936D01*
X389679Y279900D01*
X389606Y279856D01*
X389549Y279804D01*
X389509Y279744D01*
X389484Y279676D01*
X389476Y279600D01*
Y281200D01*
X389484Y281124D01*
X389509Y281056D01*
X389549Y280996D01*
X389606Y280944D01*
X389679Y280900D01*
X389768Y280864D01*
X389874Y280836D01*
X389996Y280816D01*
X390134Y280804D01*
X390283Y280800D01*
X390390Y280804D01*
X390498Y280817D01*
X390602Y280838D01*
X390704Y280868D01*
X390803Y280907D01*
X390899Y280954D01*
X390993Y281009D01*
X391084Y281073D01*
X391172Y281146D01*
X391256Y281227D01*
Y279573D01*
D02*
G37*
G36*
X366483Y280003D02*
X366413Y279912D01*
X366352Y279818D01*
X366298Y279723D01*
X366253Y279624D01*
X366216Y279524D01*
X366187Y279421D01*
X366166Y279316D01*
X366154Y279209D01*
X366150Y279099D01*
X365350Y279063D01*
X365346Y279174D01*
X365332Y279282D01*
X365310Y279386D01*
X365280Y279487D01*
X365240Y279584D01*
X365192Y279679D01*
X365134Y279769D01*
X365068Y279857D01*
X364993Y279941D01*
X364910Y280022D01*
X366562Y280092D01*
X366483Y280003D01*
D02*
G37*
G36*
X370712Y278053D02*
X370705Y278056D01*
X370687Y278058D01*
X370659Y278060D01*
X370268Y278066D01*
X370166Y278066D01*
Y278866D01*
X370235Y278867D01*
X370475Y278883D01*
X370501Y278889D01*
X370521Y278896D01*
X370533Y278904D01*
X370538Y278913D01*
X370712Y278053D01*
D02*
G37*
G36*
X356346Y277972D02*
X356273Y277884D01*
X356209Y277793D01*
X356154Y277699D01*
X356107Y277603D01*
X356068Y277504D01*
X356038Y277402D01*
X356017Y277298D01*
X356004Y277190D01*
X356000Y277080D01*
X355200D01*
X355196Y277190D01*
X355183Y277298D01*
X355162Y277402D01*
X355132Y277504D01*
X355093Y277603D01*
X355046Y277699D01*
X354991Y277793D01*
X354927Y277884D01*
X354854Y277972D01*
X354773Y278057D01*
X356427D01*
X356346Y277972D01*
D02*
G37*
G36*
X368803Y276436D02*
X368826Y276180D01*
X368846Y276076D01*
X368872Y275988D01*
X368904Y275916D01*
X368941Y275860D01*
X368984Y275820D01*
X369033Y275796D01*
X369088Y275788D01*
X367712D01*
X367767Y275796D01*
X367816Y275820D01*
X367859Y275860D01*
X367896Y275916D01*
X367928Y275988D01*
X367954Y276076D01*
X367974Y276180D01*
X367988Y276300D01*
X367997Y276436D01*
X368000Y276588D01*
X368800D01*
X368803Y276436D01*
D02*
G37*
G36*
X366153D02*
X366180Y276180D01*
X366204Y276076D01*
X366234Y275988D01*
X366272Y275916D01*
X366316Y275860D01*
X366366Y275820D01*
X366424Y275796D01*
X366488Y275788D01*
X365112D01*
X365157Y275796D01*
X365198Y275820D01*
X365233Y275860D01*
X365264Y275916D01*
X365290Y275988D01*
X365312Y276076D01*
X365329Y276180D01*
X365340Y276300D01*
X365350Y276588D01*
X366150D01*
X366153Y276436D01*
D02*
G37*
G36*
X353403D02*
X353426Y276180D01*
X353446Y276076D01*
X353472Y275988D01*
X353504Y275916D01*
X353541Y275860D01*
X353584Y275820D01*
X353633Y275796D01*
X353688Y275788D01*
X352312D01*
X352367Y275796D01*
X352416Y275820D01*
X352459Y275860D01*
X352496Y275916D01*
X352528Y275988D01*
X352554Y276076D01*
X352574Y276180D01*
X352589Y276300D01*
X352597Y276436D01*
X352600Y276588D01*
X353400D01*
X353403Y276436D01*
D02*
G37*
G36*
X350903D02*
X350926Y276180D01*
X350946Y276076D01*
X350972Y275988D01*
X351004Y275916D01*
X351041Y275860D01*
X351084Y275820D01*
X351133Y275796D01*
X351188Y275788D01*
X349812D01*
X349867Y275796D01*
X349916Y275820D01*
X349959Y275860D01*
X349996Y275916D01*
X350028Y275988D01*
X350054Y276076D01*
X350074Y276180D01*
X350089Y276300D01*
X350097Y276436D01*
X350100Y276588D01*
X350900D01*
X350903Y276436D01*
D02*
G37*
G36*
X345703D02*
X345726Y276180D01*
X345746Y276076D01*
X345772Y275988D01*
X345804Y275916D01*
X345841Y275860D01*
X345884Y275820D01*
X345933Y275796D01*
X345988Y275788D01*
X344612D01*
X344667Y275796D01*
X344716Y275820D01*
X344759Y275860D01*
X344796Y275916D01*
X344828Y275988D01*
X344854Y276076D01*
X344874Y276180D01*
X344888Y276300D01*
X344897Y276436D01*
X344900Y276588D01*
X345700D01*
X345703Y276436D01*
D02*
G37*
G36*
X343203D02*
X343226Y276180D01*
X343246Y276076D01*
X343272Y275988D01*
X343304Y275916D01*
X343341Y275860D01*
X343384Y275820D01*
X343433Y275796D01*
X343488Y275788D01*
X342112D01*
X342167Y275796D01*
X342216Y275820D01*
X342259Y275860D01*
X342296Y275916D01*
X342328Y275988D01*
X342354Y276076D01*
X342374Y276180D01*
X342389Y276300D01*
X342397Y276436D01*
X342400Y276588D01*
X343200D01*
X343203Y276436D01*
D02*
G37*
G36*
X340603D02*
X340626Y276180D01*
X340646Y276076D01*
X340672Y275988D01*
X340704Y275916D01*
X340741Y275860D01*
X340784Y275820D01*
X340833Y275796D01*
X340888Y275788D01*
X339512D01*
X339567Y275796D01*
X339616Y275820D01*
X339659Y275860D01*
X339696Y275916D01*
X339728Y275988D01*
X339754Y276076D01*
X339774Y276180D01*
X339789Y276300D01*
X339797Y276436D01*
X339800Y276588D01*
X340600D01*
X340603Y276436D01*
D02*
G37*
G36*
X337024Y272000D02*
X337016Y272076D01*
X336992Y272144D01*
X336951Y272204D01*
X336894Y272256D01*
X336821Y272300D01*
X336732Y272336D01*
X336626Y272364D01*
X336504Y272384D01*
X336366Y272396D01*
X336212Y272400D01*
Y273200D01*
X336366Y273204D01*
X336504Y273216D01*
X336626Y273236D01*
X336732Y273264D01*
X336821Y273300D01*
X336894Y273344D01*
X336951Y273396D01*
X336992Y273456D01*
X337016Y273524D01*
X337024Y273600D01*
Y272000D01*
D02*
G37*
G36*
X353633Y270005D02*
X353584Y269984D01*
X353541Y269948D01*
X353504Y269898D01*
X353472Y269834D01*
X353446Y269756D01*
X353426Y269663D01*
X353412Y269556D01*
X353403Y269435D01*
X353400Y269300D01*
X352600D01*
X352597Y269435D01*
X352574Y269663D01*
X352554Y269756D01*
X352528Y269834D01*
X352496Y269898D01*
X352459Y269948D01*
X352416Y269984D01*
X352367Y270005D01*
X352312Y270012D01*
X353688D01*
X353633Y270005D01*
D02*
G37*
G36*
X348588Y270012D02*
X348549Y270005D01*
X348514Y269983D01*
X348483Y269947D01*
X348456Y269896D01*
X348433Y269830D01*
X348415Y269750D01*
X348400Y269656D01*
X348390Y269547D01*
X348382Y269285D01*
X347582D01*
X347579Y269425D01*
X347569Y269550D01*
X347552Y269661D01*
X347530Y269757D01*
X347500Y269838D01*
X347464Y269904D01*
X347422Y269956D01*
X347372Y269993D01*
X347317Y270016D01*
X347255Y270024D01*
X348588Y270012D01*
D02*
G37*
G36*
X371304Y270410D02*
X371317Y270302D01*
X371338Y270198D01*
X371368Y270096D01*
X371401Y270012D01*
X371588D01*
X371533Y270004D01*
X371484Y269980D01*
X371441Y269940D01*
X371437Y269934D01*
X371454Y269900D01*
X371509Y269807D01*
X371573Y269716D01*
X371646Y269629D01*
X371727Y269544D01*
X371317D01*
X371311Y269500D01*
X371303Y269364D01*
X371300Y269212D01*
X370500D01*
X370497Y269364D01*
X370481Y269544D01*
X370073D01*
X370154Y269629D01*
X370227Y269716D01*
X370291Y269807D01*
X370346Y269900D01*
X370363Y269934D01*
X370359Y269940D01*
X370316Y269980D01*
X370267Y270004D01*
X370212Y270012D01*
X370399D01*
X370432Y270096D01*
X370462Y270198D01*
X370483Y270302D01*
X370496Y270410D01*
X370500Y270520D01*
X371300D01*
X371304Y270410D01*
D02*
G37*
G36*
X361333Y270004D02*
X361284Y269980D01*
X361241Y269940D01*
X361204Y269884D01*
X361172Y269812D01*
X361146Y269724D01*
X361126Y269620D01*
X361111Y269500D01*
X361103Y269364D01*
X361100Y269212D01*
X360300D01*
X360297Y269364D01*
X360274Y269620D01*
X360254Y269724D01*
X360228Y269812D01*
X360196Y269884D01*
X360159Y269940D01*
X360116Y269980D01*
X360067Y270004D01*
X360012Y270012D01*
X361388D01*
X361333Y270004D01*
D02*
G37*
G36*
X358733D02*
X358684Y269980D01*
X358641Y269940D01*
X358604Y269884D01*
X358572Y269812D01*
X358546Y269724D01*
X358526Y269620D01*
X358511Y269500D01*
X358503Y269364D01*
X358500Y269212D01*
X357700D01*
X357697Y269364D01*
X357674Y269620D01*
X357654Y269724D01*
X357628Y269812D01*
X357596Y269884D01*
X357559Y269940D01*
X357516Y269980D01*
X357467Y270004D01*
X357412Y270012D01*
X358788D01*
X358733Y270004D01*
D02*
G37*
G36*
X338333D02*
X338284Y269980D01*
X338241Y269940D01*
X338204Y269884D01*
X338172Y269812D01*
X338146Y269724D01*
X338126Y269620D01*
X338111Y269500D01*
X338103Y269364D01*
X338100Y269212D01*
X337300D01*
X337297Y269364D01*
X337274Y269620D01*
X337254Y269724D01*
X337228Y269812D01*
X337196Y269884D01*
X337159Y269940D01*
X337116Y269980D01*
X337067Y270004D01*
X337012Y270012D01*
X338388D01*
X338333Y270004D01*
D02*
G37*
G36*
X383103Y269115D02*
X383095Y269191D01*
X383070Y269259D01*
X383030Y269319D01*
X382973Y269371D01*
X382900Y269415D01*
X382810Y269451D01*
X382705Y269479D01*
X382583Y269499D01*
X382445Y269511D01*
X382291Y269515D01*
Y270315D01*
X382445Y270319D01*
X382583Y270331D01*
X382705Y270351D01*
X382810Y270379D01*
X382900Y270415D01*
X382973Y270459D01*
X383030Y270511D01*
X383070Y270571D01*
X383095Y270639D01*
X383103Y270715D01*
Y269115D01*
D02*
G37*
G36*
X363933Y270004D02*
X363884Y269980D01*
X363841Y269940D01*
X363804Y269884D01*
X363772Y269812D01*
X363746Y269724D01*
X363726Y269620D01*
X363712Y269500D01*
X363703Y269372D01*
X363841Y269259D01*
X363923Y269204D01*
X364004Y269158D01*
X364082Y269122D01*
X364159Y269096D01*
X364233Y269079D01*
X364306Y269072D01*
X364376Y269075D01*
X363349Y268163D01*
X363359Y268232D01*
X363361Y268303D01*
X363352Y268375D01*
X363333Y268449D01*
X363305Y268524D01*
X363267Y268600D01*
X363219Y268677D01*
X363162Y268756D01*
X363094Y268836D01*
X363017Y268917D01*
X363312Y269212D01*
X362900D01*
X362897Y269364D01*
X362874Y269620D01*
X362854Y269724D01*
X362828Y269812D01*
X362796Y269884D01*
X362759Y269940D01*
X362716Y269980D01*
X362667Y270004D01*
X362612Y270012D01*
X363988D01*
X363933Y270004D01*
D02*
G37*
G36*
X338104Y267794D02*
X338116Y267655D01*
X338136Y267534D01*
X338164Y267428D01*
X338200Y267339D01*
X338244Y267266D01*
X338296Y267209D01*
X338356Y267168D01*
X338424Y267144D01*
X338500Y267136D01*
X336900D01*
X336976Y267144D01*
X337044Y267168D01*
X337104Y267209D01*
X337156Y267266D01*
X337200Y267339D01*
X337236Y267428D01*
X337264Y267534D01*
X337284Y267655D01*
X337296Y267794D01*
X337300Y267948D01*
X338100D01*
X338104Y267794D01*
D02*
G37*
G36*
X371302Y267857D02*
X371727D01*
X371646Y267772D01*
X371573Y267684D01*
X371509Y267593D01*
X371454Y267499D01*
X371407Y267403D01*
X371391Y267362D01*
X371400Y267339D01*
X371444Y267266D01*
X371496Y267209D01*
X371556Y267168D01*
X371624Y267144D01*
X371700Y267136D01*
X371325D01*
X371317Y267098D01*
X371304Y266990D01*
X371300Y266880D01*
X370500D01*
X370496Y266990D01*
X370483Y267098D01*
X370475Y267136D01*
X370100D01*
X370176Y267144D01*
X370244Y267168D01*
X370304Y267209D01*
X370356Y267266D01*
X370400Y267339D01*
X370409Y267362D01*
X370393Y267403D01*
X370346Y267499D01*
X370291Y267593D01*
X370227Y267684D01*
X370154Y267772D01*
X370073Y267857D01*
X370498D01*
X370500Y267948D01*
X371300D01*
X371302Y267857D01*
D02*
G37*
G36*
X375465Y266624D02*
X375490Y266556D01*
X375530Y266496D01*
X375587Y266444D01*
X375660Y266400D01*
X375749Y266364D01*
X375855Y266336D01*
X375977Y266316D01*
X376115Y266304D01*
X376269Y266300D01*
Y265500D01*
X376115Y265496D01*
X375977Y265484D01*
X375855Y265464D01*
X375749Y265436D01*
X375660Y265400D01*
X375587Y265356D01*
X375530Y265304D01*
X375490Y265244D01*
X375465Y265176D01*
X375457Y265100D01*
Y266700D01*
X375465Y266624D01*
D02*
G37*
G36*
X377456Y265416D02*
X378588Y264754D01*
X378471Y264722D01*
X378251Y264645D01*
X378148Y264599D01*
X378049Y264549D01*
X377954Y264495D01*
X377864Y264436D01*
X377778Y264372D01*
X377697Y264304D01*
X377620Y264231D01*
X376895Y264638D01*
X376972Y264722D01*
X377038Y264808D01*
X377092Y264897D01*
X377135Y264988D01*
X377168Y265082D01*
X377188Y265178D01*
X377198Y265278D01*
X377198Y265287D01*
X377193Y265291D01*
X377099Y265346D01*
X377003Y265393D01*
X376904Y265432D01*
X376802Y265462D01*
X376698Y265483D01*
X376590Y265496D01*
X376480Y265500D01*
Y266300D01*
X376590Y266304D01*
X376698Y266317D01*
X376802Y266338D01*
X376904Y266368D01*
X377003Y266407D01*
X377099Y266454D01*
X377193Y266509D01*
X377284Y266573D01*
X377372Y266646D01*
X377456Y266727D01*
Y265416D01*
D02*
G37*
G36*
X371624Y264656D02*
X371556Y264632D01*
X371496Y264591D01*
X371444Y264534D01*
X371400Y264461D01*
X371364Y264372D01*
X371336Y264266D01*
X371316Y264144D01*
X371304Y264006D01*
X371300Y263852D01*
X370500D01*
X370496Y264006D01*
X370484Y264144D01*
X370464Y264266D01*
X370436Y264372D01*
X370400Y264461D01*
X370356Y264534D01*
X370304Y264591D01*
X370244Y264632D01*
X370176Y264656D01*
X370100Y264664D01*
X371700D01*
X371624Y264656D01*
D02*
G37*
G36*
X338424D02*
X338356Y264632D01*
X338296Y264591D01*
X338244Y264534D01*
X338200Y264461D01*
X338164Y264372D01*
X338136Y264266D01*
X338116Y264144D01*
X338104Y264006D01*
X338100Y263852D01*
X337300D01*
X337296Y264006D01*
X337284Y264144D01*
X337264Y264266D01*
X337236Y264372D01*
X337200Y264461D01*
X337156Y264534D01*
X337104Y264591D01*
X337044Y264632D01*
X336976Y264656D01*
X336900Y264664D01*
X338500D01*
X338424Y264656D01*
D02*
G37*
G36*
X377539Y263590D02*
X377551Y263452D01*
X377571Y263330D01*
X377599Y263224D01*
X377635Y263135D01*
X377679Y263062D01*
X377731Y263005D01*
X377791Y262964D01*
X377859Y262940D01*
X377935Y262932D01*
X376335D01*
X376411Y262940D01*
X376479Y262964D01*
X376539Y263005D01*
X376591Y263062D01*
X376635Y263135D01*
X376671Y263224D01*
X376699Y263330D01*
X376719Y263452D01*
X376731Y263590D01*
X376735Y263744D01*
X377535D01*
X377539Y263590D01*
D02*
G37*
G36*
X371304D02*
X371316Y263452D01*
X371336Y263330D01*
X371364Y263224D01*
X371400Y263135D01*
X371444Y263062D01*
X371496Y263005D01*
X371556Y262964D01*
X371624Y262940D01*
X371700Y262932D01*
X370100D01*
X370176Y262940D01*
X370244Y262964D01*
X370304Y263005D01*
X370356Y263062D01*
X370400Y263135D01*
X370436Y263224D01*
X370464Y263330D01*
X370484Y263452D01*
X370496Y263590D01*
X370500Y263744D01*
X371300D01*
X371304Y263590D01*
D02*
G37*
G36*
X344904Y263190D02*
X344916Y263052D01*
X344936Y262930D01*
X344964Y262824D01*
X345000Y262735D01*
X345044Y262662D01*
X345096Y262605D01*
X345156Y262564D01*
X345224Y262540D01*
X345300Y262532D01*
X343700D01*
X343776Y262540D01*
X343844Y262564D01*
X343904Y262605D01*
X343956Y262662D01*
X344000Y262735D01*
X344036Y262824D01*
X344064Y262930D01*
X344084Y263052D01*
X344096Y263190D01*
X344100Y263344D01*
X344900D01*
X344904Y263190D01*
D02*
G37*
G36*
X338104D02*
X338116Y263052D01*
X338136Y262930D01*
X338164Y262824D01*
X338200Y262735D01*
X338244Y262662D01*
X338296Y262605D01*
X338356Y262564D01*
X338424Y262540D01*
X338500Y262532D01*
X336900D01*
X336976Y262540D01*
X337044Y262564D01*
X337104Y262605D01*
X337156Y262662D01*
X337200Y262735D01*
X337236Y262824D01*
X337264Y262930D01*
X337284Y263052D01*
X337296Y263190D01*
X337300Y263344D01*
X338100D01*
X338104Y263190D01*
D02*
G37*
G36*
X346851Y268817D02*
X347117Y268420D01*
X347902Y267635D01*
X348298Y267370D01*
X348767Y267277D01*
X352200D01*
X352668Y267370D01*
X352740Y267418D01*
X353150Y267198D01*
X353195Y266691D01*
X348058Y261554D01*
X347558Y261761D01*
Y263556D01*
X343811D01*
X343346Y263640D01*
Y265319D01*
X343300Y265346D01*
X343203Y265393D01*
X343186Y265400D01*
X342525D01*
X342452Y265356D01*
X342395Y265304D01*
X342354Y265244D01*
X342330Y265176D01*
X342322Y265100D01*
Y265400D01*
X341165D01*
Y265900D01*
X340665D01*
Y268160D01*
X338983D01*
X338924Y268635D01*
Y269200D01*
X346775D01*
X346851Y268817D01*
D02*
G37*
G36*
X402537Y260838D02*
X402423Y260718D01*
X402326Y260604D01*
X402247Y260497D01*
X402187Y260398D01*
X402144Y260304D01*
X402119Y260218D01*
X402113Y260138D01*
X402124Y260066D01*
X402153Y259999D01*
X402200Y259940D01*
X401074Y261066D01*
X401133Y261019D01*
X401199Y260990D01*
X401272Y260979D01*
X401352Y260986D01*
X401438Y261010D01*
X401532Y261053D01*
X401631Y261114D01*
X401738Y261192D01*
X401851Y261289D01*
X401971Y261403D01*
X402537Y260838D01*
D02*
G37*
G36*
X355900Y261011D02*
X356300D01*
X356224Y261002D01*
X356156Y260978D01*
X356096Y260938D01*
X356044Y260881D01*
X356000Y260808D01*
X355964Y260718D01*
X355949Y260662D01*
X355968Y260596D01*
X356007Y260497D01*
X356054Y260401D01*
X356109Y260307D01*
X356173Y260216D01*
X356246Y260128D01*
X356327Y260044D01*
X354673D01*
X354754Y260128D01*
X354827Y260216D01*
X354891Y260307D01*
X354946Y260401D01*
X354993Y260497D01*
X355032Y260596D01*
X355051Y260662D01*
X355036Y260718D01*
X355000Y260808D01*
X354956Y260881D01*
X354904Y260938D01*
X354844Y260978D01*
X354776Y261002D01*
X354700Y261011D01*
X355100D01*
X355100Y261020D01*
X355900D01*
X355900Y261011D01*
D02*
G37*
G36*
X445600Y261242D02*
X445688Y261170D01*
X445779Y261105D01*
X445872Y261050D01*
X445968Y261003D01*
X446067Y260965D01*
X446169Y260935D01*
X446274Y260913D01*
X446320Y260908D01*
X446371Y260912D01*
X446492Y260932D01*
X446598Y260960D01*
X446687Y260996D01*
X446760Y261040D01*
X446817Y261092D01*
X446858Y261152D01*
X446882Y261220D01*
X446890Y261296D01*
Y259696D01*
X446882Y259772D01*
X446858Y259840D01*
X446817Y259900D01*
X446760Y259952D01*
X446687Y259996D01*
X446598Y260032D01*
X446492Y260060D01*
X446371Y260080D01*
X446320Y260085D01*
X446274Y260079D01*
X446169Y260058D01*
X446067Y260028D01*
X445968Y259990D01*
X445872Y259943D01*
X445779Y259887D01*
X445688Y259823D01*
X445600Y259751D01*
X445515Y259670D01*
Y261323D01*
X445600Y261242D01*
D02*
G37*
G36*
X326924Y256903D02*
X326856Y256879D01*
X326796Y256839D01*
X326744Y256783D01*
X326700Y256711D01*
X326664Y256623D01*
X326636Y256519D01*
X326616Y256399D01*
X326604Y256263D01*
X326600Y256111D01*
X325800D01*
X325796Y256263D01*
X325784Y256399D01*
X325764Y256519D01*
X325736Y256623D01*
X325700Y256711D01*
X325656Y256783D01*
X325604Y256839D01*
X325544Y256879D01*
X325476Y256903D01*
X325400Y256911D01*
X327000D01*
X326924Y256903D01*
D02*
G37*
G36*
X386224Y256073D02*
X386156Y256048D01*
X386096Y256008D01*
X386044Y255951D01*
X386000Y255878D01*
X385964Y255788D01*
X385936Y255683D01*
X385916Y255561D01*
X385904Y255423D01*
X385900Y255269D01*
X385100D01*
X385096Y255423D01*
X385084Y255561D01*
X385064Y255683D01*
X385036Y255788D01*
X385000Y255878D01*
X384956Y255951D01*
X384904Y256008D01*
X384844Y256048D01*
X384776Y256073D01*
X384700Y256081D01*
X386300D01*
X386224Y256073D01*
D02*
G37*
G36*
X385904Y253804D02*
X385916Y253666D01*
X385936Y253544D01*
X385964Y253438D01*
X386000Y253349D01*
X386044Y253276D01*
X386096Y253219D01*
X386156Y253179D01*
X386224Y253154D01*
X386300Y253146D01*
X384700D01*
X384776Y253154D01*
X384844Y253179D01*
X384904Y253219D01*
X384956Y253276D01*
X385000Y253349D01*
X385036Y253438D01*
X385064Y253544D01*
X385084Y253666D01*
X385096Y253804D01*
X385100Y253958D01*
X385900D01*
X385904Y253804D01*
D02*
G37*
G36*
X376914Y252046D02*
X377002Y251973D01*
X377092Y251909D01*
X377186Y251854D01*
X377282Y251807D01*
X377381Y251768D01*
X377483Y251738D01*
X377587Y251717D01*
X377689Y251705D01*
X377816Y251716D01*
X377938Y251736D01*
X378044Y251764D01*
X378133Y251800D01*
X378206Y251844D01*
X378263Y251896D01*
X378303Y251956D01*
X378328Y252024D01*
X378336Y252100D01*
Y250500D01*
X378328Y250576D01*
X378303Y250644D01*
X378263Y250704D01*
X378206Y250756D01*
X378133Y250800D01*
X378044Y250836D01*
X377938Y250864D01*
X377816Y250884D01*
X377689Y250895D01*
X377587Y250883D01*
X377483Y250862D01*
X377381Y250832D01*
X377282Y250793D01*
X377186Y250746D01*
X377092Y250691D01*
X377002Y250627D01*
X376914Y250554D01*
X376829Y250473D01*
Y252127D01*
X376914Y252046D01*
D02*
G37*
G36*
X386024Y249446D02*
X385956Y249421D01*
X385896Y249381D01*
X385844Y249324D01*
X385800Y249251D01*
X385764Y249162D01*
X385736Y249056D01*
X385716Y248934D01*
X385704Y248796D01*
X385700Y248642D01*
X384900D01*
X384896Y248796D01*
X384884Y248934D01*
X384864Y249056D01*
X384836Y249162D01*
X384800Y249251D01*
X384756Y249324D01*
X384704Y249381D01*
X384644Y249421D01*
X384576Y249446D01*
X384500Y249454D01*
X386100D01*
X386024Y249446D01*
D02*
G37*
G36*
X385704Y248302D02*
X385716Y248164D01*
X385736Y248042D01*
X385764Y247937D01*
X385800Y247848D01*
X385844Y247774D01*
X385896Y247718D01*
X385956Y247677D01*
X386024Y247653D01*
X386100Y247644D01*
X384500D01*
X384576Y247653D01*
X384644Y247677D01*
X384704Y247718D01*
X384756Y247774D01*
X384800Y247848D01*
X384836Y247937D01*
X384864Y248042D01*
X384884Y248164D01*
X384896Y248302D01*
X384900Y248457D01*
X385700D01*
X385704Y248302D01*
D02*
G37*
G36*
X377110Y246446D02*
X377198Y246373D01*
X377289Y246309D01*
X377382Y246254D01*
X377479Y246207D01*
X377578Y246168D01*
X377679Y246138D01*
X377784Y246117D01*
X377844Y246110D01*
X377915Y246116D01*
X378036Y246136D01*
X378142Y246164D01*
X378231Y246200D01*
X378304Y246244D01*
X378361Y246296D01*
X378402Y246356D01*
X378426Y246424D01*
X378434Y246500D01*
Y244900D01*
X378426Y244976D01*
X378402Y245044D01*
X378361Y245104D01*
X378304Y245156D01*
X378231Y245200D01*
X378142Y245236D01*
X378036Y245264D01*
X377915Y245284D01*
X377844Y245290D01*
X377784Y245283D01*
X377679Y245262D01*
X377578Y245232D01*
X377479Y245193D01*
X377382Y245146D01*
X377289Y245091D01*
X377198Y245027D01*
X377110Y244954D01*
X377025Y244873D01*
Y246527D01*
X377110Y246446D01*
D02*
G37*
G36*
X372854Y246424D02*
X372879Y246356D01*
X372919Y246296D01*
X372976Y246244D01*
X373049Y246200D01*
X373138Y246164D01*
X373244Y246136D01*
X373366Y246116D01*
X373504Y246104D01*
X373658Y246100D01*
Y245300D01*
X373504Y245296D01*
X373366Y245284D01*
X373244Y245264D01*
X373138Y245236D01*
X373049Y245200D01*
X372976Y245156D01*
X372919Y245104D01*
X372879Y245044D01*
X372854Y244976D01*
X372846Y244900D01*
Y246500D01*
X372854Y246424D01*
D02*
G37*
G36*
X375338Y244873D02*
X375253Y244954D01*
X375166Y245027D01*
X375075Y245091D01*
X374981Y245146D01*
X374885Y245193D01*
X374786Y245232D01*
X374684Y245262D01*
X374580Y245283D01*
X374472Y245296D01*
X374362Y245300D01*
Y246100D01*
X374472Y246104D01*
X374580Y246117D01*
X374684Y246138D01*
X374786Y246168D01*
X374885Y246207D01*
X374981Y246254D01*
X375075Y246309D01*
X375166Y246373D01*
X375253Y246446D01*
X375338Y246527D01*
Y244873D01*
D02*
G37*
G36*
X386024Y243747D02*
X385956Y243723D01*
X385896Y243682D01*
X385844Y243626D01*
X385800Y243552D01*
X385764Y243463D01*
X385736Y243358D01*
X385716Y243236D01*
X385704Y243098D01*
X385700Y242944D01*
X384900D01*
X384896Y243098D01*
X384884Y243236D01*
X384864Y243358D01*
X384836Y243463D01*
X384800Y243552D01*
X384756Y243626D01*
X384704Y243682D01*
X384644Y243723D01*
X384576Y243747D01*
X384500Y243756D01*
X386100D01*
X386024Y243747D01*
D02*
G37*
G36*
X385704Y241904D02*
X385716Y241766D01*
X385736Y241644D01*
X385764Y241538D01*
X385800Y241449D01*
X385844Y241376D01*
X385896Y241319D01*
X385956Y241279D01*
X386024Y241254D01*
X386100Y241246D01*
X384500D01*
X384576Y241254D01*
X384644Y241279D01*
X384704Y241319D01*
X384756Y241376D01*
X384800Y241449D01*
X384836Y241538D01*
X384864Y241644D01*
X384884Y241766D01*
X384896Y241904D01*
X384900Y242058D01*
X385700D01*
X385704Y241904D01*
D02*
G37*
G36*
X371724Y239024D02*
X371656Y239000D01*
X371596Y238960D01*
X371544Y238903D01*
X371500Y238830D01*
X371464Y238740D01*
X371436Y238635D01*
X371416Y238513D01*
X371404Y238375D01*
X371400Y238221D01*
X370600D01*
X370596Y238375D01*
X370584Y238513D01*
X370564Y238635D01*
X370536Y238740D01*
X370500Y238830D01*
X370456Y238903D01*
X370404Y238960D01*
X370344Y239000D01*
X370276Y239024D01*
X370200Y239033D01*
X371800D01*
X371724Y239024D01*
D02*
G37*
G36*
X380924Y237546D02*
X380856Y237521D01*
X380796Y237481D01*
X380744Y237424D01*
X380700Y237351D01*
X380664Y237262D01*
X380636Y237156D01*
X380616Y237034D01*
X380604Y236896D01*
X380600Y236742D01*
X379800D01*
X379796Y236896D01*
X379784Y237034D01*
X379764Y237156D01*
X379736Y237262D01*
X379700Y237351D01*
X379656Y237424D01*
X379604Y237481D01*
X379544Y237521D01*
X379476Y237546D01*
X379400Y237554D01*
X381000D01*
X380924Y237546D01*
D02*
G37*
G36*
X380604Y235884D02*
X380616Y235746D01*
X380636Y235624D01*
X380664Y235518D01*
X380700Y235429D01*
X380744Y235356D01*
X380796Y235299D01*
X380856Y235259D01*
X380924Y235234D01*
X381000Y235226D01*
X379400D01*
X379476Y235234D01*
X379544Y235259D01*
X379604Y235299D01*
X379656Y235356D01*
X379700Y235429D01*
X379736Y235518D01*
X379764Y235624D01*
X379784Y235746D01*
X379796Y235884D01*
X379800Y236038D01*
X380600D01*
X380604Y235884D01*
D02*
G37*
G36*
X371404Y234398D02*
X371416Y234260D01*
X371436Y234138D01*
X371464Y234033D01*
X371500Y233944D01*
X371544Y233871D01*
X371596Y233814D01*
X371656Y233773D01*
X371724Y233749D01*
X371800Y233741D01*
X370200D01*
X370276Y233749D01*
X370344Y233773D01*
X370404Y233814D01*
X370456Y233871D01*
X370500Y233944D01*
X370536Y234033D01*
X370564Y234138D01*
X370584Y234260D01*
X370596Y234398D01*
X370600Y234553D01*
X371400D01*
X371404Y234398D01*
D02*
G37*
G36*
X328908Y234089D02*
X328933Y234021D01*
X328974Y233961D01*
X329031Y233909D01*
X329104Y233865D01*
X329193Y233829D01*
X329299Y233801D01*
X329420Y233781D01*
X329557Y233769D01*
X329711Y233765D01*
Y232965D01*
X328911Y233092D01*
X328899Y234165D01*
X328908Y234089D01*
D02*
G37*
G36*
X363288Y233753D02*
X363300Y232565D01*
X363292Y232641D01*
X363267Y232709D01*
X363226Y232769D01*
X363169Y232821D01*
X363095Y232865D01*
X363006Y232901D01*
X362901Y232929D01*
X362779Y232949D01*
X362642Y232961D01*
X362488Y232965D01*
Y233765D01*
X363288Y233753D01*
D02*
G37*
G36*
X416182Y232271D02*
X416173Y232347D01*
X416149Y232415D01*
X416108Y232475D01*
X416052Y232527D01*
X415978Y232571D01*
X415889Y232607D01*
X415784Y232635D01*
X415662Y232655D01*
X415524Y232667D01*
X415370Y232671D01*
Y233471D01*
X415524Y233475D01*
X415662Y233487D01*
X415784Y233507D01*
X415889Y233535D01*
X415978Y233571D01*
X416052Y233615D01*
X416108Y233667D01*
X416149Y233727D01*
X416173Y233795D01*
X416182Y233871D01*
Y232271D01*
D02*
G37*
G36*
X389484Y233795D02*
X389509Y233727D01*
X389549Y233667D01*
X389606Y233615D01*
X389679Y233571D01*
X389768Y233535D01*
X389874Y233507D01*
X389996Y233487D01*
X390134Y233475D01*
X390288Y233471D01*
Y232671D01*
X390134Y232667D01*
X389996Y232655D01*
X389874Y232635D01*
X389768Y232607D01*
X389679Y232571D01*
X389606Y232527D01*
X389549Y232475D01*
X389509Y232415D01*
X389484Y232347D01*
X389476Y232271D01*
Y233871D01*
X389484Y233795D01*
D02*
G37*
G36*
X442451Y231587D02*
X442538Y231515D01*
X442629Y231451D01*
X442723Y231395D01*
X442819Y231348D01*
X442918Y231310D01*
X443020Y231280D01*
X443124Y231259D01*
X443170Y231253D01*
X443221Y231258D01*
X443343Y231278D01*
X443448Y231306D01*
X443538Y231342D01*
X443611Y231386D01*
X443668Y231438D01*
X443708Y231498D01*
X443732Y231566D01*
X443741Y231642D01*
Y230042D01*
X443732Y230118D01*
X443708Y230186D01*
X443668Y230246D01*
X443611Y230298D01*
X443538Y230342D01*
X443448Y230378D01*
X443343Y230406D01*
X443221Y230426D01*
X443170Y230430D01*
X443124Y230425D01*
X443020Y230403D01*
X442918Y230374D01*
X442819Y230335D01*
X442723Y230288D01*
X442629Y230233D01*
X442538Y230169D01*
X442451Y230096D01*
X442366Y230015D01*
Y231668D01*
X442451Y231587D01*
D02*
G37*
G36*
X319554Y230314D02*
X319850Y230063D01*
X319980Y229971D01*
X320099Y229902D01*
X320207Y229855D01*
X320302Y229831D01*
X320387Y229830D01*
X320459Y229852D01*
X320520Y229896D01*
X319401Y228776D01*
X319445Y228837D01*
X319467Y228910D01*
X319465Y228994D01*
X319442Y229090D01*
X319395Y229198D01*
X319326Y229316D01*
X319234Y229447D01*
X319120Y229589D01*
X318824Y229908D01*
X319389Y230473D01*
X319554Y230314D01*
D02*
G37*
G36*
X338646Y229872D02*
X338573Y229784D01*
X338509Y229693D01*
X338454Y229599D01*
X338407Y229503D01*
X338368Y229404D01*
X338338Y229302D01*
X338317Y229198D01*
X338313Y229165D01*
X338316Y229132D01*
X338336Y229012D01*
X338364Y228908D01*
X338400Y228820D01*
X338444Y228748D01*
X338496Y228692D01*
X338556Y228652D01*
X338624Y228628D01*
X338700Y228620D01*
X337100D01*
X337176Y228628D01*
X337244Y228652D01*
X337304Y228692D01*
X337356Y228748D01*
X337400Y228820D01*
X337436Y228908D01*
X337464Y229012D01*
X337484Y229132D01*
X337487Y229165D01*
X337483Y229198D01*
X337462Y229302D01*
X337432Y229404D01*
X337393Y229503D01*
X337346Y229599D01*
X337291Y229693D01*
X337227Y229784D01*
X337154Y229872D01*
X337073Y229957D01*
X338727D01*
X338646Y229872D01*
D02*
G37*
G36*
X338724Y220184D02*
X338656Y220159D01*
X338596Y220119D01*
X338544Y220062D01*
X338500Y219989D01*
X338464Y219899D01*
X338436Y219794D01*
X338416Y219672D01*
X338404Y219534D01*
X338400Y219380D01*
X337600D01*
X337596Y219534D01*
X337584Y219672D01*
X337564Y219794D01*
X337536Y219899D01*
X337500Y219989D01*
X337456Y220062D01*
X337404Y220119D01*
X337344Y220159D01*
X337276Y220184D01*
X337200Y220192D01*
X338800D01*
X338724Y220184D01*
D02*
G37*
G36*
X338404Y217863D02*
X338416Y217725D01*
X338436Y217603D01*
X338464Y217497D01*
X338500Y217408D01*
X338544Y217335D01*
X338596Y217278D01*
X338656Y217238D01*
X338724Y217213D01*
X338800Y217205D01*
X337200D01*
X337276Y217213D01*
X337344Y217238D01*
X337404Y217278D01*
X337456Y217335D01*
X337500Y217408D01*
X337536Y217497D01*
X337564Y217603D01*
X337584Y217725D01*
X337596Y217863D01*
X337600Y218017D01*
X338400D01*
X338404Y217863D01*
D02*
G37*
G36*
X335348Y212900D02*
X335339Y212976D01*
X335315Y213044D01*
X335275Y213104D01*
X335218Y213156D01*
X335145Y213200D01*
X335055Y213236D01*
X334950Y213264D01*
X334828Y213284D01*
X334690Y213296D01*
X334536Y213300D01*
Y214100D01*
X334690Y214104D01*
X334828Y214116D01*
X334950Y214136D01*
X335055Y214164D01*
X335145Y214200D01*
X335218Y214244D01*
X335275Y214296D01*
X335315Y214356D01*
X335339Y214424D01*
X335348Y214500D01*
Y212900D01*
D02*
G37*
G36*
X369346Y207471D02*
X369273Y207384D01*
X369209Y207293D01*
X369154Y207200D01*
X369107Y207103D01*
X369068Y207004D01*
X369038Y206902D01*
X369017Y206798D01*
X369012Y206752D01*
X369016Y206701D01*
X369036Y206579D01*
X369064Y206474D01*
X369100Y206384D01*
X369144Y206311D01*
X369196Y206255D01*
X369256Y206214D01*
X369324Y206190D01*
X369400Y206182D01*
X367800D01*
X367876Y206190D01*
X367944Y206214D01*
X368004Y206255D01*
X368056Y206311D01*
X368100Y206384D01*
X368136Y206474D01*
X368164Y206579D01*
X368184Y206701D01*
X368188Y206752D01*
X368183Y206798D01*
X368162Y206902D01*
X368132Y207004D01*
X368093Y207103D01*
X368046Y207200D01*
X367991Y207293D01*
X367927Y207384D01*
X367854Y207471D01*
X367773Y207557D01*
X369427D01*
X369346Y207471D01*
D02*
G37*
G36*
X324604Y206734D02*
X324616Y206596D01*
X324636Y206475D01*
X324664Y206369D01*
X324700Y206280D01*
X324744Y206207D01*
X324796Y206150D01*
X324856Y206109D01*
X324924Y206085D01*
X325000Y206077D01*
X323400D01*
X323476Y206085D01*
X323544Y206109D01*
X323604Y206150D01*
X323656Y206207D01*
X323700Y206280D01*
X323736Y206369D01*
X323764Y206475D01*
X323784Y206596D01*
X323796Y206734D01*
X323800Y206889D01*
X324600D01*
X324604Y206734D01*
D02*
G37*
G36*
X445600Y203635D02*
X445688Y203562D01*
X445779Y203498D01*
X445872Y203443D01*
X445968Y203396D01*
X446067Y203357D01*
X446169Y203327D01*
X446274Y203306D01*
X446320Y203301D01*
X446371Y203305D01*
X446492Y203325D01*
X446598Y203353D01*
X446687Y203389D01*
X446760Y203433D01*
X446817Y203485D01*
X446858Y203545D01*
X446882Y203613D01*
X446890Y203689D01*
Y202089D01*
X446882Y202165D01*
X446858Y202233D01*
X446817Y202293D01*
X446760Y202345D01*
X446687Y202389D01*
X446598Y202425D01*
X446492Y202453D01*
X446371Y202473D01*
X446320Y202477D01*
X446274Y202472D01*
X446169Y202451D01*
X446067Y202421D01*
X445968Y202382D01*
X445872Y202335D01*
X445779Y202280D01*
X445688Y202216D01*
X445600Y202143D01*
X445515Y202062D01*
Y203716D01*
X445600Y203635D01*
D02*
G37*
%LPC*%
G36*
X403751Y672617D02*
X399314D01*
Y668574D01*
X403751D01*
Y672617D01*
D02*
G37*
G36*
X313751D02*
X309314D01*
Y668574D01*
X313751D01*
Y672617D01*
D02*
G37*
G36*
X398314D02*
X393877D01*
Y668574D01*
X398314D01*
Y672617D01*
D02*
G37*
G36*
X308314D02*
X303877D01*
Y668574D01*
X308314D01*
Y672617D01*
D02*
G37*
G36*
X313751Y667573D02*
X309314D01*
Y663530D01*
X313751D01*
Y667573D01*
D02*
G37*
G36*
X308314D02*
X303877D01*
Y663530D01*
X308314D01*
Y667573D01*
D02*
G37*
G36*
X309207Y662454D02*
X308420D01*
X307286Y662305D01*
X306229Y661867D01*
X305322Y661171D01*
X304626Y660264D01*
X304188Y659207D01*
X304039Y658074D01*
X304188Y656940D01*
X304626Y655883D01*
X305322Y654976D01*
X306229Y654280D01*
X307286Y653842D01*
X308420Y653693D01*
X309207D01*
X310341Y653842D01*
X311398Y654280D01*
X312305Y654976D01*
X313001Y655883D01*
X313439Y656940D01*
X313588Y658074D01*
X313439Y659207D01*
X313001Y660264D01*
X312305Y661171D01*
X311398Y661867D01*
X310341Y662305D01*
X309207Y662454D01*
D02*
G37*
G36*
Y652454D02*
X308420D01*
X307286Y652305D01*
X306229Y651867D01*
X305322Y651171D01*
X304626Y650264D01*
X304188Y649207D01*
X304039Y648073D01*
X304188Y646940D01*
X304626Y645883D01*
X305322Y644976D01*
X306229Y644280D01*
X307286Y643842D01*
X308420Y643693D01*
X309207D01*
X310341Y643842D01*
X311398Y644280D01*
X312305Y644976D01*
X313001Y645883D01*
X313439Y646940D01*
X313588Y648073D01*
X313439Y649207D01*
X313001Y650264D01*
X312305Y651171D01*
X311398Y651867D01*
X310341Y652305D01*
X309207Y652454D01*
D02*
G37*
G36*
Y642454D02*
X308420D01*
X307286Y642305D01*
X306229Y641867D01*
X305322Y641171D01*
X304626Y640264D01*
X304188Y639207D01*
X304039Y638073D01*
X304188Y636940D01*
X304626Y635883D01*
X305322Y634976D01*
X306229Y634280D01*
X307286Y633842D01*
X308420Y633693D01*
X309207D01*
X310341Y633842D01*
X311398Y634280D01*
X312305Y634976D01*
X313001Y635883D01*
X313439Y636940D01*
X313588Y638073D01*
X313439Y639207D01*
X313001Y640264D01*
X312305Y641171D01*
X311398Y641867D01*
X310341Y642305D01*
X309207Y642454D01*
D02*
G37*
G36*
Y632454D02*
X308420D01*
X307286Y632305D01*
X306229Y631867D01*
X305322Y631171D01*
X304626Y630264D01*
X304188Y629207D01*
X304039Y628074D01*
X304188Y626940D01*
X304626Y625883D01*
X305322Y624976D01*
X306229Y624280D01*
X307286Y623842D01*
X308420Y623693D01*
X309207D01*
X310341Y623842D01*
X311398Y624280D01*
X312305Y624976D01*
X313001Y625883D01*
X313439Y626940D01*
X313588Y628074D01*
X313439Y629207D01*
X313001Y630264D01*
X312305Y631171D01*
X311398Y631867D01*
X310341Y632305D01*
X309207Y632454D01*
D02*
G37*
G36*
Y622454D02*
X308420D01*
X307286Y622305D01*
X306229Y621867D01*
X305322Y621171D01*
X304626Y620264D01*
X304188Y619207D01*
X304039Y618074D01*
X304188Y616940D01*
X304626Y615883D01*
X305322Y614976D01*
X306229Y614280D01*
X307286Y613842D01*
X308420Y613693D01*
X309207D01*
X310341Y613842D01*
X311398Y614280D01*
X312305Y614976D01*
X313001Y615883D01*
X313439Y616940D01*
X313588Y618074D01*
X313439Y619207D01*
X313001Y620264D01*
X312305Y621171D01*
X311398Y621867D01*
X310341Y622305D01*
X309207Y622454D01*
D02*
G37*
G36*
Y612454D02*
X308420D01*
X307286Y612305D01*
X306229Y611867D01*
X305322Y611171D01*
X304626Y610264D01*
X304188Y609207D01*
X304039Y608074D01*
X304188Y606940D01*
X304626Y605883D01*
X305322Y604976D01*
X306229Y604280D01*
X307286Y603842D01*
X308420Y603693D01*
X309207D01*
X310341Y603842D01*
X311398Y604280D01*
X312305Y604976D01*
X313001Y605883D01*
X313439Y606940D01*
X313588Y608074D01*
X313439Y609207D01*
X313001Y610264D01*
X312305Y611171D01*
X311398Y611867D01*
X310341Y612305D01*
X309207Y612454D01*
D02*
G37*
G36*
Y602454D02*
X308420D01*
X307286Y602305D01*
X306229Y601867D01*
X305322Y601171D01*
X304626Y600264D01*
X304188Y599207D01*
X304039Y598073D01*
X304188Y596940D01*
X304626Y595883D01*
X305322Y594976D01*
X306229Y594280D01*
X307286Y593842D01*
X308420Y593693D01*
X309207D01*
X310341Y593842D01*
X311398Y594280D01*
X312305Y594976D01*
X313001Y595883D01*
X313439Y596940D01*
X313588Y598073D01*
X313439Y599207D01*
X313001Y600264D01*
X312305Y601171D01*
X311398Y601867D01*
X310341Y602305D01*
X309207Y602454D01*
D02*
G37*
G36*
Y592454D02*
X308420D01*
X307286Y592305D01*
X306229Y591867D01*
X305322Y591171D01*
X304626Y590264D01*
X304188Y589207D01*
X304039Y588073D01*
X304188Y586940D01*
X304626Y585883D01*
X305322Y584976D01*
X306229Y584280D01*
X307286Y583842D01*
X308420Y583693D01*
X309207D01*
X310341Y583842D01*
X311398Y584280D01*
X312305Y584976D01*
X313001Y585883D01*
X313439Y586940D01*
X313588Y588073D01*
X313439Y589207D01*
X313001Y590264D01*
X312305Y591171D01*
X311398Y591867D01*
X310341Y592305D01*
X309207Y592454D01*
D02*
G37*
G36*
X329758Y584156D02*
X326699D01*
Y580900D01*
X329758D01*
Y584156D01*
D02*
G37*
G36*
X329574Y579900D02*
X329546D01*
Y579676D01*
X329394Y579672D01*
X329258Y579660D01*
X329138Y579640D01*
X329034Y579612D01*
X328946Y579576D01*
X328874Y579532D01*
X328818Y579480D01*
X328778Y579420D01*
X328754Y579352D01*
X328746Y579276D01*
Y579900D01*
X326699D01*
Y576644D01*
X329758D01*
Y579663D01*
X329684Y579672D01*
X329574Y579676D01*
Y579900D01*
D02*
G37*
G36*
X337900Y576500D02*
X337724D01*
Y576200D01*
X337716Y576276D01*
X337691Y576344D01*
X337651Y576404D01*
X337594Y576456D01*
X337521Y576500D01*
X336814D01*
X336797Y576493D01*
X336701Y576446D01*
X336700Y576446D01*
Y573100D01*
X337900D01*
Y576500D01*
D02*
G37*
G36*
X309207Y582454D02*
X308420D01*
X307286Y582305D01*
X306229Y581867D01*
X305322Y581171D01*
X304626Y580264D01*
X304188Y579207D01*
X304039Y578074D01*
X304188Y576940D01*
X304626Y575883D01*
X305322Y574976D01*
X306229Y574280D01*
X307286Y573842D01*
X308420Y573693D01*
X309207D01*
X310341Y573842D01*
X311398Y574280D01*
X312305Y574976D01*
X313001Y575883D01*
X313439Y576940D01*
X313588Y578074D01*
X313439Y579207D01*
X313001Y580264D01*
X312305Y581171D01*
X311398Y581867D01*
X310341Y582305D01*
X309207Y582454D01*
D02*
G37*
G36*
X329743Y574987D02*
X326881D01*
Y571731D01*
X329743D01*
Y574987D01*
D02*
G37*
G36*
X309207Y572454D02*
X308420D01*
X307286Y572305D01*
X306229Y571867D01*
X305322Y571171D01*
X304626Y570264D01*
X304188Y569207D01*
X304039Y568074D01*
X304188Y566940D01*
X304626Y565883D01*
X305322Y564976D01*
X306229Y564280D01*
X307286Y563842D01*
X308420Y563693D01*
X309207D01*
X310341Y563842D01*
X311398Y564280D01*
X312305Y564976D01*
X313001Y565883D01*
X313439Y566940D01*
X313588Y568074D01*
X313439Y569207D01*
X313001Y570264D01*
X312305Y571171D01*
X311398Y571867D01*
X310341Y572305D01*
X309207Y572454D01*
D02*
G37*
G36*
X319188Y562070D02*
X316326D01*
Y558814D01*
X319188D01*
Y562070D01*
D02*
G37*
G36*
X319301Y557156D02*
X316242D01*
Y554137D01*
X316316Y554128D01*
X316426Y554124D01*
Y553900D01*
X316454D01*
Y554124D01*
X316606Y554128D01*
X316742Y554140D01*
X316862Y554160D01*
X316966Y554188D01*
X317054Y554224D01*
X317126Y554268D01*
X317182Y554320D01*
X317222Y554380D01*
X317246Y554448D01*
X317254Y554524D01*
Y553900D01*
X319301D01*
Y557156D01*
D02*
G37*
G36*
X309207Y562454D02*
X308420D01*
X307286Y562305D01*
X306229Y561867D01*
X305322Y561171D01*
X304626Y560264D01*
X304188Y559207D01*
X304039Y558074D01*
X304188Y556940D01*
X304626Y555883D01*
X305322Y554976D01*
X306229Y554280D01*
X307286Y553842D01*
X308420Y553693D01*
X309207D01*
X310341Y553842D01*
X311398Y554280D01*
X312305Y554976D01*
X313001Y555883D01*
X313439Y556940D01*
X313588Y558074D01*
X313439Y559207D01*
X313001Y560264D01*
X312305Y561171D01*
X311398Y561867D01*
X310341Y562305D01*
X309207Y562454D01*
D02*
G37*
G36*
X319301Y552900D02*
X316242D01*
Y549644D01*
X319301D01*
Y552900D01*
D02*
G37*
G36*
X309207Y552454D02*
X308420D01*
X307286Y552305D01*
X306229Y551867D01*
X305322Y551171D01*
X304626Y550264D01*
X304188Y549207D01*
X304039Y548073D01*
X304188Y546940D01*
X304626Y545883D01*
X305322Y544976D01*
X306229Y544280D01*
X307286Y543842D01*
X308420Y543693D01*
X309207D01*
X310341Y543842D01*
X311398Y544280D01*
X312305Y544976D01*
X313001Y545883D01*
X313439Y546940D01*
X313588Y548073D01*
X313439Y549207D01*
X313001Y550264D01*
X312305Y551171D01*
X311398Y551867D01*
X310341Y552305D01*
X309207Y552454D01*
D02*
G37*
G36*
Y542454D02*
X308420D01*
X307286Y542305D01*
X306229Y541867D01*
X305322Y541171D01*
X304626Y540264D01*
X304188Y539207D01*
X304039Y538073D01*
X304188Y536940D01*
X304626Y535883D01*
X305322Y534976D01*
X306229Y534280D01*
X307286Y533842D01*
X308420Y533693D01*
X309207D01*
X310341Y533842D01*
X311398Y534280D01*
X312305Y534976D01*
X313001Y535883D01*
X313439Y536940D01*
X313588Y538073D01*
X313439Y539207D01*
X313001Y540264D01*
X312305Y541171D01*
X311398Y541867D01*
X310341Y542305D01*
X309207Y542454D01*
D02*
G37*
G36*
Y522454D02*
X308420D01*
X307286Y522305D01*
X306229Y521867D01*
X305322Y521171D01*
X304626Y520264D01*
X304188Y519207D01*
X304039Y518074D01*
X304188Y516940D01*
X304626Y515883D01*
X305322Y514976D01*
X306229Y514280D01*
X307286Y513842D01*
X308420Y513693D01*
X309207D01*
X310341Y513842D01*
X311398Y514280D01*
X312305Y514976D01*
X313001Y515883D01*
X313439Y516940D01*
X313588Y518074D01*
X313439Y519207D01*
X313001Y520264D01*
X312305Y521171D01*
X311398Y521867D01*
X310341Y522305D01*
X309207Y522454D01*
D02*
G37*
G36*
Y512454D02*
X308420D01*
X307286Y512305D01*
X306229Y511867D01*
X305322Y511171D01*
X304626Y510264D01*
X304188Y509207D01*
X304039Y508074D01*
X304188Y506940D01*
X304626Y505883D01*
X305322Y504976D01*
X306229Y504280D01*
X307286Y503842D01*
X308420Y503693D01*
X309207D01*
X310341Y503842D01*
X311398Y504280D01*
X312305Y504976D01*
X313001Y505883D01*
X313439Y506940D01*
X313588Y508074D01*
X313439Y509207D01*
X313001Y510264D01*
X312305Y511171D01*
X311398Y511867D01*
X310341Y512305D01*
X309207Y512454D01*
D02*
G37*
G36*
Y492454D02*
X308420D01*
X307286Y492305D01*
X306229Y491867D01*
X305322Y491171D01*
X304626Y490264D01*
X304188Y489207D01*
X304039Y488073D01*
X304188Y486940D01*
X304626Y485883D01*
X305322Y484976D01*
X306229Y484280D01*
X307286Y483842D01*
X308420Y483693D01*
X309207D01*
X310341Y483842D01*
X311398Y484280D01*
X312305Y484976D01*
X313001Y485883D01*
X313439Y486940D01*
X313588Y488073D01*
X313439Y489207D01*
X313001Y490264D01*
X312305Y491171D01*
X311398Y491867D01*
X310341Y492305D01*
X309207Y492454D01*
D02*
G37*
G36*
Y482454D02*
X308420D01*
X307286Y482305D01*
X306229Y481867D01*
X305322Y481171D01*
X304626Y480264D01*
X304188Y479207D01*
X304039Y478074D01*
X304188Y476940D01*
X304626Y475883D01*
X305322Y474976D01*
X306229Y474280D01*
X307286Y473842D01*
X308420Y473693D01*
X309207D01*
X310341Y473842D01*
X311398Y474280D01*
X312305Y474976D01*
X313001Y475883D01*
X313439Y476940D01*
X313588Y478074D01*
X313439Y479207D01*
X313001Y480264D01*
X312305Y481171D01*
X311398Y481867D01*
X310341Y482305D01*
X309207Y482454D01*
D02*
G37*
G36*
Y472454D02*
X308420D01*
X307286Y472305D01*
X306229Y471867D01*
X305322Y471171D01*
X304626Y470264D01*
X304188Y469207D01*
X304039Y468074D01*
X304188Y466940D01*
X304626Y465883D01*
X305322Y464976D01*
X306229Y464280D01*
X307286Y463842D01*
X308420Y463693D01*
X309207D01*
X310341Y463842D01*
X311398Y464280D01*
X312305Y464976D01*
X313001Y465883D01*
X313439Y466940D01*
X313588Y468074D01*
X313439Y469207D01*
X313001Y470264D01*
X312305Y471171D01*
X311398Y471867D01*
X310341Y472305D01*
X309207Y472454D01*
D02*
G37*
G36*
Y462454D02*
X308420D01*
X307286Y462305D01*
X306229Y461867D01*
X305322Y461171D01*
X304626Y460264D01*
X304188Y459207D01*
X304039Y458074D01*
X304188Y456940D01*
X304626Y455883D01*
X305322Y454976D01*
X306229Y454280D01*
X307286Y453842D01*
X308420Y453693D01*
X309207D01*
X310341Y453842D01*
X311398Y454280D01*
X312305Y454976D01*
X313001Y455883D01*
X313439Y456940D01*
X313588Y458074D01*
X313439Y459207D01*
X313001Y460264D01*
X312305Y461171D01*
X311398Y461867D01*
X310341Y462305D01*
X309207Y462454D01*
D02*
G37*
G36*
Y452454D02*
X308420D01*
X307286Y452305D01*
X306229Y451867D01*
X305322Y451171D01*
X304626Y450264D01*
X304188Y449207D01*
X304039Y448073D01*
X304188Y446940D01*
X304626Y445883D01*
X305322Y444976D01*
X306229Y444280D01*
X307286Y443842D01*
X308420Y443693D01*
X309207D01*
X310341Y443842D01*
X311398Y444280D01*
X312305Y444976D01*
X313001Y445883D01*
X313439Y446940D01*
X313588Y448073D01*
X313439Y449207D01*
X313001Y450264D01*
X312305Y451171D01*
X311398Y451867D01*
X310341Y452305D01*
X309207Y452454D01*
D02*
G37*
G36*
Y442454D02*
X308420D01*
X307286Y442305D01*
X306229Y441867D01*
X305322Y441171D01*
X304626Y440264D01*
X304188Y439207D01*
X304039Y438073D01*
X304188Y436940D01*
X304626Y435883D01*
X305322Y434976D01*
X306229Y434280D01*
X307286Y433842D01*
X308420Y433693D01*
X309207D01*
X310341Y433842D01*
X311398Y434280D01*
X312305Y434976D01*
X313001Y435883D01*
X313439Y436940D01*
X313588Y438073D01*
X313439Y439207D01*
X313001Y440264D01*
X312305Y441171D01*
X311398Y441867D01*
X310341Y442305D01*
X309207Y442454D01*
D02*
G37*
G36*
X309314Y432642D02*
Y428574D01*
X313724D01*
X313634Y429259D01*
X313176Y430365D01*
X312448Y431314D01*
X311499Y432042D01*
X310393Y432500D01*
X309314Y432642D01*
D02*
G37*
G36*
X308314Y432642D02*
X307234Y432500D01*
X306129Y432042D01*
X305180Y431314D01*
X304451Y430365D01*
X303994Y429259D01*
X303903Y428574D01*
X308314D01*
Y432642D01*
D02*
G37*
G36*
Y427573D02*
X303903D01*
X303994Y426887D01*
X304451Y425782D01*
X305180Y424833D01*
X306129Y424105D01*
X307234Y423647D01*
X308314Y423505D01*
Y427573D01*
D02*
G37*
G36*
X313724D02*
X309314D01*
Y423505D01*
X310393Y423647D01*
X311499Y424105D01*
X312448Y424833D01*
X313176Y425782D01*
X313634Y426887D01*
X313724Y427573D01*
D02*
G37*
G36*
X309314Y422642D02*
Y418573D01*
X313724D01*
X313634Y419260D01*
X313176Y420365D01*
X312448Y421314D01*
X311499Y422042D01*
X310393Y422500D01*
X309314Y422642D01*
D02*
G37*
G36*
X308314D02*
X307234Y422500D01*
X306129Y422042D01*
X305180Y421314D01*
X304451Y420365D01*
X303994Y419260D01*
X303903Y418573D01*
X308314D01*
Y422642D01*
D02*
G37*
G36*
X313724Y417573D02*
X309314D01*
Y413505D01*
X310393Y413647D01*
X311499Y414105D01*
X312448Y414833D01*
X313176Y415782D01*
X313634Y416887D01*
X313724Y417573D01*
D02*
G37*
G36*
X308314D02*
X303903D01*
X303994Y416887D01*
X304451Y415782D01*
X305180Y414833D01*
X306129Y414105D01*
X307234Y413647D01*
X308314Y413505D01*
Y417573D01*
D02*
G37*
G36*
X309207Y412454D02*
X308420D01*
X307286Y412305D01*
X306229Y411867D01*
X305322Y411171D01*
X304626Y410264D01*
X304188Y409207D01*
X304039Y408074D01*
X304188Y406940D01*
X304626Y405883D01*
X305322Y404976D01*
X306229Y404280D01*
X307286Y403842D01*
X308420Y403693D01*
X309207D01*
X310341Y403842D01*
X311398Y404280D01*
X312305Y404976D01*
X313001Y405883D01*
X313439Y406940D01*
X313588Y408074D01*
X313439Y409207D01*
X313001Y410264D01*
X312305Y411171D01*
X311398Y411867D01*
X310341Y412305D01*
X309207Y412454D01*
D02*
G37*
G36*
Y402454D02*
X308420D01*
X307286Y402305D01*
X306229Y401867D01*
X305322Y401171D01*
X304626Y400264D01*
X304188Y399207D01*
X304039Y398074D01*
X304188Y396940D01*
X304626Y395883D01*
X305322Y394976D01*
X306229Y394280D01*
X307286Y393842D01*
X308420Y393693D01*
X309207D01*
X310341Y393842D01*
X311398Y394280D01*
X312305Y394976D01*
X313001Y395883D01*
X313439Y396940D01*
X313588Y398074D01*
X313439Y399207D01*
X313001Y400264D01*
X312305Y401171D01*
X311398Y401867D01*
X310341Y402305D01*
X309207Y402454D01*
D02*
G37*
G36*
Y392454D02*
X308420D01*
X307286Y392305D01*
X306229Y391867D01*
X305322Y391171D01*
X304626Y390264D01*
X304188Y389207D01*
X304039Y388073D01*
X304188Y386940D01*
X304626Y385883D01*
X305322Y384976D01*
X306229Y384280D01*
X307286Y383842D01*
X308420Y383693D01*
X309207D01*
X310341Y383842D01*
X311398Y384280D01*
X312305Y384976D01*
X313001Y385883D01*
X313439Y386940D01*
X313588Y388073D01*
X313439Y389207D01*
X313001Y390264D01*
X312305Y391171D01*
X311398Y391867D01*
X310341Y392305D01*
X309207Y392454D01*
D02*
G37*
G36*
Y382454D02*
X308420D01*
X307286Y382305D01*
X306229Y381867D01*
X305322Y381171D01*
X304626Y380264D01*
X304188Y379207D01*
X304039Y378074D01*
X304188Y376940D01*
X304626Y375883D01*
X305322Y374976D01*
X306229Y374280D01*
X307286Y373842D01*
X308420Y373693D01*
X309207D01*
X310341Y373842D01*
X311398Y374280D01*
X312305Y374976D01*
X313001Y375883D01*
X313439Y376940D01*
X313588Y378074D01*
X313439Y379207D01*
X313001Y380264D01*
X312305Y381171D01*
X311398Y381867D01*
X310341Y382305D01*
X309207Y382454D01*
D02*
G37*
G36*
Y372454D02*
X308420D01*
X307286Y372305D01*
X306229Y371867D01*
X305322Y371171D01*
X304626Y370264D01*
X304188Y369207D01*
X304039Y368074D01*
X304188Y366940D01*
X304626Y365883D01*
X305322Y364976D01*
X306229Y364280D01*
X307286Y363842D01*
X308420Y363693D01*
X309207D01*
X310341Y363842D01*
X311398Y364280D01*
X312305Y364976D01*
X313001Y365883D01*
X313439Y366940D01*
X313588Y368074D01*
X313439Y369207D01*
X313001Y370264D01*
X312305Y371171D01*
X311398Y371867D01*
X310341Y372305D01*
X309207Y372454D01*
D02*
G37*
G36*
Y362454D02*
X308420D01*
X307286Y362305D01*
X306229Y361867D01*
X305322Y361171D01*
X304626Y360264D01*
X304188Y359207D01*
X304039Y358073D01*
X304188Y356940D01*
X304626Y355883D01*
X305322Y354976D01*
X306229Y354280D01*
X307286Y353842D01*
X308420Y353693D01*
X309207D01*
X310341Y353842D01*
X311398Y354280D01*
X312305Y354976D01*
X313001Y355883D01*
X313439Y356940D01*
X313588Y358073D01*
X313439Y359207D01*
X313001Y360264D01*
X312305Y361171D01*
X311398Y361867D01*
X310341Y362305D01*
X309207Y362454D01*
D02*
G37*
G36*
Y352454D02*
X308420D01*
X307286Y352305D01*
X306229Y351867D01*
X305322Y351171D01*
X304626Y350264D01*
X304188Y349207D01*
X304039Y348074D01*
X304188Y346940D01*
X304626Y345883D01*
X305322Y344976D01*
X306229Y344280D01*
X307286Y343842D01*
X308420Y343693D01*
X309207D01*
X310341Y343842D01*
X311398Y344280D01*
X312305Y344976D01*
X313001Y345883D01*
X313439Y346940D01*
X313588Y348074D01*
X313439Y349207D01*
X313001Y350264D01*
X312305Y351171D01*
X311398Y351867D01*
X310341Y352305D01*
X309207Y352454D01*
D02*
G37*
G36*
Y342454D02*
X308420D01*
X307286Y342305D01*
X306229Y341867D01*
X305322Y341171D01*
X304626Y340264D01*
X304188Y339207D01*
X304039Y338073D01*
X304188Y336940D01*
X304626Y335883D01*
X305322Y334976D01*
X306229Y334280D01*
X307286Y333842D01*
X308420Y333693D01*
X309207D01*
X310341Y333842D01*
X311398Y334280D01*
X312305Y334976D01*
X313001Y335883D01*
X313439Y336940D01*
X313588Y338073D01*
X313439Y339207D01*
X313001Y340264D01*
X312305Y341171D01*
X311398Y341867D01*
X310341Y342305D01*
X309207Y342454D01*
D02*
G37*
G36*
Y332454D02*
X308420D01*
X307286Y332305D01*
X306229Y331867D01*
X305322Y331171D01*
X304626Y330264D01*
X304188Y329207D01*
X304039Y328074D01*
X304188Y326940D01*
X304626Y325883D01*
X305322Y324976D01*
X306229Y324280D01*
X307286Y323842D01*
X308420Y323693D01*
X309207D01*
X310341Y323842D01*
X311398Y324280D01*
X312305Y324976D01*
X313001Y325883D01*
X313439Y326940D01*
X313588Y328074D01*
X313439Y329207D01*
X313001Y330264D01*
X312305Y331171D01*
X311398Y331867D01*
X310341Y332305D01*
X309207Y332454D01*
D02*
G37*
G36*
Y322454D02*
X308420D01*
X307286Y322305D01*
X306229Y321867D01*
X305322Y321171D01*
X304626Y320264D01*
X304188Y319207D01*
X304039Y318074D01*
X304188Y316940D01*
X304626Y315883D01*
X305322Y314976D01*
X306229Y314280D01*
X307286Y313842D01*
X308420Y313693D01*
X309207D01*
X310341Y313842D01*
X311398Y314280D01*
X312305Y314976D01*
X313001Y315883D01*
X313439Y316940D01*
X313588Y318074D01*
X313439Y319207D01*
X313001Y320264D01*
X312305Y321171D01*
X311398Y321867D01*
X310341Y322305D01*
X309207Y322454D01*
D02*
G37*
G36*
Y312454D02*
X308420D01*
X307286Y312305D01*
X306229Y311867D01*
X305322Y311171D01*
X304626Y310264D01*
X304188Y309207D01*
X304039Y308073D01*
X304188Y306940D01*
X304626Y305883D01*
X305322Y304976D01*
X306229Y304280D01*
X307286Y303842D01*
X308420Y303693D01*
X309207D01*
X310341Y303842D01*
X311398Y304280D01*
X312305Y304976D01*
X313001Y305883D01*
X313439Y306940D01*
X313588Y308073D01*
X313439Y309207D01*
X313001Y310264D01*
X312305Y311171D01*
X311398Y311867D01*
X310341Y312305D01*
X309207Y312454D01*
D02*
G37*
G36*
Y302454D02*
X308420D01*
X307286Y302305D01*
X306229Y301867D01*
X305322Y301171D01*
X304626Y300264D01*
X304188Y299207D01*
X304039Y298074D01*
X304188Y296940D01*
X304626Y295883D01*
X305322Y294976D01*
X306229Y294280D01*
X307286Y293842D01*
X308420Y293693D01*
X309207D01*
X310341Y293842D01*
X311398Y294280D01*
X312305Y294976D01*
X313001Y295883D01*
X313439Y296940D01*
X313588Y298074D01*
X313439Y299207D01*
X313001Y300264D01*
X312305Y301171D01*
X311398Y301867D01*
X310341Y302305D01*
X309207Y302454D01*
D02*
G37*
G36*
Y292454D02*
X308420D01*
X307286Y292305D01*
X306229Y291867D01*
X305322Y291171D01*
X304626Y290264D01*
X304188Y289207D01*
X304039Y288073D01*
X304188Y286940D01*
X304626Y285883D01*
X305322Y284976D01*
X306229Y284280D01*
X307286Y283842D01*
X308420Y283693D01*
X309207D01*
X310341Y283842D01*
X311398Y284280D01*
X312305Y284976D01*
X313001Y285883D01*
X313439Y286940D01*
X313588Y288073D01*
X313439Y289207D01*
X313001Y290264D01*
X312305Y291171D01*
X311398Y291867D01*
X310341Y292305D01*
X309207Y292454D01*
D02*
G37*
G36*
Y282454D02*
X308420D01*
X307286Y282305D01*
X306229Y281867D01*
X305322Y281171D01*
X304626Y280264D01*
X304188Y279207D01*
X304039Y278074D01*
X304188Y276940D01*
X304626Y275883D01*
X305322Y274976D01*
X306229Y274280D01*
X307286Y273842D01*
X308420Y273693D01*
X309207D01*
X310341Y273842D01*
X311398Y274280D01*
X312305Y274976D01*
X313001Y275883D01*
X313439Y276940D01*
X313588Y278074D01*
X313439Y279207D01*
X313001Y280264D01*
X312305Y281171D01*
X311398Y281867D01*
X310341Y282305D01*
X309207Y282454D01*
D02*
G37*
G36*
Y272454D02*
X308420D01*
X307286Y272305D01*
X306229Y271867D01*
X305322Y271171D01*
X304626Y270264D01*
X304188Y269207D01*
X304039Y268074D01*
X304188Y266940D01*
X304626Y265883D01*
X305322Y264976D01*
X306229Y264280D01*
X307286Y263842D01*
X308420Y263693D01*
X309207D01*
X310341Y263842D01*
X311398Y264280D01*
X312305Y264976D01*
X313001Y265883D01*
X313439Y266940D01*
X313588Y268074D01*
X313439Y269207D01*
X313001Y270264D01*
X312305Y271171D01*
X311398Y271867D01*
X310341Y272305D01*
X309207Y272454D01*
D02*
G37*
G36*
Y262454D02*
X308420D01*
X307286Y262305D01*
X306229Y261867D01*
X305322Y261171D01*
X304626Y260264D01*
X304188Y259207D01*
X304039Y258073D01*
X304188Y256940D01*
X304626Y255883D01*
X305322Y254976D01*
X306229Y254280D01*
X307286Y253842D01*
X308420Y253693D01*
X309207D01*
X310341Y253842D01*
X311398Y254280D01*
X312305Y254976D01*
X313001Y255883D01*
X313439Y256940D01*
X313588Y258073D01*
X313439Y259207D01*
X313001Y260264D01*
X312305Y261171D01*
X311398Y261867D01*
X310341Y262305D01*
X309207Y262454D01*
D02*
G37*
G36*
Y252454D02*
X308420D01*
X307286Y252305D01*
X306229Y251867D01*
X305322Y251171D01*
X304626Y250264D01*
X304188Y249207D01*
X304039Y248074D01*
X304188Y246940D01*
X304626Y245883D01*
X305322Y244976D01*
X306229Y244280D01*
X307286Y243842D01*
X308420Y243693D01*
X309207D01*
X310341Y243842D01*
X311398Y244280D01*
X312305Y244976D01*
X313001Y245883D01*
X313439Y246940D01*
X313588Y248074D01*
X313439Y249207D01*
X313001Y250264D01*
X312305Y251171D01*
X311398Y251867D01*
X310341Y252305D01*
X309207Y252454D01*
D02*
G37*
G36*
Y242454D02*
X308420D01*
X307286Y242305D01*
X306229Y241867D01*
X305322Y241171D01*
X304626Y240264D01*
X304188Y239207D01*
X304039Y238073D01*
X304188Y236940D01*
X304626Y235883D01*
X305322Y234976D01*
X306229Y234280D01*
X307286Y233842D01*
X308420Y233693D01*
X309207D01*
X310341Y233842D01*
X311398Y234280D01*
X312305Y234976D01*
X313001Y235883D01*
X313439Y236940D01*
X313588Y238073D01*
X313439Y239207D01*
X313001Y240264D01*
X312305Y241171D01*
X311398Y241867D01*
X310341Y242305D01*
X309207Y242454D01*
D02*
G37*
G36*
Y232454D02*
X308420D01*
X307286Y232305D01*
X306229Y231867D01*
X305322Y231171D01*
X304626Y230264D01*
X304188Y229207D01*
X304039Y228074D01*
X304188Y226940D01*
X304626Y225883D01*
X305322Y224976D01*
X306229Y224280D01*
X307286Y223842D01*
X308420Y223693D01*
X309207D01*
X310341Y223842D01*
X311398Y224280D01*
X312305Y224976D01*
X313001Y225883D01*
X313439Y226940D01*
X313588Y228074D01*
X313439Y229207D01*
X313001Y230264D01*
X312305Y231171D01*
X311398Y231867D01*
X310341Y232305D01*
X309207Y232454D01*
D02*
G37*
G36*
Y222454D02*
X308420D01*
X307286Y222305D01*
X306229Y221867D01*
X305322Y221171D01*
X304626Y220264D01*
X304188Y219207D01*
X304039Y218074D01*
X304188Y216940D01*
X304626Y215883D01*
X305322Y214976D01*
X306229Y214280D01*
X307286Y213842D01*
X308420Y213693D01*
X309207D01*
X310341Y213842D01*
X311398Y214280D01*
X312305Y214976D01*
X313001Y215883D01*
X313439Y216940D01*
X313588Y218074D01*
X313439Y219207D01*
X313001Y220264D01*
X312305Y221171D01*
X311398Y221867D01*
X310341Y222305D01*
X309207Y222454D01*
D02*
G37*
G36*
Y212454D02*
X308420D01*
X307286Y212305D01*
X306229Y211867D01*
X305322Y211171D01*
X304626Y210264D01*
X304188Y209207D01*
X304039Y208073D01*
X304188Y206940D01*
X304626Y205883D01*
X305322Y204976D01*
X306229Y204280D01*
X307286Y203842D01*
X308420Y203693D01*
X309207D01*
X310341Y203842D01*
X311398Y204280D01*
X312305Y204976D01*
X313001Y205883D01*
X313439Y206940D01*
X313588Y208073D01*
X313439Y209207D01*
X313001Y210264D01*
X312305Y211171D01*
X311398Y211867D01*
X310341Y212305D01*
X309207Y212454D01*
D02*
G37*
G36*
X399314Y202642D02*
Y198574D01*
X403724D01*
X403634Y199259D01*
X403176Y200365D01*
X402448Y201314D01*
X401499Y202042D01*
X400393Y202500D01*
X399314Y202642D01*
D02*
G37*
G36*
X309314D02*
Y198574D01*
X313724D01*
X313634Y199259D01*
X313176Y200365D01*
X312448Y201314D01*
X311499Y202042D01*
X310393Y202500D01*
X309314Y202642D01*
D02*
G37*
G36*
X398314Y202642D02*
X397234Y202500D01*
X396129Y202042D01*
X395180Y201314D01*
X394451Y200365D01*
X393993Y199259D01*
X393903Y198574D01*
X398314D01*
Y202642D01*
D02*
G37*
G36*
X308314D02*
X307234Y202500D01*
X306129Y202042D01*
X305180Y201314D01*
X304451Y200365D01*
X303994Y199259D01*
X303903Y198574D01*
X308314D01*
Y202642D01*
D02*
G37*
G36*
X399207Y472454D02*
X398420D01*
X397286Y472305D01*
X396230Y471867D01*
X395322Y471171D01*
X394626Y470264D01*
X394188Y469207D01*
X394039Y468074D01*
X394188Y466940D01*
X394626Y465883D01*
X395322Y464976D01*
X396230Y464280D01*
X397286Y463842D01*
X398420Y463693D01*
X399207D01*
X400341Y463842D01*
X401398Y464280D01*
X402305Y464976D01*
X403001Y465883D01*
X403439Y466940D01*
X403588Y468074D01*
X403439Y469207D01*
X403001Y470264D01*
X402305Y471171D01*
X401398Y471867D01*
X400341Y472305D01*
X399207Y472454D01*
D02*
G37*
G36*
Y462454D02*
X398420D01*
X397286Y462305D01*
X396230Y461867D01*
X395322Y461171D01*
X394626Y460264D01*
X394188Y459207D01*
X394039Y458074D01*
X394188Y456940D01*
X394626Y455883D01*
X395322Y454976D01*
X396230Y454280D01*
X397286Y453842D01*
X398420Y453693D01*
X399207D01*
X400341Y453842D01*
X401398Y454280D01*
X402305Y454976D01*
X403001Y455883D01*
X403439Y456940D01*
X403588Y458074D01*
X403439Y459207D01*
X403001Y460264D01*
X402305Y461171D01*
X401398Y461867D01*
X400341Y462305D01*
X399207Y462454D01*
D02*
G37*
G36*
Y452454D02*
X398420D01*
X397286Y452305D01*
X396230Y451867D01*
X395322Y451171D01*
X394626Y450264D01*
X394188Y449207D01*
X394039Y448073D01*
X394188Y446940D01*
X394626Y445883D01*
X395322Y444976D01*
X396230Y444280D01*
X397286Y443842D01*
X398420Y443693D01*
X399207D01*
X400341Y443842D01*
X401398Y444280D01*
X402305Y444976D01*
X403001Y445883D01*
X403439Y446940D01*
X403588Y448073D01*
X403439Y449207D01*
X403001Y450264D01*
X402305Y451171D01*
X401398Y451867D01*
X400341Y452305D01*
X399207Y452454D01*
D02*
G37*
G36*
Y442454D02*
X398420D01*
X397286Y442305D01*
X396230Y441867D01*
X395322Y441171D01*
X394626Y440264D01*
X394188Y439207D01*
X394039Y438073D01*
X394188Y436940D01*
X394626Y435883D01*
X395322Y434976D01*
X396230Y434280D01*
X397286Y433842D01*
X398420Y433693D01*
X399207D01*
X400341Y433842D01*
X401398Y434280D01*
X402305Y434976D01*
X403001Y435883D01*
X403439Y436940D01*
X403588Y438073D01*
X403439Y439207D01*
X403001Y440264D01*
X402305Y441171D01*
X401398Y441867D01*
X400341Y442305D01*
X399207Y442454D01*
D02*
G37*
G36*
X333456Y535401D02*
X330200D01*
Y533366D01*
X330400D01*
X330324Y533358D01*
X330256Y533333D01*
X330200Y533295D01*
Y532342D01*
X333456D01*
Y535401D01*
D02*
G37*
G36*
X329200D02*
X325944D01*
Y532342D01*
X329171D01*
X329183Y532402D01*
X329196Y532510D01*
X329199Y532593D01*
X329196Y532708D01*
X329184Y532846D01*
X329164Y532968D01*
X329136Y533073D01*
X329100Y533163D01*
X329056Y533236D01*
X329004Y533293D01*
X328944Y533333D01*
X328876Y533358D01*
X328800Y533366D01*
X329200D01*
Y535401D01*
D02*
G37*
G36*
X337013Y319956D02*
X334142D01*
Y316700D01*
X337201D01*
Y318932D01*
X336800D01*
X336876Y318940D01*
X336944Y318964D01*
X337004Y319005D01*
X337056Y319062D01*
X337100Y319135D01*
X337136Y319224D01*
X337164Y319330D01*
X337184Y319452D01*
X337186Y319473D01*
X337183Y319498D01*
X337162Y319602D01*
X337132Y319704D01*
X337093Y319803D01*
X337046Y319900D01*
X337013Y319956D01*
D02*
G37*
G36*
X336135Y309800D02*
X334454D01*
Y308040D01*
X335872D01*
X335883Y308052D01*
X335950Y308138D01*
X336008Y308228D01*
X336056Y308322D01*
X336097Y308419D01*
X336128Y308519D01*
X336135Y308556D01*
Y308644D01*
X336132Y308666D01*
X336104Y308772D01*
X336068Y308861D01*
X336024Y308934D01*
X335972Y308991D01*
X335912Y309032D01*
X335844Y309056D01*
X335768Y309064D01*
X336135D01*
Y309800D01*
D02*
G37*
G36*
X337200Y305800D02*
X336000D01*
Y302400D01*
X337200D01*
Y304786D01*
X337012Y304788D01*
X337029Y304796D01*
X337044Y304820D01*
X337057Y304860D01*
X337068Y304916D01*
X337078Y304988D01*
X337092Y305180D01*
X337100Y305588D01*
X337200D01*
Y305800D01*
D02*
G37*
G36*
Y301400D02*
X336000D01*
Y298000D01*
X337200D01*
Y301400D01*
D02*
G37*
G36*
X341665Y268160D02*
Y266400D01*
X342322D01*
Y266700D01*
X342330Y266624D01*
X342354Y266556D01*
X342395Y266496D01*
X342452Y266444D01*
X342525Y266400D01*
X342525Y266400D01*
X343186D01*
X343203Y266407D01*
X343300Y266454D01*
X343346Y266481D01*
Y268160D01*
X341665D01*
D02*
G37*
%LPD*%
D23*
X449866Y202565D02*
D03*
X435693D02*
D03*
X419158Y230518D02*
D03*
X446717D02*
D03*
X446716Y605969D02*
D03*
X419158D02*
D03*
X435693Y578016D02*
D03*
X449866D02*
D03*
X446716Y663576D02*
D03*
X419158D02*
D03*
X435693Y635624D02*
D03*
X449866D02*
D03*
X446716Y490754D02*
D03*
X419158D02*
D03*
X435693Y462802D02*
D03*
X449866D02*
D03*
X446717Y345733D02*
D03*
X419158D02*
D03*
X435693Y317780D02*
D03*
X449866D02*
D03*
X446717Y548362D02*
D03*
X419158D02*
D03*
X435693Y520409D02*
D03*
X449866D02*
D03*
X446717Y288125D02*
D03*
X419158Y288125D02*
D03*
X435693Y260173D02*
D03*
X449866D02*
D03*
X446717Y403340D02*
D03*
X419158Y403340D02*
D03*
X435693Y375387D02*
D03*
X449866D02*
D03*
D24*
X412000Y203408D02*
D03*
X412000Y578859D02*
D03*
Y636466D02*
D03*
X412000Y463644D02*
D03*
X412000Y318623D02*
D03*
X412000Y521251D02*
D03*
X412000Y261015D02*
D03*
Y376230D02*
D03*
D25*
X368276Y203205D02*
D03*
Y230765D02*
D03*
X340324Y214229D02*
D03*
Y200056D02*
D03*
X340324Y663195D02*
D03*
X340324Y635635D02*
D03*
X368276Y652171D02*
D03*
Y666344D02*
D03*
D26*
X341166Y237922D02*
D03*
X367434Y628478D02*
D03*
D27*
X380300Y286900D02*
D03*
X385418D02*
D03*
X380082Y299000D02*
D03*
X385200D02*
D03*
X379985Y251300D02*
D03*
X385103D02*
D03*
X380000Y595000D02*
D03*
X385118D02*
D03*
X380200Y239400D02*
D03*
X385318D02*
D03*
X379882Y589000D02*
D03*
X385000D02*
D03*
X380000Y655000D02*
D03*
X385118D02*
D03*
X380000Y649000D02*
D03*
X385118D02*
D03*
X324000Y626000D02*
D03*
X329118D02*
D03*
D28*
X379985Y293100D02*
D03*
X385300D02*
D03*
X379685Y583000D02*
D03*
X385000D02*
D03*
X380182Y245700D02*
D03*
X385497D02*
D03*
X379685Y643000D02*
D03*
X385000D02*
D03*
D29*
X380100Y279800D02*
D03*
X387500D02*
D03*
X380100Y232500D02*
D03*
X387500D02*
D03*
X380100Y602500D02*
D03*
X387500Y602500D02*
D03*
X380100Y662500D02*
D03*
X387500D02*
D03*
D30*
X385500Y269915D02*
D03*
Y259600D02*
D03*
X382900Y316915D02*
D03*
Y306600D02*
D03*
X385000Y623685D02*
D03*
Y634000D02*
D03*
D31*
X324200Y224900D02*
D03*
Y201081D02*
D03*
X324000Y592091D02*
D03*
Y615909D02*
D03*
X324100Y261919D02*
D03*
X324100Y238100D02*
D03*
X344000Y592091D02*
D03*
Y615909D02*
D03*
D32*
X355300Y265632D02*
D03*
Y262168D02*
D03*
X375700Y550900D02*
D03*
Y547435D02*
D03*
X335200Y542200D02*
D03*
Y538735D02*
D03*
X379000Y572268D02*
D03*
Y575732D02*
D03*
D33*
X343999Y259800D02*
D03*
X337700D02*
D03*
X319900Y580400D02*
D03*
X326199D02*
D03*
X326100Y553400D02*
D03*
X319801D02*
D03*
X377135Y260200D02*
D03*
X370835D02*
D03*
X366500Y316000D02*
D03*
X372799D02*
D03*
X344000Y316200D02*
D03*
X337701D02*
D03*
D34*
X337700Y265900D02*
D03*
X341165D02*
D03*
X357600Y540600D02*
D03*
X361065D02*
D03*
X370835Y265900D02*
D03*
X374300D02*
D03*
X337868Y583100D02*
D03*
X341332D02*
D03*
X336635Y310300D02*
D03*
X340100D02*
D03*
X371600D02*
D03*
X368135D02*
D03*
D35*
X339300Y538764D02*
D03*
Y534236D02*
D03*
X332100Y562436D02*
D03*
Y566964D02*
D03*
X316600Y290336D02*
D03*
Y294864D02*
D03*
D36*
X326381Y562570D02*
D03*
X319688D02*
D03*
X326381Y571231D02*
D03*
X319688D02*
D03*
D37*
X338400Y577000D02*
D03*
X340900D02*
D03*
X343500D02*
D03*
X346000D02*
D03*
X348600D02*
D03*
X351200D02*
D03*
X353700D02*
D03*
X356300D02*
D03*
X358800D02*
D03*
X361400D02*
D03*
X364000D02*
D03*
X366500D02*
D03*
X369100D02*
D03*
X371600D02*
D03*
Y548000D02*
D03*
X369100D02*
D03*
X366500D02*
D03*
X364000D02*
D03*
X361400D02*
D03*
X358800D02*
D03*
X356300D02*
D03*
X353700D02*
D03*
X351200D02*
D03*
X348600D02*
D03*
X346000D02*
D03*
X343500D02*
D03*
X340900D02*
D03*
X338400D02*
D03*
X337700Y301900D02*
D03*
X340200D02*
D03*
X342800D02*
D03*
X345300D02*
D03*
X347900D02*
D03*
X350500D02*
D03*
X353000D02*
D03*
X355600D02*
D03*
X358100D02*
D03*
X360700D02*
D03*
X363300D02*
D03*
X365800D02*
D03*
X368400D02*
D03*
X370900D02*
D03*
Y272900D02*
D03*
X368400D02*
D03*
X365800D02*
D03*
X363300D02*
D03*
X360700D02*
D03*
X358100D02*
D03*
X355600D02*
D03*
X353000D02*
D03*
X350500D02*
D03*
X347900D02*
D03*
X345300D02*
D03*
X342800D02*
D03*
X340200D02*
D03*
X337700D02*
D03*
D38*
X385100Y558100D02*
D03*
Y551801D02*
D03*
X329700Y535901D02*
D03*
Y542200D02*
D03*
X385000Y574000D02*
D03*
Y567701D02*
D03*
D39*
X358685Y587000D02*
D03*
X369000D02*
D03*
D40*
X371000Y240682D02*
D03*
Y245800D02*
D03*
X358000Y616000D02*
D03*
Y621118D02*
D03*
X338000Y221841D02*
D03*
Y226959D02*
D03*
D41*
X349775Y533153D02*
D03*
X352924D02*
D03*
X343476D02*
D03*
X346625D02*
D03*
Y539847D02*
D03*
X343476D02*
D03*
X352924D02*
D03*
X349775D02*
D03*
X325125Y295947D02*
D03*
X321976D02*
D03*
X331424D02*
D03*
X328275D02*
D03*
Y289253D02*
D03*
X331424D02*
D03*
X321976D02*
D03*
X325125D02*
D03*
D65*
X364115Y596115D02*
G03*
X363884Y595556I569J-563D01*
G01*
X384769Y616769D02*
G03*
X385000Y617331I-569J563D01*
G01*
X388655Y663071D02*
G03*
X387507Y662495I0J-1432D01*
G01*
X418321Y663071D02*
G03*
X418887Y663305I0J800D01*
G01*
X353800Y293500D02*
X355600Y295300D01*
Y301900D01*
X337400Y272800D02*
X337500Y272900D01*
X330900Y274900D02*
X333000Y272800D01*
X337400D01*
X337500Y272900D02*
X337700D01*
X327800Y253900D02*
X355300D01*
X358100Y256700D02*
Y272900D01*
X355300Y253900D02*
X358100Y256700D01*
X361700Y252500D02*
Y267900D01*
X318500Y245900D02*
X355100D01*
X361700Y252500D01*
X370900Y260265D02*
Y268700D01*
X355600Y272882D02*
X355618D01*
X363686Y543300D02*
X364000D01*
X361065Y540679D02*
X363686Y543300D01*
X370400Y540200D02*
X382200D01*
X369100Y541500D02*
Y548000D01*
Y541500D02*
X370400Y540200D01*
X382200D02*
X395071Y553071D01*
X371600Y542700D02*
Y545800D01*
X345910Y594000D02*
X361381D01*
X344000Y592091D02*
X345910Y594000D01*
X364500Y267900D02*
Y268000D01*
X363300Y269200D02*
Y272900D01*
Y269200D02*
X364500Y268000D01*
X370900Y268700D02*
Y272900D01*
X377135Y264312D02*
X378300Y265477D01*
X377135Y260200D02*
Y264312D01*
X378300Y265477D02*
Y265900D01*
X374300D02*
X378300D01*
X357981Y462686D02*
X387281Y433386D01*
X357981Y462686D02*
Y533319D01*
X387281Y432504D02*
Y433386D01*
X396685Y423100D02*
X402000D01*
X387281Y432504D02*
X396685Y423100D01*
X352924Y461008D02*
X386875Y427058D01*
X389436D01*
X352924Y461008D02*
Y533153D01*
X366200Y430400D02*
X366300Y430300D01*
X371500Y424700D02*
Y424800D01*
X395919Y413048D02*
X401552D01*
X346625Y462342D02*
X395919Y413048D01*
X346625Y462342D02*
Y533153D01*
X380400Y425200D02*
X380500D01*
X366200Y407000D02*
Y407100D01*
X379100Y393800D02*
X379300Y394000D01*
X380000D01*
X384000Y400000D02*
X384100D01*
X371400Y412900D02*
X371500D01*
X366000Y419500D02*
X366100D01*
X365900Y419400D02*
X366000Y419500D01*
X360400Y424800D02*
X360500D01*
X337400Y529630D02*
X339300Y531530D01*
X337400Y453900D02*
X371700Y419600D01*
X337400Y453900D02*
Y529630D01*
X389436Y427058D02*
X398420Y418074D01*
X398814D01*
X343476Y458657D02*
X393677Y408456D01*
X398431D02*
X398814Y408074D01*
X393677Y408456D02*
X398431D01*
X343476Y458657D02*
Y521724D01*
X362800Y562600D02*
Y567900D01*
X361400Y561200D02*
X362800Y562600D01*
X361400Y548000D02*
Y561200D01*
X358800Y562377D02*
X360200Y563777D01*
Y564200D01*
X358800Y548000D02*
Y562377D01*
X349700Y362200D02*
X370300Y382800D01*
X324000Y312900D02*
Y382300D01*
X356900Y415200D01*
X327400Y362163D02*
X369200Y403963D01*
Y404000D01*
X375700Y397100D02*
Y397200D01*
X331424Y352824D02*
X375700Y397100D01*
X345374Y308974D02*
X349700Y313300D01*
Y362200D01*
X345374Y301974D02*
Y308974D01*
X347900Y307400D02*
X352400Y311900D01*
Y318500D02*
X363200Y329300D01*
X352400Y311900D02*
Y318500D01*
X354000Y310500D02*
Y317837D01*
X362963Y326800D02*
X382100D01*
X363200Y329300D02*
X383700D01*
X354000Y317837D02*
X362963Y326800D01*
X350500Y307000D02*
X354000Y310500D01*
X327400Y311424D02*
Y362163D01*
X331424Y295947D02*
Y352824D01*
X350500Y301900D02*
Y307000D01*
X347900Y301900D02*
Y307400D01*
X362500Y320600D02*
X377300D01*
X360700Y318800D02*
X362500Y320600D01*
X377300D02*
X378500Y319400D01*
X337600Y316301D02*
X337701Y316200D01*
X337600Y316301D02*
Y321100D01*
X342800Y315000D02*
X344000Y316200D01*
X345300Y301900D02*
X345374Y301974D01*
X382100Y326800D02*
X385100Y323800D01*
X383700Y329300D02*
X387900Y333500D01*
X339794Y213700D02*
X340324Y214229D01*
X329200Y213700D02*
X339794D01*
X324200Y208700D02*
X329200Y213700D01*
X324200Y201081D02*
Y208700D01*
X328639Y233365D02*
X365676D01*
X324100Y237903D02*
X328639Y233365D01*
X368400Y230765D02*
X371000Y233365D01*
Y240682D01*
X368276Y230765D02*
X368400D01*
X371100Y245700D02*
X376182D01*
X371000Y245800D02*
X371100Y245700D01*
X360700Y301900D02*
Y318800D01*
X378500Y319400D02*
X380879D01*
X382900Y316915D02*
Y317379D01*
X380879Y319400D02*
X382900Y317379D01*
Y306600D02*
X384300Y305200D01*
Y299900D02*
Y305200D01*
Y299900D02*
X385200Y299000D01*
X364400Y310800D02*
Y313900D01*
X366500Y316000D01*
X374958Y311965D02*
Y313841D01*
Y311965D02*
X375300Y311623D01*
X372799Y316000D02*
X374958Y313841D01*
X375300Y311200D02*
Y311623D01*
X371600Y314801D02*
X372799Y316000D01*
X371600Y310300D02*
Y314801D01*
X366500Y316000D02*
X368135Y314365D01*
Y310300D02*
Y314365D01*
X368400Y272900D02*
Y276700D01*
X370166Y278466D01*
X371466D02*
X371700Y278700D01*
X370166Y278466D02*
X371466D01*
X377013Y293100D02*
X379985D01*
X375700Y294400D02*
X375713D01*
X377013Y293100D01*
X385200Y293200D02*
Y299000D01*
Y293200D02*
X385300Y293100D01*
Y287018D02*
Y293100D01*
Y287018D02*
X385418Y286900D01*
X376082Y299000D02*
X380082D01*
X380100Y279800D02*
X380300Y280000D01*
Y286900D01*
X388100Y280400D02*
X392100D01*
X387500Y279800D02*
X388100Y280400D01*
X368700Y295100D02*
X375700Y288100D01*
X360300Y295100D02*
X368700D01*
X375700Y275800D02*
Y288100D01*
X385300Y239418D02*
Y251300D01*
X371650Y306850D02*
Y310250D01*
X371600Y310300D02*
X371650Y310250D01*
Y306850D02*
X371700Y306800D01*
X368135Y310300D02*
X368168Y310268D01*
Y307032D02*
Y310268D01*
Y307032D02*
X368200Y307000D01*
X368400Y306800D01*
Y301900D02*
Y306800D01*
X371700Y306410D02*
Y306800D01*
X370900Y303900D02*
Y305610D01*
X371700Y306410D01*
X355300Y262168D02*
X355500Y261968D01*
Y259200D02*
Y261968D01*
X355600Y272900D02*
Y278900D01*
Y269200D02*
Y272882D01*
X353100Y296500D02*
X353200Y296400D01*
X353000Y301900D02*
X353100Y301800D01*
Y296500D02*
Y301800D01*
X387900Y318987D02*
Y331500D01*
Y333500D01*
Y389237D01*
X416800Y394300D02*
X419158Y396657D01*
Y403340D01*
X416800Y362400D02*
Y394300D01*
X412800Y358400D02*
X416800Y362400D01*
X418200Y308800D02*
Y326200D01*
X415800Y328600D02*
Y334000D01*
X418200Y336400D01*
X415800Y328600D02*
X418200Y326200D01*
X412800Y329100D02*
X416200Y325700D01*
X412800Y329100D02*
Y358400D01*
X416200Y311100D02*
Y325700D01*
X410100Y305000D02*
X416200Y311100D01*
X418200Y336400D02*
X419158Y337357D01*
X412501Y303101D02*
X418200Y308800D01*
X410100Y301200D02*
Y305000D01*
X412200Y293300D02*
Y299100D01*
X410100Y301200D02*
X412200Y299100D01*
X404900Y263766D02*
Y295800D01*
Y400300D02*
X407200Y402600D01*
X404900Y295800D02*
Y400300D01*
X399207Y258073D02*
X404900Y263766D01*
X419158Y337357D02*
Y345733D01*
X365750Y272950D02*
Y280850D01*
X365700Y280900D02*
X365750Y280850D01*
Y272950D02*
X365800Y272900D01*
X385500Y251500D02*
Y259600D01*
X385300Y251300D02*
X385500Y251500D01*
X336568Y307068D02*
Y310232D01*
X336635Y310300D01*
X336500Y307000D02*
X336568Y307068D01*
X337500Y302100D02*
X337700Y301900D01*
X337500Y302100D02*
Y306000D01*
X336500Y307000D02*
X337500Y306000D01*
X340100Y310300D02*
X340150Y310250D01*
Y307050D02*
Y310250D01*
Y307050D02*
X340200Y307000D01*
Y301900D02*
Y307000D01*
X342800Y301900D02*
Y315000D01*
X309207Y528074D02*
X320700Y516581D01*
Y313600D02*
Y516581D01*
X308814Y528074D02*
X309207D01*
X308814Y498073D02*
X309207D01*
X316500Y490781D01*
Y313700D02*
Y490781D01*
X316600Y305500D02*
X324000Y312900D01*
X316600Y294864D02*
Y305500D01*
X321976Y295947D02*
Y306000D01*
X327400Y311424D01*
X328237Y295984D02*
X328275Y295947D01*
X328237Y295984D02*
Y301063D01*
X328200Y301100D02*
X328237Y301063D01*
X325125Y303625D02*
X325200Y303700D01*
X325125Y295947D02*
Y303625D01*
X344500Y260301D02*
Y265900D01*
X343999Y259800D02*
X344500Y260301D01*
X341165Y265900D02*
X344500D01*
X337700D02*
Y272900D01*
Y259800D02*
Y265900D01*
X316600Y287100D02*
Y290336D01*
Y287100D02*
X324800Y278900D01*
X321976Y286324D02*
Y289253D01*
X327800Y280500D02*
X339200D01*
X321976Y286324D02*
X327800Y280500D01*
X329100Y282800D02*
X339900D01*
X325149Y286751D02*
X329100Y282800D01*
X339200Y280500D02*
X342800Y276900D01*
X324800Y278900D02*
X338400D01*
X340200Y277100D01*
Y272900D02*
Y277100D01*
X342800Y272900D02*
Y276900D01*
X325149Y286751D02*
Y289229D01*
X325125Y289253D02*
X325149Y289229D01*
X339900Y282800D02*
X345300Y277400D01*
Y272900D02*
Y277400D01*
X341725Y285400D02*
X350500Y276625D01*
X329843Y285400D02*
X341725D01*
X350500Y272900D02*
Y276625D01*
X328275Y286969D02*
X329843Y285400D01*
X328275Y286969D02*
Y289253D01*
X331424D02*
X340446D01*
X353000Y276700D01*
Y272900D02*
Y276700D01*
X347900Y272900D02*
X347982Y272818D01*
Y269285D02*
X348767Y268500D01*
X347982Y269285D02*
Y272818D01*
X348767Y268500D02*
X352200D01*
X353000Y269300D01*
Y272900D01*
X365676Y233365D02*
X368276Y230765D01*
X337900Y227759D02*
Y230800D01*
X324100Y237903D02*
Y238100D01*
X337900Y227759D02*
X338000Y227659D01*
Y216553D02*
Y222541D01*
Y216553D02*
X340324Y214229D01*
X326200Y255500D02*
X327800Y253900D01*
X326200Y255500D02*
Y259819D01*
X316000Y243400D02*
X318500Y245900D01*
X355100Y266700D02*
Y268700D01*
X354700Y266300D02*
X355100Y266700D01*
Y268700D02*
X355600Y269200D01*
X360700Y268900D02*
X361700Y267900D01*
X360700Y268900D02*
Y272900D01*
X324100Y261919D02*
X326200Y259819D01*
X316000Y233297D02*
Y243400D01*
X324200Y224900D02*
Y225097D01*
X316000Y233297D02*
X324200Y225097D01*
X381585Y269915D02*
X385500D01*
X375700Y275800D02*
X381585Y269915D01*
X358100Y297300D02*
Y301900D01*
Y297300D02*
X360300Y295100D01*
X370835Y260200D02*
X370900Y260265D01*
X376182Y245700D02*
X380182D01*
X375985Y251300D02*
X379985D01*
X380200Y232600D02*
Y239400D01*
X380100Y232500D02*
X380200Y232600D01*
X385300Y239418D02*
X385318Y239400D01*
X368276Y203205D02*
X368600Y203529D01*
Y208400D01*
X340324Y200056D02*
X340647Y200379D01*
Y205250D01*
X339300Y531530D02*
Y534236D01*
X389500Y327387D02*
Y389900D01*
X330300Y446837D02*
Y522937D01*
Y446837D02*
X387900Y389237D01*
X331900Y447500D02*
Y523600D01*
Y447500D02*
X389500Y389900D01*
X324100Y531400D02*
X331900Y523600D01*
X322500Y530737D02*
X330300Y522937D01*
X341300Y523900D02*
Y526200D01*
X343476Y528376D02*
Y533153D01*
X341300Y526200D02*
X343476Y528376D01*
X341300Y523900D02*
X343476Y521724D01*
X354800Y536500D02*
X357981Y533319D01*
X387900Y318987D02*
X398814Y308073D01*
X389500Y327387D02*
X398814Y318074D01*
X322500Y530737D02*
Y545663D01*
X324100Y531400D02*
Y545000D01*
X398814Y258073D02*
X399207D01*
X405300Y404166D02*
Y409300D01*
X401552Y413048D02*
X405300Y409300D01*
X399207Y398074D02*
X405300Y404166D01*
X402000Y423100D02*
X407200Y417900D01*
Y402600D02*
Y417900D01*
X350243Y536500D02*
X354800D01*
X349775Y533153D02*
Y536031D01*
X350243Y536500D01*
X398814Y398074D02*
X399207D01*
X384199Y550900D02*
X385100Y551801D01*
X375700Y550900D02*
X384199D01*
X385000Y557900D02*
Y563000D01*
Y557900D02*
X385100Y557800D01*
X395071Y553071D02*
X409729D01*
X339300Y541600D02*
X340900Y543200D01*
Y548000D01*
X339300Y538764D02*
Y541600D01*
X343488Y547988D02*
X343500Y548000D01*
X343476Y539847D02*
X343488Y539859D01*
Y547988D01*
X346000Y544100D02*
Y548000D01*
X346625Y539847D02*
Y543475D01*
X346000Y544100D02*
X346625Y543475D01*
X353700Y548000D02*
Y551800D01*
X352600Y552900D02*
X353700Y551800D01*
X348600Y551700D02*
X349800Y552900D01*
X352600D01*
X348600Y548000D02*
Y551700D01*
X351200Y544000D02*
Y548000D01*
X349775Y542575D02*
X351200Y544000D01*
X349775Y539847D02*
Y542575D01*
X353600Y547900D02*
X353700Y548000D01*
X353600Y543400D02*
Y547900D01*
X352924Y539847D02*
Y542724D01*
X353600Y543400D01*
X361065Y540600D02*
Y540679D01*
X357509Y540691D02*
Y542591D01*
X356300Y543800D02*
X357509Y542591D01*
Y540691D02*
X357600Y540600D01*
X356300Y543800D02*
Y548000D01*
X322500Y545663D02*
X325237Y548400D01*
X329900D01*
X324100Y545000D02*
X325900Y546800D01*
X330563D01*
X334200Y550437D01*
X329900Y548400D02*
X332600Y551100D01*
X335200Y542200D02*
X337000D01*
X338400Y543600D01*
X329600Y535801D02*
X329700Y535901D01*
X329600Y530800D02*
Y535801D01*
X335200Y535300D02*
Y538735D01*
X338400Y543600D02*
Y548000D01*
X329700Y542200D02*
X335200D01*
X371600Y548000D02*
Y550200D01*
X375300Y550500D02*
X375700Y550900D01*
X371600Y550200D02*
X371900Y550500D01*
X375300D01*
X375700Y544200D02*
Y547435D01*
X335500Y577000D02*
X338400D01*
X334400Y582900D02*
X337668D01*
X337868Y583100D01*
X337735Y582800D02*
X338400Y582135D01*
Y577000D02*
Y582135D01*
X340900Y577000D02*
X341050Y577150D01*
Y582650D01*
X341200Y582800D01*
X332600Y551100D02*
Y553463D01*
X336937Y557800D01*
X343400D01*
X334200Y550437D02*
Y552800D01*
X337600Y556200D01*
X343400Y557800D02*
X348600Y563000D01*
Y577000D01*
X337600Y556200D02*
X344063D01*
X351200Y563337D02*
Y577000D01*
X344063Y556200D02*
X351200Y563337D01*
X332417Y567100D02*
X341000D01*
X343500Y569600D01*
X332333Y562400D02*
X340800D01*
X346000Y567600D01*
X326381Y562570D02*
X332200D01*
X346000Y567600D02*
Y577000D01*
X343500Y569600D02*
Y577000D01*
X340900Y572100D02*
Y577000D01*
X320400Y567000D02*
X332200D01*
X319688Y567712D02*
Y571231D01*
Y567712D02*
X320400Y567000D01*
X326100Y553400D02*
X326381Y553681D01*
Y562570D01*
X319900Y571443D02*
Y580400D01*
X319688Y571231D02*
X319900Y571443D01*
X314606Y553724D02*
X319477D01*
X314493Y562893D02*
X319364D01*
X326704Y570907D02*
X331575D01*
X326523Y580076D02*
X331394D01*
X364000Y543300D02*
Y548000D01*
X379000Y569000D02*
Y572268D01*
X371900Y577053D02*
X374355D01*
X371600Y577000D02*
X371900Y577053D01*
X376000Y583000D02*
X379685D01*
X385000Y563000D02*
Y567701D01*
X329118Y626000D02*
X333000D01*
X357882Y621000D02*
X358000Y621118D01*
X353000Y621000D02*
X357882D01*
X340000Y658000D02*
Y662871D01*
X340324Y663195D01*
X368000Y661000D02*
Y666068D01*
X368276Y666344D01*
X376197Y589000D02*
X379882D01*
X375000Y643000D02*
X379685D01*
X380000Y643315D01*
X376000Y649000D02*
X380000D01*
X441522Y663900D02*
X446393D01*
X444672Y635947D02*
X449543D01*
X441522Y606293D02*
X446393D01*
X444672Y578340D02*
X449543D01*
X441522Y548685D02*
X446393D01*
X444672Y520732D02*
X449543D01*
X441522Y491078D02*
X446393D01*
X444672Y463125D02*
X449543D01*
X441522Y403664D02*
X446393D01*
X444672Y375711D02*
X449543D01*
X441522Y346057D02*
X446393D01*
X444672Y318104D02*
X449543D01*
X441522Y288449D02*
X446393D01*
X444672Y260496D02*
X449543D01*
X441522Y230842D02*
X446393D01*
X444672Y202889D02*
X449543D01*
X414000Y548800D02*
X418719D01*
X409729Y553071D02*
X414000Y548800D01*
X418719D02*
X419158Y548362D01*
X366500Y515226D02*
X388655Y493071D01*
X366500Y515226D02*
Y548000D01*
X388655Y493071D02*
X418321D01*
X356250Y548050D02*
X356300Y548000D01*
X338400D02*
Y553600D01*
X353834Y581866D02*
X355334D01*
X353700Y582000D02*
X353834Y581866D01*
X355334D02*
X356300Y580900D01*
Y577000D02*
Y580900D01*
X353700Y572100D02*
Y577000D01*
X331909Y600000D02*
X359000D01*
X324000Y592287D02*
X328423Y596710D01*
X328620D01*
X331909Y600000D01*
X324000Y592091D02*
Y592287D01*
X349000Y628000D02*
X352000D01*
X344000Y623000D02*
X349000Y628000D01*
X344000Y615909D02*
Y623000D01*
X352000Y628000D02*
X368276Y644276D01*
Y652171D01*
X357909Y615909D02*
X358000Y616000D01*
X344000Y615909D02*
X357909D01*
X324000Y630000D02*
X329635Y635635D01*
X340324D01*
X324000Y626000D02*
Y630000D01*
Y615909D02*
Y626000D01*
X373000Y572000D02*
X376732Y575732D01*
X379000D01*
X370000Y572000D02*
X373000D01*
X369100Y572900D02*
X370000Y572000D01*
X369100Y572900D02*
Y577000D01*
X383268Y575732D02*
X385000Y574000D01*
X379000Y575732D02*
X383268D01*
X385118Y583118D02*
Y595000D01*
X385000Y583000D02*
X385118Y583118D01*
X385000Y580000D02*
Y583000D01*
X384000Y579000D02*
X385000Y580000D01*
X376000Y579000D02*
X384000D01*
X371000Y584000D02*
X376000Y579000D01*
X371000Y584000D02*
Y585000D01*
X369000Y587000D02*
X371000Y585000D01*
X358800Y577000D02*
Y586885D01*
X358685Y587000D02*
X358800Y586885D01*
X363884Y583884D02*
Y595556D01*
X385000Y617331D02*
Y623685D01*
X364115Y596115D02*
X384769Y616769D01*
X361400Y581400D02*
X363884Y583884D01*
X361400Y577000D02*
Y581400D01*
X385000Y634000D02*
Y643000D01*
X380000Y602400D02*
X380100Y602500D01*
X380000Y595000D02*
Y602400D01*
X385118Y649000D02*
Y655000D01*
Y643118D02*
Y649000D01*
X385000Y643000D02*
X385118Y643118D01*
X380100Y655100D02*
Y662500D01*
X380000Y655000D02*
X380100Y655100D01*
X388655Y233071D02*
X418321D01*
X414125Y288125D02*
X419158D01*
X388655Y603071D02*
X418321D01*
X418887Y663305D02*
X419158Y663576D01*
X388655Y663071D02*
X418321D01*
D66*
X398814Y658074D02*
D03*
Y638073D02*
D03*
Y648073D02*
D03*
Y618074D02*
D03*
Y628074D02*
D03*
Y598073D02*
D03*
Y608074D02*
D03*
Y578074D02*
D03*
Y588073D02*
D03*
Y558074D02*
D03*
Y568074D02*
D03*
Y538073D02*
D03*
Y548073D02*
D03*
Y518074D02*
D03*
Y528074D02*
D03*
Y498073D02*
D03*
Y508074D02*
D03*
Y478074D02*
D03*
Y488073D02*
D03*
Y458074D02*
D03*
Y468074D02*
D03*
Y438073D02*
D03*
Y448073D02*
D03*
Y418074D02*
D03*
Y428074D02*
D03*
Y398074D02*
D03*
Y408074D02*
D03*
Y378074D02*
D03*
Y388073D02*
D03*
Y358073D02*
D03*
Y368074D02*
D03*
Y338073D02*
D03*
Y348074D02*
D03*
Y318074D02*
D03*
Y328074D02*
D03*
Y298074D02*
D03*
Y308073D02*
D03*
Y278074D02*
D03*
Y288073D02*
D03*
Y258073D02*
D03*
Y268074D02*
D03*
Y248074D02*
D03*
Y238073D02*
D03*
Y228074D02*
D03*
Y218074D02*
D03*
Y208073D02*
D03*
Y198073D02*
D03*
X308814Y658074D02*
D03*
Y638073D02*
D03*
Y648073D02*
D03*
Y618074D02*
D03*
Y628074D02*
D03*
Y598073D02*
D03*
Y608074D02*
D03*
Y578074D02*
D03*
Y588073D02*
D03*
Y558074D02*
D03*
Y568074D02*
D03*
Y538073D02*
D03*
Y548073D02*
D03*
Y518074D02*
D03*
Y528074D02*
D03*
Y498073D02*
D03*
Y508074D02*
D03*
Y478074D02*
D03*
Y488073D02*
D03*
Y458074D02*
D03*
Y468074D02*
D03*
Y438073D02*
D03*
Y448073D02*
D03*
Y418074D02*
D03*
Y428074D02*
D03*
Y398074D02*
D03*
Y408074D02*
D03*
Y378074D02*
D03*
Y388073D02*
D03*
Y358073D02*
D03*
Y368074D02*
D03*
Y338073D02*
D03*
Y348074D02*
D03*
Y318074D02*
D03*
Y328074D02*
D03*
Y298074D02*
D03*
Y308073D02*
D03*
Y278074D02*
D03*
Y288073D02*
D03*
Y258073D02*
D03*
Y268074D02*
D03*
Y248074D02*
D03*
Y238073D02*
D03*
Y228074D02*
D03*
Y218074D02*
D03*
Y208073D02*
D03*
Y198073D02*
D03*
D67*
X398814Y668074D02*
D03*
X308814D02*
D03*
D68*
X370100Y382800D02*
D03*
D69*
X380000Y480000D02*
D03*
X390000Y460000D02*
D03*
X380000Y360000D02*
D03*
Y200000D02*
D03*
X370000Y460000D02*
D03*
X360000Y360000D02*
D03*
X370000Y340000D02*
D03*
X360000Y200000D02*
D03*
X340000Y520000D02*
D03*
X350000Y500000D02*
D03*
X340000Y480000D02*
D03*
X350000Y420000D02*
D03*
Y380000D02*
D03*
X320000Y640000D02*
D03*
X349800Y464900D02*
D03*
X341500Y455400D02*
D03*
X336700Y449100D02*
D03*
X334700Y431300D02*
D03*
Y423100D02*
D03*
X334400Y416800D02*
D03*
X334300Y409500D02*
D03*
X333800Y402300D02*
D03*
Y396600D02*
D03*
X313600Y413100D02*
D03*
Y403100D02*
D03*
X335100Y351200D02*
D03*
X334900Y363500D02*
D03*
X334500Y375900D02*
D03*
Y380200D02*
D03*
X334400Y384100D02*
D03*
Y387800D02*
D03*
X313600Y543100D02*
D03*
Y533100D02*
D03*
Y513100D02*
D03*
Y503100D02*
D03*
Y483100D02*
D03*
Y473100D02*
D03*
Y393100D02*
D03*
Y373100D02*
D03*
Y353100D02*
D03*
Y333100D02*
D03*
X328000Y306600D02*
D03*
X313700Y303100D02*
D03*
X315200Y284100D02*
D03*
X318500Y280400D02*
D03*
X322000Y277500D02*
D03*
X326700Y275500D02*
D03*
X334500Y275700D02*
D03*
X330900Y274900D02*
D03*
X364000Y543300D02*
D03*
X356300Y543800D02*
D03*
X371600Y542700D02*
D03*
X361381Y594000D02*
D03*
X364500Y267900D02*
D03*
X370900Y268700D02*
D03*
X378300Y265900D02*
D03*
X340400Y292600D02*
D03*
X344300Y291000D02*
D03*
X348500Y290900D02*
D03*
X349200Y296200D02*
D03*
X345300D02*
D03*
X391200Y454600D02*
D03*
X391500Y445800D02*
D03*
X387200Y450100D02*
D03*
X386600Y440600D02*
D03*
X382300Y444900D02*
D03*
X377400Y439900D02*
D03*
X381700Y435600D02*
D03*
X383400Y413300D02*
D03*
X377200Y417300D02*
D03*
X370600Y434900D02*
D03*
X366200Y430400D02*
D03*
X371500Y424700D02*
D03*
X376700Y421800D02*
D03*
X380400Y425200D02*
D03*
X354400Y418700D02*
D03*
X359800Y412500D02*
D03*
X372500Y400800D02*
D03*
X366200Y407100D02*
D03*
X379100Y393800D02*
D03*
X384000Y400000D02*
D03*
X378200Y406600D02*
D03*
X371500Y412900D02*
D03*
X365900Y419400D02*
D03*
X360500Y424800D02*
D03*
X389400Y423500D02*
D03*
X391700Y413800D02*
D03*
X360200Y564200D02*
D03*
X362800Y567900D02*
D03*
X370100Y382800D02*
D03*
X371700Y419600D02*
D03*
X356900Y415200D02*
D03*
X369200Y404000D02*
D03*
X375700Y397200D02*
D03*
X337600Y321100D02*
D03*
X364400Y310800D02*
D03*
X375300Y311200D02*
D03*
X371700Y278700D02*
D03*
X375700Y294400D02*
D03*
X376082Y299000D02*
D03*
X392100Y280400D02*
D03*
X368200Y307000D02*
D03*
X371700Y306800D02*
D03*
X355500Y259200D02*
D03*
X355600Y278900D02*
D03*
X353200Y296400D02*
D03*
X385100Y323800D02*
D03*
X412200Y293300D02*
D03*
X412501Y303101D02*
D03*
X365700Y280900D02*
D03*
X336500Y307000D02*
D03*
X340200D02*
D03*
X316500Y313700D02*
D03*
X320700Y313600D02*
D03*
X328200Y301100D02*
D03*
X325200Y303700D02*
D03*
X344500Y265900D02*
D03*
X337900Y230800D02*
D03*
X376182Y245700D02*
D03*
X375985Y251300D02*
D03*
X368600Y208400D02*
D03*
X340647Y205250D02*
D03*
X341094Y529400D02*
D03*
X393000Y402700D02*
D03*
X343800Y525100D02*
D03*
X355600Y525300D02*
D03*
X349800Y525200D02*
D03*
X414125Y288125D02*
D03*
X329600Y530800D02*
D03*
X335200Y535300D02*
D03*
X375700Y544200D02*
D03*
X335500Y577000D02*
D03*
X334400Y582900D02*
D03*
X340900Y572100D02*
D03*
X314606Y553724D02*
D03*
X314493Y562893D02*
D03*
X331575Y570907D02*
D03*
X331394Y580076D02*
D03*
X379000Y569000D02*
D03*
X374355Y577053D02*
D03*
X376000Y583000D02*
D03*
X385000Y563000D02*
D03*
X353000Y621000D02*
D03*
X333000Y626000D02*
D03*
X375000Y643000D02*
D03*
X340000Y658000D02*
D03*
X368000Y661000D02*
D03*
X376197Y589000D02*
D03*
X376000Y649000D02*
D03*
X441522Y663900D02*
D03*
X444672Y635947D02*
D03*
X441522Y606293D02*
D03*
X444672Y578340D02*
D03*
X441522Y548685D02*
D03*
X444672Y520732D02*
D03*
X441522Y491078D02*
D03*
X444672Y463125D02*
D03*
X441522Y403664D02*
D03*
X444672Y375711D02*
D03*
X441522Y346057D02*
D03*
X444672Y318104D02*
D03*
X441522Y288449D02*
D03*
X444672Y260496D02*
D03*
X441522Y230842D02*
D03*
X444672Y202889D02*
D03*
X338400Y553600D02*
D03*
X353700Y582000D02*
D03*
Y572100D02*
D03*
X359000Y600000D02*
D03*
M02*
