G04*
G04 #@! TF.GenerationSoftware,Altium Limited,Altium Designer,21.8.1 (53)*
G04*
G04 Layer_Physical_Order=2*
G04 Layer_Color=16711680*
%FSLAX25Y25*%
%MOIN*%
G70*
G04*
G04 #@! TF.SameCoordinates,F5C5D764-6AA7-4F14-928A-87DEF657E23D*
G04*
G04*
G04 #@! TF.FilePolarity,Positive*
G04*
G01*
G75*
%ADD29R,0.04000X0.05500*%
%ADD65C,0.00800*%
%ADD66O,0.07874X0.07087*%
%ADD67R,0.07874X0.07087*%
%ADD69C,0.02362*%
G04:AMPARAMS|DCode=70|XSize=40mil|YSize=55mil|CornerRadius=0mil|HoleSize=0mil|Usage=FLASHONLY|Rotation=225.000|XOffset=0mil|YOffset=0mil|HoleType=Round|Shape=Rectangle|*
%AMROTATEDRECTD70*
4,1,4,-0.00530,0.03359,0.03359,-0.00530,0.00530,-0.03359,-0.03359,0.00530,-0.00530,0.03359,0.0*
%
%ADD70ROTATEDRECTD70*%

%ADD71R,0.05500X0.04000*%
G36*
X408984Y673737D02*
Y665979D01*
X406021Y663016D01*
X394801D01*
X394791Y663030D01*
X395058Y663530D01*
X398314D01*
Y667573D01*
X393877D01*
Y664126D01*
X393377Y663919D01*
X390648Y666648D01*
X390351Y666846D01*
X390000Y666916D01*
X335100D01*
X334749Y666846D01*
X334452Y666648D01*
X328352Y660548D01*
X328154Y660251D01*
X328084Y659900D01*
Y658232D01*
X327800Y657850D01*
X327584Y657850D01*
X325300D01*
Y654100D01*
Y650350D01*
X327584D01*
X327800Y650350D01*
X328084Y649968D01*
Y641879D01*
X314452Y628248D01*
X314254Y627951D01*
X314184Y627600D01*
Y586100D01*
X314254Y585749D01*
X314452Y585452D01*
X314749Y585254D01*
X315100Y585184D01*
X352321D01*
X355184Y582321D01*
Y571379D01*
X353352Y569548D01*
X353154Y569251D01*
X353084Y568900D01*
Y562850D01*
X350900D01*
Y559100D01*
Y555350D01*
X353084D01*
Y547189D01*
X352600Y547150D01*
Y547150D01*
X347000D01*
Y547150D01*
X346703Y547027D01*
X341716Y552015D01*
Y555185D01*
X341765Y555235D01*
X342030Y555632D01*
X342124Y556100D01*
Y570522D01*
X342580Y570978D01*
X342881Y571706D01*
Y572494D01*
X342580Y573222D01*
X342022Y573779D01*
X341294Y574081D01*
X340506D01*
X339778Y573779D01*
X339220Y573222D01*
X338919Y572494D01*
Y571706D01*
X339220Y570978D01*
X339676Y570522D01*
Y557516D01*
X335200D01*
X335200Y557516D01*
X334888Y557454D01*
X334623Y557277D01*
X334623Y557277D01*
X320523Y543177D01*
X320346Y542912D01*
X320284Y542600D01*
X320284Y542600D01*
Y464538D01*
X314061Y458314D01*
X313533Y458494D01*
X313439Y459207D01*
X313001Y460264D01*
X312305Y461171D01*
X311398Y461867D01*
X310341Y462305D01*
X309207Y462454D01*
X308420D01*
X307286Y462305D01*
X306229Y461867D01*
X305322Y461171D01*
X304626Y460264D01*
X304188Y459207D01*
X304039Y458074D01*
X304188Y456940D01*
X304626Y455883D01*
X305322Y454976D01*
X306229Y454280D01*
X307286Y453842D01*
X308420Y453693D01*
X308796D01*
X308898Y453610D01*
X309136Y453197D01*
X309101Y453068D01*
X309105Y453042D01*
X309099Y453015D01*
X309111Y452954D01*
X309048Y452788D01*
X308865Y452559D01*
X308716Y452454D01*
X308420D01*
X307286Y452305D01*
X306229Y451867D01*
X305322Y451171D01*
X304626Y450264D01*
X304188Y449207D01*
X304039Y448073D01*
X304188Y446940D01*
X304626Y445883D01*
X305322Y444976D01*
X306229Y444280D01*
X307286Y443842D01*
X307590Y443802D01*
Y442345D01*
X307286Y442305D01*
X306229Y441867D01*
X305322Y441171D01*
X304626Y440264D01*
X304188Y439207D01*
X304039Y438073D01*
X304188Y436940D01*
X304626Y435883D01*
X305322Y434976D01*
X306229Y434280D01*
X307286Y433842D01*
X308420Y433693D01*
X309207D01*
X310341Y433842D01*
X311398Y434280D01*
X311628Y434456D01*
X312172Y434254D01*
X312176Y434249D01*
X312252Y434150D01*
X312323Y434041D01*
X312347Y434024D01*
X312365Y434000D01*
X312478Y433934D01*
X312585Y433860D01*
X312614Y433854D01*
X312640Y433839D01*
X312769Y433821D01*
X312896Y433794D01*
X313358Y433789D01*
X320684Y426462D01*
Y324200D01*
X320684Y324200D01*
X320746Y323888D01*
X320923Y323623D01*
X320923Y323623D01*
X329523Y315023D01*
X329788Y314846D01*
X330100Y314784D01*
X330100Y314784D01*
X331377D01*
Y304407D01*
X330035Y303065D01*
X329918Y302891D01*
X329331Y302781D01*
X329296Y302790D01*
X328594Y303081D01*
X327806D01*
X327593Y302993D01*
X327361Y303169D01*
X327181Y303363D01*
Y304094D01*
X326880Y304822D01*
X326322Y305380D01*
X325594Y305681D01*
X324949D01*
X321923Y308707D01*
Y312022D01*
X322379Y312478D01*
X322681Y313206D01*
Y313994D01*
X322379Y314722D01*
X321822Y315280D01*
X321094Y315581D01*
X320306D01*
X319578Y315280D01*
X319021Y314722D01*
X318891Y314410D01*
X318350D01*
X318179Y314822D01*
X317622Y315380D01*
X316894Y315681D01*
X316106D01*
X315378Y315380D01*
X314821Y314822D01*
X314519Y314094D01*
Y313306D01*
X314821Y312578D01*
X315277Y312122D01*
Y308000D01*
X315370Y307532D01*
X315635Y307135D01*
X322535Y300235D01*
X322932Y299970D01*
X323400Y299876D01*
X326622D01*
X327078Y299420D01*
X327806Y299119D01*
X328594D01*
X329176Y299360D01*
X329677Y299121D01*
Y276478D01*
X329221Y276022D01*
X328919Y275294D01*
Y274506D01*
X329221Y273778D01*
X329677Y273322D01*
Y268872D01*
X329215Y268681D01*
X327748Y270148D01*
X327451Y270346D01*
X327100Y270416D01*
X318400D01*
X318049Y270346D01*
X317752Y270148D01*
X314852Y267248D01*
X314654Y266951D01*
X314584Y266600D01*
Y209900D01*
X314654Y209549D01*
X314852Y209252D01*
X317651Y206454D01*
X316286Y205089D01*
X318937Y202437D01*
X321589Y199786D01*
X323357Y201553D01*
X323357Y201553D01*
X323357Y201553D01*
X323777Y201784D01*
X351596D01*
X352120Y201259D01*
X352930Y200792D01*
X353833Y200550D01*
X354767D01*
X355670Y200792D01*
X356480Y201259D01*
X357004Y201784D01*
X385200D01*
X385551Y201854D01*
X385848Y202052D01*
X391079Y207284D01*
X394143D01*
X394188Y206940D01*
X394626Y205883D01*
X395322Y204976D01*
X396230Y204280D01*
X397286Y203842D01*
X398420Y203693D01*
X399207D01*
X400341Y203842D01*
X401398Y204280D01*
X402305Y204976D01*
X403001Y205883D01*
X403439Y206940D01*
X403484Y207284D01*
X405121D01*
X418843Y193562D01*
X418651Y193100D01*
X400068D01*
X400035Y193600D01*
X400393Y193647D01*
X401499Y194105D01*
X402448Y194833D01*
X403176Y195782D01*
X403634Y196887D01*
X403724Y197573D01*
X398814D01*
X393903D01*
X393993Y196887D01*
X394451Y195782D01*
X395180Y194833D01*
X396129Y194105D01*
X397234Y193647D01*
X397592Y193600D01*
X397559Y193100D01*
X310068D01*
X310035Y193600D01*
X310393Y193647D01*
X311499Y194105D01*
X312448Y194833D01*
X313176Y195782D01*
X313634Y196887D01*
X313724Y197573D01*
X308814D01*
X303903D01*
X303994Y196887D01*
X304451Y195782D01*
X305180Y194833D01*
X306129Y194105D01*
X307234Y193647D01*
X307592Y193600D01*
X307559Y193100D01*
X300900D01*
Y674007D01*
X300925Y674068D01*
X408630Y674090D01*
X408984Y673737D01*
D02*
G37*
G36*
X457500Y673246D02*
Y192600D01*
X422395D01*
X406148Y208848D01*
X405851Y209046D01*
X405500Y209116D01*
X403451D01*
X403439Y209207D01*
X403001Y210264D01*
X402305Y211171D01*
X401398Y211867D01*
X400341Y212305D01*
X399207Y212454D01*
X398420D01*
X397286Y212305D01*
X396230Y211867D01*
X395322Y211171D01*
X394626Y210264D01*
X394188Y209207D01*
X394176Y209116D01*
X390700D01*
X390349Y209046D01*
X390052Y208848D01*
X384821Y203616D01*
X357863D01*
X357850Y203633D01*
Y204567D01*
X357608Y205470D01*
X357141Y206280D01*
X356480Y206941D01*
X355670Y207408D01*
X354767Y207650D01*
X353833D01*
X352930Y207408D01*
X352120Y206941D01*
X351459Y206280D01*
X350992Y205470D01*
X350750Y204567D01*
Y203633D01*
X350737Y203616D01*
X326073D01*
X325881Y204078D01*
X326114Y204311D01*
X323463Y206963D01*
X320811Y209614D01*
X319043Y207847D01*
X318633Y208063D01*
X316416Y210279D01*
Y266221D01*
X318779Y268584D01*
X326721D01*
X329677Y265628D01*
Y265500D01*
X329770Y265032D01*
X330035Y264635D01*
X335335Y259335D01*
X335732Y259070D01*
X336200Y258977D01*
X346500D01*
X346968Y259070D01*
X347289Y259284D01*
X348000D01*
X348351Y259354D01*
X348648Y259552D01*
X355133Y266037D01*
X358135Y263035D01*
X358532Y262770D01*
X359000Y262677D01*
X366100D01*
X366568Y262770D01*
X366965Y263035D01*
X370649Y266719D01*
X371294D01*
X372022Y267021D01*
X372580Y267578D01*
X372881Y268306D01*
Y269094D01*
X372580Y269822D01*
X372022Y270379D01*
X371294Y270681D01*
X370506D01*
X369778Y270379D01*
X369220Y269822D01*
X368919Y269094D01*
Y268449D01*
X365593Y265124D01*
X359507D01*
X357442Y267188D01*
X357634Y267650D01*
X360200D01*
Y274750D01*
X356876D01*
X356845Y275250D01*
X358848Y277252D01*
X359046Y277550D01*
X359116Y277900D01*
Y279900D01*
X359046Y280251D01*
X358848Y280548D01*
X356516Y282879D01*
Y283950D01*
X359000D01*
Y287700D01*
Y291450D01*
X356516D01*
Y317021D01*
X362579Y323084D01*
X367350D01*
Y321000D01*
X371100D01*
X374850D01*
Y323084D01*
X377721D01*
X393452Y307352D01*
X393749Y307154D01*
X394100Y307084D01*
X394169D01*
X394188Y306940D01*
X394626Y305883D01*
X395322Y304976D01*
X395586Y304774D01*
X395425Y304300D01*
X387877D01*
X387408Y304207D01*
X387012Y303942D01*
X365951Y282881D01*
X365306D01*
X364578Y282579D01*
X364020Y282022D01*
X363719Y281294D01*
Y280506D01*
X364020Y279778D01*
X364578Y279221D01*
X365306Y278919D01*
X366094D01*
X366822Y279221D01*
X367379Y279778D01*
X367681Y280506D01*
Y281151D01*
X388383Y301853D01*
X395433D01*
X395594Y301380D01*
X395322Y301171D01*
X394626Y300264D01*
X394188Y299207D01*
X394039Y298074D01*
X394188Y296940D01*
X394626Y295883D01*
X395322Y294976D01*
X395555Y294797D01*
X395394Y294323D01*
X386357D01*
X385889Y294230D01*
X385492Y293965D01*
X372175Y280648D01*
X372094Y280681D01*
X371306D01*
X370578Y280380D01*
X370021Y279822D01*
X369719Y279094D01*
Y278306D01*
X370021Y277578D01*
X370578Y277021D01*
X371306Y276719D01*
X372094D01*
X372822Y277021D01*
X373379Y277578D01*
X373681Y278306D01*
Y278694D01*
X386864Y291877D01*
X395420D01*
X395590Y291376D01*
X395322Y291171D01*
X394626Y290264D01*
X394188Y289207D01*
X394039Y288073D01*
X394188Y286940D01*
X394626Y285883D01*
X395322Y284976D01*
X395555Y284797D01*
X395394Y284324D01*
X394800D01*
X394332Y284230D01*
X393935Y283965D01*
X392351Y282381D01*
X391706D01*
X390978Y282080D01*
X390421Y281522D01*
X390119Y280794D01*
Y280006D01*
X390421Y279278D01*
X390978Y278720D01*
X391706Y278419D01*
X392494D01*
X393222Y278720D01*
X393680Y279179D01*
X394160Y278988D01*
X394039Y278074D01*
X394188Y276940D01*
X394626Y275883D01*
X395322Y274976D01*
X396230Y274280D01*
X397286Y273842D01*
X398420Y273693D01*
X399207D01*
X400341Y273842D01*
X401398Y274280D01*
X402305Y274976D01*
X403001Y275883D01*
X403439Y276940D01*
X403588Y278074D01*
X403439Y279207D01*
X403001Y280264D01*
X402305Y281171D01*
X402037Y281377D01*
X402207Y281876D01*
X409100D01*
X409568Y281970D01*
X409965Y282235D01*
X413875Y286144D01*
X414520D01*
X415248Y286446D01*
X415805Y287003D01*
X416107Y287731D01*
Y288520D01*
X415805Y289248D01*
X415248Y289805D01*
X414520Y290107D01*
X413731D01*
X413003Y289805D01*
X412446Y289248D01*
X412144Y288520D01*
Y287875D01*
X408593Y284324D01*
X402233D01*
X402072Y284797D01*
X402305Y284976D01*
X403001Y285883D01*
X403439Y286940D01*
X403588Y288073D01*
X403439Y289207D01*
X403001Y290264D01*
X402305Y291171D01*
X402037Y291376D01*
X402207Y291877D01*
X410822D01*
X411078Y291620D01*
X411806Y291319D01*
X412594D01*
X413322Y291620D01*
X413879Y292178D01*
X414181Y292906D01*
Y293694D01*
X413879Y294422D01*
X413322Y294980D01*
X412594Y295281D01*
X411806D01*
X411078Y294980D01*
X410521Y294422D01*
X410480Y294323D01*
X402233D01*
X402072Y294797D01*
X402305Y294976D01*
X403001Y295883D01*
X403439Y296940D01*
X403588Y298074D01*
X403439Y299207D01*
X403001Y300264D01*
X402305Y301171D01*
X402033Y301380D01*
X402194Y301853D01*
X410947D01*
X411379Y301422D01*
X412107Y301120D01*
X412895D01*
X413623Y301422D01*
X414181Y301979D01*
X414482Y302707D01*
Y303495D01*
X414181Y304223D01*
X413623Y304781D01*
X412895Y305082D01*
X412107D01*
X411379Y304781D01*
X410898Y304300D01*
X402202D01*
X402041Y304774D01*
X402305Y304976D01*
X403001Y305883D01*
X403439Y306940D01*
X403458Y307084D01*
X405400D01*
X405751Y307154D01*
X406048Y307352D01*
X406948Y308252D01*
X407146Y308549D01*
X407216Y308900D01*
Y366721D01*
X410348Y369852D01*
X410546Y370149D01*
X410616Y370500D01*
Y429950D01*
X413000D01*
Y433700D01*
Y437450D01*
X410616D01*
Y475700D01*
X410546Y476051D01*
X410348Y476348D01*
X403548Y483148D01*
X403251Y483346D01*
X402900Y483416D01*
X400619D01*
X400520Y483916D01*
X401398Y484280D01*
X402305Y484976D01*
X403001Y485883D01*
X403439Y486940D01*
X403588Y488073D01*
X403439Y489207D01*
X403001Y490264D01*
X402305Y491171D01*
X401398Y491867D01*
X400341Y492305D01*
X399207Y492454D01*
X398420D01*
X397286Y492305D01*
X396230Y491867D01*
X395322Y491171D01*
X394626Y490264D01*
X394188Y489207D01*
X394039Y488073D01*
X394188Y486940D01*
X394626Y485883D01*
X395322Y484976D01*
X396230Y484280D01*
X397107Y483916D01*
X397008Y483416D01*
X373579D01*
X371287Y485708D01*
X372832Y487253D01*
X370180Y489904D01*
X367528Y492556D01*
X365984Y491011D01*
X362216Y494779D01*
Y514950D01*
X364700D01*
Y518700D01*
Y522450D01*
X362216D01*
Y533400D01*
X362146Y533751D01*
X361948Y534048D01*
X356407Y539588D01*
X356599Y540050D01*
X358320D01*
X358935Y539435D01*
X359332Y539170D01*
X359800Y539077D01*
X365100D01*
X365568Y539170D01*
X365965Y539435D01*
X368007Y541476D01*
X370022D01*
X370478Y541020D01*
X371206Y540719D01*
X371994D01*
X372722Y541020D01*
X373280Y541578D01*
X373581Y542306D01*
Y543094D01*
X373280Y543822D01*
X372722Y544380D01*
X371994Y544681D01*
X371206D01*
X370478Y544380D01*
X370022Y543924D01*
X367500D01*
X367032Y543830D01*
X366635Y543565D01*
X364593Y541524D01*
X360307D01*
X360000Y541830D01*
Y547150D01*
X354916D01*
Y555350D01*
X357300D01*
Y559100D01*
Y562850D01*
X354916D01*
Y568521D01*
X356748Y570352D01*
X356946Y570649D01*
X357016Y571000D01*
Y582700D01*
X356946Y583050D01*
X356748Y583348D01*
X353348Y586748D01*
X353051Y586946D01*
X352700Y587016D01*
X316016D01*
Y627221D01*
X329648Y640852D01*
X329846Y641149D01*
X329916Y641500D01*
Y650350D01*
X331700D01*
Y654100D01*
Y657850D01*
X329916D01*
Y659521D01*
X335479Y665084D01*
X351410D01*
X351602Y664622D01*
X351459Y664480D01*
X350992Y663670D01*
X350750Y662767D01*
Y661833D01*
X350992Y660930D01*
X351459Y660120D01*
X352120Y659459D01*
X352930Y658992D01*
X353833Y658750D01*
X354767D01*
X355670Y658992D01*
X356480Y659459D01*
X357141Y660120D01*
X357608Y660930D01*
X357850Y661833D01*
Y662767D01*
X357608Y663670D01*
X357141Y664480D01*
X356998Y664622D01*
X357190Y665084D01*
X389621D01*
X393252Y661452D01*
X393549Y661254D01*
X393900Y661184D01*
X394702D01*
X394948Y660684D01*
X394626Y660264D01*
X394188Y659207D01*
X394039Y658074D01*
X394188Y656940D01*
X394626Y655883D01*
X395322Y654976D01*
X396230Y654280D01*
X397286Y653842D01*
X398420Y653693D01*
X399207D01*
X400341Y653842D01*
X401398Y654280D01*
X402305Y654976D01*
X403001Y655883D01*
X403439Y656940D01*
X403588Y658074D01*
X403439Y659207D01*
X403001Y660264D01*
X402679Y660684D01*
X402925Y661184D01*
X406400D01*
X406751Y661254D01*
X407048Y661452D01*
X410548Y664952D01*
X410746Y665249D01*
X410816Y665600D01*
Y673591D01*
X457146Y673600D01*
X457500Y673246D01*
D02*
G37*
G36*
X347824Y544188D02*
X347816Y544253D01*
X347794Y544312D01*
X347756Y544363D01*
X347703Y544408D01*
X347635Y544446D01*
X347552Y544476D01*
X347454Y544500D01*
X347340Y544518D01*
X347212Y544528D01*
X347069Y544531D01*
Y545331D01*
X347212Y545335D01*
X347340Y545345D01*
X347454Y545362D01*
X347552Y545386D01*
X347635Y545417D01*
X347703Y545455D01*
X347756Y545500D01*
X347794Y545551D01*
X347816Y545610D01*
X347824Y545675D01*
Y544188D01*
D02*
G37*
G36*
X357484Y543671D02*
X357495Y543557D01*
X357513Y543448D01*
X357540Y543343D01*
X357575Y543241D01*
X357618Y543144D01*
X357669Y543051D01*
X357728Y542962D01*
X357795Y542877D01*
X357870Y542796D01*
X357304Y542230D01*
X357223Y542305D01*
X357138Y542372D01*
X357049Y542431D01*
X356956Y542482D01*
X356859Y542525D01*
X356757Y542560D01*
X356652Y542587D01*
X356543Y542605D01*
X356429Y542616D01*
X356312Y542619D01*
X357481Y543788D01*
X357484Y543671D01*
D02*
G37*
G36*
X402153Y476148D02*
X402124Y476081D01*
X402113Y476009D01*
X402119Y475929D01*
X402144Y475842D01*
X402187Y475749D01*
X402247Y475649D01*
X402326Y475543D01*
X402423Y475429D01*
X402537Y475309D01*
X401971Y474744D01*
X401851Y474858D01*
X401738Y474955D01*
X401631Y475033D01*
X401532Y475094D01*
X401438Y475137D01*
X401352Y475161D01*
X401272Y475168D01*
X401199Y475157D01*
X401133Y475128D01*
X401074Y475081D01*
X402200Y476207D01*
X402153Y476148D01*
D02*
G37*
G36*
X310793Y452030D02*
X310797Y451864D01*
X310810Y451713D01*
X310830Y451577D01*
X310859Y451454D01*
X310895Y451346D01*
X310940Y451253D01*
X310993Y451173D01*
X311054Y451108D01*
X311123Y451057D01*
X311201Y451021D01*
X309594Y451596D01*
X309670Y451577D01*
X309738Y451579D01*
X309798Y451602D01*
X309850Y451644D01*
X309894Y451707D01*
X309930Y451790D01*
X309958Y451893D01*
X309977Y452017D01*
X309989Y452161D01*
X309993Y452325D01*
X310793Y452030D01*
D02*
G37*
G36*
X312537Y450838D02*
X312423Y450717D01*
X312326Y450604D01*
X312247Y450497D01*
X312187Y450398D01*
X312144Y450305D01*
X312120Y450218D01*
X312113Y450138D01*
X312124Y450066D01*
X312153Y449999D01*
X312200Y449940D01*
X311074Y451066D01*
X311133Y451019D01*
X311199Y450990D01*
X311272Y450979D01*
X311352Y450986D01*
X311438Y451010D01*
X311531Y451053D01*
X311631Y451114D01*
X311738Y451192D01*
X311851Y451289D01*
X311971Y451403D01*
X312537Y450838D01*
D02*
G37*
G36*
X340900Y556100D02*
Y552000D01*
X327300Y538400D01*
Y456800D01*
X321050Y450550D01*
X330700Y440900D01*
Y323600D01*
X334200Y320100D01*
Y315600D01*
X330100D01*
X321500Y324200D01*
Y426800D01*
X313700Y434600D01*
X312907Y434610D01*
X312663Y435113D01*
X313176Y435782D01*
X313634Y436887D01*
X313724Y437573D01*
X308814D01*
Y438574D01*
X313724D01*
X313634Y439259D01*
X313176Y440365D01*
X312448Y441314D01*
X311499Y442042D01*
X310393Y442500D01*
X309207Y442656D01*
X308880D01*
Y443491D01*
X309207D01*
X310393Y443647D01*
X311499Y444105D01*
X312448Y444833D01*
X313176Y445782D01*
X313634Y446887D01*
X313724Y447574D01*
X312853D01*
X312790Y447541D01*
X312730Y447494D01*
X312687Y447438D01*
X312661Y447376D01*
X312652Y447306D01*
Y447574D01*
X308814D01*
Y448573D01*
X312652D01*
Y448841D01*
X312661Y448771D01*
X312687Y448709D01*
X312730Y448654D01*
X312790Y448606D01*
X312853Y448573D01*
X313724D01*
X313634Y449260D01*
X313285Y450100D01*
D01*
X313176Y450365D01*
X312448Y451314D01*
X311499Y452042D01*
X310393Y452500D01*
X310076Y452542D01*
X309915Y453015D01*
X311025Y454125D01*
X311398Y454280D01*
X312305Y454976D01*
X313001Y455883D01*
X313155Y456255D01*
X321100Y464200D01*
Y542600D01*
X335200Y556700D01*
X340300D01*
X340900Y556100D01*
D02*
G37*
G36*
X312153Y446148D02*
X312124Y446081D01*
X312113Y446008D01*
X312120Y445929D01*
X312144Y445842D01*
X312187Y445749D01*
X312247Y445649D01*
X312326Y445543D01*
X312423Y445430D01*
X312537Y445309D01*
X311971Y444744D01*
X311851Y444858D01*
X311738Y444955D01*
X311631Y445033D01*
X311531Y445094D01*
X311438Y445137D01*
X311352Y445161D01*
X311272Y445168D01*
X311199Y445157D01*
X311133Y445128D01*
X311074Y445081D01*
X312200Y446207D01*
X312153Y446148D01*
D02*
G37*
G36*
X309537Y444568D02*
X309469Y444543D01*
X309409Y444500D01*
X309357Y444441D01*
X309313Y444364D01*
X309277Y444271D01*
X309249Y444160D01*
X309230Y444032D01*
X309218Y443887D01*
X309214Y443726D01*
X308414D01*
X308410Y443887D01*
X308398Y444032D01*
X308378Y444160D01*
X308350Y444271D01*
X308314Y444364D01*
X308270Y444441D01*
X308218Y444500D01*
X308158Y444543D01*
X308091Y444568D01*
X308015Y444577D01*
X309612D01*
X309537Y444568D01*
D02*
G37*
G36*
X309218Y442260D02*
X309230Y442115D01*
X309249Y441987D01*
X309277Y441876D01*
X309313Y441783D01*
X309357Y441706D01*
X309409Y441646D01*
X309469Y441604D01*
X309537Y441578D01*
X309612Y441570D01*
X308015D01*
X308091Y441578D01*
X308158Y441604D01*
X308218Y441646D01*
X308270Y441706D01*
X308314Y441783D01*
X308350Y441876D01*
X308378Y441987D01*
X308398Y442115D01*
X308410Y442260D01*
X308414Y442421D01*
X309214D01*
X309218Y442260D01*
D02*
G37*
G36*
X311658Y441636D02*
X311541Y441513D01*
X311445Y441400D01*
X311369Y441296D01*
X311314Y441201D01*
X311279Y441115D01*
X311264Y441038D01*
X311270Y440969D01*
X311296Y440910D01*
X311342Y440860D01*
X311409Y440819D01*
X309879Y441544D01*
X309957Y441516D01*
X310040Y441504D01*
X310128Y441509D01*
X310221Y441530D01*
X310319Y441567D01*
X310422Y441620D01*
X310530Y441689D01*
X310643Y441774D01*
X310760Y441875D01*
X310883Y441993D01*
X311658Y441636D01*
D02*
G37*
G36*
X313126Y439749D02*
X313009Y439627D01*
X312908Y439509D01*
X312823Y439396D01*
X312754Y439288D01*
X312701Y439185D01*
X312664Y439087D01*
X312643Y438994D01*
X312638Y438906D01*
X312650Y438824D01*
X312677Y438746D01*
X311953Y440275D01*
X311994Y440208D01*
X312044Y440162D01*
X312103Y440136D01*
X312171Y440130D01*
X312248Y440145D01*
X312335Y440180D01*
X312430Y440235D01*
X312534Y440311D01*
X312647Y440408D01*
X312770Y440524D01*
X313126Y439749D01*
D02*
G37*
G36*
X312478Y436781D02*
X312459Y436705D01*
X312457Y436624D01*
X312471Y436537D01*
X312503Y436444D01*
X312551Y436345D01*
X312617Y436241D01*
X312699Y436131D01*
X312798Y436015D01*
X312914Y435893D01*
X312460Y435216D01*
X312340Y435330D01*
X312228Y435426D01*
X312124Y435502D01*
X312028Y435558D01*
X311939Y435596D01*
X311859Y435615D01*
X311786Y435614D01*
X311721Y435594D01*
X311664Y435555D01*
X311615Y435497D01*
X312514Y436851D01*
X312478Y436781D01*
D02*
G37*
G36*
X346203Y544066D02*
X346600Y543801D01*
X347000Y543721D01*
Y540050D01*
X352600D01*
Y540570D01*
X353100Y540620D01*
X353154Y540349D01*
X353352Y540052D01*
X360384Y533021D01*
Y522450D01*
X358300D01*
Y518700D01*
Y514950D01*
X360384D01*
Y494400D01*
X360454Y494049D01*
X360652Y493752D01*
X364688Y489716D01*
X363003Y488030D01*
X365654Y485379D01*
X368306Y482727D01*
X369992Y484413D01*
X372552Y481852D01*
X372849Y481654D01*
X373200Y481584D01*
X395113D01*
X395255Y481084D01*
X394626Y480264D01*
X394188Y479207D01*
X394039Y478074D01*
X394188Y476940D01*
X394626Y475883D01*
X395322Y474976D01*
X396230Y474280D01*
X397286Y473842D01*
X398420Y473693D01*
X399207D01*
X400341Y473842D01*
X401308Y474242D01*
X404277Y471274D01*
Y456607D01*
X403535Y455865D01*
X403111Y456149D01*
X403439Y456940D01*
X403588Y458074D01*
X403439Y459207D01*
X403001Y460264D01*
X402305Y461171D01*
X401398Y461867D01*
X400341Y462305D01*
X399207Y462454D01*
X398420D01*
X397286Y462305D01*
X396230Y461867D01*
X395322Y461171D01*
X394626Y460264D01*
X394188Y459207D01*
X394039Y458074D01*
X394188Y456940D01*
X394626Y455883D01*
X395322Y454976D01*
X395555Y454797D01*
X395394Y454323D01*
X394800D01*
X394332Y454230D01*
X393935Y453965D01*
X357151Y417181D01*
X356506D01*
X355778Y416880D01*
X355221Y416322D01*
X354919Y415594D01*
Y414806D01*
X355221Y414078D01*
X355778Y413520D01*
X356506Y413219D01*
X357294D01*
X358022Y413520D01*
X358579Y414078D01*
X358881Y414806D01*
Y415451D01*
X394997Y451567D01*
X395015Y451563D01*
X395076Y451485D01*
X395196Y451007D01*
X394626Y450264D01*
X394188Y449207D01*
X394039Y448073D01*
X394188Y446940D01*
X394626Y445883D01*
X395322Y444976D01*
X396230Y444280D01*
X397286Y443842D01*
X398420Y443693D01*
X399207D01*
X400341Y443842D01*
X401398Y444280D01*
X402305Y444976D01*
X403001Y445883D01*
X403439Y446940D01*
X403588Y448073D01*
X403439Y449207D01*
X403001Y450264D01*
X402305Y451171D01*
X402037Y451376D01*
X402207Y451876D01*
X402500D01*
X402968Y451970D01*
X403365Y452235D01*
X406365Y455235D01*
X406630Y455632D01*
X406723Y456100D01*
Y471781D01*
X406630Y472249D01*
X406365Y472646D01*
X403038Y475973D01*
X403439Y476940D01*
X403588Y478074D01*
X403439Y479207D01*
X403001Y480264D01*
X402564Y480833D01*
X402941Y481163D01*
X408784Y475321D01*
Y437450D01*
X406600D01*
Y433700D01*
Y429950D01*
X408784D01*
Y370879D01*
X405652Y367748D01*
X405454Y367451D01*
X405384Y367100D01*
Y309279D01*
X405021Y308916D01*
X403477D01*
X403439Y309207D01*
X403001Y310264D01*
X402305Y311171D01*
X401398Y311867D01*
X400341Y312305D01*
X399207Y312454D01*
X398420D01*
X397286Y312305D01*
X396230Y311867D01*
X395322Y311171D01*
X394626Y310264D01*
X394395Y309707D01*
X393806Y309590D01*
X378748Y324648D01*
X378451Y324846D01*
X378100Y324916D01*
X374850D01*
Y327400D01*
X371100D01*
X367350D01*
Y324916D01*
X362200D01*
X361849Y324846D01*
X361552Y324648D01*
X354952Y318048D01*
X354754Y317751D01*
X354684Y317400D01*
Y298371D01*
X354184Y298137D01*
X353594Y298381D01*
X352806D01*
X352078Y298079D01*
X351520Y297522D01*
X351219Y296794D01*
Y296149D01*
X349993Y294923D01*
X343969D01*
X339462Y299431D01*
X341065Y301035D01*
X341330Y301432D01*
X341424Y301900D01*
Y305422D01*
X341880Y305878D01*
X342181Y306606D01*
Y307394D01*
X341880Y308122D01*
X341322Y308680D01*
X340594Y308981D01*
X339806D01*
X339078Y308680D01*
X338521Y308122D01*
X338219Y307394D01*
Y306606D01*
X338521Y305878D01*
X338977Y305422D01*
Y302407D01*
X337400Y300830D01*
X333823Y304407D01*
Y314784D01*
X334200D01*
X334512Y314846D01*
X334777Y315023D01*
X334954Y315288D01*
X335016Y315600D01*
Y320100D01*
X335016Y320100D01*
X334954Y320412D01*
X334777Y320677D01*
X334777Y320677D01*
X331516Y323938D01*
Y440900D01*
X331454Y441212D01*
X331277Y441477D01*
X331277Y441477D01*
X322203Y450550D01*
X327877Y456223D01*
X328054Y456488D01*
X328116Y456800D01*
X328116Y456800D01*
Y538062D01*
X340162Y550108D01*
X346203Y544066D01*
D02*
G37*
G36*
X350724Y268454D02*
X350656Y268430D01*
X350596Y268390D01*
X350544Y268334D01*
X350500Y268262D01*
X350464Y268174D01*
X350436Y268070D01*
X350416Y267950D01*
X350404Y267814D01*
X350400Y267662D01*
X349600D01*
X349596Y267814D01*
X349584Y267950D01*
X349564Y268070D01*
X349536Y268174D01*
X349500Y268262D01*
X349456Y268334D01*
X349404Y268390D01*
X349344Y268430D01*
X349276Y268454D01*
X349200Y268462D01*
X350800D01*
X350724Y268454D01*
D02*
G37*
G36*
X336204Y298566D02*
X336600Y298301D01*
X337069Y298208D01*
X337225D01*
X342598Y292835D01*
X342994Y292570D01*
X343463Y292477D01*
X350500D01*
X350968Y292570D01*
X351365Y292835D01*
X352949Y294419D01*
X353594D01*
X354184Y294663D01*
X354684Y294429D01*
Y291450D01*
X352600D01*
Y287700D01*
Y283950D01*
X354684D01*
Y282500D01*
X354754Y282149D01*
X354952Y281852D01*
X355462Y281343D01*
X355270Y280881D01*
X355206D01*
X354478Y280579D01*
X353921Y280022D01*
X353619Y279294D01*
Y278506D01*
X353921Y277778D01*
X354377Y277322D01*
Y267872D01*
X351685Y265181D01*
X351223Y265372D01*
Y267650D01*
X352800D01*
Y274750D01*
X347200D01*
Y267650D01*
X348777D01*
Y264207D01*
X345993Y261423D01*
X336707D01*
X332123Y266007D01*
Y273322D01*
X332579Y273778D01*
X332881Y274506D01*
Y275294D01*
X332579Y276022D01*
X332123Y276478D01*
Y301693D01*
X332600Y302170D01*
X336204Y298566D01*
D02*
G37*
%LPC*%
G36*
X403751Y672617D02*
X399314D01*
Y668574D01*
X403751D01*
Y672617D01*
D02*
G37*
G36*
X313751D02*
X309314D01*
Y668574D01*
X313751D01*
Y672617D01*
D02*
G37*
G36*
X398314D02*
X393877D01*
Y668574D01*
X398314D01*
Y672617D01*
D02*
G37*
G36*
X308314D02*
X303877D01*
Y668574D01*
X308314D01*
Y672617D01*
D02*
G37*
G36*
X403751Y667573D02*
X399314D01*
Y663530D01*
X403751D01*
Y667573D01*
D02*
G37*
G36*
X313751D02*
X309314D01*
Y663530D01*
X313751D01*
Y667573D01*
D02*
G37*
G36*
X308314D02*
X303877D01*
Y663530D01*
X308314D01*
Y667573D01*
D02*
G37*
G36*
X324300Y657850D02*
X321800D01*
Y654600D01*
X324300D01*
Y657850D01*
D02*
G37*
G36*
X309207Y662454D02*
X308420D01*
X307286Y662305D01*
X306229Y661867D01*
X305322Y661171D01*
X304626Y660264D01*
X304188Y659207D01*
X304039Y658074D01*
X304188Y656940D01*
X304626Y655883D01*
X305322Y654976D01*
X306229Y654280D01*
X307286Y653842D01*
X308420Y653693D01*
X309207D01*
X310341Y653842D01*
X311398Y654280D01*
X312305Y654976D01*
X313001Y655883D01*
X313439Y656940D01*
X313588Y658074D01*
X313439Y659207D01*
X313001Y660264D01*
X312305Y661171D01*
X311398Y661867D01*
X310341Y662305D01*
X309207Y662454D01*
D02*
G37*
G36*
X324300Y653600D02*
X321800D01*
Y650350D01*
X324300D01*
Y653600D01*
D02*
G37*
G36*
X309207Y652454D02*
X308420D01*
X307286Y652305D01*
X306229Y651867D01*
X305322Y651171D01*
X304626Y650264D01*
X304188Y649207D01*
X304039Y648073D01*
X304188Y646940D01*
X304626Y645883D01*
X305322Y644976D01*
X306229Y644280D01*
X307286Y643842D01*
X308420Y643693D01*
X309207D01*
X310341Y643842D01*
X311398Y644280D01*
X312305Y644976D01*
X313001Y645883D01*
X313439Y646940D01*
X313588Y648073D01*
X313439Y649207D01*
X313001Y650264D01*
X312305Y651171D01*
X311398Y651867D01*
X310341Y652305D01*
X309207Y652454D01*
D02*
G37*
G36*
Y642454D02*
X308420D01*
X307286Y642305D01*
X306229Y641867D01*
X305322Y641171D01*
X304626Y640264D01*
X304188Y639207D01*
X304039Y638073D01*
X304188Y636940D01*
X304626Y635883D01*
X305322Y634976D01*
X306229Y634280D01*
X307286Y633842D01*
X308420Y633693D01*
X309207D01*
X310341Y633842D01*
X311398Y634280D01*
X312305Y634976D01*
X313001Y635883D01*
X313439Y636940D01*
X313588Y638073D01*
X313439Y639207D01*
X313001Y640264D01*
X312305Y641171D01*
X311398Y641867D01*
X310341Y642305D01*
X309207Y642454D01*
D02*
G37*
G36*
Y632454D02*
X308420D01*
X307286Y632305D01*
X306229Y631867D01*
X305322Y631171D01*
X304626Y630264D01*
X304188Y629207D01*
X304039Y628074D01*
X304188Y626940D01*
X304626Y625883D01*
X305322Y624976D01*
X306229Y624280D01*
X307286Y623842D01*
X308420Y623693D01*
X309207D01*
X310341Y623842D01*
X311398Y624280D01*
X312305Y624976D01*
X313001Y625883D01*
X313439Y626940D01*
X313588Y628074D01*
X313439Y629207D01*
X313001Y630264D01*
X312305Y631171D01*
X311398Y631867D01*
X310341Y632305D01*
X309207Y632454D01*
D02*
G37*
G36*
Y622454D02*
X308420D01*
X307286Y622305D01*
X306229Y621867D01*
X305322Y621171D01*
X304626Y620264D01*
X304188Y619207D01*
X304039Y618074D01*
X304188Y616940D01*
X304626Y615883D01*
X305322Y614976D01*
X306229Y614280D01*
X307286Y613842D01*
X308420Y613693D01*
X309207D01*
X310341Y613842D01*
X311398Y614280D01*
X312305Y614976D01*
X313001Y615883D01*
X313439Y616940D01*
X313588Y618074D01*
X313439Y619207D01*
X313001Y620264D01*
X312305Y621171D01*
X311398Y621867D01*
X310341Y622305D01*
X309207Y622454D01*
D02*
G37*
G36*
Y612454D02*
X308420D01*
X307286Y612305D01*
X306229Y611867D01*
X305322Y611171D01*
X304626Y610264D01*
X304188Y609207D01*
X304039Y608074D01*
X304188Y606940D01*
X304626Y605883D01*
X305322Y604976D01*
X306229Y604280D01*
X307286Y603842D01*
X308420Y603693D01*
X309207D01*
X310341Y603842D01*
X311398Y604280D01*
X312305Y604976D01*
X313001Y605883D01*
X313439Y606940D01*
X313588Y608074D01*
X313439Y609207D01*
X313001Y610264D01*
X312305Y611171D01*
X311398Y611867D01*
X310341Y612305D01*
X309207Y612454D01*
D02*
G37*
G36*
Y602454D02*
X308420D01*
X307286Y602305D01*
X306229Y601867D01*
X305322Y601171D01*
X304626Y600264D01*
X304188Y599207D01*
X304039Y598073D01*
X304188Y596940D01*
X304626Y595883D01*
X305322Y594976D01*
X306229Y594280D01*
X307286Y593842D01*
X308420Y593693D01*
X309207D01*
X310341Y593842D01*
X311398Y594280D01*
X312305Y594976D01*
X313001Y595883D01*
X313439Y596940D01*
X313588Y598073D01*
X313439Y599207D01*
X313001Y600264D01*
X312305Y601171D01*
X311398Y601867D01*
X310341Y602305D01*
X309207Y602454D01*
D02*
G37*
G36*
Y592454D02*
X308420D01*
X307286Y592305D01*
X306229Y591867D01*
X305322Y591171D01*
X304626Y590264D01*
X304188Y589207D01*
X304039Y588073D01*
X304188Y586940D01*
X304626Y585883D01*
X305322Y584976D01*
X306229Y584280D01*
X307286Y583842D01*
X308420Y583693D01*
X309207D01*
X310341Y583842D01*
X311398Y584280D01*
X312305Y584976D01*
X313001Y585883D01*
X313439Y586940D01*
X313588Y588073D01*
X313439Y589207D01*
X313001Y590264D01*
X312305Y591171D01*
X311398Y591867D01*
X310341Y592305D01*
X309207Y592454D01*
D02*
G37*
G36*
Y582454D02*
X308420D01*
X307286Y582305D01*
X306229Y581867D01*
X305322Y581171D01*
X304626Y580264D01*
X304188Y579207D01*
X304039Y578074D01*
X304188Y576940D01*
X304626Y575883D01*
X305322Y574976D01*
X306229Y574280D01*
X307286Y573842D01*
X308420Y573693D01*
X309207D01*
X310341Y573842D01*
X311398Y574280D01*
X312305Y574976D01*
X313001Y575883D01*
X313439Y576940D01*
X313588Y578074D01*
X313439Y579207D01*
X313001Y580264D01*
X312305Y581171D01*
X311398Y581867D01*
X310341Y582305D01*
X309207Y582454D01*
D02*
G37*
G36*
Y572454D02*
X308420D01*
X307286Y572305D01*
X306229Y571867D01*
X305322Y571171D01*
X304626Y570264D01*
X304188Y569207D01*
X304039Y568074D01*
X304188Y566940D01*
X304626Y565883D01*
X305322Y564976D01*
X306229Y564280D01*
X307286Y563842D01*
X308420Y563693D01*
X309207D01*
X310341Y563842D01*
X311398Y564280D01*
X312305Y564976D01*
X313001Y565883D01*
X313439Y566940D01*
X313588Y568074D01*
X313439Y569207D01*
X313001Y570264D01*
X312305Y571171D01*
X311398Y571867D01*
X310341Y572305D01*
X309207Y572454D01*
D02*
G37*
G36*
X349900Y562850D02*
X347400D01*
Y559600D01*
X349900D01*
Y562850D01*
D02*
G37*
G36*
Y558600D02*
X347400D01*
Y555350D01*
X349900D01*
Y558600D01*
D02*
G37*
G36*
X309207Y562454D02*
X308420D01*
X307286Y562305D01*
X306229Y561867D01*
X305322Y561171D01*
X304626Y560264D01*
X304188Y559207D01*
X304039Y558074D01*
X304188Y556940D01*
X304626Y555883D01*
X305322Y554976D01*
X306229Y554280D01*
X307286Y553842D01*
X308420Y553693D01*
X309207D01*
X310341Y553842D01*
X311398Y554280D01*
X312305Y554976D01*
X313001Y555883D01*
X313439Y556940D01*
X313588Y558074D01*
X313439Y559207D01*
X313001Y560264D01*
X312305Y561171D01*
X311398Y561867D01*
X310341Y562305D01*
X309207Y562454D01*
D02*
G37*
G36*
Y552454D02*
X308420D01*
X307286Y552305D01*
X306229Y551867D01*
X305322Y551171D01*
X304626Y550264D01*
X304188Y549207D01*
X304039Y548073D01*
X304188Y546940D01*
X304626Y545883D01*
X305322Y544976D01*
X306229Y544280D01*
X307286Y543842D01*
X308420Y543693D01*
X309207D01*
X310341Y543842D01*
X311398Y544280D01*
X312305Y544976D01*
X313001Y545883D01*
X313439Y546940D01*
X313588Y548073D01*
X313439Y549207D01*
X313001Y550264D01*
X312305Y551171D01*
X311398Y551867D01*
X310341Y552305D01*
X309207Y552454D01*
D02*
G37*
G36*
Y542454D02*
X308420D01*
X307286Y542305D01*
X306229Y541867D01*
X305322Y541171D01*
X304626Y540264D01*
X304188Y539207D01*
X304039Y538073D01*
X304188Y536940D01*
X304626Y535883D01*
X305322Y534976D01*
X306229Y534280D01*
X307286Y533842D01*
X308420Y533693D01*
X309207D01*
X310341Y533842D01*
X311398Y534280D01*
X312305Y534976D01*
X313001Y535883D01*
X313439Y536940D01*
X313588Y538073D01*
X313439Y539207D01*
X313001Y540264D01*
X312305Y541171D01*
X311398Y541867D01*
X310341Y542305D01*
X309207Y542454D01*
D02*
G37*
G36*
Y532454D02*
X308420D01*
X307286Y532305D01*
X306229Y531867D01*
X305322Y531171D01*
X304626Y530264D01*
X304188Y529207D01*
X304039Y528074D01*
X304188Y526940D01*
X304626Y525883D01*
X305322Y524976D01*
X306229Y524280D01*
X307286Y523842D01*
X308420Y523693D01*
X309207D01*
X310341Y523842D01*
X311398Y524280D01*
X312305Y524976D01*
X313001Y525883D01*
X313439Y526940D01*
X313588Y528074D01*
X313439Y529207D01*
X313001Y530264D01*
X312305Y531171D01*
X311398Y531867D01*
X310341Y532305D01*
X309207Y532454D01*
D02*
G37*
G36*
Y522454D02*
X308420D01*
X307286Y522305D01*
X306229Y521867D01*
X305322Y521171D01*
X304626Y520264D01*
X304188Y519207D01*
X304039Y518074D01*
X304188Y516940D01*
X304626Y515883D01*
X305322Y514976D01*
X306229Y514280D01*
X307286Y513842D01*
X308420Y513693D01*
X309207D01*
X310341Y513842D01*
X311398Y514280D01*
X312305Y514976D01*
X313001Y515883D01*
X313439Y516940D01*
X313588Y518074D01*
X313439Y519207D01*
X313001Y520264D01*
X312305Y521171D01*
X311398Y521867D01*
X310341Y522305D01*
X309207Y522454D01*
D02*
G37*
G36*
Y512454D02*
X308420D01*
X307286Y512305D01*
X306229Y511867D01*
X305322Y511171D01*
X304626Y510264D01*
X304188Y509207D01*
X304039Y508074D01*
X304188Y506940D01*
X304626Y505883D01*
X305322Y504976D01*
X306229Y504280D01*
X307286Y503842D01*
X308420Y503693D01*
X309207D01*
X310341Y503842D01*
X311398Y504280D01*
X312305Y504976D01*
X313001Y505883D01*
X313439Y506940D01*
X313588Y508074D01*
X313439Y509207D01*
X313001Y510264D01*
X312305Y511171D01*
X311398Y511867D01*
X310341Y512305D01*
X309207Y512454D01*
D02*
G37*
G36*
Y502454D02*
X308420D01*
X307286Y502305D01*
X306229Y501867D01*
X305322Y501171D01*
X304626Y500264D01*
X304188Y499207D01*
X304039Y498073D01*
X304188Y496940D01*
X304626Y495883D01*
X305322Y494976D01*
X306229Y494280D01*
X307286Y493842D01*
X308420Y493693D01*
X309207D01*
X310341Y493842D01*
X311398Y494280D01*
X312305Y494976D01*
X313001Y495883D01*
X313439Y496940D01*
X313588Y498073D01*
X313439Y499207D01*
X313001Y500264D01*
X312305Y501171D01*
X311398Y501867D01*
X310341Y502305D01*
X309207Y502454D01*
D02*
G37*
G36*
Y492454D02*
X308420D01*
X307286Y492305D01*
X306229Y491867D01*
X305322Y491171D01*
X304626Y490264D01*
X304188Y489207D01*
X304039Y488073D01*
X304188Y486940D01*
X304626Y485883D01*
X305322Y484976D01*
X306229Y484280D01*
X307286Y483842D01*
X308420Y483693D01*
X309207D01*
X310341Y483842D01*
X311398Y484280D01*
X312305Y484976D01*
X313001Y485883D01*
X313439Y486940D01*
X313588Y488073D01*
X313439Y489207D01*
X313001Y490264D01*
X312305Y491171D01*
X311398Y491867D01*
X310341Y492305D01*
X309207Y492454D01*
D02*
G37*
G36*
Y482454D02*
X308420D01*
X307286Y482305D01*
X306229Y481867D01*
X305322Y481171D01*
X304626Y480264D01*
X304188Y479207D01*
X304039Y478074D01*
X304188Y476940D01*
X304626Y475883D01*
X305322Y474976D01*
X306229Y474280D01*
X307286Y473842D01*
X308420Y473693D01*
X309207D01*
X310341Y473842D01*
X311398Y474280D01*
X312305Y474976D01*
X313001Y475883D01*
X313439Y476940D01*
X313588Y478074D01*
X313439Y479207D01*
X313001Y480264D01*
X312305Y481171D01*
X311398Y481867D01*
X310341Y482305D01*
X309207Y482454D01*
D02*
G37*
G36*
Y472454D02*
X308420D01*
X307286Y472305D01*
X306229Y471867D01*
X305322Y471171D01*
X304626Y470264D01*
X304188Y469207D01*
X304039Y468074D01*
X304188Y466940D01*
X304626Y465883D01*
X305322Y464976D01*
X306229Y464280D01*
X307286Y463842D01*
X308420Y463693D01*
X309207D01*
X310341Y463842D01*
X311398Y464280D01*
X312305Y464976D01*
X313001Y465883D01*
X313439Y466940D01*
X313588Y468074D01*
X313439Y469207D01*
X313001Y470264D01*
X312305Y471171D01*
X311398Y471867D01*
X310341Y472305D01*
X309207Y472454D01*
D02*
G37*
G36*
X309314Y432642D02*
Y428574D01*
X313724D01*
X313634Y429259D01*
X313176Y430365D01*
X312448Y431314D01*
X311499Y432042D01*
X310393Y432500D01*
X309314Y432642D01*
D02*
G37*
G36*
X308314Y432642D02*
X307234Y432500D01*
X306129Y432042D01*
X305180Y431314D01*
X304451Y430365D01*
X303994Y429259D01*
X303903Y428574D01*
X308314D01*
Y432642D01*
D02*
G37*
G36*
Y427573D02*
X303903D01*
X303994Y426887D01*
X304451Y425782D01*
X305180Y424833D01*
X306129Y424105D01*
X307234Y423647D01*
X308314Y423505D01*
Y427573D01*
D02*
G37*
G36*
X313724D02*
X309314D01*
Y423505D01*
X310393Y423647D01*
X311499Y424105D01*
X312448Y424833D01*
X313176Y425782D01*
X313634Y426887D01*
X313724Y427573D01*
D02*
G37*
G36*
X309314Y422642D02*
Y418573D01*
X313724D01*
X313634Y419260D01*
X313176Y420365D01*
X312448Y421314D01*
X311499Y422042D01*
X310393Y422500D01*
X309314Y422642D01*
D02*
G37*
G36*
X308314D02*
X307234Y422500D01*
X306129Y422042D01*
X305180Y421314D01*
X304451Y420365D01*
X303994Y419260D01*
X303903Y418573D01*
X308314D01*
Y422642D01*
D02*
G37*
G36*
X313724Y417573D02*
X309314D01*
Y413505D01*
X310393Y413647D01*
X311499Y414105D01*
X312448Y414833D01*
X313176Y415782D01*
X313634Y416887D01*
X313724Y417573D01*
D02*
G37*
G36*
X308314D02*
X303903D01*
X303994Y416887D01*
X304451Y415782D01*
X305180Y414833D01*
X306129Y414105D01*
X307234Y413647D01*
X308314Y413505D01*
Y417573D01*
D02*
G37*
G36*
X309207Y412454D02*
X308420D01*
X307286Y412305D01*
X306229Y411867D01*
X305322Y411171D01*
X304626Y410264D01*
X304188Y409207D01*
X304039Y408074D01*
X304188Y406940D01*
X304626Y405883D01*
X305322Y404976D01*
X306229Y404280D01*
X307286Y403842D01*
X308420Y403693D01*
X309207D01*
X310341Y403842D01*
X311398Y404280D01*
X312305Y404976D01*
X313001Y405883D01*
X313439Y406940D01*
X313588Y408074D01*
X313439Y409207D01*
X313001Y410264D01*
X312305Y411171D01*
X311398Y411867D01*
X310341Y412305D01*
X309207Y412454D01*
D02*
G37*
G36*
Y402454D02*
X308420D01*
X307286Y402305D01*
X306229Y401867D01*
X305322Y401171D01*
X304626Y400264D01*
X304188Y399207D01*
X304039Y398074D01*
X304188Y396940D01*
X304626Y395883D01*
X305322Y394976D01*
X306229Y394280D01*
X307286Y393842D01*
X308420Y393693D01*
X309207D01*
X310341Y393842D01*
X311398Y394280D01*
X312305Y394976D01*
X313001Y395883D01*
X313439Y396940D01*
X313588Y398074D01*
X313439Y399207D01*
X313001Y400264D01*
X312305Y401171D01*
X311398Y401867D01*
X310341Y402305D01*
X309207Y402454D01*
D02*
G37*
G36*
Y392454D02*
X308420D01*
X307286Y392305D01*
X306229Y391867D01*
X305322Y391171D01*
X304626Y390264D01*
X304188Y389207D01*
X304039Y388073D01*
X304188Y386940D01*
X304626Y385883D01*
X305322Y384976D01*
X306229Y384280D01*
X307286Y383842D01*
X308420Y383693D01*
X309207D01*
X310341Y383842D01*
X311398Y384280D01*
X312305Y384976D01*
X313001Y385883D01*
X313439Y386940D01*
X313588Y388073D01*
X313439Y389207D01*
X313001Y390264D01*
X312305Y391171D01*
X311398Y391867D01*
X310341Y392305D01*
X309207Y392454D01*
D02*
G37*
G36*
Y382454D02*
X308420D01*
X307286Y382305D01*
X306229Y381867D01*
X305322Y381171D01*
X304626Y380264D01*
X304188Y379207D01*
X304039Y378074D01*
X304188Y376940D01*
X304626Y375883D01*
X305322Y374976D01*
X306229Y374280D01*
X307286Y373842D01*
X308420Y373693D01*
X309207D01*
X310341Y373842D01*
X311398Y374280D01*
X312305Y374976D01*
X313001Y375883D01*
X313439Y376940D01*
X313588Y378074D01*
X313439Y379207D01*
X313001Y380264D01*
X312305Y381171D01*
X311398Y381867D01*
X310341Y382305D01*
X309207Y382454D01*
D02*
G37*
G36*
Y372454D02*
X308420D01*
X307286Y372305D01*
X306229Y371867D01*
X305322Y371171D01*
X304626Y370264D01*
X304188Y369207D01*
X304039Y368074D01*
X304188Y366940D01*
X304626Y365883D01*
X305322Y364976D01*
X306229Y364280D01*
X307286Y363842D01*
X308420Y363693D01*
X309207D01*
X310341Y363842D01*
X311398Y364280D01*
X312305Y364976D01*
X313001Y365883D01*
X313439Y366940D01*
X313588Y368074D01*
X313439Y369207D01*
X313001Y370264D01*
X312305Y371171D01*
X311398Y371867D01*
X310341Y372305D01*
X309207Y372454D01*
D02*
G37*
G36*
Y362454D02*
X308420D01*
X307286Y362305D01*
X306229Y361867D01*
X305322Y361171D01*
X304626Y360264D01*
X304188Y359207D01*
X304039Y358073D01*
X304188Y356940D01*
X304626Y355883D01*
X305322Y354976D01*
X306229Y354280D01*
X307286Y353842D01*
X308420Y353693D01*
X309207D01*
X310341Y353842D01*
X311398Y354280D01*
X312305Y354976D01*
X313001Y355883D01*
X313439Y356940D01*
X313588Y358073D01*
X313439Y359207D01*
X313001Y360264D01*
X312305Y361171D01*
X311398Y361867D01*
X310341Y362305D01*
X309207Y362454D01*
D02*
G37*
G36*
Y352454D02*
X308420D01*
X307286Y352305D01*
X306229Y351867D01*
X305322Y351171D01*
X304626Y350264D01*
X304188Y349207D01*
X304039Y348074D01*
X304188Y346940D01*
X304626Y345883D01*
X305322Y344976D01*
X306229Y344280D01*
X307286Y343842D01*
X308420Y343693D01*
X309207D01*
X310341Y343842D01*
X311398Y344280D01*
X312305Y344976D01*
X313001Y345883D01*
X313439Y346940D01*
X313588Y348074D01*
X313439Y349207D01*
X313001Y350264D01*
X312305Y351171D01*
X311398Y351867D01*
X310341Y352305D01*
X309207Y352454D01*
D02*
G37*
G36*
Y342454D02*
X308420D01*
X307286Y342305D01*
X306229Y341867D01*
X305322Y341171D01*
X304626Y340264D01*
X304188Y339207D01*
X304039Y338073D01*
X304188Y336940D01*
X304626Y335883D01*
X305322Y334976D01*
X306229Y334280D01*
X307286Y333842D01*
X308420Y333693D01*
X309207D01*
X310341Y333842D01*
X311398Y334280D01*
X312305Y334976D01*
X313001Y335883D01*
X313439Y336940D01*
X313588Y338073D01*
X313439Y339207D01*
X313001Y340264D01*
X312305Y341171D01*
X311398Y341867D01*
X310341Y342305D01*
X309207Y342454D01*
D02*
G37*
G36*
Y332454D02*
X308420D01*
X307286Y332305D01*
X306229Y331867D01*
X305322Y331171D01*
X304626Y330264D01*
X304188Y329207D01*
X304039Y328074D01*
X304188Y326940D01*
X304626Y325883D01*
X305322Y324976D01*
X306229Y324280D01*
X307286Y323842D01*
X308420Y323693D01*
X309207D01*
X310341Y323842D01*
X311398Y324280D01*
X312305Y324976D01*
X313001Y325883D01*
X313439Y326940D01*
X313588Y328074D01*
X313439Y329207D01*
X313001Y330264D01*
X312305Y331171D01*
X311398Y331867D01*
X310341Y332305D01*
X309207Y332454D01*
D02*
G37*
G36*
Y322454D02*
X308420D01*
X307286Y322305D01*
X306229Y321867D01*
X305322Y321171D01*
X304626Y320264D01*
X304188Y319207D01*
X304039Y318074D01*
X304188Y316940D01*
X304626Y315883D01*
X305322Y314976D01*
X306229Y314280D01*
X307286Y313842D01*
X308420Y313693D01*
X309207D01*
X310341Y313842D01*
X311398Y314280D01*
X312305Y314976D01*
X313001Y315883D01*
X313439Y316940D01*
X313588Y318074D01*
X313439Y319207D01*
X313001Y320264D01*
X312305Y321171D01*
X311398Y321867D01*
X310341Y322305D01*
X309207Y322454D01*
D02*
G37*
G36*
Y312454D02*
X308420D01*
X307286Y312305D01*
X306229Y311867D01*
X305322Y311171D01*
X304626Y310264D01*
X304188Y309207D01*
X304039Y308073D01*
X304188Y306940D01*
X304626Y305883D01*
X305322Y304976D01*
X306229Y304280D01*
X307286Y303842D01*
X308420Y303693D01*
X309207D01*
X310341Y303842D01*
X311398Y304280D01*
X312305Y304976D01*
X313001Y305883D01*
X313439Y306940D01*
X313588Y308073D01*
X313439Y309207D01*
X313001Y310264D01*
X312305Y311171D01*
X311398Y311867D01*
X310341Y312305D01*
X309207Y312454D01*
D02*
G37*
G36*
Y302454D02*
X308420D01*
X307286Y302305D01*
X306229Y301867D01*
X305322Y301171D01*
X304626Y300264D01*
X304188Y299207D01*
X304039Y298074D01*
X304188Y296940D01*
X304626Y295883D01*
X305322Y294976D01*
X306229Y294280D01*
X307286Y293842D01*
X308420Y293693D01*
X309207D01*
X310341Y293842D01*
X311398Y294280D01*
X312305Y294976D01*
X313001Y295883D01*
X313439Y296940D01*
X313588Y298074D01*
X313439Y299207D01*
X313001Y300264D01*
X312305Y301171D01*
X311398Y301867D01*
X310341Y302305D01*
X309207Y302454D01*
D02*
G37*
G36*
Y292454D02*
X308420D01*
X307286Y292305D01*
X306229Y291867D01*
X305322Y291171D01*
X304626Y290264D01*
X304188Y289207D01*
X304039Y288073D01*
X304188Y286940D01*
X304626Y285883D01*
X305322Y284976D01*
X306229Y284280D01*
X307286Y283842D01*
X308420Y283693D01*
X309207D01*
X310341Y283842D01*
X311398Y284280D01*
X312305Y284976D01*
X313001Y285883D01*
X313439Y286940D01*
X313588Y288073D01*
X313439Y289207D01*
X313001Y290264D01*
X312305Y291171D01*
X311398Y291867D01*
X310341Y292305D01*
X309207Y292454D01*
D02*
G37*
G36*
Y282454D02*
X308420D01*
X307286Y282305D01*
X306229Y281867D01*
X305322Y281171D01*
X304626Y280264D01*
X304188Y279207D01*
X304039Y278074D01*
X304188Y276940D01*
X304626Y275883D01*
X305322Y274976D01*
X306229Y274280D01*
X307286Y273842D01*
X308420Y273693D01*
X309207D01*
X310341Y273842D01*
X311398Y274280D01*
X312305Y274976D01*
X313001Y275883D01*
X313439Y276940D01*
X313588Y278074D01*
X313439Y279207D01*
X313001Y280264D01*
X312305Y281171D01*
X311398Y281867D01*
X310341Y282305D01*
X309207Y282454D01*
D02*
G37*
G36*
Y272454D02*
X308420D01*
X307286Y272305D01*
X306229Y271867D01*
X305322Y271171D01*
X304626Y270264D01*
X304188Y269207D01*
X304039Y268074D01*
X304188Y266940D01*
X304626Y265883D01*
X305322Y264976D01*
X306229Y264280D01*
X307286Y263842D01*
X308420Y263693D01*
X309207D01*
X310341Y263842D01*
X311398Y264280D01*
X312305Y264976D01*
X313001Y265883D01*
X313439Y266940D01*
X313588Y268074D01*
X313439Y269207D01*
X313001Y270264D01*
X312305Y271171D01*
X311398Y271867D01*
X310341Y272305D01*
X309207Y272454D01*
D02*
G37*
G36*
Y262454D02*
X308420D01*
X307286Y262305D01*
X306229Y261867D01*
X305322Y261171D01*
X304626Y260264D01*
X304188Y259207D01*
X304039Y258073D01*
X304188Y256940D01*
X304626Y255883D01*
X305322Y254976D01*
X306229Y254280D01*
X307286Y253842D01*
X308420Y253693D01*
X309207D01*
X310341Y253842D01*
X311398Y254280D01*
X312305Y254976D01*
X313001Y255883D01*
X313439Y256940D01*
X313588Y258073D01*
X313439Y259207D01*
X313001Y260264D01*
X312305Y261171D01*
X311398Y261867D01*
X310341Y262305D01*
X309207Y262454D01*
D02*
G37*
G36*
Y252454D02*
X308420D01*
X307286Y252305D01*
X306229Y251867D01*
X305322Y251171D01*
X304626Y250264D01*
X304188Y249207D01*
X304039Y248074D01*
X304188Y246940D01*
X304626Y245883D01*
X305322Y244976D01*
X306229Y244280D01*
X307286Y243842D01*
X308420Y243693D01*
X309207D01*
X310341Y243842D01*
X311398Y244280D01*
X312305Y244976D01*
X313001Y245883D01*
X313439Y246940D01*
X313588Y248074D01*
X313439Y249207D01*
X313001Y250264D01*
X312305Y251171D01*
X311398Y251867D01*
X310341Y252305D01*
X309207Y252454D01*
D02*
G37*
G36*
Y242454D02*
X308420D01*
X307286Y242305D01*
X306229Y241867D01*
X305322Y241171D01*
X304626Y240264D01*
X304188Y239207D01*
X304039Y238073D01*
X304188Y236940D01*
X304626Y235883D01*
X305322Y234976D01*
X306229Y234280D01*
X307286Y233842D01*
X308420Y233693D01*
X309207D01*
X310341Y233842D01*
X311398Y234280D01*
X312305Y234976D01*
X313001Y235883D01*
X313439Y236940D01*
X313588Y238073D01*
X313439Y239207D01*
X313001Y240264D01*
X312305Y241171D01*
X311398Y241867D01*
X310341Y242305D01*
X309207Y242454D01*
D02*
G37*
G36*
Y232454D02*
X308420D01*
X307286Y232305D01*
X306229Y231867D01*
X305322Y231171D01*
X304626Y230264D01*
X304188Y229207D01*
X304039Y228074D01*
X304188Y226940D01*
X304626Y225883D01*
X305322Y224976D01*
X306229Y224280D01*
X307286Y223842D01*
X308420Y223693D01*
X309207D01*
X310341Y223842D01*
X311398Y224280D01*
X312305Y224976D01*
X313001Y225883D01*
X313439Y226940D01*
X313588Y228074D01*
X313439Y229207D01*
X313001Y230264D01*
X312305Y231171D01*
X311398Y231867D01*
X310341Y232305D01*
X309207Y232454D01*
D02*
G37*
G36*
Y222454D02*
X308420D01*
X307286Y222305D01*
X306229Y221867D01*
X305322Y221171D01*
X304626Y220264D01*
X304188Y219207D01*
X304039Y218074D01*
X304188Y216940D01*
X304626Y215883D01*
X305322Y214976D01*
X306229Y214280D01*
X307286Y213842D01*
X308420Y213693D01*
X309207D01*
X310341Y213842D01*
X311398Y214280D01*
X312305Y214976D01*
X313001Y215883D01*
X313439Y216940D01*
X313588Y218074D01*
X313439Y219207D01*
X313001Y220264D01*
X312305Y221171D01*
X311398Y221867D01*
X310341Y222305D01*
X309207Y222454D01*
D02*
G37*
G36*
Y212454D02*
X308420D01*
X307286Y212305D01*
X306229Y211867D01*
X305322Y211171D01*
X304626Y210264D01*
X304188Y209207D01*
X304039Y208073D01*
X304188Y206940D01*
X304626Y205883D01*
X305322Y204976D01*
X306229Y204280D01*
X307286Y203842D01*
X308420Y203693D01*
X309207D01*
X310341Y203842D01*
X311398Y204280D01*
X312305Y204976D01*
X313001Y205883D01*
X313439Y206940D01*
X313588Y208073D01*
X313439Y209207D01*
X313001Y210264D01*
X312305Y211171D01*
X311398Y211867D01*
X310341Y212305D01*
X309207Y212454D01*
D02*
G37*
G36*
X315579Y204382D02*
X313811Y202614D01*
X316109Y200316D01*
X317877Y202084D01*
X315579Y204382D01*
D02*
G37*
G36*
X399314Y202642D02*
Y198574D01*
X403724D01*
X403634Y199259D01*
X403176Y200365D01*
X402448Y201314D01*
X401499Y202042D01*
X400393Y202500D01*
X399314Y202642D01*
D02*
G37*
G36*
X309314D02*
Y198574D01*
X313724D01*
X313634Y199259D01*
X313176Y200365D01*
X312448Y201314D01*
X311499Y202042D01*
X310393Y202500D01*
X309314Y202642D01*
D02*
G37*
G36*
X398314Y202642D02*
X397234Y202500D01*
X396129Y202042D01*
X395180Y201314D01*
X394451Y200365D01*
X393993Y199259D01*
X393903Y198574D01*
X398314D01*
Y202642D01*
D02*
G37*
G36*
X308314D02*
X307234Y202500D01*
X306129Y202042D01*
X305180Y201314D01*
X304451Y200365D01*
X303994Y199259D01*
X303903Y198574D01*
X308314D01*
Y202642D01*
D02*
G37*
G36*
X318584Y201377D02*
X316816Y199609D01*
X319114Y197311D01*
X320882Y199079D01*
X318584Y201377D01*
D02*
G37*
G36*
X335200Y657850D02*
X332700D01*
Y654600D01*
X335200D01*
Y657850D01*
D02*
G37*
G36*
Y653600D02*
X332700D01*
Y650350D01*
X335200D01*
Y653600D01*
D02*
G37*
G36*
X446289Y653150D02*
X445355D01*
X444452Y652908D01*
X443642Y652441D01*
X442981Y651780D01*
X442514Y650970D01*
X442272Y650067D01*
Y649133D01*
X442514Y648230D01*
X442981Y647420D01*
X443642Y646759D01*
X444452Y646292D01*
X445355Y646050D01*
X446289D01*
X447192Y646292D01*
X448002Y646759D01*
X448663Y647420D01*
X449130Y648230D01*
X449372Y649133D01*
Y650067D01*
X449130Y650970D01*
X448663Y651780D01*
X448002Y652441D01*
X447192Y652908D01*
X446289Y653150D01*
D02*
G37*
G36*
X422667D02*
X421733D01*
X420830Y652908D01*
X420020Y652441D01*
X419359Y651780D01*
X418892Y650970D01*
X418650Y650067D01*
Y649133D01*
X418892Y648230D01*
X419359Y647420D01*
X420020Y646759D01*
X420830Y646292D01*
X421733Y646050D01*
X422667D01*
X423570Y646292D01*
X424380Y646759D01*
X425041Y647420D01*
X425508Y648230D01*
X425750Y649133D01*
Y650067D01*
X425508Y650970D01*
X425041Y651780D01*
X424380Y652441D01*
X423570Y652908D01*
X422667Y653150D01*
D02*
G37*
G36*
X399207Y652454D02*
X398420D01*
X397286Y652305D01*
X396230Y651867D01*
X395322Y651171D01*
X394626Y650264D01*
X394188Y649207D01*
X394039Y648073D01*
X394188Y646940D01*
X394626Y645883D01*
X395322Y644976D01*
X396230Y644280D01*
X397286Y643842D01*
X398420Y643693D01*
X399207D01*
X400341Y643842D01*
X401398Y644280D01*
X402305Y644976D01*
X403001Y645883D01*
X403439Y646940D01*
X403588Y648073D01*
X403439Y649207D01*
X403001Y650264D01*
X402305Y651171D01*
X401398Y651867D01*
X400341Y652305D01*
X399207Y652454D01*
D02*
G37*
G36*
X354767Y642228D02*
X353833D01*
X352930Y641986D01*
X352120Y641519D01*
X351459Y640858D01*
X350992Y640048D01*
X350750Y639145D01*
Y638211D01*
X350992Y637308D01*
X351459Y636498D01*
X352120Y635837D01*
X352930Y635370D01*
X353833Y635128D01*
X354767D01*
X355670Y635370D01*
X356480Y635837D01*
X357141Y636498D01*
X357608Y637308D01*
X357850Y638211D01*
Y639145D01*
X357608Y640048D01*
X357141Y640858D01*
X356480Y641519D01*
X355670Y641986D01*
X354767Y642228D01*
D02*
G37*
G36*
X399207Y642454D02*
X398420D01*
X397286Y642305D01*
X396230Y641867D01*
X395322Y641171D01*
X394626Y640264D01*
X394188Y639207D01*
X394039Y638073D01*
X394188Y636940D01*
X394626Y635883D01*
X395322Y634976D01*
X396230Y634280D01*
X397286Y633842D01*
X398420Y633693D01*
X399207D01*
X400341Y633842D01*
X401398Y634280D01*
X402305Y634976D01*
X403001Y635883D01*
X403439Y636940D01*
X403588Y638073D01*
X403439Y639207D01*
X403001Y640264D01*
X402305Y641171D01*
X401398Y641867D01*
X400341Y642305D01*
X399207Y642454D01*
D02*
G37*
G36*
Y632454D02*
X398420D01*
X397286Y632305D01*
X396230Y631867D01*
X395322Y631171D01*
X394626Y630264D01*
X394188Y629207D01*
X394039Y628074D01*
X394188Y626940D01*
X394626Y625883D01*
X395322Y624976D01*
X396230Y624280D01*
X397286Y623842D01*
X398420Y623693D01*
X399207D01*
X400341Y623842D01*
X401398Y624280D01*
X402305Y624976D01*
X403001Y625883D01*
X403439Y626940D01*
X403588Y628074D01*
X403439Y629207D01*
X403001Y630264D01*
X402305Y631171D01*
X401398Y631867D01*
X400341Y632305D01*
X399207Y632454D01*
D02*
G37*
G36*
Y622454D02*
X398420D01*
X397286Y622305D01*
X396230Y621867D01*
X395322Y621171D01*
X394626Y620264D01*
X394188Y619207D01*
X394039Y618074D01*
X394188Y616940D01*
X394626Y615883D01*
X395322Y614976D01*
X396230Y614280D01*
X397286Y613842D01*
X398420Y613693D01*
X399207D01*
X400341Y613842D01*
X401398Y614280D01*
X402305Y614976D01*
X403001Y615883D01*
X403439Y616940D01*
X403588Y618074D01*
X403439Y619207D01*
X403001Y620264D01*
X402305Y621171D01*
X401398Y621867D01*
X400341Y622305D01*
X399207Y622454D01*
D02*
G37*
G36*
Y612454D02*
X398420D01*
X397286Y612305D01*
X396230Y611867D01*
X395322Y611171D01*
X394626Y610264D01*
X394188Y609207D01*
X394039Y608074D01*
X394188Y606940D01*
X394626Y605883D01*
X395322Y604976D01*
X396230Y604280D01*
X397286Y603842D01*
X398420Y603693D01*
X399207D01*
X400341Y603842D01*
X401398Y604280D01*
X402305Y604976D01*
X403001Y605883D01*
X403439Y606940D01*
X403588Y608074D01*
X403439Y609207D01*
X403001Y610264D01*
X402305Y611171D01*
X401398Y611867D01*
X400341Y612305D01*
X399207Y612454D01*
D02*
G37*
G36*
Y602454D02*
X398420D01*
X397286Y602305D01*
X396230Y601867D01*
X395322Y601171D01*
X394626Y600264D01*
X394188Y599207D01*
X394039Y598073D01*
X394188Y596940D01*
X394626Y595883D01*
X395322Y594976D01*
X396230Y594280D01*
X397286Y593842D01*
X398420Y593693D01*
X399207D01*
X400341Y593842D01*
X401398Y594280D01*
X402305Y594976D01*
X403001Y595883D01*
X403439Y596940D01*
X403588Y598073D01*
X403439Y599207D01*
X403001Y600264D01*
X402305Y601171D01*
X401398Y601867D01*
X400341Y602305D01*
X399207Y602454D01*
D02*
G37*
G36*
X446289Y595543D02*
X445355D01*
X444452Y595301D01*
X443642Y594833D01*
X442981Y594172D01*
X442514Y593363D01*
X442272Y592460D01*
Y591525D01*
X442514Y590622D01*
X442981Y589813D01*
X443642Y589152D01*
X444452Y588685D01*
X445355Y588443D01*
X446289D01*
X447192Y588685D01*
X448002Y589152D01*
X448663Y589813D01*
X449130Y590622D01*
X449372Y591525D01*
Y592460D01*
X449130Y593363D01*
X448663Y594172D01*
X448002Y594833D01*
X447192Y595301D01*
X446289Y595543D01*
D02*
G37*
G36*
X422667D02*
X421733D01*
X420830Y595301D01*
X420020Y594833D01*
X419359Y594172D01*
X418892Y593363D01*
X418650Y592460D01*
Y591525D01*
X418892Y590622D01*
X419359Y589813D01*
X420020Y589152D01*
X420830Y588685D01*
X421733Y588443D01*
X422667D01*
X423570Y588685D01*
X424380Y589152D01*
X425041Y589813D01*
X425508Y590622D01*
X425750Y591525D01*
Y592460D01*
X425508Y593363D01*
X425041Y594172D01*
X424380Y594833D01*
X423570Y595301D01*
X422667Y595543D01*
D02*
G37*
G36*
X399207Y592454D02*
X398420D01*
X397286Y592305D01*
X396230Y591867D01*
X395322Y591171D01*
X394626Y590264D01*
X394188Y589207D01*
X394039Y588073D01*
X394188Y586940D01*
X394626Y585883D01*
X395322Y584976D01*
X396230Y584280D01*
X397286Y583842D01*
X398420Y583693D01*
X399207D01*
X400341Y583842D01*
X401398Y584280D01*
X402305Y584976D01*
X403001Y585883D01*
X403439Y586940D01*
X403588Y588073D01*
X403439Y589207D01*
X403001Y590264D01*
X402305Y591171D01*
X401398Y591867D01*
X400341Y592305D01*
X399207Y592454D01*
D02*
G37*
G36*
Y582454D02*
X398420D01*
X397286Y582305D01*
X396230Y581867D01*
X395322Y581171D01*
X394626Y580264D01*
X394188Y579207D01*
X394039Y578074D01*
X394188Y576940D01*
X394626Y575883D01*
X395322Y574976D01*
X396230Y574280D01*
X397286Y573842D01*
X398420Y573693D01*
X399207D01*
X400341Y573842D01*
X401398Y574280D01*
X402305Y574976D01*
X403001Y575883D01*
X403439Y576940D01*
X403588Y578074D01*
X403439Y579207D01*
X403001Y580264D01*
X402305Y581171D01*
X401398Y581867D01*
X400341Y582305D01*
X399207Y582454D01*
D02*
G37*
G36*
X359394Y601981D02*
X358606D01*
X357878Y601680D01*
X357320Y601122D01*
X357019Y600394D01*
Y599606D01*
X357320Y598878D01*
X357776Y598422D01*
Y591800D01*
X357870Y591332D01*
X358135Y590935D01*
X358977Y590093D01*
Y566669D01*
X358532Y566580D01*
X358135Y566315D01*
X357870Y565918D01*
X357776Y565450D01*
X357870Y564982D01*
X358135Y564585D01*
X358219Y564501D01*
Y563806D01*
X358408Y563350D01*
X358300Y563178D01*
Y559600D01*
X360800D01*
Y562304D01*
X361322Y562521D01*
X361879Y563078D01*
X362181Y563806D01*
Y564594D01*
X361879Y565322D01*
X361665Y565537D01*
X361669Y565607D01*
X361690Y565699D01*
X362172Y565985D01*
X362232Y565991D01*
X362406Y565919D01*
X363194D01*
X363922Y566221D01*
X364479Y566778D01*
X364781Y567506D01*
Y568294D01*
X364479Y569022D01*
X364023Y569478D01*
Y592158D01*
X363930Y592627D01*
X363665Y593023D01*
X363280Y593408D01*
X363362Y593606D01*
Y594394D01*
X363061Y595122D01*
X362503Y595680D01*
X361775Y595981D01*
X360987D01*
X360723Y595872D01*
X360224Y596206D01*
Y598422D01*
X360680Y598878D01*
X360981Y599606D01*
Y600394D01*
X360680Y601122D01*
X360122Y601680D01*
X359394Y601981D01*
D02*
G37*
G36*
X399207Y572454D02*
X398420D01*
X397286Y572305D01*
X396230Y571867D01*
X395322Y571171D01*
X394626Y570264D01*
X394188Y569207D01*
X394039Y568074D01*
X394188Y566940D01*
X394626Y565883D01*
X395322Y564976D01*
X396230Y564280D01*
X397286Y563842D01*
X398420Y563693D01*
X399207D01*
X400341Y563842D01*
X401398Y564280D01*
X402305Y564976D01*
X403001Y565883D01*
X403439Y566940D01*
X403588Y568074D01*
X403439Y569207D01*
X403001Y570264D01*
X402305Y571171D01*
X401398Y571867D01*
X400341Y572305D01*
X399207Y572454D01*
D02*
G37*
G36*
X360800Y558600D02*
X358300D01*
Y555350D01*
X360800D01*
Y558600D01*
D02*
G37*
G36*
X399207Y562454D02*
X398420D01*
X397286Y562305D01*
X396230Y561867D01*
X395322Y561171D01*
X394626Y560264D01*
X394188Y559207D01*
X394039Y558074D01*
X394188Y556940D01*
X394626Y555883D01*
X395322Y554976D01*
X396230Y554280D01*
X397286Y553842D01*
X398420Y553693D01*
X399207D01*
X400341Y553842D01*
X401398Y554280D01*
X402305Y554976D01*
X403001Y555883D01*
X403439Y556940D01*
X403588Y558074D01*
X403439Y559207D01*
X403001Y560264D01*
X402305Y561171D01*
X401398Y561867D01*
X400341Y562305D01*
X399207Y562454D01*
D02*
G37*
G36*
Y552454D02*
X398420D01*
X397286Y552305D01*
X396230Y551867D01*
X395322Y551171D01*
X394626Y550264D01*
X394188Y549207D01*
X394039Y548073D01*
X394188Y546940D01*
X394626Y545883D01*
X395322Y544976D01*
X396230Y544280D01*
X397286Y543842D01*
X398420Y543693D01*
X399207D01*
X400341Y543842D01*
X401398Y544280D01*
X402305Y544976D01*
X403001Y545883D01*
X403439Y546940D01*
X403588Y548073D01*
X403439Y549207D01*
X403001Y550264D01*
X402305Y551171D01*
X401398Y551867D01*
X400341Y552305D01*
X399207Y552454D01*
D02*
G37*
G36*
Y542454D02*
X398420D01*
X397286Y542305D01*
X396230Y541867D01*
X395322Y541171D01*
X394626Y540264D01*
X394188Y539207D01*
X394039Y538073D01*
X394188Y536940D01*
X394626Y535883D01*
X395322Y534976D01*
X396230Y534280D01*
X397286Y533842D01*
X398420Y533693D01*
X399207D01*
X400341Y533842D01*
X401398Y534280D01*
X402305Y534976D01*
X403001Y535883D01*
X403439Y536940D01*
X403588Y538073D01*
X403439Y539207D01*
X403001Y540264D01*
X402305Y541171D01*
X401398Y541867D01*
X400341Y542305D01*
X399207Y542454D01*
D02*
G37*
G36*
X446289Y537935D02*
X445355D01*
X444452Y537693D01*
X443642Y537226D01*
X442981Y536565D01*
X442514Y535755D01*
X442272Y534853D01*
Y533918D01*
X442514Y533015D01*
X442981Y532205D01*
X443642Y531545D01*
X444452Y531077D01*
X445355Y530835D01*
X446289D01*
X447192Y531077D01*
X448002Y531545D01*
X448663Y532205D01*
X449130Y533015D01*
X449372Y533918D01*
Y534853D01*
X449130Y535755D01*
X448663Y536565D01*
X448002Y537226D01*
X447192Y537693D01*
X446289Y537935D01*
D02*
G37*
G36*
X422667D02*
X421733D01*
X420830Y537693D01*
X420020Y537226D01*
X419359Y536565D01*
X418892Y535755D01*
X418650Y534853D01*
Y533918D01*
X418892Y533015D01*
X419359Y532205D01*
X420020Y531545D01*
X420830Y531077D01*
X421733Y530835D01*
X422667D01*
X423570Y531077D01*
X424380Y531545D01*
X425041Y532205D01*
X425508Y533015D01*
X425750Y533918D01*
Y534853D01*
X425508Y535755D01*
X425041Y536565D01*
X424380Y537226D01*
X423570Y537693D01*
X422667Y537935D01*
D02*
G37*
G36*
X399207Y532454D02*
X398420D01*
X397286Y532305D01*
X396230Y531867D01*
X395322Y531171D01*
X394626Y530264D01*
X394188Y529207D01*
X394039Y528074D01*
X394188Y526940D01*
X394626Y525883D01*
X395322Y524976D01*
X396230Y524280D01*
X397286Y523842D01*
X398420Y523693D01*
X399207D01*
X400341Y523842D01*
X401398Y524280D01*
X402305Y524976D01*
X403001Y525883D01*
X403439Y526940D01*
X403588Y528074D01*
X403439Y529207D01*
X403001Y530264D01*
X402305Y531171D01*
X401398Y531867D01*
X400341Y532305D01*
X399207Y532454D01*
D02*
G37*
G36*
X368200Y522450D02*
X365700D01*
Y519200D01*
X368200D01*
Y522450D01*
D02*
G37*
G36*
Y518200D02*
X365700D01*
Y514950D01*
X368200D01*
Y518200D01*
D02*
G37*
G36*
X399207Y522454D02*
X398420D01*
X397286Y522305D01*
X396230Y521867D01*
X395322Y521171D01*
X394626Y520264D01*
X394188Y519207D01*
X394039Y518074D01*
X394188Y516940D01*
X394626Y515883D01*
X395322Y514976D01*
X396230Y514280D01*
X397286Y513842D01*
X398420Y513693D01*
X399207D01*
X400341Y513842D01*
X401398Y514280D01*
X402305Y514976D01*
X403001Y515883D01*
X403439Y516940D01*
X403588Y518074D01*
X403439Y519207D01*
X403001Y520264D01*
X402305Y521171D01*
X401398Y521867D01*
X400341Y522305D01*
X399207Y522454D01*
D02*
G37*
G36*
Y512454D02*
X398420D01*
X397286Y512305D01*
X396230Y511867D01*
X395322Y511171D01*
X394626Y510264D01*
X394188Y509207D01*
X394039Y508074D01*
X394188Y506940D01*
X394626Y505883D01*
X395322Y504976D01*
X396230Y504280D01*
X397286Y503842D01*
X398420Y503693D01*
X399207D01*
X400341Y503842D01*
X401398Y504280D01*
X402305Y504976D01*
X403001Y505883D01*
X403439Y506940D01*
X403588Y508074D01*
X403439Y509207D01*
X403001Y510264D01*
X402305Y511171D01*
X401398Y511867D01*
X400341Y512305D01*
X399207Y512454D01*
D02*
G37*
G36*
Y502454D02*
X398420D01*
X397286Y502305D01*
X396230Y501867D01*
X395322Y501171D01*
X394626Y500264D01*
X394188Y499207D01*
X394039Y498073D01*
X394188Y496940D01*
X394626Y495883D01*
X395322Y494976D01*
X396230Y494280D01*
X397286Y493842D01*
X398420Y493693D01*
X399207D01*
X400341Y493842D01*
X401398Y494280D01*
X402305Y494976D01*
X403001Y495883D01*
X403439Y496940D01*
X403588Y498073D01*
X403439Y499207D01*
X403001Y500264D01*
X402305Y501171D01*
X401398Y501867D01*
X400341Y502305D01*
X399207Y502454D01*
D02*
G37*
G36*
X370003Y495031D02*
X368235Y493263D01*
X370533Y490965D01*
X372301Y492733D01*
X370003Y495031D01*
D02*
G37*
G36*
X373008Y492026D02*
X371240Y490258D01*
X373539Y487960D01*
X375306Y489727D01*
X373008Y492026D01*
D02*
G37*
G36*
X422667Y480328D02*
X421733D01*
X420830Y480086D01*
X420020Y479619D01*
X419359Y478958D01*
X418892Y478148D01*
X418650Y477245D01*
Y476311D01*
X418892Y475408D01*
X419359Y474598D01*
X420020Y473937D01*
X420830Y473470D01*
X421733Y473228D01*
X422667D01*
X423570Y473470D01*
X424380Y473937D01*
X425041Y474598D01*
X425508Y475408D01*
X425750Y476311D01*
Y477245D01*
X425508Y478148D01*
X425041Y478958D01*
X424380Y479619D01*
X423570Y480086D01*
X422667Y480328D01*
D02*
G37*
G36*
X446289Y480328D02*
X445355D01*
X444452Y480086D01*
X443642Y479619D01*
X442981Y478958D01*
X442514Y478148D01*
X442272Y477245D01*
Y476311D01*
X442514Y475408D01*
X442981Y474598D01*
X443642Y473937D01*
X444452Y473470D01*
X445355Y473228D01*
X446289D01*
X447192Y473470D01*
X448002Y473937D01*
X448663Y474598D01*
X449130Y475408D01*
X449372Y476311D01*
Y477245D01*
X449130Y478148D01*
X448663Y478958D01*
X448002Y479619D01*
X447192Y480086D01*
X446289Y480328D01*
D02*
G37*
G36*
X416500Y437450D02*
X414000D01*
Y434200D01*
X416500D01*
Y437450D01*
D02*
G37*
G36*
Y433200D02*
X414000D01*
Y429950D01*
X416500D01*
Y433200D01*
D02*
G37*
G36*
X446289Y392914D02*
X445355D01*
X444452Y392672D01*
X443642Y392204D01*
X442981Y391544D01*
X442514Y390734D01*
X442272Y389831D01*
Y388896D01*
X442514Y387994D01*
X442981Y387184D01*
X443642Y386523D01*
X444452Y386056D01*
X445355Y385814D01*
X446289D01*
X447192Y386056D01*
X448002Y386523D01*
X448663Y387184D01*
X449130Y387994D01*
X449372Y388896D01*
Y389831D01*
X449130Y390734D01*
X448663Y391544D01*
X448002Y392204D01*
X447192Y392672D01*
X446289Y392914D01*
D02*
G37*
G36*
X422667D02*
X421733D01*
X420830Y392672D01*
X420020Y392204D01*
X419359Y391544D01*
X418892Y390734D01*
X418650Y389831D01*
Y388896D01*
X418892Y387994D01*
X419359Y387184D01*
X420020Y386523D01*
X420830Y386056D01*
X421733Y385814D01*
X422667D01*
X423570Y386056D01*
X424380Y386523D01*
X425041Y387184D01*
X425508Y387994D01*
X425750Y388896D01*
Y389831D01*
X425508Y390734D01*
X425041Y391544D01*
X424380Y392204D01*
X423570Y392672D01*
X422667Y392914D01*
D02*
G37*
G36*
X446289Y335307D02*
X445355D01*
X444452Y335065D01*
X443642Y334597D01*
X442981Y333936D01*
X442514Y333127D01*
X442272Y332224D01*
Y331289D01*
X442514Y330386D01*
X442981Y329577D01*
X443642Y328916D01*
X444452Y328448D01*
X445355Y328206D01*
X446289D01*
X447192Y328448D01*
X448002Y328916D01*
X448663Y329577D01*
X449130Y330386D01*
X449372Y331289D01*
Y332224D01*
X449130Y333127D01*
X448663Y333936D01*
X448002Y334597D01*
X447192Y335065D01*
X446289Y335307D01*
D02*
G37*
G36*
X422667D02*
X421733D01*
X420830Y335065D01*
X420020Y334597D01*
X419359Y333936D01*
X418892Y333127D01*
X418650Y332224D01*
Y331289D01*
X418892Y330386D01*
X419359Y329577D01*
X420020Y328916D01*
X420830Y328448D01*
X421733Y328206D01*
X422667D01*
X423570Y328448D01*
X424380Y328916D01*
X425041Y329577D01*
X425508Y330386D01*
X425750Y331289D01*
Y332224D01*
X425508Y333127D01*
X425041Y333936D01*
X424380Y334597D01*
X423570Y335065D01*
X422667Y335307D01*
D02*
G37*
G36*
X374850Y320000D02*
X371600D01*
Y317500D01*
X374850D01*
Y320000D01*
D02*
G37*
G36*
X370600D02*
X367350D01*
Y317500D01*
X370600D01*
Y320000D01*
D02*
G37*
G36*
X364794Y312781D02*
X364006D01*
X363278Y312479D01*
X362720Y311922D01*
X362419Y311194D01*
Y310406D01*
X362720Y309678D01*
X363278Y309120D01*
X364006Y308819D01*
X364794D01*
X365522Y309120D01*
X366079Y309678D01*
X366381Y310406D01*
Y311194D01*
X366079Y311922D01*
X365522Y312479D01*
X364794Y312781D01*
D02*
G37*
G36*
X368594Y308981D02*
X367806D01*
X367078Y308680D01*
X366521Y308122D01*
X366219Y307394D01*
Y306606D01*
X366521Y305878D01*
X367078Y305321D01*
X367806Y305019D01*
X368594D01*
X369322Y305321D01*
X369880Y305878D01*
X370181Y306606D01*
Y307394D01*
X369880Y308122D01*
X369322Y308680D01*
X368594Y308981D01*
D02*
G37*
G36*
X362500Y291450D02*
X360000D01*
Y288200D01*
X362500D01*
Y291450D01*
D02*
G37*
G36*
Y287200D02*
X360000D01*
Y283950D01*
X362500D01*
Y287200D01*
D02*
G37*
G36*
X446289Y277699D02*
X445355D01*
X444452Y277457D01*
X443642Y276990D01*
X442981Y276329D01*
X442514Y275519D01*
X442272Y274617D01*
Y273682D01*
X442514Y272779D01*
X442981Y271969D01*
X443642Y271308D01*
X444452Y270841D01*
X445355Y270599D01*
X446289D01*
X447192Y270841D01*
X448002Y271308D01*
X448663Y271969D01*
X449130Y272779D01*
X449372Y273682D01*
Y274617D01*
X449130Y275519D01*
X448663Y276329D01*
X448002Y276990D01*
X447192Y277457D01*
X446289Y277699D01*
D02*
G37*
G36*
X422667D02*
X421733D01*
X420830Y277457D01*
X420020Y276990D01*
X419359Y276329D01*
X418892Y275519D01*
X418650Y274617D01*
Y273682D01*
X418892Y272779D01*
X419359Y271969D01*
X420020Y271308D01*
X420830Y270841D01*
X421733Y270599D01*
X422667D01*
X423570Y270841D01*
X424380Y271308D01*
X425041Y271969D01*
X425508Y272779D01*
X425750Y273682D01*
Y274617D01*
X425508Y275519D01*
X425041Y276329D01*
X424380Y276990D01*
X423570Y277457D01*
X422667Y277699D01*
D02*
G37*
G36*
X399207Y272454D02*
X398420D01*
X397286Y272305D01*
X396230Y271867D01*
X395322Y271171D01*
X394626Y270264D01*
X394188Y269207D01*
X394039Y268074D01*
X394188Y266940D01*
X394626Y265883D01*
X395322Y264976D01*
X396230Y264280D01*
X397286Y263842D01*
X398420Y263693D01*
X399207D01*
X400341Y263842D01*
X401398Y264280D01*
X402305Y264976D01*
X403001Y265883D01*
X403439Y266940D01*
X403588Y268074D01*
X403439Y269207D01*
X403001Y270264D01*
X402305Y271171D01*
X401398Y271867D01*
X400341Y272305D01*
X399207Y272454D01*
D02*
G37*
G36*
Y262454D02*
X398420D01*
X397286Y262305D01*
X396230Y261867D01*
X395322Y261171D01*
X394626Y260264D01*
X394188Y259207D01*
X394039Y258073D01*
X394188Y256940D01*
X394626Y255883D01*
X395322Y254976D01*
X396230Y254280D01*
X397286Y253842D01*
X398420Y253693D01*
X399207D01*
X400341Y253842D01*
X401398Y254280D01*
X402305Y254976D01*
X403001Y255883D01*
X403439Y256940D01*
X403588Y258073D01*
X403439Y259207D01*
X403001Y260264D01*
X402305Y261171D01*
X401398Y261867D01*
X400341Y262305D01*
X399207Y262454D01*
D02*
G37*
G36*
Y252454D02*
X398420D01*
X397286Y252305D01*
X396230Y251867D01*
X395322Y251171D01*
X394626Y250264D01*
X394188Y249207D01*
X394039Y248074D01*
X394188Y246940D01*
X394626Y245883D01*
X395322Y244976D01*
X396230Y244280D01*
X397286Y243842D01*
X398420Y243693D01*
X399207D01*
X400341Y243842D01*
X401398Y244280D01*
X402305Y244976D01*
X403001Y245883D01*
X403439Y246940D01*
X403588Y248074D01*
X403439Y249207D01*
X403001Y250264D01*
X402305Y251171D01*
X401398Y251867D01*
X400341Y252305D01*
X399207Y252454D01*
D02*
G37*
G36*
Y242454D02*
X398420D01*
X397286Y242305D01*
X396230Y241867D01*
X395322Y241171D01*
X394626Y240264D01*
X394188Y239207D01*
X394039Y238073D01*
X394188Y236940D01*
X394626Y235883D01*
X395322Y234976D01*
X396230Y234280D01*
X397286Y233842D01*
X398420Y233693D01*
X399207D01*
X400341Y233842D01*
X401398Y234280D01*
X402305Y234976D01*
X403001Y235883D01*
X403439Y236940D01*
X403588Y238073D01*
X403439Y239207D01*
X403001Y240264D01*
X402305Y241171D01*
X401398Y241867D01*
X400341Y242305D01*
X399207Y242454D01*
D02*
G37*
G36*
X354767Y231272D02*
X353833D01*
X352930Y231030D01*
X352120Y230563D01*
X351459Y229902D01*
X350992Y229092D01*
X350750Y228189D01*
Y227255D01*
X350992Y226352D01*
X351459Y225542D01*
X352120Y224881D01*
X352930Y224414D01*
X353833Y224172D01*
X354767D01*
X355670Y224414D01*
X356480Y224881D01*
X357141Y225542D01*
X357608Y226352D01*
X357850Y227255D01*
Y228189D01*
X357608Y229092D01*
X357141Y229902D01*
X356480Y230563D01*
X355670Y231030D01*
X354767Y231272D01*
D02*
G37*
G36*
X399207Y232454D02*
X398420D01*
X397286Y232305D01*
X396230Y231867D01*
X395322Y231171D01*
X394626Y230264D01*
X394188Y229207D01*
X394039Y228074D01*
X394188Y226940D01*
X394626Y225883D01*
X395322Y224976D01*
X396230Y224280D01*
X397286Y223842D01*
X398420Y223693D01*
X399207D01*
X400341Y223842D01*
X401398Y224280D01*
X402305Y224976D01*
X403001Y225883D01*
X403439Y226940D01*
X403588Y228074D01*
X403439Y229207D01*
X403001Y230264D01*
X402305Y231171D01*
X401398Y231867D01*
X400341Y232305D01*
X399207Y232454D01*
D02*
G37*
G36*
Y222454D02*
X398420D01*
X397286Y222305D01*
X396230Y221867D01*
X395322Y221171D01*
X394626Y220264D01*
X394188Y219207D01*
X394039Y218074D01*
X394188Y216940D01*
X394626Y215883D01*
X395322Y214976D01*
X396230Y214280D01*
X397286Y213842D01*
X398420Y213693D01*
X399207D01*
X400341Y213842D01*
X401398Y214280D01*
X402305Y214976D01*
X403001Y215883D01*
X403439Y216940D01*
X403588Y218074D01*
X403439Y219207D01*
X403001Y220264D01*
X402305Y221171D01*
X401398Y221867D01*
X400341Y222305D01*
X399207Y222454D01*
D02*
G37*
G36*
X446289Y220092D02*
X445355D01*
X444452Y219850D01*
X443642Y219383D01*
X442981Y218722D01*
X442514Y217912D01*
X442272Y217009D01*
Y216074D01*
X442514Y215172D01*
X442981Y214362D01*
X443642Y213701D01*
X444452Y213234D01*
X445355Y212992D01*
X446289D01*
X447192Y213234D01*
X448002Y213701D01*
X448663Y214362D01*
X449130Y215172D01*
X449372Y216074D01*
Y217009D01*
X449130Y217912D01*
X448663Y218722D01*
X448002Y219383D01*
X447192Y219850D01*
X446289Y220092D01*
D02*
G37*
G36*
X422667D02*
X421733D01*
X420830Y219850D01*
X420020Y219383D01*
X419359Y218722D01*
X418892Y217912D01*
X418650Y217009D01*
Y216074D01*
X418892Y215172D01*
X419359Y214362D01*
X420020Y213701D01*
X420830Y213234D01*
X421733Y212992D01*
X422667D01*
X423570Y213234D01*
X424380Y213701D01*
X425041Y214362D01*
X425508Y215172D01*
X425750Y216074D01*
Y217009D01*
X425508Y217912D01*
X425041Y218722D01*
X424380Y219383D01*
X423570Y219850D01*
X422667Y220092D01*
D02*
G37*
G36*
X323286Y212089D02*
X321518Y210321D01*
X323816Y208023D01*
X325584Y209791D01*
X323286Y212089D01*
D02*
G37*
G36*
X326291Y209084D02*
X324523Y207316D01*
X326821Y205018D01*
X328589Y206786D01*
X326291Y209084D01*
D02*
G37*
%LPD*%
G36*
X360604Y565910D02*
X360617Y565802D01*
X360638Y565698D01*
X360668Y565596D01*
X360707Y565497D01*
X360754Y565401D01*
X360809Y565307D01*
X360873Y565216D01*
X360946Y565129D01*
X361027Y565043D01*
X359651D01*
X359052Y564479D01*
X359062Y564537D01*
X359061Y564598D01*
X359051Y564660D01*
X359032Y564725D01*
X359003Y564793D01*
X358965Y564863D01*
X358917Y564935D01*
X358860Y565010D01*
X358793Y565087D01*
X358717Y565167D01*
X359283Y565733D01*
X359366Y565653D01*
X359524Y565522D01*
X359598Y565471D01*
X359663Y565434D01*
X359693Y565497D01*
X359732Y565596D01*
X359762Y565698D01*
X359783Y565802D01*
X359796Y565910D01*
X359800Y566020D01*
X360600D01*
X360604Y565910D01*
D02*
G37*
%LPC*%
G36*
X357300Y522450D02*
X354800D01*
Y519200D01*
X357300D01*
Y522450D01*
D02*
G37*
G36*
Y518200D02*
X354800D01*
Y514950D01*
X357300D01*
Y518200D01*
D02*
G37*
G36*
X362296Y487323D02*
X360528Y485556D01*
X362826Y483257D01*
X364594Y485025D01*
X362296Y487323D01*
D02*
G37*
G36*
X365301Y484318D02*
X363533Y482550D01*
X365831Y480252D01*
X367599Y482020D01*
X365301Y484318D01*
D02*
G37*
G36*
X399207Y472454D02*
X398420D01*
X397286Y472305D01*
X396230Y471867D01*
X395322Y471171D01*
X394626Y470264D01*
X394188Y469207D01*
X394039Y468074D01*
X394188Y466940D01*
X394626Y465883D01*
X395322Y464976D01*
X396230Y464280D01*
X397286Y463842D01*
X398420Y463693D01*
X399207D01*
X400341Y463842D01*
X401398Y464280D01*
X402305Y464976D01*
X403001Y465883D01*
X403439Y466940D01*
X403588Y468074D01*
X403439Y469207D01*
X403001Y470264D01*
X402305Y471171D01*
X401398Y471867D01*
X400341Y472305D01*
X399207Y472454D01*
D02*
G37*
G36*
Y442454D02*
X398420D01*
X397286Y442305D01*
X396230Y441867D01*
X395322Y441171D01*
X394626Y440264D01*
X394188Y439207D01*
X394039Y438073D01*
X394188Y436940D01*
X394626Y435883D01*
X395322Y434976D01*
X396230Y434280D01*
X397286Y433842D01*
X398420Y433693D01*
X399207D01*
X400341Y433842D01*
X401398Y434280D01*
X402305Y434976D01*
X402600Y435360D01*
X403100Y435190D01*
Y434200D01*
X405600D01*
Y437450D01*
X403885D01*
X403555Y437826D01*
X403588Y438073D01*
X403439Y439207D01*
X403001Y440264D01*
X402305Y441171D01*
X401398Y441867D01*
X400341Y442305D01*
X399207Y442454D01*
D02*
G37*
G36*
X405600Y433200D02*
X403100D01*
Y430956D01*
X402600Y430787D01*
X402305Y431171D01*
X401398Y431867D01*
X400341Y432305D01*
X399207Y432454D01*
X398420D01*
X397286Y432305D01*
X396230Y431867D01*
X395322Y431171D01*
X394626Y430264D01*
X394188Y429207D01*
X394039Y428074D01*
X394188Y426940D01*
X394626Y425883D01*
X395322Y424976D01*
X396230Y424280D01*
X397286Y423842D01*
X398420Y423693D01*
X399207D01*
X400341Y423842D01*
X401398Y424280D01*
X402305Y424976D01*
X403001Y425883D01*
X403439Y426940D01*
X403588Y428074D01*
X403439Y429207D01*
X403303Y429534D01*
X403581Y429950D01*
X405600D01*
Y433200D01*
D02*
G37*
G36*
X399207Y422454D02*
X398420D01*
X397286Y422305D01*
X396230Y421867D01*
X395322Y421171D01*
X394626Y420264D01*
X394226Y419297D01*
X383274D01*
X382805Y419204D01*
X382408Y418939D01*
X369451Y405981D01*
X368806D01*
X368078Y405680D01*
X367520Y405122D01*
X367219Y404394D01*
Y403606D01*
X367520Y402878D01*
X368078Y402320D01*
X368806Y402019D01*
X369594D01*
X370322Y402320D01*
X370880Y402878D01*
X371181Y403606D01*
Y404251D01*
X383780Y416850D01*
X394226D01*
X394626Y415883D01*
X395322Y414976D01*
X396230Y414280D01*
X397286Y413842D01*
X398420Y413693D01*
X399207D01*
X400341Y413842D01*
X401398Y414280D01*
X402305Y414976D01*
X403001Y415883D01*
X403439Y416940D01*
X403588Y418074D01*
X403439Y419207D01*
X403001Y420264D01*
X402305Y421171D01*
X401398Y421867D01*
X400341Y422305D01*
X399207Y422454D01*
D02*
G37*
G36*
Y412454D02*
X398420D01*
X397286Y412305D01*
X396230Y411867D01*
X395322Y411171D01*
X394626Y410264D01*
X394226Y409297D01*
X386574D01*
X386105Y409204D01*
X385708Y408939D01*
X375951Y399181D01*
X375306D01*
X374578Y398880D01*
X374021Y398322D01*
X373719Y397594D01*
Y396806D01*
X374021Y396078D01*
X374578Y395520D01*
X375306Y395219D01*
X376094D01*
X376822Y395520D01*
X377379Y396078D01*
X377681Y396806D01*
Y397451D01*
X387080Y406850D01*
X394226D01*
X394626Y405883D01*
X395322Y404976D01*
X396230Y404280D01*
X397286Y403842D01*
X398420Y403693D01*
X399207D01*
X400341Y403842D01*
X401398Y404280D01*
X402305Y404976D01*
X403001Y405883D01*
X403439Y406940D01*
X403588Y408074D01*
X403439Y409207D01*
X403001Y410264D01*
X402305Y411171D01*
X401398Y411867D01*
X400341Y412305D01*
X399207Y412454D01*
D02*
G37*
G36*
Y402454D02*
X398420D01*
X397286Y402305D01*
X396230Y401867D01*
X395322Y401171D01*
X394626Y400264D01*
X394188Y399207D01*
X394039Y398074D01*
X394188Y396940D01*
X394626Y395883D01*
X395322Y394976D01*
X396230Y394280D01*
X397286Y393842D01*
X398420Y393693D01*
X399207D01*
X400341Y393842D01*
X401398Y394280D01*
X402305Y394976D01*
X403001Y395883D01*
X403439Y396940D01*
X403588Y398074D01*
X403439Y399207D01*
X403001Y400264D01*
X402305Y401171D01*
X401398Y401867D01*
X400341Y402305D01*
X399207Y402454D01*
D02*
G37*
G36*
Y392454D02*
X398420D01*
X397286Y392305D01*
X396230Y391867D01*
X395322Y391171D01*
X394626Y390264D01*
X394188Y389207D01*
X394039Y388073D01*
X394188Y386940D01*
X394626Y385883D01*
X395322Y384976D01*
X396230Y384280D01*
X397286Y383842D01*
X398420Y383693D01*
X399207D01*
X400341Y383842D01*
X401398Y384280D01*
X402305Y384976D01*
X403001Y385883D01*
X403439Y386940D01*
X403588Y388073D01*
X403439Y389207D01*
X403001Y390264D01*
X402305Y391171D01*
X401398Y391867D01*
X400341Y392305D01*
X399207Y392454D01*
D02*
G37*
G36*
X372094Y421581D02*
X371306D01*
X370578Y421279D01*
X370021Y420722D01*
X369719Y419994D01*
Y419349D01*
X361235Y410865D01*
X360970Y410468D01*
X360876Y410000D01*
Y390800D01*
X360970Y390332D01*
X361235Y389935D01*
X368119Y383051D01*
Y382406D01*
X368421Y381678D01*
X368978Y381120D01*
X369706Y380819D01*
X370494D01*
X371222Y381120D01*
X371779Y381678D01*
X372081Y382406D01*
Y383194D01*
X371779Y383922D01*
X371222Y384479D01*
X370494Y384781D01*
X369849D01*
X363323Y391307D01*
Y409493D01*
X371449Y417619D01*
X372094D01*
X372822Y417920D01*
X373379Y418478D01*
X373681Y419206D01*
Y419994D01*
X373379Y420722D01*
X372822Y421279D01*
X372094Y421581D01*
D02*
G37*
G36*
X399207Y382454D02*
X398420D01*
X397286Y382305D01*
X396230Y381867D01*
X395322Y381171D01*
X394626Y380264D01*
X394188Y379207D01*
X394039Y378074D01*
X394188Y376940D01*
X394626Y375883D01*
X395322Y374976D01*
X396230Y374280D01*
X397286Y373842D01*
X398420Y373693D01*
X399207D01*
X400341Y373842D01*
X401398Y374280D01*
X402305Y374976D01*
X403001Y375883D01*
X403439Y376940D01*
X403588Y378074D01*
X403439Y379207D01*
X403001Y380264D01*
X402305Y381171D01*
X401398Y381867D01*
X400341Y382305D01*
X399207Y382454D01*
D02*
G37*
G36*
Y372454D02*
X398420D01*
X397286Y372305D01*
X396230Y371867D01*
X395322Y371171D01*
X394626Y370264D01*
X394188Y369207D01*
X394039Y368074D01*
X394188Y366940D01*
X394626Y365883D01*
X395322Y364976D01*
X396230Y364280D01*
X397286Y363842D01*
X398420Y363693D01*
X399207D01*
X400341Y363842D01*
X401398Y364280D01*
X402305Y364976D01*
X403001Y365883D01*
X403439Y366940D01*
X403588Y368074D01*
X403439Y369207D01*
X403001Y370264D01*
X402305Y371171D01*
X401398Y371867D01*
X400341Y372305D01*
X399207Y372454D01*
D02*
G37*
G36*
Y362454D02*
X398420D01*
X397286Y362305D01*
X396230Y361867D01*
X395322Y361171D01*
X394626Y360264D01*
X394188Y359207D01*
X394039Y358073D01*
X394188Y356940D01*
X394626Y355883D01*
X395322Y354976D01*
X396230Y354280D01*
X397286Y353842D01*
X398420Y353693D01*
X399207D01*
X400341Y353842D01*
X401398Y354280D01*
X402305Y354976D01*
X403001Y355883D01*
X403439Y356940D01*
X403588Y358073D01*
X403439Y359207D01*
X403001Y360264D01*
X402305Y361171D01*
X401398Y361867D01*
X400341Y362305D01*
X399207Y362454D01*
D02*
G37*
G36*
Y352454D02*
X398420D01*
X397286Y352305D01*
X396230Y351867D01*
X395322Y351171D01*
X394626Y350264D01*
X394188Y349207D01*
X394039Y348074D01*
X394188Y346940D01*
X394626Y345883D01*
X395322Y344976D01*
X396230Y344280D01*
X397286Y343842D01*
X398420Y343693D01*
X399207D01*
X400341Y343842D01*
X401398Y344280D01*
X402305Y344976D01*
X403001Y345883D01*
X403439Y346940D01*
X403588Y348074D01*
X403439Y349207D01*
X403001Y350264D01*
X402305Y351171D01*
X401398Y351867D01*
X400341Y352305D01*
X399207Y352454D01*
D02*
G37*
G36*
Y342454D02*
X398420D01*
X397286Y342305D01*
X396230Y341867D01*
X395322Y341171D01*
X394626Y340264D01*
X394188Y339207D01*
X394039Y338073D01*
X394188Y336940D01*
X394626Y335883D01*
X395322Y334976D01*
X396230Y334280D01*
X397286Y333842D01*
X398420Y333693D01*
X399207D01*
X400341Y333842D01*
X401398Y334280D01*
X402305Y334976D01*
X403001Y335883D01*
X403439Y336940D01*
X403588Y338073D01*
X403439Y339207D01*
X403001Y340264D01*
X402305Y341171D01*
X401398Y341867D01*
X400341Y342305D01*
X399207Y342454D01*
D02*
G37*
G36*
X374850Y330900D02*
X371600D01*
Y328400D01*
X374850D01*
Y330900D01*
D02*
G37*
G36*
X370600D02*
X367350D01*
Y328400D01*
X370600D01*
Y330900D01*
D02*
G37*
G36*
X399207Y332454D02*
X398420D01*
X397286Y332305D01*
X396230Y331867D01*
X395322Y331171D01*
X394626Y330264D01*
X394188Y329207D01*
X394039Y328074D01*
X394188Y326940D01*
X394626Y325883D01*
X395322Y324976D01*
X396230Y324280D01*
X397286Y323842D01*
X398420Y323693D01*
X399207D01*
X400341Y323842D01*
X401398Y324280D01*
X402305Y324976D01*
X403001Y325883D01*
X403439Y326940D01*
X403588Y328074D01*
X403439Y329207D01*
X403001Y330264D01*
X402305Y331171D01*
X401398Y331867D01*
X400341Y332305D01*
X399207Y332454D01*
D02*
G37*
G36*
X385494Y325781D02*
X384706D01*
X383978Y325480D01*
X383420Y324922D01*
X383119Y324194D01*
Y323406D01*
X383420Y322678D01*
X383978Y322120D01*
X384706Y321819D01*
X385494D01*
X386222Y322120D01*
X386678Y322576D01*
X392187D01*
X394589Y320174D01*
X394188Y319207D01*
X394039Y318074D01*
X394188Y316940D01*
X394626Y315883D01*
X395322Y314976D01*
X396230Y314280D01*
X397286Y313842D01*
X398420Y313693D01*
X399207D01*
X400341Y313842D01*
X401398Y314280D01*
X402305Y314976D01*
X403001Y315883D01*
X403439Y316940D01*
X403588Y318074D01*
X403439Y319207D01*
X403001Y320264D01*
X402305Y321171D01*
X401398Y321867D01*
X400341Y322305D01*
X399207Y322454D01*
X398420D01*
X397286Y322305D01*
X396319Y321904D01*
X393559Y324665D01*
X393162Y324930D01*
X392693Y325024D01*
X386678D01*
X386222Y325480D01*
X385494Y325781D01*
D02*
G37*
%LPD*%
G36*
X394984Y417277D02*
X394975Y417352D01*
X394949Y417420D01*
X394905Y417479D01*
X394844Y417531D01*
X394766Y417574D01*
X394670Y417610D01*
X394556Y417638D01*
X394425Y417658D01*
X394277Y417669D01*
X394111Y417673D01*
Y418473D01*
X394277Y418477D01*
X394425Y418489D01*
X394556Y418509D01*
X394670Y418537D01*
X394766Y418573D01*
X394844Y418616D01*
X394905Y418668D01*
X394949Y418727D01*
X394975Y418795D01*
X394984Y418870D01*
Y417277D01*
D02*
G37*
G36*
Y407277D02*
X394975Y407352D01*
X394949Y407420D01*
X394905Y407479D01*
X394844Y407531D01*
X394766Y407574D01*
X394670Y407610D01*
X394556Y407638D01*
X394425Y407658D01*
X394277Y407669D01*
X394111Y407674D01*
Y408473D01*
X394277Y408477D01*
X394425Y408489D01*
X394556Y408509D01*
X394670Y408537D01*
X394766Y408573D01*
X394844Y408616D01*
X394905Y408668D01*
X394949Y408727D01*
X394975Y408795D01*
X394984Y408870D01*
Y407277D01*
D02*
G37*
G36*
X395776Y321289D02*
X395889Y321192D01*
X395996Y321114D01*
X396096Y321053D01*
X396189Y321010D01*
X396275Y320986D01*
X396355Y320979D01*
X396428Y320990D01*
X396494Y321019D01*
X396553Y321066D01*
X395427Y319940D01*
X395474Y319999D01*
X395503Y320065D01*
X395514Y320138D01*
X395508Y320218D01*
X395483Y320304D01*
X395440Y320398D01*
X395380Y320497D01*
X395301Y320604D01*
X395205Y320718D01*
X395090Y320838D01*
X395656Y321403D01*
X395776Y321289D01*
D02*
G37*
%LPC*%
G36*
X351600Y291450D02*
X349100D01*
Y288200D01*
X351600D01*
Y291450D01*
D02*
G37*
G36*
Y287200D02*
X349100D01*
Y283950D01*
X351600D01*
Y287200D01*
D02*
G37*
%LPD*%
D29*
X357400Y271200D02*
D03*
X350000D02*
D03*
X357200Y543600D02*
D03*
X349800D02*
D03*
X359500Y287700D02*
D03*
X352100D02*
D03*
X324800Y654100D02*
D03*
X332200D02*
D03*
X413500Y433700D02*
D03*
X406100D02*
D03*
X365200Y518700D02*
D03*
X357800D02*
D03*
Y559100D02*
D03*
X350400D02*
D03*
D65*
X310168Y438073D02*
X310885D01*
X308814D02*
X310168D01*
X313042Y435200D01*
X314400D01*
X310885Y438073D02*
X313176Y440365D01*
X308814Y439357D02*
Y448073D01*
X311499Y442042D02*
X311542D01*
X312100Y442600D01*
X308814Y439357D02*
X311499Y442042D01*
X308814Y438073D02*
Y439357D01*
X310393Y449653D02*
Y452500D01*
X308814Y448073D02*
X310393Y449653D01*
X309207Y448073D02*
X313527D01*
X309207D02*
X309207D01*
X312448Y444833D01*
X330900Y265500D02*
X336200Y260200D01*
X330900Y265500D02*
Y274900D01*
X336200Y260200D02*
X346500D01*
X350000Y263700D02*
Y271200D01*
X346500Y260200D02*
X350000Y263700D01*
X330900Y302200D02*
X332600Y303900D01*
X330900Y274900D02*
Y302200D01*
X366100Y263900D02*
X370900Y268700D01*
X359000Y263900D02*
X366100D01*
X355600Y267300D02*
X359000Y263900D01*
X355600Y267300D02*
Y278900D01*
X347069Y544931D02*
X348469D01*
X338400Y553600D02*
X347069Y544931D01*
X348469D02*
X349800Y543600D01*
X365100Y540300D02*
X367500Y542700D01*
X371600D01*
X356300Y543800D02*
X359800Y540300D01*
X365100D01*
X359000Y591800D02*
Y600000D01*
X360200Y564250D02*
Y590600D01*
X359000Y591800D02*
Y592400D01*
X362800Y567900D02*
Y592158D01*
X361381Y593577D02*
Y594000D01*
X359000Y591800D02*
X360200Y590600D01*
X361381Y593577D02*
X362800Y592158D01*
X348400Y290900D02*
X348500D01*
X347500Y290000D02*
X348400Y290900D01*
X343463Y293700D02*
X350500D01*
X353200Y296400D01*
X337731Y299431D02*
X343463Y293700D01*
X337731Y299431D02*
X340200Y301900D01*
X308814Y448073D02*
X309207D01*
X340200Y301900D02*
Y307000D01*
X332600Y303900D02*
X337069Y299431D01*
X337731D01*
X332600Y303900D02*
Y317700D01*
X323500Y326800D02*
X332600Y317700D01*
X323500Y326800D02*
Y438100D01*
X313527Y448073D02*
X323500Y438100D01*
X340900Y556100D02*
Y572100D01*
X338400Y553600D02*
X340900Y556100D01*
X324200Y463066D02*
Y539400D01*
X338400Y553600D01*
X309207Y448073D02*
X324200Y463066D01*
X383100Y413500D02*
X383200D01*
X383400Y413300D01*
X359000Y565450D02*
X360200Y564250D01*
Y564200D02*
Y564250D01*
X399207Y478074D02*
X405500Y471781D01*
X398814Y478074D02*
X399207D01*
X405500Y456100D02*
Y471781D01*
X402500Y453100D02*
X405500Y456100D01*
X394800Y453100D02*
X402500D01*
X356900Y415200D02*
X394800Y453100D01*
X362100Y390800D02*
X370100Y382800D01*
X362100Y390800D02*
Y410000D01*
X371700Y419600D01*
X369200Y404000D02*
X383274Y418074D01*
X398814D01*
X375700Y397200D02*
X386574Y408074D01*
X398814D01*
X392100Y280400D02*
X394800Y283100D01*
X371957Y278700D02*
X386357Y293100D01*
X412000D01*
X371700Y278700D02*
X371957D01*
X365700Y280900D02*
X387877Y303077D01*
X411550D01*
X385100Y323800D02*
X392693D01*
X398420Y318074D02*
X398814D01*
X392693Y323800D02*
X398420Y318074D01*
X412000Y293100D02*
X412200Y293300D01*
X411575Y303101D02*
X412501D01*
X411550Y303077D02*
X411575Y303101D01*
X316500Y308000D02*
Y313700D01*
X323400Y301100D02*
X328200D01*
X316500Y308000D02*
X323400Y301100D01*
X320700Y308200D02*
X325200Y303700D01*
X320700Y308200D02*
Y313600D01*
X409100Y283100D02*
X414125Y288125D01*
X394800Y283100D02*
X409100D01*
D66*
X398814Y658074D02*
D03*
Y638073D02*
D03*
Y648073D02*
D03*
Y618074D02*
D03*
Y628074D02*
D03*
Y598073D02*
D03*
Y608074D02*
D03*
Y578074D02*
D03*
Y588073D02*
D03*
Y558074D02*
D03*
Y568074D02*
D03*
Y538073D02*
D03*
Y548073D02*
D03*
Y518074D02*
D03*
Y528074D02*
D03*
Y498073D02*
D03*
Y508074D02*
D03*
Y478074D02*
D03*
Y488073D02*
D03*
Y458074D02*
D03*
Y468074D02*
D03*
Y438073D02*
D03*
Y448073D02*
D03*
Y418074D02*
D03*
Y428074D02*
D03*
Y398074D02*
D03*
Y408074D02*
D03*
Y378074D02*
D03*
Y388073D02*
D03*
Y358073D02*
D03*
Y368074D02*
D03*
Y338073D02*
D03*
Y348074D02*
D03*
Y318074D02*
D03*
Y328074D02*
D03*
Y298074D02*
D03*
Y308073D02*
D03*
Y278074D02*
D03*
Y288073D02*
D03*
Y258073D02*
D03*
Y268074D02*
D03*
Y248074D02*
D03*
Y238073D02*
D03*
Y228074D02*
D03*
Y218074D02*
D03*
Y208073D02*
D03*
Y198073D02*
D03*
X308814Y658074D02*
D03*
Y638073D02*
D03*
Y648073D02*
D03*
Y618074D02*
D03*
Y628074D02*
D03*
Y598073D02*
D03*
Y608074D02*
D03*
Y578074D02*
D03*
Y588073D02*
D03*
Y558074D02*
D03*
Y568074D02*
D03*
Y538073D02*
D03*
Y548073D02*
D03*
Y518074D02*
D03*
Y528074D02*
D03*
Y498073D02*
D03*
Y508074D02*
D03*
Y478074D02*
D03*
Y488073D02*
D03*
Y458074D02*
D03*
Y468074D02*
D03*
Y438073D02*
D03*
Y448073D02*
D03*
Y418074D02*
D03*
Y428074D02*
D03*
Y398074D02*
D03*
Y408074D02*
D03*
Y378074D02*
D03*
Y388073D02*
D03*
Y358073D02*
D03*
Y368074D02*
D03*
Y338073D02*
D03*
Y348074D02*
D03*
Y318074D02*
D03*
Y328074D02*
D03*
Y298074D02*
D03*
Y308073D02*
D03*
Y278074D02*
D03*
Y288073D02*
D03*
Y258073D02*
D03*
Y268074D02*
D03*
Y248074D02*
D03*
Y238073D02*
D03*
Y228074D02*
D03*
Y218074D02*
D03*
Y208073D02*
D03*
Y198073D02*
D03*
D67*
X398814Y668074D02*
D03*
X308814D02*
D03*
D69*
X380000Y480000D02*
D03*
X390000Y460000D02*
D03*
X380000Y360000D02*
D03*
Y200000D02*
D03*
X370000Y460000D02*
D03*
X360000Y360000D02*
D03*
X370000Y340000D02*
D03*
X360000Y200000D02*
D03*
X340000Y520000D02*
D03*
X350000Y500000D02*
D03*
X340000Y480000D02*
D03*
X350000Y420000D02*
D03*
Y380000D02*
D03*
X320000Y640000D02*
D03*
X349800Y464900D02*
D03*
X341500Y455400D02*
D03*
X336700Y449100D02*
D03*
X334700Y431300D02*
D03*
Y423100D02*
D03*
X334400Y416800D02*
D03*
X334300Y409500D02*
D03*
X333800Y402300D02*
D03*
Y396600D02*
D03*
X313600Y413100D02*
D03*
Y403100D02*
D03*
X335100Y351200D02*
D03*
X334900Y363500D02*
D03*
X334500Y375900D02*
D03*
Y380200D02*
D03*
X334400Y384100D02*
D03*
Y387800D02*
D03*
X313600Y543100D02*
D03*
Y533100D02*
D03*
Y513100D02*
D03*
Y503100D02*
D03*
Y483100D02*
D03*
Y473100D02*
D03*
Y393100D02*
D03*
Y373100D02*
D03*
Y353100D02*
D03*
Y333100D02*
D03*
X328000Y306600D02*
D03*
X313700Y303100D02*
D03*
X315200Y284100D02*
D03*
X318500Y280400D02*
D03*
X322000Y277500D02*
D03*
X326700Y275500D02*
D03*
X334500Y275700D02*
D03*
X330900Y274900D02*
D03*
X364000Y543300D02*
D03*
X356300Y543800D02*
D03*
X371600Y542700D02*
D03*
X361381Y594000D02*
D03*
X364500Y267900D02*
D03*
X370900Y268700D02*
D03*
X378300Y265900D02*
D03*
X340400Y292600D02*
D03*
X344300Y291000D02*
D03*
X348500Y290900D02*
D03*
X349200Y296200D02*
D03*
X345300D02*
D03*
X391200Y454600D02*
D03*
X391500Y445800D02*
D03*
X387200Y450100D02*
D03*
X386600Y440600D02*
D03*
X382300Y444900D02*
D03*
X377400Y439900D02*
D03*
X381700Y435600D02*
D03*
X383400Y413300D02*
D03*
X377200Y417300D02*
D03*
X370600Y434900D02*
D03*
X366200Y430400D02*
D03*
X371500Y424700D02*
D03*
X376700Y421800D02*
D03*
X380400Y425200D02*
D03*
X354400Y418700D02*
D03*
X359800Y412500D02*
D03*
X372500Y400800D02*
D03*
X366200Y407100D02*
D03*
X379100Y393800D02*
D03*
X384000Y400000D02*
D03*
X378200Y406600D02*
D03*
X371500Y412900D02*
D03*
X365900Y419400D02*
D03*
X360500Y424800D02*
D03*
X389400Y423500D02*
D03*
X391700Y413800D02*
D03*
X360200Y564200D02*
D03*
X362800Y567900D02*
D03*
X370100Y382800D02*
D03*
X371700Y419600D02*
D03*
X356900Y415200D02*
D03*
X369200Y404000D02*
D03*
X375700Y397200D02*
D03*
X337600Y321100D02*
D03*
X364400Y310800D02*
D03*
X375300Y311200D02*
D03*
X371700Y278700D02*
D03*
X375700Y294400D02*
D03*
X376082Y299000D02*
D03*
X392100Y280400D02*
D03*
X368200Y307000D02*
D03*
X371700Y306800D02*
D03*
X355500Y259200D02*
D03*
X355600Y278900D02*
D03*
X353200Y296400D02*
D03*
X385100Y323800D02*
D03*
X412200Y293300D02*
D03*
X412501Y303101D02*
D03*
X365700Y280900D02*
D03*
X336500Y307000D02*
D03*
X340200D02*
D03*
X316500Y313700D02*
D03*
X320700Y313600D02*
D03*
X328200Y301100D02*
D03*
X325200Y303700D02*
D03*
X344500Y265900D02*
D03*
X337900Y230800D02*
D03*
X376182Y245700D02*
D03*
X375985Y251300D02*
D03*
X368600Y208400D02*
D03*
X340647Y205250D02*
D03*
X341094Y529400D02*
D03*
X393000Y402700D02*
D03*
X343800Y525100D02*
D03*
X355600Y525300D02*
D03*
X349800Y525200D02*
D03*
X414125Y288125D02*
D03*
X329600Y530800D02*
D03*
X335200Y535300D02*
D03*
X375700Y544200D02*
D03*
X335500Y577000D02*
D03*
X334400Y582900D02*
D03*
X340900Y572100D02*
D03*
X314606Y553724D02*
D03*
X314493Y562893D02*
D03*
X331575Y570907D02*
D03*
X331394Y580076D02*
D03*
X379000Y569000D02*
D03*
X374355Y577053D02*
D03*
X376000Y583000D02*
D03*
X385000Y563000D02*
D03*
X353000Y621000D02*
D03*
X333000Y626000D02*
D03*
X375000Y643000D02*
D03*
X340000Y658000D02*
D03*
X368000Y661000D02*
D03*
X376197Y589000D02*
D03*
X376000Y649000D02*
D03*
X441522Y663900D02*
D03*
X444672Y635947D02*
D03*
X441522Y606293D02*
D03*
X444672Y578340D02*
D03*
X441522Y548685D02*
D03*
X444672Y520732D02*
D03*
X441522Y491078D02*
D03*
X444672Y463125D02*
D03*
X441522Y403664D02*
D03*
X444672Y375711D02*
D03*
X441522Y346057D02*
D03*
X444672Y318104D02*
D03*
X441522Y288449D02*
D03*
X444672Y260496D02*
D03*
X441522Y230842D02*
D03*
X444672Y202889D02*
D03*
X338400Y553600D02*
D03*
X353700Y582000D02*
D03*
Y572100D02*
D03*
X359000Y600000D02*
D03*
D70*
X323816Y207316D02*
D03*
X318584Y202084D02*
D03*
X365301Y485025D02*
D03*
X370533Y490258D02*
D03*
D71*
X371100Y327900D02*
D03*
Y320500D02*
D03*
M02*
