G04*
G04 #@! TF.GenerationSoftware,Altium Limited,Altium Designer,21.8.1 (53)*
G04*
G04 Layer_Color=32896*
%FSLAX25Y25*%
%MOIN*%
G70*
G04*
G04 #@! TF.SameCoordinates,F5C5D764-6AA7-4F14-928A-87DEF657E23D*
G04*
G04*
G04 #@! TF.FilePolarity,Positive*
G04*
G01*
G75*
%ADD15C,0.00200*%
D15*
X360200Y273700D02*
Y274700D01*
X359200Y274700D02*
X360200Y274700D01*
Y267700D02*
Y268700D01*
X359200Y267700D02*
X360200Y267700D01*
X347200D02*
X348200Y267700D01*
X347200Y267700D02*
Y268700D01*
Y273700D02*
Y274700D01*
X348200Y274700D01*
X352700Y273700D02*
X354700D01*
X352700Y268700D02*
X354700D01*
X360000Y546100D02*
Y547100D01*
X359000D02*
X360000D01*
Y540100D02*
Y541100D01*
X359000Y540100D02*
X360000D01*
X347000D02*
X348000D01*
X347000D02*
Y541100D01*
Y546100D02*
Y547100D01*
X348000D01*
X352500Y546100D02*
X354500D01*
X352500Y541100D02*
X354500D01*
X354800Y290200D02*
X356800D01*
X354800Y285200D02*
X356800D01*
X361300Y284200D02*
X362300D01*
Y285200D01*
Y290200D02*
Y291200D01*
X361300Y291200D02*
X362300Y291200D01*
X349300D02*
X350300D01*
X349300Y290200D02*
Y291200D01*
Y284200D02*
X350300D01*
X349300D02*
X349300Y285200D01*
X327500Y651600D02*
X329500D01*
X327500Y656600D02*
X329500Y656600D01*
X322000Y657600D02*
X323000Y657600D01*
X322000Y656600D02*
Y657600D01*
Y650600D02*
Y651600D01*
Y650600D02*
X323000Y650600D01*
X334000Y650600D02*
X335000Y650600D01*
X335000Y651600D01*
X334000Y657600D02*
X335000D01*
X335000Y656600D02*
X335000Y657600D01*
X318725Y205761D02*
X320139Y207175D01*
X322261Y202225D02*
X323675Y203639D01*
X327564Y206114D02*
X328271Y206821D01*
X327564Y207528D02*
X328271Y206821D01*
X323321Y211771D02*
X324028Y211064D01*
X322614Y211064D02*
X323321Y211771D01*
X314129Y202579D02*
X314836Y203286D01*
X314129Y202579D02*
X314836Y201872D01*
X319079Y197629D02*
X319786Y198336D01*
X318372Y198336D02*
X319079Y197629D01*
X368978Y485167D02*
X370392Y486581D01*
X365442Y488702D02*
X366857Y490116D01*
X360846Y485520D02*
X361553Y486227D01*
X360846Y485520D02*
X361553Y484813D01*
X365089Y481278D02*
X365796Y480570D01*
X366503Y481278D01*
X374281Y489056D02*
X374988Y489763D01*
X374281Y490470D02*
X374988Y489763D01*
X369331Y494005D02*
X370039Y494712D01*
X370746Y494005D01*
X368600Y323200D02*
Y325200D01*
X373600Y323200D02*
Y325200D01*
X374600Y329700D02*
Y330700D01*
X373600D02*
X374600D01*
X367600D02*
X368600D01*
X367600D02*
X367600Y329700D01*
X367600Y317700D02*
Y318700D01*
Y317700D02*
X368600D01*
X374600D02*
Y318700D01*
X373600Y317700D02*
X374600Y317700D01*
X408800Y436200D02*
X410800D01*
X408800Y431200D02*
X410800D01*
X415300Y430200D02*
X416300D01*
Y431200D01*
Y436200D02*
Y437200D01*
X415300D02*
X416300D01*
X403300D02*
X404300D01*
X403300Y436200D02*
Y437200D01*
Y430200D02*
X404300D01*
X403300D02*
Y431200D01*
X360500Y521200D02*
X362500D01*
X360500Y516200D02*
X362500D01*
X367000Y515200D02*
X368000D01*
Y516200D01*
Y521200D02*
Y522200D01*
X367000D02*
X368000D01*
X355000D02*
X356000D01*
X355000Y521200D02*
Y522200D01*
Y515200D02*
X356000D01*
X355000D02*
Y516200D01*
X353100Y561600D02*
X355100D01*
X353100Y556600D02*
X355100D01*
X359600Y555600D02*
X360600D01*
Y556600D01*
Y561600D02*
Y562600D01*
X359600D02*
X360600D01*
X347600D02*
X348600D01*
X347600Y561600D02*
Y562600D01*
Y555600D02*
X348600D01*
X347600D02*
Y556600D01*
M02*
