M48
;Layer_Color=9474304
;FILE_FORMAT=2:5
INCH,LZ
;TYPE=PLATED
T1F00S00C0.01200
T2F00S00C0.05512
;TYPE=NON_PLATED
T3F00S00C0.05100
%
T01
X0340647Y020525
X036Y02
X03686Y02084
X038Y02
X0376182Y02457
X0375985Y02513
X03783Y02659
X03709Y02687
X03645Y02679
X03657Y02809
X03717Y02787
X03556Y02789
X03485Y02909
X03443Y0291
X03404Y02926
X03453Y02962
X03492
X03532Y02964
X03402Y0307
X03365
X0328Y03066
X03282Y03011
X03252Y03037
X03137Y03031
X03152Y02841
X03185Y02804
X0322Y02775
X03267Y02755
X03309Y02749
X03345Y02757
X03445Y02659
X03555Y02592
X03379Y02308
X03757Y02944
X0376082Y0299
X03717Y03068
X03682Y0307
X03644Y03108
X03753Y03112
X0412501Y0303101
X04122Y02933
X0414125Y0288125
X0441522Y0288449
X0444672Y0260496
X0441522Y0230842
X0444672Y0202889
X03921Y02804
X03851Y03238
X037Y034
X038Y036
X036
X03349Y03635
X03351Y03512
X03136Y03531
Y03731
Y03931
Y04031
Y04131
X03343Y04095
X03344Y04168
X03347Y04231
Y04313
X03367Y04491
X03415Y04554
X03498Y04649
X037Y046
X039
X03912Y04546
X03872Y04501
X03915Y04458
X03866Y04406
X03823Y04449
X03774Y04399
X03817Y04356
X03804Y04252
X03767Y04218
X03772Y04173
X03717Y04196
X03715Y04247
X03659Y04194
X03605Y04248
X03662Y04304
X03706Y04349
X03715Y04129
X03662Y04071
X03692Y0404
X03725Y04008
X03757Y03972
X03791Y03938
X0384Y04
X0393Y04027
X03917Y04138
X03834Y04133
X03782Y04066
X03598Y04125
X03569Y04152
X03544Y04187
X035Y042
X03338Y04023
Y03966
X03344Y03878
Y03841
X03345Y03802
Y03759
X035Y038
X03701Y03828
X03894Y04235
X0441522Y0403664
X0444672Y0375711
X0441522Y0346057
X0444672Y0318104
X03376Y03211
X03207Y03136
X03165Y03137
X03136Y03331
X0444672Y0463125
X0441522Y0491078
X0444672Y0520732
X0441522Y0548685
X0444672Y057834
X0441522Y0606293
X0376197Y0589
X0376Y0583
X0374355Y0577053
X0379Y0569
X0385Y0563
X03602Y05642
X03628Y05679
X03537Y05721
Y0582
X0361381Y0594
X0359Y06
X0353Y0621
X03344Y05829
X0331394Y0580076
X03355Y0577
X0331575Y0570907
X03409Y05721
X03384Y05536
X03352Y05353
X03296Y05308
X0341094Y05294
X03438Y05251
X03498Y05252
X03556Y05253
X03563Y05438
X0364Y05433
X03716Y05427
X03757Y05442
X034Y052
X035Y05
X034Y048
X03136Y04831
Y04731
Y05031
Y05131
Y05331
Y05431
X0314606Y0553724
X0314493Y0562893
X038Y048
X0375Y0643
X0376Y0649
X0368Y0661
X034Y0658
X032Y064
X0333Y0626
X0444672Y0635947
X0441522Y06639
T02
X0398814Y0198073
Y0208073
Y0218074
Y0228074
Y0238073
Y0248074
Y0258073
Y0268074
Y0278074
Y0288073
Y0298074
Y0308073
X0308814
Y0298074
Y0288073
Y0278074
Y0268074
Y0258073
Y0248074
Y0238073
Y0228074
Y0218074
Y0208073
Y0198073
Y0318074
Y0328074
Y0338073
Y0348074
Y0358073
Y0368074
Y0378074
Y0388073
Y0398074
Y0408074
Y0418074
Y0428074
Y0438073
Y0448073
Y0458074
Y0468074
X0398814
Y0458074
Y0448073
Y0438073
Y0428074
Y0418074
Y0408074
Y0398074
Y0388073
Y0378074
Y0368074
Y0358073
Y0348074
Y0338073
Y0328074
Y0318074
Y0478074
Y0488073
Y0498073
Y0508074
Y0518074
Y0528074
Y0538073
Y0548073
Y0558074
Y0568074
Y0578074
Y0588073
Y0598073
Y0608074
Y0618074
X0308814
Y0608074
Y0598073
Y0588073
Y0578074
Y0568074
Y0558074
Y0548073
Y0538073
Y0528074
Y0518074
Y0508074
Y0498073
Y0488073
Y0478074
Y0628074
Y0638073
Y0648073
Y0658074
Y0668074
X0398814
Y0658074
Y0648073
Y0638073
Y0628074
T03
X03543Y02041
Y0227722
X04222Y0216542
X0445822
Y0274149
X04222
Y0331756
X0445822
Y0389364
X04222
X04222Y0476778
X0445822Y0476778
Y0534385
X04222
X04222Y0591993
X0445822
Y06496
X04222
X03543Y0638678
Y06623
M30
