G04*
G04 #@! TF.GenerationSoftware,Altium Limited,Altium Designer,21.8.1 (53)*
G04*
G04 Layer_Color=16711935*
%FSLAX25Y25*%
%MOIN*%
G70*
G04*
G04 #@! TF.SameCoordinates,F5C5D764-6AA7-4F14-928A-87DEF657E23D*
G04*
G04*
G04 #@! TF.FilePolarity,Negative*
G04*
G01*
G75*
%ADD48R,0.04800X0.06300*%
%ADD61C,0.00600*%
%ADD62O,0.08674X0.07887*%
%ADD63R,0.08674X0.07887*%
G04:AMPARAMS|DCode=72|XSize=48mil|YSize=63mil|CornerRadius=0mil|HoleSize=0mil|Usage=FLASHONLY|Rotation=225.000|XOffset=0mil|YOffset=0mil|HoleType=Round|Shape=Rectangle|*
%AMROTATEDRECTD72*
4,1,4,-0.00530,0.03924,0.03924,-0.00530,0.00530,-0.03924,-0.03924,0.00530,-0.00530,0.03924,0.0*
%
%ADD72ROTATEDRECTD72*%

%ADD73R,0.06300X0.04800*%
D48*
X357400Y271200D02*
D03*
X350000D02*
D03*
X357200Y543600D02*
D03*
X349800D02*
D03*
X359500Y287700D02*
D03*
X352100D02*
D03*
X324800Y654100D02*
D03*
X332200D02*
D03*
X413500Y433700D02*
D03*
X406100D02*
D03*
X365200Y518700D02*
D03*
X357800D02*
D03*
Y559100D02*
D03*
X350400D02*
D03*
D61*
X445822Y216542D02*
D03*
X422200D02*
D03*
X354300Y227722D02*
D03*
Y204100D02*
D03*
Y638678D02*
D03*
Y662300D02*
D03*
X422200Y591993D02*
D03*
X445822D02*
D03*
X422200Y649600D02*
D03*
X445822D02*
D03*
X422200Y476778D02*
D03*
X445822Y476778D02*
D03*
X422200Y331756D02*
D03*
X445822D02*
D03*
X422200Y534385D02*
D03*
X445822D02*
D03*
X422200Y274149D02*
D03*
X445822D02*
D03*
X422200Y389364D02*
D03*
X445822D02*
D03*
D62*
X398814Y658074D02*
D03*
Y638073D02*
D03*
Y648073D02*
D03*
Y618074D02*
D03*
Y628074D02*
D03*
Y598073D02*
D03*
Y608074D02*
D03*
Y578074D02*
D03*
Y588073D02*
D03*
Y558074D02*
D03*
Y568074D02*
D03*
Y538073D02*
D03*
Y548073D02*
D03*
Y518074D02*
D03*
Y528074D02*
D03*
Y498073D02*
D03*
Y508074D02*
D03*
Y478074D02*
D03*
Y488073D02*
D03*
Y458074D02*
D03*
Y468074D02*
D03*
Y438073D02*
D03*
Y448073D02*
D03*
Y418074D02*
D03*
Y428074D02*
D03*
Y398074D02*
D03*
Y408074D02*
D03*
Y378074D02*
D03*
Y388073D02*
D03*
Y358073D02*
D03*
Y368074D02*
D03*
Y338073D02*
D03*
Y348074D02*
D03*
Y318074D02*
D03*
Y328074D02*
D03*
Y298074D02*
D03*
Y308073D02*
D03*
Y278074D02*
D03*
Y288073D02*
D03*
Y258073D02*
D03*
Y268074D02*
D03*
Y248074D02*
D03*
Y238073D02*
D03*
Y228074D02*
D03*
Y218074D02*
D03*
Y208073D02*
D03*
Y198073D02*
D03*
X308814Y658074D02*
D03*
Y638073D02*
D03*
Y648073D02*
D03*
Y618074D02*
D03*
Y628074D02*
D03*
Y598073D02*
D03*
Y608074D02*
D03*
Y578074D02*
D03*
Y588073D02*
D03*
Y558074D02*
D03*
Y568074D02*
D03*
Y538073D02*
D03*
Y548073D02*
D03*
Y518074D02*
D03*
Y528074D02*
D03*
Y498073D02*
D03*
Y508074D02*
D03*
Y478074D02*
D03*
Y488073D02*
D03*
Y458074D02*
D03*
Y468074D02*
D03*
Y438073D02*
D03*
Y448073D02*
D03*
Y418074D02*
D03*
Y428074D02*
D03*
Y398074D02*
D03*
Y408074D02*
D03*
Y378074D02*
D03*
Y388073D02*
D03*
Y358073D02*
D03*
Y368074D02*
D03*
Y338073D02*
D03*
Y348074D02*
D03*
Y318074D02*
D03*
Y328074D02*
D03*
Y298074D02*
D03*
Y308073D02*
D03*
Y278074D02*
D03*
Y288073D02*
D03*
Y258073D02*
D03*
Y268074D02*
D03*
Y248074D02*
D03*
Y238073D02*
D03*
Y228074D02*
D03*
Y218074D02*
D03*
Y208073D02*
D03*
Y198073D02*
D03*
D63*
X398814Y668074D02*
D03*
X308814D02*
D03*
D72*
X323816Y207316D02*
D03*
X318584Y202084D02*
D03*
X365301Y485025D02*
D03*
X370533Y490258D02*
D03*
D73*
X371100Y327900D02*
D03*
Y320500D02*
D03*
M02*
