G04*
G04 #@! TF.GenerationSoftware,Altium Limited,Altium Designer,21.8.1 (53)*
G04*
G04 Layer_Color=8421504*
%FSLAX25Y25*%
%MOIN*%
G70*
G04*
G04 #@! TF.SameCoordinates,F5C5D764-6AA7-4F14-928A-87DEF657E23D*
G04*
G04*
G04 #@! TF.FilePolarity,Positive*
G04*
G01*
G75*
%ADD23R,0.06000X0.10000*%
%ADD24R,0.06000X0.12000*%
%ADD25R,0.10000X0.06000*%
%ADD26R,0.12000X0.06000*%
%ADD27R,0.03347X0.03740*%
%ADD28R,0.03543X0.03937*%
%ADD29R,0.04000X0.05500*%
%ADD30R,0.04842X0.07087*%
%ADD31R,0.09646X0.10039*%
%ADD32R,0.02520X0.02362*%
%ADD33R,0.05118X0.05512*%
%ADD34R,0.02362X0.02520*%
%ADD35R,0.02362X0.02953*%
%ADD36R,0.04724X0.05512*%
%ADD37R,0.01400X0.05800*%
%ADD38R,0.05512X0.05118*%
%ADD39R,0.07087X0.04842*%
%ADD40R,0.03740X0.03347*%
%ADD41R,0.01772X0.03543*%
D23*
X449866Y202565D02*
D03*
X435693D02*
D03*
X419158Y230518D02*
D03*
X446717D02*
D03*
X446716Y605969D02*
D03*
X419158D02*
D03*
X435693Y578016D02*
D03*
X449866D02*
D03*
X446716Y663576D02*
D03*
X419158D02*
D03*
X435693Y635624D02*
D03*
X449866D02*
D03*
X446716Y490754D02*
D03*
X419158D02*
D03*
X435693Y462802D02*
D03*
X449866D02*
D03*
X446717Y345733D02*
D03*
X419158D02*
D03*
X435693Y317780D02*
D03*
X449866D02*
D03*
X446717Y548362D02*
D03*
X419158D02*
D03*
X435693Y520409D02*
D03*
X449866D02*
D03*
X446717Y288125D02*
D03*
X419158Y288125D02*
D03*
X435693Y260173D02*
D03*
X449866D02*
D03*
X446717Y403340D02*
D03*
X419158Y403340D02*
D03*
X435693Y375387D02*
D03*
X449866D02*
D03*
D24*
X412000Y203408D02*
D03*
X412000Y578859D02*
D03*
Y636466D02*
D03*
X412000Y463644D02*
D03*
X412000Y318623D02*
D03*
X412000Y521251D02*
D03*
X412000Y261015D02*
D03*
Y376230D02*
D03*
D25*
X368276Y203205D02*
D03*
Y230765D02*
D03*
X340324Y214229D02*
D03*
Y200056D02*
D03*
X340324Y663195D02*
D03*
X340324Y635635D02*
D03*
X368276Y652171D02*
D03*
Y666344D02*
D03*
D26*
X341166Y237922D02*
D03*
X367434Y628478D02*
D03*
D27*
X380300Y286900D02*
D03*
X385418D02*
D03*
X380082Y299000D02*
D03*
X385200D02*
D03*
X379985Y251300D02*
D03*
X385103D02*
D03*
X380000Y595000D02*
D03*
X385118D02*
D03*
X380200Y239400D02*
D03*
X385318D02*
D03*
X379882Y589000D02*
D03*
X385000D02*
D03*
X380000Y655000D02*
D03*
X385118D02*
D03*
X380000Y649000D02*
D03*
X385118D02*
D03*
X324000Y626000D02*
D03*
X329118D02*
D03*
D28*
X379985Y293100D02*
D03*
X385300D02*
D03*
X379685Y583000D02*
D03*
X385000D02*
D03*
X380182Y245700D02*
D03*
X385497D02*
D03*
X379685Y643000D02*
D03*
X385000D02*
D03*
D29*
X380100Y279800D02*
D03*
X387500D02*
D03*
X380100Y232500D02*
D03*
X387500D02*
D03*
X380100Y602500D02*
D03*
X387500Y602500D02*
D03*
X380100Y662500D02*
D03*
X387500D02*
D03*
D30*
X385500Y269915D02*
D03*
Y259600D02*
D03*
X382900Y316915D02*
D03*
Y306600D02*
D03*
X385000Y623685D02*
D03*
Y634000D02*
D03*
D31*
X324200Y224900D02*
D03*
Y201081D02*
D03*
X324000Y592091D02*
D03*
Y615909D02*
D03*
X324100Y261919D02*
D03*
X324100Y238100D02*
D03*
X344000Y592091D02*
D03*
Y615909D02*
D03*
D32*
X355300Y265632D02*
D03*
Y262168D02*
D03*
X375700Y550900D02*
D03*
Y547435D02*
D03*
X335200Y542200D02*
D03*
Y538735D02*
D03*
X379000Y572268D02*
D03*
Y575732D02*
D03*
D33*
X343999Y259800D02*
D03*
X337700D02*
D03*
X319900Y580400D02*
D03*
X326199D02*
D03*
X326100Y553400D02*
D03*
X319801D02*
D03*
X377135Y260200D02*
D03*
X370835D02*
D03*
X366500Y316000D02*
D03*
X372799D02*
D03*
X344000Y316200D02*
D03*
X337701D02*
D03*
D34*
X337700Y265900D02*
D03*
X341165D02*
D03*
X357600Y540600D02*
D03*
X361065D02*
D03*
X370835Y265900D02*
D03*
X374300D02*
D03*
X337868Y583100D02*
D03*
X341332D02*
D03*
X336635Y310300D02*
D03*
X340100D02*
D03*
X371600D02*
D03*
X368135D02*
D03*
D35*
X339300Y538764D02*
D03*
Y534236D02*
D03*
X332100Y562436D02*
D03*
Y566964D02*
D03*
X316600Y290336D02*
D03*
Y294864D02*
D03*
D36*
X326381Y562570D02*
D03*
X319688D02*
D03*
X326381Y571231D02*
D03*
X319688D02*
D03*
D37*
X338400Y577000D02*
D03*
X340900D02*
D03*
X343500D02*
D03*
X346000D02*
D03*
X348600D02*
D03*
X351200D02*
D03*
X353700D02*
D03*
X356300D02*
D03*
X358800D02*
D03*
X361400D02*
D03*
X364000D02*
D03*
X366500D02*
D03*
X369100D02*
D03*
X371600D02*
D03*
Y548000D02*
D03*
X369100D02*
D03*
X366500D02*
D03*
X364000D02*
D03*
X361400D02*
D03*
X358800D02*
D03*
X356300D02*
D03*
X353700D02*
D03*
X351200D02*
D03*
X348600D02*
D03*
X346000D02*
D03*
X343500D02*
D03*
X340900D02*
D03*
X338400D02*
D03*
X337700Y301900D02*
D03*
X340200D02*
D03*
X342800D02*
D03*
X345300D02*
D03*
X347900D02*
D03*
X350500D02*
D03*
X353000D02*
D03*
X355600D02*
D03*
X358100D02*
D03*
X360700D02*
D03*
X363300D02*
D03*
X365800D02*
D03*
X368400D02*
D03*
X370900D02*
D03*
Y272900D02*
D03*
X368400D02*
D03*
X365800D02*
D03*
X363300D02*
D03*
X360700D02*
D03*
X358100D02*
D03*
X355600D02*
D03*
X353000D02*
D03*
X350500D02*
D03*
X347900D02*
D03*
X345300D02*
D03*
X342800D02*
D03*
X340200D02*
D03*
X337700D02*
D03*
D38*
X385100Y558100D02*
D03*
Y551801D02*
D03*
X329700Y535901D02*
D03*
Y542200D02*
D03*
X385000Y574000D02*
D03*
Y567701D02*
D03*
D39*
X358685Y587000D02*
D03*
X369000D02*
D03*
D40*
X371000Y240682D02*
D03*
Y245800D02*
D03*
X358000Y616000D02*
D03*
Y621118D02*
D03*
X338000Y221841D02*
D03*
Y226959D02*
D03*
D41*
X349775Y533153D02*
D03*
X352924D02*
D03*
X343476D02*
D03*
X346625D02*
D03*
Y539847D02*
D03*
X343476D02*
D03*
X352924D02*
D03*
X349775D02*
D03*
X325125Y295947D02*
D03*
X321976D02*
D03*
X331424D02*
D03*
X328275D02*
D03*
Y289253D02*
D03*
X331424D02*
D03*
X321976D02*
D03*
X325125D02*
D03*
M02*
