G04*
G04 #@! TF.GenerationSoftware,Altium Limited,Altium Designer,21.8.1 (53)*
G04*
G04 Layer_Color=65535*
%FSLAX25Y25*%
%MOIN*%
G70*
G04*
G04 #@! TF.SameCoordinates,602FFC17-E96E-42ED-876F-BF2310913D4F*
G04*
G04*
G04 #@! TF.FilePolarity,Positive*
G04*
G01*
G75*
%ADD10C,0.00984*%
%ADD11C,0.00600*%
%ADD12C,0.00591*%
%ADD13C,0.00787*%
%ADD14C,0.01000*%
D10*
X355610Y372075D02*
G03*
X355610Y372075I-492J0D01*
G01*
D11*
X437500Y105500D02*
X447500D01*
Y585500D01*
X437500Y105500D02*
Y585500D01*
X447500D01*
X327500Y585500D02*
X337500D01*
X327500Y105500D02*
X327500Y585500D01*
X337500D02*
X337500Y105500D01*
X327500D02*
X337500D01*
X347500D01*
Y585500D01*
X337500Y105500D02*
Y585500D01*
X347500D01*
X427500Y105500D02*
X437500D01*
Y585500D01*
X427500Y105500D02*
Y585500D01*
X437500D01*
X349300Y360366D02*
X350833D01*
X350066Y361133D02*
Y359600D01*
X351799Y580599D02*
X351300Y581099D01*
X350300D01*
X349800Y580599D01*
Y578600D01*
X350300Y578100D01*
X351300D01*
X351799Y578600D01*
Y579600D01*
X350800D01*
X352799Y578100D02*
Y581099D01*
X354798Y578100D01*
Y581099D01*
X355798D02*
Y578100D01*
X357298D01*
X357797Y578600D01*
Y580599D01*
X357298Y581099D01*
X355798D01*
X349900Y448866D02*
Y451865D01*
X351399D01*
X351899Y451365D01*
Y450366D01*
X351399Y449866D01*
X349900D01*
X354898Y451865D02*
X352899D01*
Y448866D01*
X354898D01*
X352899Y450366D02*
X353899D01*
X357897Y448866D02*
X355898D01*
X357897Y450865D01*
Y451365D01*
X357398Y451865D01*
X356398D01*
X355898Y451365D01*
X349900Y438788D02*
Y441787D01*
X351399D01*
X351899Y441288D01*
Y440288D01*
X351399Y439788D01*
X349900D01*
X354898Y441787D02*
X352899D01*
Y438788D01*
X354898D01*
X352899Y440288D02*
X353899D01*
X355898Y441288D02*
X356398Y441787D01*
X357398D01*
X357897Y441288D01*
Y440788D01*
X357398Y440288D01*
X356898D01*
X357398D01*
X357897Y439788D01*
Y439288D01*
X357398Y438788D01*
X356398D01*
X355898Y439288D01*
X349900Y428711D02*
Y431710D01*
X351399D01*
X351899Y431210D01*
Y430210D01*
X351399Y429710D01*
X349900D01*
X354898Y431710D02*
X352899D01*
Y428711D01*
X354898D01*
X352899Y430210D02*
X353899D01*
X357398Y428711D02*
Y431710D01*
X355898Y430210D01*
X357897D01*
X349900Y418633D02*
Y421632D01*
X351399D01*
X351899Y421132D01*
Y420133D01*
X351399Y419633D01*
X349900D01*
X354898Y421632D02*
X352899D01*
Y418633D01*
X354898D01*
X352899Y420133D02*
X353899D01*
X357897Y421632D02*
X355898D01*
Y420133D01*
X356898Y420632D01*
X357398D01*
X357897Y420133D01*
Y419133D01*
X357398Y418633D01*
X356398D01*
X355898Y419133D01*
X349900Y408555D02*
Y411554D01*
X351399D01*
X351899Y411055D01*
Y410055D01*
X351399Y409555D01*
X349900D01*
X354898Y411554D02*
X352899D01*
Y408555D01*
X354898D01*
X352899Y410055D02*
X353899D01*
X357897Y411554D02*
X356898Y411055D01*
X355898Y410055D01*
Y409055D01*
X356398Y408555D01*
X357398D01*
X357897Y409055D01*
Y409555D01*
X357398Y410055D01*
X355898D01*
X349900Y401477D02*
Y399477D01*
X350900Y398478D01*
X351899Y399477D01*
Y401477D01*
X352899D02*
Y398478D01*
X354398D01*
X354898Y398977D01*
Y399477D01*
X354398Y399977D01*
X352899D01*
X354398D01*
X354898Y400477D01*
Y400977D01*
X354398Y401477D01*
X352899D01*
X355898Y398478D02*
Y400477D01*
X356898Y401477D01*
X357897Y400477D01*
Y398478D01*
Y399977D01*
X355898D01*
X358897Y401477D02*
X360896D01*
X359897D01*
Y398478D01*
X349900Y388400D02*
Y391399D01*
X351399D01*
X351899Y390899D01*
Y389899D01*
X351399Y389400D01*
X349900D01*
X354898Y390899D02*
X354398Y391399D01*
X353399D01*
X352899Y390899D01*
Y388900D01*
X353399Y388400D01*
X354398D01*
X354898Y388900D01*
X355898Y388400D02*
X356898D01*
X356398D01*
Y391399D01*
X355898Y390899D01*
X358397D02*
X358897Y391399D01*
X359897D01*
X360397Y390899D01*
Y390399D01*
X359897Y389899D01*
X359397D01*
X359897D01*
X360397Y389400D01*
Y388900D01*
X359897Y388400D01*
X358897D01*
X358397Y388900D01*
X349200Y308181D02*
Y311130D01*
X350675D01*
X351166Y310639D01*
Y309656D01*
X350675Y309164D01*
X349200D01*
X354115Y310639D02*
X353624Y311130D01*
X352641D01*
X352149Y310639D01*
Y308673D01*
X352641Y308181D01*
X353624D01*
X354115Y308673D01*
X355098Y308181D02*
X356081D01*
X355590D01*
Y311130D01*
X355098Y310639D01*
X349200Y298223D02*
Y301173D01*
X350675D01*
X351166Y300681D01*
Y299698D01*
X350675Y299206D01*
X349200D01*
X354115Y300681D02*
X353624Y301173D01*
X352641D01*
X352149Y300681D01*
Y298715D01*
X352641Y298223D01*
X353624D01*
X354115Y298715D01*
X357064Y298223D02*
X355098D01*
X357064Y300190D01*
Y300681D01*
X356573Y301173D01*
X355590D01*
X355098Y300681D01*
X349200Y288266D02*
Y291215D01*
X350675D01*
X351166Y290723D01*
Y289740D01*
X350675Y289249D01*
X349200D01*
X354115Y290723D02*
X353624Y291215D01*
X352641D01*
X352149Y290723D01*
Y288757D01*
X352641Y288266D01*
X353624D01*
X354115Y288757D01*
X355098Y290723D02*
X355590Y291215D01*
X356573D01*
X357064Y290723D01*
Y290232D01*
X356573Y289740D01*
X356081D01*
X356573D01*
X357064Y289249D01*
Y288757D01*
X356573Y288266D01*
X355590D01*
X355098Y288757D01*
X349200Y281257D02*
Y279291D01*
X350183Y278308D01*
X351166Y279291D01*
Y281257D01*
X352149Y278308D02*
Y281257D01*
X353624D01*
X354115Y280766D01*
Y279783D01*
X353624Y279291D01*
X352149D01*
X353132D02*
X354115Y278308D01*
X357064Y281257D02*
X355098D01*
Y278308D01*
X357064D01*
X355098Y279783D02*
X356081D01*
X360013Y281257D02*
X358047D01*
Y279783D01*
X359030D01*
X358047D01*
Y278308D01*
X360996Y279783D02*
X362962D01*
X361979Y280766D02*
Y278800D01*
X349200Y271299D02*
Y269333D01*
X350183Y268350D01*
X351166Y269333D01*
Y271299D01*
X352149D02*
Y268350D01*
X353624D01*
X354115Y268842D01*
Y270808D01*
X353624Y271299D01*
X352149D01*
X355098D02*
Y268350D01*
X356573D01*
X357064Y268842D01*
Y270808D01*
X356573Y271299D01*
X355098D01*
X358047Y268350D02*
Y270316D01*
X359030Y271299D01*
X360013Y270316D01*
Y268350D01*
Y269825D01*
X358047D01*
X349200Y258393D02*
Y261342D01*
X350675D01*
X351166Y260850D01*
Y259867D01*
X350675Y259376D01*
X349200D01*
X352149Y258393D02*
Y260359D01*
X353132Y261342D01*
X354115Y260359D01*
Y258393D01*
Y259867D01*
X352149D01*
X355098Y260850D02*
X355590Y261342D01*
X356573D01*
X357064Y260850D01*
Y258884D01*
X356573Y258393D01*
X355590D01*
X355098Y258884D01*
Y260850D01*
X349200Y248435D02*
Y251384D01*
X350675D01*
X351166Y250892D01*
Y249909D01*
X350675Y249418D01*
X349200D01*
X352149Y248435D02*
Y250401D01*
X353132Y251384D01*
X354115Y250401D01*
Y248435D01*
Y249909D01*
X352149D01*
X355098Y248435D02*
X356081D01*
X355590D01*
Y251384D01*
X355098Y250892D01*
X349200Y238477D02*
Y241426D01*
X350675D01*
X351166Y240935D01*
Y239952D01*
X350675Y239460D01*
X349200D01*
X352149Y238477D02*
Y240443D01*
X353132Y241426D01*
X354115Y240443D01*
Y238477D01*
Y239952D01*
X352149D01*
X357064Y238477D02*
X355098D01*
X357064Y240443D01*
Y240935D01*
X356573Y241426D01*
X355590D01*
X355098Y240935D01*
X349200Y228520D02*
Y231469D01*
X350675D01*
X351166Y230977D01*
Y229994D01*
X350675Y229503D01*
X349200D01*
X352149Y228520D02*
Y230486D01*
X353132Y231469D01*
X354115Y230486D01*
Y228520D01*
Y229994D01*
X352149D01*
X355098Y230977D02*
X355590Y231469D01*
X356573D01*
X357064Y230977D01*
Y230486D01*
X356573Y229994D01*
X356081D01*
X356573D01*
X357064Y229503D01*
Y229011D01*
X356573Y228520D01*
X355590D01*
X355098Y229011D01*
X349200Y218562D02*
Y221511D01*
X350675D01*
X351166Y221019D01*
Y220036D01*
X350675Y219545D01*
X349200D01*
X352149Y218562D02*
Y220528D01*
X353132Y221511D01*
X354115Y220528D01*
Y218562D01*
Y220036D01*
X352149D01*
X356573Y218562D02*
Y221511D01*
X355098Y220036D01*
X357064D01*
X349200Y208604D02*
Y211553D01*
X350675D01*
X351166Y211062D01*
Y210079D01*
X350675Y209587D01*
X349200D01*
X352149Y208604D02*
Y210570D01*
X353132Y211553D01*
X354115Y210570D01*
Y208604D01*
Y210079D01*
X352149D01*
X357064Y211553D02*
X355098D01*
Y210079D01*
X356081Y210570D01*
X356573D01*
X357064Y210079D01*
Y209096D01*
X356573Y208604D01*
X355590D01*
X355098Y209096D01*
X349200Y198646D02*
Y201595D01*
X350675D01*
X351166Y201104D01*
Y200121D01*
X350675Y199629D01*
X349200D01*
X352149Y198646D02*
Y200612D01*
X353132Y201595D01*
X354115Y200612D01*
Y198646D01*
Y200121D01*
X352149D01*
X357064Y201595D02*
X356081Y201104D01*
X355098Y200121D01*
Y199138D01*
X355590Y198646D01*
X356573D01*
X357064Y199138D01*
Y199629D01*
X356573Y200121D01*
X355098D01*
X349200Y188689D02*
Y191638D01*
X350675D01*
X351166Y191146D01*
Y190163D01*
X350675Y189672D01*
X349200D01*
X352149Y188689D02*
Y190655D01*
X353132Y191638D01*
X354115Y190655D01*
Y188689D01*
Y190163D01*
X352149D01*
X355098Y191638D02*
X357064D01*
Y191146D01*
X355098Y189180D01*
Y188689D01*
X349200Y178731D02*
Y181680D01*
X350675D01*
X351166Y181188D01*
Y180205D01*
X350675Y179714D01*
X349200D01*
X354115Y181188D02*
X353624Y181680D01*
X352641D01*
X352149Y181188D01*
Y179222D01*
X352641Y178731D01*
X353624D01*
X354115Y179222D01*
X356573Y178731D02*
Y181680D01*
X355098Y180205D01*
X357064D01*
X349200Y168773D02*
Y171722D01*
X350675D01*
X351166Y171231D01*
Y170248D01*
X350675Y169756D01*
X349200D01*
X354115Y171231D02*
X353624Y171722D01*
X352641D01*
X352149Y171231D01*
Y169265D01*
X352641Y168773D01*
X353624D01*
X354115Y169265D01*
X357064Y171722D02*
X355098D01*
Y170248D01*
X356081Y170739D01*
X356573D01*
X357064Y170248D01*
Y169265D01*
X356573Y168773D01*
X355590D01*
X355098Y169265D01*
X349200Y158815D02*
Y161765D01*
X350675D01*
X351166Y161273D01*
Y160290D01*
X350675Y159799D01*
X349200D01*
X352149Y161765D02*
Y158815D01*
X353624D01*
X354115Y159307D01*
Y159799D01*
X353624Y160290D01*
X352149D01*
X353624D01*
X354115Y160782D01*
Y161273D01*
X353624Y161765D01*
X352149D01*
X355098Y161273D02*
X355590Y161765D01*
X356573D01*
X357064Y161273D01*
Y159307D01*
X356573Y158815D01*
X355590D01*
X355098Y159307D01*
Y161273D01*
X349200Y148858D02*
Y151807D01*
X350675D01*
X351166Y151315D01*
Y150332D01*
X350675Y149841D01*
X349200D01*
X352149Y151807D02*
Y148858D01*
X353624D01*
X354115Y149349D01*
Y149841D01*
X353624Y150332D01*
X352149D01*
X353624D01*
X354115Y150824D01*
Y151315D01*
X353624Y151807D01*
X352149D01*
X355098Y148858D02*
X356081D01*
X355590D01*
Y151807D01*
X355098Y151315D01*
X349200Y138900D02*
Y141849D01*
X350675D01*
X351166Y141358D01*
Y140375D01*
X350675Y139883D01*
X349200D01*
X352149Y141849D02*
Y138900D01*
X353624D01*
X354115Y139392D01*
Y139883D01*
X353624Y140375D01*
X352149D01*
X353624D01*
X354115Y140866D01*
Y141358D01*
X353624Y141849D01*
X352149D01*
X357064Y138900D02*
X355098D01*
X357064Y140866D01*
Y141358D01*
X356573Y141849D01*
X355590D01*
X355098Y141358D01*
X350433Y331716D02*
X350050Y332099D01*
X349283D01*
X348900Y331716D01*
Y330183D01*
X349283Y329800D01*
X350050D01*
X350433Y330183D01*
Y330950D01*
X349666D01*
X414500Y228977D02*
Y231976D01*
X416000D01*
X416499Y231476D01*
Y230476D01*
X416000Y229977D01*
X414500D01*
X417499Y231976D02*
Y228977D01*
X418998D01*
X419498Y229477D01*
Y229977D01*
X418998Y230476D01*
X417499D01*
X418998D01*
X419498Y230976D01*
Y231476D01*
X418998Y231976D01*
X417499D01*
X420498Y228977D02*
X421498D01*
X420998D01*
Y231976D01*
X420498Y231476D01*
X422997Y228977D02*
X423997D01*
X423497D01*
Y231976D01*
X422997Y231476D01*
X414500Y218899D02*
Y221898D01*
X416000D01*
X416499Y221398D01*
Y220399D01*
X416000Y219899D01*
X414500D01*
X417499Y221898D02*
Y218899D01*
X418998D01*
X419498Y219399D01*
Y219899D01*
X418998Y220399D01*
X417499D01*
X418998D01*
X419498Y220899D01*
Y221398D01*
X418998Y221898D01*
X417499D01*
X420498Y218899D02*
X421498D01*
X420998D01*
Y221898D01*
X420498Y221398D01*
X422997D02*
X423497Y221898D01*
X424497D01*
X424997Y221398D01*
Y219399D01*
X424497Y218899D01*
X423497D01*
X422997Y219399D01*
Y221398D01*
X414500Y208821D02*
Y211821D01*
X416000D01*
X416499Y211321D01*
Y210321D01*
X416000Y209821D01*
X414500D01*
X419498Y211821D02*
X417499D01*
Y208821D01*
X419498D01*
X417499Y210321D02*
X418499D01*
X420498Y208821D02*
X421498D01*
X420998D01*
Y211821D01*
X420498Y211321D01*
X424997Y211821D02*
X422997D01*
Y210321D01*
X423997Y210821D01*
X424497D01*
X424997Y210321D01*
Y209321D01*
X424497Y208821D01*
X423497D01*
X422997Y209321D01*
X414500Y198744D02*
Y201743D01*
X416000D01*
X416499Y201243D01*
Y200243D01*
X416000Y199743D01*
X414500D01*
X419498Y201743D02*
X417499D01*
Y198744D01*
X419498D01*
X417499Y200243D02*
X418499D01*
X420498Y198744D02*
X421498D01*
X420998D01*
Y201743D01*
X420498Y201243D01*
X424497Y198744D02*
Y201743D01*
X422997Y200243D01*
X424997D01*
X414500Y188666D02*
Y191665D01*
X416000D01*
X416499Y191165D01*
Y190166D01*
X416000Y189666D01*
X414500D01*
X419498Y191665D02*
X417499D01*
Y188666D01*
X419498D01*
X417499Y190166D02*
X418499D01*
X420498Y188666D02*
X421498D01*
X420998D01*
Y191665D01*
X420498Y191165D01*
X422997D02*
X423497Y191665D01*
X424497D01*
X424997Y191165D01*
Y190665D01*
X424497Y190166D01*
X423997D01*
X424497D01*
X424997Y189666D01*
Y189166D01*
X424497Y188666D01*
X423497D01*
X422997Y189166D01*
X414500Y178588D02*
Y181587D01*
X416000D01*
X416499Y181088D01*
Y180088D01*
X416000Y179588D01*
X414500D01*
X419498Y181587D02*
X417499D01*
Y178588D01*
X419498D01*
X417499Y180088D02*
X418499D01*
X420498Y178588D02*
X421498D01*
X420998D01*
Y181587D01*
X420498Y181088D01*
X424997Y178588D02*
X422997D01*
X424997Y180588D01*
Y181088D01*
X424497Y181587D01*
X423497D01*
X422997Y181088D01*
X414500Y168511D02*
Y171510D01*
X416000D01*
X416499Y171010D01*
Y170010D01*
X416000Y169510D01*
X414500D01*
X419498Y171510D02*
X417499D01*
Y168511D01*
X419498D01*
X417499Y170010D02*
X418499D01*
X420498Y168511D02*
X421498D01*
X420998D01*
Y171510D01*
X420498Y171010D01*
X422997Y168511D02*
X423997D01*
X423497D01*
Y171510D01*
X422997Y171010D01*
X414500Y158433D02*
Y161432D01*
X416000D01*
X416499Y160932D01*
Y159933D01*
X416000Y159433D01*
X414500D01*
X419498Y161432D02*
X417499D01*
Y158433D01*
X419498D01*
X417499Y159933D02*
X418499D01*
X420498Y158433D02*
X421498D01*
X420998D01*
Y161432D01*
X420498Y160932D01*
X422997D02*
X423497Y161432D01*
X424497D01*
X424997Y160932D01*
Y158933D01*
X424497Y158433D01*
X423497D01*
X422997Y158933D01*
Y160932D01*
X414500Y148355D02*
Y151354D01*
X416000D01*
X416499Y150855D01*
Y149855D01*
X416000Y149355D01*
X414500D01*
X419498Y151354D02*
X417499D01*
Y148355D01*
X419498D01*
X417499Y149855D02*
X418499D01*
X420498Y148855D02*
X420998Y148355D01*
X421998D01*
X422497Y148855D01*
Y150855D01*
X421998Y151354D01*
X420998D01*
X420498Y150855D01*
Y150355D01*
X420998Y149855D01*
X422497D01*
X414500Y138278D02*
Y141277D01*
X416000D01*
X416499Y140777D01*
Y139777D01*
X416000Y139277D01*
X414500D01*
X419498Y141277D02*
X417499D01*
Y138278D01*
X419498D01*
X417499Y139777D02*
X418499D01*
X420498Y140777D02*
X420998Y141277D01*
X421998D01*
X422497Y140777D01*
Y140277D01*
X421998Y139777D01*
X422497Y139277D01*
Y138777D01*
X421998Y138278D01*
X420998D01*
X420498Y138777D01*
Y139277D01*
X420998Y139777D01*
X420498Y140277D01*
Y140777D01*
X420998Y139777D02*
X421998D01*
X414500Y128200D02*
Y131199D01*
X416000D01*
X416499Y130699D01*
Y129700D01*
X416000Y129200D01*
X414500D01*
X419498Y131199D02*
X417499D01*
Y128200D01*
X419498D01*
X417499Y129700D02*
X418499D01*
X420498Y131199D02*
X422497D01*
Y130699D01*
X420498Y128700D01*
Y128200D01*
X414700Y448444D02*
Y451443D01*
X416199D01*
X416699Y450943D01*
Y449943D01*
X416199Y449443D01*
X414700D01*
X417699Y448444D02*
Y450443D01*
X418699Y451443D01*
X419698Y450443D01*
Y448444D01*
Y449943D01*
X417699D01*
X420698Y448444D02*
X421698D01*
X421198D01*
Y451443D01*
X420698Y450943D01*
X423197D02*
X423697Y451443D01*
X424697D01*
X425197Y450943D01*
Y450443D01*
X424697Y449943D01*
X424197D01*
X424697D01*
X425197Y449443D01*
Y448944D01*
X424697Y448444D01*
X423697D01*
X423197Y448944D01*
X414700Y438366D02*
Y441365D01*
X416199D01*
X416699Y440865D01*
Y439866D01*
X416199Y439366D01*
X414700D01*
X417699Y438366D02*
Y440365D01*
X418699Y441365D01*
X419698Y440365D01*
Y438366D01*
Y439866D01*
X417699D01*
X420698Y438366D02*
X421698D01*
X421198D01*
Y441365D01*
X420698Y440865D01*
X425197Y438366D02*
X423197D01*
X425197Y440365D01*
Y440865D01*
X424697Y441365D01*
X423697D01*
X423197Y440865D01*
X414700Y428288D02*
Y431287D01*
X416199D01*
X416699Y430788D01*
Y429788D01*
X416199Y429288D01*
X414700D01*
X417699Y428288D02*
Y430288D01*
X418699Y431287D01*
X419698Y430288D01*
Y428288D01*
Y429788D01*
X417699D01*
X420698Y428288D02*
X421698D01*
X421198D01*
Y431287D01*
X420698Y430788D01*
X423197Y428288D02*
X424197D01*
X423697D01*
Y431287D01*
X423197Y430788D01*
X414700Y418211D02*
Y421210D01*
X416199D01*
X416699Y420710D01*
Y419710D01*
X416199Y419210D01*
X414700D01*
X417699Y418211D02*
Y420210D01*
X418699Y421210D01*
X419698Y420210D01*
Y418211D01*
Y419710D01*
X417699D01*
X420698Y418211D02*
X421698D01*
X421198D01*
Y421210D01*
X420698Y420710D01*
X423197D02*
X423697Y421210D01*
X424697D01*
X425197Y420710D01*
Y418711D01*
X424697Y418211D01*
X423697D01*
X423197Y418711D01*
Y420710D01*
X414700Y408133D02*
Y411132D01*
X416199D01*
X416699Y410632D01*
Y409633D01*
X416199Y409133D01*
X414700D01*
X417699Y408133D02*
Y410132D01*
X418699Y411132D01*
X419698Y410132D01*
Y408133D01*
Y409633D01*
X417699D01*
X420698Y408633D02*
X421198Y408133D01*
X422198D01*
X422697Y408633D01*
Y410632D01*
X422198Y411132D01*
X421198D01*
X420698Y410632D01*
Y410132D01*
X421198Y409633D01*
X422697D01*
X414700Y398055D02*
Y401054D01*
X416199D01*
X416699Y400555D01*
Y399555D01*
X416199Y399055D01*
X414700D01*
X417699Y398055D02*
Y400055D01*
X418699Y401054D01*
X419698Y400055D01*
Y398055D01*
Y399555D01*
X417699D01*
X420698Y400555D02*
X421198Y401054D01*
X422198D01*
X422697Y400555D01*
Y400055D01*
X422198Y399555D01*
X422697Y399055D01*
Y398555D01*
X422198Y398055D01*
X421198D01*
X420698Y398555D01*
Y399055D01*
X421198Y399555D01*
X420698Y400055D01*
Y400555D01*
X421198Y399555D02*
X422198D01*
X414700Y387978D02*
Y390977D01*
X416199D01*
X416699Y390477D01*
Y389477D01*
X416199Y388977D01*
X414700D01*
X419698Y390477D02*
X419199Y390977D01*
X418199D01*
X417699Y390477D01*
Y388477D01*
X418199Y387978D01*
X419199D01*
X419698Y388477D01*
X420698D02*
X421198Y387978D01*
X422198D01*
X422697Y388477D01*
Y390477D01*
X422198Y390977D01*
X421198D01*
X420698Y390477D01*
Y389977D01*
X421198Y389477D01*
X422697D01*
X414700Y377900D02*
Y380899D01*
X416199D01*
X416699Y380399D01*
Y379399D01*
X416199Y378900D01*
X414700D01*
X419698Y380399D02*
X419199Y380899D01*
X418199D01*
X417699Y380399D01*
Y378400D01*
X418199Y377900D01*
X419199D01*
X419698Y378400D01*
X420698Y380399D02*
X421198Y380899D01*
X422198D01*
X422697Y380399D01*
Y379899D01*
X422198Y379399D01*
X422697Y378900D01*
Y378400D01*
X422198Y377900D01*
X421198D01*
X420698Y378400D01*
Y378900D01*
X421198Y379399D01*
X420698Y379899D01*
Y380399D01*
X421198Y379399D02*
X422198D01*
X350387Y370013D02*
X349845Y370555D01*
X349303D01*
X348219Y369471D01*
Y368929D01*
X348761Y368387D01*
X349303D01*
X350387Y369471D01*
Y370013D01*
X351200Y369200D02*
X349845Y367845D01*
Y367303D01*
X350387Y366761D01*
X350929D01*
X352284Y368116D01*
X352826Y367574D02*
X353910Y366490D01*
X353368Y367032D01*
X351742Y365406D01*
X349100Y317800D02*
Y320099D01*
X350250D01*
X350633Y319716D01*
Y318950D01*
X350250Y318566D01*
X349100D01*
X352932Y319716D02*
X352549Y320099D01*
X351782D01*
X351399Y319716D01*
Y318183D01*
X351782Y317800D01*
X352549D01*
X352932Y318183D01*
X353698Y319716D02*
X354082Y320099D01*
X354848D01*
X355231Y319716D01*
Y318183D01*
X354848Y317800D01*
X354082D01*
X353698Y318183D01*
Y319716D01*
X348700Y383681D02*
Y385981D01*
X349850D01*
X350233Y385597D01*
Y384831D01*
X349850Y384448D01*
X348700D01*
X352532Y385597D02*
X352149Y385981D01*
X351382D01*
X350999Y385597D01*
Y384065D01*
X351382Y383681D01*
X352149D01*
X352532Y384065D01*
X353298Y383681D02*
X354065D01*
X353682D01*
Y385981D01*
X353298Y385597D01*
X356364Y383681D02*
Y385981D01*
X355215Y384831D01*
X356747D01*
X349850Y381782D02*
X349083D01*
X348700Y381398D01*
Y379866D01*
X349083Y379482D01*
X349850D01*
X350233Y379866D01*
Y381398D01*
X349850Y381782D01*
X352532Y381398D02*
X352149Y381782D01*
X351382D01*
X350999Y381398D01*
Y381015D01*
X351382Y380632D01*
X352149D01*
X352532Y380249D01*
Y379866D01*
X352149Y379482D01*
X351382D01*
X350999Y379866D01*
X354831Y381398D02*
X354448Y381782D01*
X353682D01*
X353298Y381398D01*
Y379866D01*
X353682Y379482D01*
X354448D01*
X354831Y379866D01*
X348700Y377199D02*
X349083Y377583D01*
X349850D01*
X350233Y377199D01*
Y376816D01*
X349850Y376433D01*
X349466D01*
X349850D01*
X350233Y376050D01*
Y375666D01*
X349850Y375283D01*
X349083D01*
X348700Y375666D01*
X352532Y375283D02*
X350999D01*
X352532Y376816D01*
Y377199D01*
X352149Y377583D01*
X351382D01*
X350999Y377199D01*
X353298Y374900D02*
X354831D01*
X355598Y377583D02*
X356364D01*
X355981D01*
Y375283D01*
X355598D01*
X356364D01*
X357514D02*
Y377583D01*
X359047Y375283D01*
Y377583D01*
X423366Y368895D02*
X422950Y369311D01*
X422117D01*
X421700Y368895D01*
Y367229D01*
X422117Y366812D01*
X422950D01*
X423366Y367229D01*
X424199Y369311D02*
X425865D01*
Y368895D01*
X424199Y367229D01*
Y366812D01*
X423366Y360017D02*
X422950Y360433D01*
X422117D01*
X421700Y360017D01*
Y358351D01*
X422117Y357934D01*
X422950D01*
X423366Y358351D01*
X425865Y360433D02*
X425032Y360017D01*
X424199Y359184D01*
Y358351D01*
X424616Y357934D01*
X425449D01*
X425865Y358351D01*
Y358767D01*
X425449Y359184D01*
X424199D01*
X421700Y351555D02*
Y349056D01*
X422950D01*
X423366Y349473D01*
Y351139D01*
X422950Y351555D01*
X421700D01*
X424199Y349056D02*
X425032D01*
X424616D01*
Y351555D01*
X424199Y351139D01*
X427948Y351555D02*
X426282D01*
Y350306D01*
X427115Y350722D01*
X427531D01*
X427948Y350306D01*
Y349473D01*
X427531Y349056D01*
X426698D01*
X426282Y349473D01*
X421700Y342677D02*
Y340178D01*
X422950D01*
X423366Y340595D01*
Y342261D01*
X422950Y342677D01*
X421700D01*
X424199Y340178D02*
X425032D01*
X424616D01*
Y342677D01*
X424199Y342261D01*
X427531Y340178D02*
Y342677D01*
X426282Y341428D01*
X427948D01*
X421700Y333799D02*
Y331300D01*
X422950D01*
X423366Y331716D01*
Y333383D01*
X422950Y333799D01*
X421700D01*
X424199Y331300D02*
X425032D01*
X424616D01*
Y333799D01*
X424199Y333383D01*
X426282D02*
X426698Y333799D01*
X427531D01*
X427948Y333383D01*
Y332966D01*
X427531Y332550D01*
X427115D01*
X427531D01*
X427948Y332133D01*
Y331716D01*
X427531Y331300D01*
X426698D01*
X426282Y331716D01*
X351199Y111199D02*
X350699Y111699D01*
X349700D01*
X349200Y111199D01*
Y109200D01*
X349700Y108700D01*
X350699D01*
X351199Y109200D01*
Y110199D01*
X350200D01*
X352199Y108700D02*
Y111699D01*
X354198Y108700D01*
Y111699D01*
X355198D02*
Y108700D01*
X356698D01*
X357197Y109200D01*
Y111199D01*
X356698Y111699D01*
X355198D01*
X349900Y558866D02*
Y561865D01*
X351399D01*
X351899Y561365D01*
Y560366D01*
X351399Y559866D01*
X349900D01*
X352899Y561865D02*
Y558866D01*
X354398D01*
X354898Y559366D01*
Y561365D01*
X354398Y561865D01*
X352899D01*
X357897D02*
X356898Y561365D01*
X355898Y560366D01*
Y559366D01*
X356398Y558866D01*
X357398D01*
X357897Y559366D01*
Y559866D01*
X357398Y560366D01*
X355898D01*
X349900Y548788D02*
Y551787D01*
X351399D01*
X351899Y551288D01*
Y550288D01*
X351399Y549788D01*
X349900D01*
X352899Y551787D02*
Y548788D01*
X354398D01*
X354898Y549288D01*
Y551288D01*
X354398Y551787D01*
X352899D01*
X355898D02*
X357897D01*
Y551288D01*
X355898Y549288D01*
Y548788D01*
X349900Y538711D02*
Y541710D01*
X351399D01*
X351899Y541210D01*
Y540210D01*
X351399Y539710D01*
X349900D01*
X352899Y541710D02*
Y538711D01*
X354398D01*
X354898Y539211D01*
Y539710D01*
X354398Y540210D01*
X352899D01*
X354398D01*
X354898Y540710D01*
Y541210D01*
X354398Y541710D01*
X352899D01*
X355898Y541210D02*
X356398Y541710D01*
X357398D01*
X357897Y541210D01*
Y540710D01*
X357398Y540210D01*
X356898D01*
X357398D01*
X357897Y539710D01*
Y539211D01*
X357398Y538711D01*
X356398D01*
X355898Y539211D01*
X349900Y528633D02*
Y531632D01*
X351399D01*
X351899Y531132D01*
Y530133D01*
X351399Y529633D01*
X349900D01*
X352899Y531632D02*
Y528633D01*
X354398D01*
X354898Y529133D01*
Y529633D01*
X354398Y530133D01*
X352899D01*
X354398D01*
X354898Y530632D01*
Y531132D01*
X354398Y531632D01*
X352899D01*
X357398Y528633D02*
Y531632D01*
X355898Y530133D01*
X357897D01*
X349900Y518555D02*
Y521554D01*
X351399D01*
X351899Y521055D01*
Y520055D01*
X351399Y519555D01*
X349900D01*
X352899Y521554D02*
Y518555D01*
X354398D01*
X354898Y519055D01*
Y519555D01*
X354398Y520055D01*
X352899D01*
X354398D01*
X354898Y520555D01*
Y521055D01*
X354398Y521554D01*
X352899D01*
X357897D02*
X355898D01*
Y520055D01*
X356898Y520555D01*
X357398D01*
X357897Y520055D01*
Y519055D01*
X357398Y518555D01*
X356398D01*
X355898Y519055D01*
X349900Y508478D02*
Y511477D01*
X351399D01*
X351899Y510977D01*
Y509977D01*
X351399Y509477D01*
X349900D01*
X352899Y511477D02*
Y508478D01*
X354398D01*
X354898Y508978D01*
Y509477D01*
X354398Y509977D01*
X352899D01*
X354398D01*
X354898Y510477D01*
Y510977D01*
X354398Y511477D01*
X352899D01*
X357897D02*
X356898Y510977D01*
X355898Y509977D01*
Y508978D01*
X356398Y508478D01*
X357398D01*
X357897Y508978D01*
Y509477D01*
X357398Y509977D01*
X355898D01*
X349900Y498400D02*
Y501399D01*
X351399D01*
X351899Y500899D01*
Y499899D01*
X351399Y499400D01*
X349900D01*
X352899Y501399D02*
Y498400D01*
X354398D01*
X354898Y498900D01*
Y499400D01*
X354398Y499899D01*
X352899D01*
X354398D01*
X354898Y500399D01*
Y500899D01*
X354398Y501399D01*
X352899D01*
X355898D02*
X357897D01*
Y500899D01*
X355898Y498900D01*
Y498400D01*
X350333Y341216D02*
X349950Y341599D01*
X349183D01*
X348800Y341216D01*
Y339683D01*
X349183Y339300D01*
X349950D01*
X350333Y339683D01*
Y340450D01*
X349566D01*
X416799Y580899D02*
X416299Y581399D01*
X415300D01*
X414800Y580899D01*
Y578900D01*
X415300Y578400D01*
X416299D01*
X416799Y578900D01*
Y579900D01*
X415800D01*
X417799Y578400D02*
Y581399D01*
X419798Y578400D01*
Y581399D01*
X420798D02*
Y578400D01*
X422298D01*
X422797Y578900D01*
Y580899D01*
X422298Y581399D01*
X420798D01*
X414800Y317421D02*
Y320421D01*
X416299D01*
X416799Y319921D01*
Y318921D01*
X416299Y318421D01*
X414800D01*
X417799Y320421D02*
Y317421D01*
X419299D01*
X419798Y317921D01*
Y319921D01*
X419299Y320421D01*
X417799D01*
X420798Y317421D02*
X421798D01*
X421298D01*
Y320421D01*
X420798Y319921D01*
X425297Y317421D02*
X423297D01*
X425297Y319421D01*
Y319921D01*
X424797Y320421D01*
X423797D01*
X423297Y319921D01*
X414800Y307344D02*
Y310343D01*
X416299D01*
X416799Y309843D01*
Y308843D01*
X416299Y308343D01*
X414800D01*
X417799Y310343D02*
Y307344D01*
X419299D01*
X419798Y307844D01*
Y309843D01*
X419299Y310343D01*
X417799D01*
X420798Y307344D02*
X421798D01*
X421298D01*
Y310343D01*
X420798Y309843D01*
X423297Y307344D02*
X424297D01*
X423797D01*
Y310343D01*
X423297Y309843D01*
X414800Y297266D02*
Y300265D01*
X416299D01*
X416799Y299765D01*
Y298766D01*
X416299Y298266D01*
X414800D01*
X417799Y300265D02*
Y297266D01*
X419299D01*
X419798Y297766D01*
Y299765D01*
X419299Y300265D01*
X417799D01*
X420798Y297266D02*
X421798D01*
X421298D01*
Y300265D01*
X420798Y299765D01*
X423297D02*
X423797Y300265D01*
X424797D01*
X425297Y299765D01*
Y297766D01*
X424797Y297266D01*
X423797D01*
X423297Y297766D01*
Y299765D01*
X414800Y287188D02*
Y290187D01*
X416299D01*
X416799Y289688D01*
Y288688D01*
X416299Y288188D01*
X414800D01*
X417799Y290187D02*
Y287188D01*
X419299D01*
X419798Y287688D01*
Y289688D01*
X419299Y290187D01*
X417799D01*
X420798Y287688D02*
X421298Y287188D01*
X422298D01*
X422797Y287688D01*
Y289688D01*
X422298Y290187D01*
X421298D01*
X420798Y289688D01*
Y289188D01*
X421298Y288688D01*
X422797D01*
X414800Y277111D02*
Y280110D01*
X416299D01*
X416799Y279610D01*
Y278610D01*
X416299Y278110D01*
X414800D01*
X417799Y280110D02*
Y277111D01*
X419299D01*
X419798Y277611D01*
Y279610D01*
X419299Y280110D01*
X417799D01*
X420798Y279610D02*
X421298Y280110D01*
X422298D01*
X422797Y279610D01*
Y279110D01*
X422298Y278610D01*
X422797Y278110D01*
Y277611D01*
X422298Y277111D01*
X421298D01*
X420798Y277611D01*
Y278110D01*
X421298Y278610D01*
X420798Y279110D01*
Y279610D01*
X421298Y278610D02*
X422298D01*
X414800Y267033D02*
Y270032D01*
X416299D01*
X416799Y269532D01*
Y268533D01*
X416299Y268033D01*
X414800D01*
X417799Y270032D02*
Y267033D01*
X419299D01*
X419798Y267533D01*
Y268033D01*
X419299Y268533D01*
X417799D01*
X419299D01*
X419798Y269032D01*
Y269532D01*
X419299Y270032D01*
X417799D01*
X420798Y267033D02*
X421798D01*
X421298D01*
Y270032D01*
X420798Y269532D01*
X425297Y270032D02*
X423297D01*
Y268533D01*
X424297Y269032D01*
X424797D01*
X425297Y268533D01*
Y267533D01*
X424797Y267033D01*
X423797D01*
X423297Y267533D01*
X414800Y256955D02*
Y259954D01*
X416299D01*
X416799Y259455D01*
Y258455D01*
X416299Y257955D01*
X414800D01*
X417799Y259954D02*
Y256955D01*
X419299D01*
X419798Y257455D01*
Y257955D01*
X419299Y258455D01*
X417799D01*
X419299D01*
X419798Y258955D01*
Y259455D01*
X419299Y259954D01*
X417799D01*
X420798Y256955D02*
X421798D01*
X421298D01*
Y259954D01*
X420798Y259455D01*
X424797Y256955D02*
Y259954D01*
X423297Y258455D01*
X425297D01*
X414800Y246878D02*
Y249877D01*
X416299D01*
X416799Y249377D01*
Y248377D01*
X416299Y247877D01*
X414800D01*
X417799Y249877D02*
Y246878D01*
X419299D01*
X419798Y247377D01*
Y247877D01*
X419299Y248377D01*
X417799D01*
X419299D01*
X419798Y248877D01*
Y249377D01*
X419299Y249877D01*
X417799D01*
X420798Y246878D02*
X421798D01*
X421298D01*
Y249877D01*
X420798Y249377D01*
X423297D02*
X423797Y249877D01*
X424797D01*
X425297Y249377D01*
Y248877D01*
X424797Y248377D01*
X424297D01*
X424797D01*
X425297Y247877D01*
Y247377D01*
X424797Y246878D01*
X423797D01*
X423297Y247377D01*
X414800Y236800D02*
Y239799D01*
X416299D01*
X416799Y239299D01*
Y238299D01*
X416299Y237800D01*
X414800D01*
X417799Y239799D02*
Y236800D01*
X419299D01*
X419798Y237300D01*
Y237800D01*
X419299Y238299D01*
X417799D01*
X419299D01*
X419798Y238799D01*
Y239299D01*
X419299Y239799D01*
X417799D01*
X420798Y236800D02*
X421798D01*
X421298D01*
Y239799D01*
X420798Y239299D01*
X425297Y236800D02*
X423297D01*
X425297Y238799D01*
Y239299D01*
X424797Y239799D01*
X423797D01*
X423297Y239299D01*
X349800Y489433D02*
Y492432D01*
X351300D01*
X351799Y491932D01*
Y490933D01*
X351300Y490433D01*
X349800D01*
X352799Y492432D02*
Y489433D01*
X354298D01*
X354798Y489933D01*
Y490433D01*
X354298Y490933D01*
X352799D01*
X354298D01*
X354798Y491432D01*
Y491932D01*
X354298Y492432D01*
X352799D01*
X355798Y491932D02*
X356298Y492432D01*
X357298D01*
X357797Y491932D01*
Y491432D01*
X357298Y490933D01*
X357797Y490433D01*
Y489933D01*
X357298Y489433D01*
X356298D01*
X355798Y489933D01*
Y490433D01*
X356298Y490933D01*
X355798Y491432D01*
Y491932D01*
X356298Y490933D02*
X357298D01*
X349800Y479355D02*
Y482354D01*
X351300D01*
X351799Y481855D01*
Y480855D01*
X351300Y480355D01*
X349800D01*
X352799Y482354D02*
Y479355D01*
X354298D01*
X354798Y479855D01*
Y480355D01*
X354298Y480855D01*
X352799D01*
X354298D01*
X354798Y481355D01*
Y481855D01*
X354298Y482354D01*
X352799D01*
X355798Y479855D02*
X356298Y479355D01*
X357298D01*
X357797Y479855D01*
Y481855D01*
X357298Y482354D01*
X356298D01*
X355798Y481855D01*
Y481355D01*
X356298Y480855D01*
X357797D01*
X349800Y469278D02*
Y472277D01*
X351300D01*
X351799Y471777D01*
Y470777D01*
X351300Y470277D01*
X349800D01*
X354798Y472277D02*
X352799D01*
Y469278D01*
X354798D01*
X352799Y470777D02*
X353799D01*
X355798Y471777D02*
X356298Y472277D01*
X357298D01*
X357797Y471777D01*
Y469777D01*
X357298Y469278D01*
X356298D01*
X355798Y469777D01*
Y471777D01*
X349800Y459200D02*
Y462199D01*
X351300D01*
X351799Y461699D01*
Y460700D01*
X351300Y460200D01*
X349800D01*
X354798Y462199D02*
X352799D01*
Y459200D01*
X354798D01*
X352799Y460700D02*
X353799D01*
X355798Y459200D02*
X356798D01*
X356298D01*
Y462199D01*
X355798Y461699D01*
X414700Y559177D02*
Y562176D01*
X416199D01*
X416699Y561676D01*
Y560676D01*
X416199Y560177D01*
X414700D01*
X417699Y562176D02*
Y559177D01*
X419199D01*
X419698Y559677D01*
Y561676D01*
X419199Y562176D01*
X417699D01*
X422697D02*
X420698D01*
Y560676D01*
X421698Y561176D01*
X422198D01*
X422697Y560676D01*
Y559677D01*
X422198Y559177D01*
X421198D01*
X420698Y559677D01*
X414700Y549099D02*
Y552098D01*
X416199D01*
X416699Y551598D01*
Y550599D01*
X416199Y550099D01*
X414700D01*
X417699Y552098D02*
Y549099D01*
X419199D01*
X419698Y549599D01*
Y551598D01*
X419199Y552098D01*
X417699D01*
X422198Y549099D02*
Y552098D01*
X420698Y550599D01*
X422697D01*
X414700Y539021D02*
Y542021D01*
X416199D01*
X416699Y541521D01*
Y540521D01*
X416199Y540021D01*
X414700D01*
X417699Y542021D02*
Y539021D01*
X419199D01*
X419698Y539521D01*
Y541521D01*
X419199Y542021D01*
X417699D01*
X420698Y541521D02*
X421198Y542021D01*
X422198D01*
X422697Y541521D01*
Y541021D01*
X422198Y540521D01*
X421698D01*
X422198D01*
X422697Y540021D01*
Y539521D01*
X422198Y539021D01*
X421198D01*
X420698Y539521D01*
X414700Y528944D02*
Y531943D01*
X416199D01*
X416699Y531443D01*
Y530443D01*
X416199Y529943D01*
X414700D01*
X417699Y531943D02*
Y528944D01*
X419199D01*
X419698Y529444D01*
Y531443D01*
X419199Y531943D01*
X417699D01*
X422697Y528944D02*
X420698D01*
X422697Y530943D01*
Y531443D01*
X422198Y531943D01*
X421198D01*
X420698Y531443D01*
X414700Y518866D02*
Y521865D01*
X416199D01*
X416699Y521365D01*
Y520366D01*
X416199Y519866D01*
X414700D01*
X417699Y521865D02*
Y518866D01*
X419199D01*
X419698Y519366D01*
Y521365D01*
X419199Y521865D01*
X417699D01*
X420698Y518866D02*
X421698D01*
X421198D01*
Y521865D01*
X420698Y521365D01*
X414700Y508788D02*
Y511787D01*
X416199D01*
X416699Y511288D01*
Y510288D01*
X416199Y509788D01*
X414700D01*
X417699Y511787D02*
Y508788D01*
X419199D01*
X419698Y509288D01*
Y511288D01*
X419199Y511787D01*
X417699D01*
X420698Y511288D02*
X421198Y511787D01*
X422198D01*
X422697Y511288D01*
Y509288D01*
X422198Y508788D01*
X421198D01*
X420698Y509288D01*
Y511288D01*
X414700Y498711D02*
Y501710D01*
X416199D01*
X416699Y501210D01*
Y500210D01*
X416199Y499710D01*
X414700D01*
X419698Y501210D02*
X419199Y501710D01*
X418199D01*
X417699Y501210D01*
Y499211D01*
X418199Y498711D01*
X419199D01*
X419698Y499211D01*
X420698Y498711D02*
X421698D01*
X421198D01*
Y501710D01*
X420698Y501210D01*
X425197Y498711D02*
X423197D01*
X425197Y500710D01*
Y501210D01*
X424697Y501710D01*
X423697D01*
X423197Y501210D01*
X414700Y488633D02*
Y491632D01*
X416199D01*
X416699Y491132D01*
Y490133D01*
X416199Y489633D01*
X414700D01*
X419698Y491132D02*
X419199Y491632D01*
X418199D01*
X417699Y491132D01*
Y489133D01*
X418199Y488633D01*
X419199D01*
X419698Y489133D01*
X420698Y488633D02*
X421698D01*
X421198D01*
Y491632D01*
X420698Y491132D01*
X423197Y488633D02*
X424197D01*
X423697D01*
Y491632D01*
X423197Y491132D01*
X414700Y478555D02*
Y481554D01*
X416199D01*
X416699Y481055D01*
Y480055D01*
X416199Y479555D01*
X414700D01*
X419698Y481055D02*
X419199Y481554D01*
X418199D01*
X417699Y481055D01*
Y479055D01*
X418199Y478555D01*
X419199D01*
X419698Y479055D01*
X420698Y478555D02*
X421698D01*
X421198D01*
Y481554D01*
X420698Y481055D01*
X423197D02*
X423697Y481554D01*
X424697D01*
X425197Y481055D01*
Y479055D01*
X424697Y478555D01*
X423697D01*
X423197Y479055D01*
Y481055D01*
X414700Y468478D02*
Y471477D01*
X416199D01*
X416699Y470977D01*
Y469977D01*
X416199Y469477D01*
X414700D01*
X417699Y468478D02*
Y470477D01*
X418699Y471477D01*
X419698Y470477D01*
Y468478D01*
Y469977D01*
X417699D01*
X420698Y468478D02*
X421698D01*
X421198D01*
Y471477D01*
X420698Y470977D01*
X425197Y471477D02*
X423197D01*
Y469977D01*
X424197Y470477D01*
X424697D01*
X425197Y469977D01*
Y468977D01*
X424697Y468478D01*
X423697D01*
X423197Y468977D01*
X414700Y458400D02*
Y461399D01*
X416199D01*
X416699Y460899D01*
Y459900D01*
X416199Y459400D01*
X414700D01*
X417699Y458400D02*
Y460399D01*
X418699Y461399D01*
X419698Y460399D01*
Y458400D01*
Y459900D01*
X417699D01*
X420698Y458400D02*
X421698D01*
X421198D01*
Y461399D01*
X420698Y460899D01*
X424697Y458400D02*
Y461399D01*
X423197Y459900D01*
X425197D01*
X416599Y111199D02*
X416100Y111699D01*
X415100D01*
X414600Y111199D01*
Y109200D01*
X415100Y108700D01*
X416100D01*
X416599Y109200D01*
Y110199D01*
X415600D01*
X417599Y108700D02*
Y111699D01*
X419598Y108700D01*
Y111699D01*
X420598D02*
Y108700D01*
X422098D01*
X422597Y109200D01*
Y111199D01*
X422098Y111699D01*
X420598D01*
D12*
X417763Y374569D02*
X417763Y373781D01*
X417763Y374569D02*
X425637D01*
Y373781D02*
Y374569D01*
Y370632D02*
Y371419D01*
X417763Y370632D02*
X425637D01*
X417763D02*
X417763Y371419D01*
X351581Y345631D02*
X352369D01*
Y353505D01*
X351581D02*
X352369D01*
X348432D02*
X349219D01*
X348432Y345631D02*
Y353505D01*
Y345631D02*
X349219D01*
X359331Y381032D02*
Y381819D01*
Y381032D02*
X367205D01*
Y381819D01*
Y384181D02*
Y384969D01*
X359331D02*
X367205D01*
X359331Y384181D02*
Y384969D01*
X414669Y308681D02*
X414669Y309469D01*
X406795D02*
X414669D01*
X406795Y308681D02*
Y309469D01*
Y305532D02*
Y306319D01*
Y305532D02*
X414669D01*
X414669Y306319D02*
X414669Y305532D01*
X367705Y308681D02*
Y309469D01*
X359831D02*
X367705D01*
X359831Y308681D02*
Y309469D01*
Y305532D02*
Y306319D01*
Y305532D02*
X367705D01*
Y306319D01*
D13*
X361319Y319319D02*
Y371681D01*
Y319319D02*
X413681D01*
Y371681D01*
X361319D02*
X413681D01*
D14*
X438200Y594798D02*
Y588800D01*
Y591799D01*
X442199D01*
Y594798D01*
Y588800D01*
X447197D02*
Y594798D01*
X444198Y591799D01*
X448197D01*
X328200Y594798D02*
Y588800D01*
Y591799D01*
X332199D01*
Y594798D01*
Y588800D01*
X334198Y593798D02*
X335198Y594798D01*
X337197D01*
X338197Y593798D01*
Y592799D01*
X337197Y591799D01*
X336197D01*
X337197D01*
X338197Y590799D01*
Y589800D01*
X337197Y588800D01*
X335198D01*
X334198Y589800D01*
M02*
