G04*
G04 #@! TF.GenerationSoftware,Altium Limited,Altium Designer,21.8.1 (53)*
G04*
G04 Layer_Color=8421504*
%FSLAX25Y25*%
%MOIN*%
G70*
G04*
G04 #@! TF.SameCoordinates,602FFC17-E96E-42ED-876F-BF2310913D4F*
G04*
G04*
G04 #@! TF.FilePolarity,Positive*
G04*
G01*
G75*
%ADD15R,0.02362X0.02520*%
%ADD16R,0.02520X0.02362*%
%ADD17R,0.01181X0.05807*%
%ADD18R,0.05807X0.01181*%
D15*
X419968Y372600D02*
D03*
X423432D02*
D03*
X365000Y383000D02*
D03*
X361535D02*
D03*
X409000Y307500D02*
D03*
X412465D02*
D03*
X362035D02*
D03*
X365500D02*
D03*
D16*
X350400Y351300D02*
D03*
Y347835D02*
D03*
D17*
X363878Y375965D02*
D03*
X365846D02*
D03*
X367815D02*
D03*
X369783D02*
D03*
X371752D02*
D03*
X373720D02*
D03*
X375689D02*
D03*
X377657D02*
D03*
X379626D02*
D03*
X381594D02*
D03*
X383563D02*
D03*
X385531D02*
D03*
X387500D02*
D03*
X389468D02*
D03*
X391437D02*
D03*
X393405D02*
D03*
X395374D02*
D03*
X397342D02*
D03*
X399311D02*
D03*
X401279D02*
D03*
X403248D02*
D03*
X405216D02*
D03*
X407185D02*
D03*
X409153D02*
D03*
X411122D02*
D03*
Y315035D02*
D03*
X409153D02*
D03*
X407185D02*
D03*
X405216D02*
D03*
X403248D02*
D03*
X401279D02*
D03*
X399311D02*
D03*
X397342D02*
D03*
X395374D02*
D03*
X393405D02*
D03*
X391437D02*
D03*
X389468D02*
D03*
X387500D02*
D03*
X385531D02*
D03*
X383563D02*
D03*
X381594D02*
D03*
X379626D02*
D03*
X377657D02*
D03*
X375689D02*
D03*
X373720D02*
D03*
X371752D02*
D03*
X369783D02*
D03*
X367815D02*
D03*
X365846D02*
D03*
X363878D02*
D03*
D18*
X417965Y369122D02*
D03*
Y367154D02*
D03*
Y365185D02*
D03*
Y363217D02*
D03*
Y361248D02*
D03*
Y359280D02*
D03*
Y357311D02*
D03*
Y355343D02*
D03*
Y353374D02*
D03*
Y351406D02*
D03*
Y349437D02*
D03*
Y347469D02*
D03*
Y345500D02*
D03*
Y343532D02*
D03*
Y341563D02*
D03*
Y339595D02*
D03*
Y337626D02*
D03*
Y335658D02*
D03*
Y333689D02*
D03*
Y331721D02*
D03*
Y329752D02*
D03*
Y327784D02*
D03*
Y325815D02*
D03*
Y323847D02*
D03*
Y321878D02*
D03*
X357035D02*
D03*
Y323847D02*
D03*
Y325815D02*
D03*
Y327784D02*
D03*
Y329752D02*
D03*
Y331721D02*
D03*
Y333689D02*
D03*
Y335658D02*
D03*
Y337626D02*
D03*
Y339595D02*
D03*
Y341563D02*
D03*
Y343532D02*
D03*
Y345500D02*
D03*
Y347469D02*
D03*
Y349437D02*
D03*
Y351406D02*
D03*
Y353374D02*
D03*
Y355343D02*
D03*
Y357311D02*
D03*
Y359280D02*
D03*
Y361248D02*
D03*
Y363217D02*
D03*
Y365185D02*
D03*
Y367154D02*
D03*
Y369122D02*
D03*
M02*
