G04*
G04 #@! TF.GenerationSoftware,Altium Limited,Altium Designer,21.8.1 (53)*
G04*
G04 Layer_Color=8388736*
%FSLAX25Y25*%
%MOIN*%
G70*
G04*
G04 #@! TF.SameCoordinates,602FFC17-E96E-42ED-876F-BF2310913D4F*
G04*
G04*
G04 #@! TF.FilePolarity,Negative*
G04*
G01*
G75*
%ADD19R,0.03162X0.03320*%
%ADD20R,0.03320X0.03162*%
%ADD21R,0.01981X0.06607*%
%ADD22R,0.06607X0.01981*%
%ADD23O,0.08674X0.07887*%
%ADD24R,0.08674X0.07887*%
%ADD25C,0.04737*%
D19*
X419968Y372600D02*
D03*
X423432D02*
D03*
X365000Y383000D02*
D03*
X361535D02*
D03*
X409000Y307500D02*
D03*
X412465D02*
D03*
X362035D02*
D03*
X365500D02*
D03*
D20*
X350400Y351300D02*
D03*
Y347835D02*
D03*
D21*
X363878Y375965D02*
D03*
X365846D02*
D03*
X367815D02*
D03*
X369783D02*
D03*
X371752D02*
D03*
X373720D02*
D03*
X375689D02*
D03*
X377657D02*
D03*
X379626D02*
D03*
X381594D02*
D03*
X383563D02*
D03*
X385531D02*
D03*
X387500D02*
D03*
X389468D02*
D03*
X391437D02*
D03*
X393405D02*
D03*
X395374D02*
D03*
X397342D02*
D03*
X399311D02*
D03*
X401279D02*
D03*
X403248D02*
D03*
X405216D02*
D03*
X407185D02*
D03*
X409153D02*
D03*
X411122D02*
D03*
Y315035D02*
D03*
X409153D02*
D03*
X407185D02*
D03*
X405216D02*
D03*
X403248D02*
D03*
X401279D02*
D03*
X399311D02*
D03*
X397342D02*
D03*
X395374D02*
D03*
X393405D02*
D03*
X391437D02*
D03*
X389468D02*
D03*
X387500D02*
D03*
X385531D02*
D03*
X383563D02*
D03*
X381594D02*
D03*
X379626D02*
D03*
X377657D02*
D03*
X375689D02*
D03*
X373720D02*
D03*
X371752D02*
D03*
X369783D02*
D03*
X367815D02*
D03*
X365846D02*
D03*
X363878D02*
D03*
D22*
X417965Y369122D02*
D03*
Y367154D02*
D03*
Y365185D02*
D03*
Y363217D02*
D03*
Y361248D02*
D03*
Y359280D02*
D03*
Y357311D02*
D03*
Y355343D02*
D03*
Y353374D02*
D03*
Y351406D02*
D03*
Y349437D02*
D03*
Y347469D02*
D03*
Y345500D02*
D03*
Y343532D02*
D03*
Y341563D02*
D03*
Y339595D02*
D03*
Y337626D02*
D03*
Y335658D02*
D03*
Y333689D02*
D03*
Y331721D02*
D03*
Y329752D02*
D03*
Y327784D02*
D03*
Y325815D02*
D03*
Y323847D02*
D03*
Y321878D02*
D03*
X357035D02*
D03*
Y323847D02*
D03*
Y325815D02*
D03*
Y327784D02*
D03*
Y329752D02*
D03*
Y331721D02*
D03*
Y333689D02*
D03*
Y335658D02*
D03*
Y337626D02*
D03*
Y339595D02*
D03*
Y341563D02*
D03*
Y343532D02*
D03*
Y345500D02*
D03*
Y347469D02*
D03*
Y349437D02*
D03*
Y351406D02*
D03*
Y353374D02*
D03*
Y355343D02*
D03*
Y357311D02*
D03*
Y359280D02*
D03*
Y361248D02*
D03*
Y363217D02*
D03*
Y365185D02*
D03*
Y367154D02*
D03*
Y369122D02*
D03*
D23*
X442500Y110500D02*
D03*
Y120500D02*
D03*
Y130500D02*
D03*
Y140500D02*
D03*
Y150500D02*
D03*
Y160500D02*
D03*
Y180500D02*
D03*
Y170500D02*
D03*
Y200500D02*
D03*
Y190500D02*
D03*
Y220500D02*
D03*
Y210500D02*
D03*
Y240500D02*
D03*
Y230500D02*
D03*
Y260500D02*
D03*
Y250500D02*
D03*
Y280500D02*
D03*
Y270500D02*
D03*
Y300500D02*
D03*
Y290500D02*
D03*
Y320500D02*
D03*
Y310500D02*
D03*
Y340500D02*
D03*
Y330500D02*
D03*
Y360500D02*
D03*
Y350500D02*
D03*
Y380500D02*
D03*
Y370500D02*
D03*
Y400500D02*
D03*
Y390500D02*
D03*
Y420500D02*
D03*
Y410500D02*
D03*
Y440500D02*
D03*
Y430500D02*
D03*
Y460500D02*
D03*
Y450500D02*
D03*
Y480500D02*
D03*
Y470500D02*
D03*
Y500500D02*
D03*
Y490500D02*
D03*
Y520500D02*
D03*
Y510500D02*
D03*
Y540500D02*
D03*
Y530500D02*
D03*
Y560500D02*
D03*
Y550500D02*
D03*
Y570500D02*
D03*
X432500Y240500D02*
D03*
Y260500D02*
D03*
Y250500D02*
D03*
Y280500D02*
D03*
Y270500D02*
D03*
Y300500D02*
D03*
Y290500D02*
D03*
Y320500D02*
D03*
Y310500D02*
D03*
Y340500D02*
D03*
Y330500D02*
D03*
Y350500D02*
D03*
X332500Y570500D02*
D03*
Y550500D02*
D03*
Y560500D02*
D03*
Y530500D02*
D03*
Y540500D02*
D03*
Y510500D02*
D03*
Y520500D02*
D03*
Y490500D02*
D03*
Y500500D02*
D03*
Y470500D02*
D03*
Y480500D02*
D03*
Y450500D02*
D03*
Y460500D02*
D03*
Y430500D02*
D03*
Y440500D02*
D03*
Y410500D02*
D03*
Y420500D02*
D03*
Y390500D02*
D03*
Y400500D02*
D03*
Y370500D02*
D03*
Y380500D02*
D03*
Y350500D02*
D03*
Y360500D02*
D03*
Y330500D02*
D03*
Y340500D02*
D03*
Y310500D02*
D03*
Y320500D02*
D03*
Y290500D02*
D03*
Y300500D02*
D03*
Y270500D02*
D03*
Y280500D02*
D03*
Y250500D02*
D03*
Y260500D02*
D03*
Y230500D02*
D03*
Y240500D02*
D03*
Y210500D02*
D03*
Y220500D02*
D03*
Y190500D02*
D03*
Y200500D02*
D03*
Y170500D02*
D03*
Y180500D02*
D03*
Y160500D02*
D03*
Y150500D02*
D03*
Y140500D02*
D03*
Y130500D02*
D03*
Y120500D02*
D03*
Y110500D02*
D03*
X342500D02*
D03*
Y120500D02*
D03*
Y130500D02*
D03*
Y140500D02*
D03*
Y150500D02*
D03*
Y160500D02*
D03*
Y180500D02*
D03*
Y170500D02*
D03*
Y200500D02*
D03*
Y190500D02*
D03*
Y220500D02*
D03*
Y210500D02*
D03*
Y240500D02*
D03*
Y230500D02*
D03*
Y260500D02*
D03*
Y250500D02*
D03*
Y280500D02*
D03*
Y270500D02*
D03*
Y300500D02*
D03*
Y290500D02*
D03*
Y320500D02*
D03*
Y310500D02*
D03*
Y340500D02*
D03*
Y330500D02*
D03*
Y360500D02*
D03*
Y350500D02*
D03*
Y380500D02*
D03*
Y370500D02*
D03*
Y400500D02*
D03*
Y390500D02*
D03*
Y420500D02*
D03*
Y410500D02*
D03*
Y440500D02*
D03*
Y430500D02*
D03*
Y460500D02*
D03*
Y450500D02*
D03*
Y480500D02*
D03*
Y470500D02*
D03*
Y500500D02*
D03*
Y490500D02*
D03*
Y520500D02*
D03*
Y510500D02*
D03*
Y540500D02*
D03*
Y530500D02*
D03*
Y560500D02*
D03*
Y550500D02*
D03*
Y570500D02*
D03*
X432500Y110500D02*
D03*
Y120500D02*
D03*
Y130500D02*
D03*
Y140500D02*
D03*
Y150500D02*
D03*
Y160500D02*
D03*
Y180500D02*
D03*
Y170500D02*
D03*
Y200500D02*
D03*
Y190500D02*
D03*
Y220500D02*
D03*
Y210500D02*
D03*
Y230500D02*
D03*
Y360500D02*
D03*
Y380500D02*
D03*
Y370500D02*
D03*
Y400500D02*
D03*
Y390500D02*
D03*
Y420500D02*
D03*
Y410500D02*
D03*
Y440500D02*
D03*
Y430500D02*
D03*
Y460500D02*
D03*
Y450500D02*
D03*
Y480500D02*
D03*
Y470500D02*
D03*
Y500500D02*
D03*
Y490500D02*
D03*
Y520500D02*
D03*
Y510500D02*
D03*
Y540500D02*
D03*
Y530500D02*
D03*
Y560500D02*
D03*
Y550500D02*
D03*
Y570500D02*
D03*
D24*
X442500Y580500D02*
D03*
X332500D02*
D03*
X342500D02*
D03*
X432500D02*
D03*
D25*
X375595Y383406D02*
D03*
M02*
