G04*
G04 #@! TF.GenerationSoftware,Altium Limited,Altium Designer,21.8.1 (53)*
G04*
G04 Layer_Physical_Order=3*
G04 Layer_Color=16711680*
%FSLAX25Y25*%
%MOIN*%
G70*
G04*
G04 #@! TF.SameCoordinates,602FFC17-E96E-42ED-876F-BF2310913D4F*
G04*
G04*
G04 #@! TF.FilePolarity,Positive*
G04*
G01*
G75*
%ADD16R,0.02520X0.02362*%
%ADD26C,0.00800*%
%ADD28O,0.07874X0.07087*%
%ADD29R,0.07874X0.07087*%
%ADD30C,0.03937*%
%ADD31C,0.02362*%
%ADD32R,0.03740X0.03347*%
%ADD33R,0.02362X0.02953*%
%ADD34R,0.05118X0.05512*%
%ADD35R,0.04724X0.05512*%
%ADD36R,0.05512X0.05118*%
%ADD37C,0.01500*%
G36*
X449990Y106019D02*
X445256D01*
X445156Y106519D01*
X445185Y106531D01*
X446134Y107260D01*
X446862Y108209D01*
X447320Y109314D01*
X447410Y110000D01*
X442500D01*
Y110500D01*
X442000D01*
Y115068D01*
X440920Y114926D01*
X439815Y114469D01*
X438866Y113740D01*
X438138Y112791D01*
X437771Y111905D01*
X437229D01*
X436862Y112791D01*
X436134Y113740D01*
X435185Y114469D01*
X434080Y114926D01*
X433000Y115068D01*
Y110500D01*
X432500D01*
Y110000D01*
X427590D01*
X427680Y109314D01*
X428138Y108209D01*
X428866Y107260D01*
X429815Y106531D01*
X429844Y106519D01*
X429744Y106019D01*
X345256D01*
X345156Y106519D01*
X345185Y106531D01*
X346134Y107260D01*
X346862Y108209D01*
X347320Y109314D01*
X347410Y110000D01*
X342500D01*
Y110500D01*
X342000D01*
Y115068D01*
X340920Y114926D01*
X339815Y114469D01*
X338866Y113740D01*
X338138Y112791D01*
X337771Y111905D01*
X337229D01*
X336862Y112791D01*
X336134Y113740D01*
X335185Y114469D01*
X334080Y114926D01*
X333000Y115068D01*
Y110500D01*
X332500D01*
Y110000D01*
X327590D01*
X327680Y109314D01*
X328138Y108209D01*
X328866Y107260D01*
X329815Y106531D01*
X329844Y106519D01*
X329744Y106019D01*
X326045D01*
X326045Y584975D01*
X327563D01*
Y581000D01*
X332500D01*
Y580500D01*
X333000D01*
Y575957D01*
X337437D01*
Y575957D01*
X337563D01*
Y575957D01*
X342000D01*
Y580500D01*
X342500D01*
Y581000D01*
X347437D01*
Y584975D01*
X427563D01*
Y581000D01*
X432500D01*
Y580500D01*
X433000D01*
Y575957D01*
X437437D01*
Y575957D01*
X437563D01*
Y575957D01*
X442000D01*
Y580500D01*
X442500D01*
Y581000D01*
X447437D01*
Y584975D01*
X449990D01*
X449990Y106019D01*
D02*
G37*
%LPC*%
G36*
X447437Y580000D02*
X443000D01*
Y575957D01*
X447437D01*
Y580000D01*
D02*
G37*
G36*
X432000D02*
X427563D01*
Y575957D01*
X432000D01*
Y580000D01*
D02*
G37*
G36*
X347437D02*
X343000D01*
Y575957D01*
X347437D01*
Y580000D01*
D02*
G37*
G36*
X332000D02*
X327563D01*
Y575957D01*
X332000D01*
Y580000D01*
D02*
G37*
G36*
X442894Y575082D02*
X442106D01*
X440920Y574926D01*
X439815Y574469D01*
X438866Y573740D01*
X438138Y572791D01*
X437780Y571927D01*
X437220D01*
X436862Y572791D01*
X436134Y573740D01*
X435185Y574469D01*
X434080Y574926D01*
X432894Y575082D01*
X432106D01*
X430920Y574926D01*
X429815Y574469D01*
X428866Y573740D01*
X428138Y572791D01*
X427680Y571686D01*
X427524Y570500D01*
X427680Y569314D01*
X428138Y568209D01*
X428866Y567260D01*
X429815Y566531D01*
X430920Y566074D01*
X432106Y565917D01*
X432894D01*
X434080Y566074D01*
X435185Y566531D01*
X436134Y567260D01*
X436862Y568209D01*
X437220Y569073D01*
X437780D01*
X438138Y568209D01*
X438866Y567260D01*
X439815Y566532D01*
X440920Y566074D01*
X442106Y565917D01*
X442894D01*
X444080Y566074D01*
X445185Y566532D01*
X446134Y567260D01*
X446862Y568209D01*
X447320Y569314D01*
X447476Y570500D01*
X447320Y571686D01*
X446862Y572791D01*
X446134Y573740D01*
X445185Y574469D01*
X444080Y574926D01*
X442894Y575082D01*
D02*
G37*
G36*
X342894Y575082D02*
X342106D01*
X340920Y574926D01*
X339815Y574469D01*
X338866Y573740D01*
X338138Y572791D01*
X337780Y571927D01*
X337220D01*
X336862Y572791D01*
X336134Y573740D01*
X335185Y574469D01*
X334080Y574926D01*
X332894Y575082D01*
X332106D01*
X330920Y574926D01*
X329815Y574469D01*
X328866Y573740D01*
X328138Y572791D01*
X327680Y571686D01*
X327524Y570500D01*
X327680Y569314D01*
X328138Y568209D01*
X328866Y567260D01*
X329815Y566531D01*
X330920Y566074D01*
X332106Y565917D01*
X332894D01*
X334080Y566074D01*
X335185Y566531D01*
X336134Y567260D01*
X336862Y568209D01*
X337220Y569073D01*
X337780D01*
X338138Y568209D01*
X338866Y567260D01*
X339815Y566531D01*
X340920Y566074D01*
X342106Y565917D01*
X342894D01*
X344080Y566074D01*
X345185Y566531D01*
X346134Y567260D01*
X346862Y568209D01*
X347320Y569314D01*
X347476Y570500D01*
X347320Y571686D01*
X346862Y572791D01*
X346134Y573740D01*
X345185Y574469D01*
X344080Y574926D01*
X342894Y575082D01*
D02*
G37*
G36*
X442894Y565083D02*
X442106D01*
X440920Y564926D01*
X439815Y564469D01*
X438866Y563740D01*
X438138Y562791D01*
X437780Y561927D01*
X437220D01*
X436862Y562791D01*
X436134Y563740D01*
X435185Y564469D01*
X434080Y564926D01*
X432894Y565083D01*
X432106D01*
X430920Y564926D01*
X429815Y564469D01*
X428866Y563740D01*
X428138Y562791D01*
X427680Y561686D01*
X427524Y560500D01*
X427680Y559314D01*
X428138Y558209D01*
X428866Y557260D01*
X429815Y556531D01*
X430920Y556074D01*
X432106Y555918D01*
X432894D01*
X434080Y556074D01*
X435185Y556531D01*
X436134Y557260D01*
X436862Y558209D01*
X437220Y559073D01*
X437780D01*
X438138Y558209D01*
X438866Y557260D01*
X439815Y556531D01*
X440920Y556074D01*
X442106Y555918D01*
X442894D01*
X444080Y556074D01*
X445185Y556531D01*
X446134Y557260D01*
X446862Y558209D01*
X447320Y559314D01*
X447476Y560500D01*
X447320Y561686D01*
X446862Y562791D01*
X446134Y563740D01*
X445185Y564469D01*
X444080Y564926D01*
X442894Y565083D01*
D02*
G37*
G36*
X342894Y565083D02*
X342106D01*
X340920Y564926D01*
X339815Y564469D01*
X338866Y563740D01*
X338138Y562791D01*
X337780Y561927D01*
X337220D01*
X336862Y562791D01*
X336134Y563740D01*
X335185Y564469D01*
X334080Y564926D01*
X332894Y565083D01*
X332106D01*
X330920Y564926D01*
X329815Y564469D01*
X328866Y563740D01*
X328138Y562791D01*
X327680Y561686D01*
X327524Y560500D01*
X327680Y559314D01*
X328138Y558209D01*
X328866Y557260D01*
X329815Y556531D01*
X330920Y556074D01*
X332106Y555918D01*
X332894D01*
X334080Y556074D01*
X335185Y556531D01*
X336134Y557260D01*
X336862Y558209D01*
X337220Y559073D01*
X337780D01*
X338138Y558209D01*
X338866Y557260D01*
X339815Y556531D01*
X340920Y556074D01*
X342106Y555918D01*
X342894D01*
X344080Y556074D01*
X345185Y556531D01*
X346134Y557260D01*
X346862Y558209D01*
X347320Y559314D01*
X347476Y560500D01*
X347320Y561686D01*
X346862Y562791D01*
X346134Y563740D01*
X345185Y564469D01*
X344080Y564926D01*
X342894Y565083D01*
D02*
G37*
G36*
X442894Y555083D02*
X442106D01*
X440920Y554926D01*
X439815Y554469D01*
X438866Y553740D01*
X438138Y552791D01*
X437780Y551927D01*
X437220D01*
X436862Y552791D01*
X436134Y553740D01*
X435185Y554469D01*
X434080Y554926D01*
X432894Y555083D01*
X432106D01*
X430920Y554926D01*
X429815Y554469D01*
X428866Y553740D01*
X428138Y552791D01*
X427680Y551686D01*
X427524Y550500D01*
X427680Y549314D01*
X428138Y548209D01*
X428866Y547260D01*
X429815Y546531D01*
X430920Y546074D01*
X432106Y545918D01*
X432894D01*
X434080Y546074D01*
X435185Y546531D01*
X436134Y547260D01*
X436862Y548209D01*
X437220Y549073D01*
X437780D01*
X438138Y548209D01*
X438866Y547260D01*
X439815Y546531D01*
X440920Y546074D01*
X442106Y545918D01*
X442894D01*
X444080Y546074D01*
X445185Y546531D01*
X446134Y547260D01*
X446862Y548209D01*
X447320Y549314D01*
X447476Y550500D01*
X447320Y551686D01*
X446862Y552791D01*
X446134Y553740D01*
X445185Y554469D01*
X444080Y554926D01*
X442894Y555083D01*
D02*
G37*
G36*
X342894Y555083D02*
X342106D01*
X340920Y554926D01*
X339815Y554469D01*
X338866Y553740D01*
X338138Y552791D01*
X337780Y551927D01*
X337220D01*
X336862Y552791D01*
X336134Y553740D01*
X335185Y554469D01*
X334080Y554926D01*
X332894Y555083D01*
X332106D01*
X330920Y554926D01*
X329815Y554469D01*
X328866Y553740D01*
X328138Y552791D01*
X327680Y551686D01*
X327524Y550500D01*
X327680Y549314D01*
X328138Y548209D01*
X328866Y547260D01*
X329815Y546531D01*
X330920Y546074D01*
X332106Y545918D01*
X332894D01*
X334080Y546074D01*
X335185Y546531D01*
X336134Y547260D01*
X336862Y548209D01*
X337220Y549073D01*
X337780D01*
X338138Y548209D01*
X338866Y547260D01*
X339815Y546531D01*
X340920Y546074D01*
X342106Y545918D01*
X342894D01*
X344080Y546074D01*
X345185Y546531D01*
X346134Y547260D01*
X346862Y548209D01*
X347320Y549314D01*
X347476Y550500D01*
X347320Y551686D01*
X346862Y552791D01*
X346134Y553740D01*
X345185Y554469D01*
X344080Y554926D01*
X342894Y555083D01*
D02*
G37*
G36*
X442894Y545083D02*
X442106D01*
X440920Y544926D01*
X439815Y544469D01*
X438866Y543740D01*
X438138Y542791D01*
X437780Y541927D01*
X437220D01*
X436862Y542791D01*
X436134Y543740D01*
X435185Y544469D01*
X434080Y544926D01*
X432894Y545083D01*
X432106D01*
X430920Y544926D01*
X429815Y544469D01*
X428866Y543740D01*
X428138Y542791D01*
X427680Y541686D01*
X427524Y540500D01*
X427680Y539314D01*
X428138Y538209D01*
X428866Y537260D01*
X429815Y536531D01*
X430920Y536074D01*
X432106Y535918D01*
X432894D01*
X434080Y536074D01*
X435185Y536531D01*
X436134Y537260D01*
X436862Y538209D01*
X437220Y539073D01*
X437780D01*
X438138Y538209D01*
X438866Y537260D01*
X439815Y536531D01*
X440920Y536074D01*
X442106Y535918D01*
X442894D01*
X444080Y536074D01*
X445185Y536531D01*
X446134Y537260D01*
X446862Y538209D01*
X447320Y539314D01*
X447476Y540500D01*
X447320Y541686D01*
X446862Y542791D01*
X446134Y543740D01*
X445185Y544469D01*
X444080Y544926D01*
X442894Y545083D01*
D02*
G37*
G36*
X332894D02*
X332106D01*
X330920Y544926D01*
X329815Y544469D01*
X328866Y543740D01*
X328138Y542791D01*
X327680Y541686D01*
X327524Y540500D01*
X327680Y539314D01*
X328138Y538209D01*
X328866Y537260D01*
X329815Y536531D01*
X330920Y536074D01*
X332106Y535918D01*
X332894D01*
X334080Y536074D01*
X335185Y536531D01*
X336134Y537260D01*
X336862Y538209D01*
X337220Y539073D01*
X337780D01*
X338138Y538209D01*
X338866Y537260D01*
X339815Y536531D01*
X340920Y536074D01*
X342106Y535918D01*
X342894D01*
X344080Y536074D01*
X345185Y536531D01*
X346134Y537260D01*
X346862Y538209D01*
X347320Y539314D01*
X347476Y540500D01*
X347320Y541686D01*
X346862Y542791D01*
X346134Y543740D01*
X345185Y544469D01*
X344080Y544926D01*
X342894Y545083D01*
X342106D01*
X340920Y544926D01*
X339815Y544469D01*
X338866Y543740D01*
X338138Y542791D01*
X337780Y541927D01*
X337220D01*
X336862Y542791D01*
X336134Y543740D01*
X335185Y544469D01*
X334080Y544926D01*
X332894Y545083D01*
D02*
G37*
G36*
X442894Y535082D02*
X442106D01*
X440920Y534926D01*
X439815Y534469D01*
X438866Y533740D01*
X438138Y532791D01*
X437780Y531927D01*
X437220D01*
X436862Y532791D01*
X436134Y533740D01*
X435185Y534469D01*
X434080Y534926D01*
X432894Y535082D01*
X432106D01*
X430920Y534926D01*
X429815Y534469D01*
X428866Y533740D01*
X428138Y532791D01*
X427680Y531686D01*
X427524Y530500D01*
X427680Y529314D01*
X428138Y528209D01*
X428866Y527260D01*
X429815Y526531D01*
X430920Y526074D01*
X432106Y525917D01*
X432894D01*
X434080Y526074D01*
X435185Y526531D01*
X436134Y527260D01*
X436862Y528209D01*
X437220Y529073D01*
X437780D01*
X438138Y528209D01*
X438866Y527260D01*
X439815Y526531D01*
X440920Y526074D01*
X442106Y525917D01*
X442894D01*
X444080Y526074D01*
X445185Y526531D01*
X446134Y527260D01*
X446862Y528209D01*
X447320Y529314D01*
X447476Y530500D01*
X447320Y531686D01*
X446862Y532791D01*
X446134Y533740D01*
X445185Y534469D01*
X444080Y534926D01*
X442894Y535082D01*
D02*
G37*
G36*
X342894D02*
X342106D01*
X340920Y534926D01*
X339815Y534469D01*
X338866Y533740D01*
X338138Y532791D01*
X337780Y531927D01*
X337220D01*
X336862Y532791D01*
X336134Y533740D01*
X335185Y534469D01*
X334080Y534926D01*
X332894Y535082D01*
X332106D01*
X330920Y534926D01*
X329815Y534469D01*
X328866Y533740D01*
X328138Y532791D01*
X327680Y531686D01*
X327524Y530500D01*
X327680Y529314D01*
X328138Y528209D01*
X328866Y527260D01*
X329815Y526531D01*
X330920Y526074D01*
X332106Y525917D01*
X332894D01*
X334080Y526074D01*
X335185Y526531D01*
X336134Y527260D01*
X336862Y528209D01*
X337220Y529073D01*
X337780D01*
X338138Y528209D01*
X338866Y527260D01*
X339815Y526531D01*
X340920Y526074D01*
X342106Y525917D01*
X342894D01*
X344080Y526074D01*
X345185Y526531D01*
X346134Y527260D01*
X346862Y528209D01*
X347320Y529314D01*
X347476Y530500D01*
X347320Y531686D01*
X346862Y532791D01*
X346134Y533740D01*
X345185Y534469D01*
X344080Y534926D01*
X342894Y535082D01*
D02*
G37*
G36*
X442894Y525082D02*
X442106D01*
X440920Y524926D01*
X439815Y524469D01*
X438866Y523740D01*
X438138Y522791D01*
X437780Y521927D01*
X437220D01*
X436862Y522791D01*
X436134Y523740D01*
X435185Y524469D01*
X434080Y524926D01*
X432894Y525082D01*
X432106D01*
X430920Y524926D01*
X429815Y524469D01*
X428866Y523740D01*
X428138Y522791D01*
X427680Y521686D01*
X427524Y520500D01*
X427680Y519314D01*
X428138Y518209D01*
X428866Y517260D01*
X429815Y516531D01*
X430920Y516074D01*
X432106Y515917D01*
X432894D01*
X434080Y516074D01*
X435185Y516531D01*
X436134Y517260D01*
X436862Y518209D01*
X437220Y519073D01*
X437780D01*
X438138Y518209D01*
X438866Y517260D01*
X439815Y516532D01*
X440920Y516074D01*
X442106Y515917D01*
X442894D01*
X444080Y516074D01*
X445185Y516532D01*
X446134Y517260D01*
X446862Y518209D01*
X447320Y519314D01*
X447476Y520500D01*
X447320Y521686D01*
X446862Y522791D01*
X446134Y523740D01*
X445185Y524469D01*
X444080Y524926D01*
X442894Y525082D01*
D02*
G37*
G36*
X342894Y525082D02*
X342106D01*
X340920Y524926D01*
X339815Y524469D01*
X338866Y523740D01*
X338138Y522791D01*
X337780Y521927D01*
X337220D01*
X336862Y522791D01*
X336134Y523740D01*
X335185Y524469D01*
X334080Y524926D01*
X332894Y525082D01*
X332106D01*
X330920Y524926D01*
X329815Y524469D01*
X328866Y523740D01*
X328138Y522791D01*
X327680Y521686D01*
X327524Y520500D01*
X327680Y519314D01*
X328138Y518209D01*
X328866Y517260D01*
X329815Y516531D01*
X330920Y516074D01*
X332106Y515917D01*
X332894D01*
X334080Y516074D01*
X335185Y516531D01*
X336134Y517260D01*
X336862Y518209D01*
X337220Y519073D01*
X337780D01*
X338138Y518209D01*
X338866Y517260D01*
X339815Y516531D01*
X340920Y516074D01*
X342106Y515917D01*
X342894D01*
X344080Y516074D01*
X345185Y516531D01*
X346134Y517260D01*
X346862Y518209D01*
X347320Y519314D01*
X347476Y520500D01*
X347320Y521686D01*
X346862Y522791D01*
X346134Y523740D01*
X345185Y524469D01*
X344080Y524926D01*
X342894Y525082D01*
D02*
G37*
G36*
X442894Y515083D02*
X442106D01*
X440920Y514926D01*
X439815Y514469D01*
X438866Y513740D01*
X438138Y512791D01*
X437780Y511927D01*
X437220D01*
X436862Y512791D01*
X436134Y513740D01*
X435185Y514469D01*
X434080Y514926D01*
X432894Y515083D01*
X432106D01*
X430920Y514926D01*
X429815Y514469D01*
X428866Y513740D01*
X428138Y512791D01*
X427680Y511686D01*
X427524Y510500D01*
X427680Y509314D01*
X428138Y508209D01*
X428866Y507260D01*
X429815Y506531D01*
X430920Y506074D01*
X432106Y505918D01*
X432894D01*
X434080Y506074D01*
X435185Y506531D01*
X436134Y507260D01*
X436862Y508209D01*
X437220Y509073D01*
X437780D01*
X438138Y508209D01*
X438866Y507260D01*
X439815Y506531D01*
X440920Y506074D01*
X442106Y505918D01*
X442894D01*
X444080Y506074D01*
X445185Y506531D01*
X446134Y507260D01*
X446862Y508209D01*
X447320Y509314D01*
X447476Y510500D01*
X447320Y511686D01*
X446862Y512791D01*
X446134Y513740D01*
X445185Y514469D01*
X444080Y514926D01*
X442894Y515083D01*
D02*
G37*
G36*
X342894Y515083D02*
X342106D01*
X340920Y514926D01*
X339815Y514469D01*
X338866Y513740D01*
X338138Y512791D01*
X337780Y511927D01*
X337220D01*
X336862Y512791D01*
X336134Y513740D01*
X335185Y514469D01*
X334080Y514926D01*
X332894Y515083D01*
X332106D01*
X330920Y514926D01*
X329815Y514469D01*
X328866Y513740D01*
X328138Y512791D01*
X327680Y511686D01*
X327524Y510500D01*
X327680Y509314D01*
X328138Y508209D01*
X328866Y507260D01*
X329815Y506531D01*
X330920Y506074D01*
X332106Y505918D01*
X332894D01*
X334080Y506074D01*
X335185Y506531D01*
X336134Y507260D01*
X336862Y508209D01*
X337220Y509073D01*
X337780D01*
X338138Y508209D01*
X338866Y507260D01*
X339815Y506531D01*
X340920Y506074D01*
X342106Y505918D01*
X342894D01*
X344080Y506074D01*
X345185Y506531D01*
X346134Y507260D01*
X346862Y508209D01*
X347320Y509314D01*
X347476Y510500D01*
X347320Y511686D01*
X346862Y512791D01*
X346134Y513740D01*
X345185Y514469D01*
X344080Y514926D01*
X342894Y515083D01*
D02*
G37*
G36*
X442894Y505083D02*
X442106D01*
X440920Y504926D01*
X439815Y504469D01*
X438866Y503740D01*
X438138Y502791D01*
X437780Y501927D01*
X437220D01*
X436862Y502791D01*
X436134Y503740D01*
X435185Y504469D01*
X434080Y504926D01*
X432894Y505083D01*
X432106D01*
X430920Y504926D01*
X429815Y504469D01*
X428866Y503740D01*
X428138Y502791D01*
X427680Y501686D01*
X427524Y500500D01*
X427680Y499314D01*
X428138Y498209D01*
X428866Y497260D01*
X429815Y496531D01*
X430920Y496074D01*
X432106Y495918D01*
X432894D01*
X434080Y496074D01*
X435185Y496531D01*
X436134Y497260D01*
X436862Y498209D01*
X437220Y499073D01*
X437780D01*
X438138Y498209D01*
X438866Y497260D01*
X439815Y496531D01*
X440920Y496074D01*
X442106Y495918D01*
X442894D01*
X444080Y496074D01*
X445185Y496531D01*
X446134Y497260D01*
X446862Y498209D01*
X447320Y499314D01*
X447476Y500500D01*
X447320Y501686D01*
X446862Y502791D01*
X446134Y503740D01*
X445185Y504469D01*
X444080Y504926D01*
X442894Y505083D01*
D02*
G37*
G36*
X342894Y505083D02*
X342106D01*
X340920Y504926D01*
X339815Y504469D01*
X338866Y503740D01*
X338138Y502791D01*
X337780Y501927D01*
X337220D01*
X336862Y502791D01*
X336134Y503740D01*
X335185Y504468D01*
X334080Y504926D01*
X332894Y505083D01*
X332106D01*
X330920Y504926D01*
X329815Y504468D01*
X328866Y503740D01*
X328138Y502791D01*
X327680Y501686D01*
X327524Y500500D01*
X327680Y499314D01*
X328138Y498209D01*
X328866Y497260D01*
X329815Y496531D01*
X330920Y496074D01*
X332106Y495918D01*
X332894D01*
X334080Y496074D01*
X335185Y496531D01*
X336134Y497260D01*
X336862Y498209D01*
X337220Y499073D01*
X337780D01*
X338138Y498209D01*
X338866Y497260D01*
X339815Y496531D01*
X340920Y496074D01*
X342106Y495918D01*
X342894D01*
X344080Y496074D01*
X345185Y496531D01*
X346134Y497260D01*
X346862Y498209D01*
X347320Y499314D01*
X347476Y500500D01*
X347320Y501686D01*
X346862Y502791D01*
X346134Y503740D01*
X345185Y504469D01*
X344080Y504926D01*
X342894Y505083D01*
D02*
G37*
G36*
X442894Y495083D02*
X442106D01*
X440920Y494926D01*
X439815Y494469D01*
X438866Y493740D01*
X438138Y492791D01*
X437780Y491927D01*
X437220D01*
X436862Y492791D01*
X436134Y493740D01*
X435185Y494469D01*
X434080Y494926D01*
X432894Y495083D01*
X432106D01*
X430920Y494926D01*
X429815Y494469D01*
X428866Y493740D01*
X428138Y492791D01*
X427680Y491686D01*
X427524Y490500D01*
X427680Y489314D01*
X428138Y488209D01*
X428866Y487260D01*
X429815Y486531D01*
X430920Y486074D01*
X432106Y485918D01*
X432894D01*
X434080Y486074D01*
X435185Y486531D01*
X436134Y487260D01*
X436862Y488209D01*
X437220Y489073D01*
X437780D01*
X438138Y488209D01*
X438866Y487260D01*
X439815Y486531D01*
X440920Y486074D01*
X442106Y485918D01*
X442894D01*
X444080Y486074D01*
X445185Y486531D01*
X446134Y487260D01*
X446862Y488209D01*
X447320Y489314D01*
X447476Y490500D01*
X447320Y491686D01*
X446862Y492791D01*
X446134Y493740D01*
X445185Y494469D01*
X444080Y494926D01*
X442894Y495083D01*
D02*
G37*
G36*
X332894D02*
X332106D01*
X330920Y494926D01*
X329815Y494469D01*
X328866Y493740D01*
X328138Y492791D01*
X327680Y491686D01*
X327524Y490500D01*
X327680Y489314D01*
X328138Y488209D01*
X328866Y487260D01*
X329815Y486531D01*
X330920Y486074D01*
X332106Y485918D01*
X332894D01*
X334080Y486074D01*
X335185Y486531D01*
X336134Y487260D01*
X336862Y488209D01*
X337220Y489073D01*
X337780D01*
X338138Y488209D01*
X338866Y487260D01*
X339815Y486531D01*
X340920Y486074D01*
X342106Y485918D01*
X342894D01*
X344080Y486074D01*
X345185Y486531D01*
X346134Y487260D01*
X346862Y488209D01*
X347320Y489314D01*
X347476Y490500D01*
X347320Y491686D01*
X346862Y492791D01*
X346134Y493740D01*
X345185Y494469D01*
X344080Y494926D01*
X342894Y495083D01*
X342106D01*
X340920Y494926D01*
X339815Y494469D01*
X338866Y493740D01*
X338138Y492791D01*
X337780Y491927D01*
X337220D01*
X336862Y492791D01*
X336134Y493740D01*
X335185Y494469D01*
X334080Y494926D01*
X332894Y495083D01*
D02*
G37*
G36*
X342894Y485082D02*
X342106D01*
X340920Y484926D01*
X339815Y484469D01*
X338866Y483740D01*
X338138Y482791D01*
X337780Y481927D01*
X337220D01*
X336862Y482791D01*
X336134Y483740D01*
X335185Y484469D01*
X334080Y484926D01*
X332894Y485082D01*
X332106D01*
X330920Y484926D01*
X329815Y484469D01*
X328866Y483740D01*
X328138Y482791D01*
X327680Y481686D01*
X327524Y480500D01*
X327680Y479314D01*
X328138Y478209D01*
X328866Y477260D01*
X329815Y476531D01*
X330920Y476074D01*
X332106Y475917D01*
X332894D01*
X334080Y476074D01*
X335185Y476531D01*
X336134Y477260D01*
X336862Y478209D01*
X337220Y479073D01*
X337780D01*
X338138Y478209D01*
X338866Y477260D01*
X339815Y476531D01*
X340920Y476074D01*
X342106Y475917D01*
X342894D01*
X344080Y476074D01*
X345185Y476531D01*
X346134Y477260D01*
X346862Y478209D01*
X347320Y479314D01*
X347476Y480500D01*
X347320Y481686D01*
X346862Y482791D01*
X346134Y483740D01*
X345185Y484469D01*
X344080Y484926D01*
X342894Y485082D01*
D02*
G37*
G36*
X442894Y485082D02*
X442106D01*
X440920Y484926D01*
X439815Y484469D01*
X438866Y483740D01*
X438138Y482791D01*
X437780Y481927D01*
X437220D01*
X436862Y482791D01*
X436134Y483740D01*
X435185Y484469D01*
X434080Y484926D01*
X432894Y485082D01*
X432106D01*
X430920Y484926D01*
X429815Y484469D01*
X428866Y483740D01*
X428138Y482791D01*
X427680Y481686D01*
X427524Y480500D01*
X427680Y479314D01*
X428138Y478209D01*
X428866Y477260D01*
X429815Y476531D01*
X430920Y476074D01*
X432106Y475917D01*
X432894D01*
X434080Y476074D01*
X435185Y476531D01*
X436134Y477260D01*
X436862Y478209D01*
X437220Y479073D01*
X437780D01*
X438138Y478209D01*
X438866Y477260D01*
X439815Y476532D01*
X440920Y476074D01*
X442106Y475917D01*
X442894D01*
X444080Y476074D01*
X445185Y476532D01*
X446134Y477260D01*
X446862Y478209D01*
X447320Y479314D01*
X447476Y480500D01*
X447320Y481686D01*
X446862Y482791D01*
X446134Y483740D01*
X445185Y484469D01*
X444080Y484926D01*
X442894Y485082D01*
D02*
G37*
G36*
Y475082D02*
X442106D01*
X440920Y474926D01*
X439815Y474469D01*
X438866Y473740D01*
X438138Y472791D01*
X437780Y471927D01*
X437220D01*
X436862Y472791D01*
X436134Y473740D01*
X435185Y474469D01*
X434080Y474926D01*
X432894Y475082D01*
X432106D01*
X430920Y474926D01*
X429815Y474469D01*
X428866Y473740D01*
X428138Y472791D01*
X427680Y471686D01*
X427524Y470500D01*
X427680Y469314D01*
X428138Y468209D01*
X428866Y467260D01*
X429815Y466531D01*
X430920Y466074D01*
X432106Y465917D01*
X432894D01*
X434080Y466074D01*
X435185Y466531D01*
X436134Y467260D01*
X436862Y468209D01*
X437220Y469073D01*
X437780D01*
X438138Y468209D01*
X438866Y467260D01*
X439815Y466532D01*
X440920Y466074D01*
X442106Y465917D01*
X442894D01*
X444080Y466074D01*
X445185Y466532D01*
X446134Y467260D01*
X446862Y468209D01*
X447320Y469314D01*
X447476Y470500D01*
X447320Y471686D01*
X446862Y472791D01*
X446134Y473740D01*
X445185Y474469D01*
X444080Y474926D01*
X442894Y475082D01*
D02*
G37*
G36*
X342894Y475082D02*
X342106D01*
X340920Y474926D01*
X339815Y474469D01*
X338866Y473740D01*
X338138Y472791D01*
X337780Y471927D01*
X337220D01*
X336862Y472791D01*
X336134Y473740D01*
X335185Y474469D01*
X334080Y474926D01*
X332894Y475082D01*
X332106D01*
X330920Y474926D01*
X329815Y474469D01*
X328866Y473740D01*
X328138Y472791D01*
X327680Y471686D01*
X327524Y470500D01*
X327680Y469314D01*
X328138Y468209D01*
X328866Y467260D01*
X329815Y466531D01*
X330920Y466074D01*
X332106Y465917D01*
X332894D01*
X334080Y466074D01*
X335185Y466531D01*
X336134Y467260D01*
X336862Y468209D01*
X337220Y469073D01*
X337780D01*
X338138Y468209D01*
X338866Y467260D01*
X339815Y466531D01*
X340920Y466074D01*
X342106Y465917D01*
X342894D01*
X344080Y466074D01*
X345185Y466531D01*
X346134Y467260D01*
X346862Y468209D01*
X347320Y469314D01*
X347476Y470500D01*
X347320Y471686D01*
X346862Y472791D01*
X346134Y473740D01*
X345185Y474469D01*
X344080Y474926D01*
X342894Y475082D01*
D02*
G37*
G36*
X442894Y465083D02*
X442106D01*
X440920Y464926D01*
X439815Y464469D01*
X438866Y463740D01*
X438138Y462791D01*
X437780Y461927D01*
X437220D01*
X436862Y462791D01*
X436134Y463740D01*
X435185Y464469D01*
X434080Y464926D01*
X432894Y465083D01*
X432106D01*
X430920Y464926D01*
X429815Y464469D01*
X428866Y463740D01*
X428138Y462791D01*
X427680Y461686D01*
X427524Y460500D01*
X427680Y459314D01*
X428138Y458209D01*
X428866Y457260D01*
X429815Y456531D01*
X430920Y456074D01*
X432106Y455918D01*
X432894D01*
X434080Y456074D01*
X435185Y456531D01*
X436134Y457260D01*
X436862Y458209D01*
X437220Y459073D01*
X437780D01*
X438138Y458209D01*
X438866Y457260D01*
X439815Y456531D01*
X440920Y456074D01*
X442106Y455918D01*
X442894D01*
X444080Y456074D01*
X445185Y456531D01*
X446134Y457260D01*
X446862Y458209D01*
X447320Y459314D01*
X447476Y460500D01*
X447320Y461686D01*
X446862Y462791D01*
X446134Y463740D01*
X445185Y464469D01*
X444080Y464926D01*
X442894Y465083D01*
D02*
G37*
G36*
X342894Y465083D02*
X342106D01*
X340920Y464926D01*
X339815Y464469D01*
X338866Y463740D01*
X338138Y462791D01*
X337780Y461927D01*
X337220D01*
X336862Y462791D01*
X336134Y463740D01*
X335185Y464469D01*
X334080Y464926D01*
X332894Y465083D01*
X332106D01*
X330920Y464926D01*
X329815Y464469D01*
X328866Y463740D01*
X328138Y462791D01*
X327680Y461686D01*
X327524Y460500D01*
X327680Y459314D01*
X328138Y458209D01*
X328866Y457260D01*
X329815Y456531D01*
X330920Y456074D01*
X332106Y455918D01*
X332894D01*
X334080Y456074D01*
X335185Y456531D01*
X336134Y457260D01*
X336862Y458209D01*
X337220Y459073D01*
X337780D01*
X338138Y458209D01*
X338866Y457260D01*
X339815Y456531D01*
X340920Y456074D01*
X342106Y455918D01*
X342894D01*
X344080Y456074D01*
X345185Y456531D01*
X346134Y457260D01*
X346862Y458209D01*
X347320Y459314D01*
X347476Y460500D01*
X347320Y461686D01*
X346862Y462791D01*
X346134Y463740D01*
X345185Y464469D01*
X344080Y464926D01*
X342894Y465083D01*
D02*
G37*
G36*
X442894Y455083D02*
X442106D01*
X440920Y454926D01*
X439815Y454469D01*
X438866Y453740D01*
X438138Y452791D01*
X437780Y451927D01*
X437220D01*
X436862Y452791D01*
X436134Y453740D01*
X435185Y454469D01*
X434080Y454926D01*
X432894Y455083D01*
X432106D01*
X430920Y454926D01*
X429815Y454469D01*
X428866Y453740D01*
X428138Y452791D01*
X427680Y451686D01*
X427524Y450500D01*
X427680Y449314D01*
X428138Y448209D01*
X428824Y447314D01*
X426730Y443319D01*
X426692Y443190D01*
X426496Y442824D01*
X426318Y442236D01*
X426251Y442102D01*
X406408Y369588D01*
X405925Y369460D01*
X405735Y369649D01*
X404934Y369981D01*
X404066D01*
X403265Y369649D01*
X402651Y369036D01*
X402319Y368234D01*
Y367366D01*
X402651Y366564D01*
X403265Y365951D01*
X404066Y365619D01*
X404934D01*
X405274Y365760D01*
X405749Y365415D01*
X405611Y363696D01*
X405051Y363136D01*
X404719Y362334D01*
Y361466D01*
X405051Y360665D01*
X405664Y360051D01*
X406466Y359719D01*
X407334D01*
X407971Y359983D01*
X408364Y359627D01*
X408119Y359034D01*
Y358166D01*
X408451Y357365D01*
X408897Y356919D01*
X408451Y356473D01*
X408119Y355672D01*
Y354804D01*
X408451Y354002D01*
X408897Y353557D01*
X408451Y353111D01*
X408119Y352309D01*
Y351442D01*
X408451Y350640D01*
X408897Y350195D01*
X408451Y349749D01*
X408119Y348947D01*
Y348080D01*
X408451Y347278D01*
X408922Y346807D01*
X408451Y346336D01*
X408119Y345534D01*
Y344666D01*
X408451Y343864D01*
X409064Y343251D01*
X409866Y342919D01*
X410734D01*
X411536Y343251D01*
X412149Y343864D01*
X412481Y344666D01*
Y345166D01*
X424826Y356513D01*
X424860Y356558D01*
X425095Y356752D01*
X426158Y358046D01*
X426947Y359523D01*
X427087Y359986D01*
X427597Y359944D01*
X427680Y359314D01*
X428138Y358209D01*
X428866Y357260D01*
X429815Y356531D01*
X430920Y356074D01*
X432106Y355918D01*
X432894D01*
X434080Y356074D01*
X435185Y356531D01*
X436134Y357260D01*
X436862Y358209D01*
X437220Y359073D01*
X437780D01*
X438138Y358209D01*
X438866Y357260D01*
X439815Y356531D01*
X440920Y356074D01*
X442106Y355918D01*
X442894D01*
X444080Y356074D01*
X445185Y356531D01*
X446134Y357260D01*
X446862Y358209D01*
X447320Y359314D01*
X447476Y360500D01*
X447320Y361686D01*
X446862Y362791D01*
X446134Y363740D01*
X445185Y364469D01*
X444080Y364926D01*
X442894Y365083D01*
X442106D01*
X440920Y364926D01*
X439815Y364469D01*
X438866Y363740D01*
X438138Y362791D01*
X437780Y361927D01*
X437220D01*
X436862Y362791D01*
X436134Y363740D01*
X435185Y364469D01*
X434080Y364926D01*
X432894Y365083D01*
X432106D01*
X430920Y364926D01*
X429815Y364469D01*
X428866Y363740D01*
X428138Y362791D01*
X428100Y362701D01*
X427607Y362817D01*
X427954Y367627D01*
X428466Y367780D01*
X428866Y367260D01*
X429815Y366531D01*
X430920Y366074D01*
X432106Y365917D01*
X432894D01*
X434080Y366074D01*
X435185Y366531D01*
X436134Y367260D01*
X436862Y368209D01*
X437220Y369073D01*
X437780D01*
X438138Y368209D01*
X438866Y367260D01*
X439815Y366531D01*
X440920Y366074D01*
X442106Y365917D01*
X442894D01*
X444080Y366074D01*
X445185Y366531D01*
X446134Y367260D01*
X446862Y368209D01*
X447320Y369314D01*
X447476Y370500D01*
X447320Y371686D01*
X446862Y372791D01*
X446134Y373740D01*
X445185Y374469D01*
X444080Y374926D01*
X442894Y375082D01*
X442106D01*
X440920Y374926D01*
X439815Y374469D01*
X438866Y373740D01*
X438138Y372791D01*
X437780Y371927D01*
X437220D01*
X436862Y372791D01*
X436134Y373740D01*
X435185Y374469D01*
X434080Y374926D01*
X432894Y375082D01*
X432106D01*
X430920Y374926D01*
X429815Y374469D01*
X428898Y373765D01*
X428695Y373805D01*
X428407Y373915D01*
X428617Y376821D01*
X429135Y377053D01*
X429815Y376531D01*
X430920Y376074D01*
X432106Y375918D01*
X432894D01*
X434080Y376074D01*
X435185Y376531D01*
X436134Y377260D01*
X436862Y378209D01*
X437220Y379073D01*
X437780D01*
X438138Y378209D01*
X438866Y377260D01*
X439815Y376531D01*
X440920Y376074D01*
X442106Y375918D01*
X442894D01*
X444080Y376074D01*
X445185Y376531D01*
X446134Y377260D01*
X446862Y378209D01*
X447320Y379314D01*
X447476Y380500D01*
X447320Y381686D01*
X446862Y382791D01*
X446134Y383740D01*
X445185Y384469D01*
X444080Y384926D01*
X442894Y385083D01*
X442106D01*
X440920Y384926D01*
X439815Y384469D01*
X438866Y383740D01*
X438138Y382791D01*
X437780Y381927D01*
X437220D01*
X436862Y382791D01*
X436134Y383740D01*
X435185Y384469D01*
X434080Y384926D01*
X432894Y385083D01*
X432106D01*
X431393Y384989D01*
X431071Y385451D01*
X431367Y386015D01*
X432106Y385917D01*
X432894D01*
X434080Y386074D01*
X435185Y386531D01*
X436134Y387260D01*
X436862Y388209D01*
X437220Y389073D01*
X437780D01*
X438138Y388209D01*
X438866Y387260D01*
X439815Y386531D01*
X440920Y386074D01*
X442106Y385917D01*
X442894D01*
X444080Y386074D01*
X445185Y386531D01*
X446134Y387260D01*
X446862Y388209D01*
X447320Y389314D01*
X447476Y390500D01*
X447320Y391686D01*
X446862Y392791D01*
X446134Y393740D01*
X445185Y394469D01*
X444080Y394926D01*
X442894Y395082D01*
X442106D01*
X440920Y394926D01*
X439815Y394469D01*
X438866Y393740D01*
X438138Y392791D01*
X437780Y391927D01*
X437220D01*
X436862Y392791D01*
X436134Y393740D01*
X435185Y394469D01*
X434080Y394926D01*
X432894Y395082D01*
X432106D01*
X431393Y394989D01*
X431071Y395450D01*
X431367Y396015D01*
X432106Y395918D01*
X432894D01*
X434080Y396074D01*
X435185Y396531D01*
X436134Y397260D01*
X436862Y398209D01*
X437220Y399073D01*
X437780D01*
X438138Y398209D01*
X438866Y397260D01*
X439815Y396531D01*
X440920Y396074D01*
X442106Y395918D01*
X442894D01*
X444080Y396074D01*
X445185Y396531D01*
X446134Y397260D01*
X446862Y398209D01*
X447320Y399314D01*
X447476Y400500D01*
X447320Y401686D01*
X446862Y402791D01*
X446134Y403740D01*
X445185Y404469D01*
X444080Y404926D01*
X442894Y405083D01*
X442106D01*
X440920Y404926D01*
X439815Y404469D01*
X438866Y403740D01*
X438138Y402791D01*
X437780Y401927D01*
X437220D01*
X436862Y402791D01*
X436134Y403740D01*
X435185Y404469D01*
X434080Y404926D01*
X432894Y405083D01*
X432106D01*
X431393Y404989D01*
X431071Y405450D01*
X431367Y406015D01*
X432106Y405918D01*
X432894D01*
X434080Y406074D01*
X435185Y406531D01*
X436134Y407260D01*
X436862Y408209D01*
X437220Y409073D01*
X437780D01*
X438138Y408209D01*
X438866Y407260D01*
X439815Y406531D01*
X440920Y406074D01*
X442106Y405918D01*
X442894D01*
X444080Y406074D01*
X445185Y406531D01*
X446134Y407260D01*
X446862Y408209D01*
X447320Y409314D01*
X447476Y410500D01*
X447320Y411686D01*
X446862Y412791D01*
X446134Y413740D01*
X445185Y414469D01*
X444080Y414926D01*
X442894Y415083D01*
X442106D01*
X440920Y414926D01*
X439815Y414469D01*
X438866Y413740D01*
X438138Y412791D01*
X437780Y411927D01*
X437220D01*
X436862Y412791D01*
X436134Y413740D01*
X435185Y414469D01*
X434080Y414926D01*
X432894Y415083D01*
X432106D01*
X431393Y414989D01*
X431071Y415450D01*
X431367Y416015D01*
X432106Y415917D01*
X432894D01*
X434080Y416074D01*
X435185Y416531D01*
X436134Y417260D01*
X436862Y418209D01*
X437220Y419073D01*
X437780D01*
X438138Y418209D01*
X438866Y417260D01*
X439815Y416532D01*
X440920Y416074D01*
X442106Y415917D01*
X442894D01*
X444080Y416074D01*
X445185Y416532D01*
X446134Y417260D01*
X446862Y418209D01*
X447320Y419314D01*
X447476Y420500D01*
X447320Y421686D01*
X446862Y422791D01*
X446134Y423740D01*
X445185Y424469D01*
X444080Y424926D01*
X442894Y425082D01*
X442106D01*
X440920Y424926D01*
X439815Y424469D01*
X438866Y423740D01*
X438138Y422791D01*
X437780Y421927D01*
X437220D01*
X436862Y422791D01*
X436134Y423740D01*
X435185Y424469D01*
X434080Y424926D01*
X432894Y425082D01*
X432106D01*
X431393Y424989D01*
X431071Y425451D01*
X431367Y426015D01*
X432106Y425917D01*
X432894D01*
X434080Y426074D01*
X435185Y426531D01*
X436134Y427260D01*
X436862Y428209D01*
X437220Y429073D01*
X437780D01*
X438138Y428209D01*
X438866Y427260D01*
X439815Y426532D01*
X440920Y426074D01*
X442106Y425917D01*
X442894D01*
X444080Y426074D01*
X445185Y426532D01*
X446134Y427260D01*
X446862Y428209D01*
X447320Y429314D01*
X447476Y430500D01*
X447320Y431686D01*
X446862Y432791D01*
X446134Y433740D01*
X445185Y434469D01*
X444080Y434926D01*
X442894Y435082D01*
X442106D01*
X440920Y434926D01*
X439815Y434469D01*
X438866Y433740D01*
X438138Y432791D01*
X437780Y431927D01*
X437220D01*
X436862Y432791D01*
X436134Y433740D01*
X435185Y434469D01*
X434080Y434926D01*
X432894Y435082D01*
X432106D01*
X431393Y434989D01*
X431071Y435451D01*
X431367Y436015D01*
X432106Y435918D01*
X432894D01*
X434080Y436074D01*
X435185Y436531D01*
X436134Y437260D01*
X436862Y438209D01*
X437220Y439073D01*
X437780D01*
X438138Y438209D01*
X438866Y437260D01*
X439815Y436531D01*
X440920Y436074D01*
X442106Y435918D01*
X442894D01*
X444080Y436074D01*
X445185Y436531D01*
X446134Y437260D01*
X446862Y438209D01*
X447320Y439314D01*
X447476Y440500D01*
X447320Y441686D01*
X446862Y442791D01*
X446134Y443740D01*
X445185Y444469D01*
X444080Y444926D01*
X442894Y445083D01*
X442106D01*
X440920Y444926D01*
X439815Y444469D01*
X438866Y443740D01*
X438138Y442791D01*
X437780Y441927D01*
X437220D01*
X436862Y442791D01*
X436134Y443740D01*
X435185Y444469D01*
X434080Y444926D01*
X432894Y445083D01*
X432106D01*
X431393Y444989D01*
X431071Y445450D01*
X431367Y446015D01*
X432106Y445918D01*
X432894D01*
X434080Y446074D01*
X435185Y446531D01*
X436134Y447260D01*
X436862Y448209D01*
X437220Y449073D01*
X437780D01*
X438138Y448209D01*
X438866Y447260D01*
X439815Y446531D01*
X440920Y446074D01*
X442106Y445918D01*
X442894D01*
X444080Y446074D01*
X445185Y446531D01*
X446134Y447260D01*
X446862Y448209D01*
X447320Y449314D01*
X447476Y450500D01*
X447320Y451686D01*
X446862Y452791D01*
X446134Y453740D01*
X445185Y454469D01*
X444080Y454926D01*
X442894Y455083D01*
D02*
G37*
G36*
X342894Y455083D02*
X342106D01*
X340920Y454926D01*
X339815Y454469D01*
X338866Y453740D01*
X338138Y452791D01*
X337780Y451927D01*
X337220D01*
X336862Y452791D01*
X336134Y453740D01*
X335185Y454468D01*
X334080Y454926D01*
X332894Y455083D01*
X332106D01*
X330920Y454926D01*
X329815Y454468D01*
X328866Y453740D01*
X328138Y452791D01*
X327680Y451686D01*
X327524Y450500D01*
X327680Y449314D01*
X328138Y448209D01*
X328866Y447260D01*
X329815Y446531D01*
X330920Y446074D01*
X332106Y445918D01*
X332894D01*
X334080Y446074D01*
X335185Y446531D01*
X336134Y447260D01*
X336862Y448209D01*
X337220Y449073D01*
X337780D01*
X338138Y448209D01*
X338866Y447260D01*
X339815Y446531D01*
X340920Y446074D01*
X342106Y445918D01*
X342894D01*
X343633Y446015D01*
X343929Y445450D01*
X343607Y444989D01*
X342894Y445083D01*
X342106D01*
X340920Y444926D01*
X339815Y444469D01*
X338866Y443740D01*
X338138Y442791D01*
X337780Y441927D01*
X337220D01*
X336862Y442791D01*
X336134Y443740D01*
X335185Y444469D01*
X334080Y444926D01*
X332894Y445083D01*
X332106D01*
X330920Y444926D01*
X329815Y444469D01*
X328866Y443740D01*
X328138Y442791D01*
X327680Y441686D01*
X327524Y440500D01*
X327680Y439314D01*
X328138Y438209D01*
X328866Y437260D01*
X329815Y436531D01*
X330920Y436074D01*
X332106Y435918D01*
X332894D01*
X334080Y436074D01*
X335185Y436531D01*
X336134Y437260D01*
X336862Y438209D01*
X337220Y439073D01*
X337780D01*
X338138Y438209D01*
X338866Y437260D01*
X339815Y436531D01*
X340920Y436074D01*
X342106Y435918D01*
X342894D01*
X343633Y436015D01*
X343929Y435451D01*
X343607Y434989D01*
X342894Y435082D01*
X342106D01*
X340920Y434926D01*
X339815Y434469D01*
X338866Y433740D01*
X338138Y432791D01*
X337780Y431927D01*
X337220D01*
X336862Y432791D01*
X336134Y433740D01*
X335185Y434469D01*
X334080Y434926D01*
X332894Y435082D01*
X332106D01*
X330920Y434926D01*
X329815Y434469D01*
X328866Y433740D01*
X328138Y432791D01*
X327680Y431686D01*
X327524Y430500D01*
X327680Y429314D01*
X328138Y428209D01*
X328866Y427260D01*
X329815Y426531D01*
X330920Y426074D01*
X332106Y425917D01*
X332894D01*
X334080Y426074D01*
X335185Y426531D01*
X336134Y427260D01*
X336862Y428209D01*
X337220Y429073D01*
X337780D01*
X338138Y428209D01*
X338866Y427260D01*
X339815Y426531D01*
X340920Y426074D01*
X342106Y425917D01*
X342894D01*
X343633Y426015D01*
X343929Y425451D01*
X343607Y424989D01*
X342894Y425082D01*
X342106D01*
X340920Y424926D01*
X339815Y424469D01*
X338866Y423740D01*
X338138Y422791D01*
X337780Y421927D01*
X337220D01*
X336862Y422791D01*
X336134Y423740D01*
X335185Y424469D01*
X334080Y424926D01*
X332894Y425082D01*
X332106D01*
X330920Y424926D01*
X329815Y424469D01*
X328866Y423740D01*
X328138Y422791D01*
X327680Y421686D01*
X327524Y420500D01*
X327680Y419314D01*
X328138Y418209D01*
X328866Y417260D01*
X329815Y416531D01*
X330920Y416074D01*
X332106Y415917D01*
X332894D01*
X334080Y416074D01*
X335185Y416531D01*
X336134Y417260D01*
X336862Y418209D01*
X337220Y419073D01*
X337780D01*
X338138Y418209D01*
X338866Y417260D01*
X339815Y416531D01*
X340920Y416074D01*
X342106Y415917D01*
X342894D01*
X343633Y416015D01*
X343929Y415450D01*
X343607Y414989D01*
X342894Y415083D01*
X342106D01*
X340920Y414926D01*
X339815Y414469D01*
X338866Y413740D01*
X338138Y412791D01*
X337780Y411927D01*
X337220D01*
X336862Y412791D01*
X336134Y413740D01*
X335185Y414468D01*
X334080Y414926D01*
X332894Y415083D01*
X332106D01*
X330920Y414926D01*
X329815Y414468D01*
X328866Y413740D01*
X328138Y412791D01*
X327680Y411686D01*
X327524Y410500D01*
X327680Y409314D01*
X328138Y408209D01*
X328866Y407260D01*
X329815Y406531D01*
X330920Y406074D01*
X332106Y405918D01*
X332894D01*
X334080Y406074D01*
X335185Y406531D01*
X336134Y407260D01*
X336862Y408209D01*
X337220Y409073D01*
X337780D01*
X338138Y408209D01*
X338866Y407260D01*
X339815Y406531D01*
X340920Y406074D01*
X342106Y405918D01*
X342894D01*
X343633Y406015D01*
X343929Y405450D01*
X343607Y404989D01*
X342894Y405083D01*
X342106D01*
X340920Y404926D01*
X339815Y404469D01*
X338866Y403740D01*
X338138Y402791D01*
X337780Y401927D01*
X337220D01*
X336862Y402791D01*
X336134Y403740D01*
X335185Y404469D01*
X334080Y404926D01*
X332894Y405083D01*
X332106D01*
X330920Y404926D01*
X329815Y404469D01*
X328866Y403740D01*
X328138Y402791D01*
X327680Y401686D01*
X327524Y400500D01*
X327680Y399314D01*
X328138Y398209D01*
X328866Y397260D01*
X329815Y396531D01*
X330920Y396074D01*
X332106Y395918D01*
X332894D01*
X334080Y396074D01*
X335185Y396531D01*
X336134Y397260D01*
X336862Y398209D01*
X337220Y399073D01*
X337780D01*
X338138Y398209D01*
X338866Y397260D01*
X339815Y396531D01*
X340920Y396074D01*
X342106Y395918D01*
X342894D01*
X344080Y396074D01*
X345185Y396531D01*
X346134Y397260D01*
X346557Y397811D01*
X347111Y397711D01*
X356451Y367197D01*
X356517Y367075D01*
X356705Y366454D01*
X357003Y365896D01*
X357042Y365765D01*
X359895Y360367D01*
X359904Y360355D01*
X359908Y360341D01*
X361335Y357676D01*
X361356Y357651D01*
X361389Y357570D01*
X361437Y357508D01*
X361446Y357483D01*
X361449Y357479D01*
X361562Y357357D01*
X361758Y357063D01*
X361928Y356950D01*
X361982Y356887D01*
X362459Y356516D01*
X362589Y356451D01*
X362876Y356230D01*
X363771Y355859D01*
X364495Y355764D01*
X364599Y355740D01*
X365404Y355711D01*
X365885Y355230D01*
X366687Y354898D01*
X367554D01*
X368356Y355230D01*
X368970Y355844D01*
X369302Y356646D01*
Y357302D01*
X369381Y357555D01*
X369747Y357744D01*
X372500D01*
Y361000D01*
X370453D01*
Y360800D01*
X370445Y360876D01*
X370421Y360944D01*
X370384Y361000D01*
X369441D01*
Y358484D01*
X369082Y358355D01*
X368941Y358344D01*
X368356Y358929D01*
X367554Y359261D01*
X366913D01*
Y359880D01*
X366581Y360681D01*
X366023Y361239D01*
X366349Y361564D01*
X366681Y362366D01*
Y363234D01*
X366349Y364036D01*
X365884Y364500D01*
X366349Y364965D01*
X366681Y365766D01*
Y366634D01*
X366349Y367436D01*
X365785Y368000D01*
X366149Y368365D01*
X366481Y369166D01*
Y370034D01*
X366149Y370835D01*
X365535Y371449D01*
X364734Y371781D01*
X363866D01*
X363800Y371754D01*
X363398Y371963D01*
X363692Y372327D01*
X367370D01*
Y373573D01*
X371600D01*
X371600Y373573D01*
X372146Y373681D01*
X372609Y373991D01*
X376509Y377891D01*
X376509Y377891D01*
X376819Y378354D01*
X376927Y378900D01*
Y381654D01*
X377444Y382170D01*
X377776Y382972D01*
Y383839D01*
X377444Y384641D01*
X376830Y385255D01*
X376028Y385587D01*
X375161D01*
X374359Y385255D01*
X373746Y384641D01*
X373413Y383839D01*
Y382972D01*
X373746Y382170D01*
X374073Y381843D01*
Y379491D01*
X371009Y376427D01*
X367370D01*
Y379618D01*
X361630D01*
Y379428D01*
X361130Y379370D01*
X359186Y387652D01*
X359590Y388119D01*
X360134D01*
X360935Y388451D01*
X361549Y389065D01*
X361881Y389866D01*
Y390734D01*
X361549Y391535D01*
X360935Y392149D01*
X360701Y392246D01*
X348797Y441915D01*
X348746Y442026D01*
X348504Y442824D01*
X348308Y443190D01*
X348270Y443319D01*
X346176Y447314D01*
X346862Y448209D01*
X347320Y449314D01*
X347476Y450500D01*
X347320Y451686D01*
X346862Y452791D01*
X346134Y453740D01*
X345185Y454469D01*
X344080Y454926D01*
X342894Y455083D01*
D02*
G37*
G36*
Y395082D02*
X342106D01*
X340920Y394926D01*
X339815Y394469D01*
X338866Y393740D01*
X338138Y392791D01*
X337780Y391927D01*
X337220D01*
X336862Y392791D01*
X336134Y393740D01*
X335185Y394469D01*
X334080Y394926D01*
X332894Y395082D01*
X332106D01*
X330920Y394926D01*
X329815Y394469D01*
X328866Y393740D01*
X328138Y392791D01*
X327680Y391686D01*
X327524Y390500D01*
X327680Y389314D01*
X328138Y388209D01*
X328866Y387260D01*
X329815Y386531D01*
X330920Y386074D01*
X332106Y385917D01*
X332894D01*
X334080Y386074D01*
X335185Y386531D01*
X336134Y387260D01*
X336862Y388209D01*
X337220Y389073D01*
X337780D01*
X338138Y388209D01*
X338866Y387260D01*
X339815Y386531D01*
X340920Y386074D01*
X342106Y385917D01*
X342894D01*
X344080Y386074D01*
X345185Y386531D01*
X346134Y387260D01*
X346862Y388209D01*
X347320Y389314D01*
X347476Y390500D01*
X347320Y391686D01*
X346862Y392791D01*
X346134Y393740D01*
X345185Y394469D01*
X344080Y394926D01*
X342894Y395082D01*
D02*
G37*
G36*
Y385083D02*
X342106D01*
X340920Y384926D01*
X339815Y384469D01*
X338866Y383740D01*
X338138Y382791D01*
X337780Y381927D01*
X337220D01*
X336862Y382791D01*
X336134Y383740D01*
X335185Y384469D01*
X334080Y384926D01*
X332894Y385083D01*
X332106D01*
X330920Y384926D01*
X329815Y384469D01*
X328866Y383740D01*
X328138Y382791D01*
X327680Y381686D01*
X327524Y380500D01*
X327680Y379314D01*
X328138Y378209D01*
X328866Y377260D01*
X329815Y376531D01*
X330920Y376074D01*
X332106Y375918D01*
X332894D01*
X334080Y376074D01*
X335185Y376531D01*
X336134Y377260D01*
X336862Y378209D01*
X337220Y379073D01*
X337780D01*
X338138Y378209D01*
X338866Y377260D01*
X339815Y376531D01*
X340920Y376074D01*
X342106Y375918D01*
X342894D01*
X344080Y376074D01*
X345185Y376531D01*
X346134Y377260D01*
X346862Y378209D01*
X347320Y379314D01*
X347476Y380500D01*
X347320Y381686D01*
X346862Y382791D01*
X346134Y383740D01*
X345185Y384469D01*
X344080Y384926D01*
X342894Y385083D01*
D02*
G37*
G36*
X367370Y382791D02*
X365000D01*
Y381970D01*
D01*
X365044Y381897D01*
X365096Y381840D01*
X365156Y381800D01*
X365224Y381776D01*
X365300Y381767D01*
X365000D01*
Y380618D01*
X367370D01*
Y382791D01*
D02*
G37*
G36*
X364000D02*
X361630D01*
Y380618D01*
X364000D01*
Y381767D01*
X363700D01*
X363776Y381776D01*
X363844Y381800D01*
X363904Y381840D01*
X363956Y381897D01*
X364000Y381970D01*
D01*
Y382791D01*
D02*
G37*
G36*
X342894Y375082D02*
X342106D01*
X340920Y374926D01*
X339815Y374469D01*
X338866Y373740D01*
X338138Y372791D01*
X337780Y371927D01*
X337220D01*
X336862Y372791D01*
X336134Y373740D01*
X335185Y374469D01*
X334080Y374926D01*
X332894Y375082D01*
X332106D01*
X330920Y374926D01*
X329815Y374469D01*
X328866Y373740D01*
X328138Y372791D01*
X327680Y371686D01*
X327524Y370500D01*
X327680Y369314D01*
X328138Y368209D01*
X328866Y367260D01*
X329815Y366531D01*
X330920Y366074D01*
X332106Y365917D01*
X332894D01*
X334080Y366074D01*
X335185Y366531D01*
X336134Y367260D01*
X336862Y368209D01*
X337220Y369073D01*
X337780D01*
X338138Y368209D01*
X338866Y367260D01*
X339815Y366531D01*
X340920Y366074D01*
X342106Y365917D01*
X342894D01*
X344080Y366074D01*
X345185Y366531D01*
X346134Y367260D01*
X346862Y368209D01*
X347320Y369314D01*
X347476Y370500D01*
X347320Y371686D01*
X346862Y372791D01*
X346134Y373740D01*
X345185Y374469D01*
X344080Y374926D01*
X342894Y375082D01*
D02*
G37*
G36*
X372500Y365256D02*
X369441D01*
Y362189D01*
X369500Y362154D01*
X369597Y362107D01*
X369696Y362068D01*
X369798Y362038D01*
X369902Y362017D01*
X369924Y362015D01*
X369941Y362016D01*
X370061Y362036D01*
X370165Y362064D01*
X370253Y362100D01*
X370325Y362144D01*
X370381Y362196D01*
X370421Y362256D01*
X370445Y362324D01*
X370453Y362400D01*
Y362000D01*
X372500D01*
Y365256D01*
D02*
G37*
G36*
X342894Y365083D02*
X342106D01*
X340920Y364926D01*
X339815Y364469D01*
X338866Y363740D01*
X338138Y362791D01*
X337780Y361927D01*
X337220D01*
X336862Y362791D01*
X336134Y363740D01*
X335185Y364469D01*
X334080Y364926D01*
X332894Y365083D01*
X332106D01*
X330920Y364926D01*
X329815Y364469D01*
X328866Y363740D01*
X328138Y362791D01*
X327680Y361686D01*
X327524Y360500D01*
X327680Y359314D01*
X328138Y358209D01*
X328866Y357260D01*
X329815Y356531D01*
X330920Y356074D01*
X332106Y355918D01*
X332894D01*
X334080Y356074D01*
X335185Y356531D01*
X336134Y357260D01*
X336862Y358209D01*
X337220Y359073D01*
X337780D01*
X338138Y358209D01*
X338866Y357260D01*
X339815Y356531D01*
X340920Y356074D01*
X342106Y355918D01*
X342894D01*
X344080Y356074D01*
X345185Y356531D01*
X346134Y357260D01*
X346862Y358209D01*
X347320Y359314D01*
X347476Y360500D01*
X347320Y361686D01*
X346862Y362791D01*
X346134Y363740D01*
X345185Y364469D01*
X344080Y364926D01*
X342894Y365083D01*
D02*
G37*
G36*
X372850Y356587D02*
X369988D01*
Y354261D01*
X370001Y354254D01*
X370097Y354207D01*
X370196Y354168D01*
X370298Y354138D01*
X370402Y354117D01*
X370446Y354112D01*
X370493Y354116D01*
X370614Y354136D01*
X370720Y354164D01*
X370809Y354200D01*
X370882Y354244D01*
X370939Y354296D01*
X370980Y354356D01*
X371004Y354424D01*
X371012Y354500D01*
Y353331D01*
X372850D01*
Y355575D01*
X372550D01*
X372626Y355583D01*
X372694Y355607D01*
X372754Y355647D01*
X372806Y355703D01*
X372850Y355775D01*
Y356587D01*
D02*
G37*
G36*
X442894Y355083D02*
X442106D01*
X440920Y354926D01*
X439815Y354469D01*
X438866Y353740D01*
X438138Y352791D01*
X437780Y351927D01*
X437220D01*
X436862Y352791D01*
X436134Y353740D01*
X435185Y354469D01*
X434080Y354926D01*
X432894Y355083D01*
X432106D01*
X430920Y354926D01*
X429815Y354469D01*
X428866Y353740D01*
X428138Y352791D01*
X427680Y351686D01*
X427524Y350500D01*
X427680Y349314D01*
X428138Y348209D01*
X428866Y347260D01*
X429815Y346531D01*
X430920Y346074D01*
X432106Y345918D01*
X432894D01*
X434080Y346074D01*
X435185Y346531D01*
X436134Y347260D01*
X436862Y348209D01*
X437220Y349073D01*
X437780D01*
X438138Y348209D01*
X438866Y347260D01*
X439815Y346531D01*
X440920Y346074D01*
X442106Y345918D01*
X442894D01*
X444080Y346074D01*
X445185Y346531D01*
X446134Y347260D01*
X446862Y348209D01*
X447320Y349314D01*
X447476Y350500D01*
X447320Y351686D01*
X446862Y352791D01*
X446134Y353740D01*
X445185Y354469D01*
X444080Y354926D01*
X442894Y355083D01*
D02*
G37*
G36*
X382858Y365256D02*
X373500D01*
Y361500D01*
Y358768D01*
X374150D01*
X374074Y358760D01*
X374006Y358736D01*
X373946Y358695D01*
X373894Y358638D01*
X373850Y358565D01*
X373814Y358476D01*
X373786Y358370D01*
X373766Y358248D01*
X373754Y358110D01*
X373750Y357956D01*
X373500D01*
Y357744D01*
X378222D01*
Y356587D01*
X373850D01*
Y355775D01*
D01*
X373894Y355703D01*
X373946Y355647D01*
X374006Y355607D01*
X374074Y355583D01*
X374150Y355575D01*
X373850D01*
Y352831D01*
X373350D01*
Y352331D01*
X369988D01*
Y351645D01*
X369523Y351373D01*
X369181Y351545D01*
Y352504D01*
X364819D01*
Y352338D01*
X364434Y352081D01*
X363566D01*
X362765Y351749D01*
X362151Y351135D01*
X361848Y351075D01*
X361617Y351307D01*
X361038Y351693D01*
X360370Y351826D01*
Y353791D01*
X354630D01*
Y352284D01*
X347072D01*
X346862Y352791D01*
X346134Y353740D01*
X345185Y354469D01*
X344080Y354926D01*
X342894Y355083D01*
X342106D01*
X340920Y354926D01*
X339815Y354469D01*
X338866Y353740D01*
X338138Y352791D01*
X337780Y351927D01*
X337220D01*
X336862Y352791D01*
X336134Y353740D01*
X335185Y354469D01*
X334080Y354926D01*
X332894Y355083D01*
X332106D01*
X330920Y354926D01*
X329815Y354469D01*
X328866Y353740D01*
X328138Y352791D01*
X327680Y351686D01*
X327524Y350500D01*
X327680Y349314D01*
X328138Y348209D01*
X328866Y347260D01*
X329815Y346531D01*
X330920Y346074D01*
X332106Y345918D01*
X332894D01*
X334080Y346074D01*
X335185Y346531D01*
X336134Y347260D01*
X336862Y348209D01*
X337220Y349073D01*
X337780D01*
X338138Y348209D01*
X338866Y347260D01*
X339815Y346531D01*
X340920Y346074D01*
X342106Y345918D01*
X342894D01*
X344080Y346074D01*
X345185Y346531D01*
X346134Y347260D01*
X346862Y348209D01*
X347072Y348716D01*
X354630D01*
Y345526D01*
X354130Y345392D01*
X354092Y345457D01*
X353539Y346010D01*
X352863Y346401D01*
X352108Y346603D01*
X351326D01*
X350571Y346401D01*
X349894Y346010D01*
X349341Y345457D01*
X348951Y344780D01*
X348748Y344025D01*
Y343244D01*
X348951Y342489D01*
X349341Y341812D01*
X349894Y341259D01*
X350571Y340868D01*
X351326Y340666D01*
X352108D01*
X352548Y340784D01*
X352842Y340491D01*
X352842Y340491D01*
X353305Y340181D01*
X353851Y340073D01*
X355240D01*
Y338535D01*
X356061D01*
X356134Y338579D01*
X356191Y338631D01*
X356232Y338691D01*
X356256Y338759D01*
X356264Y338835D01*
Y338535D01*
X359760D01*
Y339319D01*
Y342610D01*
X360260Y342817D01*
X361519Y341558D01*
Y341466D01*
X361851Y340665D01*
X362464Y340051D01*
X363266Y339719D01*
X364134D01*
X364935Y340051D01*
X365549Y340665D01*
X365881Y341466D01*
Y342334D01*
X365768Y342608D01*
X366045Y343024D01*
X369181D01*
Y344073D01*
X369988D01*
Y340413D01*
X371923D01*
Y339256D01*
X369441D01*
Y331744D01*
X378799D01*
Y335500D01*
Y339256D01*
X374778D01*
Y340413D01*
X379150D01*
Y341234D01*
D01*
X379106Y341308D01*
X379054Y341364D01*
X378994Y341405D01*
X378926Y341429D01*
X378850Y341438D01*
X379150D01*
Y344169D01*
Y347925D01*
X378697D01*
X378506Y348387D01*
X378697Y348578D01*
X378697Y348578D01*
X379006Y349041D01*
X379013Y349075D01*
X383012D01*
Y356587D01*
X381077D01*
Y357744D01*
X382858D01*
Y365256D01*
D02*
G37*
G36*
X383012Y347925D02*
X380150D01*
Y344669D01*
X381988D01*
Y344969D01*
X381996Y344893D01*
X382020Y344825D01*
X382061Y344765D01*
X382118Y344713D01*
X382191Y344669D01*
X382936D01*
X382953Y344676D01*
X383012Y344705D01*
Y347925D01*
D02*
G37*
G36*
X382936Y343669D02*
X382191D01*
D01*
X382118Y343625D01*
X382061Y343573D01*
X382020Y343513D01*
X381996Y343445D01*
X381988Y343369D01*
Y343669D01*
X380150D01*
Y341438D01*
X380450D01*
X380374Y341429D01*
X380306Y341405D01*
X380246Y341364D01*
X380194Y341308D01*
X380150Y341234D01*
Y340413D01*
X383012D01*
Y343634D01*
X382953Y343663D01*
X382936Y343669D01*
D02*
G37*
G36*
X442894Y345082D02*
X442106D01*
X440920Y344926D01*
X439815Y344469D01*
X438866Y343740D01*
X438138Y342791D01*
X437780Y341927D01*
X437220D01*
X436862Y342791D01*
X436134Y343740D01*
X435185Y344469D01*
X434080Y344926D01*
X432894Y345082D01*
X432106D01*
X430920Y344926D01*
X429815Y344469D01*
X428866Y343740D01*
X428138Y342791D01*
X427680Y341686D01*
X427524Y340500D01*
X427680Y339314D01*
X428138Y338209D01*
X428866Y337260D01*
X429815Y336531D01*
X430920Y336074D01*
X432106Y335917D01*
X432894D01*
X434080Y336074D01*
X435185Y336531D01*
X436134Y337260D01*
X436862Y338209D01*
X437220Y339073D01*
X437780D01*
X438138Y338209D01*
X438866Y337260D01*
X439815Y336531D01*
X440920Y336074D01*
X442106Y335917D01*
X442894D01*
X444080Y336074D01*
X445185Y336531D01*
X446134Y337260D01*
X446862Y338209D01*
X447320Y339314D01*
X447476Y340500D01*
X447320Y341686D01*
X446862Y342791D01*
X446134Y343740D01*
X445185Y344469D01*
X444080Y344926D01*
X442894Y345082D01*
D02*
G37*
G36*
X343000Y345069D02*
Y341000D01*
X346365D01*
X346371Y341099D01*
X346375Y341023D01*
X346382Y341000D01*
X347410D01*
X347320Y341686D01*
X346862Y342791D01*
X346134Y343740D01*
X345185Y344469D01*
X344080Y344926D01*
X343000Y345069D01*
D02*
G37*
G36*
X332000D02*
X330920Y344926D01*
X329815Y344469D01*
X328866Y343740D01*
X328138Y342791D01*
X327680Y341686D01*
X327590Y341000D01*
X332000D01*
Y345069D01*
D02*
G37*
G36*
X347410Y340000D02*
X347188D01*
X347183Y339900D01*
X347014Y339896D01*
X346862Y339884D01*
X346728Y339864D01*
X346610Y339837D01*
X346510Y339801D01*
X346427Y339757D01*
X346362Y339706D01*
X346314Y339646D01*
X346283Y339579D01*
X346269Y339504D01*
X346301Y340000D01*
X343000D01*
Y335931D01*
X344080Y336074D01*
X345185Y336531D01*
X346134Y337260D01*
X346862Y338209D01*
X347320Y339314D01*
X347410Y340000D01*
D02*
G37*
G36*
X357000Y337535D02*
X356264D01*
Y337235D01*
X356256Y337311D01*
X356232Y337379D01*
X356191Y337439D01*
X356134Y337491D01*
X356061Y337535D01*
X355240D01*
Y335854D01*
X357000D01*
Y337535D01*
D02*
G37*
G36*
X382858Y339256D02*
X379799D01*
Y339044D01*
X380050D01*
X380054Y338890D01*
X380066Y338752D01*
X380086Y338630D01*
X380114Y338524D01*
X380150Y338435D01*
X380194Y338362D01*
X380246Y338305D01*
X380306Y338264D01*
X380374Y338240D01*
X380450Y338232D01*
X379799D01*
Y336000D01*
X381846D01*
Y336300D01*
X381854Y336224D01*
X381878Y336156D01*
X381918Y336096D01*
X381974Y336044D01*
X382046Y336000D01*
X382585D01*
X382602Y336007D01*
X382699Y336054D01*
X382792Y336109D01*
X382858Y336156D01*
Y339256D01*
D02*
G37*
G36*
X333000Y345069D02*
Y340500D01*
Y335931D01*
X334080Y336074D01*
X335185Y336531D01*
X336134Y337260D01*
X336862Y338209D01*
X337229Y339095D01*
X337771D01*
X338138Y338209D01*
X338866Y337260D01*
X339815Y336531D01*
X340920Y336074D01*
X342000Y335931D01*
Y340500D01*
Y345069D01*
X340920Y344926D01*
X339815Y344469D01*
X338866Y343740D01*
X338138Y342791D01*
X337771Y341905D01*
X337229D01*
X336862Y342791D01*
X336134Y343740D01*
X335185Y344469D01*
X334080Y344926D01*
X333000Y345069D01*
D02*
G37*
G36*
X332000Y340000D02*
X327590D01*
X327680Y339314D01*
X328138Y338209D01*
X328866Y337260D01*
X329815Y336531D01*
X330920Y336074D01*
X332000Y335931D01*
Y340000D01*
D02*
G37*
G36*
X359760Y337535D02*
X358000D01*
Y335854D01*
X359760D01*
Y337535D01*
D02*
G37*
G36*
X382585Y335000D02*
X382046D01*
D01*
X381974Y334956D01*
X381918Y334904D01*
X381878Y334844D01*
X381854Y334776D01*
X381846Y334700D01*
Y335000D01*
X379799D01*
Y331744D01*
X382858D01*
Y334844D01*
X382792Y334891D01*
X382699Y334946D01*
X382602Y334993D01*
X382585Y335000D01*
D02*
G37*
G36*
X442894Y335083D02*
X442106D01*
X440920Y334926D01*
X439815Y334469D01*
X438866Y333740D01*
X438138Y332791D01*
X437780Y331927D01*
X437220D01*
X436862Y332791D01*
X436134Y333740D01*
X435185Y334469D01*
X434080Y334926D01*
X432894Y335083D01*
X432106D01*
X430920Y334926D01*
X429815Y334469D01*
X428866Y333740D01*
X428138Y332791D01*
X427680Y331686D01*
X427524Y330500D01*
X427680Y329314D01*
X428138Y328209D01*
X428866Y327260D01*
X429815Y326531D01*
X430920Y326074D01*
X432106Y325918D01*
X432894D01*
X434080Y326074D01*
X435185Y326531D01*
X436134Y327260D01*
X436862Y328209D01*
X437220Y329073D01*
X437780D01*
X438138Y328209D01*
X438866Y327260D01*
X439815Y326531D01*
X440920Y326074D01*
X442106Y325918D01*
X442894D01*
X444080Y326074D01*
X445185Y326531D01*
X446134Y327260D01*
X446862Y328209D01*
X447320Y329314D01*
X447476Y330500D01*
X447320Y331686D01*
X446862Y332791D01*
X446134Y333740D01*
X445185Y334469D01*
X444080Y334926D01*
X442894Y335083D01*
D02*
G37*
G36*
X343000Y335068D02*
Y331000D01*
X347410D01*
X347320Y331686D01*
X346862Y332791D01*
X346134Y333740D01*
X345185Y334469D01*
X344080Y334926D01*
X343000Y335068D01*
D02*
G37*
G36*
X332000D02*
X330920Y334926D01*
X329815Y334469D01*
X328866Y333740D01*
X328138Y332791D01*
X327680Y331686D01*
X327590Y331000D01*
X332000D01*
Y335068D01*
D02*
G37*
G36*
X347410Y330000D02*
X343000D01*
Y325932D01*
X344080Y326074D01*
X345185Y326531D01*
X346134Y327260D01*
X346862Y328209D01*
X347320Y329314D01*
X347410Y330000D01*
D02*
G37*
G36*
X333000Y335068D02*
Y330500D01*
Y325932D01*
X334080Y326074D01*
X335185Y326531D01*
X336134Y327260D01*
X336862Y328209D01*
X337229Y329095D01*
X337771D01*
X338138Y328209D01*
X338866Y327260D01*
X339815Y326531D01*
X340920Y326074D01*
X342000Y325932D01*
Y330500D01*
Y335068D01*
X340920Y334926D01*
X339815Y334469D01*
X338866Y333740D01*
X338138Y332791D01*
X337771Y331905D01*
X337229D01*
X336862Y332791D01*
X336134Y333740D01*
X335185Y334469D01*
X334080Y334926D01*
X333000Y335068D01*
D02*
G37*
G36*
X332000Y330000D02*
X327590D01*
X327680Y329314D01*
X328138Y328209D01*
X328866Y327260D01*
X329815Y326531D01*
X330920Y326074D01*
X332000Y325932D01*
Y330000D01*
D02*
G37*
G36*
X442894Y325082D02*
X442106D01*
X440920Y324926D01*
X439815Y324469D01*
X438866Y323740D01*
X438138Y322791D01*
X437780Y321927D01*
X437220D01*
X436862Y322791D01*
X436134Y323740D01*
X435185Y324469D01*
X434080Y324926D01*
X432894Y325082D01*
X432106D01*
X430920Y324926D01*
X429815Y324469D01*
X428866Y323740D01*
X428138Y322791D01*
X427680Y321686D01*
X427524Y320500D01*
X427680Y319314D01*
X428138Y318209D01*
X428866Y317260D01*
X429815Y316531D01*
X430920Y316074D01*
X432106Y315917D01*
X432894D01*
X434080Y316074D01*
X435185Y316531D01*
X436134Y317260D01*
X436862Y318209D01*
X437220Y319073D01*
X437780D01*
X438138Y318209D01*
X438866Y317260D01*
X439815Y316531D01*
X440920Y316074D01*
X442106Y315917D01*
X442894D01*
X444080Y316074D01*
X445185Y316531D01*
X446134Y317260D01*
X446862Y318209D01*
X447320Y319314D01*
X447476Y320500D01*
X447320Y321686D01*
X446862Y322791D01*
X446134Y323740D01*
X445185Y324469D01*
X444080Y324926D01*
X442894Y325082D01*
D02*
G37*
G36*
X342894Y325082D02*
X342106D01*
X340920Y324926D01*
X339815Y324469D01*
X338866Y323740D01*
X338138Y322791D01*
X337780Y321927D01*
X337220D01*
X336862Y322791D01*
X336134Y323740D01*
X335185Y324469D01*
X334080Y324926D01*
X332894Y325082D01*
X332106D01*
X330920Y324926D01*
X329815Y324469D01*
X328866Y323740D01*
X328138Y322791D01*
X327680Y321686D01*
X327524Y320500D01*
X327680Y319314D01*
X328138Y318209D01*
X328866Y317260D01*
X329815Y316531D01*
X330920Y316074D01*
X332106Y315917D01*
X332894D01*
X334080Y316074D01*
X335185Y316531D01*
X336134Y317260D01*
X336862Y318209D01*
X337220Y319073D01*
X337780D01*
X338138Y318209D01*
X338866Y317260D01*
X339815Y316531D01*
X340920Y316074D01*
X342106Y315917D01*
X342894D01*
X344080Y316074D01*
X345185Y316531D01*
X346134Y317260D01*
X346862Y318209D01*
X347320Y319314D01*
X347476Y320500D01*
X347320Y321686D01*
X346862Y322791D01*
X346134Y323740D01*
X345185Y324469D01*
X344080Y324926D01*
X342894Y325082D01*
D02*
G37*
G36*
X412434Y334681D02*
X411566D01*
X410765Y334349D01*
X410151Y333735D01*
X409819Y332934D01*
Y332066D01*
X410151Y331264D01*
X410666Y330750D01*
X410151Y330236D01*
X409819Y329434D01*
Y328566D01*
X410151Y327765D01*
X410666Y327250D01*
X410151Y326735D01*
X409819Y325934D01*
Y325066D01*
X410151Y324265D01*
X410714Y323702D01*
X410248Y323236D01*
X409915Y322434D01*
Y321566D01*
X410248Y320764D01*
X410861Y320151D01*
X411663Y319819D01*
X412531D01*
X412668Y319876D01*
X414445Y318736D01*
X414304Y318256D01*
X407312D01*
X406601Y319924D01*
X406819Y320453D01*
Y321321D01*
X406487Y322122D01*
X405874Y322736D01*
X405072Y323068D01*
X404205D01*
X403403Y322736D01*
X402789Y322122D01*
X402457Y321321D01*
Y320453D01*
X402789Y319651D01*
X403403Y319038D01*
X403976Y318800D01*
X404941Y316537D01*
Y310744D01*
X414299D01*
Y314500D01*
X415299D01*
Y310744D01*
X418061D01*
X418166Y310085D01*
X417724Y309681D01*
X417066D01*
X416264Y309349D01*
X415651Y308735D01*
X415319Y307934D01*
Y307066D01*
X415651Y306264D01*
X416264Y305651D01*
X416381Y305603D01*
X426125Y249462D01*
X426140Y249424D01*
X426150Y249315D01*
X426496Y248176D01*
X426692Y247810D01*
X426730Y247681D01*
X428824Y243686D01*
X428138Y242791D01*
X427680Y241686D01*
X427524Y240500D01*
X427680Y239314D01*
X428138Y238209D01*
X428866Y237260D01*
X429815Y236531D01*
X430920Y236074D01*
X432106Y235917D01*
X432894D01*
X434080Y236074D01*
X435185Y236531D01*
X436134Y237260D01*
X436862Y238209D01*
X437220Y239073D01*
X437780D01*
X438138Y238209D01*
X438866Y237260D01*
X439815Y236531D01*
X440920Y236074D01*
X442106Y235917D01*
X442894D01*
X444080Y236074D01*
X445185Y236531D01*
X446134Y237260D01*
X446862Y238209D01*
X447320Y239314D01*
X447476Y240500D01*
X447320Y241686D01*
X446862Y242791D01*
X446134Y243740D01*
X445185Y244469D01*
X444080Y244926D01*
X442894Y245082D01*
X442106D01*
X440920Y244926D01*
X439815Y244469D01*
X438866Y243740D01*
X438138Y242791D01*
X437780Y241927D01*
X437220D01*
X436862Y242791D01*
X436134Y243740D01*
X435185Y244469D01*
X434080Y244926D01*
X432894Y245082D01*
X432106D01*
X431367Y244985D01*
X431071Y245550D01*
X431393Y246011D01*
X432106Y245918D01*
X432894D01*
X434080Y246074D01*
X435185Y246531D01*
X436134Y247260D01*
X436862Y248209D01*
X437220Y249073D01*
X437780D01*
X438138Y248209D01*
X438866Y247260D01*
X439815Y246532D01*
X440920Y246074D01*
X442106Y245918D01*
X442894D01*
X444080Y246074D01*
X445185Y246532D01*
X446134Y247260D01*
X446862Y248209D01*
X447320Y249314D01*
X447476Y250500D01*
X447320Y251686D01*
X446862Y252791D01*
X446134Y253740D01*
X445185Y254469D01*
X444080Y254926D01*
X442894Y255083D01*
X442106D01*
X440920Y254926D01*
X439815Y254469D01*
X438866Y253740D01*
X438138Y252791D01*
X437780Y251927D01*
X437220D01*
X436862Y252791D01*
X436134Y253740D01*
X435185Y254469D01*
X434080Y254926D01*
X432894Y255083D01*
X432106D01*
X431367Y254985D01*
X431071Y255550D01*
X431393Y256011D01*
X432106Y255918D01*
X432894D01*
X434080Y256074D01*
X435185Y256531D01*
X436134Y257260D01*
X436862Y258209D01*
X437220Y259073D01*
X437780D01*
X438138Y258209D01*
X438866Y257260D01*
X439815Y256531D01*
X440920Y256074D01*
X442106Y255918D01*
X442894D01*
X444080Y256074D01*
X445185Y256531D01*
X446134Y257260D01*
X446862Y258209D01*
X447320Y259314D01*
X447476Y260500D01*
X447320Y261686D01*
X446862Y262791D01*
X446134Y263740D01*
X445185Y264469D01*
X444080Y264926D01*
X442894Y265083D01*
X442106D01*
X440920Y264926D01*
X439815Y264469D01*
X438866Y263740D01*
X438138Y262791D01*
X437780Y261927D01*
X437220D01*
X436862Y262791D01*
X436134Y263740D01*
X435185Y264469D01*
X434080Y264926D01*
X432894Y265083D01*
X432106D01*
X431367Y264985D01*
X431071Y265549D01*
X431393Y266011D01*
X432106Y265917D01*
X432894D01*
X434080Y266074D01*
X435185Y266531D01*
X436134Y267260D01*
X436862Y268209D01*
X437220Y269073D01*
X437780D01*
X438138Y268209D01*
X438866Y267260D01*
X439815Y266531D01*
X440920Y266074D01*
X442106Y265917D01*
X442894D01*
X444080Y266074D01*
X445185Y266531D01*
X446134Y267260D01*
X446862Y268209D01*
X447320Y269314D01*
X447476Y270500D01*
X447320Y271686D01*
X446862Y272791D01*
X446134Y273740D01*
X445185Y274469D01*
X444080Y274926D01*
X442894Y275082D01*
X442106D01*
X440920Y274926D01*
X439815Y274469D01*
X438866Y273740D01*
X438138Y272791D01*
X437780Y271927D01*
X437220D01*
X436862Y272791D01*
X436134Y273740D01*
X435185Y274469D01*
X434080Y274926D01*
X432894Y275082D01*
X432106D01*
X431367Y274985D01*
X431071Y275550D01*
X431393Y276011D01*
X432106Y275918D01*
X432894D01*
X434080Y276074D01*
X435185Y276531D01*
X436134Y277260D01*
X436862Y278209D01*
X437220Y279073D01*
X437780D01*
X438138Y278209D01*
X438866Y277260D01*
X439815Y276531D01*
X440920Y276074D01*
X442106Y275918D01*
X442894D01*
X444080Y276074D01*
X445185Y276531D01*
X446134Y277260D01*
X446862Y278209D01*
X447320Y279314D01*
X447476Y280500D01*
X447320Y281686D01*
X446862Y282791D01*
X446134Y283740D01*
X445185Y284469D01*
X444080Y284926D01*
X442894Y285083D01*
X442106D01*
X440920Y284926D01*
X439815Y284469D01*
X438866Y283740D01*
X438138Y282791D01*
X437780Y281927D01*
X437220D01*
X436862Y282791D01*
X436134Y283740D01*
X435185Y284469D01*
X434080Y284926D01*
X432894Y285083D01*
X432106D01*
X431367Y284985D01*
X431071Y285549D01*
X431393Y286011D01*
X432106Y285917D01*
X432894D01*
X434080Y286074D01*
X435185Y286531D01*
X436134Y287260D01*
X436862Y288209D01*
X437220Y289073D01*
X437780D01*
X438138Y288209D01*
X438866Y287260D01*
X439815Y286531D01*
X440920Y286074D01*
X442106Y285917D01*
X442894D01*
X444080Y286074D01*
X445185Y286531D01*
X446134Y287260D01*
X446862Y288209D01*
X447320Y289314D01*
X447476Y290500D01*
X447320Y291686D01*
X446862Y292791D01*
X446134Y293740D01*
X445185Y294469D01*
X444080Y294926D01*
X442894Y295082D01*
X442106D01*
X440920Y294926D01*
X439815Y294469D01*
X438866Y293740D01*
X438138Y292791D01*
X437780Y291927D01*
X437220D01*
X436862Y292791D01*
X436134Y293740D01*
X435185Y294469D01*
X434080Y294926D01*
X432894Y295082D01*
X432106D01*
X430920Y294926D01*
X429815Y294469D01*
X428866Y293740D01*
X428798Y293652D01*
X428314Y293774D01*
X427585Y298237D01*
X428069Y298375D01*
X428138Y298209D01*
X428866Y297260D01*
X429815Y296531D01*
X430920Y296074D01*
X432106Y295918D01*
X432894D01*
X434080Y296074D01*
X435185Y296531D01*
X436134Y297260D01*
X436862Y298209D01*
X437220Y299073D01*
X437780D01*
X438138Y298209D01*
X438866Y297260D01*
X439815Y296531D01*
X440920Y296074D01*
X442106Y295918D01*
X442894D01*
X444080Y296074D01*
X445185Y296531D01*
X446134Y297260D01*
X446862Y298209D01*
X447320Y299314D01*
X447476Y300500D01*
X447320Y301686D01*
X446862Y302791D01*
X446134Y303740D01*
X445185Y304469D01*
X444080Y304926D01*
X442894Y305083D01*
X442106D01*
X440920Y304926D01*
X439815Y304469D01*
X438866Y303740D01*
X438138Y302791D01*
X437780Y301927D01*
X437220D01*
X436862Y302791D01*
X436134Y303740D01*
X435185Y304469D01*
X434080Y304926D01*
X432894Y305083D01*
X432106D01*
X430920Y304926D01*
X429815Y304469D01*
X428866Y303740D01*
X428138Y302791D01*
X427680Y301686D01*
X427612Y301171D01*
X427107Y301164D01*
X424294Y318386D01*
X424276Y318434D01*
X424257Y318628D01*
X423857Y319948D01*
X423207Y321164D01*
X422853Y321594D01*
X422787Y321719D01*
X414865Y331355D01*
X414833Y331381D01*
X414813Y331417D01*
X414181Y332152D01*
Y332934D01*
X413849Y333735D01*
X413236Y334349D01*
X412434Y334681D01*
D02*
G37*
G36*
X442894Y315083D02*
X442106D01*
X440920Y314926D01*
X439815Y314469D01*
X438866Y313740D01*
X438138Y312791D01*
X437780Y311927D01*
X437220D01*
X436862Y312791D01*
X436134Y313740D01*
X435185Y314469D01*
X434080Y314926D01*
X432894Y315083D01*
X432106D01*
X430920Y314926D01*
X429815Y314469D01*
X428866Y313740D01*
X428138Y312791D01*
X427680Y311686D01*
X427524Y310500D01*
X427680Y309314D01*
X428138Y308209D01*
X428866Y307260D01*
X429815Y306531D01*
X430920Y306074D01*
X432106Y305918D01*
X432894D01*
X434080Y306074D01*
X435185Y306531D01*
X436134Y307260D01*
X436862Y308209D01*
X437220Y309073D01*
X437780D01*
X438138Y308209D01*
X438866Y307260D01*
X439815Y306531D01*
X440920Y306074D01*
X442106Y305918D01*
X442894D01*
X444080Y306074D01*
X445185Y306531D01*
X446134Y307260D01*
X446862Y308209D01*
X447320Y309314D01*
X447476Y310500D01*
X447320Y311686D01*
X446862Y312791D01*
X446134Y313740D01*
X445185Y314469D01*
X444080Y314926D01*
X442894Y315083D01*
D02*
G37*
G36*
X332894D02*
X332106D01*
X330920Y314926D01*
X329815Y314469D01*
X328866Y313740D01*
X328138Y312791D01*
X327680Y311686D01*
X327524Y310500D01*
X327680Y309314D01*
X328138Y308209D01*
X328866Y307260D01*
X329815Y306531D01*
X330920Y306074D01*
X332106Y305918D01*
X332894D01*
X334080Y306074D01*
X335185Y306531D01*
X336134Y307260D01*
X336862Y308209D01*
X337220Y309073D01*
X337780D01*
X338138Y308209D01*
X338866Y307260D01*
X339815Y306531D01*
X340920Y306074D01*
X342106Y305918D01*
X342894D01*
X344080Y306074D01*
X345185Y306531D01*
X346134Y307260D01*
X346862Y308209D01*
X347320Y309314D01*
X347476Y310500D01*
X347320Y311686D01*
X346862Y312791D01*
X346134Y313740D01*
X345185Y314469D01*
X344080Y314926D01*
X342894Y315083D01*
X342106D01*
X340920Y314926D01*
X339815Y314469D01*
X338866Y313740D01*
X338138Y312791D01*
X337780Y311927D01*
X337220D01*
X336862Y312791D01*
X336134Y313740D01*
X335185Y314469D01*
X334080Y314926D01*
X332894Y315083D01*
D02*
G37*
G36*
X342894Y305083D02*
X342106D01*
X340920Y304926D01*
X339815Y304469D01*
X338866Y303740D01*
X338138Y302791D01*
X337780Y301927D01*
X337220D01*
X336862Y302791D01*
X336134Y303740D01*
X335185Y304469D01*
X334080Y304926D01*
X332894Y305083D01*
X332106D01*
X330920Y304926D01*
X329815Y304469D01*
X328866Y303740D01*
X328138Y302791D01*
X327680Y301686D01*
X327524Y300500D01*
X327680Y299314D01*
X328138Y298209D01*
X328866Y297260D01*
X329815Y296531D01*
X330920Y296074D01*
X332106Y295918D01*
X332894D01*
X334080Y296074D01*
X335185Y296531D01*
X336134Y297260D01*
X336862Y298209D01*
X337220Y299073D01*
X337780D01*
X338138Y298209D01*
X338866Y297260D01*
X339815Y296531D01*
X340920Y296074D01*
X342106Y295918D01*
X342894D01*
X344080Y296074D01*
X345185Y296531D01*
X346134Y297260D01*
X346862Y298209D01*
X347320Y299314D01*
X347476Y300500D01*
X347320Y301686D01*
X346862Y302791D01*
X346134Y303740D01*
X345185Y304469D01*
X344080Y304926D01*
X342894Y305083D01*
D02*
G37*
G36*
X365134Y335381D02*
X364266D01*
X363464Y335049D01*
X362851Y334436D01*
X362519Y333634D01*
Y332946D01*
X355878Y325779D01*
X355830Y325699D01*
X355065Y324767D01*
X354305Y323346D01*
X353970Y322242D01*
X353925Y322146D01*
X346924Y293451D01*
X346435Y293348D01*
X346134Y293740D01*
X345185Y294469D01*
X344080Y294926D01*
X342894Y295082D01*
X342106D01*
X340920Y294926D01*
X339815Y294469D01*
X338866Y293740D01*
X338138Y292791D01*
X337780Y291927D01*
X337220D01*
X336862Y292791D01*
X336134Y293740D01*
X335185Y294469D01*
X334080Y294926D01*
X332894Y295082D01*
X332106D01*
X330920Y294926D01*
X329815Y294469D01*
X328866Y293740D01*
X328138Y292791D01*
X327680Y291686D01*
X327524Y290500D01*
X327680Y289314D01*
X328138Y288209D01*
X328866Y287260D01*
X329815Y286531D01*
X330920Y286074D01*
X332106Y285917D01*
X332894D01*
X334080Y286074D01*
X335185Y286531D01*
X336134Y287260D01*
X336862Y288209D01*
X337220Y289073D01*
X337780D01*
X338138Y288209D01*
X338866Y287260D01*
X339815Y286531D01*
X340920Y286074D01*
X342106Y285917D01*
X342894D01*
X343607Y286011D01*
X343929Y285549D01*
X343633Y284985D01*
X342894Y285083D01*
X342106D01*
X340920Y284926D01*
X339815Y284469D01*
X338866Y283740D01*
X338138Y282791D01*
X337780Y281927D01*
X337220D01*
X336862Y282791D01*
X336134Y283740D01*
X335185Y284469D01*
X334080Y284926D01*
X332894Y285083D01*
X332106D01*
X330920Y284926D01*
X329815Y284469D01*
X328866Y283740D01*
X328138Y282791D01*
X327680Y281686D01*
X327524Y280500D01*
X327680Y279314D01*
X328138Y278209D01*
X328866Y277260D01*
X329815Y276531D01*
X330920Y276074D01*
X332106Y275918D01*
X332894D01*
X334080Y276074D01*
X335185Y276531D01*
X336134Y277260D01*
X336862Y278209D01*
X337220Y279073D01*
X337780D01*
X338138Y278209D01*
X338866Y277260D01*
X339815Y276531D01*
X340920Y276074D01*
X342106Y275918D01*
X342894D01*
X343607Y276011D01*
X343929Y275550D01*
X343633Y274985D01*
X342894Y275082D01*
X342106D01*
X340920Y274926D01*
X339815Y274469D01*
X338866Y273740D01*
X338138Y272791D01*
X337780Y271927D01*
X337220D01*
X336862Y272791D01*
X336134Y273740D01*
X335185Y274469D01*
X334080Y274926D01*
X332894Y275082D01*
X332106D01*
X330920Y274926D01*
X329815Y274469D01*
X328866Y273740D01*
X328138Y272791D01*
X327680Y271686D01*
X327524Y270500D01*
X327680Y269314D01*
X328138Y268209D01*
X328866Y267260D01*
X329815Y266531D01*
X330920Y266074D01*
X332106Y265917D01*
X332894D01*
X334080Y266074D01*
X335185Y266531D01*
X336134Y267260D01*
X336862Y268209D01*
X337220Y269073D01*
X337780D01*
X338138Y268209D01*
X338866Y267260D01*
X339815Y266531D01*
X340920Y266074D01*
X342106Y265917D01*
X342894D01*
X343607Y266011D01*
X343929Y265549D01*
X343633Y264985D01*
X342894Y265083D01*
X342106D01*
X340920Y264926D01*
X339815Y264469D01*
X338866Y263740D01*
X338138Y262791D01*
X337780Y261927D01*
X337220D01*
X336862Y262791D01*
X336134Y263740D01*
X335185Y264469D01*
X334080Y264926D01*
X332894Y265083D01*
X332106D01*
X330920Y264926D01*
X329815Y264469D01*
X328866Y263740D01*
X328138Y262791D01*
X327680Y261686D01*
X327524Y260500D01*
X327680Y259314D01*
X328138Y258209D01*
X328866Y257260D01*
X329815Y256531D01*
X330920Y256074D01*
X332106Y255918D01*
X332894D01*
X334080Y256074D01*
X335185Y256531D01*
X336134Y257260D01*
X336862Y258209D01*
X337220Y259073D01*
X337780D01*
X338138Y258209D01*
X338866Y257260D01*
X339815Y256531D01*
X340920Y256074D01*
X342106Y255918D01*
X342894D01*
X343607Y256011D01*
X343929Y255550D01*
X343633Y254985D01*
X342894Y255083D01*
X342106D01*
X340920Y254926D01*
X339815Y254469D01*
X338866Y253740D01*
X338138Y252791D01*
X337780Y251927D01*
X337220D01*
X336862Y252791D01*
X336134Y253740D01*
X335185Y254469D01*
X334080Y254926D01*
X332894Y255083D01*
X332106D01*
X330920Y254926D01*
X329815Y254469D01*
X328866Y253740D01*
X328138Y252791D01*
X327680Y251686D01*
X327524Y250500D01*
X327680Y249314D01*
X328138Y248209D01*
X328866Y247260D01*
X329815Y246531D01*
X330920Y246074D01*
X332106Y245918D01*
X332894D01*
X334080Y246074D01*
X335185Y246531D01*
X336134Y247260D01*
X336862Y248209D01*
X337220Y249073D01*
X337780D01*
X338138Y248209D01*
X338866Y247260D01*
X339815Y246531D01*
X340920Y246074D01*
X342106Y245918D01*
X342894D01*
X343607Y246011D01*
X343929Y245550D01*
X343633Y244985D01*
X342894Y245082D01*
X342106D01*
X340920Y244926D01*
X339815Y244469D01*
X338866Y243740D01*
X338138Y242791D01*
X337780Y241927D01*
X337220D01*
X336862Y242791D01*
X336134Y243740D01*
X335185Y244469D01*
X334080Y244926D01*
X332894Y245082D01*
X332106D01*
X330920Y244926D01*
X329815Y244469D01*
X328866Y243740D01*
X328138Y242791D01*
X327680Y241686D01*
X327524Y240500D01*
X327680Y239314D01*
X328138Y238209D01*
X328866Y237260D01*
X329815Y236531D01*
X330920Y236074D01*
X332106Y235917D01*
X332894D01*
X334080Y236074D01*
X335185Y236531D01*
X336134Y237260D01*
X336862Y238209D01*
X337220Y239073D01*
X337780D01*
X338138Y238209D01*
X338866Y237260D01*
X339815Y236531D01*
X340920Y236074D01*
X342106Y235917D01*
X342894D01*
X343607Y236011D01*
X343929Y235549D01*
X343633Y234985D01*
X342894Y235083D01*
X342106D01*
X340920Y234926D01*
X339815Y234469D01*
X338866Y233740D01*
X338138Y232791D01*
X337780Y231927D01*
X337220D01*
X336862Y232791D01*
X336134Y233740D01*
X335185Y234469D01*
X334080Y234926D01*
X332894Y235083D01*
X332106D01*
X330920Y234926D01*
X329815Y234469D01*
X328866Y233740D01*
X328138Y232791D01*
X327680Y231686D01*
X327524Y230500D01*
X327680Y229314D01*
X328138Y228209D01*
X328866Y227260D01*
X329815Y226531D01*
X330920Y226074D01*
X332106Y225918D01*
X332894D01*
X334080Y226074D01*
X335185Y226531D01*
X336134Y227260D01*
X336862Y228209D01*
X337220Y229073D01*
X337780D01*
X338138Y228209D01*
X338866Y227260D01*
X339815Y226531D01*
X340920Y226074D01*
X342106Y225918D01*
X342894D01*
X344080Y226074D01*
X345185Y226531D01*
X346134Y227260D01*
X346862Y228209D01*
X347320Y229314D01*
X347476Y230500D01*
X347320Y231686D01*
X346862Y232791D01*
X346176Y233686D01*
X348270Y237681D01*
X348308Y237810D01*
X348504Y238176D01*
X348746Y238974D01*
X348754Y238986D01*
X348762Y239026D01*
X348813Y239195D01*
X348832Y239240D01*
X360752Y295575D01*
X360935Y295651D01*
X361549Y296265D01*
X361881Y297066D01*
Y297934D01*
X361549Y298735D01*
X360935Y299349D01*
X360134Y299681D01*
X359667D01*
X359259Y300178D01*
X362964Y318280D01*
X363136Y318351D01*
X363749Y318965D01*
X364081Y319766D01*
Y320395D01*
X364266Y320519D01*
X365134D01*
X365935Y320851D01*
X366549Y321464D01*
X366881Y322266D01*
Y323134D01*
X366549Y323936D01*
X366035Y324450D01*
X366549Y324964D01*
X366881Y325766D01*
Y326634D01*
X366549Y327435D01*
X366035Y327950D01*
X366549Y328465D01*
X366881Y329266D01*
Y330134D01*
X366549Y330936D01*
X366035Y331450D01*
X366549Y331964D01*
X366881Y332766D01*
Y333634D01*
X366549Y334436D01*
X365935Y335049D01*
X365134Y335381D01*
D02*
G37*
G36*
X442894Y235083D02*
X442106D01*
X440920Y234926D01*
X439815Y234469D01*
X438866Y233740D01*
X438138Y232791D01*
X437780Y231927D01*
X437220D01*
X436862Y232791D01*
X436134Y233740D01*
X435185Y234469D01*
X434080Y234926D01*
X432894Y235083D01*
X432106D01*
X430920Y234926D01*
X429815Y234469D01*
X428866Y233740D01*
X428138Y232791D01*
X427680Y231686D01*
X427524Y230500D01*
X427680Y229314D01*
X428138Y228209D01*
X428866Y227260D01*
X429815Y226531D01*
X430920Y226074D01*
X432106Y225918D01*
X432894D01*
X434080Y226074D01*
X435185Y226531D01*
X436134Y227260D01*
X436862Y228209D01*
X437220Y229073D01*
X437780D01*
X438138Y228209D01*
X438866Y227260D01*
X439815Y226531D01*
X440920Y226074D01*
X442106Y225918D01*
X442894D01*
X444080Y226074D01*
X445185Y226531D01*
X446134Y227260D01*
X446862Y228209D01*
X447320Y229314D01*
X447476Y230500D01*
X447320Y231686D01*
X446862Y232791D01*
X446134Y233740D01*
X445185Y234469D01*
X444080Y234926D01*
X442894Y235083D01*
D02*
G37*
G36*
Y225082D02*
X442106D01*
X440920Y224926D01*
X439815Y224469D01*
X438866Y223740D01*
X438138Y222791D01*
X437780Y221927D01*
X437220D01*
X436862Y222791D01*
X436134Y223740D01*
X435185Y224469D01*
X434080Y224926D01*
X432894Y225082D01*
X432106D01*
X430920Y224926D01*
X429815Y224469D01*
X428866Y223740D01*
X428138Y222791D01*
X427680Y221686D01*
X427524Y220500D01*
X427680Y219314D01*
X428138Y218209D01*
X428866Y217260D01*
X429815Y216531D01*
X430920Y216074D01*
X432106Y215917D01*
X432894D01*
X434080Y216074D01*
X435185Y216531D01*
X436134Y217260D01*
X436862Y218209D01*
X437220Y219073D01*
X437780D01*
X438138Y218209D01*
X438866Y217260D01*
X439815Y216531D01*
X440920Y216074D01*
X442106Y215917D01*
X442894D01*
X444080Y216074D01*
X445185Y216531D01*
X446134Y217260D01*
X446862Y218209D01*
X447320Y219314D01*
X447476Y220500D01*
X447320Y221686D01*
X446862Y222791D01*
X446134Y223740D01*
X445185Y224469D01*
X444080Y224926D01*
X442894Y225082D01*
D02*
G37*
G36*
X332894D02*
X332106D01*
X330920Y224926D01*
X329815Y224469D01*
X328866Y223740D01*
X328138Y222791D01*
X327680Y221686D01*
X327524Y220500D01*
X327680Y219314D01*
X328138Y218209D01*
X328866Y217260D01*
X329815Y216531D01*
X330920Y216074D01*
X332106Y215917D01*
X332894D01*
X334080Y216074D01*
X335185Y216531D01*
X336134Y217260D01*
X336862Y218209D01*
X337220Y219073D01*
X337780D01*
X338138Y218209D01*
X338866Y217260D01*
X339815Y216531D01*
X340920Y216074D01*
X342106Y215917D01*
X342894D01*
X344080Y216074D01*
X345185Y216531D01*
X346134Y217260D01*
X346862Y218209D01*
X347320Y219314D01*
X347476Y220500D01*
X347320Y221686D01*
X346862Y222791D01*
X346134Y223740D01*
X345185Y224469D01*
X344080Y224926D01*
X342894Y225082D01*
X342106D01*
X340920Y224926D01*
X339815Y224469D01*
X338866Y223740D01*
X338138Y222791D01*
X337780Y221927D01*
X337220D01*
X336862Y222791D01*
X336134Y223740D01*
X335185Y224469D01*
X334080Y224926D01*
X332894Y225082D01*
D02*
G37*
G36*
X342894Y215083D02*
X342106D01*
X340920Y214926D01*
X339815Y214469D01*
X338866Y213740D01*
X338138Y212791D01*
X337780Y211927D01*
X337220D01*
X336862Y212791D01*
X336134Y213740D01*
X335185Y214469D01*
X334080Y214926D01*
X332894Y215083D01*
X332106D01*
X330920Y214926D01*
X329815Y214469D01*
X328866Y213740D01*
X328138Y212791D01*
X327680Y211686D01*
X327524Y210500D01*
X327680Y209314D01*
X328138Y208209D01*
X328866Y207260D01*
X329815Y206531D01*
X330920Y206074D01*
X332106Y205918D01*
X332894D01*
X334080Y206074D01*
X335185Y206531D01*
X336134Y207260D01*
X336862Y208209D01*
X337220Y209073D01*
X337780D01*
X338138Y208209D01*
X338866Y207260D01*
X339815Y206531D01*
X340920Y206074D01*
X342106Y205918D01*
X342894D01*
X344080Y206074D01*
X345185Y206531D01*
X346134Y207260D01*
X346862Y208209D01*
X347320Y209314D01*
X347476Y210500D01*
X347320Y211686D01*
X346862Y212791D01*
X346134Y213740D01*
X345185Y214469D01*
X344080Y214926D01*
X342894Y215083D01*
D02*
G37*
G36*
X442894D02*
X442106D01*
X440920Y214926D01*
X439815Y214469D01*
X438866Y213740D01*
X438138Y212791D01*
X437780Y211927D01*
X437220D01*
X436862Y212791D01*
X436134Y213740D01*
X435185Y214469D01*
X434080Y214926D01*
X432894Y215083D01*
X432106D01*
X430920Y214926D01*
X429815Y214469D01*
X428866Y213740D01*
X428138Y212791D01*
X427680Y211686D01*
X427524Y210500D01*
X427680Y209314D01*
X428138Y208209D01*
X428866Y207260D01*
X429815Y206531D01*
X430920Y206074D01*
X432106Y205918D01*
X432894D01*
X434080Y206074D01*
X435185Y206531D01*
X436134Y207260D01*
X436862Y208209D01*
X437220Y209073D01*
X437780D01*
X438138Y208209D01*
X438866Y207260D01*
X439815Y206531D01*
X440920Y206074D01*
X442106Y205918D01*
X442894D01*
X444080Y206074D01*
X445185Y206531D01*
X446134Y207260D01*
X446862Y208209D01*
X447320Y209314D01*
X447476Y210500D01*
X447320Y211686D01*
X446862Y212791D01*
X446134Y213740D01*
X445185Y214469D01*
X444080Y214926D01*
X442894Y215083D01*
D02*
G37*
G36*
X342894Y205083D02*
X342106D01*
X340920Y204926D01*
X339815Y204469D01*
X338866Y203740D01*
X338138Y202791D01*
X337780Y201927D01*
X337220D01*
X336862Y202791D01*
X336134Y203740D01*
X335185Y204469D01*
X334080Y204926D01*
X332894Y205083D01*
X332106D01*
X330920Y204926D01*
X329815Y204469D01*
X328866Y203740D01*
X328138Y202791D01*
X327680Y201686D01*
X327524Y200500D01*
X327680Y199314D01*
X328138Y198209D01*
X328866Y197260D01*
X329815Y196531D01*
X330920Y196074D01*
X332106Y195917D01*
X332894D01*
X334080Y196074D01*
X335185Y196531D01*
X336134Y197260D01*
X336862Y198209D01*
X337220Y199073D01*
X337780D01*
X338138Y198209D01*
X338866Y197260D01*
X339815Y196531D01*
X340920Y196074D01*
X342106Y195917D01*
X342894D01*
X344080Y196074D01*
X345185Y196531D01*
X346134Y197260D01*
X346862Y198209D01*
X347320Y199314D01*
X347476Y200500D01*
X347320Y201686D01*
X346862Y202791D01*
X346134Y203740D01*
X345185Y204469D01*
X344080Y204926D01*
X342894Y205083D01*
D02*
G37*
G36*
X442894Y205083D02*
X442106D01*
X440920Y204926D01*
X439815Y204469D01*
X438866Y203740D01*
X438138Y202791D01*
X437780Y201927D01*
X437220D01*
X436862Y202791D01*
X436134Y203740D01*
X435185Y204469D01*
X434080Y204926D01*
X432894Y205083D01*
X432106D01*
X430920Y204926D01*
X429815Y204469D01*
X428866Y203740D01*
X428138Y202791D01*
X427680Y201686D01*
X427524Y200500D01*
X427680Y199314D01*
X428138Y198209D01*
X428866Y197260D01*
X429815Y196531D01*
X430920Y196074D01*
X432106Y195917D01*
X432894D01*
X434080Y196074D01*
X435185Y196531D01*
X436134Y197260D01*
X436862Y198209D01*
X437220Y199073D01*
X437780D01*
X438138Y198209D01*
X438866Y197260D01*
X439815Y196531D01*
X440920Y196074D01*
X442106Y195917D01*
X442894D01*
X444080Y196074D01*
X445185Y196531D01*
X446134Y197260D01*
X446862Y198209D01*
X447320Y199314D01*
X447476Y200500D01*
X447320Y201686D01*
X446862Y202791D01*
X446134Y203740D01*
X445185Y204469D01*
X444080Y204926D01*
X442894Y205083D01*
D02*
G37*
G36*
X342894Y195082D02*
X342106D01*
X340920Y194926D01*
X339815Y194469D01*
X338866Y193740D01*
X338138Y192791D01*
X337780Y191927D01*
X337220D01*
X336862Y192791D01*
X336134Y193740D01*
X335185Y194469D01*
X334080Y194926D01*
X332894Y195082D01*
X332106D01*
X330920Y194926D01*
X329815Y194469D01*
X328866Y193740D01*
X328138Y192791D01*
X327680Y191686D01*
X327524Y190500D01*
X327680Y189314D01*
X328138Y188209D01*
X328866Y187260D01*
X329815Y186531D01*
X330920Y186074D01*
X332106Y185917D01*
X332894D01*
X334080Y186074D01*
X335185Y186531D01*
X336134Y187260D01*
X336862Y188209D01*
X337220Y189073D01*
X337780D01*
X338138Y188209D01*
X338866Y187260D01*
X339815Y186531D01*
X340920Y186074D01*
X342106Y185917D01*
X342894D01*
X344080Y186074D01*
X345185Y186531D01*
X346134Y187260D01*
X346862Y188209D01*
X347320Y189314D01*
X347476Y190500D01*
X347320Y191686D01*
X346862Y192791D01*
X346134Y193740D01*
X345185Y194469D01*
X344080Y194926D01*
X342894Y195082D01*
D02*
G37*
G36*
X442894Y195082D02*
X442106D01*
X440920Y194926D01*
X439815Y194469D01*
X438866Y193740D01*
X438138Y192791D01*
X437780Y191927D01*
X437220D01*
X436862Y192791D01*
X436134Y193740D01*
X435185Y194469D01*
X434080Y194926D01*
X432894Y195082D01*
X432106D01*
X430920Y194926D01*
X429815Y194469D01*
X428866Y193740D01*
X428138Y192791D01*
X427680Y191686D01*
X427524Y190500D01*
X427680Y189314D01*
X428138Y188209D01*
X428866Y187260D01*
X429815Y186531D01*
X430920Y186074D01*
X432106Y185917D01*
X432894D01*
X434080Y186074D01*
X435185Y186531D01*
X436134Y187260D01*
X436862Y188209D01*
X437220Y189073D01*
X437780D01*
X438138Y188209D01*
X438866Y187260D01*
X439815Y186531D01*
X440920Y186074D01*
X442106Y185917D01*
X442894D01*
X444080Y186074D01*
X445185Y186531D01*
X446134Y187260D01*
X446862Y188209D01*
X447320Y189314D01*
X447476Y190500D01*
X447320Y191686D01*
X446862Y192791D01*
X446134Y193740D01*
X445185Y194469D01*
X444080Y194926D01*
X442894Y195082D01*
D02*
G37*
G36*
X342894Y185082D02*
X342106D01*
X340920Y184926D01*
X339815Y184469D01*
X338866Y183740D01*
X338138Y182791D01*
X337780Y181927D01*
X337220D01*
X336862Y182791D01*
X336134Y183740D01*
X335185Y184469D01*
X334080Y184926D01*
X332894Y185082D01*
X332106D01*
X330920Y184926D01*
X329815Y184469D01*
X328866Y183740D01*
X328138Y182791D01*
X327680Y181686D01*
X327524Y180500D01*
X327680Y179314D01*
X328138Y178209D01*
X328866Y177260D01*
X329815Y176531D01*
X330920Y176074D01*
X332106Y175917D01*
X332894D01*
X334080Y176074D01*
X335185Y176531D01*
X336134Y177260D01*
X336862Y178209D01*
X337220Y179073D01*
X337780D01*
X338138Y178209D01*
X338866Y177260D01*
X339815Y176531D01*
X340920Y176074D01*
X342106Y175917D01*
X342894D01*
X344080Y176074D01*
X345185Y176531D01*
X346134Y177260D01*
X346862Y178209D01*
X347320Y179314D01*
X347476Y180500D01*
X347320Y181686D01*
X346862Y182791D01*
X346134Y183740D01*
X345185Y184469D01*
X344080Y184926D01*
X342894Y185082D01*
D02*
G37*
G36*
X442894Y185082D02*
X442106D01*
X440920Y184926D01*
X439815Y184469D01*
X438866Y183740D01*
X438138Y182791D01*
X437780Y181927D01*
X437220D01*
X436862Y182791D01*
X436134Y183740D01*
X435185Y184469D01*
X434080Y184926D01*
X432894Y185082D01*
X432106D01*
X430920Y184926D01*
X429815Y184469D01*
X428866Y183740D01*
X428138Y182791D01*
X427680Y181686D01*
X427524Y180500D01*
X427680Y179314D01*
X428138Y178209D01*
X428866Y177260D01*
X429815Y176531D01*
X430920Y176074D01*
X432106Y175917D01*
X432894D01*
X434080Y176074D01*
X435185Y176531D01*
X436134Y177260D01*
X436862Y178209D01*
X437220Y179073D01*
X437780D01*
X438138Y178209D01*
X438866Y177260D01*
X439815Y176531D01*
X440920Y176074D01*
X442106Y175917D01*
X442894D01*
X444080Y176074D01*
X445185Y176531D01*
X446134Y177260D01*
X446862Y178209D01*
X447320Y179314D01*
X447476Y180500D01*
X447320Y181686D01*
X446862Y182791D01*
X446134Y183740D01*
X445185Y184469D01*
X444080Y184926D01*
X442894Y185082D01*
D02*
G37*
G36*
Y175083D02*
X442106D01*
X440920Y174926D01*
X439815Y174469D01*
X438866Y173740D01*
X438138Y172791D01*
X437780Y171927D01*
X437220D01*
X436862Y172791D01*
X436134Y173740D01*
X435185Y174469D01*
X434080Y174926D01*
X432894Y175083D01*
X432106D01*
X430920Y174926D01*
X429815Y174469D01*
X428866Y173740D01*
X428138Y172791D01*
X427680Y171686D01*
X427524Y170500D01*
X427680Y169314D01*
X428138Y168209D01*
X428866Y167260D01*
X429815Y166531D01*
X430920Y166074D01*
X432106Y165918D01*
X432894D01*
X434080Y166074D01*
X435185Y166531D01*
X436134Y167260D01*
X436862Y168209D01*
X437220Y169073D01*
X437780D01*
X438138Y168209D01*
X438866Y167260D01*
X439815Y166531D01*
X440920Y166074D01*
X442106Y165918D01*
X442894D01*
X444080Y166074D01*
X445185Y166531D01*
X446134Y167260D01*
X446862Y168209D01*
X447320Y169314D01*
X447476Y170500D01*
X447320Y171686D01*
X446862Y172791D01*
X446134Y173740D01*
X445185Y174469D01*
X444080Y174926D01*
X442894Y175083D01*
D02*
G37*
G36*
X332894D02*
X332106D01*
X330920Y174926D01*
X329815Y174469D01*
X328866Y173740D01*
X328138Y172791D01*
X327680Y171686D01*
X327524Y170500D01*
X327680Y169314D01*
X328138Y168209D01*
X328866Y167260D01*
X329815Y166531D01*
X330920Y166074D01*
X332106Y165918D01*
X332894D01*
X334080Y166074D01*
X335185Y166531D01*
X336134Y167260D01*
X336862Y168209D01*
X337220Y169073D01*
X337780D01*
X338138Y168209D01*
X338866Y167260D01*
X339815Y166531D01*
X340920Y166074D01*
X342106Y165918D01*
X342894D01*
X344080Y166074D01*
X345185Y166531D01*
X346134Y167260D01*
X346862Y168209D01*
X347320Y169314D01*
X347476Y170500D01*
X347320Y171686D01*
X346862Y172791D01*
X346134Y173740D01*
X345185Y174469D01*
X344080Y174926D01*
X342894Y175083D01*
X342106D01*
X340920Y174926D01*
X339815Y174469D01*
X338866Y173740D01*
X338138Y172791D01*
X337780Y171927D01*
X337220D01*
X336862Y172791D01*
X336134Y173740D01*
X335185Y174469D01*
X334080Y174926D01*
X332894Y175083D01*
D02*
G37*
G36*
X442894Y165083D02*
X442106D01*
X440920Y164926D01*
X439815Y164469D01*
X438866Y163740D01*
X438138Y162791D01*
X437780Y161927D01*
X437220D01*
X436862Y162791D01*
X436134Y163740D01*
X435185Y164469D01*
X434080Y164926D01*
X432894Y165083D01*
X432106D01*
X430920Y164926D01*
X429815Y164469D01*
X428866Y163740D01*
X428138Y162791D01*
X427680Y161686D01*
X427524Y160500D01*
X427680Y159314D01*
X428138Y158209D01*
X428866Y157260D01*
X429815Y156531D01*
X430920Y156074D01*
X432106Y155918D01*
X432894D01*
X434080Y156074D01*
X435185Y156531D01*
X436134Y157260D01*
X436862Y158209D01*
X437220Y159073D01*
X437780D01*
X438138Y158209D01*
X438866Y157260D01*
X439815Y156532D01*
X440920Y156074D01*
X442106Y155918D01*
X442894D01*
X444080Y156074D01*
X445185Y156532D01*
X446134Y157260D01*
X446862Y158209D01*
X447320Y159314D01*
X447476Y160500D01*
X447320Y161686D01*
X446862Y162791D01*
X446134Y163740D01*
X445185Y164469D01*
X444080Y164926D01*
X442894Y165083D01*
D02*
G37*
G36*
X342894Y165083D02*
X342106D01*
X340920Y164926D01*
X339815Y164469D01*
X338866Y163740D01*
X338138Y162791D01*
X337780Y161927D01*
X337220D01*
X336862Y162791D01*
X336134Y163740D01*
X335185Y164469D01*
X334080Y164926D01*
X332894Y165083D01*
X332106D01*
X330920Y164926D01*
X329815Y164469D01*
X328866Y163740D01*
X328138Y162791D01*
X327680Y161686D01*
X327524Y160500D01*
X327680Y159314D01*
X328138Y158209D01*
X328866Y157260D01*
X329815Y156531D01*
X330920Y156074D01*
X332106Y155918D01*
X332894D01*
X334080Y156074D01*
X335185Y156531D01*
X336134Y157260D01*
X336862Y158209D01*
X337220Y159073D01*
X337780D01*
X338138Y158209D01*
X338866Y157260D01*
X339815Y156531D01*
X340920Y156074D01*
X342106Y155918D01*
X342894D01*
X344080Y156074D01*
X345185Y156531D01*
X346134Y157260D01*
X346862Y158209D01*
X347320Y159314D01*
X347476Y160500D01*
X347320Y161686D01*
X346862Y162791D01*
X346134Y163740D01*
X345185Y164469D01*
X344080Y164926D01*
X342894Y165083D01*
D02*
G37*
G36*
X442894Y155082D02*
X442106D01*
X440920Y154926D01*
X439815Y154469D01*
X438866Y153740D01*
X438138Y152791D01*
X437780Y151927D01*
X437220D01*
X436862Y152791D01*
X436134Y153740D01*
X435185Y154469D01*
X434080Y154926D01*
X432894Y155082D01*
X432106D01*
X430920Y154926D01*
X429815Y154469D01*
X428866Y153740D01*
X428138Y152791D01*
X427680Y151686D01*
X427524Y150500D01*
X427680Y149314D01*
X428138Y148209D01*
X428866Y147260D01*
X429815Y146531D01*
X430920Y146074D01*
X432106Y145917D01*
X432894D01*
X434080Y146074D01*
X435185Y146531D01*
X436134Y147260D01*
X436862Y148209D01*
X437220Y149073D01*
X437780D01*
X438138Y148209D01*
X438866Y147260D01*
X439815Y146531D01*
X440920Y146074D01*
X442106Y145917D01*
X442894D01*
X444080Y146074D01*
X445185Y146531D01*
X446134Y147260D01*
X446862Y148209D01*
X447320Y149314D01*
X447476Y150500D01*
X447320Y151686D01*
X446862Y152791D01*
X446134Y153740D01*
X445185Y154469D01*
X444080Y154926D01*
X442894Y155082D01*
D02*
G37*
G36*
X342894Y155082D02*
X342106D01*
X340920Y154926D01*
X339815Y154469D01*
X338866Y153740D01*
X338138Y152791D01*
X337780Y151927D01*
X337220D01*
X336862Y152791D01*
X336134Y153740D01*
X335185Y154469D01*
X334080Y154926D01*
X332894Y155082D01*
X332106D01*
X330920Y154926D01*
X329815Y154469D01*
X328866Y153740D01*
X328138Y152791D01*
X327680Y151686D01*
X327524Y150500D01*
X327680Y149314D01*
X328138Y148209D01*
X328866Y147260D01*
X329815Y146531D01*
X330920Y146074D01*
X332106Y145917D01*
X332894D01*
X334080Y146074D01*
X335185Y146531D01*
X336134Y147260D01*
X336862Y148209D01*
X337220Y149073D01*
X337780D01*
X338138Y148209D01*
X338866Y147260D01*
X339815Y146531D01*
X340920Y146074D01*
X342106Y145917D01*
X342894D01*
X344080Y146074D01*
X345185Y146531D01*
X346134Y147260D01*
X346862Y148209D01*
X347320Y149314D01*
X347476Y150500D01*
X347320Y151686D01*
X346862Y152791D01*
X346134Y153740D01*
X345185Y154469D01*
X344080Y154926D01*
X342894Y155082D01*
D02*
G37*
G36*
X442894Y145082D02*
X442106D01*
X440920Y144926D01*
X439815Y144469D01*
X438866Y143740D01*
X438138Y142791D01*
X437780Y141927D01*
X437220D01*
X436862Y142791D01*
X436134Y143740D01*
X435185Y144469D01*
X434080Y144926D01*
X432894Y145082D01*
X432106D01*
X430920Y144926D01*
X429815Y144469D01*
X428866Y143740D01*
X428138Y142791D01*
X427680Y141686D01*
X427524Y140500D01*
X427680Y139314D01*
X428138Y138209D01*
X428866Y137260D01*
X429815Y136531D01*
X430920Y136074D01*
X432106Y135917D01*
X432894D01*
X434080Y136074D01*
X435185Y136531D01*
X436134Y137260D01*
X436862Y138209D01*
X437220Y139073D01*
X437780D01*
X438138Y138209D01*
X438866Y137260D01*
X439815Y136531D01*
X440920Y136074D01*
X442106Y135917D01*
X442894D01*
X444080Y136074D01*
X445185Y136531D01*
X446134Y137260D01*
X446862Y138209D01*
X447320Y139314D01*
X447476Y140500D01*
X447320Y141686D01*
X446862Y142791D01*
X446134Y143740D01*
X445185Y144469D01*
X444080Y144926D01*
X442894Y145082D01*
D02*
G37*
G36*
X342894Y145082D02*
X342106D01*
X340920Y144926D01*
X339815Y144469D01*
X338866Y143740D01*
X338138Y142791D01*
X337780Y141927D01*
X337220D01*
X336862Y142791D01*
X336134Y143740D01*
X335185Y144469D01*
X334080Y144926D01*
X332894Y145082D01*
X332106D01*
X330920Y144926D01*
X329815Y144469D01*
X328866Y143740D01*
X328138Y142791D01*
X327680Y141686D01*
X327524Y140500D01*
X327680Y139314D01*
X328138Y138209D01*
X328866Y137260D01*
X329815Y136531D01*
X330920Y136074D01*
X332106Y135917D01*
X332894D01*
X334080Y136074D01*
X335185Y136531D01*
X336134Y137260D01*
X336862Y138209D01*
X337220Y139073D01*
X337780D01*
X338138Y138209D01*
X338866Y137260D01*
X339815Y136531D01*
X340920Y136074D01*
X342106Y135917D01*
X342894D01*
X344080Y136074D01*
X345185Y136531D01*
X346134Y137260D01*
X346862Y138209D01*
X347320Y139314D01*
X347476Y140500D01*
X347320Y141686D01*
X346862Y142791D01*
X346134Y143740D01*
X345185Y144469D01*
X344080Y144926D01*
X342894Y145082D01*
D02*
G37*
G36*
X442894Y135082D02*
X442106D01*
X440920Y134926D01*
X439815Y134469D01*
X438866Y133740D01*
X438138Y132791D01*
X437780Y131927D01*
X437220D01*
X436862Y132791D01*
X436134Y133740D01*
X435185Y134469D01*
X434080Y134926D01*
X432894Y135082D01*
X432106D01*
X430920Y134926D01*
X429815Y134469D01*
X428866Y133740D01*
X428138Y132791D01*
X427680Y131686D01*
X427524Y130500D01*
X427680Y129314D01*
X428138Y128209D01*
X428866Y127260D01*
X429815Y126531D01*
X430920Y126074D01*
X432106Y125917D01*
X432894D01*
X434080Y126074D01*
X435185Y126531D01*
X436134Y127260D01*
X436862Y128209D01*
X437220Y129073D01*
X437780D01*
X438138Y128209D01*
X438866Y127260D01*
X439815Y126531D01*
X440920Y126074D01*
X442106Y125917D01*
X442894D01*
X444080Y126074D01*
X445185Y126531D01*
X446134Y127260D01*
X446862Y128209D01*
X447320Y129314D01*
X447476Y130500D01*
X447320Y131686D01*
X446862Y132791D01*
X446134Y133740D01*
X445185Y134469D01*
X444080Y134926D01*
X442894Y135082D01*
D02*
G37*
G36*
X332894D02*
X332106D01*
X330920Y134926D01*
X329815Y134469D01*
X328866Y133740D01*
X328138Y132791D01*
X327680Y131686D01*
X327524Y130500D01*
X327680Y129314D01*
X328138Y128209D01*
X328866Y127260D01*
X329815Y126531D01*
X330920Y126074D01*
X332106Y125917D01*
X332894D01*
X334080Y126074D01*
X335185Y126531D01*
X336134Y127260D01*
X336862Y128209D01*
X337220Y129073D01*
X337780D01*
X338138Y128209D01*
X338866Y127260D01*
X339815Y126531D01*
X340920Y126074D01*
X342106Y125917D01*
X342894D01*
X344080Y126074D01*
X345185Y126531D01*
X346134Y127260D01*
X346862Y128209D01*
X347320Y129314D01*
X347476Y130500D01*
X347320Y131686D01*
X346862Y132791D01*
X346134Y133740D01*
X345185Y134469D01*
X344080Y134926D01*
X342894Y135082D01*
X342106D01*
X340920Y134926D01*
X339815Y134469D01*
X338866Y133740D01*
X338138Y132791D01*
X337780Y131927D01*
X337220D01*
X336862Y132791D01*
X336134Y133740D01*
X335185Y134469D01*
X334080Y134926D01*
X332894Y135082D01*
D02*
G37*
G36*
X442894Y125083D02*
X442106D01*
X440920Y124926D01*
X439815Y124469D01*
X438866Y123740D01*
X438138Y122791D01*
X437780Y121927D01*
X437220D01*
X436862Y122791D01*
X436134Y123740D01*
X435185Y124469D01*
X434080Y124926D01*
X432894Y125083D01*
X432106D01*
X430920Y124926D01*
X429815Y124469D01*
X428866Y123740D01*
X428138Y122791D01*
X427680Y121686D01*
X427524Y120500D01*
X427680Y119314D01*
X428138Y118209D01*
X428866Y117260D01*
X429815Y116531D01*
X430920Y116074D01*
X432106Y115918D01*
X432894D01*
X434080Y116074D01*
X435185Y116531D01*
X436134Y117260D01*
X436862Y118209D01*
X437220Y119073D01*
X437780D01*
X438138Y118209D01*
X438866Y117260D01*
X439815Y116531D01*
X440920Y116074D01*
X442106Y115918D01*
X442894D01*
X444080Y116074D01*
X445185Y116531D01*
X446134Y117260D01*
X446862Y118209D01*
X447320Y119314D01*
X447476Y120500D01*
X447320Y121686D01*
X446862Y122791D01*
X446134Y123740D01*
X445185Y124469D01*
X444080Y124926D01*
X442894Y125083D01*
D02*
G37*
G36*
X342894D02*
X342106D01*
X340920Y124926D01*
X339815Y124469D01*
X338866Y123740D01*
X338138Y122791D01*
X337780Y121927D01*
X337220D01*
X336862Y122791D01*
X336134Y123740D01*
X335185Y124469D01*
X334080Y124926D01*
X332894Y125083D01*
X332106D01*
X330920Y124926D01*
X329815Y124469D01*
X328866Y123740D01*
X328138Y122791D01*
X327680Y121686D01*
X327524Y120500D01*
X327680Y119314D01*
X328138Y118209D01*
X328866Y117260D01*
X329815Y116531D01*
X330920Y116074D01*
X332106Y115918D01*
X332894D01*
X334080Y116074D01*
X335185Y116531D01*
X336134Y117260D01*
X336862Y118209D01*
X337220Y119073D01*
X337780D01*
X338138Y118209D01*
X338866Y117260D01*
X339815Y116531D01*
X340920Y116074D01*
X342106Y115918D01*
X342894D01*
X344080Y116074D01*
X345185Y116531D01*
X346134Y117260D01*
X346862Y118209D01*
X347320Y119314D01*
X347476Y120500D01*
X347320Y121686D01*
X346862Y122791D01*
X346134Y123740D01*
X345185Y124469D01*
X344080Y124926D01*
X342894Y125083D01*
D02*
G37*
G36*
X443000Y115068D02*
Y111000D01*
X447410D01*
X447320Y111686D01*
X446862Y112791D01*
X446134Y113740D01*
X445185Y114469D01*
X444080Y114926D01*
X443000Y115068D01*
D02*
G37*
G36*
X343000Y115068D02*
Y111000D01*
X347410D01*
X347320Y111686D01*
X346862Y112791D01*
X346134Y113740D01*
X345185Y114469D01*
X344080Y114926D01*
X343000Y115068D01*
D02*
G37*
G36*
X432000D02*
X430920Y114926D01*
X429815Y114469D01*
X428866Y113740D01*
X428138Y112791D01*
X427680Y111686D01*
X427590Y111000D01*
X432000D01*
Y115068D01*
D02*
G37*
G36*
X332000D02*
X330920Y114926D01*
X329815Y114469D01*
X328866Y113740D01*
X328138Y112791D01*
X327680Y111686D01*
X327590Y111000D01*
X332000D01*
Y115068D01*
D02*
G37*
%LPD*%
G36*
X431220Y447091D02*
X431149Y447119D01*
X431077Y447126D01*
X431003Y447115D01*
X430929Y447084D01*
X430853Y447033D01*
X430776Y446963D01*
X430697Y446874D01*
X430618Y446765D01*
X430537Y446637D01*
X430455Y446489D01*
X429744Y446857D01*
X429820Y447009D01*
X429880Y447149D01*
X429925Y447277D01*
X429954Y447393D01*
X429968Y447497D01*
X429967Y447588D01*
X429950Y447668D01*
X429918Y447735D01*
X429871Y447790D01*
X429808Y447834D01*
X431220Y447091D01*
D02*
G37*
G36*
Y437091D02*
X431149Y437118D01*
X431077Y437126D01*
X431003Y437115D01*
X430929Y437084D01*
X430853Y437033D01*
X430776Y436963D01*
X430697Y436874D01*
X430618Y436765D01*
X430537Y436637D01*
X430455Y436489D01*
X429744Y436857D01*
X429820Y437009D01*
X429880Y437149D01*
X429925Y437277D01*
X429954Y437393D01*
X429968Y437497D01*
X429967Y437589D01*
X429950Y437668D01*
X429918Y437735D01*
X429871Y437790D01*
X429808Y437834D01*
X431220Y437091D01*
D02*
G37*
G36*
Y427091D02*
X431149Y427118D01*
X431077Y427126D01*
X431003Y427115D01*
X430929Y427084D01*
X430853Y427033D01*
X430776Y426963D01*
X430697Y426874D01*
X430618Y426765D01*
X430537Y426637D01*
X430455Y426489D01*
X429744Y426857D01*
X429820Y427009D01*
X429880Y427149D01*
X429925Y427277D01*
X429954Y427393D01*
X429968Y427497D01*
X429967Y427589D01*
X429950Y427668D01*
X429918Y427735D01*
X429871Y427790D01*
X429808Y427834D01*
X431220Y427091D01*
D02*
G37*
G36*
Y417091D02*
X431149Y417119D01*
X431077Y417126D01*
X431003Y417115D01*
X430929Y417084D01*
X430853Y417033D01*
X430776Y416963D01*
X430697Y416874D01*
X430618Y416765D01*
X430537Y416637D01*
X430455Y416489D01*
X429744Y416857D01*
X429820Y417009D01*
X429880Y417149D01*
X429925Y417277D01*
X429954Y417393D01*
X429968Y417497D01*
X429967Y417589D01*
X429950Y417668D01*
X429918Y417735D01*
X429871Y417791D01*
X429808Y417834D01*
X431220Y417091D01*
D02*
G37*
G36*
Y407091D02*
X431149Y407119D01*
X431077Y407126D01*
X431003Y407115D01*
X430929Y407084D01*
X430853Y407033D01*
X430776Y406963D01*
X430697Y406874D01*
X430618Y406765D01*
X430537Y406637D01*
X430455Y406489D01*
X429744Y406857D01*
X429820Y407009D01*
X429880Y407149D01*
X429925Y407277D01*
X429954Y407393D01*
X429968Y407497D01*
X429967Y407588D01*
X429950Y407668D01*
X429918Y407735D01*
X429871Y407791D01*
X429808Y407834D01*
X431220Y407091D01*
D02*
G37*
G36*
Y397091D02*
X431149Y397118D01*
X431077Y397126D01*
X431003Y397115D01*
X430929Y397084D01*
X430853Y397033D01*
X430776Y396963D01*
X430697Y396874D01*
X430618Y396765D01*
X430537Y396637D01*
X430455Y396489D01*
X429744Y396857D01*
X429820Y397009D01*
X429880Y397149D01*
X429925Y397277D01*
X429954Y397393D01*
X429968Y397497D01*
X429967Y397588D01*
X429950Y397668D01*
X429918Y397735D01*
X429871Y397791D01*
X429808Y397834D01*
X431220Y397091D01*
D02*
G37*
G36*
Y387091D02*
X431149Y387119D01*
X431077Y387126D01*
X431003Y387115D01*
X430929Y387084D01*
X430853Y387033D01*
X430776Y386963D01*
X430697Y386874D01*
X430618Y386765D01*
X430537Y386637D01*
X430455Y386489D01*
X429744Y386857D01*
X429820Y387009D01*
X429880Y387149D01*
X429925Y387277D01*
X429954Y387393D01*
X429968Y387497D01*
X429967Y387589D01*
X429950Y387668D01*
X429918Y387735D01*
X429871Y387790D01*
X429808Y387834D01*
X431220Y387091D01*
D02*
G37*
G36*
X425544Y417719D02*
X420171Y382306D01*
X420171Y382305D01*
X420168Y382305D01*
X420106Y381514D01*
X420067Y381375D01*
X419623Y375209D01*
X416859D01*
X416854Y375200D01*
X416807Y375103D01*
X416800Y375086D01*
Y374388D01*
X416800Y374388D01*
X416844Y374315D01*
X416896Y374258D01*
X416956Y374217D01*
X417024Y374193D01*
X417100Y374185D01*
X416800D01*
Y371650D01*
X415800D01*
Y374185D01*
X415500D01*
X415576Y374193D01*
X415644Y374217D01*
X415704Y374258D01*
X415756Y374315D01*
X415800Y374388D01*
Y375086D01*
X415793Y375103D01*
X415746Y375200D01*
X415741Y375209D01*
X413025D01*
X412725Y375609D01*
X425055Y417827D01*
X425544Y417719D01*
D02*
G37*
G36*
X412029Y367746D02*
X412116Y367673D01*
X412207Y367609D01*
X412300Y367554D01*
X412397Y367507D01*
X412496Y367468D01*
X412598Y367438D01*
X412702Y367417D01*
X412810Y367404D01*
X412854Y367403D01*
X412910Y367404D01*
X413048Y367416D01*
X413170Y367436D01*
X413276Y367464D01*
X413365Y367500D01*
X413438Y367544D01*
X413495Y367596D01*
X413535Y367656D01*
X413560Y367724D01*
X413568Y367800D01*
Y366200D01*
X413560Y366276D01*
X413535Y366344D01*
X413495Y366404D01*
X413438Y366456D01*
X413365Y366500D01*
X413276Y366536D01*
X413170Y366564D01*
X413048Y366584D01*
X412910Y366596D01*
X412854Y366597D01*
X412810Y366596D01*
X412702Y366583D01*
X412598Y366562D01*
X412496Y366532D01*
X412397Y366493D01*
X412300Y366446D01*
X412207Y366391D01*
X412116Y366327D01*
X412029Y366254D01*
X411943Y366173D01*
Y367827D01*
X412029Y367746D01*
D02*
G37*
G36*
X410163Y363715D02*
X410208Y363616D01*
X410259Y363522D01*
X410318Y363434D01*
X410385Y363351D01*
X410458Y363273D01*
X410539Y363201D01*
X410627Y363133D01*
X410723Y363071D01*
X410826Y363014D01*
X409248Y362520D01*
X409300Y362625D01*
X409343Y362731D01*
X409377Y362836D01*
X409402Y362942D01*
X409418Y363048D01*
X409425Y363154D01*
X409423Y363260D01*
X409412Y363366D01*
X409392Y363473D01*
X409363Y363579D01*
X410126Y363818D01*
X410163Y363715D01*
D02*
G37*
G36*
X410934Y359608D02*
X411041Y359568D01*
X411147Y359537D01*
X411254Y359516D01*
X411360Y359503D01*
X411466Y359499D01*
X411572Y359504D01*
X411678Y359518D01*
X411784Y359541D01*
X411889Y359573D01*
X412151Y358817D01*
X412048Y358777D01*
X411951Y358729D01*
X411859Y358675D01*
X411772Y358613D01*
X411691Y358545D01*
X411616Y358469D01*
X411545Y358386D01*
X411481Y358296D01*
X411421Y358199D01*
X411367Y358094D01*
X410827Y359657D01*
X410934Y359608D01*
D02*
G37*
G36*
X412097Y355732D02*
X412001Y355677D01*
X411912Y355616D01*
X411829Y355548D01*
X411753Y355474D01*
X411683Y355394D01*
X411620Y355308D01*
X411563Y355215D01*
X411513Y355116D01*
X411469Y355011D01*
X411432Y354900D01*
X410661Y356363D01*
X410774Y356330D01*
X410885Y356307D01*
X410995Y356293D01*
X411104Y356287D01*
X411211Y356291D01*
X411316Y356303D01*
X411420Y356324D01*
X411523Y356354D01*
X411624Y356393D01*
X411724Y356440D01*
X412097Y355732D01*
D02*
G37*
G36*
X412030Y352569D02*
X411941Y352503D01*
X411859Y352432D01*
X411785Y352356D01*
X411718Y352274D01*
X411657Y352186D01*
X411604Y352093D01*
X411558Y351995D01*
X411519Y351891D01*
X411487Y351781D01*
X411462Y351666D01*
X410532Y353034D01*
X410648Y353014D01*
X410762Y353004D01*
X410873Y353002D01*
X410981Y353009D01*
X411087Y353024D01*
X411191Y353048D01*
X411292Y353081D01*
X411390Y353122D01*
X411486Y353172D01*
X411580Y353230D01*
X412030Y352569D01*
D02*
G37*
G36*
X411967Y349346D02*
X411884Y349274D01*
X411808Y349196D01*
X411740Y349114D01*
X411680Y349027D01*
X411627Y348935D01*
X411582Y348837D01*
X411544Y348736D01*
X411514Y348629D01*
X411491Y348517D01*
X411476Y348401D01*
X410436Y349687D01*
X410553Y349677D01*
X410667Y349676D01*
X410778Y349683D01*
X410886Y349699D01*
X410990Y349723D01*
X411091Y349755D01*
X411189Y349796D01*
X411284Y349845D01*
X411376Y349903D01*
X411464Y349969D01*
X411967Y349346D01*
D02*
G37*
G36*
X345129Y447790D02*
X345082Y447735D01*
X345050Y447668D01*
X345033Y447588D01*
X345032Y447497D01*
X345046Y447393D01*
X345075Y447277D01*
X345120Y447149D01*
X345180Y447009D01*
X345255Y446857D01*
X344545Y446489D01*
X344463Y446637D01*
X344382Y446765D01*
X344303Y446874D01*
X344224Y446963D01*
X344147Y447033D01*
X344071Y447084D01*
X343997Y447115D01*
X343923Y447126D01*
X343851Y447119D01*
X343780Y447091D01*
X345192Y447834D01*
X345129Y447790D01*
D02*
G37*
G36*
Y437790D02*
X345082Y437735D01*
X345050Y437668D01*
X345033Y437589D01*
X345032Y437497D01*
X345046Y437393D01*
X345075Y437277D01*
X345120Y437149D01*
X345180Y437009D01*
X345255Y436857D01*
X344545Y436489D01*
X344463Y436637D01*
X344382Y436765D01*
X344303Y436874D01*
X344224Y436963D01*
X344147Y437033D01*
X344071Y437084D01*
X343997Y437115D01*
X343923Y437126D01*
X343851Y437118D01*
X343780Y437091D01*
X345192Y437834D01*
X345129Y437790D01*
D02*
G37*
G36*
Y427790D02*
X345082Y427735D01*
X345050Y427668D01*
X345033Y427589D01*
X345032Y427497D01*
X345046Y427393D01*
X345075Y427277D01*
X345120Y427149D01*
X345180Y427009D01*
X345255Y426857D01*
X344545Y426489D01*
X344463Y426637D01*
X344382Y426765D01*
X344303Y426874D01*
X344224Y426963D01*
X344147Y427033D01*
X344071Y427084D01*
X343997Y427115D01*
X343923Y427126D01*
X343851Y427118D01*
X343780Y427091D01*
X345192Y427834D01*
X345129Y427790D01*
D02*
G37*
G36*
Y417791D02*
X345082Y417735D01*
X345050Y417668D01*
X345033Y417589D01*
X345032Y417497D01*
X345046Y417393D01*
X345075Y417277D01*
X345120Y417149D01*
X345180Y417009D01*
X345255Y416857D01*
X344545Y416489D01*
X344463Y416637D01*
X344382Y416765D01*
X344303Y416874D01*
X344224Y416963D01*
X344147Y417033D01*
X344071Y417084D01*
X343997Y417115D01*
X343923Y417126D01*
X343851Y417119D01*
X343780Y417091D01*
X345192Y417834D01*
X345129Y417791D01*
D02*
G37*
G36*
Y407791D02*
X345082Y407735D01*
X345050Y407668D01*
X345033Y407588D01*
X345032Y407497D01*
X345046Y407393D01*
X345075Y407277D01*
X345120Y407149D01*
X345180Y407009D01*
X345255Y406857D01*
X344545Y406489D01*
X344463Y406637D01*
X344382Y406765D01*
X344303Y406874D01*
X344224Y406963D01*
X344147Y407033D01*
X344071Y407084D01*
X343997Y407115D01*
X343923Y407126D01*
X343851Y407119D01*
X343780Y407091D01*
X345192Y407834D01*
X345129Y407791D01*
D02*
G37*
G36*
X366354Y375724D02*
X366379Y375656D01*
X366419Y375596D01*
X366476Y375544D01*
X366549Y375500D01*
X366638Y375464D01*
X366744Y375436D01*
X366866Y375416D01*
X367004Y375404D01*
X367158Y375400D01*
Y374600D01*
X367004Y374596D01*
X366866Y374584D01*
X366744Y374564D01*
X366638Y374536D01*
X366549Y374500D01*
X366476Y374456D01*
X366419Y374404D01*
X366379Y374344D01*
X366354Y374276D01*
X366346Y374200D01*
Y375800D01*
X366354Y375724D01*
D02*
G37*
G36*
X380374Y358760D02*
X380306Y358736D01*
X380246Y358695D01*
X380194Y358638D01*
X380150Y358565D01*
X380114Y358476D01*
X380086Y358370D01*
X380066Y358248D01*
X380054Y358110D01*
X380050Y357956D01*
X379250D01*
X379246Y358110D01*
X379234Y358248D01*
X379214Y358370D01*
X379186Y358476D01*
X379150Y358565D01*
X379106Y358638D01*
X379054Y358695D01*
X378994Y358736D01*
X378926Y358760D01*
X378850Y358768D01*
X380450D01*
X380374Y358760D01*
D02*
G37*
G36*
X380054Y356223D02*
X380066Y356087D01*
X380086Y355967D01*
X380114Y355863D01*
X380150Y355775D01*
X380194Y355703D01*
X380246Y355647D01*
X380306Y355607D01*
X380374Y355583D01*
X380450Y355575D01*
X378850D01*
X378926Y355583D01*
X378994Y355607D01*
X379054Y355647D01*
X379106Y355703D01*
X379150Y355775D01*
X379186Y355863D01*
X379214Y355967D01*
X379234Y356087D01*
X379246Y356223D01*
X379250Y356375D01*
X380050D01*
X380054Y356223D01*
D02*
G37*
G36*
X378168Y350094D02*
X378151Y350078D01*
X378136Y350052D01*
X378123Y350016D01*
X378112Y349970D01*
X378103Y349914D01*
X378096Y349848D01*
X378088Y349684D01*
X378087Y349587D01*
X377287D01*
X377299Y350087D01*
X378187Y350099D01*
X378168Y350094D01*
D02*
G37*
G36*
X359356Y350995D02*
X359387Y350953D01*
X359438Y350916D01*
X359508Y350884D01*
X359599Y350857D01*
X359710Y350834D01*
X359841Y350817D01*
X360164Y350797D01*
X360355Y350795D01*
Y349295D01*
X359358Y349457D01*
X359346Y351042D01*
X359356Y350995D01*
D02*
G37*
G36*
X368164Y350568D02*
X368187Y350512D01*
X368224Y350462D01*
X368276Y350419D01*
X368343Y350383D01*
X368425Y350353D01*
X368521Y350330D01*
X368633Y350313D01*
X368759Y350303D01*
X368900Y350300D01*
Y349500D01*
X368759Y349497D01*
X368633Y349487D01*
X368521Y349470D01*
X368425Y349447D01*
X368343Y349417D01*
X368276Y349381D01*
X368224Y349338D01*
X368187Y349288D01*
X368164Y349232D01*
X368157Y349169D01*
Y350631D01*
X368164Y350568D01*
D02*
G37*
G36*
X364929Y350646D02*
X365016Y350573D01*
X365107Y350509D01*
X365200Y350454D01*
X365297Y350407D01*
X365396Y350368D01*
X365477Y350344D01*
X365551Y350364D01*
X365640Y350400D01*
X365713Y350444D01*
X365770Y350496D01*
X365810Y350556D01*
X365835Y350624D01*
X365843Y350700D01*
Y349100D01*
X365835Y349176D01*
X365810Y349244D01*
X365770Y349304D01*
X365713Y349356D01*
X365640Y349400D01*
X365551Y349436D01*
X365477Y349455D01*
X365396Y349432D01*
X365297Y349393D01*
X365200Y349346D01*
X365107Y349291D01*
X365016Y349227D01*
X364929Y349154D01*
X364844Y349073D01*
Y350727D01*
X364929Y350646D01*
D02*
G37*
G36*
Y346746D02*
X365016Y346673D01*
X365107Y346609D01*
X365200Y346554D01*
X365297Y346507D01*
X365396Y346468D01*
X365477Y346445D01*
X365551Y346464D01*
X365640Y346500D01*
X365713Y346544D01*
X365770Y346596D01*
X365810Y346656D01*
X365835Y346724D01*
X365843Y346800D01*
Y345200D01*
X365835Y345276D01*
X365810Y345344D01*
X365770Y345404D01*
X365713Y345456D01*
X365640Y345500D01*
X365551Y345536D01*
X365477Y345555D01*
X365396Y345532D01*
X365297Y345493D01*
X365200Y345446D01*
X365107Y345391D01*
X365016Y345327D01*
X364929Y345254D01*
X364844Y345173D01*
Y346827D01*
X364929Y346746D01*
D02*
G37*
G36*
X371012Y344700D02*
X371004Y344776D01*
X370980Y344844D01*
X370939Y344904D01*
X370882Y344956D01*
X370809Y345000D01*
X370720Y345036D01*
X370614Y345064D01*
X370493Y345084D01*
X370355Y345096D01*
X370200Y345100D01*
Y345900D01*
X370355Y345904D01*
X370493Y345916D01*
X370614Y345936D01*
X370720Y345964D01*
X370809Y346000D01*
X370882Y346044D01*
X370939Y346096D01*
X370980Y346156D01*
X371004Y346224D01*
X371012Y346300D01*
Y344700D01*
D02*
G37*
G36*
X368165Y346224D02*
X368190Y346156D01*
X368230Y346096D01*
X368287Y346044D01*
X368360Y346000D01*
X368449Y345964D01*
X368555Y345936D01*
X368677Y345916D01*
X368815Y345904D01*
X368969Y345900D01*
Y345100D01*
X368815Y345096D01*
X368677Y345084D01*
X368555Y345064D01*
X368449Y345036D01*
X368360Y345000D01*
X368287Y344956D01*
X368230Y344904D01*
X368190Y344844D01*
X368165Y344776D01*
X368157Y344700D01*
Y346300D01*
X368165Y346224D01*
D02*
G37*
G36*
X358224Y344343D02*
X358156Y344318D01*
X358096Y344278D01*
X358044Y344221D01*
X358000Y344148D01*
X357964Y344058D01*
X357936Y343953D01*
X357916Y343831D01*
X357904Y343693D01*
X357900Y343539D01*
X357100D01*
X357096Y343693D01*
X357084Y343831D01*
X357064Y343953D01*
X357036Y344058D01*
X357000Y344148D01*
X356956Y344221D01*
X356904Y344278D01*
X356844Y344318D01*
X356776Y344343D01*
X356700Y344351D01*
X358300D01*
X358224Y344343D01*
D02*
G37*
G36*
X357904Y343315D02*
X357916Y343177D01*
X357936Y343055D01*
X357964Y342949D01*
X358000Y342860D01*
X358044Y342787D01*
X358096Y342730D01*
X358156Y342690D01*
X358224Y342665D01*
X358300Y342657D01*
X356700D01*
X356776Y342665D01*
X356844Y342690D01*
X356904Y342730D01*
X356956Y342787D01*
X357000Y342860D01*
X357036Y342949D01*
X357064Y343055D01*
X357084Y343177D01*
X357096Y343315D01*
X357100Y343469D01*
X357900D01*
X357904Y343315D01*
D02*
G37*
G36*
X363179Y343482D02*
X363589Y343125D01*
X363630Y343101D01*
X363663Y343086D01*
X363688Y343081D01*
X362519Y341912D01*
X362514Y341937D01*
X362499Y341970D01*
X362475Y342011D01*
X362440Y342060D01*
X362341Y342181D01*
X362202Y342333D01*
X362023Y342516D01*
X363084Y343577D01*
X363179Y343482D01*
D02*
G37*
G36*
X356264Y340700D02*
X356256Y340776D01*
X356232Y340844D01*
X356191Y340904D01*
X356134Y340956D01*
X356061Y341000D01*
X355972Y341036D01*
X355866Y341064D01*
X355745Y341084D01*
X355606Y341096D01*
X355452Y341100D01*
Y341900D01*
X355606Y341904D01*
X355745Y341916D01*
X355866Y341936D01*
X355972Y341964D01*
X356061Y342000D01*
X356134Y342044D01*
X356191Y342096D01*
X356232Y342156D01*
X356256Y342224D01*
X356264Y342300D01*
Y340700D01*
D02*
G37*
G36*
X374074Y341429D02*
X374006Y341405D01*
X373946Y341364D01*
X373894Y341308D01*
X373850Y341234D01*
X373814Y341145D01*
X373786Y341040D01*
X373766Y340918D01*
X373754Y340780D01*
X373750Y340626D01*
X372950D01*
X372946Y340780D01*
X372934Y340918D01*
X372914Y341040D01*
X372886Y341145D01*
X372850Y341234D01*
X372806Y341308D01*
X372754Y341364D01*
X372694Y341405D01*
X372626Y341429D01*
X372550Y341438D01*
X374150D01*
X374074Y341429D01*
D02*
G37*
G36*
X373754Y338890D02*
X373766Y338752D01*
X373786Y338630D01*
X373814Y338524D01*
X373850Y338435D01*
X373894Y338362D01*
X373946Y338305D01*
X374006Y338264D01*
X374074Y338240D01*
X374150Y338232D01*
X372550D01*
X372626Y338240D01*
X372694Y338264D01*
X372754Y338305D01*
X372806Y338362D01*
X372850Y338435D01*
X372886Y338524D01*
X372914Y338630D01*
X372934Y338752D01*
X372946Y338890D01*
X372950Y339044D01*
X373750D01*
X373754Y338890D01*
D02*
G37*
G36*
X413189Y325440D02*
X413207Y325328D01*
X413232Y325219D01*
X413265Y325116D01*
X413306Y325017D01*
X413354Y324922D01*
X413411Y324832D01*
X413475Y324747D01*
X413546Y324666D01*
X413626Y324589D01*
X413094Y323992D01*
X413009Y324062D01*
X412920Y324124D01*
X412828Y324177D01*
X412732Y324222D01*
X412632Y324260D01*
X412529Y324289D01*
X412423Y324309D01*
X412312Y324322D01*
X412198Y324326D01*
X412081Y324322D01*
X413180Y325557D01*
X413189Y325440D01*
D02*
G37*
G36*
X430537Y284363D02*
X430618Y284235D01*
X430697Y284126D01*
X430776Y284037D01*
X430853Y283967D01*
X430929Y283916D01*
X431003Y283885D01*
X431077Y283874D01*
X431149Y283881D01*
X431220Y283909D01*
X429808Y283166D01*
X429871Y283209D01*
X429918Y283265D01*
X429950Y283332D01*
X429967Y283412D01*
X429968Y283503D01*
X429954Y283607D01*
X429925Y283723D01*
X429880Y283851D01*
X429820Y283991D01*
X429744Y284143D01*
X430455Y284511D01*
X430537Y284363D01*
D02*
G37*
G36*
Y274363D02*
X430618Y274235D01*
X430697Y274126D01*
X430776Y274037D01*
X430853Y273967D01*
X430929Y273916D01*
X431003Y273885D01*
X431077Y273874D01*
X431149Y273882D01*
X431220Y273909D01*
X429808Y273166D01*
X429871Y273210D01*
X429918Y273265D01*
X429950Y273332D01*
X429967Y273411D01*
X429968Y273503D01*
X429954Y273607D01*
X429925Y273723D01*
X429880Y273851D01*
X429820Y273991D01*
X429744Y274143D01*
X430455Y274511D01*
X430537Y274363D01*
D02*
G37*
G36*
Y264363D02*
X430618Y264235D01*
X430697Y264126D01*
X430776Y264037D01*
X430853Y263967D01*
X430929Y263916D01*
X431003Y263885D01*
X431077Y263874D01*
X431149Y263881D01*
X431220Y263909D01*
X429808Y263166D01*
X429871Y263210D01*
X429918Y263265D01*
X429950Y263332D01*
X429967Y263411D01*
X429968Y263503D01*
X429954Y263607D01*
X429925Y263723D01*
X429880Y263851D01*
X429820Y263991D01*
X429744Y264143D01*
X430455Y264511D01*
X430537Y264363D01*
D02*
G37*
G36*
Y254363D02*
X430618Y254235D01*
X430697Y254126D01*
X430776Y254037D01*
X430853Y253967D01*
X430929Y253916D01*
X431003Y253885D01*
X431077Y253874D01*
X431149Y253882D01*
X431220Y253909D01*
X429808Y253166D01*
X429871Y253209D01*
X429918Y253265D01*
X429950Y253332D01*
X429967Y253412D01*
X429968Y253503D01*
X429954Y253607D01*
X429925Y253723D01*
X429880Y253851D01*
X429820Y253991D01*
X429744Y254143D01*
X430455Y254511D01*
X430537Y254363D01*
D02*
G37*
G36*
X430537Y244363D02*
X430618Y244235D01*
X430697Y244126D01*
X430776Y244037D01*
X430853Y243967D01*
X430929Y243916D01*
X431003Y243885D01*
X431077Y243874D01*
X431149Y243882D01*
X431220Y243909D01*
X429808Y243166D01*
X429871Y243210D01*
X429918Y243265D01*
X429950Y243332D01*
X429967Y243411D01*
X429968Y243503D01*
X429954Y243607D01*
X429925Y243723D01*
X429880Y243851D01*
X429820Y243991D01*
X429744Y244143D01*
X430455Y244511D01*
X430537Y244363D01*
D02*
G37*
G36*
X364613Y328522D02*
X364496Y328527D01*
X364382Y328523D01*
X364271Y328511D01*
X364165Y328491D01*
X364061Y328463D01*
X363962Y328426D01*
X363865Y328381D01*
X363773Y328328D01*
X363684Y328267D01*
X363598Y328197D01*
X363070Y328798D01*
X363149Y328874D01*
X363222Y328954D01*
X363286Y329040D01*
X363343Y329129D01*
X363392Y329224D01*
X363433Y329322D01*
X363467Y329426D01*
X363492Y329534D01*
X363510Y329646D01*
X363521Y329763D01*
X364613Y328522D01*
D02*
G37*
G36*
X364386Y325061D02*
X364272Y325089D01*
X364159Y325107D01*
X364049Y325117D01*
X363940Y325118D01*
X363833Y325110D01*
X363728Y325094D01*
X363625Y325068D01*
X363524Y325034D01*
X363425Y324991D01*
X363327Y324940D01*
X362925Y325631D01*
X363019Y325691D01*
X363105Y325756D01*
X363185Y325827D01*
X363258Y325904D01*
X363324Y325987D01*
X363384Y326076D01*
X363437Y326170D01*
X363483Y326271D01*
X363523Y326378D01*
X363555Y326491D01*
X364386Y325061D01*
D02*
G37*
G36*
X363921Y321812D02*
X363830Y321886D01*
X363737Y321952D01*
X363642Y322009D01*
X363545Y322057D01*
X363445Y322097D01*
X363344Y322128D01*
X363240Y322150D01*
X363134Y322163D01*
X363026Y322168D01*
X362915Y322164D01*
X362855Y322961D01*
X362965Y322974D01*
X363071Y322995D01*
X363174Y323024D01*
X363273Y323061D01*
X363369Y323107D01*
X363461Y323161D01*
X363550Y323224D01*
X363636Y323294D01*
X363718Y323373D01*
X363796Y323461D01*
X363921Y321812D01*
D02*
G37*
G36*
X345255Y284143D02*
X345180Y283991D01*
X345120Y283851D01*
X345075Y283723D01*
X345046Y283607D01*
X345032Y283503D01*
X345033Y283412D01*
X345050Y283332D01*
X345082Y283265D01*
X345129Y283209D01*
X345192Y283166D01*
X343780Y283909D01*
X343851Y283881D01*
X343923Y283874D01*
X343997Y283885D01*
X344071Y283916D01*
X344147Y283967D01*
X344224Y284037D01*
X344303Y284126D01*
X344382Y284235D01*
X344463Y284363D01*
X344545Y284511D01*
X345255Y284143D01*
D02*
G37*
G36*
Y274143D02*
X345180Y273991D01*
X345120Y273851D01*
X345075Y273723D01*
X345046Y273607D01*
X345032Y273503D01*
X345033Y273411D01*
X345050Y273332D01*
X345082Y273265D01*
X345129Y273210D01*
X345192Y273166D01*
X343780Y273909D01*
X343851Y273882D01*
X343923Y273874D01*
X343997Y273885D01*
X344071Y273916D01*
X344147Y273967D01*
X344224Y274037D01*
X344303Y274126D01*
X344382Y274235D01*
X344463Y274363D01*
X344545Y274511D01*
X345255Y274143D01*
D02*
G37*
G36*
Y264143D02*
X345180Y263991D01*
X345120Y263851D01*
X345075Y263723D01*
X345046Y263607D01*
X345032Y263503D01*
X345033Y263411D01*
X345050Y263332D01*
X345082Y263265D01*
X345129Y263210D01*
X345192Y263166D01*
X343780Y263909D01*
X343851Y263881D01*
X343923Y263874D01*
X343997Y263885D01*
X344071Y263916D01*
X344147Y263967D01*
X344224Y264037D01*
X344303Y264126D01*
X344382Y264235D01*
X344463Y264363D01*
X344545Y264511D01*
X345255Y264143D01*
D02*
G37*
G36*
Y254143D02*
X345180Y253991D01*
X345120Y253851D01*
X345075Y253723D01*
X345046Y253607D01*
X345032Y253503D01*
X345033Y253412D01*
X345050Y253332D01*
X345082Y253265D01*
X345129Y253209D01*
X345192Y253166D01*
X343780Y253909D01*
X343851Y253882D01*
X343923Y253874D01*
X343997Y253885D01*
X344071Y253916D01*
X344147Y253967D01*
X344224Y254037D01*
X344303Y254126D01*
X344382Y254235D01*
X344463Y254363D01*
X344545Y254511D01*
X345255Y254143D01*
D02*
G37*
G36*
Y244143D02*
X345180Y243991D01*
X345120Y243851D01*
X345075Y243723D01*
X345046Y243607D01*
X345032Y243503D01*
X345033Y243411D01*
X345050Y243332D01*
X345082Y243265D01*
X345129Y243210D01*
X345192Y243166D01*
X343780Y243909D01*
X343851Y243882D01*
X343923Y243874D01*
X343997Y243885D01*
X344071Y243916D01*
X344147Y243967D01*
X344224Y244037D01*
X344303Y244126D01*
X344382Y244235D01*
X344463Y244363D01*
X344545Y244511D01*
X345255Y244143D01*
D02*
G37*
G36*
Y234143D02*
X345180Y233991D01*
X345120Y233851D01*
X345075Y233723D01*
X345046Y233607D01*
X345032Y233503D01*
X345033Y233412D01*
X345050Y233332D01*
X345082Y233265D01*
X345129Y233209D01*
X345192Y233166D01*
X343780Y233909D01*
X343851Y233881D01*
X343923Y233874D01*
X343997Y233885D01*
X344071Y233916D01*
X344147Y233967D01*
X344224Y234037D01*
X344303Y234126D01*
X344382Y234235D01*
X344463Y234363D01*
X344545Y234511D01*
X345255Y234143D01*
D02*
G37*
D16*
X357500Y338035D02*
D03*
Y341500D02*
D03*
D26*
X411785Y318086D02*
G03*
X411813Y318057I582J549D01*
G01*
X411977Y317861D02*
G03*
X411816Y318054I-918J-605D01*
G01*
X418445Y317428D02*
G03*
X417952Y318182I-1086J-173D01*
G01*
X406317Y316949D02*
G03*
X406461Y316725I736J314D01*
G01*
X427994Y432656D02*
G03*
X427651Y431808I4112J-2156D01*
G01*
X408911Y367641D02*
G03*
X408922Y366321I2189J-641D01*
G01*
X362723Y361370D02*
G03*
X362932Y361144I1777J1430D01*
G01*
X362666Y358225D02*
G03*
X362859Y358013I678J424D01*
G01*
X363336Y357642D02*
G03*
X364649Y357166I1397J1804D01*
G01*
X362485Y361731D02*
G03*
X362723Y361370I2015J1069D01*
G01*
X347376Y411714D02*
G03*
X347004Y412660I-4482J-1213D01*
G01*
X362594Y358350D02*
G03*
X362663Y358229I2011J1077D01*
G01*
X359204Y368214D02*
G03*
X359629Y367137I5096J1386D01*
G01*
X362515Y365077D02*
G03*
X362808Y364670I1985J1123D01*
G01*
X360632Y368683D02*
G03*
X361009Y367738I3668J917D01*
G01*
X357816Y367615D02*
G03*
X358304Y366432I6484J1985D01*
G01*
X361157Y361034D02*
G03*
X361167Y361015I3343J1767D01*
G01*
X407453Y367998D02*
G03*
X407331Y367301I3647J-998D01*
G01*
X427994Y442656D02*
G03*
X427628Y441725I4112J-2156D01*
G01*
X347409Y441582D02*
G03*
X347006Y442656I-4515J-1082D01*
G01*
Y238344D02*
G03*
X347435Y239532I-4112J2156D01*
G01*
D02*
G03*
X347436Y239535I-4541J968D01*
G01*
X362081Y369072D02*
G03*
X362697Y367977I2219J528D01*
G01*
X347416Y431552D02*
G03*
X347006Y432656I-4523J-1052D01*
G01*
X347334Y401859D02*
G03*
X347006Y402656I-4440J-1359D01*
G01*
X347398Y421626D02*
G03*
X347006Y422656I-4505J-1126D01*
G01*
X427994D02*
G03*
X427516Y421202I4112J-2156D01*
G01*
X427994Y412656D02*
G03*
X427516Y411202I4112J-2156D01*
G01*
X360000Y323469D02*
G03*
X358199Y320975I1900J-3269D01*
G01*
X427994Y392656D02*
G03*
X427516Y391202I4112J-2156D01*
G01*
X424549Y381643D02*
G03*
X424483Y381048I7557J-1142D01*
G01*
X427994Y402656D02*
G03*
X427516Y401202I4112J-2156D01*
G01*
X361727Y322475D02*
G03*
X359663Y320648I172J-2275D01*
G01*
X421583Y382091D02*
G03*
X421491Y381272I10524J-1592D01*
G01*
X427515Y289808D02*
G03*
X427989Y288353I4592J692D01*
G01*
X419415Y361752D02*
G03*
X420153Y362712I-359J1040D01*
G01*
X427515Y289808D02*
G03*
X427510Y289838I-2966J-454D01*
G01*
X427994Y382656D02*
G03*
X427474Y380827I4112J-2156D01*
G01*
X419924Y317675D02*
G03*
X419086Y319199I-2566J-419D01*
G01*
X427517Y259797D02*
G03*
X427989Y258353I4590J703D01*
G01*
X423067Y381872D02*
G03*
X422987Y381157I9040J-1372D01*
G01*
X420268Y360491D02*
G03*
X421649Y362604I-1212J2300D01*
G01*
X426031Y381414D02*
G03*
X425979Y380938I6075J-914D01*
G01*
X421362Y359401D02*
G03*
X423146Y362504I-2306J3390D01*
G01*
X347006Y268344D02*
G03*
X347439Y269549I-4112J2156D01*
G01*
X421405Y317917D02*
G03*
X420355Y320054I-4046J-661D01*
G01*
X423861Y357564D02*
G03*
X426138Y362286I-4805J5227D01*
G01*
X426032Y289580D02*
G03*
X426030Y289596I-1483J-225D01*
G01*
X347006Y278344D02*
G03*
X347426Y279491I-4112J2156D01*
G01*
X358411Y324164D02*
G03*
X356745Y321348I3489J-3964D01*
G01*
X427517Y279797D02*
G03*
X427989Y278353I4590J703D01*
G01*
X422576Y358436D02*
G03*
X424641Y362389I-3520J4355D01*
G01*
X427517Y269797D02*
G03*
X427989Y268353I4590J703D01*
G01*
X347006Y288344D02*
G03*
X347405Y289399I-4112J2156D01*
G01*
X347006Y258344D02*
G03*
X347447Y259589I-4112J2156D01*
G01*
X422886Y318156D02*
G03*
X421684Y320812I-5527J-900D01*
G01*
X413762Y330449D02*
G03*
X413730Y330487I-1762J-1449D01*
G01*
X356926Y324809D02*
G03*
X355312Y321807I4974J-4609D01*
G01*
X347006Y248344D02*
G03*
X347443Y249569I-4112J2156D01*
G01*
X427531Y249706D02*
G03*
X427994Y248344I4575J794D01*
G01*
X332500Y580500D02*
X342500D01*
X432500Y560500D02*
X442500D01*
X432500Y520500D02*
X442500D01*
X432500Y480500D02*
X442500D01*
X432106Y440500D02*
X442106D01*
X432303Y400500D02*
X442303D01*
X432500Y360500D02*
X442500D01*
X432500Y160500D02*
X442500D01*
X432500Y150500D02*
X442500D01*
X432500Y140500D02*
X442500D01*
X432500Y130500D02*
X442500D01*
X432500Y120500D02*
X442500D01*
X432500Y110500D02*
X442500D01*
X432500Y220500D02*
X442500D01*
X432500Y210500D02*
X442500D01*
X432500Y200500D02*
X442500D01*
X432500Y190500D02*
X442500D01*
X432500Y180500D02*
X442500D01*
X432500Y170500D02*
X442500D01*
X432303Y280500D02*
X442303D01*
X432303Y270500D02*
X442303D01*
X432303Y260500D02*
X442303D01*
X432303Y250500D02*
X442303D01*
X432303Y240500D02*
X442303D01*
X432303Y230500D02*
X442303D01*
X432500Y340500D02*
X442500D01*
X432500Y330500D02*
X442500D01*
X432500Y320500D02*
X442500D01*
X432500Y310500D02*
X442500D01*
X432500Y300500D02*
X442500D01*
X432500Y290500D02*
X442500D01*
X432500Y390500D02*
X442500D01*
X432500Y380500D02*
X442500D01*
X432500Y370500D02*
X442500D01*
X432500Y350500D02*
X442500D01*
X432500Y460500D02*
X442500D01*
X432500Y450500D02*
X442500D01*
X432500Y430500D02*
X442500D01*
X432500Y420500D02*
X442500D01*
X432500Y410500D02*
X442500D01*
X432500Y510500D02*
X442500D01*
X432500Y500500D02*
X442500D01*
X432500Y490500D02*
X442500D01*
X432500Y470500D02*
X442500D01*
X432500Y580500D02*
X442500D01*
X432500Y570500D02*
X442500D01*
X432500Y550500D02*
X442500D01*
X432500Y540500D02*
X442500D01*
X432500Y530500D02*
X442500D01*
X332500Y160500D02*
X342500D01*
X332500Y150500D02*
X342500D01*
X332500Y140500D02*
X342500D01*
X332500Y130500D02*
X342500D01*
X332500Y120500D02*
X342500D01*
X332500Y110500D02*
X342500D01*
X332500Y220500D02*
X342500D01*
X332500Y210500D02*
X342500D01*
X332500Y200500D02*
X342500D01*
X332500Y190500D02*
X342500D01*
X332500Y180500D02*
X342500D01*
X332500Y170500D02*
X342500D01*
X332500Y280500D02*
X342500D01*
X332500Y270500D02*
X342500D01*
X332500Y260500D02*
X342500D01*
X332500Y250500D02*
X342500D01*
X332500Y240500D02*
X342500D01*
X332500Y230500D02*
X342500D01*
X332500Y340500D02*
X342500D01*
X332500Y330500D02*
X342500D01*
X332500Y320500D02*
X342500D01*
X332500Y310500D02*
X342500D01*
X332500Y300500D02*
X342500D01*
X332500Y290500D02*
X342500D01*
X332500Y400500D02*
X342500D01*
X332500Y390500D02*
X342500D01*
X332500Y380500D02*
X342500D01*
X332500Y370500D02*
X342500D01*
X332500Y360500D02*
X342500D01*
X332500Y350500D02*
X342500D01*
X332500Y460500D02*
X342500D01*
X332500Y450500D02*
X342500D01*
X332500Y440500D02*
X342500D01*
X332500Y430500D02*
X342500D01*
X332500Y420500D02*
X342500D01*
X332500Y410500D02*
X342500D01*
X332500Y520500D02*
X342500D01*
X332500Y510500D02*
X342500D01*
X332500Y500500D02*
X342500D01*
X332500Y490500D02*
X342500D01*
X332500Y480500D02*
X342500D01*
X332500Y470500D02*
X342500D01*
X332500Y530500D02*
X342500D01*
X332500Y540500D02*
X342500D01*
X332500Y550500D02*
X342500D01*
X332500Y560500D02*
X342500D01*
X332500Y570500D02*
X342500D01*
X368800Y353700D02*
X373400D01*
X373350Y352831D02*
Y361150D01*
X411813Y318057D02*
X411816Y318054D01*
X407534Y322595D02*
X411785Y318086D01*
X412069Y321956D02*
X417952Y318182D01*
X412069Y321956D02*
Y321972D01*
X412097Y322000D01*
X406461Y316725D02*
X408500Y314500D01*
X404638Y320887D02*
X406317Y316949D01*
X408922Y366321D02*
X410289Y361962D01*
X408911Y367641D02*
X427651Y431808D01*
X427994Y432656D02*
X432106Y440500D01*
X437000Y385600D02*
X437100D01*
X422100Y403300D02*
Y403400D01*
Y403300D02*
X422200Y403200D01*
X362663Y358229D02*
X362666Y358225D01*
X364649Y357166D02*
X367121Y357080D01*
X359629Y367137D02*
X362485Y361731D01*
X347376Y411714D02*
X359204Y368214D01*
X362932Y361144D02*
X364732Y359446D01*
X362859Y358013D02*
X363336Y357642D01*
X342894Y420500D02*
X347004Y412660D01*
X347398Y421626D02*
X360632Y368683D01*
X361009Y367738D02*
X362515Y365077D01*
X362808Y364670D02*
X364500Y362800D01*
X366872Y349900D02*
X367000Y350028D01*
X364000Y349900D02*
X366872D01*
X347334Y401859D02*
X357816Y367615D01*
X358304Y366432D02*
X361157Y361034D01*
X361167Y361015D02*
X362594Y358350D01*
X357500Y341500D02*
Y346000D01*
X406900Y361900D02*
X407331Y367301D01*
X407453Y367998D02*
X427628Y441725D01*
X411100Y367000D02*
X413944D01*
X427994Y442656D02*
X432106Y450500D01*
X361727Y322475D02*
X364700Y322700D01*
X342894Y450500D02*
X347006Y442656D01*
X347409Y441582D02*
X359700Y390300D01*
X342500Y450500D02*
X342894D01*
X347436Y239535D02*
X359700Y297500D01*
X342894Y440500D02*
X347006Y432656D01*
X347416Y431552D02*
X362081Y369072D01*
X362697Y367977D02*
X364500Y366200D01*
X342500Y440500D02*
X342894D01*
Y430500D02*
X347006Y422656D01*
X342500Y430500D02*
X342894D01*
X342500Y420500D02*
X342894D01*
X342500Y410500D02*
X342894D01*
X347006Y402656D01*
X432106Y430500D02*
X432500D01*
X421583Y382091D02*
X427516Y421202D01*
X410300Y358600D02*
X419415Y361752D01*
X410300Y355238D02*
X420268Y360491D01*
X413944Y367000D02*
X416300Y365350D01*
X432106Y260500D02*
X432500D01*
X342500Y280500D02*
X342894D01*
X412640Y316856D02*
X414799Y314500D01*
X432106Y270500D02*
X432500D01*
X416300Y371650D02*
X416300Y373809D01*
X432106Y390500D02*
X432500D01*
X411977Y317861D02*
X412640Y316856D01*
X432106Y440500D02*
X432500D01*
X360000Y323469D02*
X364700Y326200D01*
X342500Y250500D02*
X342894D01*
X410300Y351876D02*
X421362Y359401D01*
X432106Y280500D02*
X432500D01*
X426031Y381414D02*
X427516Y391202D01*
X432106Y420500D02*
X432500D01*
X410300Y345100D02*
X423861Y357564D01*
X432106Y410500D02*
X432500D01*
X358411Y324164D02*
X364700Y329700D01*
X432106Y400500D02*
X432500D01*
X412000Y329000D02*
X420355Y320054D01*
X342500Y260500D02*
X342894D01*
X424549Y381643D02*
X427516Y401202D01*
X347447Y259589D02*
X359663Y320648D01*
X410300Y348513D02*
X422576Y358436D01*
X432106Y450500D02*
X432500D01*
X412000Y332500D02*
X413730Y330487D01*
X342500Y270500D02*
X342894D01*
X416300Y373809D02*
Y376400D01*
X347443Y249569D02*
X361900Y320200D01*
X342500Y230500D02*
X342894D01*
X432106Y240500D02*
X432500D01*
X427994Y248344D02*
X432106Y240500D01*
Y250500D02*
X432500D01*
X379299Y335500D02*
X383899D01*
X379650Y344169D02*
X384250D01*
X342500Y240500D02*
X342894D01*
X356926Y324809D02*
X364700Y333200D01*
X370300Y348500D02*
X376600D01*
X427994Y412656D02*
X432106Y420500D01*
X377687Y349587D02*
Y350869D01*
X422886Y318156D02*
X427510Y289838D01*
X412000Y325500D02*
X419086Y319199D01*
X342894Y280500D02*
X347006Y288344D01*
X418445Y317428D02*
X425739Y271515D01*
X348600Y340300D02*
X350865Y338035D01*
X342500Y340500D02*
X342700Y340300D01*
X426138Y362286D02*
X427474Y380827D01*
X427994Y382656D02*
X432106Y390500D01*
X342894Y270500D02*
X347006Y278344D01*
X427994Y422656D02*
X432106Y430500D01*
X367128Y349900D02*
X368900D01*
X347405Y289399D02*
X355312Y321807D01*
X379650Y352831D02*
Y361150D01*
X427515Y289808D02*
X427515Y289808D01*
X376600Y348500D02*
X377687Y349587D01*
X421649Y362604D02*
X422987Y381157D01*
X367000Y350028D02*
X367128Y349900D01*
X420153Y362712D02*
X421491Y381272D01*
X379299Y361500D02*
X379650Y361150D01*
X368900Y349900D02*
X370300Y348500D01*
X372900Y361600D02*
X373000Y361500D01*
X427994Y402656D02*
X432106Y410500D01*
X364500Y375000D02*
X371600D01*
X366500Y346000D02*
X367000Y345500D01*
X364000Y346000D02*
X366500D01*
X373350Y335850D02*
Y344169D01*
X423067Y381872D02*
X427516Y411202D01*
X367000Y345500D02*
X372020D01*
X373000Y361500D02*
X373350Y361150D01*
X351717Y343635D02*
X353851Y341500D01*
X427994Y392656D02*
X432106Y400500D01*
X347426Y279491D02*
X356745Y321348D01*
X342894Y250500D02*
X347006Y258344D01*
X372020Y345500D02*
X373350Y344169D01*
X377687Y350869D02*
X379650Y352831D01*
X427989Y268353D02*
X432106Y260500D01*
X347439Y269549D02*
X358199Y320975D01*
X427989Y278353D02*
X432106Y270500D01*
X421405Y317917D02*
X426030Y289596D01*
X379299Y335500D02*
X379650Y335850D01*
X424641Y362389D02*
X425979Y380938D01*
X375500Y378900D02*
Y383500D01*
X423146Y362504D02*
X424483Y381048D01*
X427989Y288353D02*
X432106Y280500D01*
X342894Y260500D02*
X347006Y268344D01*
X419924Y317675D02*
X424549Y289355D01*
X426032Y289580D02*
X427517Y279797D01*
X373000Y335500D02*
X373350Y335850D01*
X413762Y330449D02*
X421684Y320812D01*
X424549Y289355D02*
X427517Y269797D01*
X427989Y258353D02*
X432106Y250500D01*
X364500Y385800D02*
X364900Y386200D01*
X342894Y230500D02*
X347006Y238344D01*
X379650Y335850D02*
Y344169D01*
X350865Y338035D02*
X357500D01*
X342700Y340300D02*
X348600D01*
X417500Y307500D02*
X427531Y249706D01*
X368300Y361600D02*
X372900D01*
X425739Y271515D02*
X427517Y259797D01*
X364500Y380118D02*
Y385800D01*
X353851Y341500D02*
X357500D01*
X342894Y240500D02*
X347006Y248344D01*
X371600Y375000D02*
X375500Y378900D01*
D28*
X442500Y110500D02*
D03*
Y120500D02*
D03*
Y130500D02*
D03*
Y140500D02*
D03*
Y150500D02*
D03*
Y160500D02*
D03*
Y180500D02*
D03*
Y170500D02*
D03*
Y200500D02*
D03*
Y190500D02*
D03*
Y220500D02*
D03*
Y210500D02*
D03*
Y240500D02*
D03*
Y230500D02*
D03*
Y260500D02*
D03*
Y250500D02*
D03*
Y280500D02*
D03*
Y270500D02*
D03*
Y300500D02*
D03*
Y290500D02*
D03*
Y320500D02*
D03*
Y310500D02*
D03*
Y340500D02*
D03*
Y330500D02*
D03*
Y360500D02*
D03*
Y350500D02*
D03*
Y380500D02*
D03*
Y370500D02*
D03*
Y400500D02*
D03*
Y390500D02*
D03*
Y420500D02*
D03*
Y410500D02*
D03*
Y440500D02*
D03*
Y430500D02*
D03*
Y460500D02*
D03*
Y450500D02*
D03*
Y480500D02*
D03*
Y470500D02*
D03*
Y500500D02*
D03*
Y490500D02*
D03*
Y520500D02*
D03*
Y510500D02*
D03*
Y540500D02*
D03*
Y530500D02*
D03*
Y560500D02*
D03*
Y550500D02*
D03*
Y570500D02*
D03*
X432500Y240500D02*
D03*
Y260500D02*
D03*
Y250500D02*
D03*
Y280500D02*
D03*
Y270500D02*
D03*
Y300500D02*
D03*
Y290500D02*
D03*
Y320500D02*
D03*
Y310500D02*
D03*
Y340500D02*
D03*
Y330500D02*
D03*
Y350500D02*
D03*
X332500Y570500D02*
D03*
Y550500D02*
D03*
Y560500D02*
D03*
Y530500D02*
D03*
Y540500D02*
D03*
Y510500D02*
D03*
Y520500D02*
D03*
Y490500D02*
D03*
Y500500D02*
D03*
Y470500D02*
D03*
Y480500D02*
D03*
Y450500D02*
D03*
Y460500D02*
D03*
Y430500D02*
D03*
Y440500D02*
D03*
Y410500D02*
D03*
Y420500D02*
D03*
Y390500D02*
D03*
Y400500D02*
D03*
Y370500D02*
D03*
Y380500D02*
D03*
Y350500D02*
D03*
Y360500D02*
D03*
Y330500D02*
D03*
Y340500D02*
D03*
Y310500D02*
D03*
Y320500D02*
D03*
Y290500D02*
D03*
Y300500D02*
D03*
Y270500D02*
D03*
Y280500D02*
D03*
Y250500D02*
D03*
Y260500D02*
D03*
Y230500D02*
D03*
Y240500D02*
D03*
Y210500D02*
D03*
Y220500D02*
D03*
Y190500D02*
D03*
Y200500D02*
D03*
Y170500D02*
D03*
Y180500D02*
D03*
Y160500D02*
D03*
Y150500D02*
D03*
Y140500D02*
D03*
Y130500D02*
D03*
Y120500D02*
D03*
Y110500D02*
D03*
X342500D02*
D03*
Y120500D02*
D03*
Y130500D02*
D03*
Y140500D02*
D03*
Y150500D02*
D03*
Y160500D02*
D03*
Y180500D02*
D03*
Y170500D02*
D03*
Y200500D02*
D03*
Y190500D02*
D03*
Y220500D02*
D03*
Y210500D02*
D03*
Y240500D02*
D03*
Y230500D02*
D03*
Y260500D02*
D03*
Y250500D02*
D03*
Y280500D02*
D03*
Y270500D02*
D03*
Y300500D02*
D03*
Y290500D02*
D03*
Y320500D02*
D03*
Y310500D02*
D03*
Y340500D02*
D03*
Y330500D02*
D03*
Y360500D02*
D03*
Y350500D02*
D03*
Y380500D02*
D03*
Y370500D02*
D03*
Y400500D02*
D03*
Y390500D02*
D03*
Y420500D02*
D03*
Y410500D02*
D03*
Y440500D02*
D03*
Y430500D02*
D03*
Y460500D02*
D03*
Y450500D02*
D03*
Y480500D02*
D03*
Y470500D02*
D03*
Y500500D02*
D03*
Y490500D02*
D03*
Y520500D02*
D03*
Y510500D02*
D03*
Y540500D02*
D03*
Y530500D02*
D03*
Y560500D02*
D03*
Y550500D02*
D03*
Y570500D02*
D03*
X432500Y110500D02*
D03*
Y120500D02*
D03*
Y130500D02*
D03*
Y140500D02*
D03*
Y150500D02*
D03*
Y160500D02*
D03*
Y180500D02*
D03*
Y170500D02*
D03*
Y200500D02*
D03*
Y190500D02*
D03*
Y220500D02*
D03*
Y210500D02*
D03*
Y230500D02*
D03*
Y360500D02*
D03*
Y380500D02*
D03*
Y370500D02*
D03*
Y400500D02*
D03*
Y390500D02*
D03*
Y420500D02*
D03*
Y410500D02*
D03*
Y440500D02*
D03*
Y430500D02*
D03*
Y460500D02*
D03*
Y450500D02*
D03*
Y480500D02*
D03*
Y470500D02*
D03*
Y500500D02*
D03*
Y490500D02*
D03*
Y520500D02*
D03*
Y510500D02*
D03*
Y540500D02*
D03*
Y530500D02*
D03*
Y560500D02*
D03*
Y550500D02*
D03*
Y570500D02*
D03*
D29*
X442500Y580500D02*
D03*
X332500D02*
D03*
X342500D02*
D03*
X432500D02*
D03*
D30*
X351717Y343635D02*
D03*
D31*
X420000Y560000D02*
D03*
Y440000D02*
D03*
Y120000D02*
D03*
X400000Y560000D02*
D03*
X410000Y300000D02*
D03*
Y260000D02*
D03*
Y140000D02*
D03*
X400000Y120000D02*
D03*
X380000Y560000D02*
D03*
X390000Y540000D02*
D03*
X380000Y160000D02*
D03*
X390000Y140000D02*
D03*
X380000Y120000D02*
D03*
X360000Y560000D02*
D03*
X370000Y540000D02*
D03*
X360000Y280000D02*
D03*
X370000Y140000D02*
D03*
X360000Y120000D02*
D03*
X350000Y140000D02*
D03*
X437000Y385600D02*
D03*
Y395600D02*
D03*
X363700Y341900D02*
D03*
X404500Y367800D02*
D03*
X364300Y369600D02*
D03*
X412097Y322000D02*
D03*
X407534Y322595D02*
D03*
X404638Y320887D02*
D03*
X420600Y395600D02*
D03*
X419100Y385600D02*
D03*
X413900Y401800D02*
D03*
X414700Y404800D02*
D03*
X422200Y403200D02*
D03*
X421400Y400200D02*
D03*
X362600Y354900D02*
D03*
X367121Y357080D02*
D03*
X364732Y359446D02*
D03*
X368800Y353700D02*
D03*
X364500Y362800D02*
D03*
X364000Y349900D02*
D03*
X411100Y367000D02*
D03*
X368300Y322500D02*
D03*
X364700Y322700D02*
D03*
X359700Y297500D02*
D03*
Y390300D02*
D03*
X364500Y366200D02*
D03*
X361900Y320200D02*
D03*
X362900Y336100D02*
D03*
X364700Y326200D02*
D03*
Y329700D02*
D03*
Y333200D02*
D03*
X364900Y386200D02*
D03*
X383899Y335500D02*
D03*
X384250Y344169D02*
D03*
X368300Y361600D02*
D03*
X416300Y376400D02*
D03*
X406900Y361900D02*
D03*
X410300Y345100D02*
D03*
Y358600D02*
D03*
X410289Y361962D02*
D03*
X410300Y348513D02*
D03*
Y355238D02*
D03*
Y351876D02*
D03*
X367800Y370700D02*
D03*
X375595Y383406D02*
D03*
X351717Y343635D02*
D03*
X364000Y346000D02*
D03*
X412000Y329000D02*
D03*
X417500Y307500D02*
D03*
X412000Y332500D02*
D03*
Y325500D02*
D03*
D32*
X364500Y380118D02*
D03*
Y375000D02*
D03*
X357500Y346000D02*
D03*
Y351118D02*
D03*
D33*
X367000Y350028D02*
D03*
Y345500D02*
D03*
D34*
X373000Y335500D02*
D03*
X379299D02*
D03*
Y361500D02*
D03*
X373000D02*
D03*
X414799Y314500D02*
D03*
X408500D02*
D03*
D35*
X379650Y352831D02*
D03*
X373350D02*
D03*
X379650Y344169D02*
D03*
X373350D02*
D03*
D36*
X416300Y365350D02*
D03*
Y371650D02*
D03*
D37*
X361300Y344300D02*
X363700Y341900D01*
X361300Y344300D02*
Y349100D01*
X357500Y351118D02*
X358573Y350045D01*
X360355D01*
X361300Y349100D01*
X356882Y350500D02*
X357500Y351118D01*
X342500Y350500D02*
X356882D01*
M02*
