M48
;Layer_Color=9474304
;FILE_FORMAT=2:5
INCH,LZ
;TYPE=PLATED
T1F00S00C0.01181
T2F00S00C0.01200
T3F00S00C0.03000
T4F00S00C0.05512
%
T01
X036Y012
X038
X04
X042
X041Y014
X039
X037
X035
X038Y016
X041Y026
Y03
X04175Y03075
X03597Y02975
X036Y028
X03619Y03202
X03647Y03227
Y03262
Y03297
Y03332
X03629Y03361
X03637Y03419
X0364Y0346
Y03499
X03626Y03549
X0364732Y0359446
X03645Y03628
Y03662
X03643Y03696
X03678Y03707
X03683Y03616
X0367121Y035708
X03688Y03537
X038425Y0344169
X0383899Y03355
X03683Y03225
X0351717Y0343635
X03597Y03903
X03649Y03862
X04191Y03856
X04206Y03956
X04214Y04002
X04222Y04032
X04147Y04048
X04139Y04018
X04163Y03764
X04111Y0367
X0410289Y0361962
X04103Y03586
Y0355238
Y0351876
Y0348513
Y03451
X0412Y03325
Y0329
Y03255
X0412097Y0322
X0407534Y0322595
X0404638Y0320887
X04069Y03619
X04045Y03678
X0437Y03856
Y03956
X042Y044
Y056
X04
X038
X036
X037Y054
X039
T02
X0375595Y0383406
T03
X03325Y01105
Y01205
Y01305
Y01405
Y01505
X04425Y01505
Y01405
Y01305
Y01205
Y01105
Y01605
Y01705
Y01805
Y01905
Y02005
Y02105
Y02205
Y02305
Y02405
Y02505
Y02605
Y02705
Y02805
Y02905
Y03005
Y03105
X03325
Y03005
Y02905
Y02805
Y02705
Y02605
Y02505
Y02405
Y02305
Y02205
Y02105
Y02005
Y01905
Y01805
Y01705
Y01605
Y03205
Y03305
Y03405
Y03505
Y03605
Y03705
Y03805
Y03905
Y04005
Y04105
Y04205
Y04305
Y04405
Y04505
Y04605
X04425Y04605
Y04505
Y04405
Y04305
Y04205
Y04105
Y04005
Y03905
Y03805
Y03705
Y03605
Y03505
Y03405
Y03305
Y03205
Y04705
Y04805
Y04905
Y05005
Y05105
Y05205
Y05305
Y05405
Y05505
Y05605
Y05705
Y05805
X03325
Y05705
Y05605
Y05505
Y05405
Y05305
Y05205
Y05105
Y05005
Y04905
Y04805
Y04705
T04
X03425Y01105
Y01205
Y01305
Y01405
Y01505
X04325
Y01405
Y01305
Y01205
Y01105
Y01605
Y01705
Y01805
Y01905
Y02005
Y02105
Y02205
Y02305
Y02405
Y02505
Y02605
Y02705
Y02805
Y02905
Y03005
Y03105
X03425
Y03005
Y02905
Y02805
Y02705
Y02605
Y02505
Y02405
Y02305
Y02205
Y02105
Y02005
Y01905
Y01805
Y01705
Y01605
Y03205
Y03305
Y03405
Y03505
Y03605
Y03705
Y03805
Y03905
Y04005
Y04105
Y04205
Y04305
Y04405
Y04505
Y04605
X04325
Y04505
Y04405
Y04305
Y04205
Y04105
Y04005
Y03905
Y03805
Y03705
Y03605
Y03505
Y03405
Y03305
Y03205
Y04705
Y04805
Y04905
Y05005
Y05105
Y05205
Y05305
Y05405
Y05505
Y05605
Y05705
Y05805
X03425
Y05705
Y05605
Y05505
Y05405
Y05305
Y05205
Y05105
Y05005
Y04905
Y04805
Y04705
M30
