G04*
G04 #@! TF.GenerationSoftware,Altium Limited,Altium Designer,21.8.1 (53)*
G04*
G04 Layer_Color=32896*
%FSLAX25Y25*%
%MOIN*%
G70*
G04*
G04 #@! TF.SameCoordinates,602FFC17-E96E-42ED-876F-BF2310913D4F*
G04*
G04*
G04 #@! TF.FilePolarity,Positive*
G04*
G01*
G75*
%ADD11C,0.00600*%
%ADD12C,0.00591*%
%ADD13C,0.00787*%
%ADD44C,0.00394*%
D11*
X352850Y340382D02*
X350350D01*
X352850Y338716D01*
X350350D01*
X352850Y337883D02*
X350350D01*
Y336633D01*
X350767Y336216D01*
X351600D01*
X352016Y336633D01*
Y337883D01*
Y337050D02*
X352850Y336216D01*
X350767Y333717D02*
X350350Y334134D01*
Y334967D01*
X350767Y335384D01*
X351184D01*
X351600Y334967D01*
Y334134D01*
X352016Y333717D01*
X352433D01*
X352850Y334134D01*
Y334967D01*
X352433Y335384D01*
X350350Y332884D02*
Y331218D01*
Y332051D01*
X352850D01*
D12*
X361744Y372559D02*
X362500D01*
X361744D02*
Y382559D01*
X362500D01*
X366500D02*
X367256D01*
Y372559D02*
Y382559D01*
X366500Y372559D02*
X367256D01*
X361744Y377559D02*
X367256D01*
X358681Y335831D02*
X359469D01*
Y343705D01*
X358681D02*
X359469D01*
X355532D02*
X356319D01*
X355532Y335831D02*
Y343705D01*
Y335831D02*
X356319D01*
X359500Y353559D02*
X360256D01*
Y343559D02*
Y353559D01*
X359500Y343559D02*
X360256D01*
X354744D02*
X355500D01*
X354744D02*
Y353559D01*
X355500D01*
X354744Y348559D02*
X360256D01*
X365000Y347764D02*
X369000D01*
X368500Y343264D02*
X369000D01*
Y352264D01*
X368500D02*
X369000D01*
X365000D02*
X365500D01*
X365000Y343264D02*
Y352264D01*
Y343264D02*
X365500D01*
X369457Y331957D02*
Y333532D01*
Y331957D02*
X382843D01*
Y333532D01*
Y337469D02*
Y339043D01*
X369457D02*
X382843D01*
X369457Y337469D02*
Y339043D01*
X376150Y331957D02*
Y339043D01*
X382843Y363469D02*
Y365043D01*
X369457D02*
X382843D01*
X369457D02*
X369457Y363469D01*
Y357957D02*
Y359532D01*
Y357957D02*
X382843D01*
Y359532D01*
X376150Y357957D02*
Y365043D01*
X412757Y368500D02*
X419843D01*
X418268Y375193D02*
X419843D01*
Y361807D02*
Y375193D01*
X418268Y361807D02*
X419843D01*
X412757D02*
X414331D01*
X412757D02*
Y375193D01*
X414331D01*
X411650Y310957D02*
Y318043D01*
X404957Y316469D02*
Y318043D01*
X418343D01*
Y316469D02*
Y318043D01*
Y310957D02*
Y312532D01*
X404957Y310957D02*
X418343D01*
X404957D02*
Y312532D01*
D13*
X383193Y340232D02*
Y352831D01*
X369807Y340232D02*
X383193D01*
X369807D02*
Y356768D01*
X382406D01*
X383193Y355980D01*
Y352831D02*
Y355980D01*
D44*
X383784Y357161D02*
G03*
X383784Y357161I-197J0D01*
G01*
M02*
