G04*
G04 #@! TF.GenerationSoftware,Altium Limited,Altium Designer,21.8.1 (53)*
G04*
G04 Layer_Physical_Order=1*
G04 Layer_Color=255*
%FSLAX25Y25*%
%MOIN*%
G70*
G04*
G04 #@! TF.SameCoordinates,602FFC17-E96E-42ED-876F-BF2310913D4F*
G04*
G04*
G04 #@! TF.FilePolarity,Positive*
G04*
G01*
G75*
%ADD15R,0.02362X0.02520*%
%ADD16R,0.02520X0.02362*%
%ADD17R,0.01181X0.05807*%
%ADD18R,0.05807X0.01181*%
%ADD26C,0.00800*%
%ADD27C,0.00800*%
%ADD28O,0.07874X0.07087*%
%ADD29R,0.07874X0.07087*%
%ADD30C,0.03937*%
%ADD31C,0.02362*%
G36*
X449990Y106019D02*
X445256D01*
X445156Y106519D01*
X445185Y106531D01*
X446134Y107260D01*
X446862Y108209D01*
X447320Y109314D01*
X447410Y110000D01*
X442500D01*
Y110500D01*
X442000D01*
Y115068D01*
X440920Y114926D01*
X439815Y114469D01*
X438866Y113740D01*
X438138Y112791D01*
X437771Y111905D01*
X437229D01*
X436862Y112791D01*
X436134Y113740D01*
X435185Y114469D01*
X434080Y114926D01*
X433000Y115068D01*
Y110500D01*
X432500D01*
Y110000D01*
X427590D01*
X427680Y109314D01*
X428138Y108209D01*
X428866Y107260D01*
X429815Y106531D01*
X429844Y106519D01*
X429744Y106019D01*
X345256D01*
X345156Y106519D01*
X345185Y106531D01*
X346134Y107260D01*
X346862Y108209D01*
X347320Y109314D01*
X347410Y110000D01*
X342500D01*
Y110500D01*
X342000D01*
Y115068D01*
X340920Y114926D01*
X339815Y114469D01*
X338866Y113740D01*
X338138Y112791D01*
X337771Y111905D01*
X337229D01*
X336862Y112791D01*
X336134Y113740D01*
X335185Y114469D01*
X334080Y114926D01*
X333000Y115068D01*
Y110500D01*
X332500D01*
Y110000D01*
X327590D01*
X327680Y109314D01*
X328138Y108209D01*
X328866Y107260D01*
X329815Y106531D01*
X329844Y106519D01*
X329744Y106019D01*
X326045D01*
X326045Y584975D01*
X327563D01*
Y581000D01*
X332500D01*
Y580500D01*
X333000D01*
Y575957D01*
X337437D01*
Y575957D01*
X337563D01*
Y575957D01*
X342000D01*
Y580500D01*
X342500D01*
Y581000D01*
X347437D01*
Y584975D01*
X427563D01*
Y581000D01*
X432500D01*
Y580500D01*
X433000D01*
Y575957D01*
X437437D01*
Y575957D01*
X437563D01*
Y575957D01*
X442000D01*
Y580500D01*
X442500D01*
Y581000D01*
X447437D01*
Y584975D01*
X449990D01*
X449990Y106019D01*
D02*
G37*
%LPC*%
G36*
X447437Y580000D02*
X443000D01*
Y575957D01*
X447437D01*
Y580000D01*
D02*
G37*
G36*
X432000D02*
X427563D01*
Y575957D01*
X432000D01*
Y580000D01*
D02*
G37*
G36*
X347437D02*
X343000D01*
Y575957D01*
X347437D01*
Y580000D01*
D02*
G37*
G36*
X332000D02*
X327563D01*
Y575957D01*
X332000D01*
Y580000D01*
D02*
G37*
G36*
X442894Y575082D02*
X442106D01*
X440920Y574926D01*
X439815Y574469D01*
X438866Y573740D01*
X438138Y572791D01*
X437771Y571905D01*
X437229D01*
X436862Y572791D01*
X436134Y573740D01*
X435185Y574469D01*
X434080Y574926D01*
X432894Y575082D01*
X432106D01*
X430920Y574926D01*
X429815Y574469D01*
X428866Y573740D01*
X428138Y572791D01*
X427680Y571686D01*
X427524Y570500D01*
X427680Y569314D01*
X428138Y568209D01*
X428866Y567260D01*
X429815Y566531D01*
X430920Y566074D01*
X432106Y565917D01*
X432894D01*
X434080Y566074D01*
X435185Y566531D01*
X436134Y567260D01*
X436862Y568209D01*
X437229Y569095D01*
X437771D01*
X438138Y568209D01*
X438866Y567260D01*
X439815Y566532D01*
X440920Y566074D01*
X442106Y565917D01*
X442894D01*
X444080Y566074D01*
X445185Y566532D01*
X446134Y567260D01*
X446862Y568209D01*
X447320Y569314D01*
X447476Y570500D01*
X447320Y571686D01*
X446862Y572791D01*
X446134Y573740D01*
X445185Y574469D01*
X444080Y574926D01*
X442894Y575082D01*
D02*
G37*
G36*
X342894Y575082D02*
X342106D01*
X340920Y574926D01*
X339815Y574469D01*
X338866Y573740D01*
X338138Y572791D01*
X337771Y571905D01*
X337229D01*
X336862Y572791D01*
X336134Y573740D01*
X335185Y574469D01*
X334080Y574926D01*
X332894Y575082D01*
X332106D01*
X330920Y574926D01*
X329815Y574469D01*
X328866Y573740D01*
X328138Y572791D01*
X327680Y571686D01*
X327524Y570500D01*
X327680Y569314D01*
X328138Y568209D01*
X328866Y567260D01*
X329815Y566531D01*
X330920Y566074D01*
X332106Y565917D01*
X332894D01*
X334080Y566074D01*
X335185Y566531D01*
X336134Y567260D01*
X336862Y568209D01*
X337229Y569095D01*
X337771D01*
X338138Y568209D01*
X338866Y567260D01*
X339815Y566531D01*
X340920Y566074D01*
X342106Y565917D01*
X342894D01*
X344080Y566074D01*
X345185Y566531D01*
X346134Y567260D01*
X346862Y568209D01*
X347320Y569314D01*
X347476Y570500D01*
X347320Y571686D01*
X346862Y572791D01*
X346134Y573740D01*
X345185Y574469D01*
X344080Y574926D01*
X342894Y575082D01*
D02*
G37*
G36*
X442894Y565083D02*
X442106D01*
X440920Y564926D01*
X439815Y564469D01*
X438866Y563740D01*
X438138Y562791D01*
X437771Y561905D01*
X437229D01*
X436862Y562791D01*
X436134Y563740D01*
X435185Y564469D01*
X434080Y564926D01*
X432894Y565083D01*
X432106D01*
X430920Y564926D01*
X429815Y564469D01*
X428866Y563740D01*
X428138Y562791D01*
X427680Y561686D01*
X427524Y560500D01*
X427680Y559314D01*
X428138Y558209D01*
X428160Y558179D01*
X390428Y520446D01*
X390118Y519983D01*
X390010Y519437D01*
X390010Y519437D01*
Y515662D01*
X389548Y515471D01*
X346840Y558179D01*
X346862Y558209D01*
X347320Y559314D01*
X347476Y560500D01*
X347320Y561686D01*
X346862Y562791D01*
X346134Y563740D01*
X345185Y564469D01*
X344080Y564926D01*
X342894Y565083D01*
X342106D01*
X340920Y564926D01*
X339815Y564469D01*
X338866Y563740D01*
X338138Y562791D01*
X337771Y561905D01*
X337229D01*
X336862Y562791D01*
X336134Y563740D01*
X335185Y564469D01*
X334080Y564926D01*
X332894Y565083D01*
X332106D01*
X330920Y564926D01*
X329815Y564469D01*
X328866Y563740D01*
X328138Y562791D01*
X327680Y561686D01*
X327524Y560500D01*
X327680Y559314D01*
X328138Y558209D01*
X328866Y557260D01*
X329815Y556531D01*
X330920Y556074D01*
X332106Y555918D01*
X332894D01*
X334080Y556074D01*
X335185Y556531D01*
X336134Y557260D01*
X336862Y558209D01*
X337229Y559095D01*
X337771D01*
X338138Y558209D01*
X338866Y557260D01*
X339815Y556531D01*
X340920Y556074D01*
X342106Y555918D01*
X342894D01*
X344080Y556074D01*
X344665Y556316D01*
X388041Y512940D01*
Y507631D01*
X387579Y507440D01*
X346840Y548179D01*
X346862Y548209D01*
X347320Y549314D01*
X347476Y550500D01*
X347320Y551686D01*
X346862Y552791D01*
X346134Y553740D01*
X345185Y554469D01*
X344080Y554926D01*
X342894Y555083D01*
X342106D01*
X340920Y554926D01*
X339815Y554469D01*
X338866Y553740D01*
X338138Y552791D01*
X337771Y551905D01*
X337229D01*
X336862Y552791D01*
X336134Y553740D01*
X335185Y554469D01*
X334080Y554926D01*
X332894Y555083D01*
X332106D01*
X330920Y554926D01*
X329815Y554469D01*
X328866Y553740D01*
X328138Y552791D01*
X327680Y551686D01*
X327524Y550500D01*
X327680Y549314D01*
X328138Y548209D01*
X328866Y547260D01*
X329815Y546531D01*
X330920Y546074D01*
X332106Y545918D01*
X332894D01*
X334080Y546074D01*
X335185Y546531D01*
X336134Y547260D01*
X336862Y548209D01*
X337229Y549095D01*
X337771D01*
X338138Y548209D01*
X338866Y547260D01*
X339815Y546531D01*
X340920Y546074D01*
X342106Y545918D01*
X342894D01*
X344080Y546074D01*
X344665Y546316D01*
X386073Y504909D01*
Y499599D01*
X385611Y499408D01*
X346840Y538179D01*
X346862Y538209D01*
X347320Y539314D01*
X347476Y540500D01*
X347320Y541686D01*
X346862Y542791D01*
X346134Y543740D01*
X345185Y544469D01*
X344080Y544926D01*
X342894Y545083D01*
X342106D01*
X340920Y544926D01*
X339815Y544469D01*
X338866Y543740D01*
X338138Y542791D01*
X337771Y541905D01*
X337229D01*
X336862Y542791D01*
X336134Y543740D01*
X335185Y544469D01*
X334080Y544926D01*
X332894Y545083D01*
X332106D01*
X330920Y544926D01*
X329815Y544469D01*
X328866Y543740D01*
X328138Y542791D01*
X327680Y541686D01*
X327524Y540500D01*
X327680Y539314D01*
X328138Y538209D01*
X328866Y537260D01*
X329815Y536531D01*
X330920Y536074D01*
X332106Y535918D01*
X332894D01*
X334080Y536074D01*
X335185Y536531D01*
X336134Y537260D01*
X336862Y538209D01*
X337229Y539095D01*
X337771D01*
X338138Y538209D01*
X338866Y537260D01*
X339815Y536531D01*
X340920Y536074D01*
X342106Y535918D01*
X342894D01*
X344080Y536074D01*
X344665Y536316D01*
X384104Y496877D01*
Y491568D01*
X383642Y491377D01*
X346840Y528179D01*
X346862Y528209D01*
X347320Y529314D01*
X347476Y530500D01*
X347320Y531686D01*
X346862Y532791D01*
X346134Y533740D01*
X345185Y534469D01*
X344080Y534926D01*
X342894Y535082D01*
X342106D01*
X340920Y534926D01*
X339815Y534469D01*
X338866Y533740D01*
X338138Y532791D01*
X337771Y531905D01*
X337229D01*
X336862Y532791D01*
X336134Y533740D01*
X335185Y534469D01*
X334080Y534926D01*
X332894Y535082D01*
X332106D01*
X330920Y534926D01*
X329815Y534469D01*
X328866Y533740D01*
X328138Y532791D01*
X327680Y531686D01*
X327524Y530500D01*
X327680Y529314D01*
X328138Y528209D01*
X328866Y527260D01*
X329815Y526531D01*
X330920Y526074D01*
X332106Y525917D01*
X332894D01*
X334080Y526074D01*
X335185Y526531D01*
X336134Y527260D01*
X336862Y528209D01*
X337229Y529095D01*
X337771D01*
X338138Y528209D01*
X338866Y527260D01*
X339815Y526531D01*
X340920Y526074D01*
X342106Y525917D01*
X342894D01*
X344080Y526074D01*
X344665Y526316D01*
X382273Y488709D01*
Y483399D01*
X381811Y483208D01*
X346840Y518179D01*
X346862Y518209D01*
X347320Y519314D01*
X347476Y520500D01*
X347320Y521686D01*
X346862Y522791D01*
X346134Y523740D01*
X345185Y524469D01*
X344080Y524926D01*
X342894Y525082D01*
X342106D01*
X340920Y524926D01*
X339815Y524469D01*
X338866Y523740D01*
X338138Y522791D01*
X337771Y521905D01*
X337229D01*
X336862Y522791D01*
X336134Y523740D01*
X335185Y524469D01*
X334080Y524926D01*
X332894Y525082D01*
X332106D01*
X330920Y524926D01*
X329815Y524469D01*
X328866Y523740D01*
X328138Y522791D01*
X327680Y521686D01*
X327524Y520500D01*
X327680Y519314D01*
X328138Y518209D01*
X328866Y517260D01*
X329815Y516531D01*
X330920Y516074D01*
X332106Y515917D01*
X332894D01*
X334080Y516074D01*
X335185Y516531D01*
X336134Y517260D01*
X336862Y518209D01*
X337229Y519095D01*
X337771D01*
X338138Y518209D01*
X338866Y517260D01*
X339815Y516531D01*
X340920Y516074D01*
X342106Y515917D01*
X342894D01*
X344080Y516074D01*
X344665Y516316D01*
X380673Y480309D01*
Y474999D01*
X380211Y474808D01*
X346840Y508179D01*
X346862Y508209D01*
X347320Y509314D01*
X347476Y510500D01*
X347320Y511686D01*
X346862Y512791D01*
X346134Y513740D01*
X345185Y514469D01*
X344080Y514926D01*
X342894Y515083D01*
X342106D01*
X340920Y514926D01*
X339815Y514469D01*
X338866Y513740D01*
X338138Y512791D01*
X337771Y511905D01*
X337229D01*
X336862Y512791D01*
X336134Y513740D01*
X335185Y514469D01*
X334080Y514926D01*
X332894Y515083D01*
X332106D01*
X330920Y514926D01*
X329815Y514469D01*
X328866Y513740D01*
X328138Y512791D01*
X327680Y511686D01*
X327524Y510500D01*
X327680Y509314D01*
X328138Y508209D01*
X328866Y507260D01*
X329815Y506531D01*
X330920Y506074D01*
X332106Y505918D01*
X332894D01*
X334080Y506074D01*
X335185Y506531D01*
X336134Y507260D01*
X336862Y508209D01*
X337229Y509095D01*
X337771D01*
X338138Y508209D01*
X338866Y507260D01*
X339815Y506531D01*
X340920Y506074D01*
X342106Y505918D01*
X342894D01*
X344080Y506074D01*
X344665Y506316D01*
X379073Y471909D01*
Y466566D01*
X378573Y466415D01*
X378509Y466509D01*
X378509Y466509D01*
X346840Y498179D01*
X346862Y498209D01*
X347320Y499314D01*
X347476Y500500D01*
X347320Y501686D01*
X346862Y502791D01*
X346134Y503740D01*
X345185Y504469D01*
X344080Y504926D01*
X342894Y505083D01*
X342106D01*
X340920Y504926D01*
X339815Y504469D01*
X338866Y503740D01*
X338138Y502791D01*
X337771Y501905D01*
X337229D01*
X336862Y502791D01*
X336134Y503740D01*
X335185Y504468D01*
X334080Y504926D01*
X332894Y505083D01*
X332106D01*
X330920Y504926D01*
X329815Y504468D01*
X328866Y503740D01*
X328138Y502791D01*
X327680Y501686D01*
X327524Y500500D01*
X327680Y499314D01*
X328138Y498209D01*
X328866Y497260D01*
X329815Y496531D01*
X330920Y496074D01*
X332106Y495918D01*
X332894D01*
X334080Y496074D01*
X335185Y496531D01*
X336134Y497260D01*
X336862Y498209D01*
X337229Y499095D01*
X337771D01*
X338138Y498209D01*
X338866Y497260D01*
X339815Y496531D01*
X340920Y496074D01*
X342106Y495918D01*
X342894D01*
X344080Y496074D01*
X344665Y496316D01*
X376073Y464909D01*
Y386441D01*
X375985Y386374D01*
X375515D01*
X375427Y386481D01*
X375427Y386481D01*
Y459000D01*
X375427Y459000D01*
X375319Y459546D01*
X375009Y460009D01*
X375009Y460009D01*
X346840Y488179D01*
X346862Y488209D01*
X347320Y489314D01*
X347476Y490500D01*
X347320Y491686D01*
X346862Y492791D01*
X346134Y493740D01*
X345185Y494469D01*
X344080Y494926D01*
X342894Y495083D01*
X342106D01*
X340920Y494926D01*
X339815Y494469D01*
X338866Y493740D01*
X338138Y492791D01*
X337771Y491905D01*
X337229D01*
X336862Y492791D01*
X336134Y493740D01*
X335185Y494469D01*
X334080Y494926D01*
X332894Y495083D01*
X332106D01*
X330920Y494926D01*
X329815Y494469D01*
X328866Y493740D01*
X328138Y492791D01*
X327680Y491686D01*
X327524Y490500D01*
X327680Y489314D01*
X328138Y488209D01*
X328866Y487260D01*
X329815Y486531D01*
X330920Y486074D01*
X332106Y485918D01*
X332894D01*
X334080Y486074D01*
X335185Y486531D01*
X336134Y487260D01*
X336862Y488209D01*
X337229Y489095D01*
X337771D01*
X338138Y488209D01*
X338866Y487260D01*
X339815Y486531D01*
X340920Y486074D01*
X342106Y485918D01*
X342894D01*
X344080Y486074D01*
X344665Y486316D01*
X372573Y458409D01*
Y453099D01*
X372111Y452908D01*
X346840Y478179D01*
X346862Y478209D01*
X347320Y479314D01*
X347476Y480500D01*
X347320Y481686D01*
X346862Y482791D01*
X346134Y483740D01*
X345185Y484469D01*
X344080Y484926D01*
X342894Y485082D01*
X342106D01*
X340920Y484926D01*
X339815Y484469D01*
X338866Y483740D01*
X338138Y482791D01*
X337771Y481905D01*
X337229D01*
X336862Y482791D01*
X336134Y483740D01*
X335185Y484469D01*
X334080Y484926D01*
X332894Y485082D01*
X332106D01*
X330920Y484926D01*
X329815Y484469D01*
X328866Y483740D01*
X328138Y482791D01*
X327680Y481686D01*
X327524Y480500D01*
X327680Y479314D01*
X328138Y478209D01*
X328866Y477260D01*
X329815Y476531D01*
X330920Y476074D01*
X332106Y475917D01*
X332894D01*
X334080Y476074D01*
X335185Y476531D01*
X336134Y477260D01*
X336862Y478209D01*
X337229Y479095D01*
X337771D01*
X338138Y478209D01*
X338866Y477260D01*
X339815Y476531D01*
X340920Y476074D01*
X342106Y475917D01*
X342894D01*
X344080Y476074D01*
X344665Y476316D01*
X370173Y450809D01*
Y445499D01*
X369711Y445308D01*
X346840Y468179D01*
X346862Y468209D01*
X347320Y469314D01*
X347476Y470500D01*
X347320Y471686D01*
X346862Y472791D01*
X346134Y473740D01*
X345185Y474469D01*
X344080Y474926D01*
X342894Y475082D01*
X342106D01*
X340920Y474926D01*
X339815Y474469D01*
X338866Y473740D01*
X338138Y472791D01*
X337771Y471905D01*
X337229D01*
X336862Y472791D01*
X336134Y473740D01*
X335185Y474469D01*
X334080Y474926D01*
X332894Y475082D01*
X332106D01*
X330920Y474926D01*
X329815Y474469D01*
X328866Y473740D01*
X328138Y472791D01*
X327680Y471686D01*
X327524Y470500D01*
X327680Y469314D01*
X328138Y468209D01*
X328866Y467260D01*
X329815Y466531D01*
X330920Y466074D01*
X332106Y465917D01*
X332894D01*
X334080Y466074D01*
X335185Y466531D01*
X336134Y467260D01*
X336862Y468209D01*
X337229Y469095D01*
X337771D01*
X338138Y468209D01*
X338866Y467260D01*
X339815Y466531D01*
X340920Y466074D01*
X342106Y465917D01*
X342894D01*
X344080Y466074D01*
X344665Y466316D01*
X368573Y442409D01*
Y437153D01*
X368073Y436946D01*
X346840Y458179D01*
X346862Y458209D01*
X347320Y459314D01*
X347476Y460500D01*
X347320Y461686D01*
X346862Y462791D01*
X346134Y463740D01*
X345185Y464469D01*
X344080Y464926D01*
X342894Y465083D01*
X342106D01*
X340920Y464926D01*
X339815Y464469D01*
X338866Y463740D01*
X338138Y462791D01*
X337771Y461905D01*
X337229D01*
X336862Y462791D01*
X336134Y463740D01*
X335185Y464469D01*
X334080Y464926D01*
X332894Y465083D01*
X332106D01*
X330920Y464926D01*
X329815Y464469D01*
X328866Y463740D01*
X328138Y462791D01*
X327680Y461686D01*
X327524Y460500D01*
X327680Y459314D01*
X328138Y458209D01*
X328866Y457260D01*
X329815Y456531D01*
X330920Y456074D01*
X332106Y455918D01*
X332894D01*
X334080Y456074D01*
X335185Y456531D01*
X336134Y457260D01*
X336862Y458209D01*
X337229Y459095D01*
X337771D01*
X338138Y458209D01*
X338866Y457260D01*
X339815Y456531D01*
X340920Y456074D01*
X342106Y455918D01*
X342894D01*
X344080Y456074D01*
X344665Y456316D01*
X366104Y434877D01*
Y385260D01*
X365650D01*
X365614Y385212D01*
X365552Y385118D01*
X365500Y385026D01*
Y384359D01*
X365546Y384309D01*
X365606Y384268D01*
X365674Y384244D01*
X365750Y384236D01*
X365500D01*
Y383000D01*
X364500D01*
Y384236D01*
X364150D01*
X364226Y384244D01*
X364294Y384268D01*
X364354Y384309D01*
X364406Y384366D01*
X364450Y384439D01*
X364486Y384528D01*
X364500Y384581D01*
Y384720D01*
X364480Y384787D01*
X364440Y384884D01*
X364391Y384979D01*
X364334Y385069D01*
X364268Y385157D01*
X364193Y385241D01*
X364174Y385260D01*
X359354D01*
Y380740D01*
X360977D01*
X360998Y380637D01*
X361307Y380174D01*
X362287Y379194D01*
Y377079D01*
X358463D01*
Y387044D01*
X359538Y388119D01*
X360134D01*
X360935Y388451D01*
X361549Y389065D01*
X361881Y389866D01*
Y390734D01*
X361549Y391535D01*
X360935Y392149D01*
X360134Y392481D01*
X359266D01*
X358465Y392149D01*
X357851Y391535D01*
X357519Y390734D01*
Y390138D01*
X356259Y388878D01*
X356255Y388877D01*
X356246Y388886D01*
X355763Y388162D01*
X355592Y387304D01*
X355608D01*
X355608Y387304D01*
Y370713D01*
X353132D01*
Y370713D01*
X352652Y370670D01*
X348869Y391572D01*
X348858Y391600D01*
X348850Y391685D01*
X348504Y392824D01*
X348308Y393190D01*
X348270Y393319D01*
X346176Y397314D01*
X346862Y398209D01*
X347320Y399314D01*
X347476Y400500D01*
X347320Y401686D01*
X346862Y402791D01*
X346134Y403740D01*
X345185Y404469D01*
X344080Y404926D01*
X342894Y405083D01*
X342106D01*
X340920Y404926D01*
X339815Y404469D01*
X338866Y403740D01*
X338138Y402791D01*
X337771Y401905D01*
X337229D01*
X336862Y402791D01*
X336134Y403740D01*
X335185Y404469D01*
X334080Y404926D01*
X332894Y405083D01*
X332106D01*
X330920Y404926D01*
X329815Y404469D01*
X328866Y403740D01*
X328138Y402791D01*
X327680Y401686D01*
X327524Y400500D01*
X327680Y399314D01*
X328138Y398209D01*
X328866Y397260D01*
X329815Y396531D01*
X330920Y396074D01*
X332106Y395918D01*
X332894D01*
X334080Y396074D01*
X335185Y396531D01*
X336134Y397260D01*
X336862Y398209D01*
X337229Y399095D01*
X337771D01*
X338138Y398209D01*
X338866Y397260D01*
X339815Y396531D01*
X340920Y396074D01*
X342106Y395918D01*
X342894D01*
X343633Y396015D01*
X343929Y395450D01*
X343607Y394989D01*
X342894Y395082D01*
X342106D01*
X340920Y394926D01*
X339815Y394469D01*
X338866Y393740D01*
X338138Y392791D01*
X337771Y391905D01*
X337229D01*
X336862Y392791D01*
X336134Y393740D01*
X335185Y394469D01*
X334080Y394926D01*
X332894Y395082D01*
X332106D01*
X330920Y394926D01*
X329815Y394469D01*
X328866Y393740D01*
X328138Y392791D01*
X327680Y391686D01*
X327524Y390500D01*
X327680Y389314D01*
X328138Y388209D01*
X328866Y387260D01*
X329815Y386531D01*
X330920Y386074D01*
X332106Y385917D01*
X332894D01*
X334080Y386074D01*
X335185Y386531D01*
X336134Y387260D01*
X336862Y388209D01*
X337229Y389095D01*
X337771D01*
X338138Y388209D01*
X338866Y387260D01*
X339815Y386531D01*
X340920Y386074D01*
X342106Y385917D01*
X342894D01*
X343633Y386015D01*
X343929Y385451D01*
X343607Y384989D01*
X342894Y385083D01*
X342106D01*
X340920Y384926D01*
X339815Y384469D01*
X338866Y383740D01*
X338138Y382791D01*
X337771Y381905D01*
X337229D01*
X336862Y382791D01*
X336134Y383740D01*
X335185Y384469D01*
X334080Y384926D01*
X332894Y385083D01*
X332106D01*
X330920Y384926D01*
X329815Y384469D01*
X328866Y383740D01*
X328138Y382791D01*
X327680Y381686D01*
X327524Y380500D01*
X327680Y379314D01*
X328138Y378209D01*
X328866Y377260D01*
X329815Y376531D01*
X330920Y376074D01*
X332106Y375918D01*
X332894D01*
X334080Y376074D01*
X335185Y376531D01*
X336134Y377260D01*
X336862Y378209D01*
X337229Y379095D01*
X337771D01*
X338138Y378209D01*
X338866Y377260D01*
X339815Y376531D01*
X340920Y376074D01*
X342106Y375918D01*
X342894D01*
X343633Y376015D01*
X343929Y375450D01*
X343607Y374989D01*
X342894Y375082D01*
X342106D01*
X340920Y374926D01*
X339815Y374469D01*
X338866Y373740D01*
X338138Y372791D01*
X337771Y371905D01*
X337229D01*
X336862Y372791D01*
X336134Y373740D01*
X335185Y374469D01*
X334080Y374926D01*
X332894Y375082D01*
X332106D01*
X330920Y374926D01*
X329815Y374469D01*
X328866Y373740D01*
X328138Y372791D01*
X327680Y371686D01*
X327524Y370500D01*
X327680Y369314D01*
X328138Y368209D01*
X328866Y367260D01*
X329815Y366531D01*
X330920Y366074D01*
X332106Y365917D01*
X332894D01*
X334080Y366074D01*
X335185Y366531D01*
X336134Y367260D01*
X336862Y368209D01*
X337229Y369095D01*
X337771D01*
X338138Y368209D01*
X338866Y367260D01*
X339815Y366531D01*
X340920Y366074D01*
X342106Y365917D01*
X342894D01*
X343633Y366015D01*
X343888Y365529D01*
X343897Y365472D01*
X343896Y365410D01*
X343868Y365278D01*
X343607Y364989D01*
X342894Y365083D01*
X342106D01*
X340920Y364926D01*
X339815Y364469D01*
X338866Y363740D01*
X338138Y362791D01*
X337771Y361905D01*
X337229D01*
X336862Y362791D01*
X336134Y363740D01*
X335185Y364469D01*
X334080Y364926D01*
X332894Y365083D01*
X332106D01*
X330920Y364926D01*
X329815Y364469D01*
X328866Y363740D01*
X328138Y362791D01*
X327680Y361686D01*
X327524Y360500D01*
X327680Y359314D01*
X328138Y358209D01*
X328866Y357260D01*
X329815Y356531D01*
X330920Y356074D01*
X332106Y355918D01*
X332894D01*
X334080Y356074D01*
X335185Y356531D01*
X336134Y357260D01*
X336862Y358209D01*
X337229Y359095D01*
X337771D01*
X338138Y358209D01*
X338866Y357260D01*
X339815Y356531D01*
X340920Y356074D01*
X341480Y356000D01*
Y355000D01*
X340920Y354926D01*
X339815Y354469D01*
X338866Y353740D01*
X338138Y352791D01*
X337771Y351905D01*
X337229D01*
X336862Y352791D01*
X336134Y353740D01*
X335185Y354469D01*
X334080Y354926D01*
X332894Y355083D01*
X332106D01*
X330920Y354926D01*
X329815Y354469D01*
X328866Y353740D01*
X328138Y352791D01*
X327680Y351686D01*
X327524Y350500D01*
X327680Y349314D01*
X328138Y348209D01*
X328866Y347260D01*
X329815Y346531D01*
X330920Y346074D01*
X332106Y345918D01*
X332894D01*
X334080Y346074D01*
X335185Y346531D01*
X336134Y347260D01*
X336862Y348209D01*
X337229Y349095D01*
X337771D01*
X338138Y348209D01*
X338866Y347260D01*
X339815Y346531D01*
X340920Y346074D01*
X342106Y345918D01*
X342894D01*
X343642Y346016D01*
X344270Y345388D01*
X344134Y345060D01*
X344016Y344935D01*
X343000Y345069D01*
Y341000D01*
X347410D01*
X347320Y341686D01*
X347118Y342174D01*
X347465Y342615D01*
X349536D01*
X349760Y342660D01*
X349868Y342399D01*
X350481Y341786D01*
X351059Y341547D01*
X351178Y340992D01*
X349581Y339634D01*
X349503Y339537D01*
X349158Y339253D01*
X348283Y338187D01*
X347633Y336971D01*
X347248Y335699D01*
X347249Y335699D01*
X346816Y333598D01*
X346329Y333487D01*
X346134Y333740D01*
X345185Y334469D01*
X344080Y334926D01*
X343000Y335068D01*
Y330500D01*
Y325932D01*
X343607Y326011D01*
X343929Y325550D01*
X343633Y324985D01*
X342894Y325082D01*
X342106D01*
X340920Y324926D01*
X339815Y324469D01*
X338866Y323740D01*
X338138Y322791D01*
X337771Y321905D01*
X337229D01*
X336862Y322791D01*
X336134Y323740D01*
X335185Y324469D01*
X334080Y324926D01*
X332894Y325082D01*
X332106D01*
X330920Y324926D01*
X329815Y324469D01*
X328866Y323740D01*
X328138Y322791D01*
X327680Y321686D01*
X327524Y320500D01*
X327680Y319314D01*
X328138Y318209D01*
X328866Y317260D01*
X329815Y316531D01*
X330920Y316074D01*
X332106Y315917D01*
X332894D01*
X334080Y316074D01*
X335185Y316531D01*
X336134Y317260D01*
X336862Y318209D01*
X337229Y319095D01*
X337771D01*
X338138Y318209D01*
X338866Y317260D01*
X339815Y316531D01*
X340920Y316074D01*
X342106Y315917D01*
X342894D01*
X343607Y316011D01*
X343929Y315549D01*
X343633Y314985D01*
X342894Y315083D01*
X342106D01*
X340920Y314926D01*
X339815Y314469D01*
X338866Y313740D01*
X338138Y312791D01*
X337771Y311905D01*
X337229D01*
X336862Y312791D01*
X336134Y313740D01*
X335185Y314469D01*
X334080Y314926D01*
X332894Y315083D01*
X332106D01*
X330920Y314926D01*
X329815Y314469D01*
X328866Y313740D01*
X328138Y312791D01*
X327680Y311686D01*
X327524Y310500D01*
X327680Y309314D01*
X328138Y308209D01*
X328866Y307260D01*
X329815Y306531D01*
X330920Y306074D01*
X332106Y305918D01*
X332894D01*
X334080Y306074D01*
X335185Y306531D01*
X336134Y307260D01*
X336862Y308209D01*
X337229Y309095D01*
X337771D01*
X338138Y308209D01*
X338866Y307260D01*
X339815Y306531D01*
X340920Y306074D01*
X342106Y305918D01*
X342894D01*
X343607Y306011D01*
X343929Y305550D01*
X343633Y304985D01*
X342894Y305083D01*
X342106D01*
X340920Y304926D01*
X339815Y304469D01*
X338866Y303740D01*
X338138Y302791D01*
X337771Y301905D01*
X337229D01*
X336862Y302791D01*
X336134Y303740D01*
X335185Y304469D01*
X334080Y304926D01*
X332894Y305083D01*
X332106D01*
X330920Y304926D01*
X329815Y304469D01*
X328866Y303740D01*
X328138Y302791D01*
X327680Y301686D01*
X327524Y300500D01*
X327680Y299314D01*
X328138Y298209D01*
X328866Y297260D01*
X329815Y296531D01*
X330920Y296074D01*
X332106Y295918D01*
X332894D01*
X334080Y296074D01*
X335185Y296531D01*
X336134Y297260D01*
X336862Y298209D01*
X337229Y299095D01*
X337771D01*
X338138Y298209D01*
X338866Y297260D01*
X339815Y296531D01*
X340920Y296074D01*
X342106Y295918D01*
X342894D01*
X343607Y296011D01*
X343929Y295550D01*
X343633Y294985D01*
X342894Y295082D01*
X342106D01*
X340920Y294926D01*
X339815Y294469D01*
X338866Y293740D01*
X338138Y292791D01*
X337771Y291905D01*
X337229D01*
X336862Y292791D01*
X336134Y293740D01*
X335185Y294469D01*
X334080Y294926D01*
X332894Y295082D01*
X332106D01*
X330920Y294926D01*
X329815Y294469D01*
X328866Y293740D01*
X328138Y292791D01*
X327680Y291686D01*
X327524Y290500D01*
X327680Y289314D01*
X328138Y288209D01*
X328866Y287260D01*
X329815Y286531D01*
X330920Y286074D01*
X332106Y285917D01*
X332894D01*
X334080Y286074D01*
X335185Y286531D01*
X336134Y287260D01*
X336862Y288209D01*
X337229Y289095D01*
X337771D01*
X338138Y288209D01*
X338866Y287260D01*
X339815Y286531D01*
X340920Y286074D01*
X342106Y285917D01*
X342894D01*
X344080Y286074D01*
X345185Y286531D01*
X346134Y287260D01*
X346862Y288209D01*
X347320Y289314D01*
X347476Y290500D01*
X347320Y291686D01*
X346862Y292791D01*
X346176Y293686D01*
X348270Y297681D01*
X348308Y297810D01*
X348504Y298176D01*
X348850Y299315D01*
X348869Y299510D01*
X348894Y299577D01*
X352632Y322867D01*
X353132Y322828D01*
Y320287D01*
X355608D01*
Y301143D01*
X355608Y301143D01*
X355592D01*
X355763Y300285D01*
X356008Y299919D01*
X356088Y299762D01*
X357525Y297948D01*
X357519Y297934D01*
Y297066D01*
X357851Y296265D01*
X358465Y295651D01*
X359266Y295319D01*
X360134D01*
X360935Y295651D01*
X361549Y296265D01*
X361881Y297066D01*
Y297934D01*
X361549Y298735D01*
X360935Y299349D01*
X360134Y299681D01*
X359793D01*
X358463Y301361D01*
Y320287D01*
X359719D01*
Y319766D01*
X360051Y318965D01*
X360665Y318351D01*
X361466Y318019D01*
X362287D01*
Y315535D01*
X363878D01*
Y314535D01*
X362287D01*
Y311132D01*
X364246D01*
Y309760D01*
X362535D01*
Y309548D01*
X362600D01*
X362604Y309394D01*
X362616Y309256D01*
X362636Y309134D01*
X362664Y309028D01*
X362700Y308939D01*
X362744Y308866D01*
X362796Y308809D01*
X362856Y308768D01*
X362924Y308744D01*
X363000Y308736D01*
X362535D01*
Y307500D01*
Y305240D01*
X366387D01*
Y246406D01*
X344665Y224684D01*
X344080Y224926D01*
X342894Y225082D01*
X342106D01*
X340920Y224926D01*
X339815Y224469D01*
X338866Y223740D01*
X338138Y222791D01*
X337771Y221905D01*
X337229D01*
X336862Y222791D01*
X336134Y223740D01*
X335185Y224469D01*
X334080Y224926D01*
X332894Y225082D01*
X332106D01*
X330920Y224926D01*
X329815Y224469D01*
X328866Y223740D01*
X328138Y222791D01*
X327680Y221686D01*
X327524Y220500D01*
X327680Y219314D01*
X328138Y218209D01*
X328866Y217260D01*
X329815Y216531D01*
X330920Y216074D01*
X332106Y215917D01*
X332894D01*
X334080Y216074D01*
X335185Y216531D01*
X336134Y217260D01*
X336862Y218209D01*
X337229Y219095D01*
X337771D01*
X338138Y218209D01*
X338866Y217260D01*
X339815Y216531D01*
X340920Y216074D01*
X342106Y215917D01*
X342894D01*
X344080Y216074D01*
X345185Y216531D01*
X346134Y217260D01*
X346862Y218209D01*
X347320Y219314D01*
X347476Y220500D01*
X347320Y221686D01*
X346862Y222791D01*
X346840Y222821D01*
X367894Y243876D01*
X368356Y243684D01*
Y238375D01*
X344665Y214684D01*
X344080Y214926D01*
X342894Y215083D01*
X342106D01*
X340920Y214926D01*
X339815Y214469D01*
X338866Y213740D01*
X338138Y212791D01*
X337771Y211905D01*
X337229D01*
X336862Y212791D01*
X336134Y213740D01*
X335185Y214469D01*
X334080Y214926D01*
X332894Y215083D01*
X332106D01*
X330920Y214926D01*
X329815Y214469D01*
X328866Y213740D01*
X328138Y212791D01*
X327680Y211686D01*
X327524Y210500D01*
X327680Y209314D01*
X328138Y208209D01*
X328866Y207260D01*
X329815Y206531D01*
X330920Y206074D01*
X332106Y205918D01*
X332894D01*
X334080Y206074D01*
X335185Y206531D01*
X336134Y207260D01*
X336862Y208209D01*
X337229Y209095D01*
X337771D01*
X338138Y208209D01*
X338866Y207260D01*
X339815Y206531D01*
X340920Y206074D01*
X342106Y205918D01*
X342894D01*
X344080Y206074D01*
X345185Y206531D01*
X346134Y207260D01*
X346862Y208209D01*
X347320Y209314D01*
X347476Y210500D01*
X347320Y211686D01*
X346862Y212791D01*
X346840Y212821D01*
X369863Y235844D01*
X370325Y235653D01*
Y230343D01*
X344665Y204684D01*
X344080Y204926D01*
X342894Y205083D01*
X342106D01*
X340920Y204926D01*
X339815Y204469D01*
X338866Y203740D01*
X338138Y202791D01*
X337771Y201905D01*
X337229D01*
X336862Y202791D01*
X336134Y203740D01*
X335185Y204469D01*
X334080Y204926D01*
X332894Y205083D01*
X332106D01*
X330920Y204926D01*
X329815Y204469D01*
X328866Y203740D01*
X328138Y202791D01*
X327680Y201686D01*
X327524Y200500D01*
X327680Y199314D01*
X328138Y198209D01*
X328866Y197260D01*
X329815Y196531D01*
X330920Y196074D01*
X332106Y195917D01*
X332894D01*
X334080Y196074D01*
X335185Y196531D01*
X336134Y197260D01*
X336862Y198209D01*
X337229Y199095D01*
X337771D01*
X338138Y198209D01*
X338866Y197260D01*
X339815Y196531D01*
X340920Y196074D01*
X342106Y195917D01*
X342894D01*
X344080Y196074D01*
X345185Y196531D01*
X346134Y197260D01*
X346862Y198209D01*
X347320Y199314D01*
X347476Y200500D01*
X347320Y201686D01*
X346862Y202791D01*
X346840Y202821D01*
X371831Y227813D01*
X372293Y227621D01*
Y222312D01*
X344665Y194684D01*
X344080Y194926D01*
X342894Y195082D01*
X342106D01*
X340920Y194926D01*
X339815Y194469D01*
X338866Y193740D01*
X338138Y192791D01*
X337771Y191905D01*
X337229D01*
X336862Y192791D01*
X336134Y193740D01*
X335185Y194469D01*
X334080Y194926D01*
X332894Y195082D01*
X332106D01*
X330920Y194926D01*
X329815Y194469D01*
X328866Y193740D01*
X328138Y192791D01*
X327680Y191686D01*
X327524Y190500D01*
X327680Y189314D01*
X328138Y188209D01*
X328866Y187260D01*
X329815Y186531D01*
X330920Y186074D01*
X332106Y185917D01*
X332894D01*
X334080Y186074D01*
X335185Y186531D01*
X336134Y187260D01*
X336862Y188209D01*
X337229Y189095D01*
X337771D01*
X338138Y188209D01*
X338866Y187260D01*
X339815Y186531D01*
X340920Y186074D01*
X342106Y185917D01*
X342894D01*
X344080Y186074D01*
X345185Y186531D01*
X346134Y187260D01*
X346862Y188209D01*
X347320Y189314D01*
X347476Y190500D01*
X347320Y191686D01*
X346862Y192791D01*
X346840Y192821D01*
X373800Y219781D01*
X374262Y219590D01*
Y214280D01*
X344665Y184684D01*
X344080Y184926D01*
X342894Y185082D01*
X342106D01*
X340920Y184926D01*
X339815Y184469D01*
X338866Y183740D01*
X338138Y182791D01*
X337771Y181905D01*
X337229D01*
X336862Y182791D01*
X336134Y183740D01*
X335185Y184469D01*
X334080Y184926D01*
X332894Y185082D01*
X332106D01*
X330920Y184926D01*
X329815Y184469D01*
X328866Y183740D01*
X328138Y182791D01*
X327680Y181686D01*
X327524Y180500D01*
X327680Y179314D01*
X328138Y178209D01*
X328866Y177260D01*
X329815Y176531D01*
X330920Y176074D01*
X332106Y175917D01*
X332894D01*
X334080Y176074D01*
X335185Y176531D01*
X336134Y177260D01*
X336862Y178209D01*
X337229Y179095D01*
X337771D01*
X338138Y178209D01*
X338866Y177260D01*
X339815Y176531D01*
X340920Y176074D01*
X342106Y175917D01*
X342894D01*
X344080Y176074D01*
X345185Y176531D01*
X346134Y177260D01*
X346862Y178209D01*
X347320Y179314D01*
X347476Y180500D01*
X347320Y181686D01*
X346862Y182791D01*
X346840Y182821D01*
X375768Y211750D01*
X376230Y211558D01*
Y206249D01*
X344665Y174684D01*
X344080Y174926D01*
X342894Y175083D01*
X342106D01*
X340920Y174926D01*
X339815Y174469D01*
X338866Y173740D01*
X338138Y172791D01*
X337771Y171905D01*
X337229D01*
X336862Y172791D01*
X336134Y173740D01*
X335185Y174469D01*
X334080Y174926D01*
X332894Y175083D01*
X332106D01*
X330920Y174926D01*
X329815Y174469D01*
X328866Y173740D01*
X328138Y172791D01*
X327680Y171686D01*
X327524Y170500D01*
X327680Y169314D01*
X328138Y168209D01*
X328866Y167260D01*
X329815Y166531D01*
X330920Y166074D01*
X332106Y165918D01*
X332894D01*
X334080Y166074D01*
X335185Y166531D01*
X336134Y167260D01*
X336862Y168209D01*
X337229Y169095D01*
X337771D01*
X338138Y168209D01*
X338866Y167260D01*
X339815Y166531D01*
X340920Y166074D01*
X342106Y165918D01*
X342894D01*
X344080Y166074D01*
X345185Y166531D01*
X346134Y167260D01*
X346862Y168209D01*
X347320Y169314D01*
X347476Y170500D01*
X347320Y171686D01*
X346862Y172791D01*
X346840Y172821D01*
X377737Y203718D01*
X378199Y203527D01*
Y198217D01*
X344665Y164684D01*
X344080Y164926D01*
X342894Y165083D01*
X342106D01*
X340920Y164926D01*
X339815Y164469D01*
X338866Y163740D01*
X338138Y162791D01*
X337771Y161905D01*
X337229D01*
X336862Y162791D01*
X336134Y163740D01*
X335185Y164469D01*
X334080Y164926D01*
X332894Y165083D01*
X332106D01*
X330920Y164926D01*
X329815Y164469D01*
X328866Y163740D01*
X328138Y162791D01*
X327680Y161686D01*
X327524Y160500D01*
X327680Y159314D01*
X328138Y158209D01*
X328866Y157260D01*
X329815Y156531D01*
X330920Y156074D01*
X332106Y155918D01*
X332894D01*
X334080Y156074D01*
X335185Y156531D01*
X336134Y157260D01*
X336862Y158209D01*
X337229Y159095D01*
X337771D01*
X338138Y158209D01*
X338866Y157260D01*
X339815Y156531D01*
X340920Y156074D01*
X342106Y155918D01*
X342894D01*
X344080Y156074D01*
X345185Y156531D01*
X346134Y157260D01*
X346862Y158209D01*
X347320Y159314D01*
X347476Y160500D01*
X347320Y161686D01*
X346862Y162791D01*
X346840Y162821D01*
X379705Y195686D01*
X380167Y195495D01*
Y190186D01*
X344665Y154684D01*
X344080Y154926D01*
X342894Y155082D01*
X342106D01*
X340920Y154926D01*
X339815Y154469D01*
X338866Y153740D01*
X338138Y152791D01*
X337771Y151905D01*
X337229D01*
X336862Y152791D01*
X336134Y153740D01*
X335185Y154469D01*
X334080Y154926D01*
X332894Y155082D01*
X332106D01*
X330920Y154926D01*
X329815Y154469D01*
X328866Y153740D01*
X328138Y152791D01*
X327680Y151686D01*
X327524Y150500D01*
X327680Y149314D01*
X328138Y148209D01*
X328866Y147260D01*
X329815Y146531D01*
X330920Y146074D01*
X332106Y145917D01*
X332894D01*
X334080Y146074D01*
X335185Y146531D01*
X336134Y147260D01*
X336862Y148209D01*
X337229Y149095D01*
X337771D01*
X338138Y148209D01*
X338866Y147260D01*
X339815Y146531D01*
X340920Y146074D01*
X342106Y145917D01*
X342894D01*
X344080Y146074D01*
X345185Y146531D01*
X346134Y147260D01*
X346862Y148209D01*
X347320Y149314D01*
X347476Y150500D01*
X347320Y151686D01*
X346862Y152791D01*
X346840Y152821D01*
X381674Y187655D01*
X382136Y187464D01*
Y182154D01*
X344665Y144684D01*
X344080Y144926D01*
X342894Y145082D01*
X342106D01*
X340920Y144926D01*
X339815Y144469D01*
X338866Y143740D01*
X338138Y142791D01*
X337771Y141905D01*
X337229D01*
X336862Y142791D01*
X336134Y143740D01*
X335185Y144469D01*
X334080Y144926D01*
X332894Y145082D01*
X332106D01*
X330920Y144926D01*
X329815Y144469D01*
X328866Y143740D01*
X328138Y142791D01*
X327680Y141686D01*
X327524Y140500D01*
X327680Y139314D01*
X328138Y138209D01*
X328866Y137260D01*
X329815Y136531D01*
X330920Y136074D01*
X332106Y135917D01*
X332894D01*
X334080Y136074D01*
X335185Y136531D01*
X336134Y137260D01*
X336862Y138209D01*
X337229Y139095D01*
X337771D01*
X338138Y138209D01*
X338866Y137260D01*
X339815Y136531D01*
X340920Y136074D01*
X342106Y135917D01*
X342894D01*
X344080Y136074D01*
X345185Y136531D01*
X346134Y137260D01*
X346862Y138209D01*
X347320Y139314D01*
X347476Y140500D01*
X347320Y141686D01*
X346862Y142791D01*
X346840Y142821D01*
X383642Y179623D01*
X384104Y179432D01*
Y177469D01*
X384104Y177469D01*
X384213Y176922D01*
X384522Y176459D01*
X428160Y132821D01*
X428138Y132791D01*
X427680Y131686D01*
X427524Y130500D01*
X427680Y129314D01*
X428138Y128209D01*
X428866Y127260D01*
X429815Y126531D01*
X430920Y126074D01*
X432106Y125917D01*
X432894D01*
X434080Y126074D01*
X435185Y126531D01*
X436134Y127260D01*
X436862Y128209D01*
X437229Y129095D01*
X437771D01*
X438138Y128209D01*
X438866Y127260D01*
X439815Y126531D01*
X440920Y126074D01*
X442106Y125917D01*
X442894D01*
X444080Y126074D01*
X445185Y126531D01*
X446134Y127260D01*
X446862Y128209D01*
X447320Y129314D01*
X447476Y130500D01*
X447320Y131686D01*
X446862Y132791D01*
X446134Y133740D01*
X445185Y134469D01*
X444080Y134926D01*
X442894Y135082D01*
X442106D01*
X440920Y134926D01*
X439815Y134469D01*
X438866Y133740D01*
X438138Y132791D01*
X437771Y131905D01*
X437229D01*
X436862Y132791D01*
X436134Y133740D01*
X435185Y134469D01*
X434080Y134926D01*
X432894Y135082D01*
X432106D01*
X430920Y134926D01*
X430335Y134684D01*
X386959Y178060D01*
Y183369D01*
X387421Y183561D01*
X428160Y142821D01*
X428138Y142791D01*
X427680Y141686D01*
X427524Y140500D01*
X427680Y139314D01*
X428138Y138209D01*
X428866Y137260D01*
X429815Y136531D01*
X430920Y136074D01*
X432106Y135917D01*
X432894D01*
X434080Y136074D01*
X435185Y136531D01*
X436134Y137260D01*
X436862Y138209D01*
X437229Y139095D01*
X437771D01*
X438138Y138209D01*
X438866Y137260D01*
X439815Y136531D01*
X440920Y136074D01*
X442106Y135917D01*
X442894D01*
X444080Y136074D01*
X445185Y136531D01*
X446134Y137260D01*
X446862Y138209D01*
X447320Y139314D01*
X447476Y140500D01*
X447320Y141686D01*
X446862Y142791D01*
X446134Y143740D01*
X445185Y144469D01*
X444080Y144926D01*
X442894Y145082D01*
X442106D01*
X440920Y144926D01*
X439815Y144469D01*
X438866Y143740D01*
X438138Y142791D01*
X437771Y141905D01*
X437229D01*
X436862Y142791D01*
X436134Y143740D01*
X435185Y144469D01*
X434080Y144926D01*
X432894Y145082D01*
X432106D01*
X430920Y144926D01*
X430335Y144684D01*
X388928Y186091D01*
Y191400D01*
X389390Y191592D01*
X428160Y152821D01*
X428138Y152791D01*
X427680Y151686D01*
X427524Y150500D01*
X427680Y149314D01*
X428138Y148209D01*
X428866Y147260D01*
X429815Y146531D01*
X430920Y146074D01*
X432106Y145917D01*
X432894D01*
X434080Y146074D01*
X435185Y146531D01*
X436134Y147260D01*
X436862Y148209D01*
X437229Y149095D01*
X437771D01*
X438138Y148209D01*
X438866Y147260D01*
X439815Y146531D01*
X440920Y146074D01*
X442106Y145917D01*
X442894D01*
X444080Y146074D01*
X445185Y146531D01*
X446134Y147260D01*
X446862Y148209D01*
X447320Y149314D01*
X447476Y150500D01*
X447320Y151686D01*
X446862Y152791D01*
X446134Y153740D01*
X445185Y154469D01*
X444080Y154926D01*
X442894Y155082D01*
X442106D01*
X440920Y154926D01*
X439815Y154469D01*
X438866Y153740D01*
X438138Y152791D01*
X437771Y151905D01*
X437229D01*
X436862Y152791D01*
X436134Y153740D01*
X435185Y154469D01*
X434080Y154926D01*
X432894Y155082D01*
X432106D01*
X430920Y154926D01*
X430335Y154684D01*
X390896Y194123D01*
Y199432D01*
X391358Y199623D01*
X428160Y162821D01*
X428138Y162791D01*
X427680Y161686D01*
X427524Y160500D01*
X427680Y159314D01*
X428138Y158209D01*
X428866Y157260D01*
X429815Y156531D01*
X430920Y156074D01*
X432106Y155918D01*
X432894D01*
X434080Y156074D01*
X435185Y156531D01*
X436134Y157260D01*
X436862Y158209D01*
X437229Y159095D01*
X437771D01*
X438138Y158209D01*
X438866Y157260D01*
X439815Y156532D01*
X440920Y156074D01*
X442106Y155918D01*
X442894D01*
X444080Y156074D01*
X445185Y156532D01*
X446134Y157260D01*
X446862Y158209D01*
X447320Y159314D01*
X447476Y160500D01*
X447320Y161686D01*
X446862Y162791D01*
X446134Y163740D01*
X445185Y164469D01*
X444080Y164926D01*
X442894Y165083D01*
X442106D01*
X440920Y164926D01*
X439815Y164469D01*
X438866Y163740D01*
X438138Y162791D01*
X437771Y161905D01*
X437229D01*
X436862Y162791D01*
X436134Y163740D01*
X435185Y164469D01*
X434080Y164926D01*
X432894Y165083D01*
X432106D01*
X430920Y164926D01*
X430335Y164684D01*
X392865Y202154D01*
Y207463D01*
X393327Y207655D01*
X428160Y172821D01*
X428138Y172791D01*
X427680Y171686D01*
X427524Y170500D01*
X427680Y169314D01*
X428138Y168209D01*
X428866Y167260D01*
X429815Y166531D01*
X430920Y166074D01*
X432106Y165918D01*
X432894D01*
X434080Y166074D01*
X435185Y166531D01*
X436134Y167260D01*
X436862Y168209D01*
X437229Y169095D01*
X437771D01*
X438138Y168209D01*
X438866Y167260D01*
X439815Y166531D01*
X440920Y166074D01*
X442106Y165918D01*
X442894D01*
X444080Y166074D01*
X445185Y166531D01*
X446134Y167260D01*
X446862Y168209D01*
X447320Y169314D01*
X447476Y170500D01*
X447320Y171686D01*
X446862Y172791D01*
X446134Y173740D01*
X445185Y174469D01*
X444080Y174926D01*
X442894Y175083D01*
X442106D01*
X440920Y174926D01*
X439815Y174469D01*
X438866Y173740D01*
X438138Y172791D01*
X437771Y171905D01*
X437229D01*
X436862Y172791D01*
X436134Y173740D01*
X435185Y174469D01*
X434080Y174926D01*
X432894Y175083D01*
X432106D01*
X430920Y174926D01*
X430335Y174684D01*
X394833Y210186D01*
Y215495D01*
X395295Y215686D01*
X428160Y182821D01*
X428138Y182791D01*
X427680Y181686D01*
X427524Y180500D01*
X427680Y179314D01*
X428138Y178209D01*
X428866Y177260D01*
X429815Y176531D01*
X430920Y176074D01*
X432106Y175917D01*
X432894D01*
X434080Y176074D01*
X435185Y176531D01*
X436134Y177260D01*
X436862Y178209D01*
X437229Y179095D01*
X437771D01*
X438138Y178209D01*
X438866Y177260D01*
X439815Y176531D01*
X440920Y176074D01*
X442106Y175917D01*
X442894D01*
X444080Y176074D01*
X445185Y176531D01*
X446134Y177260D01*
X446862Y178209D01*
X447320Y179314D01*
X447476Y180500D01*
X447320Y181686D01*
X446862Y182791D01*
X446134Y183740D01*
X445185Y184469D01*
X444080Y184926D01*
X442894Y185082D01*
X442106D01*
X440920Y184926D01*
X439815Y184469D01*
X438866Y183740D01*
X438138Y182791D01*
X437771Y181905D01*
X437229D01*
X436862Y182791D01*
X436134Y183740D01*
X435185Y184469D01*
X434080Y184926D01*
X432894Y185082D01*
X432106D01*
X430920Y184926D01*
X430335Y184684D01*
X396802Y218217D01*
Y223526D01*
X397264Y223718D01*
X428160Y192821D01*
X428138Y192791D01*
X427680Y191686D01*
X427524Y190500D01*
X427680Y189314D01*
X428138Y188209D01*
X428866Y187260D01*
X429815Y186531D01*
X430920Y186074D01*
X432106Y185917D01*
X432894D01*
X434080Y186074D01*
X435185Y186531D01*
X436134Y187260D01*
X436862Y188209D01*
X437229Y189095D01*
X437771D01*
X438138Y188209D01*
X438866Y187260D01*
X439815Y186531D01*
X440920Y186074D01*
X442106Y185917D01*
X442894D01*
X444080Y186074D01*
X445185Y186531D01*
X446134Y187260D01*
X446862Y188209D01*
X447320Y189314D01*
X447476Y190500D01*
X447320Y191686D01*
X446862Y192791D01*
X446134Y193740D01*
X445185Y194469D01*
X444080Y194926D01*
X442894Y195082D01*
X442106D01*
X440920Y194926D01*
X439815Y194469D01*
X438866Y193740D01*
X438138Y192791D01*
X437771Y191905D01*
X437229D01*
X436862Y192791D01*
X436134Y193740D01*
X435185Y194469D01*
X434080Y194926D01*
X432894Y195082D01*
X432106D01*
X430920Y194926D01*
X430335Y194684D01*
X398770Y226249D01*
Y231558D01*
X399232Y231749D01*
X428160Y202821D01*
X428138Y202791D01*
X427680Y201686D01*
X427524Y200500D01*
X427680Y199314D01*
X428138Y198209D01*
X428866Y197260D01*
X429815Y196531D01*
X430920Y196074D01*
X432106Y195917D01*
X432894D01*
X434080Y196074D01*
X435185Y196531D01*
X436134Y197260D01*
X436862Y198209D01*
X437229Y199095D01*
X437771D01*
X438138Y198209D01*
X438866Y197260D01*
X439815Y196531D01*
X440920Y196074D01*
X442106Y195917D01*
X442894D01*
X444080Y196074D01*
X445185Y196531D01*
X446134Y197260D01*
X446862Y198209D01*
X447320Y199314D01*
X447476Y200500D01*
X447320Y201686D01*
X446862Y202791D01*
X446134Y203740D01*
X445185Y204469D01*
X444080Y204926D01*
X442894Y205083D01*
X442106D01*
X440920Y204926D01*
X439815Y204469D01*
X438866Y203740D01*
X438138Y202791D01*
X437771Y201905D01*
X437229D01*
X436862Y202791D01*
X436134Y203740D01*
X435185Y204469D01*
X434080Y204926D01*
X432894Y205083D01*
X432106D01*
X430920Y204926D01*
X430335Y204684D01*
X400739Y234280D01*
Y239589D01*
X401201Y239781D01*
X428160Y212821D01*
X428138Y212791D01*
X427680Y211686D01*
X427524Y210500D01*
X427680Y209314D01*
X428138Y208209D01*
X428866Y207260D01*
X429815Y206531D01*
X430920Y206074D01*
X432106Y205918D01*
X432894D01*
X434080Y206074D01*
X435185Y206531D01*
X436134Y207260D01*
X436862Y208209D01*
X437229Y209095D01*
X437771D01*
X438138Y208209D01*
X438866Y207260D01*
X439815Y206531D01*
X440920Y206074D01*
X442106Y205918D01*
X442894D01*
X444080Y206074D01*
X445185Y206531D01*
X446134Y207260D01*
X446862Y208209D01*
X447320Y209314D01*
X447476Y210500D01*
X447320Y211686D01*
X446862Y212791D01*
X446134Y213740D01*
X445185Y214469D01*
X444080Y214926D01*
X442894Y215083D01*
X442106D01*
X440920Y214926D01*
X439815Y214469D01*
X438866Y213740D01*
X438138Y212791D01*
X437771Y211905D01*
X437229D01*
X436862Y212791D01*
X436134Y213740D01*
X435185Y214469D01*
X434080Y214926D01*
X432894Y215083D01*
X432106D01*
X430920Y214926D01*
X430335Y214684D01*
X402707Y242312D01*
Y247621D01*
X403169Y247812D01*
X428160Y222821D01*
X428138Y222791D01*
X427680Y221686D01*
X427524Y220500D01*
X427680Y219314D01*
X428138Y218209D01*
X428866Y217260D01*
X429815Y216531D01*
X430920Y216074D01*
X432106Y215917D01*
X432894D01*
X434080Y216074D01*
X435185Y216531D01*
X436134Y217260D01*
X436862Y218209D01*
X437229Y219095D01*
X437771D01*
X438138Y218209D01*
X438866Y217260D01*
X439815Y216531D01*
X440920Y216074D01*
X442106Y215917D01*
X442894D01*
X444080Y216074D01*
X445185Y216531D01*
X446134Y217260D01*
X446862Y218209D01*
X447320Y219314D01*
X447476Y220500D01*
X447320Y221686D01*
X446862Y222791D01*
X446134Y223740D01*
X445185Y224469D01*
X444080Y224926D01*
X442894Y225082D01*
X442106D01*
X440920Y224926D01*
X439815Y224469D01*
X438866Y223740D01*
X438138Y222791D01*
X437771Y221905D01*
X437229D01*
X436862Y222791D01*
X436134Y223740D01*
X435185Y224469D01*
X434080Y224926D01*
X432894Y225082D01*
X432106D01*
X430920Y224926D01*
X430335Y224684D01*
X404675Y250343D01*
Y255653D01*
X405137Y255844D01*
X428160Y232821D01*
X428138Y232791D01*
X427680Y231686D01*
X427524Y230500D01*
X427680Y229314D01*
X428138Y228209D01*
X428866Y227260D01*
X429815Y226531D01*
X430920Y226074D01*
X432106Y225918D01*
X432894D01*
X434080Y226074D01*
X435185Y226531D01*
X436134Y227260D01*
X436862Y228209D01*
X437229Y229095D01*
X437771D01*
X438138Y228209D01*
X438866Y227260D01*
X439815Y226531D01*
X440920Y226074D01*
X442106Y225918D01*
X442894D01*
X444080Y226074D01*
X445185Y226531D01*
X446134Y227260D01*
X446862Y228209D01*
X447320Y229314D01*
X447476Y230500D01*
X447320Y231686D01*
X446862Y232791D01*
X446134Y233740D01*
X445185Y234469D01*
X444080Y234926D01*
X442894Y235083D01*
X442106D01*
X440920Y234926D01*
X439815Y234469D01*
X438866Y233740D01*
X438138Y232791D01*
X437771Y231905D01*
X437229D01*
X436862Y232791D01*
X436134Y233740D01*
X435185Y234469D01*
X434080Y234926D01*
X432894Y235083D01*
X432106D01*
X430920Y234926D01*
X430335Y234684D01*
X406644Y258375D01*
Y304813D01*
X406819Y305240D01*
X408500D01*
Y307500D01*
X409500D01*
Y305240D01*
X411579D01*
X411752Y305214D01*
X411856Y305240D01*
X414646D01*
Y309760D01*
X413738D01*
X413316Y309960D01*
X413207Y310506D01*
X412898Y310969D01*
X412898Y310969D01*
X412713Y311155D01*
Y318939D01*
X412549D01*
Y319749D01*
X412535Y319821D01*
X413332Y320151D01*
X413561Y320380D01*
X414061Y320287D01*
Y320287D01*
X414061Y320287D01*
X416073D01*
Y309157D01*
X415651Y308735D01*
X415319Y307934D01*
Y307066D01*
X415651Y306264D01*
X416264Y305651D01*
X417066Y305319D01*
X417934D01*
X418736Y305651D01*
X419349Y306264D01*
X419681Y307066D01*
Y307934D01*
X419349Y308735D01*
X418927Y309157D01*
Y320287D01*
X421868D01*
Y320287D01*
X422359Y320266D01*
X426133Y299414D01*
X426143Y299390D01*
X426150Y299315D01*
X426496Y298176D01*
X426687Y297818D01*
X426725Y297690D01*
X428824Y293686D01*
X428138Y292791D01*
X427680Y291686D01*
X427524Y290500D01*
X427680Y289314D01*
X428138Y288209D01*
X428866Y287260D01*
X429815Y286531D01*
X430920Y286074D01*
X432106Y285917D01*
X432894D01*
X434080Y286074D01*
X435185Y286531D01*
X436134Y287260D01*
X436862Y288209D01*
X437229Y289095D01*
X437771D01*
X438138Y288209D01*
X438866Y287260D01*
X439815Y286531D01*
X440920Y286074D01*
X442106Y285917D01*
X442894D01*
X444080Y286074D01*
X445185Y286531D01*
X446134Y287260D01*
X446862Y288209D01*
X447320Y289314D01*
X447476Y290500D01*
X447320Y291686D01*
X446862Y292791D01*
X446134Y293740D01*
X445185Y294469D01*
X444080Y294926D01*
X442894Y295082D01*
X442106D01*
X440920Y294926D01*
X439815Y294469D01*
X438866Y293740D01*
X438138Y292791D01*
X437771Y291905D01*
X437229D01*
X436862Y292791D01*
X436134Y293740D01*
X435185Y294469D01*
X434080Y294926D01*
X432894Y295082D01*
X432106D01*
X431367Y294985D01*
X431071Y295550D01*
X431393Y296011D01*
X432106Y295918D01*
X432894D01*
X434080Y296074D01*
X435185Y296531D01*
X436134Y297260D01*
X436862Y298209D01*
X437229Y299095D01*
X437771D01*
X438138Y298209D01*
X438866Y297260D01*
X439815Y296531D01*
X440920Y296074D01*
X442106Y295918D01*
X442894D01*
X444080Y296074D01*
X445185Y296531D01*
X446134Y297260D01*
X446862Y298209D01*
X447320Y299314D01*
X447476Y300500D01*
X447320Y301686D01*
X446862Y302791D01*
X446134Y303740D01*
X445185Y304469D01*
X444080Y304926D01*
X442894Y305083D01*
X442106D01*
X440920Y304926D01*
X439815Y304469D01*
X438866Y303740D01*
X438138Y302791D01*
X437771Y301905D01*
X437229D01*
X436862Y302791D01*
X436134Y303740D01*
X435185Y304469D01*
X434080Y304926D01*
X432894Y305083D01*
X432106D01*
X431367Y304985D01*
X431071Y305550D01*
X431393Y306011D01*
X432106Y305918D01*
X432894D01*
X434080Y306074D01*
X435185Y306531D01*
X436134Y307260D01*
X436862Y308209D01*
X437229Y309095D01*
X437771D01*
X438138Y308209D01*
X438866Y307260D01*
X439815Y306531D01*
X440920Y306074D01*
X442106Y305918D01*
X442894D01*
X444080Y306074D01*
X445185Y306531D01*
X446134Y307260D01*
X446862Y308209D01*
X447320Y309314D01*
X447476Y310500D01*
X447320Y311686D01*
X446862Y312791D01*
X446134Y313740D01*
X445185Y314469D01*
X444080Y314926D01*
X442894Y315083D01*
X442106D01*
X440920Y314926D01*
X439815Y314469D01*
X438866Y313740D01*
X438138Y312791D01*
X437771Y311905D01*
X437229D01*
X436862Y312791D01*
X436134Y313740D01*
X435185Y314469D01*
X434080Y314926D01*
X432894Y315083D01*
X432106D01*
X431367Y314985D01*
X431071Y315549D01*
X431393Y316011D01*
X432106Y315917D01*
X432894D01*
X434080Y316074D01*
X435185Y316531D01*
X436134Y317260D01*
X436862Y318209D01*
X437229Y319095D01*
X437771D01*
X438138Y318209D01*
X438866Y317260D01*
X439815Y316531D01*
X440920Y316074D01*
X442106Y315917D01*
X442894D01*
X444080Y316074D01*
X445185Y316531D01*
X446134Y317260D01*
X446862Y318209D01*
X447320Y319314D01*
X447476Y320500D01*
X447320Y321686D01*
X446862Y322791D01*
X446134Y323740D01*
X445185Y324469D01*
X444080Y324926D01*
X442894Y325082D01*
X442106D01*
X440920Y324926D01*
X439815Y324469D01*
X438866Y323740D01*
X438138Y322791D01*
X437771Y321905D01*
X437229D01*
X436862Y322791D01*
X436134Y323740D01*
X435185Y324469D01*
X434080Y324926D01*
X432894Y325082D01*
X432106D01*
X431367Y324985D01*
X431071Y325550D01*
X431393Y326011D01*
X432106Y325918D01*
X432894D01*
X434080Y326074D01*
X435185Y326531D01*
X436134Y327260D01*
X436862Y328209D01*
X437229Y329095D01*
X437771D01*
X438138Y328209D01*
X438866Y327260D01*
X439815Y326531D01*
X440920Y326074D01*
X442106Y325918D01*
X442894D01*
X444080Y326074D01*
X445185Y326531D01*
X446134Y327260D01*
X446862Y328209D01*
X447320Y329314D01*
X447476Y330500D01*
X447320Y331686D01*
X446862Y332791D01*
X446134Y333740D01*
X445185Y334469D01*
X444080Y334926D01*
X442894Y335083D01*
X442106D01*
X440920Y334926D01*
X439815Y334469D01*
X438866Y333740D01*
X438138Y332791D01*
X437771Y331905D01*
X437229D01*
X436862Y332791D01*
X436134Y333740D01*
X435185Y334469D01*
X434080Y334926D01*
X432894Y335083D01*
X432106D01*
X430920Y334926D01*
X429815Y334469D01*
X429646Y334339D01*
X423634Y339225D01*
X423819Y339690D01*
X427668Y339401D01*
X427680Y339314D01*
X428138Y338209D01*
X428866Y337260D01*
X429815Y336531D01*
X430920Y336074D01*
X432106Y335917D01*
X432894D01*
X434080Y336074D01*
X435185Y336531D01*
X436134Y337260D01*
X436862Y338209D01*
X437229Y339095D01*
X437771D01*
X438138Y338209D01*
X438866Y337260D01*
X439815Y336531D01*
X440920Y336074D01*
X442106Y335917D01*
X442894D01*
X444080Y336074D01*
X445185Y336531D01*
X446134Y337260D01*
X446862Y338209D01*
X447320Y339314D01*
X447476Y340500D01*
X447320Y341686D01*
X446862Y342791D01*
X446134Y343740D01*
X445185Y344469D01*
X444080Y344926D01*
X442894Y345082D01*
X442106D01*
X440920Y344926D01*
X439815Y344469D01*
X438866Y343740D01*
X438138Y342791D01*
X437771Y341905D01*
X437229D01*
X436862Y342791D01*
X436134Y343740D01*
X435185Y344469D01*
X434080Y344926D01*
X432894Y345082D01*
X432106D01*
X430920Y344926D01*
X429815Y344469D01*
X428866Y343740D01*
X428138Y342791D01*
X427912Y342246D01*
X422926Y342620D01*
X422803Y343130D01*
X429168Y347028D01*
X429815Y346531D01*
X430920Y346074D01*
X432106Y345918D01*
X432894D01*
X434080Y346074D01*
X435185Y346531D01*
X436134Y347260D01*
X436862Y348209D01*
X437229Y349095D01*
X437771D01*
X438138Y348209D01*
X438866Y347260D01*
X439815Y346531D01*
X440920Y346074D01*
X442106Y345918D01*
X442894D01*
X444080Y346074D01*
X445185Y346531D01*
X446134Y347260D01*
X446862Y348209D01*
X447320Y349314D01*
X447476Y350500D01*
X447320Y351686D01*
X446862Y352791D01*
X446134Y353740D01*
X445185Y354469D01*
X444080Y354926D01*
X442894Y355083D01*
X442106D01*
X440920Y354926D01*
X439815Y354469D01*
X438866Y353740D01*
X438138Y352791D01*
X437771Y351905D01*
X437229D01*
X436862Y352791D01*
X436134Y353740D01*
X435185Y354469D01*
X434080Y354926D01*
X432894Y355083D01*
X432106D01*
X430920Y354926D01*
X430667Y354821D01*
X430348Y355206D01*
X430917Y356075D01*
X430920Y356074D01*
X432106Y355918D01*
X432894D01*
X434080Y356074D01*
X435185Y356531D01*
X436134Y357260D01*
X436862Y358209D01*
X437229Y359095D01*
X437771D01*
X438138Y358209D01*
X438866Y357260D01*
X439815Y356531D01*
X440920Y356074D01*
X442106Y355918D01*
X442894D01*
X444080Y356074D01*
X445185Y356531D01*
X446134Y357260D01*
X446862Y358209D01*
X447320Y359314D01*
X447476Y360500D01*
X447320Y361686D01*
X446862Y362791D01*
X446134Y363740D01*
X445185Y364469D01*
X444080Y364926D01*
X442894Y365083D01*
X442106D01*
X440920Y364926D01*
X439815Y364469D01*
X438866Y363740D01*
X438138Y362791D01*
X437771Y361905D01*
X437229D01*
X436862Y362791D01*
X436134Y363740D01*
X435185Y364469D01*
X434080Y364926D01*
X432894Y365083D01*
X432106D01*
X431393Y364989D01*
X431071Y365451D01*
X431367Y366015D01*
X432106Y365917D01*
X432894D01*
X434080Y366074D01*
X435185Y366531D01*
X436134Y367260D01*
X436862Y368209D01*
X437229Y369095D01*
X437771D01*
X438138Y368209D01*
X438866Y367260D01*
X439815Y366531D01*
X440920Y366074D01*
X442106Y365917D01*
X442894D01*
X444080Y366074D01*
X445185Y366531D01*
X446134Y367260D01*
X446862Y368209D01*
X447320Y369314D01*
X447476Y370500D01*
X447320Y371686D01*
X446862Y372791D01*
X446134Y373740D01*
X445185Y374469D01*
X444080Y374926D01*
X442894Y375082D01*
X442106D01*
X440920Y374926D01*
X439815Y374469D01*
X438866Y373740D01*
X438138Y372791D01*
X437771Y371905D01*
X437229D01*
X436862Y372791D01*
X436134Y373740D01*
X435185Y374469D01*
X434080Y374926D01*
X432894Y375082D01*
X432106D01*
X431393Y374989D01*
X431071Y375450D01*
X431367Y376015D01*
X432106Y375918D01*
X432894D01*
X434080Y376074D01*
X435185Y376531D01*
X436134Y377260D01*
X436862Y378209D01*
X437229Y379095D01*
X437771D01*
X438138Y378209D01*
X438866Y377260D01*
X439815Y376531D01*
X440920Y376074D01*
X442106Y375918D01*
X442894D01*
X444080Y376074D01*
X445185Y376531D01*
X446134Y377260D01*
X446862Y378209D01*
X447320Y379314D01*
X447476Y380500D01*
X447320Y381686D01*
X446862Y382791D01*
X446134Y383740D01*
X445185Y384469D01*
X444080Y384926D01*
X442894Y385083D01*
X442106D01*
X440920Y384926D01*
X439815Y384469D01*
X438866Y383740D01*
X438138Y382791D01*
X437771Y381905D01*
X437229D01*
X436862Y382791D01*
X436134Y383740D01*
X435185Y384469D01*
X434080Y384926D01*
X432894Y385083D01*
X432106D01*
X430920Y384926D01*
X429815Y384469D01*
X428866Y383740D01*
X428138Y382791D01*
X427680Y381686D01*
X427524Y380500D01*
X427680Y379314D01*
X428138Y378209D01*
X428824Y377314D01*
X426730Y373319D01*
X426692Y373190D01*
X426496Y372824D01*
X426150Y371685D01*
X426113Y371665D01*
X425613Y371968D01*
Y372100D01*
X423932D01*
Y371364D01*
X424232D01*
X424156Y371356D01*
X424088Y371332D01*
X424028Y371291D01*
X423976Y371234D01*
X423932Y371161D01*
Y370340D01*
X425469D01*
X425928Y369971D01*
X425499Y366397D01*
X425483Y366291D01*
X425399Y365862D01*
X425399Y365862D01*
X425279Y365400D01*
X422368Y356472D01*
X421868Y356552D01*
Y361626D01*
Y365563D01*
Y366776D01*
X417965D01*
Y367531D01*
X421868D01*
Y369228D01*
X421891Y369421D01*
X421868Y369504D01*
Y370340D01*
X422932D01*
Y371161D01*
D01*
X422888Y371234D01*
X422836Y371291D01*
X422776Y371332D01*
X422708Y371356D01*
X422632Y371364D01*
X422932D01*
Y372600D01*
Y373841D01*
X422263Y373848D01*
X422261Y373856D01*
X422259Y373880D01*
X422254Y374048D01*
X422251Y374648D01*
X422932D01*
Y374860D01*
X417787D01*
Y372709D01*
X417325Y372517D01*
X413895Y375946D01*
X413565Y376167D01*
X413174Y376245D01*
X412840Y376477D01*
X412713Y376663D01*
Y379868D01*
X412549D01*
Y438531D01*
X430335Y456316D01*
X430920Y456074D01*
X432106Y455918D01*
X432894D01*
X434080Y456074D01*
X435185Y456531D01*
X436134Y457260D01*
X436862Y458209D01*
X437229Y459095D01*
X437771D01*
X438138Y458209D01*
X438866Y457260D01*
X439815Y456531D01*
X440920Y456074D01*
X442106Y455918D01*
X442894D01*
X444080Y456074D01*
X445185Y456531D01*
X446134Y457260D01*
X446862Y458209D01*
X447320Y459314D01*
X447476Y460500D01*
X447320Y461686D01*
X446862Y462791D01*
X446134Y463740D01*
X445185Y464469D01*
X444080Y464926D01*
X442894Y465083D01*
X442106D01*
X440920Y464926D01*
X439815Y464469D01*
X438866Y463740D01*
X438138Y462791D01*
X437771Y461905D01*
X437229D01*
X436862Y462791D01*
X436134Y463740D01*
X435185Y464469D01*
X434080Y464926D01*
X432894Y465083D01*
X432106D01*
X430920Y464926D01*
X429815Y464469D01*
X428866Y463740D01*
X428138Y462791D01*
X427680Y461686D01*
X427524Y460500D01*
X427680Y459314D01*
X428138Y458209D01*
X428160Y458179D01*
X411043Y441061D01*
X410581Y441253D01*
Y446562D01*
X430335Y466316D01*
X430920Y466074D01*
X432106Y465917D01*
X432894D01*
X434080Y466074D01*
X435185Y466531D01*
X436134Y467260D01*
X436862Y468209D01*
X437229Y469095D01*
X437771D01*
X438138Y468209D01*
X438866Y467260D01*
X439815Y466532D01*
X440920Y466074D01*
X442106Y465917D01*
X442894D01*
X444080Y466074D01*
X445185Y466532D01*
X446134Y467260D01*
X446862Y468209D01*
X447320Y469314D01*
X447476Y470500D01*
X447320Y471686D01*
X446862Y472791D01*
X446134Y473740D01*
X445185Y474469D01*
X444080Y474926D01*
X442894Y475082D01*
X442106D01*
X440920Y474926D01*
X439815Y474469D01*
X438866Y473740D01*
X438138Y472791D01*
X437771Y471905D01*
X437229D01*
X436862Y472791D01*
X436134Y473740D01*
X435185Y474469D01*
X434080Y474926D01*
X432894Y475082D01*
X432106D01*
X430920Y474926D01*
X429815Y474469D01*
X428866Y473740D01*
X428138Y472791D01*
X427680Y471686D01*
X427524Y470500D01*
X427680Y469314D01*
X428138Y468209D01*
X428160Y468179D01*
X409074Y449093D01*
X408612Y449284D01*
Y454594D01*
X430335Y476316D01*
X430920Y476074D01*
X432106Y475917D01*
X432894D01*
X434080Y476074D01*
X435185Y476531D01*
X436134Y477260D01*
X436862Y478209D01*
X437229Y479095D01*
X437771D01*
X438138Y478209D01*
X438866Y477260D01*
X439815Y476532D01*
X440920Y476074D01*
X442106Y475917D01*
X442894D01*
X444080Y476074D01*
X445185Y476532D01*
X446134Y477260D01*
X446862Y478209D01*
X447320Y479314D01*
X447476Y480500D01*
X447320Y481686D01*
X446862Y482791D01*
X446134Y483740D01*
X445185Y484469D01*
X444080Y484926D01*
X442894Y485082D01*
X442106D01*
X440920Y484926D01*
X439815Y484469D01*
X438866Y483740D01*
X438138Y482791D01*
X437771Y481905D01*
X437229D01*
X436862Y482791D01*
X436134Y483740D01*
X435185Y484469D01*
X434080Y484926D01*
X432894Y485082D01*
X432106D01*
X430920Y484926D01*
X429815Y484469D01*
X428866Y483740D01*
X428138Y482791D01*
X427680Y481686D01*
X427524Y480500D01*
X427680Y479314D01*
X428138Y478209D01*
X428160Y478179D01*
X407106Y457125D01*
X406644Y457316D01*
Y462625D01*
X430335Y486316D01*
X430920Y486074D01*
X432106Y485918D01*
X432894D01*
X434080Y486074D01*
X435185Y486531D01*
X436134Y487260D01*
X436862Y488209D01*
X437229Y489095D01*
X437771D01*
X438138Y488209D01*
X438866Y487260D01*
X439815Y486531D01*
X440920Y486074D01*
X442106Y485918D01*
X442894D01*
X444080Y486074D01*
X445185Y486531D01*
X446134Y487260D01*
X446862Y488209D01*
X447320Y489314D01*
X447476Y490500D01*
X447320Y491686D01*
X446862Y492791D01*
X446134Y493740D01*
X445185Y494469D01*
X444080Y494926D01*
X442894Y495083D01*
X442106D01*
X440920Y494926D01*
X439815Y494469D01*
X438866Y493740D01*
X438138Y492791D01*
X437771Y491905D01*
X437229D01*
X436862Y492791D01*
X436134Y493740D01*
X435185Y494469D01*
X434080Y494926D01*
X432894Y495083D01*
X432106D01*
X430920Y494926D01*
X429815Y494469D01*
X428866Y493740D01*
X428138Y492791D01*
X427680Y491686D01*
X427524Y490500D01*
X427680Y489314D01*
X428138Y488209D01*
X428160Y488179D01*
X405137Y465156D01*
X404675Y465347D01*
Y470657D01*
X430335Y496316D01*
X430920Y496074D01*
X432106Y495918D01*
X432894D01*
X434080Y496074D01*
X435185Y496531D01*
X436134Y497260D01*
X436862Y498209D01*
X437229Y499095D01*
X437771D01*
X438138Y498209D01*
X438866Y497260D01*
X439815Y496531D01*
X440920Y496074D01*
X442106Y495918D01*
X442894D01*
X444080Y496074D01*
X445185Y496531D01*
X446134Y497260D01*
X446862Y498209D01*
X447320Y499314D01*
X447476Y500500D01*
X447320Y501686D01*
X446862Y502791D01*
X446134Y503740D01*
X445185Y504469D01*
X444080Y504926D01*
X442894Y505083D01*
X442106D01*
X440920Y504926D01*
X439815Y504469D01*
X438866Y503740D01*
X438138Y502791D01*
X437771Y501905D01*
X437229D01*
X436862Y502791D01*
X436134Y503740D01*
X435185Y504469D01*
X434080Y504926D01*
X432894Y505083D01*
X432106D01*
X430920Y504926D01*
X429815Y504469D01*
X428866Y503740D01*
X428138Y502791D01*
X427680Y501686D01*
X427524Y500500D01*
X427680Y499314D01*
X428138Y498209D01*
X428160Y498179D01*
X403169Y473187D01*
X402707Y473379D01*
Y478688D01*
X430335Y506316D01*
X430920Y506074D01*
X432106Y505918D01*
X432894D01*
X434080Y506074D01*
X435185Y506531D01*
X436134Y507260D01*
X436862Y508209D01*
X437229Y509095D01*
X437771D01*
X438138Y508209D01*
X438866Y507260D01*
X439815Y506531D01*
X440920Y506074D01*
X442106Y505918D01*
X442894D01*
X444080Y506074D01*
X445185Y506531D01*
X446134Y507260D01*
X446862Y508209D01*
X447320Y509314D01*
X447476Y510500D01*
X447320Y511686D01*
X446862Y512791D01*
X446134Y513740D01*
X445185Y514469D01*
X444080Y514926D01*
X442894Y515083D01*
X442106D01*
X440920Y514926D01*
X439815Y514469D01*
X438866Y513740D01*
X438138Y512791D01*
X437771Y511905D01*
X437229D01*
X436862Y512791D01*
X436134Y513740D01*
X435185Y514469D01*
X434080Y514926D01*
X432894Y515083D01*
X432106D01*
X430920Y514926D01*
X429815Y514469D01*
X428866Y513740D01*
X428138Y512791D01*
X427680Y511686D01*
X427524Y510500D01*
X427680Y509314D01*
X428138Y508209D01*
X428160Y508179D01*
X401200Y481219D01*
X400738Y481410D01*
Y486720D01*
X430335Y516316D01*
X430920Y516074D01*
X432106Y515917D01*
X432894D01*
X434080Y516074D01*
X435185Y516531D01*
X436134Y517260D01*
X436862Y518209D01*
X437229Y519095D01*
X437771D01*
X438138Y518209D01*
X438866Y517260D01*
X439815Y516532D01*
X440920Y516074D01*
X442106Y515917D01*
X442894D01*
X444080Y516074D01*
X445185Y516532D01*
X446134Y517260D01*
X446862Y518209D01*
X447320Y519314D01*
X447476Y520500D01*
X447320Y521686D01*
X446862Y522791D01*
X446134Y523740D01*
X445185Y524469D01*
X444080Y524926D01*
X442894Y525082D01*
X442106D01*
X440920Y524926D01*
X439815Y524469D01*
X438866Y523740D01*
X438138Y522791D01*
X437771Y521905D01*
X437229D01*
X436862Y522791D01*
X436134Y523740D01*
X435185Y524469D01*
X434080Y524926D01*
X432894Y525082D01*
X432106D01*
X430920Y524926D01*
X429815Y524469D01*
X428866Y523740D01*
X428138Y522791D01*
X427680Y521686D01*
X427524Y520500D01*
X427680Y519314D01*
X428138Y518209D01*
X428160Y518179D01*
X399232Y489251D01*
X398770Y489442D01*
Y494751D01*
X430335Y526316D01*
X430920Y526074D01*
X432106Y525917D01*
X432894D01*
X434080Y526074D01*
X435185Y526531D01*
X436134Y527260D01*
X436862Y528209D01*
X437229Y529095D01*
X437771D01*
X438138Y528209D01*
X438866Y527260D01*
X439815Y526531D01*
X440920Y526074D01*
X442106Y525917D01*
X442894D01*
X444080Y526074D01*
X445185Y526531D01*
X446134Y527260D01*
X446862Y528209D01*
X447320Y529314D01*
X447476Y530500D01*
X447320Y531686D01*
X446862Y532791D01*
X446134Y533740D01*
X445185Y534469D01*
X444080Y534926D01*
X442894Y535082D01*
X442106D01*
X440920Y534926D01*
X439815Y534469D01*
X438866Y533740D01*
X438138Y532791D01*
X437771Y531905D01*
X437229D01*
X436862Y532791D01*
X436134Y533740D01*
X435185Y534469D01*
X434080Y534926D01*
X432894Y535082D01*
X432106D01*
X430920Y534926D01*
X429815Y534469D01*
X428866Y533740D01*
X428138Y532791D01*
X427680Y531686D01*
X427524Y530500D01*
X427680Y529314D01*
X428138Y528209D01*
X428160Y528179D01*
X397263Y497282D01*
X396801Y497473D01*
Y502783D01*
X430335Y536316D01*
X430920Y536074D01*
X432106Y535918D01*
X432894D01*
X434080Y536074D01*
X435185Y536531D01*
X436134Y537260D01*
X436862Y538209D01*
X437229Y539095D01*
X437771D01*
X438138Y538209D01*
X438866Y537260D01*
X439815Y536531D01*
X440920Y536074D01*
X442106Y535918D01*
X442894D01*
X444080Y536074D01*
X445185Y536531D01*
X446134Y537260D01*
X446862Y538209D01*
X447320Y539314D01*
X447476Y540500D01*
X447320Y541686D01*
X446862Y542791D01*
X446134Y543740D01*
X445185Y544469D01*
X444080Y544926D01*
X442894Y545083D01*
X442106D01*
X440920Y544926D01*
X439815Y544469D01*
X438866Y543740D01*
X438138Y542791D01*
X437771Y541905D01*
X437229D01*
X436862Y542791D01*
X436134Y543740D01*
X435185Y544469D01*
X434080Y544926D01*
X432894Y545083D01*
X432106D01*
X430920Y544926D01*
X429815Y544469D01*
X428866Y543740D01*
X428138Y542791D01*
X427680Y541686D01*
X427524Y540500D01*
X427680Y539314D01*
X428138Y538209D01*
X428160Y538179D01*
X395295Y505313D01*
X394833Y505505D01*
Y510814D01*
X430335Y546316D01*
X430920Y546074D01*
X432106Y545918D01*
X432894D01*
X434080Y546074D01*
X435185Y546531D01*
X436134Y547260D01*
X436862Y548209D01*
X437229Y549095D01*
X437771D01*
X438138Y548209D01*
X438866Y547260D01*
X439815Y546531D01*
X440920Y546074D01*
X442106Y545918D01*
X442894D01*
X444080Y546074D01*
X445185Y546531D01*
X446134Y547260D01*
X446862Y548209D01*
X447320Y549314D01*
X447476Y550500D01*
X447320Y551686D01*
X446862Y552791D01*
X446134Y553740D01*
X445185Y554469D01*
X444080Y554926D01*
X442894Y555083D01*
X442106D01*
X440920Y554926D01*
X439815Y554469D01*
X438866Y553740D01*
X438138Y552791D01*
X437771Y551905D01*
X437229D01*
X436862Y552791D01*
X436134Y553740D01*
X435185Y554469D01*
X434080Y554926D01*
X432894Y555083D01*
X432106D01*
X430920Y554926D01*
X429815Y554469D01*
X428866Y553740D01*
X428138Y552791D01*
X427680Y551686D01*
X427524Y550500D01*
X427680Y549314D01*
X428138Y548209D01*
X428160Y548179D01*
X393326Y513345D01*
X392864Y513536D01*
Y518846D01*
X430335Y556316D01*
X430920Y556074D01*
X432106Y555918D01*
X432894D01*
X434080Y556074D01*
X435185Y556531D01*
X436134Y557260D01*
X436862Y558209D01*
X437229Y559095D01*
X437771D01*
X438138Y558209D01*
X438866Y557260D01*
X439815Y556531D01*
X440920Y556074D01*
X442106Y555918D01*
X442894D01*
X444080Y556074D01*
X445185Y556531D01*
X446134Y557260D01*
X446862Y558209D01*
X447320Y559314D01*
X447476Y560500D01*
X447320Y561686D01*
X446862Y562791D01*
X446134Y563740D01*
X445185Y564469D01*
X444080Y564926D01*
X442894Y565083D01*
D02*
G37*
G36*
Y455083D02*
X442106D01*
X440920Y454926D01*
X439815Y454469D01*
X438866Y453740D01*
X438138Y452791D01*
X437771Y451905D01*
X437229D01*
X436862Y452791D01*
X436134Y453740D01*
X435185Y454469D01*
X434080Y454926D01*
X432894Y455083D01*
X432106D01*
X430920Y454926D01*
X429815Y454469D01*
X428866Y453740D01*
X428138Y452791D01*
X427680Y451686D01*
X427524Y450500D01*
X427680Y449314D01*
X428138Y448209D01*
X428866Y447260D01*
X429815Y446531D01*
X430920Y446074D01*
X432106Y445918D01*
X432894D01*
X434080Y446074D01*
X435185Y446531D01*
X436134Y447260D01*
X436862Y448209D01*
X437229Y449095D01*
X437771D01*
X438138Y448209D01*
X438866Y447260D01*
X439815Y446531D01*
X440920Y446074D01*
X442106Y445918D01*
X442894D01*
X444080Y446074D01*
X445185Y446531D01*
X446134Y447260D01*
X446862Y448209D01*
X447320Y449314D01*
X447476Y450500D01*
X447320Y451686D01*
X446862Y452791D01*
X446134Y453740D01*
X445185Y454469D01*
X444080Y454926D01*
X442894Y455083D01*
D02*
G37*
G36*
X342894Y455083D02*
X342106D01*
X340920Y454926D01*
X339815Y454469D01*
X338866Y453740D01*
X338138Y452791D01*
X337771Y451905D01*
X337229D01*
X336862Y452791D01*
X336134Y453740D01*
X335185Y454468D01*
X334080Y454926D01*
X332894Y455083D01*
X332106D01*
X330920Y454926D01*
X329815Y454468D01*
X328866Y453740D01*
X328138Y452791D01*
X327680Y451686D01*
X327524Y450500D01*
X327680Y449314D01*
X328138Y448209D01*
X328866Y447260D01*
X329815Y446531D01*
X330920Y446074D01*
X332106Y445918D01*
X332894D01*
X334080Y446074D01*
X335185Y446531D01*
X336134Y447260D01*
X336862Y448209D01*
X337229Y449095D01*
X337771D01*
X338138Y448209D01*
X338866Y447260D01*
X339815Y446531D01*
X340920Y446074D01*
X342106Y445918D01*
X342894D01*
X344080Y446074D01*
X345185Y446531D01*
X346134Y447260D01*
X346862Y448209D01*
X347320Y449314D01*
X347476Y450500D01*
X347320Y451686D01*
X346862Y452791D01*
X346134Y453740D01*
X345185Y454469D01*
X344080Y454926D01*
X342894Y455083D01*
D02*
G37*
G36*
X442894Y445083D02*
X442106D01*
X440920Y444926D01*
X439815Y444469D01*
X438866Y443740D01*
X438138Y442791D01*
X437771Y441905D01*
X437229D01*
X436862Y442791D01*
X436134Y443740D01*
X435185Y444469D01*
X434080Y444926D01*
X432894Y445083D01*
X432106D01*
X430920Y444926D01*
X429815Y444469D01*
X428866Y443740D01*
X428138Y442791D01*
X427680Y441686D01*
X427524Y440500D01*
X427680Y439314D01*
X428138Y438209D01*
X428866Y437260D01*
X429815Y436531D01*
X430920Y436074D01*
X432106Y435918D01*
X432894D01*
X434080Y436074D01*
X435185Y436531D01*
X436134Y437260D01*
X436862Y438209D01*
X437229Y439095D01*
X437771D01*
X438138Y438209D01*
X438866Y437260D01*
X439815Y436531D01*
X440920Y436074D01*
X442106Y435918D01*
X442894D01*
X444080Y436074D01*
X445185Y436531D01*
X446134Y437260D01*
X446862Y438209D01*
X447320Y439314D01*
X447476Y440500D01*
X447320Y441686D01*
X446862Y442791D01*
X446134Y443740D01*
X445185Y444469D01*
X444080Y444926D01*
X442894Y445083D01*
D02*
G37*
G36*
X342894D02*
X342106D01*
X340920Y444926D01*
X339815Y444469D01*
X338866Y443740D01*
X338138Y442791D01*
X337771Y441905D01*
X337229D01*
X336862Y442791D01*
X336134Y443740D01*
X335185Y444469D01*
X334080Y444926D01*
X332894Y445083D01*
X332106D01*
X330920Y444926D01*
X329815Y444469D01*
X328866Y443740D01*
X328138Y442791D01*
X327680Y441686D01*
X327524Y440500D01*
X327680Y439314D01*
X328138Y438209D01*
X328866Y437260D01*
X329815Y436531D01*
X330920Y436074D01*
X332106Y435918D01*
X332894D01*
X334080Y436074D01*
X335185Y436531D01*
X336134Y437260D01*
X336862Y438209D01*
X337229Y439095D01*
X337771D01*
X338138Y438209D01*
X338866Y437260D01*
X339815Y436531D01*
X340920Y436074D01*
X342106Y435918D01*
X342894D01*
X344080Y436074D01*
X345185Y436531D01*
X346134Y437260D01*
X346862Y438209D01*
X347320Y439314D01*
X347476Y440500D01*
X347320Y441686D01*
X346862Y442791D01*
X346134Y443740D01*
X345185Y444469D01*
X344080Y444926D01*
X342894Y445083D01*
D02*
G37*
G36*
X442894Y435082D02*
X442106D01*
X440920Y434926D01*
X439815Y434469D01*
X438866Y433740D01*
X438138Y432791D01*
X437771Y431905D01*
X437229D01*
X436862Y432791D01*
X436134Y433740D01*
X435185Y434469D01*
X434080Y434926D01*
X432894Y435082D01*
X432106D01*
X430920Y434926D01*
X429815Y434469D01*
X428866Y433740D01*
X428138Y432791D01*
X427680Y431686D01*
X427524Y430500D01*
X427680Y429314D01*
X428138Y428209D01*
X428866Y427260D01*
X429815Y426531D01*
X430920Y426074D01*
X432106Y425917D01*
X432894D01*
X434080Y426074D01*
X435185Y426531D01*
X436134Y427260D01*
X436862Y428209D01*
X437229Y429095D01*
X437771D01*
X438138Y428209D01*
X438866Y427260D01*
X439815Y426532D01*
X440920Y426074D01*
X442106Y425917D01*
X442894D01*
X444080Y426074D01*
X445185Y426532D01*
X446134Y427260D01*
X446862Y428209D01*
X447320Y429314D01*
X447476Y430500D01*
X447320Y431686D01*
X446862Y432791D01*
X446134Y433740D01*
X445185Y434469D01*
X444080Y434926D01*
X442894Y435082D01*
D02*
G37*
G36*
X342894Y435082D02*
X342106D01*
X340920Y434926D01*
X339815Y434469D01*
X338866Y433740D01*
X338138Y432791D01*
X337771Y431905D01*
X337229D01*
X336862Y432791D01*
X336134Y433740D01*
X335185Y434469D01*
X334080Y434926D01*
X332894Y435082D01*
X332106D01*
X330920Y434926D01*
X329815Y434469D01*
X328866Y433740D01*
X328138Y432791D01*
X327680Y431686D01*
X327524Y430500D01*
X327680Y429314D01*
X328138Y428209D01*
X328866Y427260D01*
X329815Y426531D01*
X330920Y426074D01*
X332106Y425917D01*
X332894D01*
X334080Y426074D01*
X335185Y426531D01*
X336134Y427260D01*
X336862Y428209D01*
X337229Y429095D01*
X337771D01*
X338138Y428209D01*
X338866Y427260D01*
X339815Y426531D01*
X340920Y426074D01*
X342106Y425917D01*
X342894D01*
X344080Y426074D01*
X345185Y426531D01*
X346134Y427260D01*
X346862Y428209D01*
X347320Y429314D01*
X347476Y430500D01*
X347320Y431686D01*
X346862Y432791D01*
X346134Y433740D01*
X345185Y434469D01*
X344080Y434926D01*
X342894Y435082D01*
D02*
G37*
G36*
X442894Y425082D02*
X442106D01*
X440920Y424926D01*
X439815Y424469D01*
X438866Y423740D01*
X438138Y422791D01*
X437771Y421905D01*
X437229D01*
X436862Y422791D01*
X436134Y423740D01*
X435185Y424469D01*
X434080Y424926D01*
X432894Y425082D01*
X432106D01*
X430920Y424926D01*
X429815Y424469D01*
X428866Y423740D01*
X428138Y422791D01*
X427680Y421686D01*
X427524Y420500D01*
X427680Y419314D01*
X428138Y418209D01*
X428866Y417260D01*
X429815Y416531D01*
X430920Y416074D01*
X432106Y415917D01*
X432894D01*
X434080Y416074D01*
X435185Y416531D01*
X436134Y417260D01*
X436862Y418209D01*
X437229Y419095D01*
X437771D01*
X438138Y418209D01*
X438866Y417260D01*
X439815Y416532D01*
X440920Y416074D01*
X442106Y415917D01*
X442894D01*
X444080Y416074D01*
X445185Y416532D01*
X446134Y417260D01*
X446862Y418209D01*
X447320Y419314D01*
X447476Y420500D01*
X447320Y421686D01*
X446862Y422791D01*
X446134Y423740D01*
X445185Y424469D01*
X444080Y424926D01*
X442894Y425082D01*
D02*
G37*
G36*
X342894Y425082D02*
X342106D01*
X340920Y424926D01*
X339815Y424469D01*
X338866Y423740D01*
X338138Y422791D01*
X337771Y421905D01*
X337229D01*
X336862Y422791D01*
X336134Y423740D01*
X335185Y424469D01*
X334080Y424926D01*
X332894Y425082D01*
X332106D01*
X330920Y424926D01*
X329815Y424469D01*
X328866Y423740D01*
X328138Y422791D01*
X327680Y421686D01*
X327524Y420500D01*
X327680Y419314D01*
X328138Y418209D01*
X328866Y417260D01*
X329815Y416531D01*
X330920Y416074D01*
X332106Y415917D01*
X332894D01*
X334080Y416074D01*
X335185Y416531D01*
X336134Y417260D01*
X336862Y418209D01*
X337229Y419095D01*
X337771D01*
X338138Y418209D01*
X338866Y417260D01*
X339815Y416531D01*
X340920Y416074D01*
X342106Y415917D01*
X342894D01*
X344080Y416074D01*
X345185Y416531D01*
X346134Y417260D01*
X346862Y418209D01*
X347320Y419314D01*
X347476Y420500D01*
X347320Y421686D01*
X346862Y422791D01*
X346134Y423740D01*
X345185Y424469D01*
X344080Y424926D01*
X342894Y425082D01*
D02*
G37*
G36*
X442894Y415083D02*
X442106D01*
X440920Y414926D01*
X439815Y414469D01*
X438866Y413740D01*
X438138Y412791D01*
X437771Y411905D01*
X437229D01*
X436862Y412791D01*
X436134Y413740D01*
X435185Y414469D01*
X434080Y414926D01*
X432894Y415083D01*
X432106D01*
X430920Y414926D01*
X429815Y414469D01*
X428866Y413740D01*
X428138Y412791D01*
X427680Y411686D01*
X427524Y410500D01*
X427680Y409314D01*
X428138Y408209D01*
X428866Y407260D01*
X429815Y406531D01*
X430920Y406074D01*
X432106Y405918D01*
X432894D01*
X434080Y406074D01*
X435185Y406531D01*
X436134Y407260D01*
X436862Y408209D01*
X437229Y409095D01*
X437771D01*
X438138Y408209D01*
X438866Y407260D01*
X439815Y406531D01*
X440920Y406074D01*
X442106Y405918D01*
X442894D01*
X444080Y406074D01*
X445185Y406531D01*
X446134Y407260D01*
X446862Y408209D01*
X447320Y409314D01*
X447476Y410500D01*
X447320Y411686D01*
X446862Y412791D01*
X446134Y413740D01*
X445185Y414469D01*
X444080Y414926D01*
X442894Y415083D01*
D02*
G37*
G36*
X342894Y415083D02*
X342106D01*
X340920Y414926D01*
X339815Y414469D01*
X338866Y413740D01*
X338138Y412791D01*
X337771Y411905D01*
X337229D01*
X336862Y412791D01*
X336134Y413740D01*
X335185Y414468D01*
X334080Y414926D01*
X332894Y415083D01*
X332106D01*
X330920Y414926D01*
X329815Y414468D01*
X328866Y413740D01*
X328138Y412791D01*
X327680Y411686D01*
X327524Y410500D01*
X327680Y409314D01*
X328138Y408209D01*
X328866Y407260D01*
X329815Y406531D01*
X330920Y406074D01*
X332106Y405918D01*
X332894D01*
X334080Y406074D01*
X335185Y406531D01*
X336134Y407260D01*
X336862Y408209D01*
X337229Y409095D01*
X337771D01*
X338138Y408209D01*
X338866Y407260D01*
X339815Y406531D01*
X340920Y406074D01*
X342106Y405918D01*
X342894D01*
X344080Y406074D01*
X345185Y406531D01*
X346134Y407260D01*
X346862Y408209D01*
X347320Y409314D01*
X347476Y410500D01*
X347320Y411686D01*
X346862Y412791D01*
X346134Y413740D01*
X345185Y414469D01*
X344080Y414926D01*
X342894Y415083D01*
D02*
G37*
G36*
X442894Y405083D02*
X442106D01*
X440920Y404926D01*
X439815Y404469D01*
X438866Y403740D01*
X438138Y402791D01*
X437771Y401905D01*
X437229D01*
X436862Y402791D01*
X436134Y403740D01*
X435185Y404469D01*
X434080Y404926D01*
X432894Y405083D01*
X432106D01*
X430920Y404926D01*
X429815Y404469D01*
X428866Y403740D01*
X428138Y402791D01*
X427680Y401686D01*
X427524Y400500D01*
X427680Y399314D01*
X428138Y398209D01*
X428866Y397260D01*
X429815Y396531D01*
X430920Y396074D01*
X432106Y395918D01*
X432894D01*
X434080Y396074D01*
X435185Y396531D01*
X436134Y397260D01*
X436862Y398209D01*
X437229Y399095D01*
X437771D01*
X438138Y398209D01*
X438866Y397260D01*
X439815Y396531D01*
X440920Y396074D01*
X442106Y395918D01*
X442894D01*
X444080Y396074D01*
X445185Y396531D01*
X446134Y397260D01*
X446862Y398209D01*
X447320Y399314D01*
X447476Y400500D01*
X447320Y401686D01*
X446862Y402791D01*
X446134Y403740D01*
X445185Y404469D01*
X444080Y404926D01*
X442894Y405083D01*
D02*
G37*
G36*
Y395082D02*
X442106D01*
X440920Y394926D01*
X439815Y394469D01*
X438866Y393740D01*
X438138Y392791D01*
X437771Y391905D01*
X437229D01*
X436862Y392791D01*
X436134Y393740D01*
X435185Y394469D01*
X434080Y394926D01*
X432894Y395082D01*
X432106D01*
X430920Y394926D01*
X429815Y394469D01*
X428866Y393740D01*
X428138Y392791D01*
X427680Y391686D01*
X427524Y390500D01*
X427680Y389314D01*
X428138Y388209D01*
X428866Y387260D01*
X429815Y386531D01*
X430920Y386074D01*
X432106Y385917D01*
X432894D01*
X434080Y386074D01*
X435185Y386531D01*
X436134Y387260D01*
X436862Y388209D01*
X437229Y389095D01*
X437771D01*
X438138Y388209D01*
X438866Y387260D01*
X439815Y386531D01*
X440920Y386074D01*
X442106Y385917D01*
X442894D01*
X444080Y386074D01*
X445185Y386531D01*
X446134Y387260D01*
X446862Y388209D01*
X447320Y389314D01*
X447476Y390500D01*
X447320Y391686D01*
X446862Y392791D01*
X446134Y393740D01*
X445185Y394469D01*
X444080Y394926D01*
X442894Y395082D01*
D02*
G37*
G36*
X425613Y374860D02*
X423932D01*
Y373100D01*
X425613D01*
Y374860D01*
D02*
G37*
G36*
X332000Y345069D02*
X330920Y344926D01*
X329815Y344469D01*
X328866Y343740D01*
X328138Y342791D01*
X327680Y341686D01*
X327590Y341000D01*
X332000D01*
Y345069D01*
D02*
G37*
G36*
X347410Y340000D02*
X343000D01*
Y335931D01*
X344080Y336074D01*
X345185Y336531D01*
X346134Y337260D01*
X346862Y338209D01*
X347320Y339314D01*
X347410Y340000D01*
D02*
G37*
G36*
X333000Y345069D02*
Y340500D01*
Y335931D01*
X334080Y336074D01*
X335185Y336531D01*
X336134Y337260D01*
X336862Y338209D01*
X337229Y339095D01*
X337771D01*
X338138Y338209D01*
X338866Y337260D01*
X339815Y336531D01*
X340920Y336074D01*
X342000Y335931D01*
Y340500D01*
Y345069D01*
X340920Y344926D01*
X339815Y344469D01*
X338866Y343740D01*
X338138Y342791D01*
X337771Y341905D01*
X337229D01*
X336862Y342791D01*
X336134Y343740D01*
X335185Y344469D01*
X334080Y344926D01*
X333000Y345069D01*
D02*
G37*
G36*
X332000Y340000D02*
X327590D01*
X327680Y339314D01*
X328138Y338209D01*
X328866Y337260D01*
X329815Y336531D01*
X330920Y336074D01*
X332000Y335931D01*
Y340000D01*
D02*
G37*
G36*
Y335068D02*
X330920Y334926D01*
X329815Y334469D01*
X328866Y333740D01*
X328138Y332791D01*
X327680Y331686D01*
X327590Y331000D01*
X332000D01*
Y335068D01*
D02*
G37*
G36*
X333000D02*
Y330500D01*
X332500D01*
D01*
X333000D01*
Y325932D01*
X334080Y326074D01*
X335185Y326531D01*
X336134Y327260D01*
X336862Y328209D01*
X337229Y329095D01*
X337771D01*
X338138Y328209D01*
X338866Y327260D01*
X339815Y326531D01*
X340920Y326074D01*
X342000Y325932D01*
Y330500D01*
Y335068D01*
X340920Y334926D01*
X339815Y334469D01*
X338866Y333740D01*
X338138Y332791D01*
X337771Y331905D01*
X337229D01*
X336862Y332791D01*
X336134Y333740D01*
X335185Y334469D01*
X334080Y334926D01*
X333000Y335068D01*
D02*
G37*
G36*
X332000Y330000D02*
X327590D01*
X327680Y329314D01*
X328138Y328209D01*
X328866Y327260D01*
X329815Y326531D01*
X330920Y326074D01*
X332000Y325932D01*
Y330000D01*
D02*
G37*
G36*
X361535Y309760D02*
X359854D01*
Y308000D01*
X361535D01*
Y308736D01*
X361400D01*
X361476Y308744D01*
X361535Y308765D01*
Y309760D01*
D02*
G37*
G36*
Y307000D02*
X359854D01*
Y305240D01*
X361535D01*
Y307000D01*
D02*
G37*
G36*
X442894Y285083D02*
X442106D01*
X440920Y284926D01*
X439815Y284469D01*
X438866Y283740D01*
X438138Y282791D01*
X437771Y281905D01*
X437229D01*
X436862Y282791D01*
X436134Y283740D01*
X435185Y284469D01*
X434080Y284926D01*
X432894Y285083D01*
X432106D01*
X430920Y284926D01*
X429815Y284469D01*
X428866Y283740D01*
X428138Y282791D01*
X427680Y281686D01*
X427524Y280500D01*
X427680Y279314D01*
X428138Y278209D01*
X428866Y277260D01*
X429815Y276531D01*
X430920Y276074D01*
X432106Y275918D01*
X432894D01*
X434080Y276074D01*
X435185Y276531D01*
X436134Y277260D01*
X436862Y278209D01*
X437229Y279095D01*
X437771D01*
X438138Y278209D01*
X438866Y277260D01*
X439815Y276531D01*
X440920Y276074D01*
X442106Y275918D01*
X442894D01*
X444080Y276074D01*
X445185Y276531D01*
X446134Y277260D01*
X446862Y278209D01*
X447320Y279314D01*
X447476Y280500D01*
X447320Y281686D01*
X446862Y282791D01*
X446134Y283740D01*
X445185Y284469D01*
X444080Y284926D01*
X442894Y285083D01*
D02*
G37*
G36*
X342894Y285083D02*
X342106D01*
X340920Y284926D01*
X339815Y284469D01*
X338866Y283740D01*
X338138Y282791D01*
X337771Y281905D01*
X337229D01*
X336862Y282791D01*
X336134Y283740D01*
X335185Y284469D01*
X334080Y284926D01*
X332894Y285083D01*
X332106D01*
X330920Y284926D01*
X329815Y284469D01*
X328866Y283740D01*
X328138Y282791D01*
X327680Y281686D01*
X327524Y280500D01*
X327680Y279314D01*
X328138Y278209D01*
X328866Y277260D01*
X329815Y276531D01*
X330920Y276074D01*
X332106Y275918D01*
X332894D01*
X334080Y276074D01*
X335185Y276531D01*
X336134Y277260D01*
X336862Y278209D01*
X337229Y279095D01*
X337771D01*
X338138Y278209D01*
X338866Y277260D01*
X339815Y276531D01*
X340920Y276074D01*
X342106Y275918D01*
X342894D01*
X344080Y276074D01*
X345185Y276531D01*
X346134Y277260D01*
X346862Y278209D01*
X347320Y279314D01*
X347476Y280500D01*
X347320Y281686D01*
X346862Y282791D01*
X346134Y283740D01*
X345185Y284469D01*
X344080Y284926D01*
X342894Y285083D01*
D02*
G37*
G36*
X442894Y275082D02*
X442106D01*
X440920Y274926D01*
X439815Y274469D01*
X438866Y273740D01*
X438138Y272791D01*
X437771Y271905D01*
X437229D01*
X436862Y272791D01*
X436134Y273740D01*
X435185Y274469D01*
X434080Y274926D01*
X432894Y275082D01*
X432106D01*
X430920Y274926D01*
X429815Y274469D01*
X428866Y273740D01*
X428138Y272791D01*
X427680Y271686D01*
X427524Y270500D01*
X427680Y269314D01*
X428138Y268209D01*
X428866Y267260D01*
X429815Y266531D01*
X430920Y266074D01*
X432106Y265917D01*
X432894D01*
X434080Y266074D01*
X435185Y266531D01*
X436134Y267260D01*
X436862Y268209D01*
X437229Y269095D01*
X437771D01*
X438138Y268209D01*
X438866Y267260D01*
X439815Y266531D01*
X440920Y266074D01*
X442106Y265917D01*
X442894D01*
X444080Y266074D01*
X445185Y266531D01*
X446134Y267260D01*
X446862Y268209D01*
X447320Y269314D01*
X447476Y270500D01*
X447320Y271686D01*
X446862Y272791D01*
X446134Y273740D01*
X445185Y274469D01*
X444080Y274926D01*
X442894Y275082D01*
D02*
G37*
G36*
X342894Y275082D02*
X342106D01*
X340920Y274926D01*
X339815Y274469D01*
X338866Y273740D01*
X338138Y272791D01*
X337771Y271905D01*
X337229D01*
X336862Y272791D01*
X336134Y273740D01*
X335185Y274469D01*
X334080Y274926D01*
X332894Y275082D01*
X332106D01*
X330920Y274926D01*
X329815Y274469D01*
X328866Y273740D01*
X328138Y272791D01*
X327680Y271686D01*
X327524Y270500D01*
X327680Y269314D01*
X328138Y268209D01*
X328866Y267260D01*
X329815Y266531D01*
X330920Y266074D01*
X332106Y265917D01*
X332894D01*
X334080Y266074D01*
X335185Y266531D01*
X336134Y267260D01*
X336862Y268209D01*
X337229Y269095D01*
X337771D01*
X338138Y268209D01*
X338866Y267260D01*
X339815Y266531D01*
X340920Y266074D01*
X342106Y265917D01*
X342894D01*
X344080Y266074D01*
X345185Y266531D01*
X346134Y267260D01*
X346862Y268209D01*
X347320Y269314D01*
X347476Y270500D01*
X347320Y271686D01*
X346862Y272791D01*
X346134Y273740D01*
X345185Y274469D01*
X344080Y274926D01*
X342894Y275082D01*
D02*
G37*
G36*
X442894Y265083D02*
X442106D01*
X440920Y264926D01*
X439815Y264469D01*
X438866Y263740D01*
X438138Y262791D01*
X437771Y261905D01*
X437229D01*
X436862Y262791D01*
X436134Y263740D01*
X435185Y264469D01*
X434080Y264926D01*
X432894Y265083D01*
X432106D01*
X430920Y264926D01*
X429815Y264469D01*
X428866Y263740D01*
X428138Y262791D01*
X427680Y261686D01*
X427524Y260500D01*
X427680Y259314D01*
X428138Y258209D01*
X428866Y257260D01*
X429815Y256531D01*
X430920Y256074D01*
X432106Y255918D01*
X432894D01*
X434080Y256074D01*
X435185Y256531D01*
X436134Y257260D01*
X436862Y258209D01*
X437229Y259095D01*
X437771D01*
X438138Y258209D01*
X438866Y257260D01*
X439815Y256531D01*
X440920Y256074D01*
X442106Y255918D01*
X442894D01*
X444080Y256074D01*
X445185Y256531D01*
X446134Y257260D01*
X446862Y258209D01*
X447320Y259314D01*
X447476Y260500D01*
X447320Y261686D01*
X446862Y262791D01*
X446134Y263740D01*
X445185Y264469D01*
X444080Y264926D01*
X442894Y265083D01*
D02*
G37*
G36*
X342894D02*
X342106D01*
X340920Y264926D01*
X339815Y264469D01*
X338866Y263740D01*
X338138Y262791D01*
X337771Y261905D01*
X337229D01*
X336862Y262791D01*
X336134Y263740D01*
X335185Y264469D01*
X334080Y264926D01*
X332894Y265083D01*
X332106D01*
X330920Y264926D01*
X329815Y264469D01*
X328866Y263740D01*
X328138Y262791D01*
X327680Y261686D01*
X327524Y260500D01*
X327680Y259314D01*
X328138Y258209D01*
X328866Y257260D01*
X329815Y256531D01*
X330920Y256074D01*
X332106Y255918D01*
X332894D01*
X334080Y256074D01*
X335185Y256531D01*
X336134Y257260D01*
X336862Y258209D01*
X337229Y259095D01*
X337771D01*
X338138Y258209D01*
X338866Y257260D01*
X339815Y256531D01*
X340920Y256074D01*
X342106Y255918D01*
X342894D01*
X344080Y256074D01*
X345185Y256531D01*
X346134Y257260D01*
X346862Y258209D01*
X347320Y259314D01*
X347476Y260500D01*
X347320Y261686D01*
X346862Y262791D01*
X346134Y263740D01*
X345185Y264469D01*
X344080Y264926D01*
X342894Y265083D01*
D02*
G37*
G36*
X442894Y255083D02*
X442106D01*
X440920Y254926D01*
X439815Y254469D01*
X438866Y253740D01*
X438138Y252791D01*
X437771Y251905D01*
X437229D01*
X436862Y252791D01*
X436134Y253740D01*
X435185Y254469D01*
X434080Y254926D01*
X432894Y255083D01*
X432106D01*
X430920Y254926D01*
X429815Y254469D01*
X428866Y253740D01*
X428138Y252791D01*
X427680Y251686D01*
X427524Y250500D01*
X427680Y249314D01*
X428138Y248209D01*
X428866Y247260D01*
X429815Y246531D01*
X430920Y246074D01*
X432106Y245918D01*
X432894D01*
X434080Y246074D01*
X435185Y246531D01*
X436134Y247260D01*
X436862Y248209D01*
X437229Y249095D01*
X437771D01*
X438138Y248209D01*
X438866Y247260D01*
X439815Y246532D01*
X440920Y246074D01*
X442106Y245918D01*
X442894D01*
X444080Y246074D01*
X445185Y246532D01*
X446134Y247260D01*
X446862Y248209D01*
X447320Y249314D01*
X447476Y250500D01*
X447320Y251686D01*
X446862Y252791D01*
X446134Y253740D01*
X445185Y254469D01*
X444080Y254926D01*
X442894Y255083D01*
D02*
G37*
G36*
X342894Y255083D02*
X342106D01*
X340920Y254926D01*
X339815Y254469D01*
X338866Y253740D01*
X338138Y252791D01*
X337771Y251905D01*
X337229D01*
X336862Y252791D01*
X336134Y253740D01*
X335185Y254469D01*
X334080Y254926D01*
X332894Y255083D01*
X332106D01*
X330920Y254926D01*
X329815Y254469D01*
X328866Y253740D01*
X328138Y252791D01*
X327680Y251686D01*
X327524Y250500D01*
X327680Y249314D01*
X328138Y248209D01*
X328866Y247260D01*
X329815Y246531D01*
X330920Y246074D01*
X332106Y245918D01*
X332894D01*
X334080Y246074D01*
X335185Y246531D01*
X336134Y247260D01*
X336862Y248209D01*
X337229Y249095D01*
X337771D01*
X338138Y248209D01*
X338866Y247260D01*
X339815Y246531D01*
X340920Y246074D01*
X342106Y245918D01*
X342894D01*
X344080Y246074D01*
X345185Y246531D01*
X346134Y247260D01*
X346862Y248209D01*
X347320Y249314D01*
X347476Y250500D01*
X347320Y251686D01*
X346862Y252791D01*
X346134Y253740D01*
X345185Y254469D01*
X344080Y254926D01*
X342894Y255083D01*
D02*
G37*
G36*
X442894Y245082D02*
X442106D01*
X440920Y244926D01*
X439815Y244469D01*
X438866Y243740D01*
X438138Y242791D01*
X437771Y241905D01*
X437229D01*
X436862Y242791D01*
X436134Y243740D01*
X435185Y244469D01*
X434080Y244926D01*
X432894Y245082D01*
X432106D01*
X430920Y244926D01*
X429815Y244469D01*
X428866Y243740D01*
X428138Y242791D01*
X427680Y241686D01*
X427524Y240500D01*
X427680Y239314D01*
X428138Y238209D01*
X428866Y237260D01*
X429815Y236531D01*
X430920Y236074D01*
X432106Y235917D01*
X432894D01*
X434080Y236074D01*
X435185Y236531D01*
X436134Y237260D01*
X436862Y238209D01*
X437229Y239095D01*
X437771D01*
X438138Y238209D01*
X438866Y237260D01*
X439815Y236531D01*
X440920Y236074D01*
X442106Y235917D01*
X442894D01*
X444080Y236074D01*
X445185Y236531D01*
X446134Y237260D01*
X446862Y238209D01*
X447320Y239314D01*
X447476Y240500D01*
X447320Y241686D01*
X446862Y242791D01*
X446134Y243740D01*
X445185Y244469D01*
X444080Y244926D01*
X442894Y245082D01*
D02*
G37*
G36*
X342894Y245082D02*
X342106D01*
X340920Y244926D01*
X339815Y244469D01*
X338866Y243740D01*
X338138Y242791D01*
X337771Y241905D01*
X337229D01*
X336862Y242791D01*
X336134Y243740D01*
X335185Y244469D01*
X334080Y244926D01*
X332894Y245082D01*
X332106D01*
X330920Y244926D01*
X329815Y244469D01*
X328866Y243740D01*
X328138Y242791D01*
X327680Y241686D01*
X327524Y240500D01*
X327680Y239314D01*
X328138Y238209D01*
X328866Y237260D01*
X329815Y236531D01*
X330920Y236074D01*
X332106Y235917D01*
X332894D01*
X334080Y236074D01*
X335185Y236531D01*
X336134Y237260D01*
X336862Y238209D01*
X337229Y239095D01*
X337771D01*
X338138Y238209D01*
X338866Y237260D01*
X339815Y236531D01*
X340920Y236074D01*
X342106Y235917D01*
X342894D01*
X344080Y236074D01*
X345185Y236531D01*
X346134Y237260D01*
X346862Y238209D01*
X347320Y239314D01*
X347476Y240500D01*
X347320Y241686D01*
X346862Y242791D01*
X346134Y243740D01*
X345185Y244469D01*
X344080Y244926D01*
X342894Y245082D01*
D02*
G37*
G36*
Y235083D02*
X342106D01*
X340920Y234926D01*
X339815Y234469D01*
X338866Y233740D01*
X338138Y232791D01*
X337771Y231905D01*
X337229D01*
X336862Y232791D01*
X336134Y233740D01*
X335185Y234469D01*
X334080Y234926D01*
X332894Y235083D01*
X332106D01*
X330920Y234926D01*
X329815Y234469D01*
X328866Y233740D01*
X328138Y232791D01*
X327680Y231686D01*
X327524Y230500D01*
X327680Y229314D01*
X328138Y228209D01*
X328866Y227260D01*
X329815Y226531D01*
X330920Y226074D01*
X332106Y225918D01*
X332894D01*
X334080Y226074D01*
X335185Y226531D01*
X336134Y227260D01*
X336862Y228209D01*
X337229Y229095D01*
X337771D01*
X338138Y228209D01*
X338866Y227260D01*
X339815Y226531D01*
X340920Y226074D01*
X342106Y225918D01*
X342894D01*
X344080Y226074D01*
X345185Y226531D01*
X346134Y227260D01*
X346862Y228209D01*
X347320Y229314D01*
X347476Y230500D01*
X347320Y231686D01*
X346862Y232791D01*
X346134Y233740D01*
X345185Y234469D01*
X344080Y234926D01*
X342894Y235083D01*
D02*
G37*
G36*
X332894Y135082D02*
X332106D01*
X330920Y134926D01*
X329815Y134469D01*
X328866Y133740D01*
X328138Y132791D01*
X327680Y131686D01*
X327524Y130500D01*
X327680Y129314D01*
X328138Y128209D01*
X328866Y127260D01*
X329815Y126531D01*
X330920Y126074D01*
X332106Y125917D01*
X332894D01*
X334080Y126074D01*
X335185Y126531D01*
X336134Y127260D01*
X336862Y128209D01*
X337229Y129095D01*
X337771D01*
X338138Y128209D01*
X338866Y127260D01*
X339815Y126531D01*
X340920Y126074D01*
X342106Y125917D01*
X342894D01*
X344080Y126074D01*
X345185Y126531D01*
X346134Y127260D01*
X346862Y128209D01*
X347320Y129314D01*
X347476Y130500D01*
X347320Y131686D01*
X346862Y132791D01*
X346134Y133740D01*
X345185Y134469D01*
X344080Y134926D01*
X342894Y135082D01*
X342106D01*
X340920Y134926D01*
X339815Y134469D01*
X338866Y133740D01*
X338138Y132791D01*
X337771Y131905D01*
X337229D01*
X336862Y132791D01*
X336134Y133740D01*
X335185Y134469D01*
X334080Y134926D01*
X332894Y135082D01*
D02*
G37*
G36*
X442894Y125083D02*
X442106D01*
X440920Y124926D01*
X439815Y124469D01*
X438866Y123740D01*
X438138Y122791D01*
X437771Y121905D01*
X437229D01*
X436862Y122791D01*
X436134Y123740D01*
X435185Y124469D01*
X434080Y124926D01*
X432894Y125083D01*
X432106D01*
X430920Y124926D01*
X429815Y124469D01*
X428866Y123740D01*
X428138Y122791D01*
X427680Y121686D01*
X427524Y120500D01*
X427680Y119314D01*
X428138Y118209D01*
X428866Y117260D01*
X429815Y116531D01*
X430920Y116074D01*
X432106Y115918D01*
X432894D01*
X434080Y116074D01*
X435185Y116531D01*
X436134Y117260D01*
X436862Y118209D01*
X437229Y119095D01*
X437771D01*
X438138Y118209D01*
X438866Y117260D01*
X439815Y116531D01*
X440920Y116074D01*
X442106Y115918D01*
X442894D01*
X444080Y116074D01*
X445185Y116531D01*
X446134Y117260D01*
X446862Y118209D01*
X447320Y119314D01*
X447476Y120500D01*
X447320Y121686D01*
X446862Y122791D01*
X446134Y123740D01*
X445185Y124469D01*
X444080Y124926D01*
X442894Y125083D01*
D02*
G37*
G36*
X342894D02*
X342106D01*
X340920Y124926D01*
X339815Y124469D01*
X338866Y123740D01*
X338138Y122791D01*
X337771Y121905D01*
X337229D01*
X336862Y122791D01*
X336134Y123740D01*
X335185Y124469D01*
X334080Y124926D01*
X332894Y125083D01*
X332106D01*
X330920Y124926D01*
X329815Y124469D01*
X328866Y123740D01*
X328138Y122791D01*
X327680Y121686D01*
X327524Y120500D01*
X327680Y119314D01*
X328138Y118209D01*
X328866Y117260D01*
X329815Y116531D01*
X330920Y116074D01*
X332106Y115918D01*
X332894D01*
X334080Y116074D01*
X335185Y116531D01*
X336134Y117260D01*
X336862Y118209D01*
X337229Y119095D01*
X337771D01*
X338138Y118209D01*
X338866Y117260D01*
X339815Y116531D01*
X340920Y116074D01*
X342106Y115918D01*
X342894D01*
X344080Y116074D01*
X345185Y116531D01*
X346134Y117260D01*
X346862Y118209D01*
X347320Y119314D01*
X347476Y120500D01*
X347320Y121686D01*
X346862Y122791D01*
X346134Y123740D01*
X345185Y124469D01*
X344080Y124926D01*
X342894Y125083D01*
D02*
G37*
G36*
X443000Y115068D02*
Y111000D01*
X447410D01*
X447320Y111686D01*
X446862Y112791D01*
X446134Y113740D01*
X445185Y114469D01*
X444080Y114926D01*
X443000Y115068D01*
D02*
G37*
G36*
X343000Y115068D02*
Y111000D01*
X347410D01*
X347320Y111686D01*
X346862Y112791D01*
X346134Y113740D01*
X345185Y114469D01*
X344080Y114926D01*
X343000Y115068D01*
D02*
G37*
G36*
X432000D02*
X430920Y114926D01*
X429815Y114469D01*
X428866Y113740D01*
X428138Y112791D01*
X427680Y111686D01*
X427590Y111000D01*
X432000D01*
Y115068D01*
D02*
G37*
G36*
X332000D02*
X330920Y114926D01*
X329815Y114469D01*
X328866Y113740D01*
X328138Y112791D01*
X327680Y111686D01*
X327590Y111000D01*
X332000D01*
Y115068D01*
D02*
G37*
%LPD*%
G36*
X430496Y557370D02*
X430432Y557412D01*
X430362Y557437D01*
X430284Y557444D01*
X430200Y557433D01*
X430110Y557404D01*
X430013Y557358D01*
X429909Y557293D01*
X429799Y557211D01*
X429682Y557111D01*
X429559Y556993D01*
X428954Y557520D01*
X429070Y557641D01*
X429167Y557755D01*
X429246Y557862D01*
X429306Y557961D01*
X429347Y558053D01*
X429369Y558138D01*
X429374Y558216D01*
X429359Y558286D01*
X429326Y558348D01*
X429274Y558404D01*
X430496Y557370D01*
D02*
G37*
G36*
X345674Y558348D02*
X345641Y558286D01*
X345626Y558216D01*
X345631Y558138D01*
X345653Y558053D01*
X345694Y557961D01*
X345755Y557862D01*
X345833Y557755D01*
X345930Y557641D01*
X346046Y557520D01*
X345442Y556993D01*
X345318Y557111D01*
X345201Y557211D01*
X345091Y557293D01*
X344987Y557358D01*
X344890Y557404D01*
X344799Y557433D01*
X344716Y557444D01*
X344638Y557437D01*
X344568Y557412D01*
X344504Y557370D01*
X345726Y558404D01*
X345674Y558348D01*
D02*
G37*
G36*
X430496Y547370D02*
X430432Y547412D01*
X430362Y547437D01*
X430284Y547444D01*
X430200Y547433D01*
X430110Y547404D01*
X430013Y547358D01*
X429909Y547293D01*
X429799Y547211D01*
X429682Y547111D01*
X429559Y546993D01*
X428954Y547520D01*
X429070Y547641D01*
X429167Y547755D01*
X429246Y547862D01*
X429306Y547961D01*
X429347Y548054D01*
X429369Y548138D01*
X429374Y548216D01*
X429359Y548286D01*
X429326Y548348D01*
X429274Y548404D01*
X430496Y547370D01*
D02*
G37*
G36*
X345674Y548348D02*
X345641Y548286D01*
X345626Y548216D01*
X345631Y548138D01*
X345653Y548054D01*
X345694Y547961D01*
X345755Y547862D01*
X345833Y547755D01*
X345930Y547641D01*
X346046Y547520D01*
X345442Y546993D01*
X345318Y547111D01*
X345201Y547211D01*
X345091Y547293D01*
X344987Y547358D01*
X344890Y547404D01*
X344799Y547433D01*
X344716Y547444D01*
X344638Y547437D01*
X344568Y547412D01*
X344504Y547370D01*
X345726Y548404D01*
X345674Y548348D01*
D02*
G37*
G36*
X430496Y537370D02*
X430432Y537413D01*
X430362Y537437D01*
X430284Y537444D01*
X430200Y537433D01*
X430110Y537404D01*
X430013Y537358D01*
X429909Y537293D01*
X429799Y537211D01*
X429682Y537111D01*
X429559Y536993D01*
X428954Y537520D01*
X429070Y537641D01*
X429167Y537755D01*
X429246Y537862D01*
X429306Y537961D01*
X429347Y538054D01*
X429369Y538138D01*
X429374Y538216D01*
X429359Y538286D01*
X429326Y538348D01*
X429274Y538404D01*
X430496Y537370D01*
D02*
G37*
G36*
X345674Y538348D02*
X345641Y538286D01*
X345626Y538216D01*
X345631Y538138D01*
X345653Y538054D01*
X345694Y537961D01*
X345755Y537862D01*
X345833Y537755D01*
X345930Y537641D01*
X346046Y537520D01*
X345442Y536993D01*
X345318Y537111D01*
X345201Y537211D01*
X345091Y537293D01*
X344987Y537358D01*
X344890Y537404D01*
X344799Y537433D01*
X344716Y537444D01*
X344638Y537437D01*
X344568Y537413D01*
X344504Y537370D01*
X345726Y538404D01*
X345674Y538348D01*
D02*
G37*
G36*
X430496Y527370D02*
X430432Y527413D01*
X430362Y527437D01*
X430284Y527444D01*
X430200Y527433D01*
X430110Y527404D01*
X430013Y527357D01*
X429909Y527293D01*
X429799Y527211D01*
X429682Y527111D01*
X429559Y526993D01*
X428954Y527520D01*
X429070Y527641D01*
X429167Y527755D01*
X429246Y527862D01*
X429306Y527961D01*
X429347Y528054D01*
X429369Y528138D01*
X429374Y528216D01*
X429359Y528286D01*
X429326Y528348D01*
X429274Y528404D01*
X430496Y527370D01*
D02*
G37*
G36*
X345674Y528348D02*
X345641Y528286D01*
X345626Y528216D01*
X345631Y528138D01*
X345653Y528054D01*
X345694Y527961D01*
X345755Y527862D01*
X345833Y527755D01*
X345930Y527641D01*
X346046Y527520D01*
X345442Y526993D01*
X345318Y527111D01*
X345201Y527211D01*
X345091Y527293D01*
X344987Y527357D01*
X344890Y527404D01*
X344799Y527433D01*
X344716Y527444D01*
X344638Y527437D01*
X344568Y527413D01*
X344504Y527370D01*
X345726Y528404D01*
X345674Y528348D01*
D02*
G37*
G36*
X430496Y517370D02*
X430432Y517413D01*
X430362Y517437D01*
X430284Y517444D01*
X430200Y517433D01*
X430110Y517404D01*
X430013Y517357D01*
X429909Y517293D01*
X429799Y517211D01*
X429682Y517111D01*
X429559Y516993D01*
X428954Y517520D01*
X429070Y517641D01*
X429167Y517755D01*
X429246Y517862D01*
X429306Y517961D01*
X429347Y518053D01*
X429369Y518138D01*
X429374Y518216D01*
X429359Y518286D01*
X429326Y518348D01*
X429274Y518404D01*
X430496Y517370D01*
D02*
G37*
G36*
X345674Y518348D02*
X345641Y518286D01*
X345626Y518216D01*
X345631Y518138D01*
X345653Y518053D01*
X345694Y517961D01*
X345755Y517862D01*
X345833Y517755D01*
X345930Y517641D01*
X346046Y517520D01*
X345442Y516993D01*
X345318Y517111D01*
X345201Y517211D01*
X345091Y517293D01*
X344987Y517357D01*
X344890Y517404D01*
X344799Y517433D01*
X344716Y517444D01*
X344638Y517437D01*
X344568Y517413D01*
X344504Y517370D01*
X345726Y518404D01*
X345674Y518348D01*
D02*
G37*
G36*
X430496Y507370D02*
X430432Y507412D01*
X430362Y507437D01*
X430284Y507444D01*
X430200Y507433D01*
X430110Y507404D01*
X430013Y507358D01*
X429909Y507293D01*
X429799Y507211D01*
X429682Y507111D01*
X429559Y506993D01*
X428954Y507520D01*
X429070Y507641D01*
X429167Y507755D01*
X429246Y507862D01*
X429306Y507961D01*
X429347Y508053D01*
X429369Y508138D01*
X429374Y508216D01*
X429359Y508286D01*
X429326Y508348D01*
X429274Y508404D01*
X430496Y507370D01*
D02*
G37*
G36*
X345674Y508348D02*
X345641Y508286D01*
X345626Y508216D01*
X345631Y508138D01*
X345653Y508053D01*
X345694Y507961D01*
X345755Y507862D01*
X345833Y507755D01*
X345930Y507641D01*
X346046Y507520D01*
X345442Y506993D01*
X345318Y507111D01*
X345201Y507211D01*
X345091Y507293D01*
X344987Y507358D01*
X344890Y507404D01*
X344799Y507433D01*
X344716Y507444D01*
X344638Y507437D01*
X344568Y507412D01*
X344504Y507370D01*
X345726Y508404D01*
X345674Y508348D01*
D02*
G37*
G36*
X430496Y497370D02*
X430432Y497412D01*
X430362Y497437D01*
X430284Y497444D01*
X430200Y497433D01*
X430110Y497404D01*
X430013Y497358D01*
X429909Y497293D01*
X429799Y497211D01*
X429682Y497111D01*
X429559Y496993D01*
X428954Y497520D01*
X429070Y497641D01*
X429167Y497755D01*
X429246Y497862D01*
X429306Y497961D01*
X429347Y498054D01*
X429369Y498138D01*
X429374Y498216D01*
X429359Y498286D01*
X429326Y498348D01*
X429274Y498404D01*
X430496Y497370D01*
D02*
G37*
G36*
X345674Y498348D02*
X345641Y498286D01*
X345626Y498216D01*
X345631Y498138D01*
X345653Y498054D01*
X345694Y497961D01*
X345755Y497862D01*
X345833Y497755D01*
X345930Y497641D01*
X346046Y497520D01*
X345442Y496993D01*
X345318Y497111D01*
X345201Y497211D01*
X345091Y497293D01*
X344987Y497358D01*
X344890Y497404D01*
X344799Y497433D01*
X344716Y497444D01*
X344638Y497437D01*
X344568Y497412D01*
X344504Y497370D01*
X345726Y498404D01*
X345674Y498348D01*
D02*
G37*
G36*
X430496Y487370D02*
X430432Y487413D01*
X430362Y487437D01*
X430284Y487444D01*
X430200Y487433D01*
X430110Y487404D01*
X430013Y487358D01*
X429909Y487293D01*
X429799Y487211D01*
X429682Y487111D01*
X429559Y486993D01*
X428954Y487520D01*
X429070Y487641D01*
X429167Y487755D01*
X429246Y487862D01*
X429306Y487961D01*
X429347Y488054D01*
X429369Y488138D01*
X429374Y488216D01*
X429359Y488286D01*
X429326Y488348D01*
X429274Y488404D01*
X430496Y487370D01*
D02*
G37*
G36*
X345674Y488348D02*
X345641Y488286D01*
X345626Y488216D01*
X345631Y488138D01*
X345653Y488054D01*
X345694Y487961D01*
X345755Y487862D01*
X345833Y487755D01*
X345930Y487641D01*
X346046Y487520D01*
X345442Y486993D01*
X345318Y487111D01*
X345201Y487211D01*
X345091Y487293D01*
X344987Y487358D01*
X344890Y487404D01*
X344799Y487433D01*
X344716Y487444D01*
X344638Y487437D01*
X344568Y487413D01*
X344504Y487370D01*
X345726Y488404D01*
X345674Y488348D01*
D02*
G37*
G36*
X430496Y477370D02*
X430432Y477413D01*
X430362Y477437D01*
X430284Y477444D01*
X430200Y477433D01*
X430110Y477404D01*
X430013Y477357D01*
X429909Y477293D01*
X429799Y477211D01*
X429682Y477111D01*
X429559Y476993D01*
X428954Y477520D01*
X429070Y477641D01*
X429167Y477755D01*
X429246Y477862D01*
X429306Y477961D01*
X429347Y478054D01*
X429369Y478138D01*
X429374Y478216D01*
X429359Y478286D01*
X429326Y478348D01*
X429274Y478404D01*
X430496Y477370D01*
D02*
G37*
G36*
X345674Y478348D02*
X345641Y478286D01*
X345626Y478216D01*
X345631Y478138D01*
X345653Y478054D01*
X345694Y477961D01*
X345755Y477862D01*
X345833Y477755D01*
X345930Y477641D01*
X346046Y477520D01*
X345442Y476993D01*
X345318Y477111D01*
X345201Y477211D01*
X345091Y477293D01*
X344987Y477357D01*
X344890Y477404D01*
X344799Y477433D01*
X344716Y477444D01*
X344638Y477437D01*
X344568Y477413D01*
X344504Y477370D01*
X345726Y478404D01*
X345674Y478348D01*
D02*
G37*
G36*
X430496Y467370D02*
X430432Y467413D01*
X430362Y467437D01*
X430284Y467444D01*
X430200Y467433D01*
X430110Y467404D01*
X430013Y467357D01*
X429909Y467293D01*
X429799Y467211D01*
X429682Y467111D01*
X429559Y466993D01*
X428954Y467520D01*
X429070Y467641D01*
X429167Y467755D01*
X429246Y467862D01*
X429306Y467961D01*
X429347Y468053D01*
X429369Y468138D01*
X429374Y468216D01*
X429359Y468286D01*
X429326Y468348D01*
X429274Y468404D01*
X430496Y467370D01*
D02*
G37*
G36*
X345674Y468348D02*
X345641Y468286D01*
X345626Y468216D01*
X345631Y468138D01*
X345653Y468053D01*
X345694Y467961D01*
X345755Y467862D01*
X345833Y467755D01*
X345930Y467641D01*
X346046Y467520D01*
X345442Y466993D01*
X345318Y467111D01*
X345201Y467211D01*
X345091Y467293D01*
X344987Y467357D01*
X344890Y467404D01*
X344799Y467433D01*
X344716Y467444D01*
X344638Y467437D01*
X344568Y467413D01*
X344504Y467370D01*
X345726Y468404D01*
X345674Y468348D01*
D02*
G37*
G36*
X430496Y457370D02*
X430432Y457412D01*
X430362Y457437D01*
X430284Y457444D01*
X430200Y457433D01*
X430110Y457404D01*
X430013Y457358D01*
X429909Y457293D01*
X429799Y457211D01*
X429682Y457111D01*
X429559Y456993D01*
X428954Y457520D01*
X429070Y457641D01*
X429167Y457755D01*
X429246Y457862D01*
X429306Y457961D01*
X429347Y458053D01*
X429369Y458138D01*
X429374Y458216D01*
X429359Y458286D01*
X429326Y458348D01*
X429274Y458404D01*
X430496Y457370D01*
D02*
G37*
G36*
X345674Y458348D02*
X345641Y458286D01*
X345626Y458216D01*
X345631Y458138D01*
X345653Y458053D01*
X345694Y457961D01*
X345755Y457862D01*
X345833Y457755D01*
X345930Y457641D01*
X346046Y457520D01*
X345442Y456993D01*
X345318Y457111D01*
X345201Y457211D01*
X345091Y457293D01*
X344987Y457358D01*
X344890Y457404D01*
X344799Y457433D01*
X344716Y457444D01*
X344638Y457437D01*
X344568Y457412D01*
X344504Y457370D01*
X345726Y458404D01*
X345674Y458348D01*
D02*
G37*
G36*
X345129Y397791D02*
X345082Y397735D01*
X345050Y397668D01*
X345033Y397588D01*
X345032Y397497D01*
X345046Y397393D01*
X345075Y397277D01*
X345120Y397149D01*
X345180Y397009D01*
X345255Y396857D01*
X344545Y396489D01*
X344463Y396637D01*
X344382Y396765D01*
X344303Y396874D01*
X344224Y396963D01*
X344147Y397033D01*
X344071Y397084D01*
X343997Y397115D01*
X343923Y397126D01*
X343851Y397118D01*
X343780Y397091D01*
X345192Y397834D01*
X345129Y397791D01*
D02*
G37*
G36*
Y387790D02*
X345082Y387735D01*
X345050Y387668D01*
X345033Y387589D01*
X345032Y387497D01*
X345046Y387393D01*
X345075Y387277D01*
X345120Y387149D01*
X345180Y387009D01*
X345255Y386857D01*
X344545Y386489D01*
X344463Y386637D01*
X344382Y386765D01*
X344303Y386874D01*
X344224Y386963D01*
X344147Y387033D01*
X344071Y387084D01*
X343997Y387115D01*
X343923Y387126D01*
X343851Y387119D01*
X343780Y387091D01*
X345192Y387834D01*
X345129Y387790D01*
D02*
G37*
G36*
X376340Y382477D02*
X376268Y382389D01*
X376204Y382298D01*
X376148Y382205D01*
X376101Y382109D01*
X376063Y382010D01*
X376033Y381908D01*
X376012Y381803D01*
X375999Y381696D01*
X375995Y381586D01*
X375195D01*
X375190Y381696D01*
X375178Y381803D01*
X375156Y381908D01*
X375126Y382010D01*
X375088Y382109D01*
X375041Y382205D01*
X374986Y382298D01*
X374921Y382389D01*
X374849Y382477D01*
X374768Y382562D01*
X376421D01*
X376340Y382477D01*
D02*
G37*
G36*
X362704Y381752D02*
X362717Y381184D01*
X361916D01*
X361915Y381293D01*
X361901Y381479D01*
X361890Y381554D01*
X361874Y381618D01*
X361856Y381670D01*
X361834Y381711D01*
X361809Y381740D01*
X361780Y381758D01*
X361748Y381764D01*
X362704Y381752D01*
D02*
G37*
G36*
X365685Y381756D02*
X365625Y381734D01*
X365573Y381695D01*
X365527Y381642D01*
X365488Y381573D01*
X365456Y381489D01*
X365432Y381390D01*
X365414Y381275D01*
X365404Y381145D01*
X365400Y381000D01*
X364600D01*
X364597Y381145D01*
X364586Y381275D01*
X364568Y381390D01*
X364544Y381489D01*
X364512Y381573D01*
X364473Y381642D01*
X364427Y381695D01*
X364375Y381734D01*
X364315Y381756D01*
X364248Y381764D01*
X365752D01*
X365685Y381756D01*
D02*
G37*
G36*
X431220Y377091D02*
X431149Y377118D01*
X431077Y377126D01*
X431003Y377115D01*
X430929Y377084D01*
X430853Y377033D01*
X430776Y376963D01*
X430697Y376874D01*
X430618Y376765D01*
X430537Y376637D01*
X430455Y376489D01*
X429744Y376857D01*
X429820Y377009D01*
X429880Y377149D01*
X429925Y377277D01*
X429954Y377393D01*
X429968Y377497D01*
X429967Y377589D01*
X429950Y377668D01*
X429918Y377735D01*
X429871Y377790D01*
X429808Y377834D01*
X431220Y377091D01*
D02*
G37*
G36*
X345129Y377790D02*
X345082Y377735D01*
X345050Y377668D01*
X345033Y377589D01*
X345032Y377497D01*
X345046Y377393D01*
X345075Y377277D01*
X345120Y377149D01*
X345180Y377009D01*
X345255Y376857D01*
X344545Y376489D01*
X344463Y376637D01*
X344382Y376765D01*
X344303Y376874D01*
X344224Y376963D01*
X344147Y377033D01*
X344071Y377084D01*
X343997Y377115D01*
X343923Y377126D01*
X343851Y377118D01*
X343780Y377091D01*
X345192Y377834D01*
X345129Y377790D01*
D02*
G37*
G36*
X420692Y371356D02*
X420624Y371332D01*
X420564Y371291D01*
X420512Y371234D01*
X420468Y371161D01*
X420432Y371072D01*
X420404Y370966D01*
X420384Y370845D01*
X420372Y370706D01*
X420368Y370552D01*
X419568D01*
X419564Y370706D01*
X419552Y370845D01*
X419532Y370966D01*
X419504Y371072D01*
X419468Y371161D01*
X419424Y371234D01*
X419372Y371291D01*
X419312Y371332D01*
X419244Y371356D01*
X419168Y371364D01*
X420768D01*
X420692Y371356D01*
D02*
G37*
G36*
X420372Y370346D02*
X420384Y370208D01*
X420404Y370086D01*
X420432Y369981D01*
X420468Y369892D01*
X420512Y369818D01*
X420564Y369762D01*
X420624Y369721D01*
X420692Y369697D01*
X420768Y369689D01*
X419168D01*
X419244Y369697D01*
X419312Y369721D01*
X419372Y369762D01*
X419424Y369818D01*
X419468Y369892D01*
X419504Y369981D01*
X419532Y370086D01*
X419552Y370208D01*
X419564Y370346D01*
X419568Y370501D01*
X420368D01*
X420372Y370346D01*
D02*
G37*
G36*
X357439D02*
X357451Y370208D01*
X357471Y370086D01*
X357499Y369981D01*
X357535Y369892D01*
X357579Y369818D01*
X357631Y369762D01*
X357691Y369721D01*
X357759Y369697D01*
X357835Y369689D01*
X356235D01*
X356311Y369697D01*
X356379Y369721D01*
X356439Y369762D01*
X356491Y369818D01*
X356535Y369892D01*
X356571Y369981D01*
X356599Y370086D01*
X356619Y370208D01*
X356631Y370346D01*
X356635Y370501D01*
X357435D01*
X357439Y370346D01*
D02*
G37*
G36*
X362287Y372061D02*
X363378D01*
Y375965D01*
X364256D01*
Y372061D01*
X364457D01*
X364528Y371707D01*
X364837Y371244D01*
X365619Y370462D01*
Y370266D01*
X365951Y369464D01*
X366564Y368851D01*
X367366Y368519D01*
X368234D01*
X369036Y368851D01*
X369649Y369464D01*
X369981Y370266D01*
Y371134D01*
X369804Y371561D01*
X370138Y372061D01*
X412713D01*
Y375034D01*
X413174Y375225D01*
X417187Y371213D01*
X416980Y370713D01*
X414061D01*
Y369622D01*
X417965D01*
Y368744D01*
X414061D01*
Y367868D01*
X413636Y367583D01*
X413150Y367750D01*
X412949Y368235D01*
X412335Y368849D01*
X411534Y369181D01*
X410666D01*
X409865Y368849D01*
X409251Y368235D01*
X408919Y367434D01*
Y366566D01*
X409160Y365985D01*
X409247Y365759D01*
X408926Y365382D01*
X408433Y365178D01*
X407817Y364705D01*
X407744Y364659D01*
X407131Y364081D01*
X406466D01*
X405664Y363749D01*
X405051Y363136D01*
X404719Y362334D01*
Y361466D01*
X405051Y360665D01*
X405664Y360051D01*
X406466Y359719D01*
X407334D01*
X407971Y359983D01*
X408364Y359627D01*
X408119Y359034D01*
Y358166D01*
X408451Y357365D01*
X408897Y356919D01*
X408451Y356473D01*
X408119Y355672D01*
Y354804D01*
X408451Y354002D01*
X408897Y353557D01*
X408451Y353111D01*
X408119Y352309D01*
Y351442D01*
X408451Y350640D01*
X408897Y350195D01*
X408451Y349749D01*
X408119Y348947D01*
Y348080D01*
X408451Y347278D01*
X408922Y346807D01*
X408451Y346336D01*
X408119Y345534D01*
Y344666D01*
X408451Y343864D01*
X409064Y343251D01*
X409866Y342919D01*
X410734D01*
X411536Y343251D01*
X412149Y343864D01*
X412481Y344666D01*
Y345392D01*
X413059Y346035D01*
X413129Y346153D01*
X413515Y346657D01*
X413521Y346671D01*
X413986Y346666D01*
X414061Y346646D01*
Y341941D01*
Y338004D01*
Y334231D01*
X413672Y334033D01*
X413561Y334023D01*
X413236Y334349D01*
X412434Y334681D01*
X411566D01*
X410765Y334349D01*
X410151Y333735D01*
X409819Y332934D01*
Y332066D01*
X410151Y331264D01*
X410666Y330750D01*
X410151Y330236D01*
X409819Y329434D01*
Y328566D01*
X410151Y327765D01*
X410666Y327250D01*
X410151Y326735D01*
X409819Y325934D01*
Y325066D01*
X410151Y324265D01*
X410714Y323702D01*
X410248Y323236D01*
X410189Y323093D01*
X410089Y323080D01*
X409668Y323143D01*
X409383Y323830D01*
X408770Y324444D01*
X407968Y324776D01*
X407101D01*
X406299Y324444D01*
X405685Y323830D01*
X405517Y323425D01*
X405072Y323068D01*
X404205D01*
X403403Y322736D01*
X402789Y322122D01*
X402457Y321321D01*
Y320453D01*
X402789Y319651D01*
X403002Y319439D01*
X402795Y318939D01*
X367024D01*
X366868Y319314D01*
X366858Y319439D01*
X367775Y320357D01*
X367866Y320319D01*
X368734D01*
X369535Y320651D01*
X370149Y321265D01*
X370481Y322066D01*
Y322934D01*
X370149Y323735D01*
X369535Y324349D01*
X368734Y324681D01*
X367866D01*
X367064Y324349D01*
X366933Y324217D01*
X366513Y324221D01*
X366308Y324724D01*
X366549Y324964D01*
X366881Y325766D01*
Y326634D01*
X366549Y327435D01*
X366035Y327950D01*
X366549Y328465D01*
X366881Y329266D01*
Y330134D01*
X366549Y330936D01*
X366035Y331450D01*
X366549Y331964D01*
X366881Y332766D01*
Y333634D01*
X366549Y334436D01*
X365935Y335049D01*
X365450Y335250D01*
X365081Y335666D01*
Y336534D01*
X364749Y337335D01*
X364136Y337949D01*
X363334Y338281D01*
X362466D01*
X361665Y337949D01*
X361439Y337723D01*
X360939Y337931D01*
Y339972D01*
Y344073D01*
X362954D01*
X363566Y343819D01*
X364434D01*
X365235Y344151D01*
X365849Y344764D01*
X366181Y345566D01*
Y346434D01*
X365849Y347235D01*
X365461Y347623D01*
X365289Y347950D01*
X365461Y348277D01*
X365849Y348664D01*
X366181Y349466D01*
Y350334D01*
X365849Y351135D01*
X365235Y351749D01*
X364434Y352081D01*
X363566D01*
X363131Y351901D01*
X362779Y352296D01*
X363016Y352719D01*
X363034D01*
X363836Y353051D01*
X364449Y353664D01*
X364781Y354466D01*
Y355233D01*
X364963Y355570D01*
X365438Y355625D01*
X365501Y355615D01*
X365885Y355230D01*
X366687Y354898D01*
X366840Y354669D01*
X366619Y354134D01*
Y353266D01*
X366951Y352465D01*
X367565Y351851D01*
X368366Y351519D01*
X369234D01*
X370036Y351851D01*
X370649Y352465D01*
X370981Y353266D01*
Y354134D01*
X370649Y354936D01*
X370036Y355549D01*
X369234Y355881D01*
X369080Y356111D01*
X369302Y356646D01*
Y357513D01*
X368970Y358315D01*
X368366Y358919D01*
X368367Y358973D01*
X368479Y359419D01*
X368734D01*
X369535Y359751D01*
X370149Y360365D01*
X370481Y361166D01*
Y362034D01*
X370149Y362836D01*
X369535Y363449D01*
X368734Y363781D01*
X367866D01*
X367064Y363449D01*
X366523Y363615D01*
X366349Y364036D01*
X365884Y364500D01*
X366349Y364965D01*
X366681Y365766D01*
Y366634D01*
X366349Y367436D01*
X365736Y368049D01*
X364934Y368381D01*
X364066D01*
X363264Y368049D01*
X363078Y367863D01*
X360939Y368192D01*
Y370713D01*
X358463D01*
Y376059D01*
X362287D01*
Y372061D01*
D02*
G37*
G36*
X431220Y367091D02*
X431149Y367119D01*
X431077Y367126D01*
X431003Y367115D01*
X430929Y367084D01*
X430853Y367033D01*
X430776Y366963D01*
X430697Y366874D01*
X430618Y366765D01*
X430537Y366637D01*
X430455Y366489D01*
X429744Y366857D01*
X429820Y367009D01*
X429880Y367149D01*
X429925Y367277D01*
X429954Y367393D01*
X429968Y367497D01*
X429967Y367588D01*
X429950Y367668D01*
X429918Y367735D01*
X429871Y367791D01*
X429808Y367834D01*
X431220Y367091D01*
D02*
G37*
G36*
X345129Y367791D02*
X345082Y367735D01*
X345050Y367668D01*
X345033Y367588D01*
X345032Y367497D01*
X345046Y367393D01*
X345075Y367277D01*
X345120Y367149D01*
X345180Y367009D01*
X345255Y366857D01*
X344545Y366489D01*
X344463Y366637D01*
X344382Y366765D01*
X344303Y366874D01*
X344224Y366963D01*
X344147Y367033D01*
X344071Y367084D01*
X343997Y367115D01*
X343923Y367126D01*
X343851Y367119D01*
X343780Y367091D01*
X345192Y367834D01*
X345129Y367791D01*
D02*
G37*
G36*
X363142Y363915D02*
X363244Y363879D01*
X363347Y363852D01*
X363452Y363834D01*
X363558Y363825D01*
X363665Y363825D01*
X363773Y363834D01*
X363883Y363851D01*
X363994Y363878D01*
X364106Y363913D01*
X363379Y362428D01*
X363338Y362538D01*
X363291Y362642D01*
X363238Y362739D01*
X363178Y362830D01*
X363112Y362915D01*
X363040Y362993D01*
X362962Y363064D01*
X362877Y363130D01*
X362787Y363188D01*
X362689Y363241D01*
X363041Y363959D01*
X363142Y363915D01*
D02*
G37*
G36*
X411288Y362611D02*
X411368Y362529D01*
X411452Y362457D01*
X411539Y362392D01*
X411630Y362336D01*
X411725Y362287D01*
X411823Y362247D01*
X411925Y362216D01*
X412031Y362192D01*
X412140Y362177D01*
X412059Y361381D01*
X411949Y361388D01*
X411841Y361386D01*
X411735Y361375D01*
X411631Y361356D01*
X411528Y361327D01*
X411428Y361290D01*
X411329Y361245D01*
X411233Y361190D01*
X411138Y361127D01*
X411045Y361055D01*
X411212Y362700D01*
X411288Y362611D01*
D02*
G37*
G36*
X411154Y359430D02*
X411248Y359366D01*
X411345Y359311D01*
X411443Y359264D01*
X411543Y359227D01*
X411645Y359198D01*
X411750Y359178D01*
X411856Y359166D01*
X411964Y359164D01*
X412074Y359170D01*
X412150Y358373D01*
X412040Y358359D01*
X411935Y358336D01*
X411832Y358305D01*
X411734Y358265D01*
X411639Y358218D01*
X411547Y358162D01*
X411460Y358098D01*
X411375Y358026D01*
X411295Y357945D01*
X411218Y357856D01*
X411062Y359503D01*
X411154Y359430D01*
D02*
G37*
G36*
X430893Y357190D02*
X430825Y357224D01*
X430754Y357239D01*
X430680Y357235D01*
X430603Y357212D01*
X430523Y357170D01*
X430441Y357109D01*
X430355Y357029D01*
X430267Y356930D01*
X430175Y356812D01*
X430081Y356675D01*
X429412Y357114D01*
X429499Y357255D01*
X429571Y357385D01*
X429626Y357505D01*
X429664Y357615D01*
X429687Y357715D01*
X429693Y357804D01*
X429683Y357883D01*
X429658Y357952D01*
X429615Y358011D01*
X429557Y358059D01*
X430893Y357190D01*
D02*
G37*
G36*
X410890Y356272D02*
X410998Y356237D01*
X411106Y356211D01*
X411214Y356193D01*
X411320Y356185D01*
X411427Y356186D01*
X411532Y356195D01*
X411637Y356214D01*
X411742Y356241D01*
X411846Y356278D01*
X412140Y355533D01*
X412039Y355489D01*
X411944Y355438D01*
X411854Y355380D01*
X411770Y355314D01*
X411692Y355242D01*
X411620Y355163D01*
X411553Y355077D01*
X411492Y354984D01*
X411437Y354885D01*
X411388Y354778D01*
X410781Y356316D01*
X410890Y356272D01*
D02*
G37*
G36*
X351644Y352077D02*
X351668Y352009D01*
X351709Y351949D01*
X351766Y351897D01*
X351839Y351853D01*
X351928Y351817D01*
X352034Y351789D01*
X352155Y351769D01*
X352294Y351757D01*
X352448Y351753D01*
Y350953D01*
X352294Y350949D01*
X352155Y350937D01*
X352034Y350917D01*
X351928Y350889D01*
X351839Y350853D01*
X351766Y350809D01*
X351709Y350757D01*
X351668Y350697D01*
X351644Y350629D01*
X351636Y350553D01*
Y352153D01*
X351644Y352077D01*
D02*
G37*
G36*
X429587Y348022D02*
X429541Y348082D01*
X429484Y348127D01*
X429416Y348155D01*
X429337Y348167D01*
X429248Y348164D01*
X429148Y348145D01*
X429037Y348110D01*
X428915Y348059D01*
X428783Y347992D01*
X428640Y347909D01*
X428218Y348589D01*
X428359Y348679D01*
X428481Y348768D01*
X428583Y348854D01*
X428667Y348938D01*
X428731Y349019D01*
X428776Y349098D01*
X428802Y349174D01*
X428809Y349248D01*
X428797Y349320D01*
X428766Y349389D01*
X429587Y348022D01*
D02*
G37*
G36*
X352316Y348217D02*
X352188Y348214D01*
X351971Y348192D01*
X351882Y348173D01*
X351807Y348149D01*
X351746Y348120D01*
X351698Y348085D01*
X351664Y348045D01*
X351643Y347999D01*
X351636Y347948D01*
X351648Y349005D01*
X352316Y349016D01*
Y348217D01*
D02*
G37*
G36*
X344697Y363986D02*
X345742Y361993D01*
X345733Y361989D01*
X345815Y361792D01*
X345835Y361801D01*
X345835D01*
X347799Y357359D01*
X347840Y357300D01*
X348354Y356339D01*
X349191Y355319D01*
X349601Y354983D01*
X349691Y354873D01*
X350448Y354254D01*
X350582Y354183D01*
X350671Y354115D01*
X350772Y354010D01*
X350847Y353958D01*
X350697Y353481D01*
X348140D01*
Y349119D01*
Y348335D01*
X348961D01*
D01*
X349034Y348379D01*
X349091Y348431D01*
X349132Y348491D01*
X349156Y348559D01*
X349164Y348635D01*
Y348335D01*
X350400D01*
Y347335D01*
X349164D01*
Y347035D01*
X349156Y347111D01*
X349132Y347179D01*
X349091Y347239D01*
X349034Y347291D01*
X348961Y347335D01*
X348140D01*
Y345654D01*
X349945D01*
X350152Y345154D01*
X349868Y344870D01*
X349536Y344069D01*
Y343635D01*
X347465D01*
X342500Y348600D01*
Y362359D01*
X344203Y364062D01*
X344697Y363986D01*
D02*
G37*
G36*
X352676Y344340D02*
X352761Y344265D01*
X352848Y344199D01*
X352939Y344142D01*
X353033Y344093D01*
X353131Y344054D01*
X353231Y344023D01*
X353336Y344001D01*
X353443Y343988D01*
X353554Y343983D01*
X353517Y343183D01*
X353407Y343179D01*
X353300Y343167D01*
X353195Y343146D01*
X353092Y343117D01*
X352992Y343080D01*
X352893Y343035D01*
X352798Y342982D01*
X352704Y342920D01*
X352612Y342850D01*
X352523Y342772D01*
X352595Y344424D01*
X352676Y344340D01*
D02*
G37*
G36*
X428623Y339961D02*
X428620Y340037D01*
X428599Y340106D01*
X428560Y340169D01*
X428502Y340225D01*
X428426Y340275D01*
X428332Y340318D01*
X428220Y340354D01*
X428089Y340384D01*
X427941Y340407D01*
X427774Y340424D01*
X427825Y341222D01*
X427995Y341213D01*
X428147Y341214D01*
X428283Y341224D01*
X428401Y341243D01*
X428502Y341271D01*
X428585Y341309D01*
X428652Y341355D01*
X428701Y341411D01*
X428733Y341477D01*
X428748Y341551D01*
X428623Y339961D01*
D02*
G37*
G36*
X362646Y334947D02*
X362536Y334966D01*
X362430Y334974D01*
X362326Y334972D01*
X362225Y334960D01*
X362127Y334936D01*
X362033Y334902D01*
X361941Y334858D01*
X361852Y334802D01*
X361765Y334737D01*
X361682Y334660D01*
X361244Y335353D01*
X361317Y335431D01*
X361385Y335513D01*
X361447Y335600D01*
X361505Y335691D01*
X361557Y335787D01*
X361604Y335887D01*
X361647Y335991D01*
X361684Y336100D01*
X361715Y336214D01*
X361742Y336331D01*
X362646Y334947D01*
D02*
G37*
G36*
X364092Y332188D02*
X363989Y332245D01*
X363886Y332293D01*
X363782Y332332D01*
X363678Y332362D01*
X363573Y332383D01*
X363467Y332396D01*
X363361Y332399D01*
X363254Y332393D01*
X363147Y332378D01*
X363039Y332355D01*
X362838Y333129D01*
X362944Y333161D01*
X363044Y333200D01*
X363140Y333247D01*
X363231Y333302D01*
X363317Y333364D01*
X363399Y333434D01*
X363475Y333511D01*
X363547Y333596D01*
X363614Y333688D01*
X363676Y333788D01*
X364092Y332188D01*
D02*
G37*
G36*
X429139Y333433D02*
X429264Y333346D01*
X429380Y333277D01*
X429488Y333225D01*
X429587Y333191D01*
X429677Y333174D01*
X429758Y333175D01*
X429830Y333193D01*
X429894Y333229D01*
X429948Y333282D01*
X428941Y332044D01*
X428982Y332109D01*
X429004Y332178D01*
X429007Y332252D01*
X428992Y332332D01*
X428957Y332416D01*
X428904Y332505D01*
X428831Y332600D01*
X428741Y332700D01*
X428631Y332804D01*
X428502Y332914D01*
X429004Y333537D01*
X429139Y333433D01*
D02*
G37*
G36*
X413187Y332407D02*
X413202Y332294D01*
X413224Y332185D01*
X413254Y332081D01*
X413292Y331980D01*
X413337Y331885D01*
X413391Y331793D01*
X413453Y331706D01*
X413522Y331623D01*
X413599Y331544D01*
X413051Y330961D01*
X412968Y331034D01*
X412881Y331098D01*
X412790Y331154D01*
X412696Y331202D01*
X412597Y331242D01*
X412495Y331274D01*
X412389Y331298D01*
X412279Y331313D01*
X412165Y331321D01*
X412048Y331320D01*
X413181Y332524D01*
X413187Y332407D01*
D02*
G37*
G36*
X363857Y328873D02*
X363772Y328954D01*
X363684Y329027D01*
X363593Y329091D01*
X363499Y329146D01*
X363403Y329193D01*
X363304Y329232D01*
X363202Y329262D01*
X363098Y329283D01*
X362990Y329296D01*
X362880Y329300D01*
Y330100D01*
X362990Y330104D01*
X363098Y330117D01*
X363202Y330138D01*
X363304Y330168D01*
X363403Y330207D01*
X363499Y330254D01*
X363593Y330309D01*
X363684Y330373D01*
X363772Y330446D01*
X363857Y330527D01*
Y328873D01*
D02*
G37*
G36*
X413114Y329422D02*
X413175Y329326D01*
X413241Y329237D01*
X413313Y329155D01*
X413390Y329081D01*
X413472Y329014D01*
X413560Y328954D01*
X413653Y328901D01*
X413751Y328856D01*
X413855Y328818D01*
X413607Y328057D01*
X413501Y328087D01*
X413395Y328108D01*
X413289Y328120D01*
X413183Y328123D01*
X413076Y328117D01*
X412970Y328102D01*
X412864Y328078D01*
X412758Y328046D01*
X412652Y328004D01*
X412546Y327953D01*
X413058Y329525D01*
X413114Y329422D01*
D02*
G37*
G36*
X363663Y325635D02*
X363603Y325736D01*
X363539Y325829D01*
X363469Y325916D01*
X363394Y325995D01*
X363314Y326066D01*
X363229Y326130D01*
X363140Y326186D01*
X363045Y326236D01*
X362945Y326277D01*
X362840Y326311D01*
X363058Y327081D01*
X363165Y327055D01*
X363272Y327038D01*
X363379Y327030D01*
X363485Y327031D01*
X363591Y327041D01*
X363696Y327060D01*
X363801Y327088D01*
X363906Y327125D01*
X364010Y327171D01*
X364114Y327225D01*
X363663Y325635D01*
D02*
G37*
G36*
X412901Y326279D02*
X412992Y326209D01*
X413085Y326149D01*
X413180Y326096D01*
X413278Y326053D01*
X413378Y326018D01*
X413481Y325992D01*
X413586Y325974D01*
X413694Y325965D01*
X413804Y325965D01*
X413833Y325166D01*
X413723Y325157D01*
X413616Y325141D01*
X413512Y325116D01*
X413412Y325082D01*
X413314Y325040D01*
X413220Y324990D01*
X413128Y324931D01*
X413040Y324864D01*
X412955Y324788D01*
X412873Y324704D01*
X412813Y326357D01*
X412901Y326279D01*
D02*
G37*
G36*
X345255Y324143D02*
X345180Y323991D01*
X345120Y323851D01*
X345075Y323723D01*
X345046Y323607D01*
X345032Y323503D01*
X345033Y323411D01*
X345050Y323332D01*
X345082Y323265D01*
X345129Y323210D01*
X345192Y323166D01*
X343780Y323909D01*
X343851Y323882D01*
X343923Y323874D01*
X343997Y323885D01*
X344071Y323916D01*
X344147Y323967D01*
X344224Y324037D01*
X344303Y324126D01*
X344382Y324235D01*
X344463Y324363D01*
X344545Y324511D01*
X345255Y324143D01*
D02*
G37*
G36*
X430537Y324363D02*
X430618Y324235D01*
X430697Y324126D01*
X430776Y324037D01*
X430853Y323967D01*
X430929Y323916D01*
X431003Y323885D01*
X431077Y323874D01*
X431149Y323882D01*
X431220Y323909D01*
X429808Y323166D01*
X429871Y323210D01*
X429918Y323265D01*
X429950Y323332D01*
X429967Y323411D01*
X429968Y323503D01*
X429954Y323607D01*
X429925Y323723D01*
X429880Y323851D01*
X429820Y323991D01*
X429744Y324143D01*
X430455Y324511D01*
X430537Y324363D01*
D02*
G37*
G36*
X413868Y322598D02*
X413774Y322539D01*
X413687Y322475D01*
X413607Y322404D01*
X413534Y322328D01*
X413469Y322245D01*
X413410Y322157D01*
X413359Y322062D01*
X413315Y321961D01*
X413279Y321855D01*
X413249Y321742D01*
X412378Y323147D01*
X412493Y323123D01*
X412607Y323107D01*
X412719Y323099D01*
X412829Y323099D01*
X412936Y323108D01*
X413042Y323125D01*
X413146Y323151D01*
X413247Y323184D01*
X413347Y323227D01*
X413444Y323277D01*
X413868Y322598D01*
D02*
G37*
G36*
X363477Y323961D02*
X363574Y323914D01*
X363674Y323876D01*
X363776Y323846D01*
X363880Y323825D01*
X363986Y323813D01*
X364095Y323809D01*
X364206Y323815D01*
X364319Y323828D01*
X364435Y323851D01*
X363544Y322458D01*
X363516Y322572D01*
X363481Y322680D01*
X363439Y322783D01*
X363390Y322880D01*
X363334Y322971D01*
X363272Y323057D01*
X363202Y323137D01*
X363125Y323211D01*
X363042Y323280D01*
X362951Y323343D01*
X363382Y324017D01*
X363477Y323961D01*
D02*
G37*
G36*
X418224Y321291D02*
X418156Y321268D01*
X418096Y321227D01*
X418044Y321171D01*
X418000Y321099D01*
X417964Y321011D01*
X417936Y320907D01*
X417916Y320787D01*
X417904Y320652D01*
X417900Y320499D01*
X417100D01*
X417096Y320652D01*
X417084Y320787D01*
X417064Y320907D01*
X417036Y321011D01*
X417000Y321099D01*
X416956Y321171D01*
X416904Y321227D01*
X416844Y321268D01*
X416776Y321291D01*
X416700Y321299D01*
X418300D01*
X418224Y321291D01*
D02*
G37*
G36*
X357759D02*
X357691Y321268D01*
X357631Y321227D01*
X357579Y321171D01*
X357535Y321099D01*
X357499Y321011D01*
X357471Y320907D01*
X357451Y320787D01*
X357439Y320652D01*
X357435Y320499D01*
X356635D01*
X356631Y320652D01*
X356619Y320787D01*
X356599Y320907D01*
X356571Y321011D01*
X356535Y321099D01*
X356491Y321171D01*
X356439Y321227D01*
X356379Y321268D01*
X356311Y321291D01*
X356235Y321299D01*
X357835D01*
X357759Y321291D01*
D02*
G37*
G36*
X405828Y320841D02*
X405847Y320729D01*
X405874Y320621D01*
X405908Y320518D01*
X405950Y320419D01*
X405999Y320325D01*
X406057Y320236D01*
X406122Y320151D01*
X406194Y320071D01*
X406275Y319996D01*
X405751Y319392D01*
X405664Y319461D01*
X405575Y319521D01*
X405482Y319574D01*
X405385Y319618D01*
X405286Y319654D01*
X405182Y319682D01*
X405075Y319701D01*
X404965Y319712D01*
X404851Y319715D01*
X404733Y319709D01*
X405817Y320958D01*
X405828Y320841D01*
D02*
G37*
G36*
X345255Y314143D02*
X345180Y313991D01*
X345120Y313851D01*
X345075Y313723D01*
X345046Y313607D01*
X345032Y313503D01*
X345033Y313411D01*
X345050Y313332D01*
X345082Y313265D01*
X345129Y313210D01*
X345192Y313166D01*
X343780Y313909D01*
X343851Y313881D01*
X343923Y313874D01*
X343997Y313885D01*
X344071Y313916D01*
X344147Y313967D01*
X344224Y314037D01*
X344303Y314126D01*
X344382Y314235D01*
X344463Y314363D01*
X344545Y314511D01*
X345255Y314143D01*
D02*
G37*
G36*
X430537Y314363D02*
X430618Y314235D01*
X430697Y314126D01*
X430776Y314037D01*
X430853Y313967D01*
X430929Y313916D01*
X431003Y313885D01*
X431077Y313874D01*
X431149Y313881D01*
X431220Y313909D01*
X429808Y313166D01*
X429871Y313210D01*
X429918Y313265D01*
X429950Y313332D01*
X429967Y313411D01*
X429968Y313503D01*
X429954Y313607D01*
X429925Y313723D01*
X429880Y313851D01*
X429820Y313991D01*
X429744Y314143D01*
X430455Y314511D01*
X430537Y314363D01*
D02*
G37*
G36*
X412293Y309394D02*
X412305Y309257D01*
X412325Y309135D01*
X412353Y309030D01*
X412389Y308941D01*
X412433Y308867D01*
X412485Y308810D01*
X412545Y308769D01*
X412613Y308745D01*
X412689Y308736D01*
X411296Y308748D01*
X411332Y308756D01*
X411365Y308780D01*
X411394Y308820D01*
X411419Y308876D01*
X411440Y308948D01*
X411458Y309036D01*
X411471Y309140D01*
X411487Y309396D01*
X411489Y309548D01*
X412289D01*
X412293Y309394D01*
D02*
G37*
G36*
X409481Y309394D02*
X409493Y309256D01*
X409513Y309134D01*
X409541Y309028D01*
X409577Y308939D01*
X409621Y308866D01*
X409673Y308809D01*
X409733Y308768D01*
X409801Y308744D01*
X409877Y308736D01*
X408277D01*
X408353Y308744D01*
X408421Y308768D01*
X408481Y308809D01*
X408533Y308866D01*
X408577Y308939D01*
X408613Y309028D01*
X408641Y309134D01*
X408661Y309256D01*
X408673Y309394D01*
X408677Y309548D01*
X409477D01*
X409481Y309394D01*
D02*
G37*
G36*
X345255Y304143D02*
X345180Y303991D01*
X345120Y303851D01*
X345075Y303723D01*
X345046Y303607D01*
X345032Y303503D01*
X345033Y303412D01*
X345050Y303332D01*
X345082Y303265D01*
X345129Y303209D01*
X345192Y303166D01*
X343780Y303909D01*
X343851Y303882D01*
X343923Y303874D01*
X343997Y303885D01*
X344071Y303916D01*
X344147Y303967D01*
X344224Y304037D01*
X344303Y304126D01*
X344382Y304235D01*
X344463Y304363D01*
X344545Y304511D01*
X345255Y304143D01*
D02*
G37*
G36*
X430537Y304363D02*
X430618Y304235D01*
X430697Y304126D01*
X430776Y304037D01*
X430853Y303967D01*
X430929Y303916D01*
X431003Y303885D01*
X431077Y303874D01*
X431149Y303882D01*
X431220Y303909D01*
X429808Y303166D01*
X429871Y303209D01*
X429918Y303265D01*
X429950Y303332D01*
X429967Y303412D01*
X429968Y303503D01*
X429954Y303607D01*
X429925Y303723D01*
X429880Y303851D01*
X429820Y303991D01*
X429744Y304143D01*
X430455Y304511D01*
X430537Y304363D01*
D02*
G37*
G36*
X345255Y294143D02*
X345180Y293991D01*
X345120Y293851D01*
X345075Y293723D01*
X345046Y293607D01*
X345032Y293503D01*
X345033Y293411D01*
X345050Y293332D01*
X345082Y293265D01*
X345129Y293210D01*
X345192Y293166D01*
X343780Y293909D01*
X343851Y293882D01*
X343923Y293874D01*
X343997Y293885D01*
X344071Y293916D01*
X344147Y293967D01*
X344224Y294037D01*
X344303Y294126D01*
X344382Y294235D01*
X344463Y294363D01*
X344545Y294511D01*
X345255Y294143D01*
D02*
G37*
G36*
X430537Y294363D02*
X430618Y294235D01*
X430697Y294126D01*
X430776Y294037D01*
X430853Y293967D01*
X430929Y293916D01*
X431003Y293885D01*
X431077Y293874D01*
X431149Y293882D01*
X431220Y293909D01*
X429808Y293166D01*
X429871Y293210D01*
X429918Y293265D01*
X429950Y293332D01*
X429967Y293411D01*
X429968Y293503D01*
X429954Y293607D01*
X429925Y293723D01*
X429880Y293851D01*
X429820Y293991D01*
X429744Y294143D01*
X430455Y294511D01*
X430537Y294363D01*
D02*
G37*
G36*
X429682Y233889D02*
X429799Y233789D01*
X429909Y233707D01*
X430013Y233643D01*
X430110Y233596D01*
X430200Y233567D01*
X430284Y233556D01*
X430362Y233563D01*
X430432Y233588D01*
X430496Y233630D01*
X429274Y232596D01*
X429326Y232652D01*
X429359Y232714D01*
X429374Y232784D01*
X429369Y232862D01*
X429347Y232946D01*
X429306Y233039D01*
X429246Y233138D01*
X429167Y233245D01*
X429070Y233359D01*
X428954Y233480D01*
X429559Y234007D01*
X429682Y233889D01*
D02*
G37*
G36*
X346046Y223480D02*
X345930Y223359D01*
X345833Y223245D01*
X345755Y223138D01*
X345694Y223039D01*
X345653Y222947D01*
X345631Y222862D01*
X345626Y222784D01*
X345641Y222714D01*
X345674Y222652D01*
X345726Y222596D01*
X344504Y223630D01*
X344568Y223587D01*
X344638Y223563D01*
X344716Y223556D01*
X344799Y223567D01*
X344890Y223596D01*
X344987Y223642D01*
X345091Y223707D01*
X345201Y223789D01*
X345318Y223889D01*
X345442Y224007D01*
X346046Y223480D01*
D02*
G37*
G36*
X429682Y223889D02*
X429799Y223789D01*
X429909Y223707D01*
X430013Y223642D01*
X430110Y223596D01*
X430200Y223567D01*
X430284Y223556D01*
X430362Y223563D01*
X430432Y223587D01*
X430496Y223630D01*
X429274Y222596D01*
X429326Y222652D01*
X429359Y222714D01*
X429374Y222784D01*
X429369Y222862D01*
X429347Y222947D01*
X429306Y223039D01*
X429246Y223138D01*
X429167Y223245D01*
X429070Y223359D01*
X428954Y223480D01*
X429559Y224007D01*
X429682Y223889D01*
D02*
G37*
G36*
X346046Y213480D02*
X345930Y213359D01*
X345833Y213245D01*
X345755Y213138D01*
X345694Y213039D01*
X345653Y212947D01*
X345631Y212862D01*
X345626Y212784D01*
X345641Y212714D01*
X345674Y212652D01*
X345726Y212596D01*
X344504Y213630D01*
X344568Y213587D01*
X344638Y213563D01*
X344716Y213556D01*
X344799Y213567D01*
X344890Y213596D01*
X344987Y213643D01*
X345091Y213707D01*
X345201Y213789D01*
X345318Y213889D01*
X345442Y214007D01*
X346046Y213480D01*
D02*
G37*
G36*
X429682Y213889D02*
X429799Y213789D01*
X429909Y213707D01*
X430013Y213643D01*
X430110Y213596D01*
X430200Y213567D01*
X430284Y213556D01*
X430362Y213563D01*
X430432Y213587D01*
X430496Y213630D01*
X429274Y212596D01*
X429326Y212652D01*
X429359Y212714D01*
X429374Y212784D01*
X429369Y212862D01*
X429347Y212947D01*
X429306Y213039D01*
X429246Y213138D01*
X429167Y213245D01*
X429070Y213359D01*
X428954Y213480D01*
X429559Y214007D01*
X429682Y213889D01*
D02*
G37*
G36*
X346046Y203480D02*
X345930Y203359D01*
X345833Y203245D01*
X345755Y203138D01*
X345694Y203039D01*
X345653Y202946D01*
X345631Y202862D01*
X345626Y202784D01*
X345641Y202714D01*
X345674Y202652D01*
X345726Y202596D01*
X344504Y203630D01*
X344568Y203588D01*
X344638Y203563D01*
X344716Y203556D01*
X344799Y203567D01*
X344890Y203596D01*
X344987Y203643D01*
X345091Y203707D01*
X345201Y203789D01*
X345318Y203889D01*
X345442Y204007D01*
X346046Y203480D01*
D02*
G37*
G36*
X429682Y203889D02*
X429799Y203789D01*
X429909Y203707D01*
X430013Y203643D01*
X430110Y203596D01*
X430200Y203567D01*
X430284Y203556D01*
X430362Y203563D01*
X430432Y203588D01*
X430496Y203630D01*
X429274Y202596D01*
X429326Y202652D01*
X429359Y202714D01*
X429374Y202784D01*
X429369Y202862D01*
X429347Y202946D01*
X429306Y203039D01*
X429246Y203138D01*
X429167Y203245D01*
X429070Y203359D01*
X428954Y203480D01*
X429559Y204007D01*
X429682Y203889D01*
D02*
G37*
G36*
X346046Y193480D02*
X345930Y193359D01*
X345833Y193245D01*
X345755Y193138D01*
X345694Y193039D01*
X345653Y192947D01*
X345631Y192862D01*
X345626Y192784D01*
X345641Y192714D01*
X345674Y192652D01*
X345726Y192596D01*
X344504Y193630D01*
X344568Y193588D01*
X344638Y193563D01*
X344716Y193556D01*
X344799Y193567D01*
X344890Y193596D01*
X344987Y193642D01*
X345091Y193707D01*
X345201Y193789D01*
X345318Y193889D01*
X345442Y194007D01*
X346046Y193480D01*
D02*
G37*
G36*
X429682Y193889D02*
X429799Y193789D01*
X429909Y193707D01*
X430013Y193642D01*
X430110Y193596D01*
X430200Y193567D01*
X430284Y193556D01*
X430362Y193563D01*
X430432Y193588D01*
X430496Y193630D01*
X429274Y192596D01*
X429326Y192652D01*
X429359Y192714D01*
X429374Y192784D01*
X429369Y192862D01*
X429347Y192947D01*
X429306Y193039D01*
X429246Y193138D01*
X429167Y193245D01*
X429070Y193359D01*
X428954Y193480D01*
X429559Y194007D01*
X429682Y193889D01*
D02*
G37*
G36*
X346046Y183480D02*
X345930Y183359D01*
X345833Y183245D01*
X345755Y183138D01*
X345694Y183039D01*
X345653Y182947D01*
X345631Y182862D01*
X345626Y182784D01*
X345641Y182714D01*
X345674Y182652D01*
X345726Y182596D01*
X344504Y183630D01*
X344568Y183588D01*
X344638Y183563D01*
X344716Y183556D01*
X344799Y183567D01*
X344890Y183596D01*
X344987Y183642D01*
X345091Y183707D01*
X345201Y183789D01*
X345318Y183889D01*
X345442Y184007D01*
X346046Y183480D01*
D02*
G37*
G36*
X429682Y183889D02*
X429799Y183789D01*
X429909Y183707D01*
X430013Y183642D01*
X430110Y183596D01*
X430200Y183567D01*
X430284Y183556D01*
X430362Y183563D01*
X430432Y183588D01*
X430496Y183630D01*
X429274Y182596D01*
X429326Y182652D01*
X429359Y182714D01*
X429374Y182784D01*
X429369Y182862D01*
X429347Y182947D01*
X429306Y183039D01*
X429246Y183138D01*
X429167Y183245D01*
X429070Y183359D01*
X428954Y183480D01*
X429559Y184007D01*
X429682Y183889D01*
D02*
G37*
G36*
X346046Y173480D02*
X345930Y173359D01*
X345833Y173245D01*
X345755Y173138D01*
X345694Y173039D01*
X345653Y172947D01*
X345631Y172862D01*
X345626Y172784D01*
X345641Y172714D01*
X345674Y172652D01*
X345726Y172596D01*
X344504Y173630D01*
X344568Y173588D01*
X344638Y173563D01*
X344716Y173556D01*
X344799Y173567D01*
X344890Y173596D01*
X344987Y173643D01*
X345091Y173707D01*
X345201Y173789D01*
X345318Y173889D01*
X345442Y174007D01*
X346046Y173480D01*
D02*
G37*
G36*
X429682Y173889D02*
X429799Y173789D01*
X429909Y173707D01*
X430013Y173643D01*
X430110Y173596D01*
X430200Y173567D01*
X430284Y173556D01*
X430362Y173563D01*
X430432Y173588D01*
X430496Y173630D01*
X429274Y172596D01*
X429326Y172652D01*
X429359Y172714D01*
X429374Y172784D01*
X429369Y172862D01*
X429347Y172947D01*
X429306Y173039D01*
X429246Y173138D01*
X429167Y173245D01*
X429070Y173359D01*
X428954Y173480D01*
X429559Y174007D01*
X429682Y173889D01*
D02*
G37*
G36*
X346046Y163480D02*
X345930Y163359D01*
X345833Y163245D01*
X345755Y163138D01*
X345694Y163039D01*
X345653Y162946D01*
X345631Y162862D01*
X345626Y162784D01*
X345641Y162714D01*
X345674Y162652D01*
X345726Y162596D01*
X344504Y163630D01*
X344568Y163587D01*
X344638Y163563D01*
X344716Y163556D01*
X344799Y163567D01*
X344890Y163596D01*
X344987Y163643D01*
X345091Y163707D01*
X345201Y163789D01*
X345318Y163889D01*
X345442Y164007D01*
X346046Y163480D01*
D02*
G37*
G36*
X429682Y163889D02*
X429799Y163789D01*
X429909Y163707D01*
X430013Y163643D01*
X430110Y163596D01*
X430200Y163567D01*
X430284Y163556D01*
X430362Y163563D01*
X430432Y163587D01*
X430496Y163630D01*
X429274Y162596D01*
X429326Y162652D01*
X429359Y162714D01*
X429374Y162784D01*
X429369Y162862D01*
X429347Y162946D01*
X429306Y163039D01*
X429246Y163138D01*
X429167Y163245D01*
X429070Y163359D01*
X428954Y163480D01*
X429559Y164007D01*
X429682Y163889D01*
D02*
G37*
G36*
X346046Y153480D02*
X345930Y153359D01*
X345833Y153245D01*
X345755Y153138D01*
X345694Y153039D01*
X345653Y152946D01*
X345631Y152862D01*
X345626Y152784D01*
X345641Y152714D01*
X345674Y152652D01*
X345726Y152596D01*
X344504Y153630D01*
X344568Y153587D01*
X344638Y153563D01*
X344716Y153556D01*
X344799Y153567D01*
X344890Y153596D01*
X344987Y153642D01*
X345091Y153707D01*
X345201Y153789D01*
X345318Y153889D01*
X345442Y154007D01*
X346046Y153480D01*
D02*
G37*
G36*
X429682Y153889D02*
X429799Y153789D01*
X429909Y153707D01*
X430013Y153642D01*
X430110Y153596D01*
X430200Y153567D01*
X430284Y153556D01*
X430362Y153563D01*
X430432Y153587D01*
X430496Y153630D01*
X429274Y152596D01*
X429326Y152652D01*
X429359Y152714D01*
X429374Y152784D01*
X429369Y152862D01*
X429347Y152946D01*
X429306Y153039D01*
X429246Y153138D01*
X429167Y153245D01*
X429070Y153359D01*
X428954Y153480D01*
X429559Y154007D01*
X429682Y153889D01*
D02*
G37*
G36*
X346046Y143480D02*
X345930Y143359D01*
X345833Y143245D01*
X345755Y143138D01*
X345694Y143039D01*
X345653Y142947D01*
X345631Y142862D01*
X345626Y142784D01*
X345641Y142714D01*
X345674Y142652D01*
X345726Y142596D01*
X344504Y143630D01*
X344568Y143588D01*
X344638Y143563D01*
X344716Y143556D01*
X344799Y143567D01*
X344890Y143596D01*
X344987Y143642D01*
X345091Y143707D01*
X345201Y143789D01*
X345318Y143889D01*
X345442Y144007D01*
X346046Y143480D01*
D02*
G37*
G36*
X429682Y143889D02*
X429799Y143789D01*
X429909Y143707D01*
X430013Y143642D01*
X430110Y143596D01*
X430200Y143567D01*
X430284Y143556D01*
X430362Y143563D01*
X430432Y143588D01*
X430496Y143630D01*
X429274Y142596D01*
X429326Y142652D01*
X429359Y142714D01*
X429374Y142784D01*
X429369Y142862D01*
X429347Y142947D01*
X429306Y143039D01*
X429246Y143138D01*
X429167Y143245D01*
X429070Y143359D01*
X428954Y143480D01*
X429559Y144007D01*
X429682Y143889D01*
D02*
G37*
G36*
Y133889D02*
X429799Y133789D01*
X429909Y133707D01*
X430013Y133642D01*
X430110Y133596D01*
X430200Y133567D01*
X430284Y133556D01*
X430362Y133563D01*
X430432Y133588D01*
X430496Y133630D01*
X429274Y132596D01*
X429326Y132652D01*
X429359Y132714D01*
X429374Y132784D01*
X429369Y132862D01*
X429347Y132947D01*
X429306Y133039D01*
X429246Y133138D01*
X429167Y133245D01*
X429070Y133359D01*
X428954Y133480D01*
X429559Y134007D01*
X429682Y133889D01*
D02*
G37*
%LPC*%
G36*
X384683Y346351D02*
X383816D01*
X383014Y346018D01*
X382401Y345405D01*
X382068Y344603D01*
Y343736D01*
X382401Y342934D01*
X383014Y342320D01*
X383816Y341988D01*
X384683D01*
X385485Y342320D01*
X386099Y342934D01*
X386431Y343736D01*
Y344603D01*
X386099Y345405D01*
X385485Y346018D01*
X384683Y346351D01*
D02*
G37*
G36*
X384333Y337681D02*
X383465D01*
X382664Y337349D01*
X382050Y336736D01*
X381718Y335934D01*
Y335066D01*
X382050Y334264D01*
X382664Y333651D01*
X383465Y333319D01*
X384333D01*
X385135Y333651D01*
X385748Y334264D01*
X386080Y335066D01*
Y335934D01*
X385748Y336736D01*
X385135Y337349D01*
X384333Y337681D01*
D02*
G37*
%LPD*%
D15*
X419968Y372600D02*
D03*
X423432D02*
D03*
X365000Y383000D02*
D03*
X361535D02*
D03*
X409000Y307500D02*
D03*
X412465D02*
D03*
X362035D02*
D03*
X365500D02*
D03*
D16*
X350400Y351300D02*
D03*
Y347835D02*
D03*
D17*
X363878Y375965D02*
D03*
X365846D02*
D03*
X367815D02*
D03*
X369783D02*
D03*
X371752D02*
D03*
X373720D02*
D03*
X375689D02*
D03*
X377657D02*
D03*
X379626D02*
D03*
X381594D02*
D03*
X383563D02*
D03*
X385531D02*
D03*
X387500D02*
D03*
X389468D02*
D03*
X391437D02*
D03*
X393405D02*
D03*
X395374D02*
D03*
X397342D02*
D03*
X399311D02*
D03*
X401279D02*
D03*
X403248D02*
D03*
X405216D02*
D03*
X407185D02*
D03*
X409153D02*
D03*
X411122D02*
D03*
Y315035D02*
D03*
X409153D02*
D03*
X407185D02*
D03*
X405216D02*
D03*
X403248D02*
D03*
X401279D02*
D03*
X399311D02*
D03*
X397342D02*
D03*
X395374D02*
D03*
X393405D02*
D03*
X391437D02*
D03*
X389468D02*
D03*
X387500D02*
D03*
X385531D02*
D03*
X383563D02*
D03*
X381594D02*
D03*
X379626D02*
D03*
X377657D02*
D03*
X375689D02*
D03*
X373720D02*
D03*
X371752D02*
D03*
X369783D02*
D03*
X367815D02*
D03*
X365846D02*
D03*
X363878D02*
D03*
D18*
X417965Y369122D02*
D03*
Y367154D02*
D03*
Y365185D02*
D03*
Y363217D02*
D03*
Y361248D02*
D03*
Y359280D02*
D03*
Y357311D02*
D03*
Y355343D02*
D03*
Y353374D02*
D03*
Y351406D02*
D03*
Y349437D02*
D03*
Y347469D02*
D03*
Y345500D02*
D03*
Y343532D02*
D03*
Y341563D02*
D03*
Y339595D02*
D03*
Y337626D02*
D03*
Y335658D02*
D03*
Y333689D02*
D03*
Y331721D02*
D03*
Y329752D02*
D03*
Y327784D02*
D03*
Y325815D02*
D03*
Y323847D02*
D03*
Y321878D02*
D03*
X357035D02*
D03*
Y323847D02*
D03*
Y325815D02*
D03*
Y327784D02*
D03*
Y329752D02*
D03*
Y331721D02*
D03*
Y333689D02*
D03*
Y335658D02*
D03*
Y337626D02*
D03*
Y339595D02*
D03*
Y341563D02*
D03*
Y343532D02*
D03*
Y345500D02*
D03*
Y347469D02*
D03*
Y349437D02*
D03*
Y351406D02*
D03*
Y353374D02*
D03*
Y355343D02*
D03*
Y357311D02*
D03*
Y359280D02*
D03*
Y361248D02*
D03*
Y363217D02*
D03*
Y365185D02*
D03*
Y367154D02*
D03*
Y369122D02*
D03*
D26*
X360176Y351406D02*
G03*
X360875Y351815I-0J800D01*
G01*
X364336Y369654D02*
G03*
X364238Y370662I-666J444D01*
G01*
X406739Y319061D02*
G03*
X406701Y319096I-563J-569D01*
G01*
X427994Y372656D02*
G03*
X427496Y371053I4112J-2156D01*
G01*
X362695Y358164D02*
G03*
X362835Y358027I624J500D01*
G01*
X360622Y362701D02*
G03*
X360130Y362922I-683J-862D01*
G01*
X363345Y357635D02*
G03*
X364649Y357166I1387J1811D01*
G01*
X360422Y364795D02*
G03*
X360130Y364891I-483J-988D01*
G01*
X360802Y360552D02*
G03*
X360130Y360953I-863J-682D01*
G01*
X414646Y365544D02*
G03*
X414868Y365480I415J1019D01*
G01*
X357035Y301143D02*
G03*
X357207Y300648I800J0D01*
G01*
X357268Y387868D02*
G03*
X357035Y387304I567J-564D01*
G01*
X349104Y357936D02*
G03*
X350595Y355978I4847J2144D01*
G01*
X353504Y353849D02*
G03*
X353941Y353669I628J903D01*
G01*
X347422Y371530D02*
G03*
X347006Y372656I-4528J-1029D01*
G01*
X347140Y362378D02*
G03*
X347006Y362656I-4247J-1878D01*
G01*
X351352Y355360D02*
G03*
X351587Y355182I2405J2942D01*
G01*
X347464Y391318D02*
G03*
X347006Y392656I-4571J-818D01*
G01*
X347452Y381382D02*
G03*
X347006Y382656I-4559J-882D01*
G01*
X353170Y359908D02*
G03*
X353952Y359280I781J172D01*
G01*
X353049Y360461D02*
G03*
X353058Y360421I1082J196D01*
G01*
X353246Y357686D02*
G03*
X353757Y357502I511J616D01*
G01*
X351580Y360161D02*
G03*
X351592Y360102I2552J496D01*
G01*
X352301Y356521D02*
G03*
X352635Y356294I1456J1781D01*
G01*
X351705Y359586D02*
G03*
X352498Y358297I2246J494D01*
G01*
X350248Y359228D02*
G03*
X351544Y357139I3703J851D01*
G01*
X353598Y355759D02*
G03*
X353941Y355637I534J962D01*
G01*
X425939Y332718D02*
G03*
X424495Y334610I-5071J-2376D01*
G01*
X423523Y347691D02*
G03*
X424299Y348570I-2655J3124D01*
G01*
X411997Y346989D02*
G03*
X412280Y347381I-1697J1524D01*
G01*
X422554Y334290D02*
G03*
X422552Y334293I-1686J-1979D01*
G01*
X414870Y355048D02*
G03*
X414416Y354855I191J-1083D01*
G01*
X423421Y330834D02*
G03*
X422552Y332324I-2553J-491D01*
G01*
X353941Y335363D02*
G03*
X353046Y334454I191J-1083D01*
G01*
X414870Y351111D02*
G03*
X414106Y350574I191J-1083D01*
G01*
X421581Y337086D02*
G03*
X421059Y337332I-712J-838D01*
G01*
X422552Y348834D02*
G03*
X423311Y349925I-1684J1981D01*
G01*
X347006Y318344D02*
G03*
X347470Y319714I-4112J2156D01*
G01*
X360130Y332015D02*
G03*
X360216Y332034I-191J1083D01*
G01*
X414870Y323552D02*
G03*
X414519Y323426I191J-1083D01*
G01*
X347006Y308344D02*
G03*
X347484Y309804I-4112J2156D01*
G01*
X427902Y328530D02*
G03*
X427989Y328353I4205J1970D01*
G01*
X353941Y341268D02*
G03*
X353419Y341023I191J-1083D01*
G01*
X421581Y333149D02*
G03*
X421059Y333395I-712J-838D01*
G01*
X414307Y330329D02*
G03*
X414870Y330047I754J801D01*
G01*
X347006Y298344D02*
G03*
X347484Y299803I-4112J2156D01*
G01*
X360531Y325364D02*
G03*
X360130Y325520I-592J-927D01*
G01*
X411978Y350331D02*
G03*
X412089Y350461I-1678J1545D01*
G01*
X427992Y362652D02*
G03*
X427744Y362090I4115J-2152D01*
G01*
X424864Y331260D02*
G03*
X423520Y333470I-3996J-917D01*
G01*
X347006Y328344D02*
G03*
X347441Y329562I-4112J2156D01*
G01*
X421059Y343826D02*
G03*
X421441Y343970I-191J1083D01*
G01*
X414870Y357016D02*
G03*
X414657Y356956I191J-1083D01*
G01*
X426806Y365478D02*
G03*
X426852Y365688I-1046J341D01*
G01*
X427538Y299669D02*
G03*
X427989Y298353I4568J831D01*
G01*
X350505Y338546D02*
G03*
X348647Y335410I3627J-4267D01*
G01*
X421059Y347763D02*
G03*
X421581Y348008I-191J1083D01*
G01*
X414870Y353080D02*
G03*
X414347Y352833I191J-1083D01*
G01*
X421580Y335118D02*
G03*
X421059Y335363I-712J-838D01*
G01*
X414723Y328115D02*
G03*
X414870Y328078I338J1047D01*
G01*
X421059Y349732D02*
G03*
X421914Y350474I-191J1083D01*
G01*
X413375Y352007D02*
G03*
X413021Y351640I1686J-1979D01*
G01*
X360977Y322832D02*
G03*
X360130Y323552I-1038J-364D01*
G01*
X360239Y327464D02*
G03*
X360130Y327489I-300J-1058D01*
G01*
X427548Y309613D02*
G03*
X427989Y308353I4558J886D01*
G01*
X421059Y345795D02*
G03*
X421580Y346040I-191J1083D01*
G01*
X421951Y330536D02*
G03*
X421059Y331426I-1083J-193D01*
G01*
X427581Y319458D02*
G03*
X427989Y318353I4525J1042D01*
G01*
X421562Y339070D02*
G03*
X421059Y339300I-694J-854D01*
G01*
X353941D02*
G03*
X353420Y339055I191J-1083D01*
G01*
X351477Y337404D02*
G03*
X350091Y334974I2655J-3124D01*
G01*
X353941Y337332D02*
G03*
X353419Y337086I191J-1083D01*
G01*
X352448Y336261D02*
G03*
X351566Y334697I1684J-1981D01*
G01*
X410667Y364212D02*
G03*
X408723Y363621I-378J-2250D01*
G01*
X357035Y351406D02*
X360176D01*
X411122Y315035D02*
Y319749D01*
X409816Y321055D02*
X411122Y319749D01*
X408700Y324655D02*
X409816Y323540D01*
X408700Y324655D02*
Y325400D01*
X409816Y321055D02*
Y323540D01*
X364236Y370664D02*
X364238Y370662D01*
X362776Y371800D02*
X363100D01*
X363878Y371022D01*
X364467Y369600D02*
X364723D01*
X365022Y369301D02*
X365973D01*
X364766D02*
X365022D01*
X366055Y368268D01*
X364723Y369600D02*
X365022Y369301D01*
X366055Y368268D02*
X366690D01*
X364766Y369301D02*
X366149Y367918D01*
X364467Y369600D02*
X364766Y369301D01*
X364599D02*
X364766D01*
X366585Y368689D02*
Y368689D01*
Y368689D02*
X366585Y368689D01*
X365973Y369301D02*
X366585Y368689D01*
X364300Y369600D02*
X364599Y369301D01*
X366149Y367777D02*
Y367918D01*
Y367777D02*
X366378Y367548D01*
X364300Y369600D02*
X364467D01*
X366037Y315226D02*
Y318307D01*
X365846Y315035D02*
X366037Y315226D01*
Y318307D02*
X366769Y319039D01*
X367437D01*
X419216Y369217D02*
X419872D01*
X419216D02*
X419216D01*
X419927Y369271D02*
X420468Y369313D01*
X419216Y369217D02*
X419927Y369271D01*
X417965Y369122D02*
X419216Y369217D01*
X419927Y369271D02*
X419968Y369313D01*
X419872Y369217D02*
X419927Y369271D01*
X419968Y369313D02*
Y372600D01*
X365500Y307500D02*
X365673Y307673D01*
X365350Y307350D02*
X365500Y307500D01*
X411684Y306640D02*
X412465Y307500D01*
X404500Y367800D02*
X404619Y367681D01*
X405281D02*
X406881Y369281D01*
X404619Y367681D02*
X405281D01*
X406881Y369281D02*
X417805D01*
X417965Y369122D01*
X365673Y307673D02*
Y314862D01*
X365846Y315035D01*
X353137Y349437D02*
X357035D01*
X342500Y350500D02*
X344272D01*
X363878Y371022D02*
Y375965D01*
X362316Y381184D02*
Y382219D01*
Y381184D02*
X363878Y379622D01*
Y375965D02*
Y379622D01*
X351181Y348617D02*
X352316D01*
X353137Y349437D01*
X346937Y347835D02*
X350400D01*
X411889Y308076D02*
X412465Y307500D01*
X363878Y371022D02*
X364236Y370664D01*
X411122Y310727D02*
Y315035D01*
X344272Y350500D02*
X346937Y347835D01*
X411889Y308076D02*
Y309960D01*
X361535Y383000D02*
X362316Y382219D01*
X411122Y310727D02*
X411889Y309960D01*
X350400Y347835D02*
X351181Y348617D01*
X364300Y369600D02*
X364336Y369654D01*
X407534Y322595D02*
X407833Y322296D01*
Y320459D02*
Y322296D01*
Y320459D02*
X409153Y319139D01*
X412073Y322041D02*
X414519Y323426D01*
X412097Y322000D02*
Y322018D01*
X412073Y322041D02*
X412097Y322018D01*
X409153Y315035D02*
Y319139D01*
X404638Y320887D02*
X406701Y319096D01*
X406742Y319058D02*
X406994Y318806D01*
X406739Y319061D02*
X406742Y319058D01*
X420600Y395600D02*
X437000D01*
X419100Y385600D02*
X437000D01*
X416300Y376400D02*
X421200D01*
X422651Y373381D02*
X423432Y372600D01*
X422651Y373381D02*
Y374949D01*
X421200Y376400D02*
X422651Y374949D01*
X423432Y369540D02*
Y372600D01*
X418155Y367344D02*
X421237D01*
X423432Y369540D01*
X417965Y367154D02*
X418155Y367344D01*
X426852Y365688D02*
X427496Y371053D01*
X427994Y372656D02*
X432106Y380500D01*
X414700Y404800D02*
X414900D01*
X416500Y403200D02*
X422200D01*
X414900Y404800D02*
X416500Y403200D01*
X415500Y400200D02*
X421400D01*
X413900Y401800D02*
X415500Y400200D01*
X356983Y351353D02*
X357035Y351406D01*
X360875Y351815D02*
X362600Y354900D01*
X362835Y358027D02*
X363345Y357635D01*
X360124Y362923D02*
X360130Y362922D01*
X360802Y360552D02*
X362695Y358164D01*
X364649Y357166D02*
X367121Y357080D01*
X360622Y362701D02*
X364732Y359446D01*
X359539Y363026D02*
X360124Y362923D01*
X360422Y364795D02*
X364500Y362800D01*
X361569Y347469D02*
X364000Y349900D01*
X357035Y347469D02*
X361569D01*
X359539Y361057D02*
X360130Y360953D01*
X411100Y367000D02*
X414646Y365544D01*
X414868Y365480D02*
X415461Y365376D01*
X367900Y322500D02*
X368300D01*
X365819Y320419D02*
X367900Y322500D01*
X360531Y325364D02*
X364700Y322700D01*
X363878Y318878D02*
X365419Y320419D01*
X365819D01*
X363878Y315035D02*
Y318878D01*
X362035Y307500D02*
X362200Y307665D01*
Y309600D01*
X363878Y311278D01*
Y315035D01*
X357268Y387868D02*
X359700Y390300D01*
X357035Y301143D02*
Y321878D01*
X357207Y300648D02*
X359700Y297500D01*
X357035Y369122D02*
Y387304D01*
X359539Y364995D02*
X360130Y364891D01*
X357035Y361248D02*
X359539Y361057D01*
X357035Y363217D02*
X359539Y363026D01*
X357035Y365185D02*
X359539Y364995D01*
Y366963D02*
X364500Y366200D01*
X357035Y367154D02*
X359539Y366963D01*
X342500Y530500D02*
X383700Y489300D01*
X382100Y380317D02*
Y480900D01*
X342500Y520500D02*
X382100Y480900D01*
X342500Y510500D02*
X380500Y472500D01*
X383700Y376102D02*
Y489300D01*
X379626Y375965D02*
Y380105D01*
X380500Y380979D01*
Y472500D01*
X377500Y386000D02*
X378900Y384600D01*
X377657Y380400D02*
X378900Y381642D01*
X383563Y375965D02*
X383700Y376102D01*
X381594Y379811D02*
X382100Y380317D01*
X381594Y375965D02*
Y379811D01*
X378900Y381642D02*
Y384600D01*
X353952Y359280D02*
X357035D01*
X356845Y357502D02*
X357035Y357311D01*
X353757Y357502D02*
X356845D01*
X342500Y390500D02*
X342894D01*
Y400500D02*
X347006Y392656D01*
X354532Y353565D02*
X357035Y353374D01*
X351587Y355182D02*
X353504Y353849D01*
X350595Y355978D02*
X351352Y355360D01*
X347422Y371530D02*
X350248Y359228D01*
X342894Y370500D02*
X347006Y362656D01*
X352498Y358297D02*
X353246Y357686D01*
X353941Y353669D02*
X354532Y353565D01*
X352635Y356294D02*
X353598Y355759D01*
X347464Y391318D02*
X353049Y360461D01*
X351544Y357139D02*
X352301Y356521D01*
X353058Y360421D02*
X353170Y359908D01*
X342500Y370500D02*
X342894D01*
X354532Y355533D02*
X357035Y355343D01*
X347140Y362378D02*
X349104Y357936D01*
X353941Y355637D02*
X354532Y355533D01*
X342894Y380500D02*
X347006Y372656D01*
X342500Y400500D02*
X342894D01*
Y390500D02*
X347006Y382656D01*
X347452Y381382D02*
X351580Y360161D01*
X342500Y380500D02*
X342894D01*
X351592Y360102D02*
X351705Y359586D01*
X367531Y380199D02*
X367815Y379916D01*
Y375965D02*
Y379916D01*
X373720Y375965D02*
Y380799D01*
X367531Y380199D02*
Y435468D01*
X342500Y480500D02*
X371600Y451400D01*
X370000Y387006D02*
Y443000D01*
X342500Y460500D02*
X367531Y435468D01*
X369131Y386138D02*
X370000Y387006D01*
X370731Y385475D02*
X371600Y386344D01*
X369783Y375965D02*
Y380210D01*
X371600Y386344D02*
Y451400D01*
X372332Y382188D02*
X373720Y380799D01*
X370731Y381525D02*
Y385475D01*
X371752Y375965D02*
Y380504D01*
X372332Y382188D02*
Y384812D01*
X369131Y380862D02*
Y386138D01*
X374000Y386481D02*
Y459000D01*
X369131Y380862D02*
X369783Y380210D01*
X372332Y384812D02*
X374000Y386481D01*
X370731Y381525D02*
X371752Y380504D01*
X342500Y470500D02*
X370000Y443000D01*
X412280Y347381D02*
X414106Y350574D01*
X420468Y343722D02*
X421059Y343826D01*
X357035Y325815D02*
X359539Y325624D01*
X415461Y357120D02*
X417965Y357311D01*
X415461Y355152D02*
X417965Y355343D01*
X420468Y349628D02*
X421059Y349732D01*
X410289Y361962D02*
X415461Y361438D01*
X417965Y339595D02*
X420468Y339404D01*
X354532Y341372D02*
X357035Y341563D01*
X410300Y351876D02*
X414416Y354855D01*
X420468Y337435D02*
X421059Y337332D01*
X417965Y335658D02*
X420468Y335467D01*
X410300Y358600D02*
X415461Y359089D01*
X412000Y325500D02*
X415461Y325624D01*
X421581Y348008D02*
X422552Y348834D01*
X415461Y351215D02*
X417965Y351406D01*
X420468Y341372D02*
X432106Y340500D01*
X354532Y335467D02*
X357035Y335658D01*
X421580Y335118D02*
X422552Y334293D01*
X432106Y370500D02*
X432500D01*
X406900Y361900D02*
X408723Y363621D01*
X432106Y340500D02*
X432500D01*
X424299Y348570D02*
X432106Y360500D01*
X423523Y335435D02*
X424495Y334610D01*
X414870Y355048D02*
X415461Y355152D01*
X417500Y321687D02*
X417965Y321878D01*
X357035Y323847D02*
X359539Y323656D01*
X414870Y357016D02*
X415461Y357120D01*
X342500Y290500D02*
X342894D01*
X432106Y310500D02*
X432500D01*
X342894D02*
X347006Y318344D01*
X353941Y335363D02*
X354532Y335467D01*
X422552Y346865D02*
X423523Y347691D01*
X417965Y341563D02*
X420468Y341372D01*
X421581Y337086D02*
X423523Y335435D01*
X354532Y337435D02*
X357035Y337626D01*
X415461Y361438D02*
X417965Y361248D01*
X357035Y329752D02*
X359539Y329700D01*
X420468Y345690D02*
X421059Y345795D01*
X359539Y329700D02*
X364700D01*
X417965Y337626D02*
X420468Y337435D01*
X415461Y359089D02*
X417965Y359280D01*
X415461Y353183D02*
X417965Y353374D01*
X410300Y345100D02*
X411997Y346989D01*
X432106Y320500D02*
X432500D01*
X432106Y290500D02*
X432500D01*
X417965Y349437D02*
X420468Y349628D01*
X417965Y331721D02*
X420468Y331530D01*
X414870Y353080D02*
X415461Y353183D01*
X423311Y349925D02*
X427744Y362090D01*
X417500Y307500D02*
Y321687D01*
X415461Y325624D02*
X417965Y325815D01*
X342500Y320500D02*
X342894D01*
X359539Y325624D02*
X360130Y325520D01*
X342500Y310500D02*
X342894D01*
X432106Y300500D02*
X432500D01*
X432106Y350500D02*
X432500D01*
X412000Y332500D02*
X414307Y330329D01*
X415461Y327974D02*
X417965Y327784D01*
X412000Y329000D02*
X414723Y328115D01*
X420468Y333499D02*
X421059Y333395D01*
X415461Y365376D02*
X417965Y365185D01*
X360977Y322832D02*
X361900Y320200D01*
X342894Y290500D02*
X347006Y298344D01*
X359539Y331911D02*
X360130Y332015D01*
X414870Y351111D02*
X415461Y351215D01*
Y329942D02*
X415500Y329800D01*
X417965Y333689D02*
X420468Y333499D01*
X353941Y341268D02*
X354532Y341372D01*
X357035Y327784D02*
X359539Y327593D01*
X357035Y331721D02*
X359539Y331911D01*
X414870Y323552D02*
X415461Y323656D01*
X360216Y332034D02*
X364700Y333200D01*
X415461Y323656D02*
X417965Y323847D01*
X432106Y360500D02*
X432500D01*
X415461Y363407D02*
X417965Y363217D01*
Y347469D02*
X420468Y347659D01*
X432106Y380500D02*
X432500D01*
X432106Y330500D02*
X432500D01*
X417965Y343532D02*
X420468Y343722D01*
X417965Y345500D02*
X420468Y345690D01*
X347470Y319714D02*
X350091Y334974D01*
X353941Y339300D02*
X354532Y339404D01*
X357035Y339595D01*
X342500Y300500D02*
X342894D01*
X347006Y308344D01*
X353941Y337332D02*
X354532Y337435D01*
X421562Y339070D02*
X432106Y330500D01*
X427992Y362652D02*
X432106Y370500D01*
X409153Y447153D02*
X432500Y470500D01*
X373721Y221721D02*
Y315035D01*
X342500Y540500D02*
X385531Y497469D01*
X342894Y320500D02*
X347006Y328344D01*
X342500Y560500D02*
X389468Y513532D01*
X399311Y233689D02*
X432500Y200500D01*
X365846Y375965D02*
Y380154D01*
X427989Y308353D02*
X432106Y300500D01*
X391437Y201563D02*
X432500Y160500D01*
X405216Y375965D02*
Y463216D01*
X422554Y334290D02*
X423520Y333470D01*
X395374Y217626D02*
Y315035D01*
X389468Y375965D02*
Y513532D01*
X409077Y314959D02*
X409153Y315035D01*
X399311Y233689D02*
Y315035D01*
X427989Y318353D02*
X432106Y310500D01*
X395374Y217626D02*
X432500Y180500D01*
X371752Y229752D02*
Y315035D01*
X342500Y180500D02*
X375689Y213689D01*
X427989Y298353D02*
X432106Y290500D01*
X342500Y140500D02*
X383563Y181563D01*
X424864Y331260D02*
X427581Y319458D01*
X411122Y375965D02*
Y439122D01*
X410300Y348513D02*
X411978Y350331D01*
X342500Y200500D02*
X371752Y229752D01*
X387500Y375965D02*
Y505500D01*
X410300Y355238D02*
X414657Y356956D01*
X391437Y375965D02*
Y519437D01*
X375689Y213689D02*
Y315035D01*
X401280Y241720D02*
X432500Y210500D01*
X393406Y209594D02*
Y315035D01*
X403248Y375965D02*
Y471248D01*
X362556Y336100D02*
X362900D01*
X405217Y257783D02*
Y315035D01*
X342500Y190500D02*
X373721Y221721D01*
X381595Y189595D02*
Y315035D01*
X375595Y376059D02*
X375689Y375965D01*
X405217Y257783D02*
X432500Y230500D01*
X367815Y245815D02*
Y315035D01*
X420468Y347659D02*
X421059Y347763D01*
X403248Y471248D02*
X432500Y500500D01*
X421581Y333149D02*
X422552Y332324D01*
X409153Y375965D02*
Y447153D01*
X357035Y345500D02*
X363077D01*
X347441Y329562D02*
X348647Y335410D01*
X423421Y330834D02*
X427548Y309613D01*
X405216Y463216D02*
X432500Y490500D01*
X342500Y160500D02*
X379626Y197626D01*
X411122Y439122D02*
X432500Y460500D01*
X413375Y352007D02*
X414347Y352833D01*
X385531Y375965D02*
Y497469D01*
X403248Y249752D02*
X432500Y220500D01*
X375595Y376059D02*
Y383406D01*
X421441Y343970D02*
X432106Y350500D01*
X401280Y241720D02*
Y315035D01*
X401279Y375965D02*
Y479279D01*
X393406Y209594D02*
X432500Y170500D01*
X385531Y177469D02*
Y315035D01*
X401279Y479279D02*
X432500Y510500D01*
X397343Y225657D02*
X432500Y190500D01*
X421914Y350474D02*
X426806Y365478D01*
X420468Y331530D02*
X421059Y331426D01*
X363077Y345500D02*
X363577Y346000D01*
X385531Y177469D02*
X432500Y130500D01*
X342500Y550500D02*
X387500Y505500D01*
X363577Y346000D02*
X364000D01*
X383563Y181563D02*
Y315035D01*
X397343Y225657D02*
Y315035D01*
X403248Y249752D02*
Y315035D01*
X412089Y350461D02*
X413021Y351640D01*
X421951Y330536D02*
X427538Y299669D01*
X351717Y343635D02*
X351768Y343583D01*
X420468Y335467D02*
X421059Y335363D01*
X351768Y343583D02*
X356984D01*
X421580Y346040D02*
X422552Y346865D01*
X342500Y150500D02*
X381595Y189595D01*
X350505Y338546D02*
X353419Y341023D01*
X359539Y323656D02*
X360130Y323552D01*
X425939Y332718D02*
X427902Y328530D01*
X420468Y339404D02*
X421059Y339300D01*
X387500Y185500D02*
X432500Y140500D01*
X391437Y201563D02*
Y315035D01*
X395374Y503374D02*
X432500Y540500D01*
X364900Y386200D02*
X364950Y386150D01*
X389469Y193531D02*
X432500Y150500D01*
X397342Y375965D02*
Y495342D01*
X406994Y315226D02*
X407185Y315035D01*
X414870Y328078D02*
X415461Y327974D01*
X393405Y375965D02*
Y511405D01*
X395374Y375965D02*
Y503374D01*
X365000Y381000D02*
Y383000D01*
X391437Y519437D02*
X432500Y560500D01*
X350453Y351353D02*
X356983D01*
X377657Y375965D02*
Y380400D01*
X393405Y511405D02*
X432500Y550500D01*
X407185Y455185D02*
X432500Y480500D01*
X356984Y343583D02*
X357035Y343532D01*
X377658Y205658D02*
Y315035D01*
X379626Y197626D02*
Y315035D01*
X397342Y495342D02*
X432500Y530500D01*
X359539Y327593D02*
X360130Y327489D01*
X342500Y500500D02*
X377500Y465500D01*
X399311Y375965D02*
Y487311D01*
X350400Y351300D02*
X350453Y351353D01*
X365846Y372254D02*
Y375965D01*
X399311Y487311D02*
X432500Y520500D01*
X360239Y327464D02*
X364700Y326200D01*
X389469Y193531D02*
Y315035D01*
X414870Y330047D02*
X415461Y329942D01*
X342500Y170500D02*
X377658Y205658D01*
X369784Y237784D02*
Y315035D01*
X364950Y383050D02*
Y386150D01*
X387500Y185500D02*
Y315035D01*
X342500Y210500D02*
X369784Y237784D01*
X409000Y307500D02*
X409077Y307577D01*
X357035Y333689D02*
X357226Y333880D01*
X367400Y370700D02*
X367800D01*
X342500Y490500D02*
X374000Y459000D01*
X377500Y386000D02*
Y465500D01*
X357226Y333880D02*
X360336D01*
X362556Y336100D01*
X342500Y220500D02*
X367815Y245815D01*
X406994Y315226D02*
Y318806D01*
X364950Y383050D02*
X365000Y383000D01*
X410667Y364212D02*
X415461Y363407D01*
X365846Y372254D02*
X367400Y370700D01*
X365000Y381000D02*
X365846Y380154D01*
X407185Y375965D02*
Y455185D01*
X427989Y328353D02*
X432106Y320500D01*
X351477Y337404D02*
X352446Y338227D01*
X352448Y336261D02*
X353419Y337086D01*
X347484Y309804D02*
X351566Y334697D01*
X347484Y299803D02*
X353046Y334454D01*
X409077Y307577D02*
Y314959D01*
X352446Y338227D02*
X353420Y339055D01*
D27*
X423523Y335435D02*
D03*
D28*
X442500Y110500D02*
D03*
Y120500D02*
D03*
Y130500D02*
D03*
Y140500D02*
D03*
Y150500D02*
D03*
Y160500D02*
D03*
Y180500D02*
D03*
Y170500D02*
D03*
Y200500D02*
D03*
Y190500D02*
D03*
Y220500D02*
D03*
Y210500D02*
D03*
Y240500D02*
D03*
Y230500D02*
D03*
Y260500D02*
D03*
Y250500D02*
D03*
Y280500D02*
D03*
Y270500D02*
D03*
Y300500D02*
D03*
Y290500D02*
D03*
Y320500D02*
D03*
Y310500D02*
D03*
Y340500D02*
D03*
Y330500D02*
D03*
Y360500D02*
D03*
Y350500D02*
D03*
Y380500D02*
D03*
Y370500D02*
D03*
Y400500D02*
D03*
Y390500D02*
D03*
Y420500D02*
D03*
Y410500D02*
D03*
Y440500D02*
D03*
Y430500D02*
D03*
Y460500D02*
D03*
Y450500D02*
D03*
Y480500D02*
D03*
Y470500D02*
D03*
Y500500D02*
D03*
Y490500D02*
D03*
Y520500D02*
D03*
Y510500D02*
D03*
Y540500D02*
D03*
Y530500D02*
D03*
Y560500D02*
D03*
Y550500D02*
D03*
Y570500D02*
D03*
X432500Y240500D02*
D03*
Y260500D02*
D03*
Y250500D02*
D03*
Y280500D02*
D03*
Y270500D02*
D03*
Y300500D02*
D03*
Y290500D02*
D03*
Y320500D02*
D03*
Y310500D02*
D03*
Y340500D02*
D03*
Y330500D02*
D03*
Y350500D02*
D03*
X332500Y570500D02*
D03*
Y550500D02*
D03*
Y560500D02*
D03*
Y530500D02*
D03*
Y540500D02*
D03*
Y510500D02*
D03*
Y520500D02*
D03*
Y490500D02*
D03*
Y500500D02*
D03*
Y470500D02*
D03*
Y480500D02*
D03*
Y450500D02*
D03*
Y460500D02*
D03*
Y430500D02*
D03*
Y440500D02*
D03*
Y410500D02*
D03*
Y420500D02*
D03*
Y390500D02*
D03*
Y400500D02*
D03*
Y370500D02*
D03*
Y380500D02*
D03*
Y350500D02*
D03*
Y360500D02*
D03*
Y330500D02*
D03*
Y340500D02*
D03*
Y310500D02*
D03*
Y320500D02*
D03*
Y290500D02*
D03*
Y300500D02*
D03*
Y270500D02*
D03*
Y280500D02*
D03*
Y250500D02*
D03*
Y260500D02*
D03*
Y230500D02*
D03*
Y240500D02*
D03*
Y210500D02*
D03*
Y220500D02*
D03*
Y190500D02*
D03*
Y200500D02*
D03*
Y170500D02*
D03*
Y180500D02*
D03*
Y160500D02*
D03*
Y150500D02*
D03*
Y140500D02*
D03*
Y130500D02*
D03*
Y120500D02*
D03*
Y110500D02*
D03*
X342500D02*
D03*
Y120500D02*
D03*
Y130500D02*
D03*
Y140500D02*
D03*
Y150500D02*
D03*
Y160500D02*
D03*
Y180500D02*
D03*
Y170500D02*
D03*
Y200500D02*
D03*
Y190500D02*
D03*
Y220500D02*
D03*
Y210500D02*
D03*
Y240500D02*
D03*
Y230500D02*
D03*
Y260500D02*
D03*
Y250500D02*
D03*
Y280500D02*
D03*
Y270500D02*
D03*
Y300500D02*
D03*
Y290500D02*
D03*
Y320500D02*
D03*
Y310500D02*
D03*
Y340500D02*
D03*
Y330500D02*
D03*
Y360500D02*
D03*
Y350500D02*
D03*
Y380500D02*
D03*
Y370500D02*
D03*
Y400500D02*
D03*
Y390500D02*
D03*
Y420500D02*
D03*
Y410500D02*
D03*
Y440500D02*
D03*
Y430500D02*
D03*
Y460500D02*
D03*
Y450500D02*
D03*
Y480500D02*
D03*
Y470500D02*
D03*
Y500500D02*
D03*
Y490500D02*
D03*
Y520500D02*
D03*
Y510500D02*
D03*
Y540500D02*
D03*
Y530500D02*
D03*
Y560500D02*
D03*
Y550500D02*
D03*
Y570500D02*
D03*
X432500Y110500D02*
D03*
Y120500D02*
D03*
Y130500D02*
D03*
Y140500D02*
D03*
Y150500D02*
D03*
Y160500D02*
D03*
Y180500D02*
D03*
Y170500D02*
D03*
Y200500D02*
D03*
Y190500D02*
D03*
Y220500D02*
D03*
Y210500D02*
D03*
Y230500D02*
D03*
Y360500D02*
D03*
Y380500D02*
D03*
Y370500D02*
D03*
Y400500D02*
D03*
Y390500D02*
D03*
Y420500D02*
D03*
Y410500D02*
D03*
Y440500D02*
D03*
Y430500D02*
D03*
Y460500D02*
D03*
Y450500D02*
D03*
Y480500D02*
D03*
Y470500D02*
D03*
Y500500D02*
D03*
Y490500D02*
D03*
Y520500D02*
D03*
Y510500D02*
D03*
Y540500D02*
D03*
Y530500D02*
D03*
Y560500D02*
D03*
Y550500D02*
D03*
Y570500D02*
D03*
D29*
X442500Y580500D02*
D03*
X332500D02*
D03*
X342500D02*
D03*
X432500D02*
D03*
D30*
X375595Y383406D02*
D03*
D31*
X420000Y560000D02*
D03*
Y440000D02*
D03*
Y120000D02*
D03*
X400000Y560000D02*
D03*
X410000Y300000D02*
D03*
Y260000D02*
D03*
Y140000D02*
D03*
X400000Y120000D02*
D03*
X380000Y560000D02*
D03*
X390000Y540000D02*
D03*
X380000Y160000D02*
D03*
X390000Y140000D02*
D03*
X380000Y120000D02*
D03*
X360000Y560000D02*
D03*
X370000Y540000D02*
D03*
X360000Y280000D02*
D03*
X370000Y140000D02*
D03*
X360000Y120000D02*
D03*
X350000Y140000D02*
D03*
X437000Y385600D02*
D03*
Y395600D02*
D03*
X363700Y341900D02*
D03*
X404500Y367800D02*
D03*
X364300Y369600D02*
D03*
X412097Y322000D02*
D03*
X407534Y322595D02*
D03*
X404638Y320887D02*
D03*
X420600Y395600D02*
D03*
X419100Y385600D02*
D03*
X413900Y401800D02*
D03*
X414700Y404800D02*
D03*
X422200Y403200D02*
D03*
X421400Y400200D02*
D03*
X362600Y354900D02*
D03*
X367121Y357080D02*
D03*
X364732Y359446D02*
D03*
X368800Y353700D02*
D03*
X364500Y362800D02*
D03*
X364000Y349900D02*
D03*
X411100Y367000D02*
D03*
X368300Y322500D02*
D03*
X364700Y322700D02*
D03*
X359700Y297500D02*
D03*
Y390300D02*
D03*
X364500Y366200D02*
D03*
X361900Y320200D02*
D03*
X362900Y336100D02*
D03*
X364700Y326200D02*
D03*
Y329700D02*
D03*
Y333200D02*
D03*
X364900Y386200D02*
D03*
X383899Y335500D02*
D03*
X384250Y344169D02*
D03*
X368300Y361600D02*
D03*
X416300Y376400D02*
D03*
X406900Y361900D02*
D03*
X410300Y345100D02*
D03*
Y358600D02*
D03*
X410289Y361962D02*
D03*
X410300Y348513D02*
D03*
Y355238D02*
D03*
Y351876D02*
D03*
X367800Y370700D02*
D03*
X375595Y383406D02*
D03*
X351717Y343635D02*
D03*
X364000Y346000D02*
D03*
X412000Y329000D02*
D03*
X417500Y307500D02*
D03*
X412000Y332500D02*
D03*
Y325500D02*
D03*
M02*
