G04*
G04 #@! TF.GenerationSoftware,Altium Limited,Altium Designer,21.8.1 (53)*
G04*
G04 Layer_Color=65535*
%FSLAX25Y25*%
%MOIN*%
G70*
G04*
G04 #@! TF.SameCoordinates,5DCC281E-C3AB-4BB6-AEF3-D9D34D3A5336*
G04*
G04*
G04 #@! TF.FilePolarity,Positive*
G04*
G01*
G75*
%ADD10C,0.00394*%
%ADD11C,0.00984*%
%ADD12C,0.01200*%
%ADD13C,0.00591*%
%ADD14C,0.00787*%
%ADD15C,0.00500*%
%ADD16C,0.00600*%
%ADD17C,0.01000*%
D10*
X413453Y417098D02*
G03*
X413453Y417098I-197J0D01*
G01*
X197902Y417323D02*
G03*
X197902Y417323I-197J0D01*
G01*
X204025Y437753D02*
X207175D01*
X204025Y431847D02*
X207175D01*
D11*
X216091Y456063D02*
G03*
X216091Y456063I-492J0D01*
G01*
X431642Y455839D02*
G03*
X431642Y455839I-492J0D01*
G01*
D12*
X300130Y346118D02*
G03*
X300130Y346118I-1969J0D01*
G01*
X215484Y316590D02*
G03*
X215484Y322496I0J2953D01*
G01*
X302098D02*
G03*
X302098Y316590I0J-2953D01*
G01*
X517644Y322278D02*
G03*
X517644Y316372I0J-2953D01*
G01*
X431030D02*
G03*
X431030Y322278I0J2953D01*
G01*
X515675Y345900D02*
G03*
X515675Y345900I-1969J0D01*
G01*
D13*
X197784Y442521D02*
X199359D01*
X197784D02*
Y455907D01*
X199359Y455907D01*
X203296D02*
X204870Y455907D01*
Y442521D02*
Y455907D01*
X203296Y442521D02*
X204870D01*
X197784Y449214D02*
X204870D01*
X426371Y391406D02*
Y392981D01*
X412985Y391406D02*
X426371D01*
X412985D02*
Y392981D01*
Y396918D02*
Y398492D01*
X426371D01*
Y396918D02*
Y398492D01*
X419678Y391406D02*
Y398492D01*
X205457Y449150D02*
X212543D01*
X210968Y442457D02*
X212543D01*
Y455842D01*
X210968Y455842D02*
X212543Y455842D01*
X205457D02*
X207031Y455842D01*
X205457Y442457D02*
Y455842D01*
Y442457D02*
X207031D01*
X314744Y297181D02*
X320256D01*
X319500Y302181D02*
X320256D01*
Y292181D02*
Y302181D01*
X319500Y292181D02*
X320256D01*
X314744D02*
X315500D01*
X314744D02*
Y302181D01*
X315500D01*
X308244Y297059D02*
X313756D01*
X313000Y302059D02*
X313756D01*
Y292059D02*
Y302059D01*
X313000Y292059D02*
X313756D01*
X308244D02*
X309000D01*
X308244D02*
Y302059D01*
X309000D01*
X340500Y453764D02*
X341000Y453764D01*
Y462764D01*
X340500Y462764D02*
X341000Y462764D01*
X337000D02*
X337500Y462764D01*
X337000Y453764D02*
Y462764D01*
Y453764D02*
X337500Y453764D01*
X337000Y458264D02*
X341000D01*
X335500Y453764D02*
X336000Y453764D01*
Y462764D01*
X335500Y462764D02*
X336000Y462764D01*
X332000D02*
X332500Y462764D01*
X332000Y453764D02*
Y462764D01*
Y453764D02*
X332500Y453764D01*
X332000Y458264D02*
X336000D01*
X329000Y453764D02*
X329500Y453764D01*
Y462764D01*
X329000Y462764D02*
X329500Y462764D01*
X325500D02*
X326000Y462764D01*
X325500Y453764D02*
Y462764D01*
Y453764D02*
X326000Y453764D01*
X325500Y458264D02*
X329500D01*
X421957Y348500D02*
X429043D01*
X421957Y355193D02*
X423531D01*
X421957Y341807D02*
Y355193D01*
Y341807D02*
X423531D01*
X427468D02*
X429043D01*
Y355193D01*
X427468D02*
X429043D01*
X365957Y460850D02*
X373043D01*
X365957Y467543D02*
X367531D01*
X365957Y454157D02*
Y467543D01*
Y454157D02*
X367531Y454157D01*
X371468D02*
X373043Y454157D01*
Y467543D01*
X371468D02*
X373043D01*
X364457Y409150D02*
X371543D01*
X369969Y402457D02*
X371543D01*
Y415842D01*
X369969Y415842D02*
X371543Y415842D01*
X364457D02*
X366032Y415842D01*
X364457Y402457D02*
Y415842D01*
Y402457D02*
X366032D01*
X330500Y393457D02*
Y400543D01*
X323807Y393457D02*
Y395031D01*
Y393457D02*
X337193D01*
Y395031D01*
Y398969D02*
Y400543D01*
X323807D02*
X337193D01*
X323807Y398969D02*
Y400543D01*
X419850Y292957D02*
Y300043D01*
X426543Y298468D02*
Y300043D01*
X413158D02*
X426543D01*
X413158Y298468D02*
X413158Y300043D01*
X413158Y294531D02*
X413158Y292957D01*
X426543D01*
Y294531D01*
X400244Y296941D02*
X405756D01*
X405000Y301941D02*
X405756D01*
Y291941D02*
Y301941D01*
X405000Y291941D02*
X405756D01*
X400244D02*
X401000D01*
X400244D02*
Y301941D01*
X401000D01*
X406744Y296941D02*
X412256D01*
X411500Y301941D02*
X412256D01*
Y291941D02*
Y301941D01*
X411500Y291941D02*
X412256D01*
X406744D02*
X407500D01*
X406744D02*
Y301941D01*
X407500D01*
X327650Y292457D02*
Y299543D01*
X320957Y292457D02*
Y294032D01*
Y292457D02*
X334343D01*
X334343Y294032D01*
X334343Y299543D02*
X334343Y297969D01*
X320957Y299543D02*
X334343D01*
X320957Y297969D02*
Y299543D01*
X235614Y293406D02*
Y294161D01*
Y293406D02*
X245614D01*
X245614Y294161D01*
X245614Y298917D02*
X245614Y298161D01*
X235614Y298917D02*
X245614D01*
X235614Y298161D02*
Y298917D01*
X240614Y293406D02*
Y298917D01*
X256732Y298161D02*
Y298917D01*
X246732D02*
X256732D01*
X246732Y298161D02*
X246732Y298917D01*
X246732Y294161D02*
X246732Y293406D01*
X256732D01*
Y294161D01*
X251732Y293406D02*
Y298917D01*
X268996Y361480D02*
X268996Y360693D01*
X261122D02*
X268996D01*
X261122D02*
Y361480D01*
Y363843D02*
Y364630D01*
X268996D01*
X268996Y363843D02*
X268996Y364630D01*
X305461Y360693D02*
Y361480D01*
X297587Y360693D02*
X305461D01*
X297587D02*
Y361480D01*
Y363843D02*
Y364630D01*
X305461D01*
Y363843D02*
Y364630D01*
X296961Y360693D02*
Y361480D01*
X289087Y360693D02*
X296961D01*
X289087D02*
Y361480D01*
Y363843D02*
Y364630D01*
X296961D01*
Y363843D02*
Y364630D01*
X280587D02*
X280587Y363843D01*
X280587Y364630D02*
X288461D01*
Y363843D02*
Y364630D01*
Y360693D02*
Y361480D01*
X280587Y360693D02*
X288461D01*
X280587D02*
X280587Y361480D01*
X269622Y364630D02*
X269622Y363843D01*
X269622Y364630D02*
X277496D01*
Y363843D02*
Y364630D01*
Y360693D02*
Y361480D01*
X269622Y360693D02*
X277496D01*
X269622D02*
X269622Y361480D01*
X252622Y364630D02*
X252622Y363843D01*
X252622Y364630D02*
X260496D01*
Y363843D02*
Y364630D01*
Y360693D02*
Y361480D01*
X252622Y360693D02*
X260496D01*
X252622D02*
X252622Y361480D01*
X212122Y364630D02*
X212122Y363843D01*
X212122Y364630D02*
X219996D01*
Y363843D02*
Y364630D01*
Y360693D02*
Y361480D01*
X212122Y360693D02*
X219996D01*
X212122D02*
X212122Y361480D01*
X301512Y299866D02*
X302299Y299866D01*
Y291992D02*
Y299866D01*
X301512Y291992D02*
X302299D01*
X298362D02*
X299150D01*
X298362D02*
Y299866D01*
X299150Y299866D01*
X294972D02*
X295760Y299866D01*
Y291992D02*
Y299866D01*
X294972Y291992D02*
X295760D01*
X291823D02*
X292610D01*
X291823D02*
Y299866D01*
X292610Y299866D01*
X282323Y291992D02*
X283110D01*
X282323D02*
Y299866D01*
X283110D01*
X285472D02*
X286260D01*
Y291992D02*
Y299866D01*
X285472Y291992D02*
X286260D01*
X275972Y299866D02*
X276760Y299866D01*
Y291992D02*
Y299866D01*
X275972Y291992D02*
X276760D01*
X272823D02*
X273610D01*
X272823D02*
Y299866D01*
X273610Y299866D01*
X264823Y291992D02*
X265610D01*
X264823D02*
Y299866D01*
X265610D01*
X267972D02*
X268760D01*
Y291992D02*
Y299866D01*
X267972Y291992D02*
X268760D01*
X261972Y299866D02*
X262760Y299866D01*
Y291992D02*
Y299866D01*
X261972Y291992D02*
X262760D01*
X258823D02*
X259610D01*
X258823D02*
Y299866D01*
X259610Y299866D01*
X218972D02*
X219760Y299866D01*
Y291992D02*
Y299866D01*
X218972Y291992D02*
X219760D01*
X215823D02*
X216610D01*
X215823D02*
Y299866D01*
X216610Y299866D01*
X484437Y360531D02*
Y361319D01*
X476563Y360531D02*
X484437D01*
X476563D02*
Y361319D01*
Y363681D02*
Y364469D01*
X484437D01*
Y363681D02*
Y364469D01*
X468167Y364405D02*
X468167Y363618D01*
X468167Y364405D02*
X476041D01*
Y363618D02*
Y364405D01*
Y360469D02*
Y361256D01*
X468167Y360469D02*
X476041D01*
X468167D02*
X468167Y361256D01*
X277486Y368980D02*
X277486Y368193D01*
X269612D02*
X277486D01*
X269612D02*
Y368980D01*
Y371342D02*
Y372130D01*
X277486D01*
X277486Y371342D02*
X277486Y372130D01*
X197791Y385405D02*
Y386161D01*
Y385405D02*
X207791D01*
Y386161D01*
X207791Y390917D02*
X207791Y390161D01*
X197791Y390917D02*
X207791D01*
X197791D02*
X197791Y390161D01*
X202791Y385405D02*
Y390917D01*
X427673Y360469D02*
X427673Y361256D01*
X427673Y360469D02*
X435547D01*
Y361256D01*
Y363618D02*
Y364405D01*
X427673D02*
X435547D01*
X427673D02*
X427673Y363618D01*
X485173Y360469D02*
X485173Y361256D01*
X485173Y360469D02*
X493047D01*
Y361256D01*
Y363618D02*
Y364405D01*
X485173D02*
X493047D01*
X485173D02*
X485173Y363618D01*
X504012D02*
X504012Y364405D01*
X496138D02*
X504012D01*
X496138Y363618D02*
Y364405D01*
Y360469D02*
Y361256D01*
Y360469D02*
X504012D01*
X504012Y361256D02*
X504012Y360469D01*
X512512Y363618D02*
X512512Y364405D01*
X504638D02*
X512512D01*
X504638Y363618D02*
Y364405D01*
Y360469D02*
Y361256D01*
Y360469D02*
X512512D01*
X512512Y361256D02*
X512512Y360469D01*
X521012Y363618D02*
X521012Y364405D01*
X513138D02*
X521012D01*
X513138Y363618D02*
Y364405D01*
Y360469D02*
Y361256D01*
Y360469D02*
X521012D01*
X521012Y361256D02*
X521012Y360469D01*
X512150Y371905D02*
Y373480D01*
X525535D01*
X525535Y371905D01*
X525535Y366394D02*
X525535Y367969D01*
X512150Y366394D02*
X525535D01*
X512150D02*
Y367969D01*
X518843Y366394D02*
Y373480D01*
X517063Y299642D02*
X517850Y299642D01*
Y291768D02*
Y299642D01*
X517063Y291768D02*
X517850D01*
X513913D02*
X514701D01*
X513913D02*
Y299642D01*
X514701Y299642D01*
X451165Y293378D02*
Y294134D01*
Y293378D02*
X461165D01*
X461165Y294134D01*
X461165Y298890D02*
X461165Y298134D01*
X451165Y298890D02*
X461165D01*
X451165Y298134D02*
Y298890D01*
X456165Y293378D02*
Y298890D01*
X239850Y465906D02*
Y471417D01*
X234850Y470661D02*
Y471417D01*
X244850D01*
Y470661D02*
Y471417D01*
Y465906D02*
Y466661D01*
X234850Y465906D02*
X244850D01*
X234850D02*
Y466661D01*
X455350Y465906D02*
Y471417D01*
X450350Y470661D02*
Y471417D01*
X460350D01*
Y470661D02*
Y471417D01*
Y465906D02*
Y466661D01*
X450350Y465906D02*
X460350D01*
X450350D02*
Y466661D01*
X310748Y453661D02*
X317835D01*
X310748Y460354D02*
X312323D01*
X310748Y446969D02*
Y460354D01*
Y446969D02*
X312323D01*
X316260D02*
X317835D01*
Y460354D01*
X316260D02*
X317835D01*
X526457Y446000D02*
X533543D01*
X531968Y439307D02*
X533543D01*
Y452693D01*
X531968D02*
X533543D01*
X526457D02*
X528031D01*
X526457Y439307D02*
Y452693D01*
Y439307D02*
X528031D01*
X204291Y418618D02*
Y425705D01*
X197598Y418618D02*
Y420193D01*
Y418618D02*
X210984D01*
Y420193D01*
Y424130D02*
Y425705D01*
X197598D02*
X210984D01*
X197598Y424130D02*
Y425705D01*
X419632Y418400D02*
Y425486D01*
X412939Y418400D02*
Y419974D01*
Y418400D02*
X426325D01*
Y419974D01*
Y423911D02*
Y425486D01*
X412939D02*
X426325D01*
X412939Y423911D02*
Y425486D01*
X204291Y391618D02*
Y398705D01*
X210984Y397130D02*
Y398705D01*
X197598D02*
X210984D01*
X197598Y397130D02*
Y398705D01*
Y391618D02*
Y393193D01*
Y391618D02*
X210984D01*
Y393193D01*
X418342Y385181D02*
Y390693D01*
X413343Y389937D02*
Y390693D01*
X423343D01*
Y389937D02*
Y390693D01*
Y385181D02*
Y385937D01*
X413343Y385181D02*
X423343D01*
X413343D02*
Y385937D01*
X198622Y380693D02*
Y381480D01*
Y380693D02*
X206496Y380693D01*
Y381480D01*
Y383842D02*
Y384630D01*
X198622D02*
X206496D01*
X198622Y383842D02*
Y384630D01*
X414173Y380469D02*
Y381256D01*
Y380469D02*
X422047D01*
Y381256D01*
Y383618D02*
Y384405D01*
X414173D02*
X422047D01*
X414173Y383618D02*
Y384405D01*
X302291Y366618D02*
Y373705D01*
X295598Y366618D02*
Y368193D01*
Y366618D02*
X308984D01*
X308984Y368193D01*
X308984Y373705D02*
X308984Y372130D01*
X295598Y373705D02*
X308984D01*
X295598Y372130D02*
Y373705D01*
X522237Y408633D02*
X523024Y408633D01*
X522237Y400759D02*
Y408633D01*
Y400759D02*
X523024D01*
X525386D02*
X526174D01*
Y408633D01*
X525386Y408633D02*
X526174Y408633D01*
X493280Y371118D02*
X493280Y371905D01*
X485405D02*
X493280D01*
X485405Y371118D02*
Y371905D01*
Y367969D02*
Y368756D01*
Y367969D02*
X493280D01*
X493280Y368756D02*
X493280Y367969D01*
X473779Y371118D02*
X473779Y371905D01*
X465906D02*
X473779D01*
X465906Y371118D02*
Y371905D01*
Y367969D02*
Y368756D01*
Y367969D02*
X473779D01*
X473779Y368756D02*
X473779Y367969D01*
X447547Y371118D02*
X447547Y371905D01*
X439673D02*
X447547D01*
X439673Y371118D02*
Y371905D01*
Y367969D02*
Y368756D01*
Y367969D02*
X447547D01*
X447547Y368756D02*
X447547Y367969D01*
X522024Y373768D02*
X522811Y373768D01*
Y381642D01*
X522024D02*
X522811D01*
X518874D02*
X519661D01*
X518874Y373768D02*
Y381642D01*
Y373768D02*
X519661Y373768D01*
X521874Y457106D02*
X522661Y457106D01*
X521874Y449232D02*
Y457106D01*
Y449232D02*
X522661D01*
X525024D02*
X525811D01*
Y457106D01*
X525024Y457106D02*
X525811Y457106D01*
X483087Y466693D02*
X483087Y467480D01*
X483087Y466693D02*
X490961D01*
Y467480D01*
Y469842D02*
Y470630D01*
X483087D02*
X490961D01*
X483087D02*
X483087Y469842D01*
X463587Y466693D02*
X463587Y467480D01*
X463587Y466693D02*
X471461D01*
Y467480D01*
Y469842D02*
Y470630D01*
X463587D02*
X471461D01*
X463587D02*
X463587Y469842D01*
X442996Y469842D02*
Y470630D01*
X435122D02*
X442996D01*
X435122Y469842D02*
Y470630D01*
Y466693D02*
Y467480D01*
Y466693D02*
X442996D01*
Y467480D01*
X426681Y426063D02*
X427468Y426063D01*
Y433937D01*
X426681D02*
X427468D01*
X423531D02*
X424319D01*
X423531Y426063D02*
Y433937D01*
Y426063D02*
X424319Y426063D01*
X424419Y389902D02*
X425206Y389902D01*
X424419Y382028D02*
Y389902D01*
Y382028D02*
X425206D01*
X427568D02*
X428356D01*
Y389902D01*
X427568Y389902D02*
X428356Y389902D01*
X231996Y371342D02*
X231996Y372130D01*
X224122D02*
X231996D01*
X224122Y371342D02*
Y372130D01*
Y368193D02*
Y368980D01*
Y368193D02*
X231996D01*
X231996Y368980D02*
X231996Y368193D01*
X258228Y371342D02*
X258228Y372130D01*
X250354D02*
X258228D01*
X250354Y371342D02*
Y372130D01*
Y368193D02*
Y368980D01*
Y368193D02*
X258228D01*
X258228Y368980D02*
X258228Y368193D01*
X306472Y373957D02*
X307260D01*
Y381831D01*
X306472D02*
X307260D01*
X303323D02*
X304110D01*
X303323Y373957D02*
Y381831D01*
Y373957D02*
X304110D01*
X306823Y408866D02*
X307610Y408866D01*
X306823Y400992D02*
Y408866D01*
Y400992D02*
X307610D01*
X309972D02*
X310760D01*
Y408866D01*
X309972Y408866D02*
X310760Y408866D01*
X306323Y457331D02*
X307110Y457331D01*
X306323Y449457D02*
Y457331D01*
Y449457D02*
X307110D01*
X309472D02*
X310260D01*
Y457331D01*
X309472Y457331D02*
X310260Y457331D01*
X267854Y466693D02*
X267854Y467480D01*
X267854Y466693D02*
X275728D01*
Y467480D01*
Y469842D02*
Y470630D01*
X267854D02*
X275728D01*
X267854D02*
X267854Y469842D01*
X247854Y466693D02*
X247854Y467480D01*
X247854Y466693D02*
X255728D01*
Y467480D01*
Y469842D02*
Y470630D01*
X247854D02*
X255728D01*
X247854D02*
X247854Y469842D01*
X208868Y390126D02*
X209655D01*
X208868Y382252D02*
Y390126D01*
Y382252D02*
X209655D01*
X212017D02*
X212805D01*
Y390126D01*
X212017D02*
X212805D01*
X210996Y429343D02*
X210996Y430130D01*
X203122D02*
X210996D01*
X203122Y429343D02*
Y430130D01*
Y426193D02*
Y426980D01*
Y426193D02*
X210996D01*
X210996Y426980D02*
X210996Y426193D01*
X226728Y469842D02*
X226728Y470630D01*
X218854D02*
X226728D01*
X218854Y469842D02*
Y470630D01*
Y466693D02*
Y467480D01*
Y466693D02*
X226728D01*
X226728Y467480D02*
X226728Y466693D01*
X467283Y293280D02*
Y298791D01*
X472284Y293280D02*
Y294035D01*
X462284Y293280D02*
X472284D01*
X462284Y294035D02*
X462284Y293280D01*
X462284Y298035D02*
X462284Y298791D01*
X472284D01*
Y298035D02*
Y298791D01*
X507374Y299642D02*
X508161Y299642D01*
X507374Y291768D02*
Y299642D01*
Y291768D02*
X508161D01*
X510524D02*
X511311D01*
Y299642D01*
X510524Y299642D02*
X511311Y299642D01*
X501024Y291768D02*
X501811D01*
Y299642D01*
X501024D02*
X501811D01*
X497874D02*
X498661D01*
X497874Y291768D02*
Y299642D01*
Y291768D02*
X498661D01*
X488374Y299642D02*
X489161Y299642D01*
X488374Y291768D02*
Y299642D01*
Y291768D02*
X489161D01*
X491524D02*
X492311D01*
Y299642D01*
X491524Y299642D02*
X492311Y299642D01*
X483524Y291768D02*
X484311D01*
Y299642D01*
X483524D02*
X484311D01*
X480374D02*
X481161D01*
X480374Y291768D02*
Y299642D01*
Y291768D02*
X481161D01*
X474374Y299642D02*
X475161Y299642D01*
X474374Y291768D02*
Y299642D01*
Y291768D02*
X475161D01*
X477524D02*
X478311D01*
Y299642D01*
X477524Y299642D02*
X478311Y299642D01*
X431416Y299684D02*
X432204Y299684D01*
X431416Y291810D02*
Y299684D01*
Y291810D02*
X432204D01*
X434566D02*
X435353D01*
Y299684D01*
X434566Y299684D02*
X435353Y299684D01*
D14*
X413650Y412768D02*
Y415917D01*
X414437Y416705D01*
X427035Y416705D01*
Y400169D02*
Y416705D01*
X413650Y400169D02*
X427035D01*
X413650D02*
Y412768D01*
X352425Y402843D02*
X358921D01*
X351047Y402598D02*
Y423402D01*
X331953D02*
X351047D01*
X331953Y402598D02*
Y423402D01*
Y402598D02*
X351047D01*
X403256Y391850D02*
X408768Y391850D01*
X403256Y398150D02*
X408768D01*
X403256Y396378D02*
Y398150D01*
Y391850D02*
Y393622D01*
X408768Y391850D02*
X408768Y393622D01*
X408768Y396378D02*
Y398150D01*
X397744Y391850D02*
X403256D01*
X397744Y398150D02*
X403256D01*
X397744Y396378D02*
Y398150D01*
Y391850D02*
Y393622D01*
X403256Y391850D02*
Y393622D01*
Y396378D02*
Y398150D01*
X221799Y456653D02*
X297783D01*
Y380669D02*
Y456653D01*
X221799Y380669D02*
X297783D01*
X221799D02*
Y456653D01*
X421972Y309744D02*
X423744Y309744D01*
X426500D02*
X428272D01*
X426500Y304232D02*
X428272Y304232D01*
X421972Y304232D02*
X423744Y304232D01*
X421972Y304232D02*
X421972Y309744D01*
X428272Y304232D02*
X428272Y309744D01*
X421972Y315256D02*
X423744Y315256D01*
X426500Y315256D02*
X428272Y315256D01*
X426500Y309744D02*
X428272D01*
X421972D02*
X423744D01*
X421972D02*
X421972Y315256D01*
X428272Y309744D02*
X428272Y315256D01*
X333528Y311756D02*
X333528Y306244D01*
X327228D02*
Y311756D01*
Y306244D02*
X329000D01*
X331756D02*
X333528D01*
X331756Y311756D02*
X333528Y311756D01*
X327228D02*
X329000D01*
X333528Y300732D02*
Y306244D01*
X327228Y300732D02*
Y306244D01*
Y300732D02*
X329000Y300732D01*
X331756D02*
X333528D01*
X331756Y306244D02*
X333528D01*
X327228D02*
X329000Y306244D01*
X421658Y369677D02*
Y375681D01*
X401854Y368299D02*
X421146D01*
X401854Y355701D02*
Y368299D01*
Y355701D02*
X421146D01*
Y368299D01*
X354819Y466209D02*
X357181D01*
Y454791D02*
Y466209D01*
X354819Y454791D02*
X357181D01*
X354819D02*
Y466209D01*
X348716Y466405D02*
X353441D01*
X411256Y339350D02*
X416768D01*
X411256Y345650D02*
X416768D01*
X411256Y343878D02*
Y345650D01*
Y339350D02*
Y341122D01*
X416768Y339350D02*
Y341122D01*
Y343878D02*
Y345650D01*
X405744Y339350D02*
X411256D01*
X405744Y345650D02*
X411256D01*
X405744D02*
X405744Y343878D01*
X405744Y339350D02*
X405744Y341122D01*
X411256D02*
X411256Y339350D01*
Y343878D02*
X411256Y345650D01*
X381453Y402598D02*
X400547D01*
X381453D02*
Y423402D01*
X400547D01*
Y402598D02*
Y423402D01*
X401925Y402843D02*
X408421D01*
X421158Y325177D02*
Y331181D01*
X401354Y323799D02*
X420646D01*
X401354Y311201D02*
Y323799D01*
Y311201D02*
X420646D01*
Y323799D01*
X327157Y325177D02*
Y331181D01*
X307354Y323799D02*
X326646D01*
X307354Y311201D02*
Y323799D01*
Y311201D02*
X326646D01*
Y323799D01*
X198098Y400394D02*
Y412992D01*
Y400394D02*
X211484Y400394D01*
Y416929D01*
X198886Y416929D02*
X211484Y416929D01*
X198098Y416142D02*
X198886Y416929D01*
X198098Y412992D02*
Y416142D01*
X437350Y380445D02*
Y456429D01*
Y380445D02*
X513335D01*
Y456429D01*
X437350D02*
X513335D01*
D15*
X347590Y346431D02*
X350740D01*
X348991Y300961D02*
Y391861D01*
X321000Y438800D02*
X411900D01*
X366430Y437399D02*
Y440549D01*
X384058Y301012D02*
Y391912D01*
X382309Y346442D02*
X385459D01*
D16*
X356991Y295061D02*
X360091Y295061D01*
X338091Y397761D02*
X340991D01*
X360091Y386561D02*
Y397761D01*
X338091Y295061D02*
Y304361D01*
Y388561D02*
Y397761D01*
Y295061D02*
X340991D01*
X360091D02*
Y306361D01*
X356991Y397761D02*
X360091Y397761D01*
X315100Y446800D02*
Y449900D01*
X406500D02*
X417800D01*
X417800Y427900D02*
X417800Y430800D01*
X315100Y427900D02*
X324300D01*
X408500D02*
X417800D01*
X315100Y449900D02*
X326300D01*
X315100Y427900D02*
Y430800D01*
X417800Y446800D02*
X417800Y449900D01*
X372958Y295112D02*
X376058Y295112D01*
X372958Y386512D02*
Y397812D01*
X392058D02*
X394958Y397812D01*
Y295112D02*
Y304312D01*
Y397812D02*
X394958Y388512D01*
X372958Y295112D02*
Y306312D01*
X392058Y295112D02*
X394958D01*
X372958Y397812D02*
X376058Y397812D01*
D17*
X302098Y310685D02*
Y316590D01*
Y322496D02*
Y350055D01*
X215484D02*
X302098D01*
X215484Y322496D02*
Y350055D01*
Y310685D02*
Y316590D01*
Y310685D02*
X302098D01*
X431030Y310467D02*
X517644D01*
X431030D02*
Y316372D01*
Y322278D02*
Y349837D01*
X517644D01*
Y322278D02*
Y349837D01*
Y310467D02*
Y316372D01*
M02*
