G04*
G04 #@! TF.GenerationSoftware,Altium Limited,Altium Designer,21.8.1 (53)*
G04*
G04 Layer_Physical_Order=2*
G04 Layer_Color=36540*
%FSLAX25Y25*%
%MOIN*%
G70*
G04*
G04 #@! TF.SameCoordinates,5DCC281E-C3AB-4BB6-AEF3-D9D34D3A5336*
G04*
G04*
G04 #@! TF.FilePolarity,Positive*
G04*
G01*
G75*
%ADD15C,0.00500*%
%ADD67C,0.01575*%
G36*
X534772Y292079D02*
X513199D01*
X513114Y292543D01*
X513626Y292756D01*
X514018Y293147D01*
X514230Y293660D01*
Y294214D01*
X514018Y294726D01*
X513626Y295118D01*
X513114Y295331D01*
X512559D01*
X512047Y295118D01*
X511655Y294726D01*
X511443Y294214D01*
Y293660D01*
X511655Y293147D01*
X512047Y292756D01*
X512559Y292543D01*
X512474Y292079D01*
X506199D01*
X506114Y292543D01*
X506626Y292756D01*
X507018Y293147D01*
X507230Y293660D01*
Y294214D01*
X507018Y294726D01*
X506626Y295118D01*
X506114Y295331D01*
X505559D01*
X505047Y295118D01*
X504655Y294726D01*
X504443Y294214D01*
Y293660D01*
X504655Y293147D01*
X505047Y292756D01*
X505559Y292543D01*
X505474Y292079D01*
X487699D01*
X487614Y292543D01*
X488126Y292756D01*
X488518Y293147D01*
X488730Y293660D01*
Y294214D01*
X488518Y294726D01*
X488126Y295118D01*
X487614Y295331D01*
X487059D01*
X486547Y295118D01*
X486155Y294726D01*
X485943Y294214D01*
Y293660D01*
X486155Y293147D01*
X486547Y292756D01*
X487059Y292543D01*
X486974Y292079D01*
X431603D01*
X431293Y292579D01*
X431394Y292823D01*
Y293377D01*
X431181Y293889D01*
X430790Y294282D01*
X430277Y294494D01*
X429723D01*
X429211Y294282D01*
X428819Y293889D01*
X428606Y293377D01*
Y292823D01*
X428707Y292579D01*
X428397Y292079D01*
X239445D01*
X239111Y292579D01*
X239185Y292758D01*
Y293313D01*
X238973Y293825D01*
X238581Y294217D01*
X238069Y294429D01*
X237514D01*
X237002Y294217D01*
X236610Y293825D01*
X236398Y293313D01*
Y292758D01*
X236472Y292579D01*
X236138Y292079D01*
X222932D01*
X222598Y292579D01*
X222672Y292758D01*
Y293313D01*
X222460Y293825D01*
X222068Y294217D01*
X221556Y294429D01*
X221001D01*
X220489Y294217D01*
X220097Y293825D01*
X219885Y293313D01*
Y292758D01*
X219959Y292579D01*
X219625Y292079D01*
X198228D01*
Y331594D01*
X198711Y331819D01*
X199223Y331606D01*
X199777D01*
X200290Y331819D01*
X200681Y332210D01*
X200894Y332723D01*
Y333277D01*
X200681Y333789D01*
X200290Y334181D01*
X199777Y334394D01*
X199223D01*
X198711Y334181D01*
X198228Y334406D01*
Y344180D01*
X198728Y344512D01*
X198935Y344426D01*
X199489D01*
X200002Y344638D01*
X200394Y345030D01*
X200606Y345543D01*
Y346097D01*
X200394Y346609D01*
X200002Y347001D01*
X199489Y347214D01*
X198935D01*
X198728Y347128D01*
X198228Y347460D01*
Y471142D01*
X255129D01*
X255391Y470642D01*
X255255Y470315D01*
Y469760D01*
X255468Y469248D01*
X255859Y468856D01*
X256372Y468644D01*
X256926D01*
X257438Y468856D01*
X257831Y469248D01*
X258043Y469760D01*
Y470315D01*
X257907Y470642D01*
X258169Y471142D01*
X274844D01*
X275121Y470726D01*
X275090Y470651D01*
Y470097D01*
X275303Y469585D01*
X275695Y469193D01*
X276207Y468980D01*
X276761D01*
X277274Y469193D01*
X277666Y469585D01*
X277878Y470097D01*
Y470651D01*
X277847Y470726D01*
X278124Y471142D01*
X388053D01*
X388153Y470642D01*
X387944Y470556D01*
X387552Y470163D01*
X387340Y469651D01*
Y469097D01*
X387552Y468585D01*
X387944Y468193D01*
X388457Y467980D01*
X389011D01*
X389523Y468192D01*
X389862Y467833D01*
X389861Y467832D01*
X389819Y467790D01*
X389606Y467277D01*
Y466723D01*
X389819Y466211D01*
X390211Y465819D01*
X390326Y465771D01*
Y465229D01*
X390211Y465181D01*
X389819Y464789D01*
X389606Y464277D01*
Y463723D01*
X389819Y463210D01*
X390211Y462818D01*
X390723Y462606D01*
X391277D01*
X391790Y462818D01*
X392181Y463210D01*
X392394Y463723D01*
Y464277D01*
X392181Y464789D01*
X391790Y465181D01*
X391674Y465229D01*
Y465771D01*
X391790Y465819D01*
X392181Y466211D01*
X392394Y466723D01*
Y467277D01*
X392181Y467790D01*
X391790Y468182D01*
X391277Y468394D01*
X390723D01*
X390211Y468182D01*
X389872Y468541D01*
X389873Y468542D01*
X389915Y468585D01*
X390127Y469097D01*
Y469651D01*
X389915Y470163D01*
X389523Y470556D01*
X389315Y470642D01*
X389414Y471142D01*
X491664D01*
X491871Y470642D01*
X491718Y470490D01*
X491506Y469977D01*
Y469423D01*
X491718Y468911D01*
X492110Y468518D01*
X492623Y468306D01*
X493177D01*
X493689Y468518D01*
X494081Y468911D01*
X494294Y469423D01*
Y469977D01*
X494081Y470490D01*
X493929Y470642D01*
X494136Y471142D01*
X534772D01*
Y292079D01*
D02*
G37*
%LPC*%
G36*
X461777Y470394D02*
X461223D01*
X460710Y470182D01*
X460319Y469790D01*
X460106Y469277D01*
Y468723D01*
X460319Y468211D01*
X460710Y467818D01*
X461223Y467606D01*
X461777D01*
X462289Y467818D01*
X462681Y468211D01*
X462894Y468723D01*
Y469277D01*
X462681Y469790D01*
X462289Y470182D01*
X461777Y470394D01*
D02*
G37*
G36*
X351011Y470369D02*
X350457D01*
X349945Y470157D01*
X349553Y469765D01*
X349341Y469253D01*
Y468698D01*
X349553Y468186D01*
X349945Y467794D01*
X350457Y467582D01*
X351011D01*
X351524Y467794D01*
X351916Y468186D01*
X352128Y468698D01*
Y469253D01*
X351916Y469765D01*
X351524Y470157D01*
X351011Y470369D01*
D02*
G37*
G36*
X246562Y470045D02*
X246007D01*
X245495Y469833D01*
X245103Y469441D01*
X244891Y468929D01*
Y468374D01*
X245103Y467862D01*
X245495Y467470D01*
X246007Y467258D01*
X246562D01*
X247074Y467470D01*
X247466Y467862D01*
X247678Y468374D01*
Y468929D01*
X247466Y469441D01*
X247074Y469833D01*
X246562Y470045D01*
D02*
G37*
G36*
X286777Y467394D02*
X286223D01*
X285711Y467181D01*
X285318Y466789D01*
X285106Y466277D01*
Y465723D01*
X285318Y465210D01*
X285711Y464818D01*
X286223Y464606D01*
X286777D01*
X287290Y464818D01*
X287682Y465210D01*
X287894Y465723D01*
Y466277D01*
X287682Y466789D01*
X287290Y467181D01*
X286777Y467394D01*
D02*
G37*
G36*
X280777D02*
X280223D01*
X279711Y467181D01*
X279318Y466789D01*
X279106Y466277D01*
Y465723D01*
X279318Y465210D01*
X279711Y464818D01*
X280223Y464606D01*
X280777D01*
X281290Y464818D01*
X281681Y465210D01*
X281894Y465723D01*
Y466277D01*
X281681Y466789D01*
X281290Y467181D01*
X280777Y467394D01*
D02*
G37*
G36*
X221569Y467055D02*
X221014D01*
X220502Y466843D01*
X220110Y466451D01*
X219898Y465939D01*
Y465384D01*
X220110Y464872D01*
X220502Y464480D01*
X221014Y464268D01*
X221569D01*
X222081Y464480D01*
X222473Y464872D01*
X222685Y465384D01*
Y465939D01*
X222473Y466451D01*
X222081Y466843D01*
X221569Y467055D01*
D02*
G37*
G36*
X509979Y468997D02*
X509425D01*
X508912Y468785D01*
X508520Y468392D01*
X508308Y467880D01*
Y467495D01*
X508231Y467272D01*
X507888Y467033D01*
X507593D01*
X507081Y466821D01*
X506689Y466429D01*
X506477Y465916D01*
Y465362D01*
X506689Y464850D01*
X507081Y464458D01*
X507593Y464245D01*
X508148D01*
X508660Y464458D01*
X509052Y464850D01*
X509264Y465362D01*
Y465747D01*
X509342Y465970D01*
X509684Y466209D01*
X509979D01*
X510491Y466421D01*
X510883Y466814D01*
X511096Y467326D01*
Y467880D01*
X510883Y468392D01*
X510491Y468785D01*
X509979Y468997D01*
D02*
G37*
G36*
X437667Y465148D02*
X437113D01*
X436600Y464936D01*
X436208Y464544D01*
X435996Y464032D01*
Y463478D01*
X436208Y462965D01*
X436600Y462573D01*
X437113Y462361D01*
X437667D01*
X438179Y462573D01*
X438571Y462965D01*
X438783Y463478D01*
Y464032D01*
X438571Y464544D01*
X438179Y464936D01*
X437667Y465148D01*
D02*
G37*
G36*
X395277Y463969D02*
X394723D01*
X394211Y463756D01*
X393818Y463364D01*
X393606Y462852D01*
Y462298D01*
X393818Y461785D01*
X394211Y461393D01*
X394565Y461247D01*
X394740Y461099D01*
X394830Y460681D01*
X394723Y460423D01*
Y459869D01*
X394936Y459356D01*
X395328Y458964D01*
X395840Y458752D01*
X396394D01*
X396907Y458964D01*
X397299Y459356D01*
X397511Y459869D01*
Y460423D01*
X397299Y460935D01*
X396907Y461327D01*
X396553Y461474D01*
X396377Y461622D01*
X396287Y462040D01*
X396394Y462298D01*
Y462852D01*
X396182Y463364D01*
X395790Y463756D01*
X395277Y463969D01*
D02*
G37*
G36*
X529435Y469683D02*
X527982D01*
X526578Y469306D01*
X525318Y468579D01*
X524291Y467552D01*
X523564Y466293D01*
X523187Y464888D01*
Y463435D01*
X523564Y462030D01*
X524291Y460771D01*
X525318Y459743D01*
X526578Y459016D01*
X527982Y458640D01*
X529435D01*
X530840Y459016D01*
X532099Y459743D01*
X533127Y460771D01*
X533854Y462030D01*
X534230Y463435D01*
Y464888D01*
X533854Y466293D01*
X533127Y467552D01*
X532099Y468579D01*
X530840Y469306D01*
X529435Y469683D01*
D02*
G37*
G36*
X205018D02*
X203565D01*
X202160Y469306D01*
X200901Y468579D01*
X199873Y467552D01*
X199146Y466293D01*
X198770Y464888D01*
Y463435D01*
X199146Y462030D01*
X199873Y460771D01*
X200901Y459743D01*
X202160Y459016D01*
X203565Y458640D01*
X205018D01*
X206422Y459016D01*
X207681Y459743D01*
X208710Y460771D01*
X209436Y462030D01*
X209813Y463435D01*
Y464888D01*
X209436Y466293D01*
X208710Y467552D01*
X207681Y468579D01*
X206422Y469306D01*
X205018Y469683D01*
D02*
G37*
G36*
X297400Y461255D02*
X296845D01*
X296333Y461043D01*
X295941Y460651D01*
X295729Y460139D01*
Y459584D01*
X295941Y459072D01*
X296333Y458680D01*
X296845Y458468D01*
X297400D01*
X297912Y458680D01*
X298304Y459072D01*
X298516Y459584D01*
X299014Y459580D01*
Y459552D01*
X299226Y459040D01*
X299619Y458648D01*
X300131Y458436D01*
X300685D01*
X301198Y458648D01*
X301589Y459040D01*
X301802Y459552D01*
Y460107D01*
X301589Y460619D01*
X301198Y461011D01*
X300685Y461223D01*
X300131D01*
X299619Y461011D01*
X299226Y460619D01*
X299014Y460107D01*
X298516Y460112D01*
Y460139D01*
X298304Y460651D01*
X297912Y461043D01*
X297400Y461255D01*
D02*
G37*
G36*
X218777Y458394D02*
X218223D01*
X217710Y458181D01*
X217319Y457790D01*
X217271Y457674D01*
X216729D01*
X216682Y457790D01*
X216289Y458181D01*
X215777Y458394D01*
X215223D01*
X214710Y458181D01*
X214318Y457790D01*
X214106Y457277D01*
Y456723D01*
X214318Y456211D01*
X214710Y455819D01*
X215223Y455606D01*
X215777D01*
X216289Y455819D01*
X216682Y456211D01*
X216729Y456326D01*
X217271D01*
X217319Y456211D01*
X217710Y455819D01*
X218223Y455606D01*
X218777D01*
X219289Y455819D01*
X219682Y456211D01*
X219894Y456723D01*
Y457277D01*
X219682Y457790D01*
X219289Y458181D01*
X218777Y458394D01*
D02*
G37*
G36*
X309200Y459883D02*
X308646D01*
X308133Y459671D01*
X307741Y459279D01*
X307529Y458767D01*
Y458213D01*
X307741Y457700D01*
X308133Y457308D01*
X308646Y457096D01*
X309200D01*
X309712Y457308D01*
X310104Y457700D01*
X310316Y458213D01*
Y458767D01*
X310104Y459279D01*
X309712Y459671D01*
X309200Y459883D01*
D02*
G37*
G36*
X430805Y458722D02*
X430250D01*
X429738Y458510D01*
X429346Y458118D01*
X429134Y457606D01*
Y457052D01*
X429346Y456539D01*
X429738Y456147D01*
X430250Y455935D01*
X430805D01*
X431317Y456147D01*
X431709Y456539D01*
X431921Y457052D01*
Y457606D01*
X431709Y458118D01*
X431317Y458510D01*
X430805Y458722D01*
D02*
G37*
G36*
X262232Y457453D02*
X261678D01*
X261166Y457241D01*
X260774Y456849D01*
X260561Y456337D01*
Y456010D01*
X260061Y455910D01*
X259954Y456170D01*
X259562Y456562D01*
X259050Y456774D01*
X258495D01*
X257983Y456562D01*
X257591Y456170D01*
X257379Y455658D01*
Y455103D01*
X257591Y454591D01*
X257983Y454199D01*
X258401Y454026D01*
X258498Y453980D01*
X258678Y453487D01*
X258606Y453315D01*
Y452760D01*
X258819Y452248D01*
X259210Y451856D01*
X259723Y451644D01*
X260277D01*
X260789Y451856D01*
X261181Y452248D01*
X261394Y452760D01*
Y453315D01*
X261181Y453827D01*
X260789Y454219D01*
X260371Y454392D01*
X260275Y454438D01*
X260095Y454931D01*
X260166Y455103D01*
Y455431D01*
X260666Y455530D01*
X260774Y455270D01*
X261166Y454878D01*
X261678Y454666D01*
X261726D01*
X262106Y454277D01*
Y453723D01*
X262318Y453210D01*
X262710Y452818D01*
X263223Y452606D01*
X263777D01*
X264289Y452818D01*
X264682Y453210D01*
X264833Y453576D01*
X265095Y453649D01*
X265308Y453669D01*
X265368Y453661D01*
X265710Y453319D01*
X266223Y453106D01*
X266777D01*
X267289Y453319D01*
X267565Y453594D01*
X268035Y453536D01*
X268119Y453495D01*
X268239Y453205D01*
X268632Y452813D01*
X269144Y452601D01*
X269698D01*
X270211Y452813D01*
X270602Y453205D01*
X270815Y453717D01*
Y454272D01*
X270602Y454784D01*
X270211Y455176D01*
X269698Y455388D01*
X269144D01*
X268632Y455176D01*
X268356Y454900D01*
X267886Y454958D01*
X267802Y454999D01*
X267682Y455290D01*
X267289Y455682D01*
X266777Y455894D01*
X266223D01*
X265710Y455682D01*
X265318Y455290D01*
X265167Y454924D01*
X264905Y454851D01*
X264692Y454831D01*
X264632Y454839D01*
X264289Y455182D01*
X263777Y455394D01*
X263729D01*
X263349Y455783D01*
Y456337D01*
X263137Y456849D01*
X262745Y457241D01*
X262232Y457453D01*
D02*
G37*
G36*
X201277Y458394D02*
X200723D01*
X200210Y458181D01*
X199819Y457790D01*
X199606Y457277D01*
Y456723D01*
X199819Y456211D01*
X200210Y455819D01*
X200723Y455606D01*
X201277D01*
X201789Y455819D01*
X202182Y456211D01*
X202394Y456723D01*
Y457277D01*
X202182Y457790D01*
X201789Y458181D01*
X201277Y458394D01*
D02*
G37*
G36*
X482557Y456894D02*
X482003D01*
X481491Y456681D01*
X481099Y456289D01*
X480886Y455777D01*
Y455223D01*
X480538Y454853D01*
X480072D01*
X479856Y455012D01*
X479657Y455259D01*
Y455713D01*
X479445Y456225D01*
X479053Y456617D01*
X478541Y456829D01*
X477986D01*
X477474Y456617D01*
X477082Y456225D01*
X477042Y456127D01*
X476455Y456016D01*
X476290Y456181D01*
X475777Y456394D01*
X475223D01*
X474711Y456181D01*
X474319Y455790D01*
X474106Y455277D01*
Y454723D01*
X474319Y454211D01*
X474711Y453819D01*
X475223Y453606D01*
X475777D01*
X476290Y453819D01*
X476682Y454211D01*
X476722Y454308D01*
X477309Y454419D01*
X477474Y454254D01*
X477986Y454042D01*
X478453D01*
X478669Y453883D01*
X478867Y453636D01*
Y453182D01*
X479080Y452670D01*
X479472Y452278D01*
X479984Y452066D01*
X480538D01*
X481051Y452278D01*
X481443Y452670D01*
X481655Y453182D01*
Y453737D01*
X482003Y454106D01*
X482557D01*
X483070Y454318D01*
X483462Y454710D01*
X483674Y455223D01*
Y455777D01*
X483462Y456289D01*
X483070Y456681D01*
X482557Y456894D01*
D02*
G37*
G36*
X233454Y457243D02*
X232900D01*
X232387Y457031D01*
X231995Y456639D01*
X231783Y456127D01*
Y455572D01*
X231995Y455060D01*
X232387Y454668D01*
X232900Y454456D01*
X233454D01*
X233966Y454668D01*
X234358Y455060D01*
X234571Y455572D01*
Y456127D01*
X234358Y456639D01*
X233966Y457031D01*
X233454Y457243D01*
D02*
G37*
G36*
X470077Y457194D02*
X469523D01*
X469010Y456982D01*
X468618Y456590D01*
X468406Y456077D01*
Y455523D01*
X468618Y455011D01*
X469010Y454619D01*
X469523Y454406D01*
X470077D01*
X470589Y454619D01*
X470982Y455011D01*
X471194Y455523D01*
Y456077D01*
X470982Y456590D01*
X470589Y456982D01*
X470077Y457194D01*
D02*
G37*
G36*
X249308Y456932D02*
X248754D01*
X248242Y456720D01*
X247850Y456328D01*
X247638Y455816D01*
Y455261D01*
X247850Y454749D01*
X247938Y454661D01*
X247654Y454238D01*
X247277Y454394D01*
X246723D01*
X246211Y454181D01*
X245818Y453790D01*
X245606Y453277D01*
Y452862D01*
X245223Y452738D01*
X245106Y452730D01*
X244737Y453099D01*
X244516Y453191D01*
X244257Y453540D01*
X244292Y453784D01*
X244427Y454109D01*
Y454664D01*
X244215Y455176D01*
X243823Y455568D01*
X243310Y455780D01*
X242756D01*
X242244Y455568D01*
X241852Y455176D01*
X241640Y454664D01*
Y454359D01*
X241590Y454086D01*
X241186Y453897D01*
X241001D01*
X240488Y453685D01*
X240096Y453293D01*
X239884Y452780D01*
Y452226D01*
X240096Y451714D01*
X240488Y451322D01*
X241001Y451109D01*
X241555D01*
X242067Y451322D01*
X242122Y451376D01*
X242712Y451259D01*
X242766Y451128D01*
X243158Y450736D01*
X243670Y450524D01*
X244225D01*
X244737Y450736D01*
X245129Y451128D01*
X245341Y451641D01*
Y452056D01*
X245725Y452180D01*
X245841Y452188D01*
X246211Y451819D01*
X246723Y451606D01*
X247277D01*
X247790Y451819D01*
X248182Y452211D01*
X248394Y452723D01*
Y453277D01*
X248182Y453790D01*
X248094Y453877D01*
X248377Y454301D01*
X248754Y454145D01*
X249308D01*
X249821Y454357D01*
X250213Y454749D01*
X250425Y455261D01*
Y455816D01*
X250213Y456328D01*
X249821Y456720D01*
X249308Y456932D01*
D02*
G37*
G36*
X447114Y456831D02*
X446559D01*
X446047Y456618D01*
X445655Y456226D01*
X445443Y455714D01*
Y455160D01*
X445655Y454648D01*
X445655Y454647D01*
X445372Y454224D01*
X445114Y454331D01*
X444559D01*
X444047Y454118D01*
X443655Y453726D01*
X443443Y453214D01*
Y452660D01*
X443655Y452147D01*
X444047Y451756D01*
X444559Y451543D01*
X445114D01*
X445626Y451756D01*
X446018Y452147D01*
X446230Y452660D01*
Y453214D01*
X446018Y453726D01*
X446019Y453727D01*
X446302Y454150D01*
X446559Y454043D01*
X447114D01*
X447626Y454255D01*
X448018Y454647D01*
X448230Y455160D01*
Y455714D01*
X448018Y456226D01*
X447626Y456618D01*
X447114Y456831D01*
D02*
G37*
G36*
X288777Y457394D02*
X288223D01*
X287710Y457182D01*
X287318Y456789D01*
X287106Y456277D01*
Y455723D01*
X287318Y455210D01*
X287710Y454818D01*
X288223Y454606D01*
X288777D01*
X289289Y454818D01*
X289611Y455140D01*
X290035Y454857D01*
X290023Y454828D01*
Y454274D01*
X290235Y453761D01*
X290627Y453369D01*
X291139Y453157D01*
X291694D01*
X292206Y453369D01*
X292598Y453761D01*
X292810Y454274D01*
Y454631D01*
X293310Y454730D01*
X293319Y454710D01*
X293710Y454319D01*
X294223Y454106D01*
X294777D01*
X295289Y454319D01*
X295682Y454710D01*
X295894Y455223D01*
Y455777D01*
X295682Y456289D01*
X295289Y456681D01*
X294777Y456894D01*
X294223D01*
X293710Y456681D01*
X293319Y456289D01*
X293106Y455777D01*
Y455420D01*
X292606Y455320D01*
X292598Y455340D01*
X292206Y455732D01*
X291694Y455944D01*
X291139D01*
X290627Y455732D01*
X290306Y455411D01*
X289882Y455694D01*
X289894Y455723D01*
Y456277D01*
X289682Y456789D01*
X289289Y457182D01*
X288777Y457394D01*
D02*
G37*
G36*
X342692Y456874D02*
X342138D01*
X341625Y456661D01*
X341233Y456269D01*
X341021Y455757D01*
Y455203D01*
X341233Y454690D01*
X341625Y454298D01*
X342138Y454086D01*
X342692D01*
X343204Y454298D01*
X343596Y454690D01*
X343809Y455203D01*
Y455757D01*
X343596Y456269D01*
X343204Y456661D01*
X342692Y456874D01*
D02*
G37*
G36*
X404277Y455894D02*
X403723D01*
X403210Y455682D01*
X402818Y455290D01*
X402606Y454777D01*
Y454223D01*
X402818Y453711D01*
X403210Y453319D01*
X403723Y453106D01*
X404277D01*
X404789Y453319D01*
X405182Y453711D01*
X405394Y454223D01*
Y454777D01*
X405182Y455290D01*
X404789Y455682D01*
X404277Y455894D01*
D02*
G37*
G36*
X238754Y455831D02*
X238200D01*
X237688Y455619D01*
X237296Y455227D01*
X237083Y454714D01*
Y454160D01*
X237296Y453648D01*
X237688Y453256D01*
X238200Y453044D01*
X238754D01*
X239266Y453256D01*
X239659Y453648D01*
X239871Y454160D01*
Y454714D01*
X239659Y455227D01*
X239266Y455619D01*
X238754Y455831D01*
D02*
G37*
G36*
X527277Y455594D02*
X526723D01*
X526210Y455381D01*
X525818Y454989D01*
X525606Y454477D01*
Y453923D01*
X525818Y453410D01*
X526210Y453019D01*
X526723Y452806D01*
X527277D01*
X527789Y453019D01*
X528182Y453410D01*
X528394Y453923D01*
Y454477D01*
X528182Y454989D01*
X527789Y455381D01*
X527277Y455594D01*
D02*
G37*
G36*
X274544Y457597D02*
X273989D01*
X273477Y457385D01*
X273085Y456993D01*
X272873Y456481D01*
Y455926D01*
X273085Y455414D01*
X273477Y455022D01*
X273989Y454810D01*
X274367D01*
X274393Y454790D01*
X274660Y454402D01*
X274675Y454348D01*
X274537Y454014D01*
Y453459D01*
X274749Y452947D01*
X275141Y452555D01*
X275654Y452343D01*
X276208D01*
X276720Y452555D01*
X277112Y452947D01*
X277324Y453459D01*
Y454014D01*
X277112Y454526D01*
X276720Y454918D01*
X276208Y455130D01*
X275831D01*
X275804Y455150D01*
X275537Y455538D01*
X275522Y455592D01*
X275660Y455926D01*
Y456481D01*
X275448Y456993D01*
X275056Y457385D01*
X274544Y457597D01*
D02*
G37*
G36*
X428277Y454394D02*
X427723D01*
X427211Y454181D01*
X426819Y453790D01*
X426606Y453277D01*
Y452723D01*
X426618Y452695D01*
X426235Y452312D01*
X426096Y452370D01*
X425541D01*
X425029Y452157D01*
X424637Y451765D01*
X424425Y451253D01*
Y450699D01*
X424637Y450186D01*
X425029Y449794D01*
X425541Y449582D01*
X426096D01*
X426180Y449617D01*
X426371Y449493D01*
X426606Y449253D01*
Y448786D01*
X426618Y448758D01*
X426235Y448375D01*
X426096Y448433D01*
X425541D01*
X425029Y448220D01*
X424637Y447828D01*
X424425Y447316D01*
Y446762D01*
X424637Y446249D01*
X425029Y445857D01*
X425541Y445645D01*
X426096D01*
X426180Y445680D01*
X426371Y445556D01*
X426606Y445316D01*
Y444849D01*
X426819Y444337D01*
X427211Y443945D01*
X427723Y443732D01*
X428277D01*
X428790Y443945D01*
X429181Y444337D01*
X429394Y444849D01*
Y445403D01*
X429181Y445915D01*
X428790Y446308D01*
X428277Y446520D01*
X427723D01*
X427639Y446485D01*
X427448Y446609D01*
X427212Y446849D01*
Y447316D01*
X427201Y447344D01*
X427584Y447727D01*
X427723Y447669D01*
X428277D01*
X428790Y447882D01*
X429181Y448274D01*
X429394Y448786D01*
Y449340D01*
X429181Y449853D01*
X428790Y450245D01*
X428277Y450457D01*
X427723D01*
X427639Y450422D01*
X427448Y450546D01*
X427212Y450786D01*
Y451253D01*
X427201Y451281D01*
X427584Y451664D01*
X427723Y451606D01*
X428277D01*
X428790Y451819D01*
X429181Y452211D01*
X429394Y452723D01*
Y453277D01*
X429181Y453790D01*
X428790Y454181D01*
X428277Y454394D01*
D02*
G37*
G36*
X282746Y457063D02*
X282191D01*
X281679Y456851D01*
X281287Y456459D01*
X281075Y455946D01*
Y455392D01*
X281287Y454880D01*
X281679Y454488D01*
X282191Y454276D01*
X282607D01*
X282886Y454049D01*
X283012Y453845D01*
Y453392D01*
X283224Y452880D01*
X283616Y452488D01*
X284128Y452276D01*
X284683D01*
X285195Y452488D01*
X285587Y452880D01*
X285799Y453392D01*
Y453946D01*
X285587Y454459D01*
X285195Y454851D01*
X284683Y455063D01*
X284267D01*
X283988Y455289D01*
X283862Y455494D01*
Y455946D01*
X283650Y456459D01*
X283258Y456851D01*
X282746Y457063D01*
D02*
G37*
G36*
X361277Y454894D02*
X360723D01*
X360210Y454681D01*
X359819Y454289D01*
X359606Y453777D01*
Y453223D01*
X359819Y452710D01*
X360210Y452318D01*
X360723Y452106D01*
X361277D01*
X361789Y452318D01*
X362181Y452710D01*
X362394Y453223D01*
Y453777D01*
X362181Y454289D01*
X361789Y454681D01*
X361277Y454894D01*
D02*
G37*
G36*
X352277D02*
X351723D01*
X351210Y454681D01*
X350818Y454289D01*
X350606Y453777D01*
Y453223D01*
X350818Y452710D01*
X351210Y452318D01*
X351723Y452106D01*
X352277D01*
X352789Y452318D01*
X353182Y452710D01*
X353394Y453223D01*
Y453777D01*
X353182Y454289D01*
X352789Y454681D01*
X352277Y454894D01*
D02*
G37*
G36*
X498291Y456839D02*
X497737D01*
X497224Y456626D01*
X496832Y456234D01*
X496620Y455722D01*
Y455168D01*
X496832Y454655D01*
X497224Y454263D01*
X497737Y454051D01*
X498152D01*
X498431Y453825D01*
X498557Y453620D01*
Y453168D01*
X498769Y452655D01*
X499161Y452263D01*
X499674Y452051D01*
X500228D01*
X500740Y452263D01*
X501132Y452655D01*
X501344Y453168D01*
Y453722D01*
X501132Y454234D01*
X500740Y454626D01*
X500228Y454839D01*
X499812D01*
X499534Y455065D01*
X499407Y455270D01*
Y455722D01*
X499195Y456234D01*
X498803Y456626D01*
X498291Y456839D01*
D02*
G37*
G36*
X231296Y454683D02*
X230742D01*
X230229Y454471D01*
X229837Y454079D01*
X229625Y453567D01*
Y453012D01*
X229837Y452500D01*
X230229Y452108D01*
X230742Y451896D01*
X231296D01*
X231808Y452108D01*
X232201Y452500D01*
X232413Y453012D01*
Y453567D01*
X232201Y454079D01*
X231808Y454471D01*
X231296Y454683D01*
D02*
G37*
G36*
X400225Y454550D02*
X399671D01*
X399159Y454338D01*
X398767Y453946D01*
X398554Y453434D01*
Y452879D01*
X398767Y452367D01*
X399159Y451975D01*
X399671Y451763D01*
X400225D01*
X400738Y451975D01*
X401130Y452367D01*
X401342Y452879D01*
Y453434D01*
X401130Y453946D01*
X400738Y454338D01*
X400225Y454550D01*
D02*
G37*
G36*
X369777Y454394D02*
X369223D01*
X368710Y454181D01*
X368319Y453790D01*
X368106Y453277D01*
Y452723D01*
X368319Y452211D01*
X368710Y451819D01*
X369223Y451606D01*
X369777D01*
X370289Y451819D01*
X370682Y452211D01*
X370894Y452723D01*
Y453277D01*
X370682Y453790D01*
X370289Y454181D01*
X369777Y454394D01*
D02*
G37*
G36*
X330856Y454270D02*
X330302D01*
X329790Y454058D01*
X329398Y453666D01*
X329185Y453154D01*
Y452599D01*
X329398Y452087D01*
X329790Y451695D01*
X330302Y451483D01*
X330856D01*
X331368Y451695D01*
X331761Y452087D01*
X331973Y452599D01*
Y453154D01*
X331761Y453666D01*
X331368Y454058D01*
X330856Y454270D01*
D02*
G37*
G36*
X226392Y454106D02*
X225838D01*
X225325Y453894D01*
X224933Y453502D01*
X224721Y452989D01*
Y452435D01*
X224933Y451923D01*
X225325Y451531D01*
X225838Y451319D01*
X226392D01*
X226904Y451531D01*
X227296Y451923D01*
X227509Y452435D01*
Y452989D01*
X227296Y453502D01*
X226904Y453894D01*
X226392Y454106D01*
D02*
G37*
G36*
X458943Y456574D02*
X458388D01*
X457876Y456362D01*
X457484Y455970D01*
X457272Y455458D01*
Y455259D01*
X457107Y454866D01*
X456810Y454798D01*
X456525D01*
X456012Y454585D01*
X455620Y454193D01*
X455408Y453681D01*
Y453127D01*
X455620Y452614D01*
X456012Y452222D01*
X456525Y452010D01*
X457079D01*
X457591Y452222D01*
X457606Y452237D01*
X457761Y452233D01*
X458163Y452087D01*
X458319Y451711D01*
X458710Y451319D01*
X459223Y451106D01*
X459777D01*
X460289Y451319D01*
X460681Y451711D01*
X460729Y451826D01*
X461271D01*
X461318Y451711D01*
X461711Y451319D01*
X462223Y451106D01*
X462777D01*
X463289Y451319D01*
X463682Y451711D01*
X463894Y452223D01*
Y452777D01*
X463747Y453131D01*
X463985Y453446D01*
X464081Y453543D01*
X464614D01*
X465126Y453756D01*
X465518Y454147D01*
X465730Y454660D01*
Y455214D01*
X465518Y455726D01*
X465126Y456118D01*
X464614Y456331D01*
X464059D01*
X463547Y456118D01*
X463155Y455726D01*
X462943Y455214D01*
Y454660D01*
X463090Y454306D01*
X462851Y453991D01*
X462756Y453894D01*
X462223D01*
X461711Y453682D01*
X461318Y453290D01*
X461271Y453174D01*
X460729D01*
X460681Y453290D01*
X460289Y453682D01*
X459975Y453812D01*
X459823Y454319D01*
X459829Y454373D01*
X459847Y454391D01*
X460059Y454903D01*
Y455458D01*
X459847Y455970D01*
X459455Y456362D01*
X458943Y456574D01*
D02*
G37*
G36*
X438777Y453394D02*
X438223D01*
X437711Y453182D01*
X437319Y452789D01*
X437106Y452277D01*
Y451723D01*
X437319Y451210D01*
X437711Y450818D01*
X438223Y450606D01*
X438777D01*
X439290Y450818D01*
X439681Y451210D01*
X439894Y451723D01*
Y452277D01*
X439681Y452789D01*
X439290Y453182D01*
X438777Y453394D01*
D02*
G37*
G36*
X297277Y452656D02*
X296723D01*
X296211Y452443D01*
X295818Y452051D01*
X295606Y451539D01*
Y450985D01*
X295818Y450472D01*
X296211Y450080D01*
X296723Y449868D01*
X297277D01*
X297790Y450080D01*
X298182Y450472D01*
X298394Y450985D01*
Y451539D01*
X298182Y452051D01*
X297790Y452443D01*
X297277Y452656D01*
D02*
G37*
G36*
X235462Y452079D02*
X234908D01*
X234396Y451867D01*
X234003Y451475D01*
X233791Y450962D01*
Y450408D01*
X234003Y449896D01*
X234396Y449504D01*
X234908Y449291D01*
X235462D01*
X235975Y449504D01*
X236367Y449896D01*
X236579Y450408D01*
Y450962D01*
X236367Y451475D01*
X235975Y451867D01*
X235462Y452079D01*
D02*
G37*
G36*
X413809Y452310D02*
X413255D01*
X412742Y452098D01*
X412350Y451706D01*
X412138Y451194D01*
Y450639D01*
X412350Y450127D01*
X412742Y449735D01*
X413255Y449523D01*
X413667D01*
X413903Y449391D01*
X414106Y449104D01*
Y448723D01*
X414319Y448210D01*
X414711Y447819D01*
X415223Y447606D01*
X415777D01*
X416290Y447819D01*
X416681Y448210D01*
X416894Y448723D01*
Y449277D01*
X416681Y449789D01*
X416290Y450181D01*
X415777Y450394D01*
X415365D01*
X415129Y450525D01*
X414926Y450812D01*
Y451194D01*
X414713Y451706D01*
X414321Y452098D01*
X413809Y452310D01*
D02*
G37*
G36*
X230777Y450356D02*
X230223D01*
X229711Y450144D01*
X229318Y449752D01*
X229106Y449240D01*
Y448685D01*
X229318Y448173D01*
X229711Y447781D01*
X230223Y447569D01*
X230777D01*
X231290Y447781D01*
X231681Y448173D01*
X231894Y448685D01*
Y449240D01*
X231681Y449752D01*
X231290Y450144D01*
X230777Y450356D01*
D02*
G37*
G36*
X319542Y449471D02*
X318987D01*
X318475Y449259D01*
X318083Y448867D01*
X317871Y448355D01*
Y447800D01*
X318083Y447288D01*
X318475Y446896D01*
X318987Y446684D01*
X319542D01*
X320054Y446896D01*
X320446Y447288D01*
X320658Y447800D01*
Y448355D01*
X320446Y448867D01*
X320054Y449259D01*
X319542Y449471D01*
D02*
G37*
G36*
X512277Y448394D02*
X511723D01*
X511210Y448181D01*
X510818Y447789D01*
X510606Y447277D01*
Y446723D01*
X510818Y446210D01*
X511210Y445819D01*
X511723Y445606D01*
X512277D01*
X512789Y445819D01*
X513181Y446210D01*
X513394Y446723D01*
Y447277D01*
X513181Y447789D01*
X512789Y448181D01*
X512277Y448394D01*
D02*
G37*
G36*
X311513Y447439D02*
X310959D01*
X310447Y447227D01*
X310055Y446835D01*
X309842Y446322D01*
Y445768D01*
X310055Y445256D01*
X310447Y444864D01*
X310959Y444651D01*
X311513D01*
X312026Y444864D01*
X312418Y445256D01*
X312630Y445768D01*
Y446322D01*
X312418Y446835D01*
X312026Y447227D01*
X311513Y447439D01*
D02*
G37*
G36*
X231108Y444923D02*
X230554D01*
X230042Y444711D01*
X229650Y444319D01*
X229437Y443806D01*
Y443252D01*
X229484Y443141D01*
X229100Y442760D01*
X228777Y442894D01*
X228223D01*
X227711Y442682D01*
X227319Y442289D01*
X227106Y441777D01*
Y441223D01*
X227319Y440710D01*
X227711Y440318D01*
X228223Y440106D01*
X228450D01*
X228508Y440056D01*
X228743Y439606D01*
X228606Y439277D01*
Y438723D01*
X228641Y438640D01*
X228298Y438159D01*
X228040D01*
X227527Y437947D01*
X227135Y437555D01*
X226923Y437043D01*
Y436488D01*
X227135Y435976D01*
X227527Y435584D01*
X228040Y435372D01*
X228594D01*
X229106Y435584D01*
X229498Y435976D01*
X229711Y436488D01*
Y437043D01*
X229676Y437125D01*
X230018Y437606D01*
X230277D01*
X230789Y437818D01*
X231182Y438210D01*
X231394Y438723D01*
Y439277D01*
X231182Y439789D01*
X230789Y440181D01*
X230277Y440394D01*
X230050D01*
X229992Y440444D01*
X229757Y440894D01*
X229894Y441223D01*
Y441777D01*
X229848Y441889D01*
X230231Y442269D01*
X230554Y442135D01*
X231108D01*
X231621Y442348D01*
X232013Y442740D01*
X232225Y443252D01*
Y443806D01*
X232013Y444319D01*
X231621Y444711D01*
X231108Y444923D01*
D02*
G37*
G36*
X307415Y446883D02*
X306861D01*
X306348Y446671D01*
X305957Y446279D01*
X305744Y445767D01*
Y445212D01*
X305957Y444700D01*
X306109Y444547D01*
X306274Y444179D01*
X306109Y443894D01*
X305919Y443704D01*
X305707Y443192D01*
Y442638D01*
X305919Y442125D01*
X306311Y441733D01*
X306824Y441521D01*
X307378D01*
X307890Y441733D01*
X308282Y442125D01*
X308495Y442638D01*
Y443192D01*
X308282Y443704D01*
X308130Y443857D01*
X307965Y444225D01*
X308130Y444510D01*
X308319Y444700D01*
X308532Y445212D01*
Y445767D01*
X308319Y446279D01*
X307927Y446671D01*
X307415Y446883D01*
D02*
G37*
G36*
X427488Y443075D02*
X426933D01*
X426421Y442863D01*
X426029Y442471D01*
X425817Y441959D01*
Y441404D01*
X426029Y440892D01*
X426421Y440500D01*
X426933Y440288D01*
X427488D01*
X428000Y440500D01*
X428392Y440892D01*
X428604Y441404D01*
Y441959D01*
X428392Y442471D01*
X428000Y442863D01*
X427488Y443075D01*
D02*
G37*
G36*
X296277Y442894D02*
X295723D01*
X295211Y442682D01*
X294818Y442289D01*
X294606Y441777D01*
Y441223D01*
X294818Y440710D01*
X295211Y440318D01*
X295723Y440106D01*
X296277D01*
X296790Y440318D01*
X297182Y440710D01*
X297394Y441223D01*
Y441777D01*
X297182Y442289D01*
X296790Y442682D01*
X296277Y442894D01*
D02*
G37*
G36*
X211898Y442404D02*
X211344D01*
X210832Y442192D01*
X210440Y441800D01*
X210227Y441288D01*
Y440733D01*
X210440Y440221D01*
X210832Y439829D01*
X211344Y439617D01*
X211898D01*
X212411Y439829D01*
X212803Y440221D01*
X213015Y440733D01*
Y441288D01*
X212803Y441800D01*
X212411Y442192D01*
X211898Y442404D01*
D02*
G37*
G36*
X352866Y441919D02*
X352311D01*
X351799Y441706D01*
X351407Y441314D01*
X351195Y440802D01*
Y440248D01*
X351407Y439736D01*
X351799Y439343D01*
X352311Y439131D01*
X352866D01*
X353378Y439343D01*
X353770Y439736D01*
X353982Y440248D01*
Y440802D01*
X353770Y441314D01*
X353378Y441706D01*
X352866Y441919D01*
D02*
G37*
G36*
X387942Y441905D02*
X387387D01*
X386875Y441693D01*
X386483Y441301D01*
X386271Y440788D01*
Y440234D01*
X386483Y439722D01*
X386875Y439330D01*
X387387Y439117D01*
X387942D01*
X388454Y439330D01*
X388846Y439722D01*
X389058Y440234D01*
Y440788D01*
X388846Y441301D01*
X388454Y441693D01*
X387942Y441905D01*
D02*
G37*
G36*
X396277Y441894D02*
X395723D01*
X395211Y441681D01*
X394818Y441290D01*
X394606Y440777D01*
Y440223D01*
X394818Y439711D01*
X395211Y439319D01*
X395723Y439106D01*
X396277D01*
X396790Y439319D01*
X397182Y439711D01*
X397394Y440223D01*
Y440777D01*
X397182Y441290D01*
X396790Y441681D01*
X396277Y441894D01*
D02*
G37*
G36*
X384277D02*
X383723D01*
X383210Y441681D01*
X382819Y441290D01*
X382606Y440777D01*
Y440223D01*
X382819Y439711D01*
X383210Y439319D01*
X383723Y439106D01*
X384277D01*
X384789Y439319D01*
X385181Y439711D01*
X385394Y440223D01*
Y440777D01*
X385181Y441290D01*
X384789Y441681D01*
X384277Y441894D01*
D02*
G37*
G36*
X348777D02*
X348223D01*
X347710Y441681D01*
X347319Y441290D01*
X347106Y440777D01*
Y440223D01*
X347319Y439711D01*
X347710Y439319D01*
X348223Y439106D01*
X348777D01*
X349289Y439319D01*
X349681Y439711D01*
X349894Y440223D01*
Y440777D01*
X349681Y441290D01*
X349289Y441681D01*
X348777Y441894D01*
D02*
G37*
G36*
X392844Y441886D02*
X392290D01*
X391777Y441674D01*
X391385Y441282D01*
X391173Y440769D01*
Y440215D01*
X391385Y439703D01*
X391777Y439311D01*
X392290Y439099D01*
X392844D01*
X393356Y439311D01*
X393748Y439703D01*
X393961Y440215D01*
Y440769D01*
X393748Y441282D01*
X393356Y441674D01*
X392844Y441886D01*
D02*
G37*
G36*
X345299Y441762D02*
X344744D01*
X344232Y441550D01*
X343840Y441157D01*
X343628Y440645D01*
Y440091D01*
X343840Y439579D01*
X344232Y439186D01*
X344744Y438974D01*
X345299D01*
X345811Y439186D01*
X346203Y439579D01*
X346415Y440091D01*
Y440645D01*
X346203Y441157D01*
X345811Y441550D01*
X345299Y441762D01*
D02*
G37*
G36*
X424154Y440720D02*
X423600D01*
X423088Y440508D01*
X422696Y440116D01*
X422483Y439603D01*
Y439049D01*
X422696Y438537D01*
X423088Y438145D01*
X423600Y437932D01*
X424154D01*
X424667Y438145D01*
X425059Y438537D01*
X425271Y439049D01*
Y439603D01*
X425059Y440116D01*
X424667Y440508D01*
X424154Y440720D01*
D02*
G37*
G36*
X530277Y439894D02*
X529723D01*
X529211Y439681D01*
X528819Y439290D01*
X528606Y438777D01*
Y438223D01*
X528819Y437711D01*
X529211Y437319D01*
X529723Y437106D01*
X530277D01*
X530790Y437319D01*
X531181Y437711D01*
X531394Y438223D01*
Y438777D01*
X531181Y439290D01*
X530790Y439681D01*
X530277Y439894D01*
D02*
G37*
G36*
X225170Y439746D02*
X224615D01*
X224103Y439534D01*
X223711Y439142D01*
X223499Y438630D01*
Y438075D01*
X223711Y437563D01*
X224103Y437171D01*
X224615Y436959D01*
X225170D01*
X225682Y437171D01*
X226074Y437563D01*
X226286Y438075D01*
Y438630D01*
X226074Y439142D01*
X225682Y439534D01*
X225170Y439746D01*
D02*
G37*
G36*
X380277Y441894D02*
X379723D01*
X379210Y441681D01*
X378818Y441290D01*
X378606Y440777D01*
Y440223D01*
X378818Y439711D01*
X379210Y439319D01*
X379521Y439190D01*
Y438649D01*
X379293Y438554D01*
X378901Y438162D01*
X378689Y437649D01*
Y437095D01*
X378901Y436583D01*
X379293Y436191D01*
X379805Y435979D01*
X380360D01*
X380872Y436191D01*
X381264Y436583D01*
X381476Y437095D01*
Y437649D01*
X381264Y438162D01*
X380872Y438554D01*
X380561Y438683D01*
Y439224D01*
X380789Y439319D01*
X381182Y439711D01*
X381394Y440223D01*
Y440777D01*
X381182Y441290D01*
X380789Y441681D01*
X380277Y441894D01*
D02*
G37*
G36*
X366789Y438469D02*
X366234D01*
X365722Y438257D01*
X365330Y437865D01*
X365118Y437352D01*
Y436798D01*
X365330Y436286D01*
X365722Y435894D01*
X366234Y435681D01*
X366789D01*
X367301Y435894D01*
X367693Y436286D01*
X367905Y436798D01*
Y437352D01*
X367693Y437865D01*
X367301Y438257D01*
X366789Y438469D01*
D02*
G37*
G36*
X354989D02*
X354434D01*
X353922Y438257D01*
X353530Y437865D01*
X353318Y437352D01*
Y436798D01*
X353530Y436286D01*
X353922Y435894D01*
X354434Y435681D01*
X354989D01*
X355501Y435894D01*
X355893Y436286D01*
X356105Y436798D01*
Y437352D01*
X355893Y437865D01*
X355501Y438257D01*
X354989Y438469D01*
D02*
G37*
G36*
X374689Y438469D02*
X374134D01*
X373622Y438257D01*
X373230Y437864D01*
X373018Y437352D01*
Y436798D01*
X373230Y436286D01*
X373622Y435894D01*
X374134Y435681D01*
X374689D01*
X375201Y435894D01*
X375593Y436286D01*
X375805Y436798D01*
Y437352D01*
X375593Y437864D01*
X375201Y438257D01*
X374689Y438469D01*
D02*
G37*
G36*
X370789D02*
X370234D01*
X369722Y438257D01*
X369330Y437864D01*
X369118Y437352D01*
Y436798D01*
X369330Y436286D01*
X369722Y435894D01*
X370234Y435681D01*
X370789D01*
X371301Y435894D01*
X371693Y436286D01*
X371905Y436798D01*
Y437352D01*
X371693Y437864D01*
X371301Y438257D01*
X370789Y438469D01*
D02*
G37*
G36*
X362889D02*
X362334D01*
X361822Y438257D01*
X361430Y437864D01*
X361218Y437352D01*
Y436798D01*
X361430Y436286D01*
X361822Y435894D01*
X362334Y435681D01*
X362889D01*
X363401Y435894D01*
X363793Y436286D01*
X364005Y436798D01*
Y437352D01*
X363793Y437864D01*
X363401Y438257D01*
X362889Y438469D01*
D02*
G37*
G36*
X358989D02*
X358434D01*
X357922Y438257D01*
X357530Y437864D01*
X357318Y437352D01*
Y436798D01*
X357530Y436286D01*
X357922Y435894D01*
X358434Y435681D01*
X358989D01*
X359501Y435894D01*
X359893Y436286D01*
X360105Y436798D01*
Y437352D01*
X359893Y437864D01*
X359501Y438257D01*
X358989Y438469D01*
D02*
G37*
G36*
X327777D02*
X327223D01*
X326711Y438257D01*
X326319Y437864D01*
X326106Y437352D01*
Y436798D01*
X326319Y436286D01*
X326711Y435894D01*
X327223Y435681D01*
X327777D01*
X328290Y435894D01*
X328681Y436286D01*
X328894Y436798D01*
Y437352D01*
X328681Y437864D01*
X328290Y438257D01*
X327777Y438469D01*
D02*
G37*
G36*
X296277D02*
X295723D01*
X295211Y438257D01*
X294818Y437864D01*
X294606Y437352D01*
Y436798D01*
X294818Y436286D01*
X295211Y435894D01*
X295723Y435681D01*
X296277D01*
X296790Y435894D01*
X297182Y436286D01*
X297394Y436798D01*
Y437352D01*
X297182Y437864D01*
X296790Y438257D01*
X296277Y438469D01*
D02*
G37*
G36*
X351102Y438417D02*
X350548D01*
X350036Y438205D01*
X349644Y437813D01*
X349432Y437301D01*
Y436747D01*
X349644Y436234D01*
X350036Y435842D01*
X350548Y435630D01*
X351102D01*
X351615Y435842D01*
X352007Y436234D01*
X352219Y436747D01*
Y437301D01*
X352007Y437813D01*
X351615Y438205D01*
X351102Y438417D01*
D02*
G37*
G36*
X347102D02*
X346548D01*
X346036Y438205D01*
X345644Y437813D01*
X345432Y437301D01*
Y436747D01*
X345644Y436234D01*
X346036Y435842D01*
X346548Y435630D01*
X347102D01*
X347615Y435842D01*
X348007Y436234D01*
X348219Y436747D01*
Y437301D01*
X348007Y437813D01*
X347615Y438205D01*
X347102Y438417D01*
D02*
G37*
G36*
X343103D02*
X342548D01*
X342036Y438205D01*
X341644Y437813D01*
X341432Y437301D01*
Y436747D01*
X341644Y436234D01*
X342036Y435842D01*
X342548Y435630D01*
X343103D01*
X343615Y435842D01*
X344007Y436234D01*
X344219Y436747D01*
Y437301D01*
X344007Y437813D01*
X343615Y438205D01*
X343103Y438417D01*
D02*
G37*
G36*
X339103D02*
X338548D01*
X338036Y438205D01*
X337644Y437813D01*
X337432Y437301D01*
Y436747D01*
X337644Y436234D01*
X338036Y435842D01*
X338548Y435630D01*
X339103D01*
X339615Y435842D01*
X340007Y436234D01*
X340219Y436747D01*
Y437301D01*
X340007Y437813D01*
X339615Y438205D01*
X339103Y438417D01*
D02*
G37*
G36*
X335103D02*
X334548D01*
X334036Y438205D01*
X333644Y437813D01*
X333432Y437301D01*
Y436747D01*
X333644Y436234D01*
X334036Y435842D01*
X334548Y435630D01*
X335103D01*
X335615Y435842D01*
X336007Y436234D01*
X336219Y436747D01*
Y437301D01*
X336007Y437813D01*
X335615Y438205D01*
X335103Y438417D01*
D02*
G37*
G36*
X331603D02*
X331048D01*
X330536Y438205D01*
X330144Y437813D01*
X329932Y437301D01*
Y436747D01*
X330144Y436234D01*
X330536Y435842D01*
X331048Y435630D01*
X331603D01*
X332115Y435842D01*
X332507Y436234D01*
X332719Y436747D01*
Y437301D01*
X332507Y437813D01*
X332115Y438205D01*
X331603Y438417D01*
D02*
G37*
G36*
X440606Y436571D02*
X440052D01*
X439539Y436359D01*
X439147Y435967D01*
X438935Y435454D01*
Y434992D01*
X438693Y434747D01*
X438506Y434628D01*
X438493Y434634D01*
X437938D01*
X437426Y434422D01*
X437034Y434030D01*
X436822Y433517D01*
Y432963D01*
X437034Y432451D01*
X437426Y432059D01*
X437938Y431847D01*
X438493D01*
X439005Y432059D01*
X439397Y432451D01*
X439609Y432963D01*
Y433426D01*
X439851Y433671D01*
X440038Y433789D01*
X440052Y433783D01*
X440606D01*
X441118Y433996D01*
X441510Y434388D01*
X441722Y434900D01*
Y435454D01*
X441510Y435967D01*
X441118Y436359D01*
X440606Y436571D01*
D02*
G37*
G36*
X412493Y443300D02*
X411308D01*
X410163Y442993D01*
X409137Y442401D01*
X408299Y441563D01*
X407707Y440537D01*
X407400Y439392D01*
Y438208D01*
X407707Y437063D01*
X408299Y436037D01*
X409137Y435199D01*
X410163Y434607D01*
X411308Y434300D01*
X412493D01*
X413637Y434607D01*
X414663Y435199D01*
X415501Y436037D01*
X416093Y437063D01*
X416400Y438208D01*
Y439392D01*
X416093Y440537D01*
X415501Y441563D01*
X414663Y442401D01*
X413637Y442993D01*
X412493Y443300D01*
D02*
G37*
G36*
X321592D02*
X320408D01*
X319263Y442993D01*
X318237Y442401D01*
X317399Y441563D01*
X316807Y440537D01*
X316500Y439392D01*
Y438208D01*
X316807Y437063D01*
X317399Y436037D01*
X318237Y435199D01*
X319263Y434607D01*
X320408Y434300D01*
X321592D01*
X322737Y434607D01*
X323763Y435199D01*
X324601Y436037D01*
X325193Y437063D01*
X325500Y438208D01*
Y439392D01*
X325193Y440537D01*
X324601Y441563D01*
X323763Y442401D01*
X322737Y442993D01*
X321592Y443300D01*
D02*
G37*
G36*
X425777Y436894D02*
X425223D01*
X424711Y436682D01*
X424319Y436290D01*
X424106Y435777D01*
Y435223D01*
X424319Y434711D01*
X424711Y434318D01*
X425223Y434106D01*
X425777D01*
X426290Y434318D01*
X426682Y434711D01*
X426894Y435223D01*
Y435777D01*
X426682Y436290D01*
X426290Y436682D01*
X425777Y436894D01*
D02*
G37*
G36*
X307360Y440744D02*
X306806D01*
X306294Y440532D01*
X305902Y440140D01*
X305689Y439628D01*
Y439073D01*
X305902Y438561D01*
X306231Y438231D01*
X306236Y437828D01*
X306210Y437681D01*
X305819Y437289D01*
X305606Y436777D01*
Y436223D01*
X305819Y435710D01*
X306210Y435319D01*
X306515Y435193D01*
X306731Y434906D01*
X306743Y434606D01*
X306606Y434277D01*
Y433723D01*
X306819Y433211D01*
X307210Y432819D01*
X307723Y432606D01*
X308277D01*
X308789Y432819D01*
X309181Y433211D01*
X309394Y433723D01*
Y434277D01*
X309181Y434790D01*
X308789Y435182D01*
X308486Y435307D01*
X308269Y435594D01*
X308257Y435894D01*
X308394Y436223D01*
Y436777D01*
X308182Y437289D01*
X307852Y437619D01*
X307848Y438022D01*
X307873Y438169D01*
X308265Y438561D01*
X308477Y439073D01*
Y439628D01*
X308265Y440140D01*
X307873Y440532D01*
X307360Y440744D01*
D02*
G37*
G36*
X225588Y434982D02*
X225034D01*
X224521Y434769D01*
X224129Y434377D01*
X223917Y433865D01*
Y433311D01*
X224129Y432798D01*
X224521Y432406D01*
X225034Y432194D01*
X225588D01*
X226100Y432406D01*
X226493Y432798D01*
X226705Y433311D01*
Y433865D01*
X226493Y434377D01*
X226100Y434769D01*
X225588Y434982D01*
D02*
G37*
G36*
X205552Y436147D02*
X204997D01*
X204485Y435935D01*
X204093Y435543D01*
X203881Y435031D01*
Y434476D01*
X204093Y433964D01*
X204176Y433881D01*
X204173Y433338D01*
X203781Y432946D01*
X203569Y432434D01*
Y431880D01*
X203781Y431367D01*
X204173Y430975D01*
X204685Y430763D01*
X205240D01*
X205752Y430975D01*
X206144Y431367D01*
X206356Y431880D01*
Y432434D01*
X206144Y432946D01*
X206061Y433030D01*
X206064Y433572D01*
X206456Y433964D01*
X206668Y434476D01*
Y435031D01*
X206456Y435543D01*
X206064Y435935D01*
X205552Y436147D01*
D02*
G37*
G36*
X228277Y432894D02*
X227723D01*
X227210Y432682D01*
X226818Y432290D01*
X226606Y431777D01*
Y431223D01*
X226676Y431055D01*
X226517Y430564D01*
X226402Y430509D01*
X226002Y430343D01*
X225610Y429951D01*
X225398Y429439D01*
Y428884D01*
X225480Y428685D01*
X225078Y428433D01*
X224958Y428554D01*
X224686Y428825D01*
X224174Y429037D01*
X223620D01*
X223108Y428825D01*
X222715Y428433D01*
X222503Y427921D01*
Y427366D01*
X222715Y426854D01*
X223108Y426462D01*
X223620Y426250D01*
X224174D01*
X224686Y426462D01*
X225078Y426854D01*
X225291Y427366D01*
Y427921D01*
X225208Y428121D01*
X225610Y428372D01*
X225730Y428251D01*
X226002Y427980D01*
X226514Y427768D01*
X227069D01*
X227581Y427980D01*
X227973Y428372D01*
X228185Y428884D01*
Y429439D01*
X228116Y429606D01*
X228274Y430097D01*
X228389Y430153D01*
X228789Y430318D01*
X229182Y430711D01*
X229394Y431223D01*
Y431777D01*
X229182Y432290D01*
X228789Y432682D01*
X228277Y432894D01*
D02*
G37*
G36*
X202069Y429555D02*
X201514D01*
X201002Y429343D01*
X200610Y428951D01*
X200398Y428439D01*
Y427884D01*
X200610Y427372D01*
X201002Y426980D01*
X201514Y426768D01*
X202069D01*
X202581Y426980D01*
X202973Y427372D01*
X203185Y427884D01*
Y428439D01*
X202973Y428951D01*
X202581Y429343D01*
X202069Y429555D01*
D02*
G37*
G36*
X438614Y428831D02*
X438059D01*
X437547Y428618D01*
X437155Y428227D01*
X436943Y427714D01*
Y427160D01*
X437155Y426648D01*
X437547Y426256D01*
X438059Y426043D01*
X438614D01*
X439126Y426256D01*
X439518Y426648D01*
X439730Y427160D01*
Y427714D01*
X439518Y428227D01*
X439126Y428618D01*
X438614Y428831D01*
D02*
G37*
G36*
X441614Y432831D02*
X441059D01*
X440547Y432619D01*
X440155Y432227D01*
X439943Y431714D01*
Y431160D01*
X440155Y430648D01*
X440547Y430256D01*
X440851Y430130D01*
X441067Y429843D01*
X441079Y429543D01*
X440943Y429214D01*
Y428660D01*
X441155Y428148D01*
X441547Y427755D01*
X441851Y427630D01*
X442002Y427107D01*
X441997Y427069D01*
X441949Y427021D01*
X441737Y426508D01*
Y425954D01*
X441949Y425442D01*
X442341Y425050D01*
X442854Y424837D01*
X443408D01*
X443920Y425050D01*
X444312Y425442D01*
X444524Y425954D01*
Y426508D01*
X444312Y427021D01*
X443920Y427413D01*
X443616Y427539D01*
X443465Y428061D01*
X443470Y428099D01*
X443518Y428148D01*
X443730Y428660D01*
Y429214D01*
X443518Y429727D01*
X443126Y430119D01*
X442822Y430244D01*
X442606Y430531D01*
X442594Y430831D01*
X442730Y431160D01*
Y431714D01*
X442518Y432227D01*
X442126Y432619D01*
X441614Y432831D01*
D02*
G37*
G36*
X229128Y427172D02*
X228574D01*
X228062Y426959D01*
X227670Y426567D01*
X227457Y426055D01*
Y425501D01*
X227670Y424988D01*
X228062Y424596D01*
X228574Y424384D01*
X229128D01*
X229641Y424596D01*
X230033Y424988D01*
X230245Y425501D01*
Y426055D01*
X230033Y426567D01*
X229641Y426959D01*
X229128Y427172D01*
D02*
G37*
G36*
X523377Y426694D02*
X522823D01*
X522310Y426481D01*
X521918Y426089D01*
X521706Y425577D01*
Y425023D01*
X521918Y424510D01*
X522310Y424119D01*
X522823Y423906D01*
X523377D01*
X523889Y424119D01*
X524282Y424510D01*
X524494Y425023D01*
Y425577D01*
X524282Y426089D01*
X523889Y426481D01*
X523377Y426694D01*
D02*
G37*
G36*
X402277Y426394D02*
X401723D01*
X401210Y426182D01*
X400818Y425789D01*
X400606Y425277D01*
Y424723D01*
X400818Y424211D01*
X401210Y423818D01*
X401723Y423606D01*
X402277D01*
X402789Y423818D01*
X403182Y424211D01*
X403394Y424723D01*
Y425277D01*
X403182Y425789D01*
X402789Y426182D01*
X402277Y426394D01*
D02*
G37*
G36*
X398277D02*
X397723D01*
X397211Y426182D01*
X396818Y425789D01*
X396606Y425277D01*
Y424723D01*
X396818Y424211D01*
X397211Y423818D01*
X397723Y423606D01*
X398277D01*
X398790Y423818D01*
X399182Y424211D01*
X399394Y424723D01*
Y425277D01*
X399182Y425789D01*
X398790Y426182D01*
X398277Y426394D01*
D02*
G37*
G36*
X394277D02*
X393723D01*
X393211Y426182D01*
X392818Y425789D01*
X392606Y425277D01*
Y424723D01*
X392818Y424211D01*
X393211Y423818D01*
X393723Y423606D01*
X394277D01*
X394790Y423818D01*
X395181Y424211D01*
X395394Y424723D01*
Y425277D01*
X395181Y425789D01*
X394790Y426182D01*
X394277Y426394D01*
D02*
G37*
G36*
X390277D02*
X389723D01*
X389211Y426182D01*
X388819Y425789D01*
X388606Y425277D01*
Y424723D01*
X388819Y424211D01*
X389211Y423818D01*
X389723Y423606D01*
X390277D01*
X390790Y423818D01*
X391181Y424211D01*
X391394Y424723D01*
Y425277D01*
X391181Y425789D01*
X390790Y426182D01*
X390277Y426394D01*
D02*
G37*
G36*
X386277D02*
X385723D01*
X385210Y426182D01*
X384819Y425789D01*
X384606Y425277D01*
Y424723D01*
X384819Y424211D01*
X385210Y423818D01*
X385723Y423606D01*
X386277D01*
X386789Y423818D01*
X387181Y424211D01*
X387394Y424723D01*
Y425277D01*
X387181Y425789D01*
X386789Y426182D01*
X386277Y426394D01*
D02*
G37*
G36*
X382277D02*
X381723D01*
X381210Y426182D01*
X380819Y425789D01*
X380606Y425277D01*
Y424723D01*
X380819Y424211D01*
X381210Y423818D01*
X381723Y423606D01*
X382277D01*
X382789Y423818D01*
X383182Y424211D01*
X383394Y424723D01*
Y425277D01*
X383182Y425789D01*
X382789Y426182D01*
X382277Y426394D01*
D02*
G37*
G36*
X213069Y425055D02*
X212514D01*
X212002Y424843D01*
X211610Y424451D01*
X211398Y423939D01*
Y423384D01*
X211610Y422872D01*
X212002Y422480D01*
X212514Y422268D01*
X213069D01*
X213581Y422480D01*
X213973Y422872D01*
X214185Y423384D01*
Y423939D01*
X213973Y424451D01*
X213581Y424843D01*
X213069Y425055D01*
D02*
G37*
G36*
X295076Y424968D02*
X294522D01*
X294010Y424756D01*
X293618Y424364D01*
X293406Y423852D01*
Y423298D01*
X293618Y422785D01*
X294010Y422393D01*
X294522Y422181D01*
X295076D01*
X295589Y422393D01*
X295981Y422785D01*
X296193Y423298D01*
Y423852D01*
X295981Y424364D01*
X295589Y424756D01*
X295076Y424968D01*
D02*
G37*
G36*
X428620Y424831D02*
X428065D01*
X427553Y424618D01*
X427161Y424227D01*
X426949Y423714D01*
Y423160D01*
X427161Y422647D01*
X427553Y422256D01*
X428065Y422043D01*
X428620D01*
X429132Y422256D01*
X429524Y422647D01*
X429736Y423160D01*
Y423714D01*
X429524Y424227D01*
X429132Y424618D01*
X428620Y424831D01*
D02*
G37*
G36*
X510622Y424744D02*
X510067D01*
X509555Y424532D01*
X509163Y424140D01*
X508951Y423628D01*
Y423073D01*
X509163Y422561D01*
X509555Y422169D01*
X510067Y421957D01*
X510622D01*
X511134Y422169D01*
X511526Y422561D01*
X511738Y423073D01*
Y423628D01*
X511526Y424140D01*
X511134Y424532D01*
X510622Y424744D01*
D02*
G37*
G36*
X405777Y426394D02*
X405223D01*
X404710Y426182D01*
X404319Y425789D01*
X404106Y425277D01*
Y424723D01*
X404319Y424211D01*
X404710Y423818D01*
X405223Y423606D01*
X405701D01*
X405925Y423425D01*
X406106Y423201D01*
Y422723D01*
X406319Y422211D01*
X406710Y421818D01*
X407223Y421606D01*
X407777D01*
X408289Y421818D01*
X408681Y422211D01*
X408894Y422723D01*
Y423277D01*
X408681Y423790D01*
X408289Y424182D01*
X407777Y424394D01*
X407299D01*
X407075Y424575D01*
X406894Y424799D01*
Y425277D01*
X406681Y425789D01*
X406289Y426182D01*
X405777Y426394D01*
D02*
G37*
G36*
X310440Y431241D02*
X309886D01*
X309374Y431029D01*
X308982Y430637D01*
X308770Y430124D01*
Y429593D01*
X308760Y429559D01*
X308410Y429131D01*
X308090D01*
X307578Y428919D01*
X307186Y428526D01*
X306974Y428014D01*
Y427460D01*
X307001Y427394D01*
X306723Y426894D01*
X306210Y426682D01*
X305819Y426290D01*
X305606Y425777D01*
Y425223D01*
X305819Y424711D01*
X306210Y424319D01*
X306723Y424106D01*
X307277D01*
X307789Y424319D01*
X308132Y424661D01*
X308192Y424669D01*
X308405Y424649D01*
X308667Y424576D01*
X308819Y424211D01*
X309210Y423818D01*
X309723Y423606D01*
X309950D01*
X310008Y423556D01*
X310243Y423106D01*
X310106Y422777D01*
Y422223D01*
X310318Y421710D01*
X310711Y421318D01*
X311223Y421106D01*
X311777D01*
X312290Y421318D01*
X312682Y421710D01*
X312894Y422223D01*
Y422777D01*
X312682Y423289D01*
X312290Y423681D01*
X311777Y423894D01*
X311550D01*
X311492Y423944D01*
X311257Y424394D01*
X311394Y424723D01*
Y425277D01*
X311181Y425789D01*
X310789Y426182D01*
X310277Y426394D01*
X309723D01*
X309688Y426379D01*
X309405Y426803D01*
X309549Y426947D01*
X309761Y427460D01*
Y427991D01*
X309770Y428025D01*
X310120Y428453D01*
X310440D01*
X310953Y428666D01*
X311345Y429058D01*
X311557Y429570D01*
Y430124D01*
X311345Y430637D01*
X310953Y431029D01*
X310440Y431241D01*
D02*
G37*
G36*
X334277Y421894D02*
X333723D01*
X333210Y421681D01*
X332819Y421289D01*
X332606Y420777D01*
Y420223D01*
X332819Y419710D01*
X333210Y419318D01*
X333723Y419106D01*
X334277D01*
X334789Y419318D01*
X335181Y419710D01*
X335394Y420223D01*
Y420777D01*
X335181Y421289D01*
X334789Y421681D01*
X334277Y421894D01*
D02*
G37*
G36*
X360977Y421794D02*
X360423D01*
X359910Y421582D01*
X359519Y421189D01*
X359306Y420677D01*
Y420123D01*
X359519Y419611D01*
X359910Y419218D01*
X360423Y419006D01*
X360977D01*
X361490Y419218D01*
X361881Y419611D01*
X362094Y420123D01*
Y420677D01*
X361881Y421189D01*
X361490Y421582D01*
X360977Y421794D01*
D02*
G37*
G36*
X309398Y421037D02*
X308843D01*
X308331Y420825D01*
X307939Y420433D01*
X307727Y419920D01*
Y419366D01*
X307939Y418854D01*
X308331Y418462D01*
X308843Y418250D01*
X309398D01*
X309910Y418462D01*
X310302Y418854D01*
X310514Y419366D01*
Y419920D01*
X310302Y420433D01*
X309910Y420825D01*
X309398Y421037D01*
D02*
G37*
G36*
X523777Y420894D02*
X523223D01*
X522711Y420681D01*
X522319Y420290D01*
X522106Y419777D01*
Y419223D01*
X522319Y418711D01*
X522711Y418319D01*
X523223Y418106D01*
X523777D01*
X524290Y418319D01*
X524682Y418711D01*
X524894Y419223D01*
Y419777D01*
X524682Y420290D01*
X524290Y420681D01*
X523777Y420894D01*
D02*
G37*
G36*
X428277D02*
X427723D01*
X427211Y420681D01*
X426819Y420290D01*
X426606Y419777D01*
Y419223D01*
X426819Y418711D01*
X427211Y418319D01*
X427723Y418106D01*
X428277D01*
X428790Y418319D01*
X429181Y418711D01*
X429394Y419223D01*
Y419777D01*
X429181Y420290D01*
X428790Y420681D01*
X428277Y420894D01*
D02*
G37*
G36*
X208718Y419220D02*
X208164D01*
X207651Y419008D01*
X207259Y418616D01*
X207047Y418104D01*
Y417550D01*
X207259Y417037D01*
X207651Y416645D01*
X208164Y416433D01*
X208718D01*
X209230Y416645D01*
X209623Y417037D01*
X209835Y417550D01*
Y418104D01*
X209623Y418616D01*
X209230Y419008D01*
X208718Y419220D01*
D02*
G37*
G36*
X424240Y418996D02*
X423685D01*
X423173Y418784D01*
X422781Y418392D01*
X422569Y417880D01*
Y417325D01*
X422781Y416813D01*
X423173Y416421D01*
X423685Y416209D01*
X424240D01*
X424752Y416421D01*
X425144Y416813D01*
X425356Y417325D01*
Y417880D01*
X425144Y418392D01*
X424752Y418784D01*
X424240Y418996D01*
D02*
G37*
G36*
X368277Y418194D02*
X367723D01*
X367211Y417981D01*
X366818Y417590D01*
X366606Y417077D01*
Y416523D01*
X366818Y416011D01*
X367211Y415619D01*
X367723Y415406D01*
X368277D01*
X368790Y415619D01*
X369181Y416011D01*
X369394Y416523D01*
Y417077D01*
X369181Y417590D01*
X368790Y417981D01*
X368277Y418194D01*
D02*
G37*
G36*
X384277Y417894D02*
X383723D01*
X383210Y417682D01*
X382819Y417289D01*
X382606Y416777D01*
Y416223D01*
X382819Y415710D01*
X383210Y415318D01*
X383723Y415106D01*
X384277D01*
X384789Y415318D01*
X385181Y415710D01*
X385394Y416223D01*
Y416777D01*
X385181Y417289D01*
X384789Y417682D01*
X384277Y417894D01*
D02*
G37*
G36*
X297076Y419031D02*
X296522D01*
X296010Y418819D01*
X295618Y418427D01*
X295406Y417915D01*
Y417499D01*
X295179Y417221D01*
X294974Y417095D01*
X294522D01*
X294010Y416882D01*
X293618Y416490D01*
X293406Y415978D01*
Y415424D01*
X293618Y414911D01*
X294010Y414519D01*
X294522Y414307D01*
X295076D01*
X295589Y414519D01*
X295981Y414911D01*
X296193Y415424D01*
Y415839D01*
X296419Y416118D01*
X296624Y416244D01*
X297076D01*
X297589Y416456D01*
X297981Y416848D01*
X298193Y417361D01*
Y417915D01*
X297981Y418427D01*
X297589Y418819D01*
X297076Y419031D01*
D02*
G37*
G36*
X410777Y416894D02*
X410223D01*
X409711Y416681D01*
X409318Y416290D01*
X409106Y415777D01*
Y415223D01*
X409318Y414711D01*
X409711Y414319D01*
X410223Y414106D01*
X410777D01*
X411290Y414319D01*
X411682Y414711D01*
X411894Y415223D01*
Y415777D01*
X411682Y416290D01*
X411290Y416681D01*
X410777Y416894D01*
D02*
G37*
G36*
X347277D02*
X346723D01*
X346211Y416681D01*
X345818Y416290D01*
X345606Y415777D01*
Y415223D01*
X345818Y414711D01*
X346211Y414319D01*
X346723Y414106D01*
X347277D01*
X347790Y414319D01*
X348182Y414711D01*
X348394Y415223D01*
Y415777D01*
X348182Y416290D01*
X347790Y416681D01*
X347277Y416894D01*
D02*
G37*
G36*
X334277D02*
X333723D01*
X333210Y416681D01*
X332819Y416290D01*
X332606Y415777D01*
Y415223D01*
X332819Y414711D01*
X333210Y414319D01*
X333723Y414106D01*
X334277D01*
X334789Y414319D01*
X335181Y414711D01*
X335394Y415223D01*
Y415777D01*
X335181Y416290D01*
X334789Y416681D01*
X334277Y416894D01*
D02*
G37*
G36*
X512622Y418807D02*
X512067D01*
X511555Y418595D01*
X511163Y418203D01*
X510951Y417691D01*
Y417275D01*
X510724Y416996D01*
X510520Y416870D01*
X510067D01*
X509555Y416658D01*
X509163Y416266D01*
X508951Y415754D01*
Y415199D01*
X509163Y414687D01*
X509555Y414295D01*
X510067Y414083D01*
X510622D01*
X511134Y414295D01*
X511526Y414687D01*
X511738Y415199D01*
Y415615D01*
X511965Y415893D01*
X512169Y416020D01*
X512622D01*
X513134Y416232D01*
X513526Y416624D01*
X513738Y417136D01*
Y417691D01*
X513526Y418203D01*
X513134Y418595D01*
X512622Y418807D01*
D02*
G37*
G36*
X384277Y414394D02*
X383723D01*
X383210Y414182D01*
X382819Y413790D01*
X382606Y413277D01*
Y412723D01*
X382819Y412211D01*
X383210Y411819D01*
X383723Y411606D01*
X384277D01*
X384789Y411819D01*
X385181Y412211D01*
X385394Y412723D01*
Y413277D01*
X385181Y413790D01*
X384789Y414182D01*
X384277Y414394D01*
D02*
G37*
G36*
X439277Y418894D02*
X438723D01*
X438210Y418681D01*
X437818Y418290D01*
X437606Y417777D01*
Y417223D01*
X437818Y416711D01*
X438210Y416319D01*
X438723Y416106D01*
X439139D01*
X439417Y415880D01*
X439544Y415676D01*
Y415324D01*
X439417Y415120D01*
X439139Y414894D01*
X438723D01*
X438210Y414681D01*
X437818Y414290D01*
X437606Y413777D01*
Y413223D01*
X437818Y412711D01*
X438210Y412319D01*
X438723Y412106D01*
X439139D01*
X439417Y411880D01*
X439544Y411676D01*
Y411223D01*
X439756Y410710D01*
X440148Y410319D01*
X440660Y410106D01*
X441215D01*
X441727Y410319D01*
X442119Y410710D01*
X442332Y411223D01*
Y411777D01*
X442119Y412289D01*
X441727Y412681D01*
X441215Y412894D01*
X440799D01*
X440520Y413120D01*
X440394Y413324D01*
Y413676D01*
X440520Y413880D01*
X440799Y414106D01*
X441215D01*
X441727Y414319D01*
X442119Y414711D01*
X442332Y415223D01*
Y415777D01*
X442119Y416290D01*
X441727Y416681D01*
X441215Y416894D01*
X440799D01*
X440520Y417120D01*
X440394Y417324D01*
Y417777D01*
X440181Y418290D01*
X439789Y418681D01*
X439277Y418894D01*
D02*
G37*
G36*
X410777Y411894D02*
X410223D01*
X409711Y411682D01*
X409318Y411290D01*
X409106Y410777D01*
Y410223D01*
X409318Y409711D01*
X409711Y409318D01*
X410223Y409106D01*
X410777D01*
X411290Y409318D01*
X411682Y409711D01*
X411894Y410223D01*
Y410777D01*
X411682Y411290D01*
X411290Y411682D01*
X410777Y411894D01*
D02*
G37*
G36*
X386777D02*
X386223D01*
X385711Y411682D01*
X385318Y411290D01*
X385106Y410777D01*
Y410223D01*
X385318Y409711D01*
X385711Y409318D01*
X386223Y409106D01*
X386777D01*
X387290Y409318D01*
X387682Y409711D01*
X387894Y410223D01*
Y410777D01*
X387682Y411290D01*
X387290Y411682D01*
X386777Y411894D01*
D02*
G37*
G36*
X349277D02*
X348723D01*
X348211Y411682D01*
X347818Y411290D01*
X347606Y410777D01*
Y410223D01*
X347818Y409711D01*
X348211Y409318D01*
X348723Y409106D01*
X349277D01*
X349790Y409318D01*
X350182Y409711D01*
X350394Y410223D01*
Y410777D01*
X350182Y411290D01*
X349790Y411682D01*
X349277Y411894D01*
D02*
G37*
G36*
X343277D02*
X342723D01*
X342211Y411682D01*
X341818Y411290D01*
X341606Y410777D01*
Y410223D01*
X341818Y409711D01*
X342211Y409318D01*
X342723Y409106D01*
X343277D01*
X343790Y409318D01*
X344181Y409711D01*
X344394Y410223D01*
Y410777D01*
X344181Y411290D01*
X343790Y411682D01*
X343277Y411894D01*
D02*
G37*
G36*
X293693Y411261D02*
X293139D01*
X292626Y411048D01*
X292234Y410656D01*
X292022Y410144D01*
Y409589D01*
X292234Y409077D01*
X292626Y408685D01*
X293139Y408473D01*
X293693D01*
X294205Y408685D01*
X294597Y409077D01*
X294597Y409077D01*
X295139D01*
X295187Y408959D01*
X295580Y408567D01*
X296092Y408355D01*
X296646D01*
X297159Y408567D01*
X297551Y408959D01*
X297763Y409471D01*
Y410026D01*
X297551Y410538D01*
X297159Y410930D01*
X296646Y411142D01*
X296092D01*
X295580Y410930D01*
X295187Y410538D01*
X295187Y410538D01*
X294646D01*
X294597Y410656D01*
X294205Y411048D01*
X293693Y411261D01*
D02*
G37*
G36*
X223296Y421025D02*
X222742D01*
X222229Y420813D01*
X221837Y420421D01*
X221625Y419908D01*
Y419354D01*
X221837Y418842D01*
X222229Y418450D01*
X222742Y418237D01*
X223110D01*
X223399Y418048D01*
X223536Y417795D01*
Y417530D01*
X223418Y417313D01*
X223125Y417088D01*
X222742D01*
X222229Y416876D01*
X221837Y416483D01*
X221625Y415971D01*
Y415417D01*
X221837Y414905D01*
X222229Y414513D01*
X222742Y414300D01*
X223110D01*
X223399Y414111D01*
X223536Y413858D01*
Y413597D01*
X223409Y413372D01*
X223122Y413158D01*
X222734D01*
X222222Y412946D01*
X221830Y412554D01*
X221618Y412042D01*
Y411487D01*
X221830Y410975D01*
X222222Y410583D01*
X222734Y410371D01*
X223289D01*
X223316Y410382D01*
X223698Y409999D01*
X223606Y409777D01*
Y409223D01*
X223818Y408710D01*
X224211Y408319D01*
X224723Y408106D01*
X225277D01*
X225789Y408319D01*
X226182Y408710D01*
X226394Y409223D01*
Y409777D01*
X226182Y410289D01*
X225789Y410681D01*
X225277Y410894D01*
X224723D01*
X224696Y410883D01*
X224313Y411265D01*
X224405Y411487D01*
Y411911D01*
X224532Y412136D01*
X224818Y412350D01*
X225206D01*
X225719Y412563D01*
X226111Y412955D01*
X226323Y413467D01*
Y414021D01*
X226111Y414534D01*
X225719Y414925D01*
X225206Y415138D01*
X224838D01*
X224549Y415327D01*
X224412Y415580D01*
Y415845D01*
X224530Y416062D01*
X224823Y416287D01*
X225206D01*
X225719Y416500D01*
X226111Y416891D01*
X226323Y417404D01*
Y417958D01*
X226111Y418470D01*
X225719Y418862D01*
X225206Y419075D01*
X224838D01*
X224549Y419264D01*
X224412Y419517D01*
Y419908D01*
X224200Y420421D01*
X223808Y420813D01*
X223296Y421025D01*
D02*
G37*
G36*
X512622Y410933D02*
X512067D01*
X511555Y410721D01*
X511163Y410329D01*
X510951Y409817D01*
Y409401D01*
X510724Y409122D01*
X510520Y408996D01*
X510067D01*
X509555Y408784D01*
X509163Y408392D01*
X508951Y407880D01*
Y407325D01*
X509163Y406813D01*
X509555Y406421D01*
X510067Y406209D01*
X510622D01*
X511134Y406421D01*
X511526Y406813D01*
X511738Y407325D01*
Y407741D01*
X511965Y408019D01*
X512169Y408146D01*
X512622D01*
X513134Y408358D01*
X513526Y408750D01*
X513738Y409262D01*
Y409817D01*
X513526Y410329D01*
X513134Y410721D01*
X512622Y410933D01*
D02*
G37*
G36*
X223777Y407394D02*
X223223D01*
X222710Y407182D01*
X222319Y406789D01*
X222106Y406277D01*
Y405723D01*
X222319Y405210D01*
X222710Y404818D01*
X223223Y404606D01*
X223777D01*
X224289Y404818D01*
X224681Y405210D01*
X224894Y405723D01*
Y406277D01*
X224681Y406789D01*
X224289Y407182D01*
X223777Y407394D01*
D02*
G37*
G36*
X410777Y406894D02*
X410223D01*
X409711Y406681D01*
X409318Y406289D01*
X409106Y405777D01*
Y405223D01*
X409318Y404710D01*
X409711Y404319D01*
X410223Y404106D01*
X410777D01*
X411290Y404319D01*
X411682Y404710D01*
X411894Y405223D01*
Y405777D01*
X411682Y406289D01*
X411290Y406681D01*
X410777Y406894D01*
D02*
G37*
G36*
X348777D02*
X348223D01*
X347710Y406681D01*
X347319Y406289D01*
X347106Y405777D01*
Y405223D01*
X347319Y404710D01*
X347710Y404319D01*
X348223Y404106D01*
X348777D01*
X349289Y404319D01*
X349681Y404710D01*
X349894Y405223D01*
Y405777D01*
X349681Y406289D01*
X349289Y406681D01*
X348777Y406894D01*
D02*
G37*
G36*
X237357Y405383D02*
X236803D01*
X236290Y405171D01*
X235898Y404779D01*
X235686Y404267D01*
Y403713D01*
X235898Y403200D01*
X236290Y402808D01*
X236803Y402596D01*
X237357D01*
X237869Y402808D01*
X238261Y403200D01*
X238474Y403713D01*
Y404267D01*
X238261Y404779D01*
X237869Y405171D01*
X237357Y405383D01*
D02*
G37*
G36*
X527377Y404494D02*
X526823D01*
X526310Y404282D01*
X525918Y403890D01*
X525706Y403377D01*
Y402823D01*
X525918Y402311D01*
X526310Y401919D01*
X526823Y401706D01*
X527377D01*
X527889Y401919D01*
X528281Y402311D01*
X528494Y402823D01*
Y403377D01*
X528281Y403890D01*
X527889Y404282D01*
X527377Y404494D01*
D02*
G37*
G36*
X222873Y403315D02*
X222319D01*
X221806Y403103D01*
X221414Y402711D01*
X221202Y402199D01*
Y401645D01*
X221414Y401132D01*
X221806Y400740D01*
X222319Y400528D01*
X222873D01*
X223385Y400740D01*
X223777Y401132D01*
X223990Y401645D01*
Y402199D01*
X223777Y402711D01*
X223385Y403103D01*
X222873Y403315D01*
D02*
G37*
G36*
X278500Y400934D02*
X277569Y400749D01*
X277032Y400390D01*
X276981Y400363D01*
X275660Y399287D01*
X275620Y399303D01*
X275065D01*
X274553Y399091D01*
X274161Y398699D01*
X273949Y398187D01*
Y397632D01*
X274161Y397120D01*
X274553Y396728D01*
X275065Y396516D01*
X275620D01*
X276132Y396728D01*
X276524Y397120D01*
X276736Y397632D01*
X277236Y397767D01*
X277304Y397745D01*
X277319Y397710D01*
X277711Y397319D01*
X278223Y397106D01*
X278777D01*
X278980Y397190D01*
X279229Y396991D01*
X279387Y396818D01*
Y396311D01*
X279477Y396094D01*
X279151Y395594D01*
X279096D01*
X278584Y395381D01*
X278191Y394989D01*
X277979Y394477D01*
Y393922D01*
X278191Y393410D01*
X278584Y393018D01*
X279096Y392806D01*
X279650D01*
X280114Y392998D01*
X280162Y393018D01*
X280683Y392832D01*
X280694Y392805D01*
X281086Y392413D01*
X281599Y392200D01*
X282153D01*
X282533Y391817D01*
Y391760D01*
X282745Y391248D01*
X283137Y390856D01*
X283649Y390644D01*
X284204D01*
X284707Y390852D01*
X285178Y390712D01*
X285364Y390170D01*
X285244Y389880D01*
Y389326D01*
X285456Y388814D01*
X285848Y388422D01*
X285976Y388368D01*
X286071Y387788D01*
X285884Y387600D01*
X285672Y387088D01*
Y386534D01*
X285884Y386021D01*
X286142Y385764D01*
X286207Y385412D01*
X286125Y385151D01*
X285843Y384869D01*
X285631Y384357D01*
Y383803D01*
X285843Y383290D01*
X286005Y383129D01*
X286168Y382775D01*
X286005Y382476D01*
X285819Y382290D01*
X285606Y381777D01*
Y381223D01*
X285819Y380711D01*
X286210Y380318D01*
X286723Y380106D01*
X286760D01*
X289930Y374148D01*
X289928Y374142D01*
X289928Y374142D01*
X290557Y373116D01*
X290759Y372786D01*
X290829Y372703D01*
X290838Y372710D01*
X290838Y372710D01*
X299188Y361443D01*
X299019Y360832D01*
X298922Y360792D01*
X298530Y360400D01*
X298408Y360104D01*
X297866D01*
X297744Y360400D01*
X297352Y360792D01*
X296839Y361004D01*
X296285D01*
X295773Y360792D01*
X295381Y360400D01*
X295258Y360104D01*
X294717D01*
X294594Y360400D01*
X294202Y360792D01*
X293690Y361004D01*
X293135D01*
X292623Y360792D01*
X292231Y360400D01*
X292052Y359968D01*
X291765Y359903D01*
X291532Y359918D01*
X291494Y360010D01*
X291102Y360402D01*
X290589Y360614D01*
X290035D01*
X289523Y360402D01*
X289130Y360010D01*
X289007Y359712D01*
X288507Y359811D01*
Y359887D01*
X288295Y360400D01*
X287903Y360792D01*
X287391Y361004D01*
X286836D01*
X286324Y360792D01*
X285932Y360400D01*
X285720Y359887D01*
Y359333D01*
X285932Y358821D01*
X286324Y358429D01*
X286836Y358217D01*
X287391D01*
X287903Y358429D01*
X288295Y358821D01*
X288418Y359119D01*
X288918Y359019D01*
Y358943D01*
X289130Y358431D01*
X289523Y358039D01*
X290035Y357827D01*
X290589D01*
X291102Y358039D01*
X291494Y358431D01*
X291672Y358863D01*
X291960Y358927D01*
X292193Y358913D01*
X292231Y358821D01*
X292623Y358429D01*
X293135Y358217D01*
X293690D01*
X294202Y358429D01*
X294594Y358821D01*
X294717Y359117D01*
X295258D01*
X295381Y358821D01*
X295773Y358429D01*
X296285Y358217D01*
X296839D01*
X297352Y358429D01*
X297744Y358821D01*
X297866Y359117D01*
X298408D01*
X298530Y358821D01*
X298922Y358429D01*
X299435Y358217D01*
X299989D01*
X300067Y358249D01*
X300492Y357985D01*
X300601Y356341D01*
X300601Y356341D01*
X300598Y356340D01*
X300743Y355608D01*
X300764Y355616D01*
X301214Y354479D01*
X301033Y354044D01*
Y353490D01*
X301246Y352978D01*
X301638Y352586D01*
X302150Y352373D01*
X302704D01*
X303217Y352586D01*
X303609Y352978D01*
X303821Y353490D01*
Y354044D01*
X303609Y354557D01*
X303506Y354660D01*
X303623Y355250D01*
X303789Y355318D01*
X304182Y355711D01*
X304394Y356223D01*
Y356566D01*
X304471Y356822D01*
X304831Y357028D01*
X305088D01*
X305601Y357240D01*
X305993Y357632D01*
X306205Y358144D01*
Y358335D01*
X306342Y358639D01*
X306846Y358711D01*
X307096Y358419D01*
X307128Y358329D01*
X307106Y358277D01*
Y357723D01*
X307318Y357210D01*
X307711Y356819D01*
X308223Y356606D01*
X308777D01*
X309290Y356819D01*
X309682Y357210D01*
X309894Y357723D01*
Y358277D01*
X309693Y358762D01*
X309741Y358860D01*
X310004Y359174D01*
X310228Y359082D01*
X310782D01*
X311294Y359294D01*
X311686Y359686D01*
X311899Y360198D01*
Y360752D01*
X311686Y361265D01*
X311427Y361524D01*
X311296Y361665D01*
X311403Y362153D01*
X311505Y362254D01*
X311670Y362652D01*
X312055Y362802D01*
X312210Y362819D01*
X312723Y362606D01*
X313277D01*
X313790Y362819D01*
X314181Y363211D01*
X314394Y363723D01*
Y364277D01*
X314181Y364790D01*
X313790Y365181D01*
X313277Y365394D01*
X312723D01*
X312551Y365322D01*
X311328Y366113D01*
X311262Y366752D01*
X311370Y366860D01*
X311582Y367372D01*
Y367675D01*
X312004Y367791D01*
X312082Y367794D01*
X312460Y367417D01*
X312972Y367204D01*
X313526D01*
X314039Y367417D01*
X314431Y367809D01*
X314643Y368321D01*
Y368876D01*
X314431Y369388D01*
X314039Y369780D01*
X313526Y369992D01*
X312972D01*
X312734Y369894D01*
X311353Y370687D01*
X311270Y371311D01*
X311325Y371366D01*
X311537Y371879D01*
Y372433D01*
X311325Y372945D01*
X310933Y373337D01*
X310420Y373550D01*
X309866D01*
X309354Y373337D01*
X308962Y372945D01*
X308916Y372834D01*
X308303Y372660D01*
X302778Y376660D01*
X302770Y376767D01*
X302881Y377203D01*
X303252Y377356D01*
X303644Y377748D01*
X303856Y378261D01*
Y378815D01*
X303644Y379327D01*
X303252Y379719D01*
X302739Y379932D01*
X302185D01*
X301950Y379834D01*
X301875Y379885D01*
X301862Y379918D01*
X301859Y379969D01*
X302111Y380501D01*
X302269Y380566D01*
X302661Y380958D01*
X302873Y381470D01*
Y382025D01*
X302661Y382537D01*
X302269Y382929D01*
X301757Y383141D01*
X301203D01*
X300690Y382929D01*
X300298Y382537D01*
X300086Y382025D01*
Y381470D01*
X300118Y381394D01*
X299784Y380894D01*
X299723D01*
X299626Y380854D01*
X299074Y381166D01*
X297052Y394768D01*
X297026Y394840D01*
X296969Y395271D01*
X296527Y396338D01*
X296295Y396641D01*
X296424Y397124D01*
X296465Y397141D01*
X296857Y397533D01*
X297069Y398045D01*
Y398600D01*
X296857Y399112D01*
X296465Y399504D01*
X295952Y399716D01*
X295398D01*
X294886Y399504D01*
X294494Y399112D01*
X294281Y398600D01*
X294131Y398499D01*
X293781Y398408D01*
X293472Y398448D01*
X293413Y398471D01*
X278892Y400872D01*
X278824Y400870D01*
X278500Y400934D01*
D02*
G37*
G36*
X241654Y402081D02*
X240946D01*
X240291Y401810D01*
X239790Y401309D01*
X239519Y400654D01*
Y399946D01*
X239790Y399291D01*
X240291Y398790D01*
X240946Y398519D01*
X241654D01*
X242309Y398790D01*
X242810Y399291D01*
X243081Y399946D01*
Y400654D01*
X242810Y401309D01*
X242309Y401810D01*
X241654Y402081D01*
D02*
G37*
G36*
X236753Y401252D02*
X236198D01*
X235686Y401040D01*
X235294Y400648D01*
X235082Y400135D01*
Y399581D01*
X235294Y399069D01*
X235686Y398677D01*
X236198Y398464D01*
X236753D01*
X237265Y398677D01*
X237657Y399069D01*
X237869Y399581D01*
Y400135D01*
X237657Y400648D01*
X237265Y401040D01*
X236753Y401252D01*
D02*
G37*
G36*
X201919Y401140D02*
X201364D01*
X200852Y400928D01*
X200460Y400535D01*
X200248Y400023D01*
Y399469D01*
X200460Y398957D01*
X200852Y398565D01*
X201364Y398352D01*
X201919D01*
X202431Y398565D01*
X202823Y398957D01*
X203035Y399469D01*
Y400023D01*
X202823Y400535D01*
X202431Y400928D01*
X201919Y401140D01*
D02*
G37*
G36*
X417470Y400915D02*
X416916D01*
X416403Y400703D01*
X416011Y400311D01*
X415799Y399799D01*
Y399244D01*
X416011Y398732D01*
X416403Y398340D01*
X416916Y398128D01*
X417470D01*
X417982Y398340D01*
X418374Y398732D01*
X418587Y399244D01*
Y399799D01*
X418374Y400311D01*
X417982Y400703D01*
X417470Y400915D01*
D02*
G37*
G36*
X251754Y401681D02*
X251046D01*
X250391Y401410D01*
X249890Y400909D01*
X249619Y400254D01*
Y399546D01*
X249890Y398891D01*
X250391Y398390D01*
X251046Y398119D01*
X251754D01*
X252409Y398390D01*
X252910Y398891D01*
X253181Y399546D01*
Y400254D01*
X252910Y400909D01*
X252409Y401410D01*
X251754Y401681D01*
D02*
G37*
G36*
X428849Y403131D02*
X428295D01*
X427783Y402919D01*
X427391Y402527D01*
X427178Y402014D01*
Y401460D01*
X427206Y401394D01*
X426872Y400894D01*
X426729D01*
X426217Y400681D01*
X425824Y400289D01*
X425612Y399777D01*
Y399223D01*
X425824Y398710D01*
X426217Y398319D01*
X426729Y398106D01*
X427283D01*
X427796Y398319D01*
X428188Y398710D01*
X428400Y399223D01*
Y399777D01*
X428372Y399843D01*
X428706Y400344D01*
X428849D01*
X429362Y400556D01*
X429754Y400948D01*
X429966Y401460D01*
Y402014D01*
X429754Y402527D01*
X429362Y402919D01*
X428849Y403131D01*
D02*
G37*
G36*
X312208Y404851D02*
X311654D01*
X311142Y404639D01*
X310750Y404247D01*
X310538Y403734D01*
Y403180D01*
X310750Y402668D01*
X311142Y402276D01*
X311654Y402064D01*
X312208D01*
X312255Y402083D01*
X312538Y401659D01*
X312318Y401439D01*
X312106Y400927D01*
Y400372D01*
X312318Y399860D01*
X312490Y399689D01*
X312656Y399362D01*
X312490Y399036D01*
X312318Y398864D01*
X312106Y398352D01*
Y397798D01*
X312312Y397301D01*
X312284Y397241D01*
X312013Y396884D01*
X311925Y396920D01*
X311371D01*
X310859Y396708D01*
X310467Y396316D01*
X310254Y395804D01*
Y395249D01*
X310467Y394737D01*
X310859Y394345D01*
X311371Y394133D01*
X311925D01*
X312438Y394345D01*
X312830Y394737D01*
X313042Y395249D01*
Y395804D01*
X312836Y396300D01*
X312864Y396361D01*
X313135Y396717D01*
X313223Y396681D01*
X313777D01*
X314289Y396893D01*
X314682Y397285D01*
X314894Y397798D01*
Y398352D01*
X314682Y398864D01*
X314510Y399036D01*
X314344Y399362D01*
X314510Y399689D01*
X314682Y399860D01*
X314894Y400372D01*
Y400927D01*
X314682Y401439D01*
X314289Y401831D01*
X313777Y402043D01*
X313223D01*
X313176Y402024D01*
X312893Y402448D01*
X313113Y402668D01*
X313325Y403180D01*
Y403734D01*
X313113Y404247D01*
X312721Y404639D01*
X312208Y404851D01*
D02*
G37*
G36*
X225670Y399382D02*
X225115D01*
X224603Y399170D01*
X224211Y398778D01*
X223999Y398265D01*
Y397711D01*
X224211Y397199D01*
X224603Y396807D01*
X225115Y396594D01*
X225670D01*
X226182Y396807D01*
X226574Y397199D01*
X226786Y397711D01*
Y398265D01*
X226574Y398778D01*
X226182Y399170D01*
X225670Y399382D01*
D02*
G37*
G36*
X441215Y399157D02*
X440660D01*
X440148Y398945D01*
X439756Y398553D01*
X439544Y398041D01*
Y397486D01*
X439756Y396974D01*
X440148Y396582D01*
X440660Y396370D01*
X441215D01*
X441727Y396582D01*
X442119Y396974D01*
X442332Y397486D01*
Y398041D01*
X442119Y398553D01*
X441727Y398945D01*
X441215Y399157D01*
D02*
G37*
G36*
X526777Y400894D02*
X526223D01*
X525710Y400681D01*
X525318Y400289D01*
X525106Y399777D01*
Y399223D01*
X525318Y398710D01*
X525710Y398319D01*
X526223Y398106D01*
X526728D01*
X526875Y397928D01*
X527006Y397660D01*
X526806Y397177D01*
Y396623D01*
X527018Y396111D01*
X527411Y395719D01*
X527923Y395506D01*
X528477D01*
X528990Y395719D01*
X529382Y396111D01*
X529594Y396623D01*
Y397177D01*
X529382Y397690D01*
X528990Y398081D01*
X528477Y398294D01*
X527972D01*
X527825Y398472D01*
X527694Y398740D01*
X527894Y399223D01*
Y399777D01*
X527681Y400289D01*
X527289Y400681D01*
X526777Y400894D01*
D02*
G37*
G36*
X338977Y397594D02*
X338423D01*
X337911Y397381D01*
X337519Y396989D01*
X337306Y396477D01*
Y395923D01*
X337519Y395410D01*
X337911Y395019D01*
X338423Y394806D01*
X338977D01*
X339490Y395019D01*
X339881Y395410D01*
X340094Y395923D01*
Y396477D01*
X339881Y396989D01*
X339490Y397381D01*
X338977Y397594D01*
D02*
G37*
G36*
X523438Y397155D02*
X522884D01*
X522371Y396943D01*
X521979Y396551D01*
X521767Y396039D01*
Y395484D01*
X521979Y394972D01*
X522371Y394580D01*
X522884Y394368D01*
X523438D01*
X523950Y394580D01*
X524342Y394972D01*
X524554Y395484D01*
Y396039D01*
X524342Y396551D01*
X523950Y396943D01*
X523438Y397155D01*
D02*
G37*
G36*
X224132Y395555D02*
X223578D01*
X223066Y395343D01*
X222674Y394951D01*
X222461Y394439D01*
Y393884D01*
X222674Y393372D01*
X223066Y392980D01*
X223578Y392768D01*
X224132D01*
X224644Y392980D01*
X225037Y393372D01*
X225249Y393884D01*
Y394439D01*
X225037Y394951D01*
X224644Y395343D01*
X224132Y395555D01*
D02*
G37*
G36*
X512622Y395185D02*
X512067D01*
X511555Y394973D01*
X511163Y394581D01*
X510951Y394069D01*
Y393514D01*
X511163Y393002D01*
X511555Y392610D01*
X512067Y392398D01*
X512622D01*
X513134Y392610D01*
X513526Y393002D01*
X513738Y393514D01*
Y394069D01*
X513526Y394581D01*
X513134Y394973D01*
X512622Y395185D01*
D02*
G37*
G36*
X438639Y393849D02*
X438084D01*
X437572Y393637D01*
X437180Y393245D01*
X436968Y392733D01*
Y392178D01*
X437180Y391666D01*
X437572Y391274D01*
X438084Y391061D01*
X438639D01*
X439151Y391274D01*
X439543Y391666D01*
X439755Y392178D01*
Y392733D01*
X439543Y393245D01*
X439151Y393637D01*
X438639Y393849D01*
D02*
G37*
G36*
X504614Y393331D02*
X504059D01*
X503547Y393119D01*
X503155Y392726D01*
X502943Y392214D01*
Y391660D01*
X503155Y391147D01*
X503547Y390756D01*
X504059Y390543D01*
X504614D01*
X505126Y390756D01*
X505518Y391147D01*
X505730Y391660D01*
Y392214D01*
X505518Y392726D01*
X505126Y393119D01*
X504614Y393331D01*
D02*
G37*
G36*
X400777Y392194D02*
X400223D01*
X399710Y391982D01*
X399319Y391589D01*
X399106Y391077D01*
Y390523D01*
X399319Y390010D01*
X399710Y389618D01*
X400223Y389406D01*
X400777D01*
X401290Y389618D01*
X401682Y390010D01*
X401894Y390523D01*
Y391077D01*
X401682Y391589D01*
X401290Y391982D01*
X400777Y392194D01*
D02*
G37*
G36*
X384651Y396412D02*
X383466D01*
X382321Y396105D01*
X381295Y395513D01*
X380457Y394675D01*
X379865Y393649D01*
X379558Y392504D01*
Y391319D01*
X379865Y390175D01*
X380457Y389149D01*
X381295Y388311D01*
X382321Y387718D01*
X383466Y387412D01*
X384651D01*
X385795Y387718D01*
X386821Y388311D01*
X387659Y389149D01*
X388252Y390175D01*
X388558Y391319D01*
Y392504D01*
X388252Y393649D01*
X387659Y394675D01*
X386821Y395513D01*
X385795Y396105D01*
X384651Y396412D01*
D02*
G37*
G36*
X349584Y396361D02*
X348399D01*
X347254Y396055D01*
X346228Y395462D01*
X345390Y394624D01*
X344798Y393598D01*
X344491Y392454D01*
Y391269D01*
X344798Y390125D01*
X345390Y389098D01*
X346228Y388261D01*
X347254Y387668D01*
X348399Y387361D01*
X349584D01*
X350728Y387668D01*
X351754Y388261D01*
X352592Y389098D01*
X353185Y390125D01*
X353491Y391269D01*
Y392454D01*
X353185Y393598D01*
X352592Y394624D01*
X351754Y395462D01*
X350728Y396055D01*
X349584Y396361D01*
D02*
G37*
G36*
X411733Y390007D02*
X411178D01*
X410666Y389795D01*
X410274Y389403D01*
X410062Y388891D01*
Y388336D01*
X410274Y387824D01*
X410666Y387432D01*
X411178Y387220D01*
X411733D01*
X412245Y387432D01*
X412637Y387824D01*
X412849Y388336D01*
Y388891D01*
X412637Y389403D01*
X412245Y389795D01*
X411733Y390007D01*
D02*
G37*
G36*
X233777Y392894D02*
X233223D01*
X232711Y392682D01*
X232318Y392289D01*
X232106Y391777D01*
Y391223D01*
X232318Y390710D01*
X232711Y390318D01*
X232899Y390240D01*
X232948Y390024D01*
X232945Y389680D01*
X232618Y389353D01*
X232406Y388841D01*
Y388286D01*
X232618Y387774D01*
X233010Y387382D01*
X233522Y387170D01*
X234077D01*
X234589Y387382D01*
X234981Y387774D01*
X235193Y388286D01*
Y388841D01*
X234981Y389353D01*
X234589Y389745D01*
X234400Y389823D01*
X234352Y390039D01*
X234354Y390383D01*
X234682Y390710D01*
X234894Y391223D01*
Y391777D01*
X234682Y392289D01*
X234290Y392682D01*
X233777Y392894D01*
D02*
G37*
G36*
X439277Y389894D02*
X438723D01*
X438210Y389682D01*
X437818Y389289D01*
X437606Y388777D01*
Y388223D01*
X437743Y387894D01*
X437731Y387594D01*
X437514Y387307D01*
X437211Y387181D01*
X436819Y386789D01*
X436606Y386277D01*
Y385723D01*
X436819Y385210D01*
X437211Y384819D01*
X437723Y384606D01*
X438277D01*
X438790Y384819D01*
X439182Y385210D01*
X439394Y385723D01*
Y386277D01*
X439257Y386606D01*
X439269Y386906D01*
X439486Y387193D01*
X439789Y387318D01*
X440181Y387710D01*
X440394Y388223D01*
Y388777D01*
X440181Y389289D01*
X439789Y389682D01*
X439277Y389894D01*
D02*
G37*
G36*
X267156Y387142D02*
X266601D01*
X266089Y386930D01*
X265697Y386538D01*
X265485Y386026D01*
Y385471D01*
X265697Y384959D01*
X266089Y384567D01*
X266601Y384355D01*
X267156D01*
X267668Y384567D01*
X268060Y384959D01*
X268272Y385471D01*
Y386026D01*
X268060Y386538D01*
X267668Y386930D01*
X267156Y387142D01*
D02*
G37*
G36*
X482701Y386750D02*
X482147D01*
X481634Y386538D01*
X481242Y386146D01*
X481030Y385633D01*
Y385079D01*
X481242Y384567D01*
X481634Y384175D01*
X482147Y383963D01*
X482701D01*
X483213Y384175D01*
X483605Y384567D01*
X483817Y385079D01*
Y385633D01*
X483605Y386146D01*
X483213Y386538D01*
X482701Y386750D01*
D02*
G37*
G36*
X249471Y384856D02*
X248916D01*
X248404Y384644D01*
X248012Y384252D01*
X247806Y383754D01*
X247528Y383649D01*
X247499Y383640D01*
X247300Y383620D01*
X246943Y383977D01*
X246430Y384189D01*
X245876D01*
X245364Y383977D01*
X244972Y383585D01*
X244935Y383496D01*
X244413Y383543D01*
X244261Y383911D01*
X243869Y384303D01*
X243356Y384515D01*
X242802D01*
X242290Y384303D01*
X241898Y383911D01*
X241686Y383399D01*
Y382957D01*
X241494Y382708D01*
X241268Y382546D01*
X240955D01*
X240692Y382735D01*
X240538Y382972D01*
Y383401D01*
X240326Y383913D01*
X239934Y384305D01*
X239422Y384518D01*
X238867D01*
X238355Y384305D01*
X237963Y383913D01*
X237751Y383401D01*
Y382959D01*
X237559Y382710D01*
X237333Y382548D01*
X237019D01*
X236758Y382734D01*
X236601Y382974D01*
Y383401D01*
X236389Y383913D01*
X235997Y384305D01*
X235485Y384518D01*
X234930D01*
X234418Y384305D01*
X234026Y383913D01*
X233814Y383401D01*
Y382959D01*
X233622Y382710D01*
X233396Y382548D01*
X232944D01*
X232431Y382336D01*
X232166Y382071D01*
X231669Y382106D01*
X231597Y382138D01*
X231205Y382530D01*
X230693Y382742D01*
X230138D01*
X229626Y382530D01*
X229234Y382138D01*
X229022Y381626D01*
Y381071D01*
X229234Y380559D01*
X229626Y380167D01*
X230138Y379955D01*
X230693D01*
X231205Y380167D01*
X231470Y380432D01*
X231967Y380397D01*
X232039Y380365D01*
X232431Y379973D01*
X232944Y379761D01*
X233498D01*
X234010Y379973D01*
X234402Y380365D01*
X234614Y380877D01*
Y381320D01*
X234806Y381568D01*
X235032Y381730D01*
X235347D01*
X235607Y381544D01*
X235764Y381305D01*
Y380877D01*
X235976Y380365D01*
X236368Y379973D01*
X236881Y379761D01*
X237435D01*
X237947Y379973D01*
X238339Y380365D01*
X238551Y380877D01*
Y381320D01*
X238743Y381568D01*
X238969Y381730D01*
X239282D01*
X239545Y381541D01*
X239699Y381304D01*
Y380875D01*
X239911Y380363D01*
X240303Y379971D01*
X240815Y379759D01*
X241370D01*
X241882Y379971D01*
X242274Y380363D01*
X242486Y380875D01*
Y381317D01*
X242678Y381566D01*
X242904Y381728D01*
X243356D01*
X243869Y381940D01*
X244261Y382332D01*
X244298Y382421D01*
X244819Y382374D01*
X244972Y382006D01*
X245364Y381614D01*
X245876Y381402D01*
X246430D01*
X246943Y381614D01*
X247335Y382006D01*
X247541Y382504D01*
X247819Y382609D01*
X247848Y382618D01*
X248047Y382638D01*
X248404Y382281D01*
X248916Y382069D01*
X249471D01*
X249983Y382281D01*
X250375Y382673D01*
X250587Y383185D01*
Y383740D01*
X250375Y384252D01*
X249983Y384644D01*
X249471Y384856D01*
D02*
G37*
G36*
X271069Y386055D02*
X270514D01*
X270002Y385843D01*
X269610Y385451D01*
X269398Y384939D01*
Y384384D01*
X269610Y383872D01*
X270002Y383480D01*
X270514Y383268D01*
X271069D01*
X271581Y383480D01*
X271973Y383872D01*
X272185Y384384D01*
Y384939D01*
X271973Y385451D01*
X271581Y385843D01*
X271069Y386055D01*
D02*
G37*
G36*
X259069D02*
X258514D01*
X258002Y385843D01*
X257610Y385451D01*
X257398Y384939D01*
Y384384D01*
X257610Y383872D01*
X258002Y383480D01*
X258514Y383268D01*
X259069D01*
X259581Y383480D01*
X259973Y383872D01*
X260185Y384384D01*
Y384939D01*
X259973Y385451D01*
X259581Y385843D01*
X259069Y386055D01*
D02*
G37*
G36*
X486614Y385831D02*
X486059D01*
X485547Y385618D01*
X485155Y385226D01*
X484943Y384714D01*
Y384160D01*
X485155Y383647D01*
X485547Y383256D01*
X486059Y383043D01*
X486614D01*
X487126Y383256D01*
X487518Y383647D01*
X487730Y384160D01*
Y384714D01*
X487518Y385226D01*
X487126Y385618D01*
X486614Y385831D01*
D02*
G37*
G36*
X474614D02*
X474059D01*
X473547Y385618D01*
X473155Y385226D01*
X472943Y384714D01*
Y384160D01*
X473155Y383647D01*
X473547Y383256D01*
X474059Y383043D01*
X474614D01*
X475126Y383256D01*
X475518Y383647D01*
X475730Y384160D01*
Y384714D01*
X475518Y385226D01*
X475126Y385618D01*
X474614Y385831D01*
D02*
G37*
G36*
X254615Y385688D02*
X254061D01*
X253549Y385476D01*
X253157Y385084D01*
X252944Y384572D01*
Y384017D01*
X253157Y383505D01*
X253549Y383113D01*
X254061Y382901D01*
X254615D01*
X255128Y383113D01*
X255520Y383505D01*
X255732Y384017D01*
Y384572D01*
X255520Y385084D01*
X255128Y385476D01*
X254615Y385688D01*
D02*
G37*
G36*
X350765Y385054D02*
X350211D01*
X349699Y384842D01*
X349307Y384450D01*
X349095Y383938D01*
Y383383D01*
X349307Y382871D01*
X349699Y382479D01*
X350211Y382267D01*
X350765D01*
X351278Y382479D01*
X351670Y382871D01*
X351882Y383383D01*
Y383938D01*
X351670Y384450D01*
X351278Y384842D01*
X350765Y385054D01*
D02*
G37*
G36*
X307369Y393430D02*
X306814D01*
X306302Y393218D01*
X305910Y392826D01*
X305698Y392314D01*
Y391759D01*
X305910Y391247D01*
X306302Y390855D01*
X306729Y390678D01*
X306737Y390638D01*
X306737Y390217D01*
X306729Y390178D01*
X306302Y390001D01*
X305910Y389609D01*
X305697Y389096D01*
Y388542D01*
X305910Y388030D01*
X306136Y387804D01*
X306248Y387485D01*
X306136Y387165D01*
X305910Y386940D01*
X305697Y386427D01*
Y385873D01*
X305910Y385361D01*
X306119Y385152D01*
X306246Y384827D01*
X306119Y384503D01*
X305910Y384294D01*
X305697Y383782D01*
Y383227D01*
X305910Y382715D01*
X306302Y382323D01*
X306814Y382111D01*
X307368D01*
X307881Y382323D01*
X308273Y382715D01*
X308485Y383227D01*
Y383782D01*
X308273Y384294D01*
X308064Y384503D01*
X307936Y384827D01*
X308064Y385152D01*
X308273Y385361D01*
X308485Y385873D01*
Y386427D01*
X308273Y386940D01*
X308047Y387165D01*
X307934Y387485D01*
X308047Y387804D01*
X308273Y388030D01*
X308485Y388542D01*
Y389096D01*
X308273Y389609D01*
X307881Y390001D01*
X307453Y390178D01*
X307446Y390218D01*
X307446Y390638D01*
X307453Y390678D01*
X307881Y390855D01*
X308273Y391247D01*
X308485Y391759D01*
Y392314D01*
X308273Y392826D01*
X307881Y393218D01*
X307369Y393430D01*
D02*
G37*
G36*
X466763Y384807D02*
X466209D01*
X465697Y384595D01*
X465305Y384203D01*
X465093Y383691D01*
Y383136D01*
X465305Y382624D01*
X465697Y382232D01*
X466209Y382020D01*
X466763D01*
X467276Y382232D01*
X467668Y382624D01*
X467880Y383136D01*
Y383691D01*
X467668Y384203D01*
X467276Y384595D01*
X466763Y384807D01*
D02*
G37*
G36*
X413277Y383894D02*
X412723D01*
X412211Y383682D01*
X411819Y383290D01*
X411606Y382777D01*
Y382223D01*
X411819Y381711D01*
X412211Y381318D01*
X412723Y381106D01*
X413277D01*
X413790Y381318D01*
X414182Y381711D01*
X414394Y382223D01*
Y382777D01*
X414182Y383290D01*
X413790Y383682D01*
X413277Y383894D01*
D02*
G37*
G36*
X471614Y383831D02*
X471059D01*
X470547Y383618D01*
X470155Y383226D01*
X469943Y382714D01*
Y382160D01*
X470155Y381647D01*
X470547Y381256D01*
X471059Y381043D01*
X471614D01*
X472126Y381256D01*
X472518Y381647D01*
X472730Y382160D01*
Y382714D01*
X472518Y383226D01*
X472126Y383618D01*
X471614Y383831D01*
D02*
G37*
G36*
X426620Y382365D02*
X426065D01*
X425553Y382153D01*
X425161Y381761D01*
X424949Y381248D01*
Y381155D01*
X424449Y380821D01*
X424433Y380827D01*
X423878D01*
X423366Y380615D01*
X422974Y380223D01*
X422762Y379711D01*
Y379156D01*
X422974Y378644D01*
X423366Y378252D01*
X423878Y378040D01*
X424433D01*
X424945Y378252D01*
X425337Y378644D01*
X425549Y379156D01*
Y379250D01*
X426049Y379584D01*
X426065Y379577D01*
X426620D01*
X427132Y379790D01*
X427524Y380182D01*
X427736Y380694D01*
Y381248D01*
X427524Y381761D01*
X427132Y382153D01*
X426620Y382365D01*
D02*
G37*
G36*
X278777Y385032D02*
X278223D01*
X277711Y384819D01*
X277319Y384427D01*
X277106Y383915D01*
Y383436D01*
X276925Y383213D01*
X276701Y383032D01*
X276223D01*
X275711Y382819D01*
X275319Y382427D01*
X275106Y381915D01*
Y381361D01*
X275319Y380848D01*
X275711Y380456D01*
X276223Y380244D01*
X276777D01*
X277290Y380456D01*
X277681Y380848D01*
X277894Y381361D01*
Y381839D01*
X278075Y382063D01*
X278299Y382244D01*
X278638D01*
X278917Y382018D01*
X279043Y381813D01*
Y381361D01*
X279256Y380848D01*
X279647Y380456D01*
X280160Y380244D01*
X280714D01*
X281226Y380456D01*
X281618Y380848D01*
X281831Y381361D01*
Y381915D01*
X281618Y382427D01*
X281226Y382819D01*
X280714Y383032D01*
X280299D01*
X280020Y383258D01*
X279894Y383463D01*
Y383915D01*
X279681Y384427D01*
X279290Y384819D01*
X278777Y385032D01*
D02*
G37*
G36*
X269041Y383032D02*
X268487D01*
X267974Y382819D01*
X267582Y382427D01*
X267370Y381915D01*
Y381361D01*
X267582Y380848D01*
X267974Y380456D01*
X268487Y380244D01*
X269041D01*
X269553Y380456D01*
X269945Y380848D01*
X270158Y381361D01*
Y381915D01*
X269945Y382427D01*
X269553Y382819D01*
X269041Y383032D01*
D02*
G37*
G36*
X263029Y385032D02*
X262475D01*
X261963Y384819D01*
X261570Y384427D01*
X261358Y383915D01*
Y383436D01*
X261177Y383213D01*
X260953Y383032D01*
X260475D01*
X259963Y382819D01*
X259570Y382427D01*
X259358Y381915D01*
Y381361D01*
X259570Y380848D01*
X259963Y380456D01*
X260475Y380244D01*
X261029D01*
X261541Y380456D01*
X261933Y380848D01*
X262146Y381361D01*
Y381839D01*
X262327Y382063D01*
X262551Y382244D01*
X262890D01*
X263169Y382018D01*
X263295Y381813D01*
Y381361D01*
X263508Y380848D01*
X263899Y380456D01*
X264412Y380244D01*
X264966D01*
X265478Y380456D01*
X265870Y380848D01*
X266083Y381361D01*
Y381915D01*
X265870Y382427D01*
X265478Y382819D01*
X264966Y383032D01*
X264551D01*
X264272Y383258D01*
X264146Y383463D01*
Y383915D01*
X263933Y384427D01*
X263541Y384819D01*
X263029Y385032D01*
D02*
G37*
G36*
X494322Y384807D02*
X493768D01*
X493256Y384595D01*
X492864Y384203D01*
X492652Y383691D01*
Y383212D01*
X492470Y382989D01*
X492247Y382807D01*
X491768D01*
X491256Y382595D01*
X490864Y382203D01*
X490652Y381691D01*
Y381136D01*
X490864Y380624D01*
X491256Y380232D01*
X491768Y380020D01*
X492322D01*
X492835Y380232D01*
X493227Y380624D01*
X493439Y381136D01*
Y381615D01*
X493620Y381838D01*
X493844Y382020D01*
X494184D01*
X494462Y381793D01*
X494589Y381589D01*
Y381136D01*
X494801Y380624D01*
X495193Y380232D01*
X495705Y380020D01*
X496259D01*
X496772Y380232D01*
X497164Y380624D01*
X497376Y381136D01*
Y381691D01*
X497164Y382203D01*
X496772Y382595D01*
X496259Y382807D01*
X495844D01*
X495565Y383033D01*
X495439Y383238D01*
Y383691D01*
X495227Y384203D01*
X494835Y384595D01*
X494322Y384807D01*
D02*
G37*
G36*
X484586Y382807D02*
X484032D01*
X483520Y382595D01*
X483127Y382203D01*
X482915Y381691D01*
Y381136D01*
X483127Y380624D01*
X483520Y380232D01*
X484032Y380020D01*
X484586D01*
X485099Y380232D01*
X485491Y380624D01*
X485703Y381136D01*
Y381691D01*
X485491Y382203D01*
X485099Y382595D01*
X484586Y382807D01*
D02*
G37*
G36*
X478575Y384807D02*
X478020D01*
X477508Y384595D01*
X477116Y384203D01*
X476903Y383691D01*
Y383212D01*
X476722Y382989D01*
X476499Y382807D01*
X476020D01*
X475508Y382595D01*
X475116Y382203D01*
X474903Y381691D01*
Y381136D01*
X475116Y380624D01*
X475508Y380232D01*
X476020Y380020D01*
X476575D01*
X477087Y380232D01*
X477479Y380624D01*
X477691Y381136D01*
Y381615D01*
X477873Y381838D01*
X478096Y382020D01*
X478436D01*
X478714Y381793D01*
X478840Y381589D01*
Y381136D01*
X479053Y380624D01*
X479445Y380232D01*
X479957Y380020D01*
X480512D01*
X481024Y380232D01*
X481416Y380624D01*
X481628Y381136D01*
Y381691D01*
X481416Y382203D01*
X481024Y382595D01*
X480512Y382807D01*
X480096D01*
X479817Y383033D01*
X479691Y383238D01*
Y383691D01*
X479479Y384203D01*
X479087Y384595D01*
X478575Y384807D01*
D02*
G37*
G36*
X454952D02*
X454398D01*
X453886Y384595D01*
X453494Y384203D01*
X453281Y383691D01*
Y383212D01*
X453100Y382989D01*
X452877Y382807D01*
X452398D01*
X451886Y382595D01*
X451494Y382203D01*
X451281Y381691D01*
Y381136D01*
X451494Y380624D01*
X451886Y380232D01*
X452398Y380020D01*
X452952D01*
X453465Y380232D01*
X453857Y380624D01*
X454069Y381136D01*
Y381615D01*
X454250Y381838D01*
X454474Y382020D01*
X454952D01*
X455465Y382232D01*
X455857Y382624D01*
X456069Y383136D01*
Y383691D01*
X455857Y384203D01*
X455465Y384595D01*
X454952Y384807D01*
D02*
G37*
G36*
X211091Y382533D02*
X210536D01*
X210024Y382321D01*
X209632Y381929D01*
X209420Y381417D01*
Y380862D01*
X209632Y380350D01*
X210024Y379958D01*
X210536Y379746D01*
X211091D01*
X211603Y379958D01*
X211995Y380350D01*
X212207Y380862D01*
Y381417D01*
X211995Y381929D01*
X211603Y382321D01*
X211091Y382533D01*
D02*
G37*
G36*
X201273Y381592D02*
X200719D01*
X200206Y381380D01*
X199814Y380988D01*
X199602Y380476D01*
Y379922D01*
X199814Y379409D01*
X200206Y379017D01*
X200719Y378805D01*
X201273D01*
X201785Y379017D01*
X202178Y379409D01*
X202390Y379922D01*
Y380476D01*
X202178Y380988D01*
X201785Y381380D01*
X201273Y381592D01*
D02*
G37*
G36*
X350781Y381112D02*
X350226D01*
X349714Y380900D01*
X349322Y380507D01*
X349110Y379995D01*
Y379441D01*
X349322Y378928D01*
X349714Y378537D01*
X350226Y378324D01*
X350781D01*
X351293Y378537D01*
X351685Y378928D01*
X351897Y379441D01*
Y379995D01*
X351685Y380507D01*
X351293Y380900D01*
X350781Y381112D01*
D02*
G37*
G36*
X518657Y380866D02*
X518103D01*
X517590Y380654D01*
X517198Y380262D01*
X516986Y379750D01*
Y379195D01*
X517198Y378683D01*
X517590Y378291D01*
X518103Y378079D01*
X518657D01*
X519169Y378291D01*
X519561Y378683D01*
X519774Y379195D01*
Y379750D01*
X519561Y380262D01*
X519169Y380654D01*
X518657Y380866D01*
D02*
G37*
G36*
X350765Y377394D02*
X350211D01*
X349699Y377182D01*
X349307Y376789D01*
X349095Y376277D01*
Y375723D01*
X349307Y375210D01*
X349699Y374818D01*
X350211Y374606D01*
X350765D01*
X351278Y374818D01*
X351670Y375210D01*
X351882Y375723D01*
Y376277D01*
X351670Y376789D01*
X351278Y377182D01*
X350765Y377394D01*
D02*
G37*
G36*
X434277Y375394D02*
X433723D01*
X433211Y375182D01*
X432819Y374790D01*
X432606Y374277D01*
Y373723D01*
X432819Y373211D01*
X433211Y372818D01*
X433723Y372606D01*
X434277D01*
X434790Y372818D01*
X435182Y373211D01*
X435394Y373723D01*
Y374277D01*
X435182Y374790D01*
X434790Y375182D01*
X434277Y375394D01*
D02*
G37*
G36*
X350777Y373394D02*
X350223D01*
X349710Y373182D01*
X349319Y372790D01*
X349106Y372277D01*
Y371723D01*
X349319Y371211D01*
X349710Y370818D01*
X350223Y370606D01*
X350777D01*
X351290Y370818D01*
X351681Y371211D01*
X351894Y371723D01*
Y372277D01*
X351681Y372790D01*
X351290Y373182D01*
X350777Y373394D01*
D02*
G37*
G36*
X249247Y372533D02*
X248693D01*
X248181Y372321D01*
X247788Y371929D01*
X247576Y371417D01*
Y370862D01*
X247788Y370350D01*
X248181Y369958D01*
X248693Y369746D01*
X249247D01*
X249759Y369958D01*
X250151Y370350D01*
X250364Y370862D01*
Y371417D01*
X250151Y371929D01*
X249759Y372321D01*
X249247Y372533D01*
D02*
G37*
G36*
X464792Y372309D02*
X464238D01*
X463726Y372096D01*
X463334Y371704D01*
X463122Y371192D01*
Y370638D01*
X463334Y370126D01*
X463726Y369733D01*
X464238Y369521D01*
X464792D01*
X465305Y369733D01*
X465697Y370126D01*
X465909Y370638D01*
Y371192D01*
X465697Y371704D01*
X465305Y372096D01*
X464792Y372309D01*
D02*
G37*
G36*
X282604Y372225D02*
X282050D01*
X281538Y372013D01*
X281146Y371621D01*
X280933Y371109D01*
Y370554D01*
X281146Y370042D01*
X281538Y369650D01*
X282050Y369438D01*
X282604D01*
X283117Y369650D01*
X283509Y370042D01*
X283721Y370554D01*
Y371109D01*
X283509Y371621D01*
X283117Y372013D01*
X282604Y372225D01*
D02*
G37*
G36*
X498149Y372001D02*
X497595D01*
X497083Y371789D01*
X496691Y371397D01*
X496479Y370884D01*
Y370330D01*
X496691Y369818D01*
X497083Y369426D01*
X497595Y369213D01*
X498149D01*
X498662Y369426D01*
X499054Y369818D01*
X499266Y370330D01*
Y370884D01*
X499054Y371397D01*
X498662Y371789D01*
X498149Y372001D01*
D02*
G37*
G36*
X266777Y370394D02*
X266223D01*
X265710Y370181D01*
X265318Y369790D01*
X265106Y369277D01*
Y368723D01*
X265318Y368211D01*
X265710Y367818D01*
X266223Y367606D01*
X266777D01*
X267289Y367818D01*
X267682Y368211D01*
X267894Y368723D01*
Y369277D01*
X267682Y369790D01*
X267289Y370181D01*
X266777Y370394D01*
D02*
G37*
G36*
X286569Y370055D02*
X286014D01*
X285502Y369843D01*
X285110Y369451D01*
X284898Y368939D01*
Y368384D01*
X285110Y367872D01*
X285502Y367480D01*
X286014Y367268D01*
X286569D01*
X287081Y367480D01*
X287473Y367872D01*
X287685Y368384D01*
Y368939D01*
X287473Y369451D01*
X287081Y369843D01*
X286569Y370055D01*
D02*
G37*
G36*
X502114Y369831D02*
X501559D01*
X501047Y369619D01*
X500655Y369227D01*
X500443Y368714D01*
Y368160D01*
X500655Y367648D01*
X501047Y367255D01*
X501559Y367043D01*
X502114D01*
X502626Y367255D01*
X503018Y367648D01*
X503230Y368160D01*
Y368714D01*
X503018Y369227D01*
X502626Y369619D01*
X502114Y369831D01*
D02*
G37*
G36*
X350777Y369394D02*
X350223D01*
X349710Y369181D01*
X349319Y368790D01*
X349106Y368277D01*
Y367723D01*
X349319Y367211D01*
X349710Y366818D01*
X350223Y366606D01*
X350777D01*
X351290Y366818D01*
X351681Y367211D01*
X351894Y367723D01*
Y368277D01*
X351681Y368790D01*
X351290Y369181D01*
X350777Y369394D01*
D02*
G37*
G36*
X280569Y369055D02*
X280014D01*
X279502Y368843D01*
X279110Y368451D01*
X278898Y367939D01*
Y367384D01*
X279110Y366872D01*
X279502Y366480D01*
X280014Y366268D01*
X280569D01*
X281081Y366480D01*
X281473Y366872D01*
X281685Y367384D01*
Y367939D01*
X281473Y368451D01*
X281081Y368843D01*
X280569Y369055D01*
D02*
G37*
G36*
X496114Y368831D02*
X495559D01*
X495047Y368618D01*
X494655Y368227D01*
X494443Y367714D01*
Y367160D01*
X494655Y366648D01*
X495047Y366255D01*
X495559Y366043D01*
X496114D01*
X496626Y366255D01*
X497018Y366648D01*
X497230Y367160D01*
Y367714D01*
X497018Y368227D01*
X496626Y368618D01*
X496114Y368831D01*
D02*
G37*
G36*
X407977Y368494D02*
X407423D01*
X406911Y368282D01*
X406519Y367889D01*
X406306Y367377D01*
Y366823D01*
X406519Y366311D01*
X406911Y365918D01*
X407423Y365706D01*
X407977D01*
X408490Y365918D01*
X408882Y366311D01*
X409094Y366823D01*
Y367377D01*
X408882Y367889D01*
X408490Y368282D01*
X407977Y368494D01*
D02*
G37*
G36*
X252277Y368394D02*
X251723D01*
X251210Y368181D01*
X250818Y367790D01*
X250606Y367277D01*
Y366723D01*
X250818Y366211D01*
X251210Y365819D01*
X251723Y365606D01*
X252277D01*
X252789Y365819D01*
X253182Y366211D01*
X253394Y366723D01*
Y367277D01*
X253182Y367790D01*
X252789Y368181D01*
X252277Y368394D01*
D02*
G37*
G36*
X227690Y367981D02*
X227136D01*
X226623Y367769D01*
X226231Y367377D01*
X226019Y366864D01*
Y366310D01*
X226231Y365798D01*
X226623Y365406D01*
X227136Y365193D01*
X227690D01*
X228202Y365406D01*
X228594Y365798D01*
X228807Y366310D01*
Y366864D01*
X228594Y367377D01*
X228202Y367769D01*
X227690Y367981D01*
D02*
G37*
G36*
X443577Y367894D02*
X443023D01*
X442511Y367682D01*
X442119Y367289D01*
X441906Y366777D01*
Y366223D01*
X442119Y365710D01*
X442511Y365318D01*
X443023Y365106D01*
X443577D01*
X444090Y365318D01*
X444482Y365710D01*
X444694Y366223D01*
Y366777D01*
X444482Y367289D01*
X444090Y367682D01*
X443577Y367894D01*
D02*
G37*
G36*
X467828Y367831D02*
X467274D01*
X466762Y367618D01*
X466370Y367227D01*
X466157Y366714D01*
Y366160D01*
X466370Y365648D01*
X466762Y365255D01*
X467274Y365043D01*
X467828D01*
X468341Y365255D01*
X468733Y365648D01*
X468945Y366160D01*
Y366714D01*
X468733Y367227D01*
X468341Y367618D01*
X467828Y367831D01*
D02*
G37*
G36*
X265441Y367293D02*
X264887D01*
X264375Y367081D01*
X263983Y366689D01*
X263771Y366177D01*
Y365622D01*
X263983Y365110D01*
X264375Y364718D01*
X264887Y364506D01*
X265441D01*
X265954Y364718D01*
X266346Y365110D01*
X266558Y365622D01*
Y366177D01*
X266346Y366689D01*
X265954Y367081D01*
X265441Y367293D01*
D02*
G37*
G36*
X482277Y369994D02*
X481723D01*
X481211Y369781D01*
X480819Y369390D01*
X480606Y368877D01*
Y368323D01*
X480819Y367811D01*
X481098Y367531D01*
X481082Y367465D01*
X480853Y367069D01*
X480432D01*
X479920Y366857D01*
X479528Y366464D01*
X479316Y365952D01*
Y365398D01*
X479528Y364885D01*
X479920Y364493D01*
X480432Y364281D01*
X480987D01*
X481499Y364493D01*
X481891Y364885D01*
X482103Y365398D01*
Y365952D01*
X481891Y366464D01*
X481611Y366744D01*
X481627Y366810D01*
X481856Y367206D01*
X482277D01*
X482790Y367419D01*
X483181Y367811D01*
X483394Y368323D01*
Y368877D01*
X483181Y369390D01*
X482790Y369781D01*
X482277Y369994D01*
D02*
G37*
G36*
X288069Y367055D02*
X287514D01*
X287002Y366843D01*
X286610Y366451D01*
X286398Y365939D01*
Y365384D01*
X286610Y364872D01*
X287002Y364480D01*
X287514Y364268D01*
X288069D01*
X288581Y364480D01*
X288973Y364872D01*
X289185Y365384D01*
Y365939D01*
X288973Y366451D01*
X288581Y366843D01*
X288069Y367055D01*
D02*
G37*
G36*
X522194Y366905D02*
X521640D01*
X521128Y366693D01*
X520736Y366301D01*
X520524Y365789D01*
Y365235D01*
X520736Y364722D01*
X521128Y364330D01*
X521640Y364118D01*
X522194D01*
X522707Y364330D01*
X523099Y364722D01*
X523311Y365235D01*
Y365789D01*
X523099Y366301D01*
X522707Y366693D01*
X522194Y366905D01*
D02*
G37*
G36*
X350765Y365894D02*
X350211D01*
X349699Y365682D01*
X349307Y365289D01*
X349095Y364777D01*
Y364223D01*
X349307Y363710D01*
X349699Y363318D01*
X350211Y363106D01*
X350765D01*
X351278Y363318D01*
X351670Y363710D01*
X351882Y364223D01*
Y364777D01*
X351670Y365289D01*
X351278Y365682D01*
X350765Y365894D01*
D02*
G37*
G36*
X241730Y363185D02*
X241175D01*
X240663Y362972D01*
X240271Y362580D01*
X240148Y362284D01*
X239607D01*
X239484Y362580D01*
X239092Y362972D01*
X238580Y363185D01*
X238026D01*
X237513Y362972D01*
X237121Y362580D01*
X236909Y362068D01*
Y361514D01*
X236913Y361504D01*
X236579Y361004D01*
X236442D01*
X235930Y360792D01*
X235538Y360400D01*
X235415Y360104D01*
X234874D01*
X234752Y360400D01*
X234360Y360792D01*
X233847Y361004D01*
X233727D01*
X233393Y361504D01*
X233397Y361514D01*
Y362068D01*
X233185Y362580D01*
X232793Y362972D01*
X232281Y363185D01*
X231726D01*
X231214Y362972D01*
X230822Y362580D01*
X230699Y362284D01*
X230158D01*
X230036Y362580D01*
X229644Y362972D01*
X229131Y363185D01*
X228577D01*
X228065Y362972D01*
X227673Y362580D01*
X227460Y362068D01*
Y361514D01*
X227464Y361504D01*
X227130Y361004D01*
X226994D01*
X226481Y360792D01*
X226089Y360400D01*
X225967Y360104D01*
X225425D01*
X225303Y360400D01*
X224911Y360792D01*
X224398Y361004D01*
X223844D01*
X223332Y360792D01*
X222940Y360400D01*
X222817Y360104D01*
X222276D01*
X222153Y360400D01*
X221761Y360792D01*
X221249Y361004D01*
X220694D01*
X220182Y360792D01*
X219790Y360400D01*
X219667Y360104D01*
X219126D01*
X219004Y360400D01*
X218612Y360792D01*
X218099Y361004D01*
X217545D01*
X217033Y360792D01*
X216640Y360400D01*
X216428Y359887D01*
Y359333D01*
X216640Y358821D01*
X217033Y358429D01*
X217545Y358217D01*
X218099D01*
X218612Y358429D01*
X219004Y358821D01*
X219126Y359117D01*
X219667D01*
X219790Y358821D01*
X220182Y358429D01*
X220694Y358217D01*
X221249D01*
X221761Y358429D01*
X222153Y358821D01*
X222276Y359117D01*
X222817D01*
X222940Y358821D01*
X223332Y358429D01*
X223844Y358217D01*
X224398D01*
X224911Y358429D01*
X225303Y358821D01*
X225425Y359117D01*
X225967D01*
X226089Y358821D01*
X226481Y358429D01*
X226994Y358217D01*
X227548D01*
X228060Y358429D01*
X228452Y358821D01*
X228575Y359117D01*
X229116D01*
X229239Y358821D01*
X229631Y358429D01*
X230143Y358217D01*
X230698D01*
X231210Y358429D01*
X231602Y358821D01*
X231725Y359117D01*
X232266D01*
X232388Y358821D01*
X232781Y358429D01*
X233293Y358217D01*
X233847D01*
X234360Y358429D01*
X234752Y358821D01*
X234874Y359117D01*
X235415D01*
X235538Y358821D01*
X235930Y358429D01*
X236442Y358217D01*
X236997D01*
X237509Y358429D01*
X237901Y358821D01*
X238024Y359117D01*
X238565D01*
X238688Y358821D01*
X239080Y358429D01*
X239592Y358217D01*
X240146D01*
X240659Y358429D01*
X241051Y358821D01*
X241263Y359333D01*
Y359887D01*
X241259Y359897D01*
X241593Y360397D01*
X241730D01*
X242242Y360609D01*
X242634Y361001D01*
X242846Y361514D01*
Y362068D01*
X242634Y362580D01*
X242242Y362972D01*
X241730Y363185D01*
D02*
G37*
G36*
X457275Y362960D02*
X456720D01*
X456208Y362748D01*
X455816Y362356D01*
X455693Y362060D01*
X455152D01*
X455030Y362356D01*
X454638Y362748D01*
X454125Y362960D01*
X453571D01*
X453059Y362748D01*
X452667Y362356D01*
X452454Y361844D01*
Y361289D01*
X452458Y361280D01*
X452124Y360780D01*
X451988D01*
X451475Y360567D01*
X451083Y360175D01*
X450961Y359879D01*
X450420D01*
X450297Y360175D01*
X449905Y360567D01*
X449393Y360780D01*
X449273D01*
X448939Y361280D01*
X448943Y361289D01*
Y361844D01*
X448731Y362356D01*
X448338Y362748D01*
X447826Y362960D01*
X447272D01*
X446760Y362748D01*
X446367Y362356D01*
X446245Y362060D01*
X445704D01*
X445581Y362356D01*
X445189Y362748D01*
X444677Y362960D01*
X444122D01*
X443610Y362748D01*
X443218Y362356D01*
X443006Y361844D01*
Y361289D01*
X443010Y361280D01*
X442676Y360780D01*
X442539D01*
X442027Y360567D01*
X441635Y360175D01*
X441512Y359879D01*
X440971D01*
X440848Y360175D01*
X440456Y360567D01*
X439944Y360780D01*
X439389D01*
X438877Y360567D01*
X438485Y360175D01*
X438362Y359879D01*
X437821D01*
X437698Y360175D01*
X437306Y360567D01*
X436794Y360780D01*
X436240D01*
X435727Y360567D01*
X435335Y360175D01*
X435213Y359879D01*
X434671D01*
X434549Y360175D01*
X434157Y360567D01*
X433644Y360780D01*
X433090D01*
X432578Y360567D01*
X432186Y360175D01*
X431974Y359663D01*
Y359109D01*
X432186Y358596D01*
X432578Y358204D01*
X433090Y357992D01*
X433644D01*
X434157Y358204D01*
X434549Y358596D01*
X434671Y358892D01*
X435213D01*
X435335Y358596D01*
X435727Y358204D01*
X436240Y357992D01*
X436794D01*
X437306Y358204D01*
X437698Y358596D01*
X437821Y358892D01*
X438362D01*
X438485Y358596D01*
X438877Y358204D01*
X439389Y357992D01*
X439944D01*
X440456Y358204D01*
X440848Y358596D01*
X440971Y358892D01*
X441512D01*
X441635Y358596D01*
X442027Y358204D01*
X442539Y357992D01*
X443093D01*
X443606Y358204D01*
X443998Y358596D01*
X444120Y358892D01*
X444662D01*
X444784Y358596D01*
X445176Y358204D01*
X445688Y357992D01*
X446243D01*
X446755Y358204D01*
X447147Y358596D01*
X447270Y358892D01*
X447811D01*
X447934Y358596D01*
X448326Y358204D01*
X448838Y357992D01*
X449393D01*
X449905Y358204D01*
X450297Y358596D01*
X450420Y358892D01*
X450961D01*
X451083Y358596D01*
X451475Y358204D01*
X451988Y357992D01*
X452542D01*
X453054Y358204D01*
X453446Y358596D01*
X453569Y358892D01*
X454110D01*
X454233Y358596D01*
X454625Y358204D01*
X455137Y357992D01*
X455692D01*
X456204Y358204D01*
X456596Y358596D01*
X456808Y359109D01*
Y359663D01*
X456804Y359673D01*
X457138Y360173D01*
X457275D01*
X457787Y360385D01*
X458179Y360777D01*
X458391Y361289D01*
Y361844D01*
X458179Y362356D01*
X457787Y362748D01*
X457275Y362960D01*
D02*
G37*
G36*
X251607Y364283D02*
X251053D01*
X250540Y364071D01*
X250148Y363679D01*
X249936Y363167D01*
Y362612D01*
X250148Y362100D01*
X250540Y361708D01*
X251053Y361496D01*
X251607D01*
X252119Y361708D01*
X252511Y362100D01*
X252724Y362612D01*
Y363167D01*
X252511Y363679D01*
X252119Y364071D01*
X251607Y364283D01*
D02*
G37*
G36*
X262194Y361004D02*
X261639D01*
X261127Y360792D01*
X260735Y360400D01*
X260612Y360104D01*
X260071D01*
X259948Y360400D01*
X259556Y360792D01*
X259044Y361004D01*
X258490D01*
X257977Y360792D01*
X257585Y360400D01*
X257373Y359887D01*
Y359333D01*
X257585Y358821D01*
X257977Y358429D01*
X258490Y358217D01*
X259044D01*
X259556Y358429D01*
X259948Y358821D01*
X260071Y359117D01*
X260612D01*
X260735Y358821D01*
X261127Y358429D01*
X261639Y358217D01*
X262194D01*
X262706Y358429D01*
X263098Y358821D01*
X263310Y359333D01*
Y359887D01*
X263098Y360400D01*
X262706Y360792D01*
X262194Y361004D01*
D02*
G37*
G36*
X252745D02*
X252190D01*
X251678Y360792D01*
X251286Y360400D01*
X251163Y360104D01*
X250622D01*
X250500Y360400D01*
X250108Y360792D01*
X249595Y361004D01*
X249041D01*
X248529Y360792D01*
X248136Y360400D01*
X248014Y360104D01*
X247473D01*
X247350Y360400D01*
X246958Y360792D01*
X246446Y361004D01*
X245891D01*
X245379Y360792D01*
X244987Y360400D01*
X244775Y359887D01*
Y359333D01*
X244987Y358821D01*
X245379Y358429D01*
X245891Y358217D01*
X246446D01*
X246958Y358429D01*
X247350Y358821D01*
X247473Y359117D01*
X248014D01*
X248136Y358821D01*
X248529Y358429D01*
X249041Y358217D01*
X249595D01*
X250108Y358429D01*
X250500Y358821D01*
X250622Y359117D01*
X251163D01*
X251286Y358821D01*
X251678Y358429D01*
X252190Y358217D01*
X252745D01*
X253257Y358429D01*
X253649Y358821D01*
X253861Y359333D01*
Y359887D01*
X253649Y360400D01*
X253257Y360792D01*
X252745Y361004D01*
D02*
G37*
G36*
X274751Y361055D02*
X274196D01*
X273684Y360843D01*
X273292Y360451D01*
X273147Y360101D01*
X272618D01*
X272473Y360451D01*
X272081Y360843D01*
X271569Y361055D01*
X271014D01*
X270502Y360843D01*
X270110Y360451D01*
X270013Y360218D01*
X269472D01*
X269397Y360400D01*
X269005Y360792D01*
X268493Y361004D01*
X267938D01*
X267426Y360792D01*
X267034Y360400D01*
X266822Y359887D01*
Y359333D01*
X267034Y358821D01*
X267426Y358429D01*
X267938Y358217D01*
X268493D01*
X269005Y358429D01*
X269397Y358821D01*
X269494Y359053D01*
X270035D01*
X270110Y358872D01*
X270502Y358480D01*
X271014Y358268D01*
X271569D01*
X272081Y358480D01*
X272473Y358872D01*
X272618Y359222D01*
X273147D01*
X273292Y358872D01*
X273684Y358480D01*
X274196Y358268D01*
X274751D01*
X275263Y358480D01*
X275655Y358872D01*
X275867Y359384D01*
Y359939D01*
X275655Y360451D01*
X275263Y360843D01*
X274751Y361055D01*
D02*
G37*
G36*
X515534Y360780D02*
X514980D01*
X514468Y360567D01*
X514076Y360175D01*
X513953Y359879D01*
X513412D01*
X513289Y360175D01*
X512897Y360567D01*
X512385Y360780D01*
X511830D01*
X511318Y360567D01*
X510926Y360175D01*
X510803Y359879D01*
X510262D01*
X510139Y360175D01*
X509747Y360567D01*
X509235Y360780D01*
X508681D01*
X508168Y360567D01*
X507776Y360175D01*
X507597Y359743D01*
X507310Y359679D01*
X507077Y359694D01*
X507039Y359785D01*
X506647Y360177D01*
X506135Y360390D01*
X505580D01*
X505068Y360177D01*
X504676Y359785D01*
X504552Y359488D01*
X504052Y359587D01*
Y359663D01*
X503840Y360175D01*
X503448Y360567D01*
X502936Y360780D01*
X502382D01*
X501869Y360567D01*
X501477Y360175D01*
X501265Y359663D01*
Y359109D01*
X501477Y358596D01*
X501869Y358204D01*
X502382Y357992D01*
X502936D01*
X503448Y358204D01*
X503840Y358596D01*
X503964Y358894D01*
X504464Y358795D01*
Y358719D01*
X504676Y358207D01*
X505068Y357814D01*
X505580Y357602D01*
X506135D01*
X506647Y357814D01*
X507039Y358207D01*
X507218Y358638D01*
X507505Y358703D01*
X507738Y358688D01*
X507776Y358596D01*
X508168Y358204D01*
X508681Y357992D01*
X509235D01*
X509747Y358204D01*
X510139Y358596D01*
X510262Y358892D01*
X510803D01*
X510926Y358596D01*
X511318Y358204D01*
X511830Y357992D01*
X512385D01*
X512897Y358204D01*
X513289Y358596D01*
X513412Y358892D01*
X513953D01*
X514076Y358596D01*
X514468Y358204D01*
X514980Y357992D01*
X515534D01*
X516047Y358204D01*
X516439Y358596D01*
X516651Y359109D01*
Y359663D01*
X516439Y360175D01*
X516047Y360567D01*
X515534Y360780D01*
D02*
G37*
G36*
X477739D02*
X477184D01*
X476672Y360567D01*
X476280Y360175D01*
X476158Y359879D01*
X475616D01*
X475494Y360175D01*
X475102Y360567D01*
X474589Y360780D01*
X474035D01*
X473523Y360567D01*
X473131Y360175D01*
X472918Y359663D01*
Y359109D01*
X473131Y358596D01*
X473523Y358204D01*
X474035Y357992D01*
X474589D01*
X475102Y358204D01*
X475494Y358596D01*
X475616Y358892D01*
X476158D01*
X476280Y358596D01*
X476672Y358204D01*
X477184Y357992D01*
X477739D01*
X478251Y358204D01*
X478643Y358596D01*
X478855Y359109D01*
Y359663D01*
X478643Y360175D01*
X478251Y360567D01*
X477739Y360780D01*
D02*
G37*
G36*
X468290D02*
X467736D01*
X467223Y360567D01*
X466831Y360175D01*
X466709Y359879D01*
X466167D01*
X466045Y360175D01*
X465653Y360567D01*
X465140Y360780D01*
X464586D01*
X464074Y360567D01*
X463682Y360175D01*
X463559Y359879D01*
X463018D01*
X462895Y360175D01*
X462503Y360567D01*
X461991Y360780D01*
X461437D01*
X460924Y360567D01*
X460532Y360175D01*
X460320Y359663D01*
Y359109D01*
X460532Y358596D01*
X460924Y358204D01*
X461437Y357992D01*
X461991D01*
X462503Y358204D01*
X462895Y358596D01*
X463018Y358892D01*
X463559D01*
X463682Y358596D01*
X464074Y358204D01*
X464586Y357992D01*
X465140D01*
X465653Y358204D01*
X466045Y358596D01*
X466167Y358892D01*
X466709D01*
X466831Y358596D01*
X467223Y358204D01*
X467736Y357992D01*
X468290D01*
X468802Y358204D01*
X469194Y358596D01*
X469407Y359109D01*
Y359663D01*
X469194Y360175D01*
X468802Y360567D01*
X468290Y360780D01*
D02*
G37*
G36*
X490296Y360831D02*
X489742D01*
X489229Y360618D01*
X488837Y360226D01*
X488692Y359876D01*
X488163D01*
X488018Y360226D01*
X487626Y360618D01*
X487114Y360831D01*
X486559D01*
X486047Y360618D01*
X485655Y360226D01*
X485559Y359994D01*
X485017D01*
X484942Y360175D01*
X484550Y360567D01*
X484038Y360780D01*
X483484D01*
X482971Y360567D01*
X482579Y360175D01*
X482367Y359663D01*
Y359109D01*
X482579Y358596D01*
X482971Y358204D01*
X483484Y357992D01*
X484038D01*
X484550Y358204D01*
X484942Y358596D01*
X485039Y358829D01*
X485580D01*
X485655Y358647D01*
X486047Y358256D01*
X486559Y358043D01*
X487114D01*
X487626Y358256D01*
X488018Y358647D01*
X488163Y358998D01*
X488692D01*
X488837Y358647D01*
X489229Y358256D01*
X489742Y358043D01*
X490296D01*
X490808Y358256D01*
X491200Y358647D01*
X491412Y359160D01*
Y359714D01*
X491200Y360226D01*
X490808Y360618D01*
X490296Y360831D01*
D02*
G37*
G36*
X350765Y361394D02*
X350211D01*
X349699Y361181D01*
X349307Y360789D01*
X349095Y360277D01*
Y359723D01*
X349307Y359210D01*
X349699Y358819D01*
X350211Y358606D01*
X350765D01*
X351278Y358819D01*
X351670Y359210D01*
X351882Y359723D01*
Y360277D01*
X351670Y360789D01*
X351278Y361181D01*
X350765Y361394D01*
D02*
G37*
G36*
X278041Y361002D02*
X277487D01*
X276975Y360790D01*
X276583Y360398D01*
X276371Y359885D01*
Y359331D01*
X276583Y358819D01*
X276975Y358427D01*
X277487Y358214D01*
X278041D01*
X278554Y358427D01*
X278946Y358819D01*
X279026Y359013D01*
X279568D01*
X279658Y358796D01*
X280049Y358404D01*
X280562Y358192D01*
X281116D01*
X281628Y358404D01*
X282020Y358796D01*
X282233Y359308D01*
Y359862D01*
X282020Y360375D01*
X281628Y360767D01*
X281116Y360979D01*
X280562D01*
X280049Y360767D01*
X279658Y360375D01*
X279577Y360180D01*
X279036D01*
X278946Y360398D01*
X278554Y360790D01*
X278041Y361002D01*
D02*
G37*
G36*
X493587Y360777D02*
X493032D01*
X492520Y360565D01*
X492128Y360173D01*
X491916Y359661D01*
Y359106D01*
X492128Y358594D01*
X492520Y358202D01*
X493032Y357990D01*
X493587D01*
X494099Y358202D01*
X494491Y358594D01*
X494572Y358789D01*
X495113D01*
X495203Y358571D01*
X495595Y358179D01*
X496107Y357967D01*
X496662D01*
X497174Y358179D01*
X497566Y358571D01*
X497778Y359084D01*
Y359638D01*
X497566Y360150D01*
X497174Y360542D01*
X496662Y360755D01*
X496107D01*
X495595Y360542D01*
X495203Y360150D01*
X495122Y359956D01*
X494581D01*
X494491Y360173D01*
X494099Y360565D01*
X493587Y360777D01*
D02*
G37*
G36*
X414177Y358294D02*
X413623D01*
X413110Y358082D01*
X412718Y357689D01*
X412506Y357177D01*
Y356623D01*
X412718Y356111D01*
X413110Y355718D01*
X413623Y355506D01*
X414177D01*
X414689Y355718D01*
X415082Y356111D01*
X415294Y356623D01*
Y357177D01*
X415082Y357689D01*
X414689Y358082D01*
X414177Y358294D01*
D02*
G37*
G36*
X331288Y357472D02*
X330733D01*
X330221Y357260D01*
X329829Y356868D01*
X329617Y356356D01*
Y355802D01*
X329829Y355289D01*
X330221Y354897D01*
X330733Y354685D01*
X331288D01*
X331800Y354897D01*
X332192Y355289D01*
X332404Y355802D01*
Y356356D01*
X332192Y356868D01*
X331800Y357260D01*
X331288Y357472D01*
D02*
G37*
G36*
X350777Y357394D02*
X350223D01*
X349710Y357182D01*
X349319Y356789D01*
X349106Y356277D01*
Y355723D01*
X349319Y355210D01*
X349710Y354819D01*
X350223Y354606D01*
X350777D01*
X351290Y354819D01*
X351681Y355210D01*
X351894Y355723D01*
Y356277D01*
X351681Y356789D01*
X351290Y357182D01*
X350777Y357394D01*
D02*
G37*
G36*
X350767Y353696D02*
X350213D01*
X349700Y353483D01*
X349308Y353091D01*
X349096Y352579D01*
Y352025D01*
X349308Y351512D01*
X349700Y351120D01*
X350213Y350908D01*
X350767D01*
X351279Y351120D01*
X351671Y351512D01*
X351883Y352025D01*
Y352579D01*
X351671Y353091D01*
X351279Y353483D01*
X350767Y353696D01*
D02*
G37*
G36*
X330777Y353394D02*
X330223D01*
X329711Y353182D01*
X329318Y352789D01*
X329106Y352277D01*
Y351723D01*
X329318Y351210D01*
X329711Y350818D01*
X330223Y350606D01*
X330777D01*
X331290Y350818D01*
X331681Y351210D01*
X331894Y351723D01*
Y352277D01*
X331681Y352789D01*
X331290Y353182D01*
X330777Y353394D01*
D02*
G37*
G36*
X290540Y348587D02*
X289986D01*
X289474Y348374D01*
X289082Y347982D01*
X288959Y347686D01*
X288418D01*
X288295Y347982D01*
X287903Y348374D01*
X287391Y348587D01*
X286836D01*
X286324Y348374D01*
X285932Y347982D01*
X285809Y347686D01*
X285268D01*
X285145Y347982D01*
X284753Y348374D01*
X284241Y348587D01*
X283686D01*
X283174Y348374D01*
X282782Y347982D01*
X282659Y347686D01*
X282118D01*
X281996Y347982D01*
X281604Y348374D01*
X281091Y348587D01*
X280537D01*
X280025Y348374D01*
X279632Y347982D01*
X279510Y347686D01*
X278969D01*
X278846Y347982D01*
X278454Y348374D01*
X277942Y348587D01*
X277387D01*
X276875Y348374D01*
X276483Y347982D01*
X276271Y347470D01*
Y346916D01*
X276483Y346403D01*
X276875Y346011D01*
X277387Y345799D01*
X277942D01*
X278454Y346011D01*
X278846Y346403D01*
X278969Y346700D01*
X279510D01*
X279632Y346403D01*
X280025Y346011D01*
X280537Y345799D01*
X281091D01*
X281604Y346011D01*
X281996Y346403D01*
X282118Y346700D01*
X282659D01*
X282782Y346403D01*
X283174Y346011D01*
X283686Y345799D01*
X284241D01*
X284753Y346011D01*
X285145Y346403D01*
X285268Y346700D01*
X285809D01*
X285932Y346403D01*
X286324Y346011D01*
X286836Y345799D01*
X287391D01*
X287903Y346011D01*
X288295Y346403D01*
X288418Y346700D01*
X288959D01*
X289082Y346403D01*
X289474Y346011D01*
X289986Y345799D01*
X290540D01*
X291053Y346011D01*
X291444Y346403D01*
X291657Y346916D01*
Y347470D01*
X291444Y347982D01*
X291053Y348374D01*
X290540Y348587D01*
D02*
G37*
G36*
X271642D02*
X271088D01*
X270576Y348374D01*
X270184Y347982D01*
X270061Y347686D01*
X269520D01*
X269397Y347982D01*
X269005Y348374D01*
X268493Y348587D01*
X267938D01*
X267426Y348374D01*
X267034Y347982D01*
X266911Y347686D01*
X266370D01*
X266248Y347982D01*
X265856Y348374D01*
X265343Y348587D01*
X264789D01*
X264277Y348374D01*
X263884Y347982D01*
X263762Y347686D01*
X263221D01*
X263098Y347982D01*
X262706Y348374D01*
X262194Y348587D01*
X261639D01*
X261127Y348374D01*
X260735Y347982D01*
X260523Y347470D01*
Y346916D01*
X260735Y346403D01*
X261127Y346011D01*
X261639Y345799D01*
X262194D01*
X262706Y346011D01*
X263098Y346403D01*
X263221Y346700D01*
X263762D01*
X263884Y346403D01*
X264277Y346011D01*
X264789Y345799D01*
X265343D01*
X265856Y346011D01*
X266248Y346403D01*
X266370Y346700D01*
X266911D01*
X267034Y346403D01*
X267426Y346011D01*
X267938Y345799D01*
X268493D01*
X269005Y346011D01*
X269397Y346403D01*
X269520Y346700D01*
X270061D01*
X270184Y346403D01*
X270576Y346011D01*
X271088Y345799D01*
X271642D01*
X272155Y346011D01*
X272547Y346403D01*
X272759Y346916D01*
Y347470D01*
X272547Y347982D01*
X272155Y348374D01*
X271642Y348587D01*
D02*
G37*
G36*
X255894D02*
X255340D01*
X254828Y348374D01*
X254436Y347982D01*
X254313Y347686D01*
X253772D01*
X253649Y347982D01*
X253257Y348374D01*
X252745Y348587D01*
X252190D01*
X251678Y348374D01*
X251286Y347982D01*
X251163Y347686D01*
X250622D01*
X250500Y347982D01*
X250108Y348374D01*
X249595Y348587D01*
X249041D01*
X248529Y348374D01*
X248136Y347982D01*
X248014Y347686D01*
X247473D01*
X247350Y347982D01*
X246958Y348374D01*
X246446Y348587D01*
X245891D01*
X245379Y348374D01*
X244987Y347982D01*
X244864Y347686D01*
X244323D01*
X244200Y347982D01*
X243808Y348374D01*
X243296Y348587D01*
X242742D01*
X242229Y348374D01*
X241837Y347982D01*
X241715Y347686D01*
X241173D01*
X241051Y347982D01*
X240659Y348374D01*
X240146Y348587D01*
X239592D01*
X239080Y348374D01*
X238688Y347982D01*
X238565Y347686D01*
X238024D01*
X237901Y347982D01*
X237509Y348374D01*
X236997Y348587D01*
X236442D01*
X235930Y348374D01*
X235538Y347982D01*
X235415Y347686D01*
X234874D01*
X234752Y347982D01*
X234360Y348374D01*
X233847Y348587D01*
X233293D01*
X232781Y348374D01*
X232388Y347982D01*
X232266Y347686D01*
X231725D01*
X231602Y347982D01*
X231210Y348374D01*
X230698Y348587D01*
X230143D01*
X229631Y348374D01*
X229239Y347982D01*
X229116Y347686D01*
X228575D01*
X228452Y347982D01*
X228060Y348374D01*
X227548Y348587D01*
X226994D01*
X226481Y348374D01*
X226089Y347982D01*
X225967Y347686D01*
X225425D01*
X225303Y347982D01*
X224911Y348374D01*
X224398Y348587D01*
X223844D01*
X223332Y348374D01*
X222940Y347982D01*
X222817Y347686D01*
X222276D01*
X222153Y347982D01*
X221761Y348374D01*
X221249Y348587D01*
X220694D01*
X220182Y348374D01*
X219790Y347982D01*
X219578Y347470D01*
Y346916D01*
X219790Y346403D01*
X220182Y346011D01*
X220694Y345799D01*
X221249D01*
X221761Y346011D01*
X222153Y346403D01*
X222276Y346700D01*
X222817D01*
X222940Y346403D01*
X223332Y346011D01*
X223844Y345799D01*
X224398D01*
X224911Y346011D01*
X225303Y346403D01*
X225425Y346700D01*
X225967D01*
X226089Y346403D01*
X226481Y346011D01*
X226994Y345799D01*
X227548D01*
X228060Y346011D01*
X228452Y346403D01*
X228575Y346700D01*
X229116D01*
X229239Y346403D01*
X229631Y346011D01*
X230143Y345799D01*
X230698D01*
X231210Y346011D01*
X231602Y346403D01*
X231725Y346700D01*
X232266D01*
X232388Y346403D01*
X232781Y346011D01*
X233293Y345799D01*
X233847D01*
X234360Y346011D01*
X234752Y346403D01*
X234874Y346700D01*
X235415D01*
X235538Y346403D01*
X235930Y346011D01*
X236442Y345799D01*
X236997D01*
X237509Y346011D01*
X237901Y346403D01*
X238024Y346700D01*
X238565D01*
X238688Y346403D01*
X239080Y346011D01*
X239592Y345799D01*
X240146D01*
X240659Y346011D01*
X241051Y346403D01*
X241173Y346700D01*
X241715D01*
X241837Y346403D01*
X242229Y346011D01*
X242742Y345799D01*
X243296D01*
X243808Y346011D01*
X244200Y346403D01*
X244323Y346700D01*
X244864D01*
X244987Y346403D01*
X245379Y346011D01*
X245891Y345799D01*
X246446D01*
X246958Y346011D01*
X247350Y346403D01*
X247473Y346700D01*
X248014D01*
X248136Y346403D01*
X248529Y346011D01*
X249041Y345799D01*
X249595D01*
X250108Y346011D01*
X250500Y346403D01*
X250622Y346700D01*
X251163D01*
X251286Y346403D01*
X251678Y346011D01*
X252190Y345799D01*
X252745D01*
X253257Y346011D01*
X253649Y346403D01*
X253772Y346700D01*
X254313D01*
X254436Y346403D01*
X254828Y346011D01*
X255340Y345799D01*
X255894D01*
X256407Y346011D01*
X256799Y346403D01*
X257011Y346916D01*
Y347470D01*
X256799Y347982D01*
X256407Y348374D01*
X255894Y348587D01*
D02*
G37*
G36*
X506085Y348362D02*
X505531D01*
X505019Y348150D01*
X504627Y347758D01*
X504504Y347462D01*
X503963D01*
X503840Y347758D01*
X503448Y348150D01*
X502936Y348362D01*
X502382D01*
X501869Y348150D01*
X501477Y347758D01*
X501354Y347461D01*
X500813D01*
X500690Y347758D01*
X500298Y348150D01*
X499786Y348362D01*
X499232D01*
X498719Y348150D01*
X498327Y347758D01*
X498205Y347462D01*
X497663D01*
X497541Y347758D01*
X497149Y348150D01*
X496636Y348362D01*
X496082D01*
X495570Y348150D01*
X495178Y347758D01*
X495055Y347462D01*
X494514D01*
X494391Y347758D01*
X493999Y348150D01*
X493487Y348362D01*
X492933D01*
X492420Y348150D01*
X492028Y347758D01*
X491816Y347246D01*
Y346691D01*
X492028Y346179D01*
X492420Y345787D01*
X492933Y345575D01*
X493487D01*
X493999Y345787D01*
X494391Y346179D01*
X494514Y346475D01*
X495055D01*
X495178Y346179D01*
X495570Y345787D01*
X496082Y345575D01*
X496636D01*
X497149Y345787D01*
X497541Y346179D01*
X497663Y346475D01*
X498205D01*
X498327Y346179D01*
X498719Y345787D01*
X499232Y345575D01*
X499786D01*
X500298Y345787D01*
X500690Y346179D01*
X500813Y346475D01*
X501354D01*
X501477Y346179D01*
X501869Y345787D01*
X502382Y345575D01*
X502936D01*
X503448Y345787D01*
X503840Y346179D01*
X503963Y346475D01*
X504504D01*
X504627Y346179D01*
X505019Y345787D01*
X505531Y345575D01*
X506085D01*
X506598Y345787D01*
X506990Y346179D01*
X507202Y346691D01*
Y347246D01*
X506990Y347758D01*
X506598Y348150D01*
X506085Y348362D01*
D02*
G37*
G36*
X487188D02*
X486633D01*
X486121Y348150D01*
X485729Y347758D01*
X485606Y347462D01*
X485065D01*
X484942Y347758D01*
X484550Y348150D01*
X484038Y348362D01*
X483484D01*
X482971Y348150D01*
X482579Y347758D01*
X482457Y347462D01*
X481916D01*
X481793Y347758D01*
X481401Y348150D01*
X480889Y348362D01*
X480334D01*
X479822Y348150D01*
X479430Y347758D01*
X479307Y347462D01*
X478766D01*
X478643Y347758D01*
X478251Y348150D01*
X477739Y348362D01*
X477184D01*
X476672Y348150D01*
X476280Y347758D01*
X476068Y347246D01*
Y346691D01*
X476280Y346179D01*
X476672Y345787D01*
X477184Y345575D01*
X477739D01*
X478251Y345787D01*
X478643Y346179D01*
X478766Y346475D01*
X479307D01*
X479430Y346179D01*
X479822Y345787D01*
X480334Y345575D01*
X480889D01*
X481401Y345787D01*
X481793Y346179D01*
X481916Y346475D01*
X482457D01*
X482579Y346179D01*
X482971Y345787D01*
X483484Y345575D01*
X484038D01*
X484550Y345787D01*
X484942Y346179D01*
X485065Y346475D01*
X485606D01*
X485729Y346179D01*
X486121Y345787D01*
X486633Y345575D01*
X487188D01*
X487700Y345787D01*
X488092Y346179D01*
X488304Y346691D01*
Y347246D01*
X488092Y347758D01*
X487700Y348150D01*
X487188Y348362D01*
D02*
G37*
G36*
X471440D02*
X470885D01*
X470373Y348150D01*
X469981Y347758D01*
X469858Y347462D01*
X469317D01*
X469194Y347758D01*
X468802Y348150D01*
X468290Y348362D01*
X467736D01*
X467223Y348150D01*
X466831Y347758D01*
X466709Y347462D01*
X466167D01*
X466045Y347758D01*
X465653Y348150D01*
X465140Y348362D01*
X464586D01*
X464074Y348150D01*
X463682Y347758D01*
X463559Y347462D01*
X463018D01*
X462895Y347758D01*
X462503Y348150D01*
X461991Y348362D01*
X461437D01*
X460924Y348150D01*
X460532Y347758D01*
X460409Y347462D01*
X459868D01*
X459746Y347758D01*
X459354Y348150D01*
X458841Y348362D01*
X458287D01*
X457775Y348150D01*
X457383Y347758D01*
X457260Y347462D01*
X456719D01*
X456596Y347758D01*
X456204Y348150D01*
X455692Y348362D01*
X455137D01*
X454625Y348150D01*
X454233Y347758D01*
X454110Y347462D01*
X453569D01*
X453446Y347758D01*
X453054Y348150D01*
X452542Y348362D01*
X451988D01*
X451475Y348150D01*
X451083Y347758D01*
X450961Y347462D01*
X450420D01*
X450297Y347758D01*
X449905Y348150D01*
X449393Y348362D01*
X448838D01*
X448326Y348150D01*
X447934Y347758D01*
X447811Y347462D01*
X447270D01*
X447147Y347758D01*
X446755Y348150D01*
X446243Y348362D01*
X445688D01*
X445176Y348150D01*
X444784Y347758D01*
X444662Y347462D01*
X444120D01*
X443998Y347758D01*
X443606Y348150D01*
X443093Y348362D01*
X442539D01*
X442027Y348150D01*
X441635Y347758D01*
X441512Y347462D01*
X440971D01*
X440848Y347758D01*
X440456Y348150D01*
X439944Y348362D01*
X439389D01*
X438877Y348150D01*
X438485Y347758D01*
X438362Y347462D01*
X437821D01*
X437698Y347758D01*
X437306Y348150D01*
X436794Y348362D01*
X436240D01*
X435727Y348150D01*
X435335Y347758D01*
X435123Y347246D01*
Y346691D01*
X435335Y346179D01*
X435727Y345787D01*
X436240Y345575D01*
X436794D01*
X437306Y345787D01*
X437698Y346179D01*
X437821Y346475D01*
X438362D01*
X438485Y346179D01*
X438877Y345787D01*
X439389Y345575D01*
X439944D01*
X440456Y345787D01*
X440848Y346179D01*
X440971Y346475D01*
X441512D01*
X441635Y346179D01*
X442027Y345787D01*
X442539Y345575D01*
X443093D01*
X443606Y345787D01*
X443998Y346179D01*
X444120Y346475D01*
X444662D01*
X444784Y346179D01*
X445176Y345787D01*
X445688Y345575D01*
X446243D01*
X446755Y345787D01*
X447147Y346179D01*
X447270Y346475D01*
X447811D01*
X447934Y346179D01*
X448326Y345787D01*
X448838Y345575D01*
X449393D01*
X449905Y345787D01*
X450297Y346179D01*
X450420Y346475D01*
X450961D01*
X451083Y346179D01*
X451475Y345787D01*
X451988Y345575D01*
X452542D01*
X453054Y345787D01*
X453446Y346179D01*
X453569Y346475D01*
X454110D01*
X454233Y346179D01*
X454625Y345787D01*
X455137Y345575D01*
X455692D01*
X456204Y345787D01*
X456596Y346179D01*
X456719Y346475D01*
X457260D01*
X457383Y346179D01*
X457775Y345787D01*
X458287Y345575D01*
X458841D01*
X459354Y345787D01*
X459746Y346179D01*
X459868Y346475D01*
X460409D01*
X460532Y346179D01*
X460924Y345787D01*
X461437Y345575D01*
X461991D01*
X462503Y345787D01*
X462895Y346179D01*
X463018Y346475D01*
X463559D01*
X463682Y346179D01*
X464074Y345787D01*
X464586Y345575D01*
X465140D01*
X465653Y345787D01*
X466045Y346179D01*
X466167Y346475D01*
X466709D01*
X466831Y346179D01*
X467223Y345787D01*
X467736Y345575D01*
X468290D01*
X468802Y345787D01*
X469194Y346179D01*
X469317Y346475D01*
X469858D01*
X469981Y346179D01*
X470373Y345787D01*
X470885Y345575D01*
X471440D01*
X471952Y345787D01*
X472344Y346179D01*
X472556Y346691D01*
Y347246D01*
X472344Y347758D01*
X471952Y348150D01*
X471440Y348362D01*
D02*
G37*
G36*
X350789Y349833D02*
X350235D01*
X349723Y349621D01*
X349331Y349229D01*
X349119Y348716D01*
Y348162D01*
X349331Y347650D01*
X349723Y347258D01*
X350235Y347045D01*
X350789D01*
X351302Y347258D01*
X351694Y347650D01*
X351906Y348162D01*
Y348716D01*
X351694Y349229D01*
X351302Y349621D01*
X350789Y349833D01*
D02*
G37*
G36*
X296839Y348587D02*
X296285D01*
X295773Y348374D01*
X295381Y347982D01*
X295168Y347470D01*
Y346916D01*
X295381Y346403D01*
X295773Y346011D01*
X296285Y345799D01*
X296839D01*
X297352Y346011D01*
X297744Y346403D01*
X297956Y346916D01*
Y347470D01*
X297744Y347982D01*
X297352Y348374D01*
X296839Y348587D01*
D02*
G37*
G36*
X512385Y348362D02*
X511830D01*
X511318Y348150D01*
X510926Y347758D01*
X510714Y347246D01*
Y346691D01*
X510926Y346179D01*
X511318Y345787D01*
X511830Y345575D01*
X512385D01*
X512897Y345787D01*
X513289Y346179D01*
X513501Y346691D01*
Y347246D01*
X513289Y347758D01*
X512897Y348150D01*
X512385Y348362D01*
D02*
G37*
G36*
X350765Y345694D02*
X350211D01*
X349699Y345481D01*
X349307Y345090D01*
X349095Y344577D01*
Y344023D01*
X349307Y343511D01*
X349699Y343119D01*
X350211Y342906D01*
X350765D01*
X351278Y343119D01*
X351670Y343511D01*
X351882Y344023D01*
Y344577D01*
X351670Y345090D01*
X351278Y345481D01*
X350765Y345694D01*
D02*
G37*
G36*
X218777Y343894D02*
X218223D01*
X217710Y343682D01*
X217319Y343289D01*
X217106Y342777D01*
Y342223D01*
X217319Y341710D01*
X217710Y341318D01*
X218223Y341106D01*
X218777D01*
X219289Y341318D01*
X219682Y341710D01*
X219894Y342223D01*
Y342777D01*
X219682Y343289D01*
X219289Y343682D01*
X218777Y343894D01*
D02*
G37*
G36*
X425389Y342182D02*
X424834D01*
X424322Y341969D01*
X423930Y341577D01*
X423718Y341065D01*
Y340511D01*
X423930Y339999D01*
X424322Y339606D01*
X424834Y339394D01*
X425389D01*
X425901Y339606D01*
X426293Y339999D01*
X426505Y340511D01*
Y341065D01*
X426293Y341577D01*
X425901Y341969D01*
X425389Y342182D01*
D02*
G37*
G36*
X350765Y341794D02*
X350211D01*
X349699Y341582D01*
X349307Y341190D01*
X349095Y340677D01*
Y340123D01*
X349307Y339611D01*
X349699Y339218D01*
X350211Y339006D01*
X350765D01*
X351278Y339218D01*
X351670Y339611D01*
X351882Y340123D01*
Y340677D01*
X351670Y341190D01*
X351278Y341582D01*
X350765Y341794D01*
D02*
G37*
G36*
X408777Y339194D02*
X408223D01*
X407711Y338982D01*
X407318Y338590D01*
X407106Y338077D01*
Y337523D01*
X407318Y337011D01*
X407711Y336618D01*
X408223Y336406D01*
X408777D01*
X409290Y336618D01*
X409682Y337011D01*
X409894Y337523D01*
Y338077D01*
X409682Y338590D01*
X409290Y338982D01*
X408777Y339194D01*
D02*
G37*
G36*
X300393Y339176D02*
X299839D01*
X299326Y338964D01*
X298935Y338572D01*
X298722Y338059D01*
Y337505D01*
X298935Y336993D01*
X299326Y336600D01*
X299839Y336388D01*
X300393D01*
X300905Y336600D01*
X301297Y336993D01*
X301510Y337505D01*
Y338059D01*
X301297Y338572D01*
X300905Y338964D01*
X300393Y339176D01*
D02*
G37*
G36*
X294277Y338894D02*
X293723D01*
X293211Y338682D01*
X292818Y338289D01*
X292606Y337777D01*
Y337223D01*
X292818Y336711D01*
X293211Y336318D01*
X293723Y336106D01*
X294277D01*
X294790Y336318D01*
X295181Y336711D01*
X295394Y337223D01*
Y337777D01*
X295181Y338289D01*
X294790Y338682D01*
X294277Y338894D01*
D02*
G37*
G36*
X266277D02*
X265723D01*
X265211Y338682D01*
X264819Y338289D01*
X264606Y337777D01*
Y337223D01*
X264819Y336711D01*
X265211Y336318D01*
X265723Y336106D01*
X266277D01*
X266790Y336318D01*
X267181Y336711D01*
X267394Y337223D01*
Y337777D01*
X267181Y338289D01*
X266790Y338682D01*
X266277Y338894D01*
D02*
G37*
G36*
X259277D02*
X258723D01*
X258210Y338682D01*
X257819Y338289D01*
X257606Y337777D01*
Y337223D01*
X257819Y336711D01*
X258210Y336318D01*
X258723Y336106D01*
X259277D01*
X259789Y336318D01*
X260181Y336711D01*
X260394Y337223D01*
Y337777D01*
X260181Y338289D01*
X259789Y338682D01*
X259277Y338894D01*
D02*
G37*
G36*
X285277Y338394D02*
X284723D01*
X284210Y338181D01*
X283819Y337790D01*
X283606Y337277D01*
Y336723D01*
X283819Y336210D01*
X284210Y335819D01*
X284723Y335606D01*
X285277D01*
X285789Y335819D01*
X286181Y336210D01*
X286394Y336723D01*
Y337277D01*
X286181Y337790D01*
X285789Y338181D01*
X285277Y338394D01*
D02*
G37*
G36*
X275777D02*
X275223D01*
X274710Y338181D01*
X274319Y337790D01*
X274106Y337277D01*
Y336723D01*
X274319Y336210D01*
X274710Y335819D01*
X275223Y335606D01*
X275777D01*
X276290Y335819D01*
X276681Y336210D01*
X276894Y336723D01*
Y337277D01*
X276681Y337790D01*
X276290Y338181D01*
X275777Y338394D01*
D02*
G37*
G36*
X218777D02*
X218223D01*
X217710Y338181D01*
X217319Y337790D01*
X217106Y337277D01*
Y336723D01*
X217319Y336210D01*
X217710Y335819D01*
X218223Y335606D01*
X218777D01*
X219289Y335819D01*
X219682Y336210D01*
X219894Y336723D01*
Y337277D01*
X219682Y337790D01*
X219289Y338181D01*
X218777Y338394D01*
D02*
G37*
G36*
X350765Y337794D02*
X350211D01*
X349699Y337581D01*
X349307Y337190D01*
X349095Y336677D01*
Y336123D01*
X349307Y335611D01*
X349699Y335219D01*
X350211Y335006D01*
X350765D01*
X351278Y335219D01*
X351670Y335611D01*
X351882Y336123D01*
Y336677D01*
X351670Y337190D01*
X351278Y337581D01*
X350765Y337794D01*
D02*
G37*
G36*
Y333894D02*
X350211D01*
X349699Y333682D01*
X349307Y333290D01*
X349095Y332777D01*
Y332223D01*
X349307Y331711D01*
X349699Y331318D01*
X350211Y331106D01*
X350765D01*
X351278Y331318D01*
X351670Y331711D01*
X351882Y332223D01*
Y332777D01*
X351670Y333290D01*
X351278Y333682D01*
X350765Y333894D01*
D02*
G37*
G36*
X330777Y333394D02*
X330223D01*
X329711Y333182D01*
X329318Y332789D01*
X329106Y332277D01*
Y331723D01*
X329318Y331210D01*
X329711Y330819D01*
X330223Y330606D01*
X330777D01*
X331290Y330819D01*
X331681Y331210D01*
X331894Y331723D01*
Y332277D01*
X331681Y332789D01*
X331290Y333182D01*
X330777Y333394D01*
D02*
G37*
G36*
X201240Y342394D02*
X200685D01*
X200173Y342181D01*
X199781Y341790D01*
X199569Y341277D01*
Y340723D01*
X199781Y340211D01*
X200173Y339819D01*
X200685Y339606D01*
X200888D01*
X200921Y339606D01*
X201021Y339106D01*
X200974Y339087D01*
X200639Y338948D01*
X200247Y338556D01*
X200034Y338044D01*
Y337489D01*
X200247Y336977D01*
X200639Y336585D01*
X201151Y336373D01*
X201469D01*
X201585Y336124D01*
X201623Y335873D01*
X201284Y335534D01*
X201072Y335022D01*
Y334468D01*
X201284Y333955D01*
X201676Y333563D01*
X202189Y333351D01*
X202390D01*
X202507Y332933D01*
X202511Y332851D01*
X202134Y332474D01*
X201922Y331962D01*
Y331408D01*
X202134Y330895D01*
X202526Y330503D01*
X203038Y330291D01*
X203592D01*
X203758Y330360D01*
X204140Y329977D01*
X204038Y329730D01*
Y329176D01*
X204250Y328663D01*
X204642Y328272D01*
X205155Y328059D01*
X205709D01*
X206221Y328272D01*
X206613Y328663D01*
X206826Y329176D01*
Y329730D01*
X206613Y330242D01*
X206221Y330634D01*
X205709Y330847D01*
X205155D01*
X204990Y330778D01*
X204607Y331161D01*
X204709Y331408D01*
Y331962D01*
X204497Y332474D01*
X204105Y332866D01*
X203592Y333079D01*
X203391D01*
X203274Y333497D01*
X203271Y333578D01*
X203647Y333955D01*
X203859Y334468D01*
Y335022D01*
X203647Y335534D01*
X203255Y335926D01*
X202743Y336139D01*
X202424D01*
X202309Y336387D01*
X202271Y336638D01*
X202609Y336977D01*
X202822Y337489D01*
Y338044D01*
X202609Y338556D01*
X202218Y338948D01*
X201705Y339160D01*
X201503D01*
X201469Y339160D01*
X201370Y339660D01*
X201417Y339680D01*
X201752Y339819D01*
X202144Y340211D01*
X202356Y340723D01*
Y341277D01*
X202144Y341790D01*
X201752Y342181D01*
X201240Y342394D01*
D02*
G37*
G36*
X350765Y329994D02*
X350211D01*
X349699Y329782D01*
X349307Y329390D01*
X349095Y328877D01*
Y328323D01*
X349307Y327811D01*
X349699Y327418D01*
X350211Y327206D01*
X350765D01*
X351278Y327418D01*
X351670Y327811D01*
X351882Y328323D01*
Y328877D01*
X351670Y329390D01*
X351278Y329782D01*
X350765Y329994D01*
D02*
G37*
G36*
X201777Y329394D02*
X201223D01*
X200711Y329182D01*
X200319Y328789D01*
X200106Y328277D01*
Y327723D01*
X200319Y327210D01*
X200711Y326818D01*
X201223Y326606D01*
X201777D01*
X202290Y326818D01*
X202681Y327210D01*
X202894Y327723D01*
Y328277D01*
X202681Y328789D01*
X202290Y329182D01*
X201777Y329394D01*
D02*
G37*
G36*
X306277Y328894D02*
X305723D01*
X305210Y328681D01*
X304819Y328290D01*
X304606Y327777D01*
Y327223D01*
X304819Y326711D01*
X305210Y326319D01*
X305723Y326106D01*
X306277D01*
X306789Y326319D01*
X307182Y326711D01*
X307394Y327223D01*
Y327777D01*
X307182Y328290D01*
X306789Y328681D01*
X306277Y328894D01*
D02*
G37*
G36*
X205777Y327394D02*
X205223D01*
X204711Y327182D01*
X204318Y326789D01*
X204106Y326277D01*
Y325723D01*
X204318Y325210D01*
X204711Y324818D01*
X205223Y324606D01*
X205777D01*
X206290Y324818D01*
X206681Y325210D01*
X206894Y325723D01*
Y326277D01*
X206681Y326789D01*
X206290Y327182D01*
X205777Y327394D01*
D02*
G37*
G36*
X350765Y325994D02*
X350211D01*
X349699Y325781D01*
X349307Y325390D01*
X349095Y324877D01*
Y324323D01*
X349307Y323811D01*
X349699Y323418D01*
X350211Y323206D01*
X350765D01*
X351278Y323418D01*
X351670Y323811D01*
X351882Y324323D01*
Y324877D01*
X351670Y325390D01*
X351278Y325781D01*
X350765Y325994D01*
D02*
G37*
G36*
X209886Y324823D02*
X209331D01*
X208819Y324610D01*
X208427Y324218D01*
X208215Y323706D01*
Y323152D01*
X208427Y322639D01*
X208819Y322247D01*
X209331Y322035D01*
X209886D01*
X210398Y322247D01*
X210790Y322639D01*
X211002Y323152D01*
Y323706D01*
X210790Y324218D01*
X210398Y324610D01*
X209886Y324823D01*
D02*
G37*
G36*
X418677Y324494D02*
X418123D01*
X417611Y324282D01*
X417218Y323889D01*
X417006Y323377D01*
Y322823D01*
X417218Y322310D01*
X417611Y321919D01*
X418123Y321706D01*
X418677D01*
X419190Y321919D01*
X419582Y322310D01*
X419794Y322823D01*
Y323377D01*
X419582Y323889D01*
X419190Y324282D01*
X418677Y324494D01*
D02*
G37*
G36*
X314777Y323894D02*
X314223D01*
X313710Y323681D01*
X313318Y323289D01*
X313106Y322777D01*
Y322223D01*
X313318Y321710D01*
X313710Y321319D01*
X314223Y321106D01*
X314777D01*
X315289Y321319D01*
X315682Y321710D01*
X315894Y322223D01*
Y322777D01*
X315682Y323289D01*
X315289Y323681D01*
X314777Y323894D01*
D02*
G37*
G36*
X309765Y323640D02*
X309210D01*
X308698Y323428D01*
X308306Y323036D01*
X308094Y322524D01*
Y321969D01*
X308306Y321457D01*
X308698Y321065D01*
X309210Y320853D01*
X309765D01*
X310277Y321065D01*
X310669Y321457D01*
X310881Y321969D01*
Y322524D01*
X310669Y323036D01*
X310277Y323428D01*
X309765Y323640D01*
D02*
G37*
G36*
X218777Y322394D02*
X218223D01*
X217710Y322182D01*
X217319Y321790D01*
X217106Y321277D01*
Y320723D01*
X217319Y320211D01*
X217710Y319818D01*
X218223Y319606D01*
X218777D01*
X219289Y319818D01*
X219682Y320211D01*
X219894Y320723D01*
Y321277D01*
X219682Y321790D01*
X219289Y322182D01*
X218777Y322394D01*
D02*
G37*
G36*
X350765Y322094D02*
X350211D01*
X349699Y321882D01*
X349307Y321490D01*
X349095Y320977D01*
Y320423D01*
X349307Y319911D01*
X349699Y319518D01*
X350211Y319306D01*
X350765D01*
X351278Y319518D01*
X351670Y319911D01*
X351882Y320423D01*
Y320977D01*
X351670Y321490D01*
X351278Y321882D01*
X350765Y322094D01*
D02*
G37*
G36*
X205277Y321894D02*
X204723D01*
X204210Y321681D01*
X203818Y321289D01*
X203606Y320777D01*
Y320223D01*
X203818Y319710D01*
X204210Y319319D01*
X204723Y319106D01*
X205277D01*
X205789Y319319D01*
X206182Y319710D01*
X206394Y320223D01*
Y320777D01*
X206182Y321289D01*
X205789Y321681D01*
X205277Y321894D01*
D02*
G37*
G36*
X209777Y321394D02*
X209223D01*
X208711Y321182D01*
X208318Y320790D01*
X208106Y320277D01*
Y319723D01*
X208318Y319211D01*
X208711Y318818D01*
X209223Y318606D01*
X209777D01*
X210290Y318818D01*
X210682Y319211D01*
X210894Y319723D01*
Y320277D01*
X210682Y320790D01*
X210290Y321182D01*
X209777Y321394D01*
D02*
G37*
G36*
X523077Y321594D02*
X522523D01*
X522011Y321381D01*
X521619Y320989D01*
X521406Y320477D01*
Y319923D01*
X521619Y319410D01*
X522011Y319019D01*
X522523Y318806D01*
X523028D01*
X523132Y318679D01*
X523277Y318348D01*
X523218Y318289D01*
X523006Y317777D01*
Y317223D01*
X523218Y316710D01*
X523610Y316318D01*
X524123Y316106D01*
X524677D01*
X525189Y316318D01*
X525582Y316710D01*
X525794Y317223D01*
Y317777D01*
X525582Y318289D01*
X525189Y318682D01*
X524677Y318894D01*
X524172D01*
X524068Y319021D01*
X523923Y319352D01*
X523982Y319410D01*
X524194Y319923D01*
Y320477D01*
X523982Y320989D01*
X523590Y321381D01*
X523077Y321594D01*
D02*
G37*
G36*
X218777Y318394D02*
X218223D01*
X217710Y318181D01*
X217319Y317790D01*
X217106Y317277D01*
Y316723D01*
X217319Y316211D01*
X217710Y315819D01*
X218223Y315606D01*
X218777D01*
X219289Y315819D01*
X219682Y316211D01*
X219894Y316723D01*
Y317277D01*
X219682Y317790D01*
X219289Y318181D01*
X218777Y318394D01*
D02*
G37*
G36*
X350765Y318094D02*
X350211D01*
X349699Y317881D01*
X349307Y317490D01*
X349095Y316977D01*
Y316423D01*
X349307Y315911D01*
X349699Y315518D01*
X350211Y315306D01*
X350765D01*
X351278Y315518D01*
X351670Y315911D01*
X351882Y316423D01*
Y316977D01*
X351670Y317490D01*
X351278Y317881D01*
X350765Y318094D01*
D02*
G37*
G36*
X425477Y317494D02*
X424923D01*
X424410Y317282D01*
X424018Y316890D01*
X423806Y316377D01*
Y315823D01*
X424018Y315311D01*
X424410Y314918D01*
X424923Y314706D01*
X425477D01*
X425989Y314918D01*
X426381Y315311D01*
X426594Y315823D01*
Y316377D01*
X426381Y316890D01*
X425989Y317282D01*
X425477Y317494D01*
D02*
G37*
G36*
X281140Y314941D02*
X280586D01*
X280073Y314729D01*
X279681Y314337D01*
X279559Y314041D01*
X279018D01*
X278895Y314337D01*
X278503Y314729D01*
X277991Y314941D01*
X277436D01*
X276924Y314729D01*
X276532Y314337D01*
X276409Y314040D01*
X275868D01*
X275745Y314337D01*
X275353Y314729D01*
X274841Y314941D01*
X274287D01*
X273774Y314729D01*
X273382Y314337D01*
X273260Y314040D01*
X272718D01*
X272596Y314337D01*
X272204Y314729D01*
X271691Y314941D01*
X271137D01*
X270625Y314729D01*
X270233Y314337D01*
X270110Y314040D01*
X269569D01*
X269446Y314337D01*
X269054Y314729D01*
X268542Y314941D01*
X267987D01*
X267475Y314729D01*
X267083Y314337D01*
X266871Y313824D01*
Y313270D01*
X267083Y312758D01*
X267475Y312366D01*
X267987Y312154D01*
X268542D01*
X269054Y312366D01*
X269446Y312758D01*
X269569Y313054D01*
X270110D01*
X270233Y312758D01*
X270625Y312366D01*
X271137Y312154D01*
X271691D01*
X272204Y312366D01*
X272596Y312758D01*
X272718Y313054D01*
X273260D01*
X273382Y312758D01*
X273774Y312366D01*
X274287Y312154D01*
X274841D01*
X275353Y312366D01*
X275745Y312758D01*
X275868Y313054D01*
X276409D01*
X276532Y312758D01*
X276924Y312366D01*
X277436Y312154D01*
X277991D01*
X278503Y312366D01*
X278895Y312758D01*
X279018Y313054D01*
X279559D01*
X279681Y312758D01*
X280073Y312366D01*
X280586Y312154D01*
X281140D01*
X281652Y312366D01*
X282045Y312758D01*
X282257Y313270D01*
Y313824D01*
X282045Y314337D01*
X281652Y314729D01*
X281140Y314941D01*
D02*
G37*
G36*
X300038D02*
X299484D01*
X298971Y314729D01*
X298579Y314337D01*
X298457Y314040D01*
X297915D01*
X297793Y314337D01*
X297401Y314729D01*
X296888Y314941D01*
X296334D01*
X295822Y314729D01*
X295430Y314337D01*
X295307Y314040D01*
X294766D01*
X294643Y314337D01*
X294251Y314729D01*
X293739Y314941D01*
X293184D01*
X292672Y314729D01*
X292280Y314337D01*
X292157Y314040D01*
X291616D01*
X291494Y314337D01*
X291102Y314729D01*
X290589Y314941D01*
X290035D01*
X289523Y314729D01*
X289130Y314337D01*
X289008Y314040D01*
X288467D01*
X288344Y314337D01*
X287952Y314729D01*
X287440Y314941D01*
X286885D01*
X286373Y314729D01*
X285981Y314337D01*
X285769Y313824D01*
Y313270D01*
X285981Y312758D01*
X286373Y312366D01*
X286885Y312154D01*
X287440D01*
X287952Y312366D01*
X288344Y312758D01*
X288467Y313054D01*
X289008D01*
X289130Y312758D01*
X289523Y312366D01*
X290035Y312154D01*
X290589D01*
X291102Y312366D01*
X291494Y312758D01*
X291616Y313054D01*
X292157D01*
X292280Y312758D01*
X292672Y312366D01*
X293184Y312154D01*
X293739D01*
X294251Y312366D01*
X294643Y312758D01*
X294766Y313054D01*
X295307D01*
X295430Y312758D01*
X295822Y312366D01*
X296334Y312154D01*
X296888D01*
X297401Y312366D01*
X297793Y312758D01*
X297915Y313054D01*
X298457D01*
X298579Y312758D01*
X298971Y312366D01*
X299484Y312154D01*
X300038D01*
X300550Y312366D01*
X300942Y312758D01*
X301154Y313270D01*
Y313824D01*
X300942Y314337D01*
X300550Y314729D01*
X300038Y314941D01*
D02*
G37*
G36*
X262243D02*
X261688D01*
X261176Y314729D01*
X260784Y314337D01*
X260661Y314040D01*
X260120D01*
X259997Y314337D01*
X259605Y314729D01*
X259093Y314941D01*
X258539D01*
X258026Y314729D01*
X257634Y314337D01*
X257422Y313824D01*
Y313270D01*
X257634Y312758D01*
X258026Y312366D01*
X258539Y312154D01*
X259093D01*
X259605Y312366D01*
X259997Y312758D01*
X260120Y313054D01*
X260661D01*
X260784Y312758D01*
X261176Y312366D01*
X261688Y312154D01*
X262243D01*
X262755Y312366D01*
X263147Y312758D01*
X263359Y313270D01*
Y313824D01*
X263147Y314337D01*
X262755Y314729D01*
X262243Y314941D01*
D02*
G37*
G36*
X252794D02*
X252239D01*
X251727Y314729D01*
X251335Y314337D01*
X251212Y314040D01*
X250671D01*
X250549Y314337D01*
X250156Y314729D01*
X249644Y314941D01*
X249090D01*
X248578Y314729D01*
X248185Y314337D01*
X248063Y314040D01*
X247522D01*
X247399Y314337D01*
X247007Y314729D01*
X246495Y314941D01*
X245940D01*
X245428Y314729D01*
X245036Y314337D01*
X244824Y313824D01*
Y313270D01*
X245036Y312758D01*
X245428Y312366D01*
X245940Y312154D01*
X246495D01*
X247007Y312366D01*
X247399Y312758D01*
X247522Y313054D01*
X248063D01*
X248185Y312758D01*
X248578Y312366D01*
X249090Y312154D01*
X249644D01*
X250156Y312366D01*
X250549Y312758D01*
X250671Y313054D01*
X251212D01*
X251335Y312758D01*
X251727Y312366D01*
X252239Y312154D01*
X252794D01*
X253306Y312366D01*
X253698Y312758D01*
X253910Y313270D01*
Y313824D01*
X253698Y314337D01*
X253306Y314729D01*
X252794Y314941D01*
D02*
G37*
G36*
X240195D02*
X239641D01*
X239129Y314729D01*
X238737Y314337D01*
X238614Y314040D01*
X238073D01*
X237950Y314337D01*
X237558Y314729D01*
X237046Y314941D01*
X236491D01*
X235979Y314729D01*
X235587Y314337D01*
X235464Y314040D01*
X234923D01*
X234801Y314337D01*
X234408Y314729D01*
X233896Y314941D01*
X233342D01*
X232830Y314729D01*
X232437Y314337D01*
X232315Y314040D01*
X231774D01*
X231651Y314337D01*
X231259Y314729D01*
X230747Y314941D01*
X230192D01*
X229680Y314729D01*
X229288Y314337D01*
X229165Y314040D01*
X228624D01*
X228501Y314337D01*
X228109Y314729D01*
X227597Y314941D01*
X227043D01*
X226530Y314729D01*
X226138Y314337D01*
X226016Y314040D01*
X225474D01*
X225352Y314337D01*
X224960Y314729D01*
X224447Y314941D01*
X223893D01*
X223381Y314729D01*
X222989Y314337D01*
X222866Y314040D01*
X222325D01*
X222202Y314337D01*
X221810Y314729D01*
X221298Y314941D01*
X220743D01*
X220231Y314729D01*
X219839Y314337D01*
X219716Y314040D01*
X219175D01*
X219053Y314337D01*
X218660Y314729D01*
X218148Y314941D01*
X217594D01*
X217082Y314729D01*
X216689Y314337D01*
X216477Y313824D01*
Y313270D01*
X216689Y312758D01*
X217082Y312366D01*
X217594Y312154D01*
X218148D01*
X218660Y312366D01*
X219053Y312758D01*
X219175Y313054D01*
X219716D01*
X219839Y312758D01*
X220231Y312366D01*
X220743Y312154D01*
X221298D01*
X221810Y312366D01*
X222202Y312758D01*
X222325Y313054D01*
X222866D01*
X222989Y312758D01*
X223381Y312366D01*
X223893Y312154D01*
X224447D01*
X224960Y312366D01*
X225352Y312758D01*
X225474Y313054D01*
X226016D01*
X226138Y312758D01*
X226530Y312366D01*
X227043Y312154D01*
X227597D01*
X228109Y312366D01*
X228501Y312758D01*
X228624Y313054D01*
X229165D01*
X229288Y312758D01*
X229680Y312366D01*
X230192Y312154D01*
X230747D01*
X231259Y312366D01*
X231651Y312758D01*
X231774Y313054D01*
X232315D01*
X232437Y312758D01*
X232830Y312366D01*
X233342Y312154D01*
X233896D01*
X234408Y312366D01*
X234801Y312758D01*
X234923Y313054D01*
X235464D01*
X235587Y312758D01*
X235979Y312366D01*
X236491Y312154D01*
X237046D01*
X237558Y312366D01*
X237950Y312758D01*
X238073Y313054D01*
X238614D01*
X238737Y312758D01*
X239129Y312366D01*
X239641Y312154D01*
X240195D01*
X240708Y312366D01*
X241100Y312758D01*
X241312Y313270D01*
Y313824D01*
X241100Y314337D01*
X240708Y314729D01*
X240195Y314941D01*
D02*
G37*
G36*
X496686Y314717D02*
X496131D01*
X495619Y314504D01*
X495227Y314112D01*
X495104Y313816D01*
X494563D01*
X494440Y314112D01*
X494048Y314504D01*
X493536Y314717D01*
X492982D01*
X492469Y314504D01*
X492077Y314112D01*
X491955Y313816D01*
X491413D01*
X491291Y314112D01*
X490899Y314504D01*
X490386Y314717D01*
X489832D01*
X489320Y314504D01*
X488928Y314112D01*
X488805Y313816D01*
X488264D01*
X488141Y314112D01*
X487749Y314504D01*
X487237Y314717D01*
X486682D01*
X486170Y314504D01*
X485778Y314112D01*
X485655Y313816D01*
X485114D01*
X484991Y314112D01*
X484599Y314504D01*
X484087Y314717D01*
X483533D01*
X483020Y314504D01*
X482628Y314112D01*
X482416Y313600D01*
Y313046D01*
X482628Y312533D01*
X483020Y312141D01*
X483533Y311929D01*
X484087D01*
X484599Y312141D01*
X484991Y312533D01*
X485114Y312829D01*
X485655D01*
X485778Y312533D01*
X486170Y312141D01*
X486682Y311929D01*
X487237D01*
X487749Y312141D01*
X488141Y312533D01*
X488264Y312829D01*
X488805D01*
X488928Y312533D01*
X489320Y312141D01*
X489832Y311929D01*
X490386D01*
X490899Y312141D01*
X491291Y312533D01*
X491413Y312830D01*
X491955D01*
X492077Y312533D01*
X492469Y312141D01*
X492982Y311929D01*
X493536D01*
X494048Y312141D01*
X494440Y312533D01*
X494563Y312829D01*
X495104D01*
X495227Y312533D01*
X495619Y312141D01*
X496131Y311929D01*
X496686D01*
X497198Y312141D01*
X497590Y312533D01*
X497802Y313046D01*
Y313600D01*
X497590Y314112D01*
X497198Y314504D01*
X496686Y314717D01*
D02*
G37*
G36*
X515583D02*
X515029D01*
X514517Y314504D01*
X514125Y314112D01*
X514002Y313816D01*
X513461D01*
X513338Y314112D01*
X512946Y314504D01*
X512434Y314717D01*
X511879D01*
X511367Y314504D01*
X510975Y314112D01*
X510852Y313816D01*
X510311D01*
X510188Y314112D01*
X509796Y314504D01*
X509284Y314717D01*
X508730D01*
X508217Y314504D01*
X507825Y314112D01*
X507703Y313816D01*
X507162D01*
X507039Y314112D01*
X506647Y314504D01*
X506135Y314717D01*
X505580D01*
X505068Y314504D01*
X504676Y314112D01*
X504553Y313816D01*
X504012D01*
X503889Y314112D01*
X503497Y314504D01*
X502985Y314717D01*
X502430D01*
X501918Y314504D01*
X501526Y314112D01*
X501314Y313600D01*
Y313046D01*
X501526Y312533D01*
X501918Y312141D01*
X502430Y311929D01*
X502985D01*
X503497Y312141D01*
X503889Y312533D01*
X504012Y312829D01*
X504553D01*
X504676Y312533D01*
X505068Y312141D01*
X505580Y311929D01*
X506135D01*
X506647Y312141D01*
X507039Y312533D01*
X507162Y312829D01*
X507703D01*
X507825Y312533D01*
X508217Y312141D01*
X508730Y311929D01*
X509284D01*
X509796Y312141D01*
X510188Y312533D01*
X510311Y312829D01*
X510852D01*
X510975Y312533D01*
X511367Y312141D01*
X511879Y311929D01*
X512434D01*
X512946Y312141D01*
X513338Y312533D01*
X513461Y312829D01*
X514002D01*
X514125Y312533D01*
X514517Y312141D01*
X515029Y311929D01*
X515583D01*
X516096Y312141D01*
X516488Y312533D01*
X516700Y313046D01*
Y313600D01*
X516488Y314112D01*
X516096Y314504D01*
X515583Y314717D01*
D02*
G37*
G36*
X477788D02*
X477234D01*
X476721Y314504D01*
X476329Y314112D01*
X476206Y313816D01*
X475665D01*
X475543Y314112D01*
X475151Y314504D01*
X474638Y314717D01*
X474084D01*
X473572Y314504D01*
X473180Y314112D01*
X472967Y313600D01*
Y313046D01*
X473180Y312533D01*
X473572Y312141D01*
X474084Y311929D01*
X474638D01*
X475151Y312141D01*
X475543Y312533D01*
X475665Y312829D01*
X476206D01*
X476329Y312533D01*
X476721Y312141D01*
X477234Y311929D01*
X477788D01*
X478300Y312141D01*
X478692Y312533D01*
X478904Y313046D01*
Y313600D01*
X478692Y314112D01*
X478300Y314504D01*
X477788Y314717D01*
D02*
G37*
G36*
X468339D02*
X467785D01*
X467272Y314504D01*
X466880Y314112D01*
X466758Y313816D01*
X466217D01*
X466094Y314112D01*
X465702Y314504D01*
X465190Y314717D01*
X464635D01*
X464123Y314504D01*
X463731Y314112D01*
X463608Y313816D01*
X463067D01*
X462944Y314112D01*
X462552Y314504D01*
X462040Y314717D01*
X461485D01*
X460973Y314504D01*
X460581Y314112D01*
X460369Y313600D01*
Y313046D01*
X460581Y312533D01*
X460973Y312141D01*
X461485Y311929D01*
X462040D01*
X462552Y312141D01*
X462944Y312533D01*
X463067Y312829D01*
X463608D01*
X463731Y312533D01*
X464123Y312141D01*
X464635Y311929D01*
X465190D01*
X465702Y312141D01*
X466094Y312533D01*
X466217Y312829D01*
X466758D01*
X466880Y312533D01*
X467272Y312141D01*
X467785Y311929D01*
X468339D01*
X468851Y312141D01*
X469243Y312533D01*
X469456Y313046D01*
Y313600D01*
X469243Y314112D01*
X468851Y314504D01*
X468339Y314717D01*
D02*
G37*
G36*
X455741D02*
X455186D01*
X454674Y314504D01*
X454282Y314112D01*
X454159Y313816D01*
X453618D01*
X453495Y314112D01*
X453103Y314504D01*
X452591Y314717D01*
X452037D01*
X451524Y314504D01*
X451132Y314112D01*
X451010Y313816D01*
X450468D01*
X450346Y314112D01*
X449954Y314504D01*
X449441Y314717D01*
X448887D01*
X448375Y314504D01*
X447983Y314112D01*
X447860Y313816D01*
X447319D01*
X447196Y314112D01*
X446804Y314504D01*
X446292Y314717D01*
X445738D01*
X445225Y314504D01*
X444833Y314112D01*
X444710Y313816D01*
X444169D01*
X444047Y314112D01*
X443655Y314504D01*
X443142Y314717D01*
X442588D01*
X442076Y314504D01*
X441684Y314112D01*
X441561Y313816D01*
X441020D01*
X440897Y314112D01*
X440505Y314504D01*
X439993Y314717D01*
X439438D01*
X438926Y314504D01*
X438534Y314112D01*
X438411Y313816D01*
X437870D01*
X437747Y314112D01*
X437355Y314504D01*
X436843Y314717D01*
X436289D01*
X435776Y314504D01*
X435384Y314112D01*
X435262Y313816D01*
X434721D01*
X434598Y314112D01*
X434206Y314504D01*
X433694Y314717D01*
X433139D01*
X432627Y314504D01*
X432235Y314112D01*
X432023Y313600D01*
Y313046D01*
X432235Y312533D01*
X432627Y312141D01*
X433139Y311929D01*
X433694D01*
X434206Y312141D01*
X434598Y312533D01*
X434721Y312829D01*
X435262D01*
X435384Y312533D01*
X435776Y312141D01*
X436289Y311929D01*
X436843D01*
X437355Y312141D01*
X437747Y312533D01*
X437870Y312829D01*
X438411D01*
X438534Y312533D01*
X438926Y312141D01*
X439438Y311929D01*
X439993D01*
X440505Y312141D01*
X440897Y312533D01*
X441020Y312829D01*
X441561D01*
X441684Y312533D01*
X442076Y312141D01*
X442588Y311929D01*
X443142D01*
X443655Y312141D01*
X444047Y312533D01*
X444169Y312829D01*
X444710D01*
X444833Y312533D01*
X445225Y312141D01*
X445738Y311929D01*
X446292D01*
X446804Y312141D01*
X447196Y312533D01*
X447319Y312829D01*
X447860D01*
X447983Y312533D01*
X448375Y312141D01*
X448887Y311929D01*
X449441D01*
X449954Y312141D01*
X450346Y312533D01*
X450468Y312829D01*
X451010D01*
X451132Y312533D01*
X451524Y312141D01*
X452037Y311929D01*
X452591D01*
X453103Y312141D01*
X453495Y312533D01*
X453618Y312829D01*
X454159D01*
X454282Y312533D01*
X454674Y312141D01*
X455186Y311929D01*
X455741D01*
X456253Y312141D01*
X456645Y312533D01*
X456857Y313046D01*
Y313600D01*
X456645Y314112D01*
X456253Y314504D01*
X455741Y314717D01*
D02*
G37*
G36*
X209277Y315894D02*
X208723D01*
X208210Y315682D01*
X207819Y315289D01*
X207606Y314777D01*
Y314223D01*
X207819Y313710D01*
X208210Y313318D01*
X208723Y313106D01*
X209277D01*
X209789Y313318D01*
X210181Y313710D01*
X210394Y314223D01*
Y314777D01*
X210181Y315289D01*
X209789Y315682D01*
X209277Y315894D01*
D02*
G37*
G36*
X350765Y314194D02*
X350211D01*
X349699Y313982D01*
X349307Y313590D01*
X349095Y313077D01*
Y312523D01*
X349307Y312011D01*
X349699Y311618D01*
X350211Y311406D01*
X350765D01*
X351278Y311618D01*
X351670Y312011D01*
X351882Y312523D01*
Y313077D01*
X351670Y313590D01*
X351278Y313982D01*
X350765Y314194D01*
D02*
G37*
G36*
X319777Y312894D02*
X319223D01*
X318710Y312682D01*
X318319Y312290D01*
X318106Y311777D01*
Y311223D01*
X318319Y310711D01*
X318710Y310318D01*
X319223Y310106D01*
X319777D01*
X320289Y310318D01*
X320682Y310711D01*
X320894Y311223D01*
Y311777D01*
X320682Y312290D01*
X320289Y312682D01*
X319777Y312894D01*
D02*
G37*
G36*
X314781Y312742D02*
X314227D01*
X313715Y312530D01*
X313323Y312138D01*
X313111Y311626D01*
Y311072D01*
X313323Y310559D01*
X313715Y310167D01*
X314227Y309955D01*
X314781D01*
X315294Y310167D01*
X315686Y310559D01*
X315898Y311072D01*
Y311626D01*
X315686Y312138D01*
X315294Y312530D01*
X314781Y312742D01*
D02*
G37*
G36*
X309817Y312738D02*
X309262D01*
X308750Y312526D01*
X308358Y312134D01*
X308146Y311621D01*
Y311067D01*
X308358Y310555D01*
X308750Y310163D01*
X309262Y309951D01*
X309817D01*
X310329Y310163D01*
X310721Y310555D01*
X310933Y311067D01*
Y311621D01*
X310721Y312134D01*
X310329Y312526D01*
X309817Y312738D01*
D02*
G37*
G36*
X306277Y312394D02*
X305723D01*
X305210Y312181D01*
X304819Y311789D01*
X304606Y311277D01*
Y310723D01*
X304819Y310210D01*
X305210Y309819D01*
X305723Y309606D01*
X306277D01*
X306789Y309819D01*
X307182Y310210D01*
X307394Y310723D01*
Y311277D01*
X307182Y311789D01*
X306789Y312181D01*
X306277Y312394D01*
D02*
G37*
G36*
X350765Y310294D02*
X350211D01*
X349699Y310082D01*
X349307Y309689D01*
X349095Y309177D01*
Y308623D01*
X349307Y308110D01*
X349699Y307718D01*
X350211Y307506D01*
X350765D01*
X351278Y307718D01*
X351670Y308110D01*
X351882Y308623D01*
Y309177D01*
X351670Y309689D01*
X351278Y310082D01*
X350765Y310294D01*
D02*
G37*
G36*
X230685Y302774D02*
X230131D01*
X229619Y302562D01*
X229226Y302170D01*
X229058Y301763D01*
X228672Y301698D01*
X228538Y301714D01*
X228452Y301919D01*
X228060Y302311D01*
X227548Y302523D01*
X226994D01*
X226481Y302311D01*
X226089Y301919D01*
X225967Y301623D01*
X225425D01*
X225303Y301919D01*
X224911Y302311D01*
X224398Y302523D01*
X223844D01*
X223332Y302311D01*
X222940Y301919D01*
X222817Y301623D01*
X222276D01*
X222153Y301919D01*
X221761Y302311D01*
X221249Y302523D01*
X220694D01*
X220182Y302311D01*
X219790Y301919D01*
X219578Y301407D01*
Y300853D01*
X219790Y300340D01*
X220182Y299948D01*
X220694Y299736D01*
X221249D01*
X221761Y299948D01*
X222153Y300340D01*
X222276Y300637D01*
X222817D01*
X222940Y300340D01*
X223332Y299948D01*
X223844Y299736D01*
X224398D01*
X224911Y299948D01*
X225303Y300340D01*
X225425Y300637D01*
X225967D01*
X226089Y300340D01*
X226481Y299948D01*
X226994Y299736D01*
X227548D01*
X228060Y299948D01*
X228452Y300340D01*
X228621Y300747D01*
X229007Y300812D01*
X229141Y300797D01*
X229226Y300591D01*
X229619Y300199D01*
X230131Y299987D01*
X230685D01*
X231198Y300199D01*
X231590Y300591D01*
X231687Y300827D01*
X231939Y300840D01*
X232208Y300777D01*
X232388Y300340D01*
X232781Y299948D01*
X233293Y299736D01*
X233847D01*
X234360Y299948D01*
X234752Y300340D01*
X234874Y300637D01*
X235415D01*
X235538Y300340D01*
X235930Y299948D01*
X236442Y299736D01*
X236997D01*
X237509Y299948D01*
X237901Y300340D01*
X238024Y300637D01*
X238565D01*
X238688Y300340D01*
X239080Y299948D01*
X239592Y299736D01*
X240146D01*
X240659Y299948D01*
X241051Y300340D01*
X241173Y300637D01*
X241715D01*
X241837Y300340D01*
X242229Y299948D01*
X242742Y299736D01*
X243296D01*
X243808Y299948D01*
X244200Y300340D01*
X244352Y300705D01*
X244875Y300749D01*
X244987Y300478D01*
X245379Y300085D01*
X245891Y299873D01*
X246446D01*
X246958Y300085D01*
X247350Y300478D01*
X247470Y300768D01*
X247496Y300772D01*
X247991Y300718D01*
X248147Y300340D01*
X248539Y299948D01*
X249051Y299736D01*
X249606D01*
X250118Y299948D01*
X250510Y300340D01*
X250628Y300623D01*
X251169D01*
X251286Y300340D01*
X251678Y299948D01*
X252190Y299736D01*
X252745D01*
X253257Y299948D01*
X253649Y300340D01*
X253772Y300637D01*
X254313D01*
X254436Y300340D01*
X254828Y299948D01*
X255340Y299736D01*
X255894D01*
X256407Y299948D01*
X256799Y300340D01*
X257011Y300853D01*
Y301407D01*
X256799Y301919D01*
X256407Y302311D01*
X255894Y302523D01*
X255340D01*
X254828Y302311D01*
X254436Y301919D01*
X254313Y301623D01*
X253772D01*
X253649Y301919D01*
X253257Y302311D01*
X252745Y302523D01*
X252190D01*
X251678Y302311D01*
X251286Y301919D01*
X251169Y301636D01*
X250628D01*
X250510Y301919D01*
X250118Y302311D01*
X249606Y302523D01*
X249051D01*
X248539Y302311D01*
X248147Y301919D01*
X248027Y301629D01*
X248002Y301624D01*
X247506Y301679D01*
X247350Y302057D01*
X246958Y302449D01*
X246446Y302661D01*
X245891D01*
X245379Y302449D01*
X244987Y302057D01*
X244836Y301692D01*
X244313Y301648D01*
X244200Y301919D01*
X243808Y302311D01*
X243296Y302523D01*
X242742D01*
X242229Y302311D01*
X241837Y301919D01*
X241715Y301623D01*
X241173D01*
X241051Y301919D01*
X240659Y302311D01*
X240146Y302523D01*
X239592D01*
X239080Y302311D01*
X238688Y301919D01*
X238565Y301623D01*
X238024D01*
X237901Y301919D01*
X237509Y302311D01*
X236997Y302523D01*
X236442D01*
X235930Y302311D01*
X235538Y301919D01*
X235415Y301623D01*
X234874D01*
X234752Y301919D01*
X234360Y302311D01*
X233847Y302523D01*
X233293D01*
X232781Y302311D01*
X232388Y301919D01*
X232291Y301684D01*
X232039Y301670D01*
X231770Y301733D01*
X231590Y302170D01*
X231198Y302562D01*
X230685Y302774D01*
D02*
G37*
G36*
X290540Y302523D02*
X289986D01*
X289474Y302311D01*
X289082Y301919D01*
X288959Y301623D01*
X288418D01*
X288295Y301919D01*
X287903Y302311D01*
X287391Y302523D01*
X286836D01*
X286324Y302311D01*
X285932Y301919D01*
X285809Y301623D01*
X285268D01*
X285145Y301919D01*
X284753Y302311D01*
X284241Y302523D01*
X283687D01*
X283174Y302311D01*
X282782Y301919D01*
X282660Y301623D01*
X282118D01*
X281996Y301919D01*
X281604Y302311D01*
X281091Y302523D01*
X280537D01*
X280025Y302311D01*
X279632Y301919D01*
X279510Y301623D01*
X278969D01*
X278846Y301919D01*
X278454Y302311D01*
X277942Y302523D01*
X277387D01*
X276875Y302311D01*
X276483Y301919D01*
X276271Y301407D01*
Y300853D01*
X276483Y300340D01*
X276875Y299948D01*
X277387Y299736D01*
X277942D01*
X278454Y299948D01*
X278846Y300340D01*
X278969Y300637D01*
X279510D01*
X279632Y300340D01*
X280025Y299948D01*
X280537Y299736D01*
X281091D01*
X281604Y299948D01*
X281996Y300340D01*
X282118Y300637D01*
X282660D01*
X282782Y300340D01*
X283174Y299948D01*
X283687Y299736D01*
X284241D01*
X284753Y299948D01*
X285145Y300340D01*
X285268Y300637D01*
X285809D01*
X285932Y300340D01*
X286324Y299948D01*
X286836Y299736D01*
X287391D01*
X287903Y299948D01*
X288295Y300340D01*
X288418Y300637D01*
X288959D01*
X289082Y300340D01*
X289474Y299948D01*
X289986Y299736D01*
X290540D01*
X291053Y299948D01*
X291444Y300340D01*
X291657Y300853D01*
Y301407D01*
X291444Y301919D01*
X291053Y302311D01*
X290540Y302523D01*
D02*
G37*
G36*
X271642D02*
X271088D01*
X270576Y302311D01*
X270184Y301919D01*
X270061Y301623D01*
X269520D01*
X269397Y301919D01*
X269005Y302311D01*
X268493Y302523D01*
X267938D01*
X267426Y302311D01*
X267034Y301919D01*
X266930Y301669D01*
X266389D01*
X266312Y301855D01*
X265920Y302247D01*
X265408Y302459D01*
X264854D01*
X264341Y302247D01*
X263949Y301855D01*
X263787Y301463D01*
X263634Y301445D01*
X263275Y301492D01*
X263098Y301919D01*
X262706Y302311D01*
X262194Y302523D01*
X261639D01*
X261127Y302311D01*
X260735Y301919D01*
X260523Y301407D01*
Y300853D01*
X260735Y300340D01*
X261127Y299948D01*
X261639Y299736D01*
X262194D01*
X262706Y299948D01*
X263098Y300340D01*
X263260Y300732D01*
X263413Y300750D01*
X263772Y300703D01*
X263949Y300276D01*
X264341Y299884D01*
X264854Y299671D01*
X265408D01*
X265920Y299884D01*
X266312Y300276D01*
X266416Y300526D01*
X266957D01*
X267034Y300340D01*
X267426Y299948D01*
X267938Y299736D01*
X268493D01*
X269005Y299948D01*
X269397Y300340D01*
X269520Y300637D01*
X270061D01*
X270184Y300340D01*
X270576Y299948D01*
X271088Y299736D01*
X271642D01*
X272155Y299948D01*
X272547Y300340D01*
X272759Y300853D01*
Y301407D01*
X272547Y301919D01*
X272155Y302311D01*
X271642Y302523D01*
D02*
G37*
G36*
X336277Y304394D02*
X335723D01*
X335210Y304182D01*
X334819Y303789D01*
X334606Y303277D01*
Y302723D01*
X334819Y302210D01*
X335210Y301818D01*
X335723Y301606D01*
X336277D01*
X336789Y301818D01*
X337181Y302210D01*
X337394Y302723D01*
Y303277D01*
X337181Y303789D01*
X336789Y304182D01*
X336277Y304394D01*
D02*
G37*
G36*
X446231Y302550D02*
X445676D01*
X445164Y302338D01*
X444772Y301946D01*
X444603Y301539D01*
X444217Y301474D01*
X444083Y301489D01*
X443998Y301695D01*
X443606Y302087D01*
X443093Y302299D01*
X442539D01*
X442027Y302087D01*
X441635Y301695D01*
X441512Y301399D01*
X440971D01*
X440848Y301695D01*
X440456Y302087D01*
X439944Y302299D01*
X439389D01*
X438877Y302087D01*
X438485Y301695D01*
X438362Y301399D01*
X437821D01*
X437698Y301695D01*
X437306Y302087D01*
X436794Y302299D01*
X436240D01*
X435727Y302087D01*
X435335Y301695D01*
X435123Y301183D01*
Y300628D01*
X435335Y300116D01*
X435727Y299724D01*
X436240Y299512D01*
X436794D01*
X437306Y299724D01*
X437698Y300116D01*
X437821Y300412D01*
X438362D01*
X438485Y300116D01*
X438877Y299724D01*
X439389Y299512D01*
X439944D01*
X440456Y299724D01*
X440848Y300116D01*
X440971Y300412D01*
X441512D01*
X441635Y300116D01*
X442027Y299724D01*
X442539Y299512D01*
X443093D01*
X443606Y299724D01*
X443998Y300116D01*
X444166Y300522D01*
X444552Y300588D01*
X444687Y300572D01*
X444772Y300367D01*
X445164Y299975D01*
X445676Y299763D01*
X446231D01*
X446743Y299975D01*
X447135Y300367D01*
X447232Y300602D01*
X447484Y300616D01*
X447753Y300552D01*
X447934Y300116D01*
X448326Y299724D01*
X448838Y299512D01*
X449393D01*
X449905Y299724D01*
X450297Y300116D01*
X450423Y300420D01*
X450964D01*
X451083Y300132D01*
X451475Y299740D01*
X451988Y299528D01*
X452542D01*
X453054Y299740D01*
X453446Y300132D01*
X453569Y300428D01*
X454110D01*
X454233Y300132D01*
X454625Y299740D01*
X455137Y299528D01*
X455692D01*
X456204Y299740D01*
X456596Y300132D01*
X456715Y300420D01*
X457257D01*
X457383Y300116D01*
X457775Y299724D01*
X458287Y299512D01*
X458841D01*
X459354Y299724D01*
X459746Y300116D01*
X459897Y300481D01*
X460420Y300525D01*
X460532Y300253D01*
X460924Y299861D01*
X461437Y299649D01*
X461991D01*
X462503Y299861D01*
X462895Y300253D01*
X463015Y300543D01*
X463041Y300548D01*
X463536Y300494D01*
X463693Y300116D01*
X464084Y299724D01*
X464597Y299512D01*
X465151D01*
X465663Y299724D01*
X466055Y300116D01*
X466173Y300399D01*
X466714D01*
X466831Y300116D01*
X467223Y299724D01*
X467736Y299512D01*
X468290D01*
X468802Y299724D01*
X469194Y300116D01*
X469338Y300461D01*
X469869Y300486D01*
X469981Y300214D01*
X470373Y299822D01*
X470885Y299610D01*
X471440D01*
X471952Y299822D01*
X472344Y300214D01*
X472556Y300727D01*
Y301281D01*
X472344Y301793D01*
X471952Y302185D01*
X471440Y302397D01*
X470885D01*
X470373Y302185D01*
X469981Y301793D01*
X469838Y301448D01*
X469307Y301423D01*
X469194Y301695D01*
X468802Y302087D01*
X468290Y302299D01*
X467736D01*
X467223Y302087D01*
X466831Y301695D01*
X466714Y301412D01*
X466173D01*
X466055Y301695D01*
X465663Y302087D01*
X465151Y302299D01*
X464597D01*
X464084Y302087D01*
X463693Y301695D01*
X463572Y301405D01*
X463547Y301400D01*
X463052Y301454D01*
X462895Y301832D01*
X462503Y302224D01*
X461991Y302436D01*
X461437D01*
X460924Y302224D01*
X460532Y301832D01*
X460381Y301467D01*
X459858Y301423D01*
X459746Y301695D01*
X459354Y302087D01*
X458841Y302299D01*
X458287D01*
X457775Y302087D01*
X457383Y301695D01*
X457263Y301407D01*
X456722D01*
X456596Y301711D01*
X456204Y302103D01*
X455692Y302315D01*
X455137D01*
X454625Y302103D01*
X454233Y301711D01*
X454110Y301414D01*
X453569D01*
X453446Y301711D01*
X453054Y302103D01*
X452542Y302315D01*
X451988D01*
X451475Y302103D01*
X451083Y301711D01*
X450957Y301407D01*
X450416D01*
X450297Y301695D01*
X449905Y302087D01*
X449393Y302299D01*
X448838D01*
X448326Y302087D01*
X447934Y301695D01*
X447836Y301459D01*
X447585Y301446D01*
X447316Y301509D01*
X447135Y301946D01*
X446743Y302338D01*
X446231Y302550D01*
D02*
G37*
G36*
X506085Y302299D02*
X505531D01*
X505019Y302087D01*
X504627Y301695D01*
X504504Y301399D01*
X503963D01*
X503840Y301695D01*
X503448Y302087D01*
X502936Y302299D01*
X502382D01*
X501869Y302087D01*
X501477Y301695D01*
X501355Y301399D01*
X500813D01*
X500691Y301695D01*
X500299Y302087D01*
X499786Y302299D01*
X499232D01*
X498720Y302087D01*
X498328Y301695D01*
X498205Y301398D01*
X497664D01*
X497541Y301695D01*
X497149Y302087D01*
X496636Y302299D01*
X496082D01*
X495570Y302087D01*
X495178Y301695D01*
X495055Y301399D01*
X494514D01*
X494391Y301695D01*
X493999Y302087D01*
X493487Y302299D01*
X492933D01*
X492420Y302087D01*
X492028Y301695D01*
X491816Y301183D01*
Y300628D01*
X492028Y300116D01*
X492420Y299724D01*
X492933Y299512D01*
X493487D01*
X493999Y299724D01*
X494391Y300116D01*
X494514Y300412D01*
X495055D01*
X495178Y300116D01*
X495570Y299724D01*
X496082Y299512D01*
X496636D01*
X497149Y299724D01*
X497541Y300116D01*
X497664Y300412D01*
X498205D01*
X498328Y300116D01*
X498720Y299724D01*
X499232Y299512D01*
X499786D01*
X500299Y299724D01*
X500691Y300116D01*
X500813Y300412D01*
X501355D01*
X501477Y300116D01*
X501869Y299724D01*
X502382Y299512D01*
X502936D01*
X503448Y299724D01*
X503840Y300116D01*
X503963Y300412D01*
X504504D01*
X504627Y300116D01*
X505019Y299724D01*
X505531Y299512D01*
X506085D01*
X506598Y299724D01*
X506990Y300116D01*
X507202Y300628D01*
Y301183D01*
X506990Y301695D01*
X506598Y302087D01*
X506085Y302299D01*
D02*
G37*
G36*
X487188D02*
X486633D01*
X486121Y302087D01*
X485729Y301695D01*
X485606Y301399D01*
X485065D01*
X484942Y301695D01*
X484550Y302087D01*
X484038Y302299D01*
X483484D01*
X482971Y302087D01*
X482579Y301695D01*
X482476Y301444D01*
X481934D01*
X481857Y301630D01*
X481465Y302022D01*
X480953Y302234D01*
X480399D01*
X479886Y302022D01*
X479494Y301630D01*
X479332Y301238D01*
X479179Y301221D01*
X478820Y301267D01*
X478643Y301695D01*
X478251Y302087D01*
X477739Y302299D01*
X477184D01*
X476672Y302087D01*
X476280Y301695D01*
X476068Y301183D01*
Y300628D01*
X476280Y300116D01*
X476672Y299724D01*
X477184Y299512D01*
X477739D01*
X478251Y299724D01*
X478643Y300116D01*
X478805Y300507D01*
X478959Y300525D01*
X479317Y300479D01*
X479494Y300051D01*
X479886Y299659D01*
X480399Y299447D01*
X480953D01*
X481465Y299659D01*
X481857Y300051D01*
X481961Y300302D01*
X482502D01*
X482579Y300116D01*
X482971Y299724D01*
X483484Y299512D01*
X484038D01*
X484550Y299724D01*
X484942Y300116D01*
X485065Y300412D01*
X485606D01*
X485729Y300116D01*
X486121Y299724D01*
X486633Y299512D01*
X487188D01*
X487700Y299724D01*
X488092Y300116D01*
X488304Y300628D01*
Y301183D01*
X488092Y301695D01*
X487700Y302087D01*
X487188Y302299D01*
D02*
G37*
G36*
X296839Y302523D02*
X296285D01*
X295773Y302311D01*
X295381Y301919D01*
X295168Y301407D01*
Y300853D01*
X295381Y300340D01*
X295773Y299948D01*
X296285Y299736D01*
X296839D01*
X297352Y299948D01*
X297744Y300340D01*
X297956Y300853D01*
Y301407D01*
X297744Y301919D01*
X297352Y302311D01*
X296839Y302523D01*
D02*
G37*
G36*
X512385Y302299D02*
X511830D01*
X511318Y302087D01*
X510926Y301695D01*
X510714Y301183D01*
Y300628D01*
X510926Y300116D01*
X511318Y299724D01*
X511830Y299512D01*
X512385D01*
X512897Y299724D01*
X513289Y300116D01*
X513501Y300628D01*
Y301183D01*
X513289Y301695D01*
X512897Y302087D01*
X512385Y302299D01*
D02*
G37*
G36*
X529435Y309683D02*
X527982D01*
X526578Y309306D01*
X525318Y308579D01*
X524291Y307552D01*
X523564Y306293D01*
X523187Y304888D01*
Y303434D01*
X523564Y302030D01*
X524291Y300771D01*
X525318Y299743D01*
X526578Y299016D01*
X527982Y298640D01*
X529435D01*
X530840Y299016D01*
X532099Y299743D01*
X533127Y300771D01*
X533854Y302030D01*
X534230Y303434D01*
Y304888D01*
X533854Y306293D01*
X533127Y307552D01*
X532099Y308579D01*
X530840Y309306D01*
X529435Y309683D01*
D02*
G37*
G36*
X205018D02*
X203565D01*
X202160Y309306D01*
X200901Y308579D01*
X199873Y307552D01*
X199146Y306293D01*
X198770Y304888D01*
Y303434D01*
X199146Y302030D01*
X199873Y300771D01*
X200901Y299743D01*
X202160Y299016D01*
X203565Y298640D01*
X205018D01*
X206422Y299016D01*
X207681Y299743D01*
X208710Y300771D01*
X209436Y302030D01*
X209813Y303434D01*
Y304888D01*
X209436Y306293D01*
X208710Y307552D01*
X207681Y308579D01*
X206422Y309306D01*
X205018Y309683D01*
D02*
G37*
G36*
X384651Y305512D02*
X383466D01*
X382321Y305205D01*
X381295Y304613D01*
X380457Y303775D01*
X379865Y302749D01*
X379558Y301604D01*
Y300419D01*
X379865Y299275D01*
X380457Y298249D01*
X381295Y297411D01*
X382321Y296818D01*
X383466Y296512D01*
X384651D01*
X385795Y296818D01*
X386821Y297411D01*
X387659Y298249D01*
X388252Y299275D01*
X388558Y300419D01*
Y301604D01*
X388252Y302749D01*
X387659Y303775D01*
X386821Y304613D01*
X385795Y305205D01*
X384651Y305512D01*
D02*
G37*
G36*
X349584Y305461D02*
X348399D01*
X347254Y305155D01*
X346228Y304562D01*
X345390Y303725D01*
X344798Y302698D01*
X344491Y301554D01*
Y300369D01*
X344798Y299224D01*
X345390Y298198D01*
X346228Y297360D01*
X347254Y296768D01*
X348399Y296461D01*
X349584D01*
X350728Y296768D01*
X351754Y297360D01*
X352592Y298198D01*
X353185Y299224D01*
X353491Y300369D01*
Y301554D01*
X353185Y302698D01*
X352592Y303725D01*
X351754Y304562D01*
X350728Y305155D01*
X349584Y305461D01*
D02*
G37*
G36*
X335477Y297694D02*
X334923D01*
X334411Y297481D01*
X334018Y297090D01*
X333806Y296577D01*
Y296023D01*
X334018Y295511D01*
X334411Y295118D01*
X334923Y294906D01*
X335477D01*
X335989Y295118D01*
X336382Y295511D01*
X336594Y296023D01*
Y296577D01*
X336382Y297090D01*
X335989Y297481D01*
X335477Y297694D01*
D02*
G37*
G36*
X258069Y297055D02*
X257514D01*
X257002Y296843D01*
X256610Y296451D01*
X256398Y295939D01*
Y295384D01*
X256610Y294872D01*
X257002Y294480D01*
X257514Y294268D01*
X258069D01*
X258581Y294480D01*
X258973Y294872D01*
X259185Y295384D01*
Y295939D01*
X258973Y296451D01*
X258581Y296843D01*
X258069Y297055D01*
D02*
G37*
G36*
X473614Y296831D02*
X473059D01*
X472547Y296619D01*
X472155Y296227D01*
X471943Y295714D01*
Y295160D01*
X472155Y294648D01*
X472547Y294255D01*
X473059Y294043D01*
X473614D01*
X474126Y294255D01*
X474518Y294648D01*
X474730Y295160D01*
Y295714D01*
X474518Y296227D01*
X474126Y296619D01*
X473614Y296831D01*
D02*
G37*
G36*
X297569Y295555D02*
X297014D01*
X296502Y295343D01*
X296110Y294951D01*
X295898Y294439D01*
Y293884D01*
X296110Y293372D01*
X296502Y292980D01*
X297014Y292768D01*
X297569D01*
X298081Y292980D01*
X298473Y293372D01*
X298685Y293884D01*
Y294439D01*
X298473Y294951D01*
X298081Y295343D01*
X297569Y295555D01*
D02*
G37*
G36*
X290569D02*
X290014D01*
X289502Y295343D01*
X289110Y294951D01*
X288898Y294439D01*
Y293884D01*
X289110Y293372D01*
X289502Y292980D01*
X290014Y292768D01*
X290569D01*
X291081Y292980D01*
X291473Y293372D01*
X291685Y293884D01*
Y294439D01*
X291473Y294951D01*
X291081Y295343D01*
X290569Y295555D01*
D02*
G37*
G36*
X272069D02*
X271514D01*
X271002Y295343D01*
X270610Y294951D01*
X270398Y294439D01*
Y293884D01*
X270610Y293372D01*
X271002Y292980D01*
X271514Y292768D01*
X272069D01*
X272581Y292980D01*
X272973Y293372D01*
X273185Y293884D01*
Y294439D01*
X272973Y294951D01*
X272581Y295343D01*
X272069Y295555D01*
D02*
G37*
%LPD*%
D15*
X295205Y394496D02*
G03*
X293017Y396642I-2510J-370D01*
G01*
X289060Y395992D02*
G03*
X289001Y395996I-313J-3523D01*
G01*
X296195Y394640D02*
G03*
X293272Y397616I-3500J-515D01*
G01*
X298479Y379279D02*
G03*
X299098Y378255I1522J221D01*
G01*
X278751Y400017D02*
G03*
X277529Y399692I-251J-1517D01*
G01*
X309244Y370909D02*
G03*
X309377Y370823I899J1247D01*
G01*
X297490Y379130D02*
G03*
X298365Y377559I2510J370D01*
G01*
X294216Y394348D02*
G03*
X292831Y395657I-1521J-222D01*
G01*
X309165Y366502D02*
G03*
X309350Y366361I1023J1147D01*
G01*
X281275Y395009D02*
G03*
X281274Y395009I601J-1415D01*
G01*
X291181Y393188D02*
G03*
X288787Y395005I-2433J-720D01*
G01*
X294694Y377917D02*
G03*
X295988Y375683I5306J1583D01*
G01*
X308214Y360369D02*
G03*
X307823Y361220I-1526J-184D01*
G01*
X287976Y390359D02*
G03*
X287086Y391074I-1339J-756D01*
G01*
X293056Y376570D02*
G03*
X294289Y374581I6944J2930D01*
G01*
X288436Y384690D02*
G03*
X288308Y384926I-1411J-611D01*
G01*
X302189Y360159D02*
G03*
X301748Y361125I-2477J-549D01*
G01*
X291284Y375627D02*
G03*
X292339Y373819I8716J3873D01*
G01*
X293975Y376962D02*
G03*
X295200Y375062I6024J2538D01*
G01*
X290697Y374551D02*
G03*
X291534Y373226I9303J4949D01*
G01*
X302631Y361607D02*
G03*
X302549Y361723I-2920J-1997D01*
G01*
X296501Y378980D02*
G03*
X297635Y376870I3499J520D01*
G01*
X289405Y387792D02*
G03*
X289275Y388058I-2340J-981D01*
G01*
X290222Y392904D02*
G03*
X288655Y394003I-1474J-436D01*
G01*
X282009Y395126D02*
G03*
X282038Y395124I40J499D01*
G01*
X292170Y376097D02*
G03*
X293144Y374412I7830J3403D01*
G01*
X282004Y395126D02*
G03*
X281275Y395009I-128J-1532D01*
G01*
X301246Y359712D02*
G03*
X300947Y360526I-1534J-102D01*
G01*
X301466Y356398D02*
G03*
X301570Y355935I1534J102D01*
G01*
X288482Y387408D02*
G03*
X288213Y387833I-1417J-597D01*
G01*
X288406Y382123D02*
G03*
X288243Y382404I-1406J-623D01*
G01*
X295651Y378207D02*
G03*
X296826Y376258I4349J1293D01*
G01*
X309377Y370823D02*
X313249Y368598D01*
X295205Y394496D02*
X297490Y379130D01*
X297635Y376870D02*
X309165Y366502D01*
X298365Y377559D02*
X310188Y367650D01*
X299098Y378255D02*
X309244Y370909D01*
X309350Y366361D02*
X313000Y364000D01*
X278500Y398500D02*
X293017Y396642D01*
X294216Y394348D02*
X296501Y378980D01*
X289060Y395992D02*
X292831Y395657D01*
X295200Y375062D02*
X307823Y361220D01*
X280781Y396588D02*
X289001Y395996D01*
X287976Y390359D02*
X289275Y388058D01*
X278751Y400017D02*
X293272Y397616D01*
X275343Y397910D02*
X277529Y399692D01*
X282038Y395124D02*
X288787Y395005D01*
X289405Y387792D02*
X293975Y376962D01*
X296826Y376258D02*
X310323Y363044D01*
X281876Y393594D02*
X288655Y394003D01*
X290222Y392904D02*
X294694Y377917D01*
X283927Y392037D02*
X287086Y391074D01*
X294289Y374581D02*
X306687Y360185D01*
X286637Y389603D02*
X288213Y387833D01*
X292339Y373819D02*
X301748Y361125D01*
X293144Y374412D02*
X302549Y361723D01*
X282004Y395126D02*
X282009Y395126D01*
X296195Y394640D02*
X298479Y379279D01*
X288482Y387408D02*
X293056Y376570D01*
X287025Y384080D02*
X288243Y382404D01*
X295988Y375683D02*
X310505Y360475D01*
X287000Y381500D02*
X290697Y374551D01*
X288436Y384690D02*
X292170Y376097D01*
X287065Y386811D02*
X288308Y384926D01*
X302189Y360159D02*
X303000Y356500D01*
X302631Y361607D02*
X304811Y358421D01*
X291181Y393188D02*
X295651Y378207D01*
X291534Y373226D02*
X300947Y360526D01*
X301570Y355935D02*
X302427Y353767D01*
X308214Y360369D02*
X308500Y358000D01*
X288405Y382123D02*
X291284Y375627D01*
X301246Y359712D02*
X301466Y356398D01*
X279373Y394200D02*
X281274Y395009D01*
D67*
X324500Y300961D02*
D03*
X438500Y395600D02*
D03*
X527300Y406500D02*
D03*
X515411Y375972D02*
D03*
X494200Y371200D02*
D03*
X449200D02*
D03*
X523600Y457500D02*
D03*
X481600Y469800D02*
D03*
X467100Y455000D02*
D03*
X441000Y455700D02*
D03*
X437800Y419800D02*
D03*
X310400Y378200D02*
D03*
X303500Y455600D02*
D03*
X253900Y455300D02*
D03*
X227700Y468600D02*
D03*
X222489Y422151D02*
D03*
X278300Y371500D02*
D03*
X399200Y294500D02*
D03*
X418400Y312100D02*
D03*
X414000Y338000D02*
D03*
X424500Y356900D02*
D03*
X331300Y391300D02*
D03*
X406000Y390700D02*
D03*
X310323Y363044D02*
D03*
X313000Y364000D02*
D03*
X368000Y401500D02*
D03*
X295025Y365646D02*
D03*
X372188Y440525D02*
D03*
X313249Y368598D02*
D03*
X310188Y367650D02*
D03*
X310505Y360475D02*
D03*
X308500Y358000D02*
D03*
X270628Y456378D02*
D03*
X304811Y358421D02*
D03*
X306687Y360185D02*
D03*
X303000Y356500D02*
D03*
X302427Y353767D02*
D03*
X302245Y351111D02*
D03*
X280781Y396588D02*
D03*
X287065Y386811D02*
D03*
X286637Y389603D02*
D03*
X275343Y397910D02*
D03*
X278500Y398500D02*
D03*
X279373Y394200D02*
D03*
X281876Y393594D02*
D03*
X283927Y392037D02*
D03*
X287000Y381500D02*
D03*
X287025Y384080D02*
D03*
X232581Y371577D02*
D03*
X222269Y396190D02*
D03*
X308913Y410025D02*
D03*
X369500Y469000D02*
D03*
X376188Y440525D02*
D03*
X368288D02*
D03*
X364388D02*
D03*
X360388D02*
D03*
X356488D02*
D03*
X468551Y381437D02*
D03*
X253000Y382000D02*
D03*
X277807Y366230D02*
D03*
X263791Y294161D02*
D03*
X259267Y300862D02*
D03*
X280791Y294161D02*
D03*
X274515Y301130D02*
D03*
X217822Y347193D02*
D03*
X258767D02*
D03*
X265115Y313547D02*
D03*
X255617Y359610D02*
D03*
X265066D02*
D03*
X274541Y346995D02*
D03*
X284013Y313547D02*
D03*
X283964Y359610D02*
D03*
X293413Y301130D02*
D03*
X299712D02*
D03*
X293413Y347193D02*
D03*
X217833Y301141D02*
D03*
X471162Y359386D02*
D03*
X490087Y346770D02*
D03*
X433379Y300917D02*
D03*
X503337Y365437D02*
D03*
X493352Y366006D02*
D03*
X510852Y365422D02*
D03*
X515257Y346968D02*
D03*
X508958D02*
D03*
X515257Y300905D02*
D03*
X508958D02*
D03*
X499509Y359386D02*
D03*
X499558Y313323D02*
D03*
X480611Y359386D02*
D03*
X480660Y313323D02*
D03*
X474312Y346968D02*
D03*
X433367D02*
D03*
X490060Y300905D02*
D03*
X496337Y293937D02*
D03*
X474812Y300638D02*
D03*
X479337Y293937D02*
D03*
M02*
