G04*
G04 #@! TF.GenerationSoftware,Altium Limited,Altium Designer,21.8.1 (53)*
G04*
G04 Layer_Physical_Order=4*
G04 Layer_Color=16711680*
%FSLAX25Y25*%
%MOIN*%
G70*
G04*
G04 #@! TF.SameCoordinates,5DCC281E-C3AB-4BB6-AEF3-D9D34D3A5336*
G04*
G04*
G04 #@! TF.FilePolarity,Positive*
G04*
G01*
G75*
%ADD15C,0.00500*%
%ADD35R,0.02000X0.09000*%
%ADD62C,0.00800*%
%ADD64C,0.07800*%
%ADD65C,0.09843*%
%ADD66C,0.02362*%
%ADD67C,0.01575*%
%ADD68C,0.00500*%
%ADD69C,0.03937*%
G36*
X480471Y470642D02*
X480418Y470589D01*
X480206Y470077D01*
Y469523D01*
X480418Y469010D01*
X480600Y468829D01*
X480393Y468329D01*
X458461D01*
X456741Y470049D01*
X456460Y470237D01*
X456129Y470303D01*
X389776D01*
X389523Y470556D01*
X389315Y470642D01*
X389414Y471142D01*
X480264D01*
X480471Y470642D01*
D02*
G37*
G36*
X317256Y460266D02*
X314809Y457819D01*
X308352D01*
X308174Y457938D01*
X307842Y458004D01*
X300949D01*
X300850Y458504D01*
X301198Y458648D01*
X301589Y459040D01*
X301802Y459552D01*
Y459998D01*
X302571Y460767D01*
X317049D01*
X317256Y460266D01*
D02*
G37*
G36*
X345950Y454425D02*
X346232Y454237D01*
X346563Y454171D01*
X359343D01*
X359606Y453777D01*
Y453332D01*
X357044Y450770D01*
X330643D01*
X330398Y451270D01*
X330562Y451483D01*
X330856D01*
X331368Y451695D01*
X331761Y452087D01*
X331973Y452599D01*
Y453154D01*
X331761Y453666D01*
X331368Y454058D01*
X331235Y454113D01*
X331334Y454613D01*
X341310D01*
X341625Y454298D01*
X342138Y454086D01*
X342692D01*
X343204Y454298D01*
X343596Y454690D01*
X343809Y455203D01*
Y455757D01*
X343857Y455830D01*
X344490Y455885D01*
X345950Y454425D01*
D02*
G37*
G36*
X388153Y470642D02*
X387944Y470556D01*
X387552Y470163D01*
X387340Y469651D01*
Y469097D01*
X387552Y468585D01*
X387944Y468193D01*
X388457Y467980D01*
X389011D01*
X389523Y468193D01*
X389862Y467833D01*
X389819Y467790D01*
X389606Y467277D01*
Y466723D01*
X389819Y466211D01*
X390211Y465819D01*
X390326Y465771D01*
Y465229D01*
X390211Y465181D01*
X389819Y464789D01*
X389606Y464277D01*
Y463723D01*
X389819Y463210D01*
X390211Y462818D01*
X390723Y462606D01*
X391277D01*
X391790Y462818D01*
X392181Y463210D01*
X392394Y463723D01*
Y464168D01*
X394795Y466570D01*
X397116D01*
X397307Y466108D01*
X395168Y463969D01*
X394723D01*
X394211Y463756D01*
X393818Y463364D01*
X393606Y462852D01*
Y462298D01*
X393818Y461785D01*
X394211Y461393D01*
X394565Y461247D01*
X394740Y461099D01*
X394830Y460681D01*
X394723Y460423D01*
Y459869D01*
X394936Y459356D01*
X395328Y458964D01*
X395840Y458752D01*
X396394D01*
X396907Y458964D01*
X397299Y459356D01*
X397511Y459869D01*
Y460314D01*
X401767Y464570D01*
X451705D01*
X459312Y456962D01*
X459029Y456538D01*
X458943Y456574D01*
X458388D01*
X457876Y456362D01*
X457484Y455970D01*
X457272Y455458D01*
Y455259D01*
X457107Y454866D01*
X456810Y454798D01*
X456525D01*
X456012Y454585D01*
X455620Y454193D01*
X455408Y453681D01*
Y453127D01*
X455620Y452614D01*
X456012Y452222D01*
X456525Y452010D01*
X457079D01*
X457591Y452222D01*
X457606Y452237D01*
X457761Y452233D01*
X458163Y452087D01*
X458319Y451711D01*
X458662Y451367D01*
X458632Y451142D01*
X458509Y450867D01*
X442843D01*
X442512Y450801D01*
X442230Y450613D01*
X413947Y422329D01*
X383722D01*
X382697Y423354D01*
X382706Y423399D01*
X382865Y423894D01*
X383182Y424211D01*
X383353Y424624D01*
X384213Y424982D01*
X384648Y424622D01*
X384819Y424211D01*
X385210Y423818D01*
X385723Y423606D01*
X386277D01*
X386789Y423818D01*
X387181Y424211D01*
X387353Y424624D01*
X388213Y424982D01*
X388648Y424622D01*
X388819Y424211D01*
X389211Y423818D01*
X389723Y423606D01*
X390277D01*
X390790Y423818D01*
X391181Y424211D01*
X391353Y424624D01*
X392213Y424982D01*
X392648Y424622D01*
X392818Y424211D01*
X393211Y423818D01*
X393723Y423606D01*
X394277D01*
X394790Y423818D01*
X395181Y424211D01*
X395353Y424624D01*
X396213Y424982D01*
X396648Y424622D01*
X396818Y424211D01*
X397211Y423818D01*
X397723Y423606D01*
X398277D01*
X398790Y423818D01*
X399182Y424211D01*
X399353Y424624D01*
X400213Y424982D01*
X400648Y424622D01*
X400818Y424211D01*
X401210Y423818D01*
X401723Y423606D01*
X402277D01*
X402789Y423818D01*
X403182Y424211D01*
X403309Y424519D01*
X403853Y424725D01*
X404180Y424545D01*
X404319Y424211D01*
X404710Y423818D01*
X405223Y423606D01*
X405777D01*
X406289Y423818D01*
X406681Y424211D01*
X406833Y424577D01*
X415968Y428026D01*
X416024Y428061D01*
X417137Y428522D01*
X418680Y429467D01*
X420057Y430643D01*
X420295Y430922D01*
X420312Y430934D01*
X425010Y435958D01*
X425028Y435941D01*
X425035Y435951D01*
X425019Y435967D01*
X428661Y439724D01*
X428936Y440008D01*
X428953Y439992D01*
X428981Y440034D01*
X429267Y440374D01*
X429267Y440374D01*
X438416Y450606D01*
X438777D01*
X439290Y450818D01*
X439681Y451210D01*
X439894Y451723D01*
Y452277D01*
X439681Y452789D01*
X439290Y453182D01*
X438777Y453394D01*
X438223D01*
X437711Y453182D01*
X437319Y452789D01*
X437106Y452277D01*
Y451742D01*
X428868Y442529D01*
X428262Y442601D01*
X428000Y442863D01*
X427586Y443035D01*
X427479Y443362D01*
X427473Y443575D01*
X427697Y443743D01*
X427723Y443732D01*
X428277D01*
X428790Y443945D01*
X429181Y444337D01*
X429394Y444849D01*
Y445403D01*
X429181Y445915D01*
X428790Y446308D01*
X428277Y446520D01*
X427723D01*
X427639Y446485D01*
X427448Y446609D01*
X427212Y446849D01*
Y447316D01*
X427201Y447344D01*
X427584Y447727D01*
X427723Y447669D01*
X428277D01*
X428790Y447882D01*
X429181Y448274D01*
X429394Y448786D01*
Y449340D01*
X429181Y449853D01*
X428790Y450245D01*
X428277Y450457D01*
X427723D01*
X427639Y450422D01*
X427448Y450546D01*
X427212Y450786D01*
Y451253D01*
X427201Y451281D01*
X427584Y451664D01*
X427723Y451606D01*
X428277D01*
X428790Y451819D01*
X429181Y452211D01*
X429394Y452723D01*
Y453277D01*
X429181Y453790D01*
X428790Y454181D01*
X428277Y454394D01*
X427723D01*
X427211Y454181D01*
X426896Y453867D01*
X424000D01*
X423668Y453801D01*
X423387Y453613D01*
X415005Y445230D01*
X409494D01*
X409162Y445164D01*
X408881Y444977D01*
X400499Y436594D01*
X398314D01*
X398119Y437094D01*
X409159Y448133D01*
X414396D01*
X414711Y447819D01*
X415223Y447606D01*
X415777D01*
X416290Y447819D01*
X416681Y448210D01*
X416894Y448723D01*
Y449277D01*
X416681Y449789D01*
X416290Y450181D01*
X415777Y450394D01*
X415365D01*
X415129Y450525D01*
X414926Y450812D01*
Y451194D01*
X414713Y451706D01*
X414321Y452098D01*
X413809Y452310D01*
X413255D01*
X412742Y452098D01*
X412428Y451783D01*
X409302D01*
X408970Y451717D01*
X408689Y451529D01*
X397856Y440696D01*
X397346Y440893D01*
X397182Y441290D01*
X396867Y441604D01*
Y448500D01*
X396801Y448832D01*
X396613Y449113D01*
X379616Y466109D01*
X379808Y466571D01*
X381703D01*
X395731Y452544D01*
X396012Y452356D01*
X396343Y452290D01*
X398844D01*
X399159Y451975D01*
X399671Y451763D01*
X400225D01*
X400738Y451975D01*
X401130Y452367D01*
X401342Y452879D01*
Y453434D01*
X401130Y453946D01*
X400738Y454338D01*
X400225Y454550D01*
X399671D01*
X399159Y454338D01*
X398844Y454023D01*
X396703D01*
X382675Y468051D01*
X382394Y468239D01*
X382062Y468305D01*
X371170D01*
X370893Y468720D01*
X370894Y468723D01*
Y469277D01*
X370682Y469790D01*
X370289Y470182D01*
X369777Y470394D01*
X369223D01*
X368710Y470182D01*
X368319Y469790D01*
X368106Y469277D01*
Y468723D01*
X368107Y468720D01*
X367829Y468305D01*
X350078D01*
X349137Y469246D01*
X348855Y469434D01*
X348524Y469500D01*
X293726D01*
X292613Y470613D01*
X292569Y470642D01*
X292721Y471142D01*
X388053D01*
X388153Y470642D01*
D02*
G37*
G36*
X302106Y455877D02*
Y455323D01*
X302319Y454810D01*
X302711Y454419D01*
X302719Y454415D01*
X302816Y453925D01*
X299483Y450591D01*
X285350D01*
X285219Y450765D01*
X285468Y451265D01*
X295696D01*
X296027Y451331D01*
X296309Y451519D01*
X301060Y456271D01*
X301843D01*
X302106Y455877D01*
D02*
G37*
G36*
X534772Y466303D02*
X534272Y466204D01*
X533956Y466966D01*
X533308Y467936D01*
X532483Y468761D01*
X531513Y469409D01*
X530436Y469855D01*
X529292Y470083D01*
X529209D01*
Y464161D01*
Y458240D01*
X529292D01*
X530436Y458468D01*
X531513Y458914D01*
X532483Y459562D01*
X533308Y460387D01*
X533956Y461357D01*
X534272Y462119D01*
X534772Y462020D01*
Y306303D01*
X534272Y306204D01*
X533956Y306966D01*
X533308Y307936D01*
X532483Y308761D01*
X531513Y309409D01*
X530436Y309855D01*
X529292Y310083D01*
X529209D01*
Y304161D01*
Y298240D01*
X529292D01*
X530436Y298468D01*
X531513Y298914D01*
X532483Y299562D01*
X533308Y300387D01*
X533956Y301357D01*
X534272Y302119D01*
X534772Y302020D01*
Y292079D01*
X496699D01*
X496614Y292543D01*
X497126Y292756D01*
X497518Y293147D01*
X497730Y293660D01*
Y294214D01*
X497518Y294726D01*
X497126Y295118D01*
X496614Y295331D01*
X496059D01*
X495547Y295118D01*
X495155Y294726D01*
X494943Y294214D01*
Y293660D01*
X495155Y293147D01*
X495547Y292756D01*
X496059Y292543D01*
X495974Y292079D01*
X479699D01*
X479614Y292543D01*
X480126Y292756D01*
X480518Y293147D01*
X480730Y293660D01*
Y294214D01*
X480518Y294726D01*
X480126Y295118D01*
X479614Y295331D01*
X479059D01*
X478547Y295118D01*
X478155Y294726D01*
X477943Y294214D01*
Y293660D01*
X478155Y293147D01*
X478547Y292756D01*
X479059Y292543D01*
X478974Y292079D01*
X198228D01*
Y302020D01*
X198728Y302119D01*
X199044Y301357D01*
X199692Y300387D01*
X200517Y299562D01*
X201487Y298914D01*
X202564Y298468D01*
X203708Y298240D01*
X203791D01*
Y304161D01*
Y310083D01*
X203708D01*
X202564Y309855D01*
X201487Y309409D01*
X200517Y308761D01*
X199692Y307936D01*
X199044Y306966D01*
X198728Y306204D01*
X198228Y306303D01*
Y344180D01*
X198728Y344512D01*
X198935Y344426D01*
X199489D01*
X200002Y344638D01*
X200394Y345030D01*
X200606Y345543D01*
Y346097D01*
X200394Y346609D01*
X200002Y347001D01*
X199489Y347214D01*
X198935D01*
X198728Y347128D01*
X198228Y347460D01*
Y462020D01*
X198728Y462119D01*
X199044Y461357D01*
X199692Y460387D01*
X200517Y459562D01*
X201487Y458914D01*
X202564Y458468D01*
X203708Y458240D01*
X203791D01*
Y464161D01*
Y470083D01*
X203708D01*
X202564Y469855D01*
X201487Y469409D01*
X200517Y468761D01*
X199692Y467936D01*
X199044Y466966D01*
X198728Y466204D01*
X198228Y466303D01*
Y471142D01*
X277563D01*
X277715Y470642D01*
X277671Y470613D01*
X276425Y469367D01*
X252540D01*
X252208Y469301D01*
X251927Y469113D01*
X238645Y455831D01*
X238200D01*
X237688Y455619D01*
X237296Y455227D01*
X237083Y454714D01*
Y454160D01*
X237296Y453648D01*
X237688Y453256D01*
X238200Y453044D01*
X238754D01*
X239266Y453256D01*
X239659Y453648D01*
X239871Y454160D01*
Y454605D01*
X243847Y458581D01*
X244308Y458390D01*
Y455790D01*
X243823Y455568D01*
X243310Y455780D01*
X242756D01*
X242244Y455568D01*
X241852Y455176D01*
X241640Y454664D01*
Y454359D01*
X241590Y454086D01*
X241186Y453897D01*
X241001D01*
X240488Y453685D01*
X240096Y453293D01*
X239884Y452780D01*
Y452226D01*
X240096Y451714D01*
X240488Y451322D01*
X241001Y451109D01*
X241555D01*
X242067Y451322D01*
X242122Y451376D01*
X242712Y451259D01*
X242766Y451128D01*
X243158Y450736D01*
X243670Y450524D01*
X244225D01*
X244737Y450736D01*
X245129Y451128D01*
X245341Y451641D01*
Y451836D01*
X245787Y452217D01*
X245818Y452211D01*
X246211Y451819D01*
X246723Y451606D01*
X247277D01*
X247790Y451819D01*
X248182Y452211D01*
X248394Y452723D01*
Y453277D01*
X248182Y453790D01*
X248094Y453877D01*
X248377Y454301D01*
X248754Y454145D01*
X249308D01*
X249821Y454357D01*
X250133Y454670D01*
X250509Y454585D01*
X250633Y454516D01*
Y453859D01*
X245641Y448867D01*
X239000D01*
X238668Y448801D01*
X238387Y448613D01*
X232582Y442808D01*
X232158Y443091D01*
X232225Y443252D01*
Y443806D01*
X232013Y444319D01*
X231621Y444711D01*
X231108Y444923D01*
X230663D01*
X219529Y456058D01*
X219682Y456211D01*
X219894Y456723D01*
Y457277D01*
X219682Y457790D01*
X219289Y458181D01*
X218777Y458394D01*
X218223D01*
X217710Y458181D01*
X217319Y457790D01*
X217271Y457674D01*
X216729D01*
X216682Y457790D01*
X216289Y458181D01*
X215777Y458394D01*
X215223D01*
X214710Y458181D01*
X214318Y457790D01*
X214106Y457277D01*
Y456723D01*
X214318Y456211D01*
X214633Y455896D01*
Y454500D01*
X214699Y454168D01*
X214887Y453887D01*
X227106Y441668D01*
Y441223D01*
X227319Y440710D01*
X227711Y440318D01*
X228223Y440106D01*
X228450D01*
X228508Y440056D01*
X228743Y439606D01*
X228606Y439277D01*
Y438723D01*
X228641Y438640D01*
X228298Y438159D01*
X228040D01*
X227527Y437947D01*
X227135Y437555D01*
X226923Y437043D01*
Y436488D01*
X227135Y435976D01*
X227527Y435584D01*
X228040Y435372D01*
X228594D01*
X229106Y435584D01*
X229498Y435976D01*
X229711Y436488D01*
Y437043D01*
X229676Y437125D01*
X230018Y437606D01*
X230277D01*
X230789Y437818D01*
X231182Y438210D01*
X231394Y438723D01*
Y439168D01*
X239359Y447133D01*
X246000D01*
X246332Y447199D01*
X246613Y447387D01*
X252113Y452887D01*
X252301Y453168D01*
X252367Y453500D01*
Y454155D01*
X252867Y454362D01*
X253111Y454118D01*
X253623Y453906D01*
X254177D01*
X254690Y454118D01*
X255082Y454510D01*
X255133Y454636D01*
X255633Y454536D01*
Y453000D01*
X255699Y452668D01*
X255887Y452387D01*
X257387Y450887D01*
X257668Y450699D01*
X258000Y450633D01*
X266927D01*
X267258Y450699D01*
X267540Y450887D01*
X269253Y452601D01*
X269698D01*
X270211Y452813D01*
X270602Y453205D01*
X270815Y453717D01*
Y454272D01*
X270727Y454484D01*
X270897Y454961D01*
X271003Y455025D01*
X271362Y455174D01*
X271615Y455080D01*
X271863Y454935D01*
Y454764D01*
X271929Y454432D01*
X272116Y454151D01*
X278214Y448053D01*
X278023Y447591D01*
X255310D01*
X254978Y447525D01*
X254697Y447337D01*
X227858Y420498D01*
X224123D01*
X223808Y420813D01*
X223739Y420841D01*
X223659Y421241D01*
X223688Y421404D01*
X223883Y421874D01*
Y422428D01*
X223671Y422940D01*
X223279Y423332D01*
X222766Y423545D01*
X222212D01*
X221700Y423332D01*
X221308Y422940D01*
X221096Y422428D01*
Y421874D01*
X221308Y421361D01*
X221700Y420969D01*
X221769Y420941D01*
X221849Y420541D01*
X221820Y420378D01*
X221625Y419908D01*
Y419354D01*
X221837Y418842D01*
X222229Y418450D01*
X222742Y418237D01*
X223110D01*
X223399Y418048D01*
X223536Y417795D01*
Y417530D01*
X223418Y417313D01*
X223125Y417088D01*
X222742D01*
X222229Y416876D01*
X221837Y416483D01*
X221625Y415971D01*
Y415417D01*
X221837Y414905D01*
X222229Y414513D01*
X222742Y414300D01*
X223110D01*
X223399Y414111D01*
X223536Y413858D01*
Y413597D01*
X223409Y413372D01*
X223122Y413158D01*
X222734D01*
X222222Y412946D01*
X221830Y412554D01*
X221618Y412042D01*
Y411487D01*
X221830Y410975D01*
X222222Y410583D01*
X222734Y410371D01*
X223289D01*
X223316Y410382D01*
X223698Y409999D01*
X223606Y409777D01*
Y409223D01*
X223818Y408710D01*
X224211Y408319D01*
X224723Y408106D01*
X225277D01*
X225789Y408319D01*
X226104Y408633D01*
X238000D01*
X238332Y408699D01*
X238613Y408887D01*
X254319Y424593D01*
X293193D01*
X293505Y424093D01*
X293406Y423852D01*
Y423298D01*
X293618Y422785D01*
X294010Y422393D01*
X294522Y422181D01*
X294667D01*
X296400Y419493D01*
X296192Y418895D01*
X296010Y418819D01*
X295618Y418427D01*
X295560Y418288D01*
X294358Y418064D01*
X294275Y418031D01*
X293868Y417950D01*
X293078Y417422D01*
X292550Y416632D01*
X292365Y415701D01*
X292550Y414769D01*
X293072Y413989D01*
X293092Y414009D01*
X295674Y411402D01*
X295580Y410930D01*
X295187Y410538D01*
X295187Y410538D01*
X294646D01*
X294597Y410656D01*
X294205Y411048D01*
X293693Y411261D01*
X293139D01*
X292626Y411048D01*
X292234Y410656D01*
X292022Y410144D01*
Y409589D01*
X292234Y409077D01*
X292626Y408685D01*
X293139Y408473D01*
X293693D01*
X294205Y408685D01*
X294597Y409077D01*
X294597Y409077D01*
X295139D01*
X295187Y408959D01*
X295580Y408567D01*
X296092Y408355D01*
X296455D01*
X296933Y407974D01*
X296446Y399952D01*
X296022Y399687D01*
X295952Y399716D01*
X295398D01*
X294886Y399504D01*
X294494Y399112D01*
X294281Y398600D01*
Y398045D01*
X294494Y397533D01*
X294886Y397141D01*
X295192Y397014D01*
X295473Y396467D01*
X294531Y394641D01*
X293981Y394664D01*
X293876Y394915D01*
X293484Y395307D01*
X292972Y395519D01*
X292418D01*
X291905Y395307D01*
X291513Y394915D01*
X291301Y394403D01*
Y393848D01*
X291513Y393336D01*
X291905Y392944D01*
X292418Y392732D01*
X292972D01*
X292988Y392738D01*
X293348Y392346D01*
X289006Y383926D01*
X288918Y383917D01*
X288418Y384357D01*
X288206Y384869D01*
X287948Y385127D01*
X287883Y385479D01*
X287965Y385740D01*
X288247Y386021D01*
X288459Y386534D01*
Y387088D01*
X288247Y387600D01*
X287855Y387993D01*
X287726Y388046D01*
X287632Y388626D01*
X287819Y388814D01*
X288031Y389326D01*
Y389880D01*
X287819Y390393D01*
X287427Y390785D01*
X286915Y390997D01*
X286360D01*
X285848Y390785D01*
X285571Y390507D01*
X285091Y390524D01*
X284891Y391031D01*
X285108Y391248D01*
X285320Y391760D01*
Y392315D01*
X285108Y392827D01*
X284716Y393219D01*
X284204Y393431D01*
X283649D01*
X283270Y393815D01*
Y393871D01*
X283057Y394384D01*
X282665Y394776D01*
X282153Y394988D01*
X281805D01*
X281740Y395104D01*
X281651Y395488D01*
X281962Y395799D01*
X282174Y396311D01*
Y396865D01*
X281962Y397378D01*
X281570Y397770D01*
X281058Y397982D01*
X280503D01*
X280300Y397898D01*
X280051Y398097D01*
X279894Y398271D01*
Y398777D01*
X279681Y399289D01*
X279290Y399681D01*
X278777Y399894D01*
X278223D01*
X277711Y399681D01*
X277319Y399289D01*
X277106Y398777D01*
X276606Y398642D01*
X276539Y398664D01*
X276524Y398699D01*
X276132Y399091D01*
X275620Y399303D01*
X275065D01*
X274553Y399091D01*
X274161Y398699D01*
X274050Y398431D01*
X270138Y397272D01*
X270128Y397304D01*
X270104Y397293D01*
X269605Y397250D01*
X266498Y397146D01*
X266465Y397139D01*
X265621Y397072D01*
X265565Y397077D01*
X253034Y395624D01*
X252996Y395612D01*
X252551Y395577D01*
X252515Y395568D01*
X252518Y395552D01*
X247388Y394723D01*
X247370Y394736D01*
X247370Y394736D01*
X246403Y394504D01*
X246321Y394499D01*
X240075Y392873D01*
X240067Y392877D01*
X240060Y392903D01*
X240060Y392903D01*
X240033Y392892D01*
X239544Y392867D01*
X237497D01*
X237007Y392892D01*
X236956Y392913D01*
X236520Y393133D01*
X231362Y396185D01*
X231378Y396213D01*
X231363Y396219D01*
X231345Y396197D01*
X226922Y399843D01*
X226880Y399866D01*
X226849Y399886D01*
X226806Y399933D01*
X223990Y401980D01*
Y402199D01*
X223777Y402711D01*
X223385Y403103D01*
X222873Y403315D01*
X222319D01*
X221806Y403103D01*
X221414Y402711D01*
X221202Y402199D01*
Y401645D01*
X221414Y401132D01*
X221806Y400740D01*
X222319Y400528D01*
X222873D01*
X222979Y400572D01*
X224359Y399569D01*
X224373Y398940D01*
X224211Y398778D01*
X223999Y398265D01*
Y397711D01*
X224211Y397199D01*
X224603Y396807D01*
X225115Y396594D01*
X225670D01*
X226182Y396807D01*
X226574Y397199D01*
X226625Y397321D01*
X227110Y397442D01*
X230242Y394860D01*
X230309Y394824D01*
X230406Y394759D01*
X230479Y394693D01*
X232860Y393285D01*
X232821Y392727D01*
X232711Y392682D01*
X232318Y392289D01*
X232106Y391777D01*
Y391223D01*
X232318Y390710D01*
X232711Y390318D01*
X232899Y390240D01*
X232948Y390024D01*
X232945Y389680D01*
X232618Y389353D01*
X232406Y388841D01*
Y388286D01*
X232618Y387774D01*
X233010Y387382D01*
X233522Y387170D01*
X234077D01*
X234589Y387382D01*
X234981Y387774D01*
X235104Y388070D01*
X236871Y388633D01*
X237075Y388177D01*
X236830Y388033D01*
X236827Y388031D01*
X236392Y387803D01*
X236392Y387803D01*
X235983Y387533D01*
X233478Y386056D01*
X233474Y386063D01*
X232791Y385540D01*
X232641Y385344D01*
X232596Y385307D01*
X230451Y382742D01*
X230138D01*
X229626Y382530D01*
X229234Y382138D01*
X229022Y381626D01*
Y381071D01*
X229234Y380559D01*
X229626Y380167D01*
X230138Y379955D01*
X230693D01*
X231205Y380167D01*
X231470Y380432D01*
X231967Y380397D01*
X232039Y380365D01*
X232431Y379973D01*
X232944Y379761D01*
X233498D01*
X234010Y379973D01*
X234402Y380365D01*
X234614Y380877D01*
Y381320D01*
X234806Y381568D01*
X235032Y381730D01*
X235347D01*
X235607Y381544D01*
X235764Y381305D01*
Y380877D01*
X235976Y380365D01*
X236368Y379973D01*
X236881Y379761D01*
X237435D01*
X237947Y379973D01*
X238339Y380365D01*
X238551Y380877D01*
Y381320D01*
X238743Y381568D01*
X238969Y381730D01*
X239282D01*
X239545Y381541D01*
X239699Y381304D01*
Y380875D01*
X239911Y380363D01*
X240303Y379971D01*
X240815Y379759D01*
X241370D01*
X241882Y379971D01*
X242274Y380363D01*
X242486Y380875D01*
Y381317D01*
X242678Y381566D01*
X242904Y381728D01*
X243356D01*
X243869Y381940D01*
X244261Y382332D01*
X244298Y382421D01*
X244819Y382374D01*
X244972Y382006D01*
X245364Y381614D01*
X245876Y381402D01*
X246430D01*
X246943Y381614D01*
X247335Y382006D01*
X247541Y382504D01*
X247819Y382609D01*
X247848Y382618D01*
X248047Y382638D01*
X248404Y382281D01*
X248916Y382069D01*
X249471D01*
X249983Y382281D01*
X250375Y382673D01*
X250587Y383185D01*
Y383740D01*
X250540Y383853D01*
X250851Y384410D01*
X252487Y384675D01*
X252944Y384242D01*
Y384017D01*
X252996Y383894D01*
X252723Y383394D01*
X252210Y383182D01*
X251818Y382789D01*
X251606Y382277D01*
Y381723D01*
X251818Y381210D01*
X252210Y380819D01*
X252723Y380606D01*
X253277D01*
X253789Y380819D01*
X254182Y381210D01*
X254394Y381723D01*
Y382277D01*
X254343Y382401D01*
X254615Y382901D01*
X255128Y383113D01*
X255520Y383505D01*
X255732Y384017D01*
Y384572D01*
X255710Y384626D01*
X256027Y385166D01*
X257040Y385283D01*
X257398Y384821D01*
Y384384D01*
X257610Y383872D01*
X258002Y383480D01*
X258514Y383268D01*
X259069D01*
X259581Y383480D01*
X259973Y383872D01*
X260185Y384384D01*
Y384939D01*
X260104Y385135D01*
X260404Y385673D01*
X265062Y386213D01*
X265485Y385759D01*
Y385471D01*
X265697Y384959D01*
X266089Y384567D01*
X266601Y384355D01*
X267156D01*
X267668Y384567D01*
X268060Y384959D01*
X268272Y385471D01*
Y385669D01*
X268745Y386091D01*
X269420Y385969D01*
X269608Y385456D01*
X269600Y385428D01*
X269398Y384939D01*
Y384384D01*
X269610Y383872D01*
X270002Y383480D01*
X270514Y383268D01*
X271069D01*
X271581Y383480D01*
X271973Y383872D01*
X272185Y384384D01*
Y384939D01*
X272176Y384960D01*
X272534Y385403D01*
X276856Y384618D01*
X277164Y384054D01*
X277106Y383915D01*
Y383436D01*
X276925Y383213D01*
X276701Y383032D01*
X276223D01*
X275711Y382819D01*
X275319Y382427D01*
X275106Y381915D01*
Y381361D01*
X275319Y380848D01*
X275711Y380456D01*
X276223Y380244D01*
X276777D01*
X277290Y380456D01*
X277681Y380848D01*
X277894Y381361D01*
Y381839D01*
X278075Y382063D01*
X278299Y382244D01*
X278638D01*
X278917Y382018D01*
X279043Y381813D01*
Y381361D01*
X279256Y380848D01*
X279647Y380456D01*
X279904Y380350D01*
X279837Y379836D01*
X248369Y375502D01*
X248291Y375475D01*
X247825Y375414D01*
X246757Y374972D01*
X245841Y374269D01*
X245383Y373672D01*
X245333Y373623D01*
X238205Y363185D01*
X238026D01*
X237513Y362972D01*
X237121Y362580D01*
X236909Y362068D01*
Y361514D01*
X236913Y361504D01*
X236579Y361004D01*
X236442D01*
X235930Y360792D01*
X235538Y360400D01*
X235415Y360104D01*
X234874D01*
X234752Y360400D01*
X234360Y360792D01*
X233847Y361004D01*
X233727D01*
X233393Y361504D01*
X233397Y361514D01*
Y362068D01*
X233185Y362580D01*
X232793Y362972D01*
X232281Y363185D01*
X231726D01*
X231214Y362972D01*
X230822Y362580D01*
X230699Y362284D01*
X230158D01*
X230036Y362580D01*
X229644Y362972D01*
X229131Y363185D01*
X228577D01*
X228065Y362972D01*
X227673Y362580D01*
X227460Y362068D01*
Y361514D01*
X227464Y361504D01*
X227130Y361004D01*
X226994D01*
X226481Y360792D01*
X226089Y360400D01*
X225967Y360104D01*
X225425D01*
X225303Y360400D01*
X224911Y360792D01*
X224398Y361004D01*
X223844D01*
X223332Y360792D01*
X222940Y360400D01*
X222817Y360104D01*
X222276D01*
X222153Y360400D01*
X221761Y360792D01*
X221249Y361004D01*
X220694D01*
X220182Y360792D01*
X219790Y360400D01*
X219578Y359887D01*
Y359333D01*
X219584Y359317D01*
X219307Y358902D01*
X218347D01*
Y353402D01*
X217846D01*
Y352902D01*
X215846D01*
Y347902D01*
X216157D01*
X216435Y347486D01*
X216428Y347470D01*
Y346916D01*
X216640Y346403D01*
X217033Y346011D01*
X217545Y345799D01*
X218099D01*
X218612Y346011D01*
X219004Y346403D01*
X219126Y346700D01*
X219667D01*
X219790Y346403D01*
X220182Y346011D01*
X220694Y345799D01*
X221249D01*
X221761Y346011D01*
X222153Y346403D01*
X222276Y346700D01*
X222817D01*
X222940Y346403D01*
X223332Y346011D01*
X223844Y345799D01*
X224398D01*
X224911Y346011D01*
X225303Y346403D01*
X225425Y346700D01*
X225967D01*
X226089Y346403D01*
X226481Y346011D01*
X226994Y345799D01*
X227548D01*
X228060Y346011D01*
X228452Y346403D01*
X228575Y346700D01*
X229116D01*
X229239Y346403D01*
X229631Y346011D01*
X230143Y345799D01*
X230698D01*
X231210Y346011D01*
X231602Y346403D01*
X231725Y346700D01*
X232266D01*
X232388Y346403D01*
X232781Y346011D01*
X233293Y345799D01*
X233847D01*
X234360Y346011D01*
X234752Y346403D01*
X234874Y346700D01*
X235415D01*
X235538Y346403D01*
X235930Y346011D01*
X236442Y345799D01*
X236997D01*
X237509Y346011D01*
X237901Y346403D01*
X238024Y346700D01*
X238565D01*
X238688Y346403D01*
X239080Y346011D01*
X239592Y345799D01*
X240146D01*
X240659Y346011D01*
X241051Y346403D01*
X241173Y346700D01*
X241715D01*
X241837Y346403D01*
X242229Y346011D01*
X242742Y345799D01*
X243296D01*
X243808Y346011D01*
X244200Y346403D01*
X244323Y346700D01*
X244864D01*
X244987Y346403D01*
X245379Y346011D01*
X245891Y345799D01*
X246446D01*
X246958Y346011D01*
X247350Y346403D01*
X247473Y346700D01*
X248014D01*
X248136Y346403D01*
X248529Y346011D01*
X249041Y345799D01*
X249595D01*
X250108Y346011D01*
X250500Y346403D01*
X250622Y346700D01*
X251163D01*
X251286Y346403D01*
X251678Y346011D01*
X252190Y345799D01*
X252745D01*
X253257Y346011D01*
X253649Y346403D01*
X253772Y346700D01*
X254313D01*
X254436Y346403D01*
X254828Y346011D01*
X255340Y345799D01*
X255894D01*
X256407Y346011D01*
X256799Y346403D01*
X256921Y346700D01*
X257463D01*
X257585Y346403D01*
X257977Y346011D01*
X258490Y345799D01*
X259044D01*
X259556Y346011D01*
X259948Y346403D01*
X260071Y346700D01*
X260612D01*
X260735Y346403D01*
X261127Y346011D01*
X261639Y345799D01*
X262194D01*
X262706Y346011D01*
X263098Y346403D01*
X263310Y346916D01*
Y347470D01*
X263173Y347802D01*
X263432Y348302D01*
X266700D01*
X266959Y347802D01*
X266822Y347470D01*
Y346916D01*
X267034Y346403D01*
X267426Y346011D01*
X267938Y345799D01*
X268493D01*
X269005Y346011D01*
X269397Y346403D01*
X269520Y346700D01*
X270061D01*
X270184Y346403D01*
X270576Y346011D01*
X271088Y345799D01*
X271642D01*
X272155Y346011D01*
X272547Y346403D01*
X272662Y346682D01*
X272877Y346698D01*
X273183Y346632D01*
X273360Y346205D01*
X273752Y345813D01*
X274264Y345601D01*
X274818D01*
X275331Y345813D01*
X275723Y346205D01*
X275873Y346569D01*
X276397Y346611D01*
X276483Y346403D01*
X276875Y346011D01*
X277387Y345799D01*
X277942D01*
X278454Y346011D01*
X278846Y346403D01*
X278969Y346700D01*
X279510D01*
X279632Y346403D01*
X280025Y346011D01*
X280537Y345799D01*
X281091D01*
X281604Y346011D01*
X281996Y346403D01*
X282208Y346916D01*
Y347470D01*
X282070Y347802D01*
X282330Y348302D01*
X285598D01*
X285857Y347802D01*
X285720Y347470D01*
Y346916D01*
X285932Y346403D01*
X286324Y346011D01*
X286836Y345799D01*
X287391D01*
X287903Y346011D01*
X288295Y346403D01*
X288418Y346700D01*
X288959D01*
X289082Y346403D01*
X289474Y346011D01*
X289986Y345799D01*
X290540D01*
X291053Y346011D01*
X291444Y346403D01*
X291567Y346700D01*
X292108D01*
X292231Y346403D01*
X292623Y346011D01*
X293135Y345799D01*
X293690D01*
X294202Y346011D01*
X294594Y346403D01*
X294717Y346700D01*
X295258D01*
X295381Y346403D01*
X295773Y346011D01*
X296285Y345799D01*
X296839D01*
X297352Y346011D01*
X297744Y346403D01*
X297956Y346916D01*
Y347470D01*
X297949Y347486D01*
X298227Y347902D01*
X299236D01*
Y353402D01*
Y358902D01*
X298227D01*
X297949Y359317D01*
X297956Y359333D01*
Y359887D01*
X297744Y360400D01*
X297352Y360792D01*
X296839Y361004D01*
X296285D01*
X295773Y360792D01*
X295381Y360400D01*
X295168Y359887D01*
Y359333D01*
X295175Y359317D01*
X294897Y358902D01*
X293937D01*
Y353402D01*
X292937D01*
Y358902D01*
X291734D01*
X291706Y358943D01*
Y359498D01*
X291494Y360010D01*
X291102Y360402D01*
X290589Y360614D01*
X290035D01*
X289523Y360402D01*
X289130Y360010D01*
X289007Y359712D01*
X288507Y359811D01*
Y359887D01*
X288295Y360400D01*
X287903Y360792D01*
X287391Y361004D01*
X286836D01*
X286324Y360792D01*
X285932Y360400D01*
X285809Y360104D01*
X285268D01*
X285145Y360400D01*
X284753Y360792D01*
X284241Y361004D01*
X283687D01*
X283174Y360792D01*
X282782Y360400D01*
X282667Y360121D01*
X282126D01*
X282020Y360375D01*
X281628Y360767D01*
X281116Y360979D01*
X280562D01*
X280049Y360767D01*
X279658Y360375D01*
X279577Y360180D01*
X279036D01*
X278946Y360398D01*
X278554Y360790D01*
X278041Y361002D01*
X277487D01*
X276975Y360790D01*
X276583Y360398D01*
X276371Y359885D01*
Y359332D01*
X276371Y359331D01*
X276007Y358902D01*
X275039D01*
Y353402D01*
X274039D01*
Y358902D01*
X273026D01*
X272685Y359384D01*
Y359939D01*
X272473Y360451D01*
X272081Y360843D01*
X271569Y361055D01*
X271014D01*
X270502Y360843D01*
X270110Y360451D01*
X270013Y360218D01*
X269472D01*
X269397Y360400D01*
X269005Y360792D01*
X268493Y361004D01*
X267938D01*
X267426Y360792D01*
X267034Y360400D01*
X266911Y360104D01*
X266370D01*
X266248Y360400D01*
X265856Y360792D01*
X265343Y361004D01*
X264789D01*
X264277Y360792D01*
X263884Y360400D01*
X263762Y360104D01*
X263221D01*
X263098Y360400D01*
X262706Y360792D01*
X262194Y361004D01*
X261639D01*
X261127Y360792D01*
X260735Y360400D01*
X260523Y359887D01*
Y359333D01*
X260529Y359317D01*
X260251Y358902D01*
X259291D01*
Y353402D01*
X258291D01*
Y358902D01*
X257282D01*
X257004Y359317D01*
X257011Y359333D01*
Y359887D01*
X256799Y360400D01*
X256407Y360792D01*
X255894Y361004D01*
X255340D01*
X254828Y360792D01*
X254436Y360400D01*
X254313Y360104D01*
X253772D01*
X253649Y360400D01*
X253257Y360792D01*
X252745Y361004D01*
X252190D01*
X251678Y360792D01*
X251286Y360400D01*
X251163Y360104D01*
X250622D01*
X250500Y360400D01*
X250108Y360792D01*
X249993Y360839D01*
X249853Y361688D01*
X250320Y361928D01*
X250540Y361708D01*
X251053Y361496D01*
X251607D01*
X252119Y361708D01*
X252466Y362054D01*
X294723Y363232D01*
X295096Y363243D01*
X295099Y363241D01*
X295100Y363227D01*
X295215Y363249D01*
X295589Y363279D01*
X308950Y364349D01*
X309174Y363865D01*
X309142Y363833D01*
X308929Y363321D01*
Y362766D01*
X309142Y362254D01*
X309401Y361995D01*
X309532Y361854D01*
X309425Y361366D01*
X309323Y361265D01*
X309111Y360752D01*
Y360198D01*
X309312Y359713D01*
X309264Y359615D01*
X309001Y359301D01*
X308777Y359394D01*
X308410D01*
X308091Y359766D01*
X308060Y359856D01*
X308081Y359907D01*
Y360462D01*
X307869Y360974D01*
X307477Y361366D01*
X306965Y361578D01*
X306410D01*
X305898Y361366D01*
X305506Y360974D01*
X305294Y360462D01*
Y360271D01*
X305114Y359871D01*
X304832Y359815D01*
X304534D01*
X304022Y359603D01*
X303629Y359211D01*
X303417Y358699D01*
Y358356D01*
X303340Y358100D01*
X302980Y357894D01*
X302723D01*
X302210Y357681D01*
X301736Y357914D01*
Y358902D01*
X300236D01*
Y353402D01*
Y347902D01*
X301736D01*
Y349562D01*
X301968Y349717D01*
X302523D01*
X303035Y349929D01*
X303427Y350321D01*
X303639Y350834D01*
Y351388D01*
X303427Y351900D01*
X303263Y352064D01*
X303220Y352553D01*
X303306Y352675D01*
X303609Y352978D01*
X303821Y353490D01*
Y354044D01*
X303609Y354557D01*
X303506Y354660D01*
X303623Y355250D01*
X303789Y355318D01*
X304182Y355711D01*
X304394Y356223D01*
Y356566D01*
X304471Y356822D01*
X304831Y357028D01*
X305088D01*
X305601Y357240D01*
X305993Y357632D01*
X306205Y358144D01*
Y358335D01*
X306342Y358639D01*
X306846Y358711D01*
X307096Y358419D01*
X307128Y358329D01*
X307106Y358277D01*
Y357723D01*
X307318Y357210D01*
X307711Y356819D01*
X308223Y356606D01*
X308777D01*
X309290Y356819D01*
X309682Y357210D01*
X309894Y357723D01*
Y358277D01*
X309693Y358762D01*
X309741Y358860D01*
X310004Y359174D01*
X310228Y359082D01*
X310782D01*
X311294Y359294D01*
X311686Y359686D01*
X311899Y360198D01*
Y360752D01*
X311686Y361265D01*
X311427Y361524D01*
X311296Y361665D01*
X311403Y362153D01*
X311505Y362254D01*
X311670Y362652D01*
X312055Y362802D01*
X312210Y362819D01*
X312723Y362606D01*
X313277D01*
X313790Y362819D01*
X314181Y363211D01*
X314394Y363723D01*
Y363820D01*
X314894Y364208D01*
X349227Y355431D01*
X349319Y355210D01*
X349710Y354819D01*
X350223Y354606D01*
X350777D01*
X351290Y354819D01*
X351681Y355210D01*
X351894Y355723D01*
Y356277D01*
X351681Y356789D01*
X351290Y357182D01*
X350777Y357394D01*
X350223D01*
X349710Y357182D01*
X349643Y357114D01*
X313595Y366329D01*
X313503Y366334D01*
X313000Y366434D01*
X312809Y366396D01*
X312808Y366396D01*
X311509Y366292D01*
X311286Y366776D01*
X311370Y366860D01*
X311582Y367372D01*
Y367675D01*
X312004Y367791D01*
X312082Y367794D01*
X312460Y367417D01*
X312972Y367204D01*
X313526D01*
X314039Y367417D01*
X314431Y367809D01*
X314643Y368321D01*
Y368876D01*
X314431Y369388D01*
X314039Y369780D01*
X313526Y369992D01*
X312972D01*
X312460Y369780D01*
X312068Y369388D01*
X311855Y368876D01*
Y368573D01*
X311433Y368457D01*
X311355Y368453D01*
X310978Y368831D01*
X310466Y369043D01*
X309911D01*
X309399Y368831D01*
X309007Y368439D01*
X308795Y367927D01*
Y367372D01*
X309007Y366860D01*
X309253Y366614D01*
X309084Y366098D01*
X296814Y365116D01*
X296418Y365586D01*
Y365923D01*
X296206Y366435D01*
X295814Y366827D01*
X295302Y367040D01*
X294748D01*
X294235Y366827D01*
X293843Y366435D01*
X293631Y365923D01*
Y365369D01*
X293640Y365348D01*
X293368Y364929D01*
X278621Y364517D01*
X278515Y365015D01*
X278596Y365049D01*
X278988Y365441D01*
X279201Y365953D01*
Y366105D01*
X279234Y366146D01*
X279700Y366398D01*
X280014Y366268D01*
X280569D01*
X281081Y366480D01*
X281473Y366872D01*
X281685Y367384D01*
Y367939D01*
X281473Y368451D01*
X281081Y368843D01*
X280569Y369055D01*
X280014D01*
X279502Y368843D01*
X279110Y368451D01*
X278898Y367939D01*
Y367787D01*
X278865Y367746D01*
X278398Y367494D01*
X278084Y367624D01*
X277530D01*
X277017Y367411D01*
X276625Y367020D01*
X276413Y366507D01*
Y365953D01*
X276625Y365441D01*
X277017Y365049D01*
X277188Y364978D01*
X277096Y364475D01*
X252404Y363786D01*
X252119Y364071D01*
X251607Y364283D01*
X251053D01*
X250540Y364071D01*
X250148Y363679D01*
X250064Y363476D01*
X249548Y363535D01*
X248597Y369285D01*
X249027Y369746D01*
X249247D01*
X249759Y369958D01*
X250151Y370350D01*
X250364Y370862D01*
Y371417D01*
X250329Y371499D01*
X250644Y372047D01*
X287601Y377137D01*
X287679Y377164D01*
X288145Y377225D01*
X289213Y377668D01*
X290129Y378371D01*
X290832Y379287D01*
X290912Y379481D01*
X290916Y379485D01*
X299587Y396300D01*
X299590Y396308D01*
X299950Y397177D01*
X300060Y398018D01*
X300071Y398060D01*
X300765Y409477D01*
X300762Y409500D01*
X300794Y409749D01*
X300684Y410584D01*
X300684Y410630D01*
X299155Y418119D01*
X299123Y418195D01*
X299048Y418569D01*
X298848Y418869D01*
X298819Y418941D01*
X296121Y423124D01*
X296193Y423298D01*
Y423852D01*
X296162Y423927D01*
X296446Y424393D01*
X296846Y424428D01*
X308757Y412517D01*
X309038Y412330D01*
X309370Y412264D01*
X342309D01*
X342409Y411764D01*
X342211Y411682D01*
X341818Y411290D01*
X341606Y410777D01*
Y410223D01*
X341818Y409711D01*
X342211Y409318D01*
X342723Y409106D01*
X343277D01*
X343790Y409318D01*
X344181Y409711D01*
X344394Y410223D01*
Y410777D01*
X344181Y411290D01*
X343790Y411682D01*
X343591Y411764D01*
X343690Y412264D01*
X344630D01*
X344962Y412330D01*
X345243Y412518D01*
X346832Y414106D01*
X347277D01*
X347790Y414319D01*
X348182Y414711D01*
X348394Y415223D01*
Y415777D01*
X348182Y416290D01*
X347790Y416681D01*
X347277Y416894D01*
X346723D01*
X346211Y416681D01*
X345818Y416290D01*
X345606Y415777D01*
Y415332D01*
X344271Y413997D01*
X335175D01*
X334968Y414497D01*
X335181Y414711D01*
X335394Y415223D01*
Y415777D01*
X335181Y416290D01*
X334789Y416681D01*
X334277Y416894D01*
X333723D01*
X333210Y416681D01*
X332819Y416290D01*
X332798Y416240D01*
X331117D01*
Y420873D01*
X331051Y421205D01*
X330863Y421486D01*
X330363Y421986D01*
X330082Y422174D01*
X329750Y422240D01*
X328250D01*
X327918Y422174D01*
X327637Y421986D01*
X327137Y421486D01*
X326949Y421205D01*
X326883Y420873D01*
Y414997D01*
X326117D01*
Y420873D01*
X326051Y421205D01*
X325863Y421486D01*
X325363Y421986D01*
X325082Y422174D01*
X324750Y422240D01*
X323250D01*
X322918Y422174D01*
X322637Y421986D01*
X322137Y421486D01*
X321949Y421205D01*
X321883Y420873D01*
Y414997D01*
X321117D01*
Y420873D01*
X321051Y421205D01*
X320863Y421486D01*
X320363Y421986D01*
X320082Y422174D01*
X319750Y422240D01*
X318250D01*
X317918Y422174D01*
X317637Y421986D01*
X317137Y421486D01*
X316949Y421205D01*
X316883Y420873D01*
Y414997D01*
X316117D01*
Y420873D01*
X316051Y421205D01*
X315863Y421486D01*
X315363Y421986D01*
X315082Y422174D01*
X314750Y422240D01*
X313250D01*
X312894Y422679D01*
Y422777D01*
X312682Y423289D01*
X312290Y423681D01*
X311777Y423894D01*
X311550D01*
X311492Y423944D01*
X311257Y424394D01*
X311394Y424723D01*
Y425277D01*
X311181Y425789D01*
X310789Y426182D01*
X310277Y426394D01*
X309723D01*
X309688Y426379D01*
X309405Y426803D01*
X309549Y426947D01*
X309761Y427460D01*
Y427991D01*
X309770Y428025D01*
X310120Y428453D01*
X310440D01*
X310953Y428666D01*
X311345Y429058D01*
X311557Y429570D01*
Y430124D01*
X311345Y430637D01*
X310953Y431029D01*
X310440Y431241D01*
X309886D01*
X309374Y431029D01*
X308982Y430637D01*
X308770Y430124D01*
Y429593D01*
X308760Y429559D01*
X308410Y429131D01*
X308090D01*
X307578Y428919D01*
X307186Y428526D01*
X306974Y428014D01*
Y427460D01*
X307186Y426947D01*
X307578Y426555D01*
X308090Y426343D01*
X308645D01*
X308680Y426358D01*
X308963Y425934D01*
X308819Y425789D01*
X308645Y425371D01*
X308104Y424829D01*
X306722D01*
X305783Y425769D01*
Y432584D01*
X305716Y432916D01*
X305529Y433197D01*
X297394Y441332D01*
Y441777D01*
X297246Y442133D01*
X297491Y442633D01*
X302102D01*
X302434Y442699D01*
X302715Y442887D01*
X305244Y445416D01*
X305744Y445212D01*
X305957Y444700D01*
X306109Y444547D01*
X306274Y444179D01*
X306109Y443894D01*
X305919Y443704D01*
X305707Y443192D01*
Y442638D01*
X305919Y442125D01*
X306311Y441733D01*
X306824Y441521D01*
X307378D01*
X307890Y441733D01*
X308205Y442048D01*
X313257D01*
X313448Y441586D01*
X312079Y440217D01*
X308188D01*
X307873Y440532D01*
X307360Y440744D01*
X306806D01*
X306294Y440532D01*
X305902Y440140D01*
X305689Y439628D01*
Y439073D01*
X305902Y438561D01*
X306231Y438231D01*
X306236Y437828D01*
X306210Y437681D01*
X305819Y437289D01*
X305606Y436777D01*
Y436223D01*
X305819Y435710D01*
X306210Y435319D01*
X306515Y435193D01*
X306731Y434906D01*
X306743Y434606D01*
X306606Y434277D01*
Y433723D01*
X306819Y433211D01*
X307210Y432819D01*
X307723Y432606D01*
X308277D01*
X308789Y432819D01*
X309181Y433211D01*
X309394Y433723D01*
Y434277D01*
X309181Y434790D01*
X308789Y435182D01*
X308486Y435307D01*
X308269Y435594D01*
X308257Y435894D01*
X308394Y436223D01*
Y436777D01*
X308182Y437289D01*
X307852Y437619D01*
X307848Y438022D01*
X307873Y438169D01*
X308188Y438484D01*
X312438D01*
X312770Y438550D01*
X313051Y438738D01*
X317272Y442959D01*
X318237D01*
X318367Y442476D01*
X318237Y442401D01*
X317399Y441563D01*
X316807Y440537D01*
X316500Y439392D01*
Y438208D01*
X316807Y437063D01*
X317399Y436037D01*
X318237Y435199D01*
X319263Y434607D01*
X320408Y434300D01*
X321592D01*
X322737Y434607D01*
X323763Y435199D01*
X324601Y436037D01*
X325193Y437063D01*
X325500Y438208D01*
Y439392D01*
X325193Y440537D01*
X324601Y441563D01*
X323763Y442401D01*
X323633Y442476D01*
X323763Y442959D01*
X341205D01*
X343628Y440536D01*
Y440091D01*
X343840Y439579D01*
X344232Y439186D01*
X344744Y438974D01*
X345299D01*
X345811Y439186D01*
X346203Y439579D01*
X346415Y440091D01*
Y440645D01*
X346203Y441157D01*
X345811Y441550D01*
X345299Y441762D01*
X344853D01*
X343118Y443497D01*
X343310Y443959D01*
X346916D01*
X348423Y442452D01*
Y441894D01*
X348223D01*
X347710Y441681D01*
X347319Y441290D01*
X347106Y440777D01*
Y440223D01*
X347319Y439711D01*
X347710Y439319D01*
X348223Y439106D01*
X348777D01*
X349289Y439319D01*
X349681Y439711D01*
X349894Y440223D01*
Y440668D01*
X349902Y440677D01*
X350058Y440909D01*
X350163Y440971D01*
X350619Y441055D01*
X351195Y440480D01*
Y440248D01*
X351407Y439736D01*
X351799Y439343D01*
X352311Y439131D01*
X352866D01*
X353378Y439343D01*
X353770Y439736D01*
X353982Y440248D01*
Y440802D01*
X353770Y441314D01*
X353378Y441706D01*
X352866Y441919D01*
X352311D01*
X352238Y441888D01*
X351767Y442359D01*
Y443500D01*
X351701Y443832D01*
X351513Y444113D01*
X348724Y446902D01*
X348443Y447090D01*
X348111Y447156D01*
X320932D01*
X320598Y447656D01*
X320658Y447800D01*
Y448355D01*
X320583Y448536D01*
X320917Y449036D01*
X357403D01*
X357735Y449102D01*
X358016Y449290D01*
X360832Y452106D01*
X361277D01*
X361789Y452318D01*
X362106Y452635D01*
X362600Y452794D01*
X362646Y452803D01*
X365884Y449564D01*
Y441707D01*
X365384Y441500D01*
X365178Y441706D01*
X364666Y441919D01*
X364111D01*
X363599Y441706D01*
X363207Y441314D01*
X362995Y440802D01*
Y440248D01*
X363207Y439736D01*
X363599Y439343D01*
X364111Y439131D01*
X364666D01*
X365178Y439343D01*
X365384Y439550D01*
X365884Y439343D01*
Y439010D01*
X365950Y438678D01*
X366138Y438397D01*
X368108Y436428D01*
Y431609D01*
X368174Y431277D01*
X368361Y430996D01*
X381508Y417850D01*
X381789Y417662D01*
X382121Y417596D01*
X382472D01*
X382738Y417096D01*
X382606Y416777D01*
Y416223D01*
X382819Y415710D01*
X383210Y415318D01*
X383723Y415106D01*
X384277D01*
X384789Y415318D01*
X385004Y415533D01*
X410134Y413120D01*
X410276Y413106D01*
X410303Y413105D01*
X410500Y413066D01*
X410618Y413089D01*
X410617Y413098D01*
X410619Y413099D01*
X432784Y414220D01*
X432823Y413721D01*
X411495Y411476D01*
X411290Y411682D01*
X410777Y411894D01*
X410223D01*
X409711Y411682D01*
X409318Y411290D01*
X409106Y410777D01*
Y410655D01*
X408703Y410359D01*
X402557Y412282D01*
X402491Y412289D01*
X402209Y412345D01*
X402155Y412360D01*
X385189Y413771D01*
X385181Y413790D01*
X384789Y414182D01*
X384277Y414394D01*
X383723D01*
X383210Y414182D01*
X382819Y413790D01*
X382606Y413277D01*
Y412723D01*
X382819Y412211D01*
X383210Y411819D01*
X383723Y411606D01*
X384277D01*
X384789Y411819D01*
X384874Y411903D01*
X385172Y411851D01*
X385348Y411318D01*
X385318Y411290D01*
X385106Y410777D01*
Y410223D01*
X385318Y409711D01*
X385711Y409318D01*
X386223Y409106D01*
X386777D01*
X387117Y409247D01*
X436616Y385699D01*
X436819Y385210D01*
X437162Y384867D01*
X437132Y384642D01*
X437009Y384367D01*
X416928D01*
X412849Y388445D01*
Y388891D01*
X412637Y389403D01*
X412245Y389795D01*
X411733Y390007D01*
X411178D01*
X410666Y389795D01*
X410274Y389403D01*
X410062Y388891D01*
Y388336D01*
X410274Y387824D01*
X410666Y387432D01*
X411178Y387220D01*
X411624D01*
X415956Y382887D01*
X416237Y382699D01*
X416569Y382633D01*
X439207D01*
X439539Y382699D01*
X439820Y382887D01*
X440794Y383862D01*
X440982Y384143D01*
X441048Y384474D01*
Y387922D01*
X440982Y388253D01*
X440794Y388534D01*
X440421Y388907D01*
X440309Y388983D01*
X440181Y389289D01*
X439789Y389682D01*
X439277Y389894D01*
X438723D01*
X438210Y389682D01*
X437818Y389289D01*
X437606Y388777D01*
Y388223D01*
X437743Y387894D01*
X437731Y387594D01*
X437514Y387307D01*
X437383Y387253D01*
X387884Y410802D01*
X387682Y411290D01*
X387645Y411326D01*
X387870Y411809D01*
X402011Y410633D01*
X402009Y410605D01*
X402030Y410596D01*
X402504Y410482D01*
X409782Y408206D01*
X409815Y408202D01*
X410500Y408066D01*
X410696Y408105D01*
X410700Y408104D01*
X429795Y409699D01*
X429852Y409203D01*
X411456Y406515D01*
X411290Y406681D01*
X410777Y406894D01*
X410223D01*
X409711Y406681D01*
X409318Y406289D01*
X409106Y405777D01*
Y405223D01*
X409318Y404710D01*
X409711Y404319D01*
X410223Y404106D01*
X410777D01*
X411290Y404319D01*
X411682Y404710D01*
X411720Y404802D01*
X441285Y409121D01*
X441373Y409152D01*
X441869Y409251D01*
X442659Y409779D01*
X443187Y410569D01*
X443372Y411500D01*
X443342D01*
Y415500D01*
X443372D01*
X443246Y416136D01*
X443187Y416432D01*
X443083Y416587D01*
X443082Y416587D01*
X438525Y425581D01*
X438810Y426125D01*
X439126Y426256D01*
X439518Y426648D01*
X439730Y427160D01*
Y427714D01*
X439518Y428227D01*
X439126Y428618D01*
X438614Y428831D01*
X438059D01*
X438050Y428827D01*
X437631Y429100D01*
X437581Y431502D01*
X438074Y431847D01*
X438493D01*
X439005Y432059D01*
X439223Y432277D01*
X439724Y432242D01*
X439990Y431828D01*
X439943Y431714D01*
Y431160D01*
X440155Y430648D01*
X440547Y430256D01*
X440851Y430130D01*
X441067Y429843D01*
X441079Y429543D01*
X440943Y429214D01*
Y428660D01*
X441155Y428148D01*
X441547Y427755D01*
X441851Y427630D01*
X442002Y427107D01*
X441997Y427069D01*
X441949Y427021D01*
X441737Y426508D01*
Y425954D01*
X441949Y425442D01*
X442341Y425050D01*
X442854Y424837D01*
X443408D01*
X443920Y425050D01*
X444312Y425442D01*
X444524Y425954D01*
Y426508D01*
X444312Y427021D01*
X443920Y427413D01*
X443616Y427539D01*
X443465Y428061D01*
X443470Y428099D01*
X443518Y428148D01*
X443730Y428660D01*
Y429214D01*
X443680Y429335D01*
X444104Y429618D01*
X445080Y428643D01*
Y363763D01*
X444277Y362960D01*
X444122D01*
X443610Y362748D01*
X443218Y362356D01*
X443006Y361844D01*
Y361289D01*
X443010Y361280D01*
X442676Y360780D01*
X442539D01*
X442027Y360567D01*
X441635Y360175D01*
X441512Y359879D01*
X440971D01*
X440848Y360175D01*
X440456Y360567D01*
X439944Y360780D01*
X439389D01*
X438877Y360567D01*
X438485Y360175D01*
X438362Y359879D01*
X437821D01*
X437698Y360175D01*
X437306Y360567D01*
X436794Y360780D01*
X436240D01*
X435727Y360567D01*
X435335Y360175D01*
X435123Y359663D01*
Y359109D01*
X435127Y359099D01*
X434849Y358683D01*
X433892D01*
Y353183D01*
X433392D01*
Y352683D01*
X431392D01*
Y347683D01*
X431705D01*
X431983Y347267D01*
X431974Y347246D01*
Y346691D01*
X432186Y346179D01*
X432578Y345787D01*
X433090Y345575D01*
X433644D01*
X434157Y345787D01*
X434549Y346179D01*
X434671Y346475D01*
X435213D01*
X435335Y346179D01*
X435727Y345787D01*
X436240Y345575D01*
X436794D01*
X437306Y345787D01*
X437698Y346179D01*
X437821Y346475D01*
X438362D01*
X438485Y346179D01*
X438877Y345787D01*
X439389Y345575D01*
X439944D01*
X440456Y345787D01*
X440848Y346179D01*
X440971Y346475D01*
X441512D01*
X441635Y346179D01*
X442027Y345787D01*
X442539Y345575D01*
X443093D01*
X443606Y345787D01*
X443998Y346179D01*
X444120Y346475D01*
X444662D01*
X444784Y346179D01*
X445176Y345787D01*
X445688Y345575D01*
X446243D01*
X446755Y345787D01*
X447147Y346179D01*
X447270Y346475D01*
X447811D01*
X447934Y346179D01*
X448326Y345787D01*
X448838Y345575D01*
X449393D01*
X449905Y345787D01*
X450297Y346179D01*
X450420Y346475D01*
X450961D01*
X451083Y346179D01*
X451475Y345787D01*
X451988Y345575D01*
X452542D01*
X453054Y345787D01*
X453446Y346179D01*
X453569Y346475D01*
X454110D01*
X454233Y346179D01*
X454625Y345787D01*
X455137Y345575D01*
X455692D01*
X456204Y345787D01*
X456596Y346179D01*
X456719Y346475D01*
X457260D01*
X457383Y346179D01*
X457775Y345787D01*
X458287Y345575D01*
X458841D01*
X459354Y345787D01*
X459746Y346179D01*
X459868Y346475D01*
X460409D01*
X460532Y346179D01*
X460924Y345787D01*
X461437Y345575D01*
X461991D01*
X462503Y345787D01*
X462895Y346179D01*
X463018Y346475D01*
X463559D01*
X463682Y346179D01*
X464074Y345787D01*
X464586Y345575D01*
X465140D01*
X465653Y345787D01*
X466045Y346179D01*
X466167Y346475D01*
X466709D01*
X466831Y346179D01*
X467223Y345787D01*
X467736Y345575D01*
X468290D01*
X468802Y345787D01*
X469194Y346179D01*
X469317Y346475D01*
X469858D01*
X469981Y346179D01*
X470373Y345787D01*
X470885Y345575D01*
X471440D01*
X471952Y345787D01*
X472344Y346179D01*
X472467Y346475D01*
X473008D01*
X473131Y346179D01*
X473523Y345787D01*
X474035Y345575D01*
X474589D01*
X475102Y345787D01*
X475494Y346179D01*
X475616Y346475D01*
X476158D01*
X476280Y346179D01*
X476672Y345787D01*
X477184Y345575D01*
X477739D01*
X478251Y345787D01*
X478643Y346179D01*
X478855Y346691D01*
Y347246D01*
X478716Y347583D01*
X478971Y348083D01*
X482251D01*
X482507Y347583D01*
X482367Y347246D01*
Y346691D01*
X482579Y346179D01*
X482971Y345787D01*
X483484Y345575D01*
X484038D01*
X484550Y345787D01*
X484942Y346179D01*
X485065Y346475D01*
X485606D01*
X485729Y346179D01*
X486121Y345787D01*
X486633Y345575D01*
X487188D01*
X487700Y345787D01*
X488092Y346179D01*
X488207Y346458D01*
X488422Y346473D01*
X488728Y346408D01*
X488905Y345981D01*
X489297Y345589D01*
X489809Y345377D01*
X490364D01*
X490876Y345589D01*
X491268Y345981D01*
X491419Y346344D01*
X491942Y346387D01*
X492028Y346179D01*
X492420Y345787D01*
X492933Y345575D01*
X493487D01*
X493999Y345787D01*
X494391Y346179D01*
X494514Y346475D01*
X495055D01*
X495178Y346179D01*
X495570Y345787D01*
X496082Y345575D01*
X496636D01*
X497149Y345787D01*
X497541Y346179D01*
X497753Y346691D01*
Y347246D01*
X497613Y347583D01*
X497869Y348083D01*
X501149D01*
X501405Y347583D01*
X501265Y347246D01*
Y346691D01*
X501477Y346179D01*
X501869Y345787D01*
X502382Y345575D01*
X502936D01*
X503448Y345787D01*
X503840Y346179D01*
X503963Y346475D01*
X504504D01*
X504627Y346179D01*
X505019Y345787D01*
X505531Y345575D01*
X506085D01*
X506598Y345787D01*
X506990Y346179D01*
X507113Y346475D01*
X507654D01*
X507776Y346179D01*
X508168Y345787D01*
X508681Y345575D01*
X509235D01*
X509747Y345787D01*
X510139Y346179D01*
X510262Y346475D01*
X510803D01*
X510926Y346179D01*
X511318Y345787D01*
X511830Y345575D01*
X512385D01*
X512897Y345787D01*
X513289Y346179D01*
X513412Y346475D01*
X513953D01*
X514076Y346179D01*
X514468Y345787D01*
X514980Y345575D01*
X515534D01*
X516047Y345787D01*
X516439Y346179D01*
X516651Y346691D01*
Y347246D01*
X516642Y347267D01*
X516920Y347683D01*
X517281D01*
Y352683D01*
X515281D01*
Y353183D01*
X514782D01*
Y358683D01*
X513775D01*
X513497Y359099D01*
X513501Y359109D01*
Y359663D01*
X513289Y360175D01*
X512897Y360567D01*
X512385Y360780D01*
X511830D01*
X511318Y360567D01*
X510926Y360175D01*
X510714Y359663D01*
Y359109D01*
X510718Y359099D01*
X510440Y358683D01*
X509482D01*
Y353183D01*
X508482D01*
Y358683D01*
X507275D01*
X507251Y358719D01*
Y359273D01*
X507039Y359785D01*
X506647Y360177D01*
X506135Y360390D01*
X505580D01*
X505068Y360177D01*
X504676Y359785D01*
X504552Y359488D01*
X504052Y359587D01*
Y359663D01*
X503840Y360175D01*
X503448Y360567D01*
X502936Y360780D01*
X502382D01*
X501869Y360567D01*
X501477Y360175D01*
X501355Y359879D01*
X500813D01*
X500691Y360175D01*
X500299Y360567D01*
X499786Y360780D01*
X499232D01*
X498720Y360567D01*
X498328Y360175D01*
X498212Y359896D01*
X497671D01*
X497566Y360150D01*
X497174Y360542D01*
X496662Y360755D01*
X496107D01*
X495595Y360542D01*
X495203Y360150D01*
X495122Y359956D01*
X494581D01*
X494491Y360173D01*
X494099Y360565D01*
X493587Y360777D01*
X493032D01*
X492520Y360565D01*
X492128Y360173D01*
X491916Y359661D01*
Y359113D01*
X491916Y359106D01*
X491550Y358683D01*
X490585D01*
Y353183D01*
X489585D01*
Y358683D01*
X488574D01*
X488230Y359160D01*
Y359714D01*
X488018Y360226D01*
X487626Y360618D01*
X487114Y360831D01*
X486559D01*
X486047Y360618D01*
X485655Y360226D01*
X485559Y359994D01*
X485017D01*
X484942Y360175D01*
X484550Y360567D01*
X484038Y360780D01*
X483484D01*
X482971Y360567D01*
X482579Y360175D01*
X482457Y359879D01*
X481916D01*
X481793Y360175D01*
X481401Y360567D01*
X480889Y360780D01*
X480334D01*
X479822Y360567D01*
X479430Y360175D01*
X479307Y359879D01*
X478766D01*
X478643Y360175D01*
X478251Y360567D01*
X477739Y360780D01*
X477184D01*
X476672Y360567D01*
X476280Y360175D01*
X476068Y359663D01*
Y359109D01*
X476072Y359099D01*
X475794Y358683D01*
X474837D01*
Y353183D01*
X473837D01*
Y358683D01*
X472830D01*
X472552Y359099D01*
X472556Y359109D01*
Y359663D01*
X472344Y360175D01*
X471952Y360567D01*
X471440Y360780D01*
X470885D01*
X470373Y360567D01*
X469981Y360175D01*
X469858Y359879D01*
X469317D01*
X469194Y360175D01*
X468802Y360567D01*
X468290Y360780D01*
X467736D01*
X467223Y360567D01*
X466831Y360175D01*
X466709Y359879D01*
X466167D01*
X466045Y360175D01*
X465653Y360567D01*
X465533Y360617D01*
X464141Y369061D01*
X464572Y369521D01*
X464792D01*
X465305Y369733D01*
X465697Y370126D01*
X465909Y370638D01*
Y371192D01*
X465857Y371316D01*
X466167Y371876D01*
X496721Y377072D01*
X496775Y377093D01*
X497128Y377139D01*
X498195Y377581D01*
X498564Y377864D01*
X498638Y377900D01*
X515001Y390279D01*
X515060Y390345D01*
X515474Y390662D01*
X516177Y391579D01*
X516619Y392646D01*
X516770Y393791D01*
X516749D01*
Y409539D01*
X516770D01*
X516622Y410663D01*
X516622D01*
X516599Y410676D01*
X514670Y418024D01*
X514649Y418067D01*
X514593Y418345D01*
X514393Y418645D01*
X514365Y418716D01*
X511666Y422900D01*
X511695Y422969D01*
X512140Y423325D01*
X522145Y419128D01*
X522319Y418711D01*
X522711Y418319D01*
X523223Y418106D01*
X523777D01*
X524290Y418319D01*
X524682Y418711D01*
X524894Y419223D01*
Y419777D01*
X524682Y420290D01*
X524290Y420681D01*
X523777Y420894D01*
X523223D01*
X522818Y420726D01*
X511300Y425557D01*
X511285Y425593D01*
X511276Y425599D01*
X510838Y425688D01*
X510814Y425695D01*
X510745Y425721D01*
X510343Y425789D01*
X440729Y437548D01*
X440659Y437546D01*
X440329Y437611D01*
X439397Y437426D01*
X438696Y436958D01*
X438704Y436949D01*
X436960Y435350D01*
X436583Y435021D01*
X436494Y434961D01*
X436284Y434646D01*
X435967Y434172D01*
X435866Y433665D01*
X435781Y433240D01*
X435791Y433190D01*
X435791D01*
X435812Y433169D01*
X435923Y427887D01*
X435913Y427386D01*
X435913D01*
X436029Y426801D01*
X436088Y426506D01*
X436192Y426350D01*
X436192Y426350D01*
X438651Y421497D01*
X438289Y421106D01*
X438077Y421194D01*
X437523D01*
X437010Y420982D01*
X436619Y420589D01*
X436406Y420077D01*
Y419523D01*
X436619Y419010D01*
X436952Y418677D01*
X436919Y418405D01*
X436815Y418161D01*
X424511Y416981D01*
X424023Y416964D01*
X423991Y416958D01*
X423503Y416912D01*
X411559Y416412D01*
X411290Y416681D01*
X410777Y416894D01*
X410223D01*
X409711Y416681D01*
X409318Y416290D01*
X409106Y415777D01*
Y415462D01*
X408699Y414999D01*
X386861Y417096D01*
X386885Y417596D01*
X415548D01*
X415880Y417662D01*
X416161Y417850D01*
X444445Y446133D01*
X475976D01*
X476307Y446199D01*
X476589Y446387D01*
X482893Y452691D01*
X483081Y452973D01*
X483147Y453304D01*
Y454396D01*
X483462Y454710D01*
X483674Y455223D01*
Y455777D01*
X483462Y456289D01*
X483070Y456681D01*
X482557Y456894D01*
X482003D01*
X481491Y456681D01*
X481099Y456289D01*
X480886Y455777D01*
Y455223D01*
X480538Y454853D01*
X480072D01*
X479856Y455012D01*
X479657Y455259D01*
Y455713D01*
X479445Y456225D01*
X479053Y456617D01*
X478541Y456829D01*
X477986D01*
X477474Y456617D01*
X477082Y456225D01*
X477042Y456127D01*
X476455Y456016D01*
X476290Y456181D01*
X475777Y456394D01*
X475223D01*
X474711Y456181D01*
X474319Y455790D01*
X474106Y455277D01*
Y454832D01*
X470141Y450867D01*
X463491D01*
X463368Y451142D01*
X463338Y451367D01*
X463682Y451711D01*
X463894Y452223D01*
Y452777D01*
X463747Y453131D01*
X463985Y453446D01*
X464081Y453543D01*
X464614D01*
X465126Y453756D01*
X465437Y454066D01*
X465658Y454133D01*
X466037Y454093D01*
X466311Y453819D01*
X466823Y453606D01*
X467377D01*
X467889Y453819D01*
X468282Y454211D01*
X468494Y454723D01*
Y455277D01*
X468282Y455790D01*
X467889Y456181D01*
X467377Y456394D01*
X466823D01*
X466311Y456181D01*
X466000Y455871D01*
X465778Y455804D01*
X465400Y455844D01*
X465126Y456118D01*
X464614Y456331D01*
X464059D01*
X463867Y456251D01*
X463367Y456585D01*
Y457255D01*
X463301Y457587D01*
X463113Y457868D01*
X457309Y463671D01*
X457501Y464133D01*
X498294D01*
X498626Y464199D01*
X498907Y464387D01*
X499292Y464772D01*
X506766D01*
X507081Y464458D01*
X507593Y464245D01*
X508148D01*
X508660Y464458D01*
X509052Y464850D01*
X509264Y465362D01*
Y465747D01*
X509342Y465970D01*
X509684Y466209D01*
X509979D01*
X510491Y466421D01*
X510633Y466563D01*
X511133Y466356D01*
Y448104D01*
X510818Y447789D01*
X510606Y447277D01*
Y446723D01*
X510818Y446210D01*
X511210Y445819D01*
X511723Y445606D01*
X512277D01*
X512789Y445819D01*
X513181Y446210D01*
X513394Y446723D01*
Y447277D01*
X513181Y447789D01*
X512867Y448104D01*
Y467479D01*
X512801Y467811D01*
X512613Y468092D01*
X510952Y469753D01*
X510670Y469941D01*
X510339Y470007D01*
X497699D01*
X497367Y469941D01*
X497086Y469753D01*
X495662Y468329D01*
X482807D01*
X482600Y468829D01*
X482782Y469010D01*
X482994Y469523D01*
Y470077D01*
X482782Y470589D01*
X482729Y470642D01*
X482936Y471142D01*
X534772D01*
Y466303D01*
D02*
G37*
G36*
X373784Y449664D02*
Y441553D01*
X373688Y441498D01*
X373284Y441400D01*
X372978Y441706D01*
X372466Y441919D01*
X371911D01*
X371518Y442182D01*
Y447437D01*
X371452Y447769D01*
X371264Y448050D01*
X363605Y455709D01*
X363797Y456171D01*
X367278D01*
X373784Y449664D01*
D02*
G37*
%LPC*%
G36*
X430805Y458722D02*
X430250D01*
X429738Y458510D01*
X429423Y458195D01*
X406829D01*
X406497Y458129D01*
X406216Y457942D01*
X404168Y455894D01*
X403723D01*
X403210Y455682D01*
X402818Y455290D01*
X402606Y454777D01*
Y454223D01*
X402818Y453711D01*
X403210Y453319D01*
X403723Y453106D01*
X404277D01*
X404789Y453319D01*
X405182Y453711D01*
X405394Y454223D01*
Y454668D01*
X407188Y456462D01*
X429423D01*
X429738Y456147D01*
X430250Y455935D01*
X430805D01*
X431317Y456147D01*
X431709Y456539D01*
X431921Y457052D01*
Y457606D01*
X431709Y458118D01*
X431317Y458510D01*
X430805Y458722D01*
D02*
G37*
G36*
X441277Y457094D02*
X440723D01*
X440210Y456882D01*
X439818Y456490D01*
X439606Y455977D01*
Y455423D01*
X439818Y454911D01*
X440210Y454519D01*
X440723Y454306D01*
X441277D01*
X441789Y454519D01*
X442181Y454911D01*
X442394Y455423D01*
Y455977D01*
X442181Y456490D01*
X441789Y456882D01*
X441277Y457094D01*
D02*
G37*
G36*
X447114Y456831D02*
X446559D01*
X446047Y456618D01*
X445655Y456226D01*
X445443Y455714D01*
Y455160D01*
X445655Y454648D01*
X445655Y454647D01*
X445372Y454224D01*
X445114Y454331D01*
X444559D01*
X444047Y454118D01*
X443655Y453726D01*
X443443Y453214D01*
Y452660D01*
X443655Y452147D01*
X444047Y451756D01*
X444559Y451543D01*
X445114D01*
X445626Y451756D01*
X446018Y452147D01*
X446230Y452660D01*
Y453214D01*
X446018Y453726D01*
X446019Y453727D01*
X446302Y454150D01*
X446559Y454043D01*
X447114D01*
X447626Y454255D01*
X448018Y454647D01*
X448230Y455160D01*
Y455714D01*
X448018Y456226D01*
X447626Y456618D01*
X447114Y456831D01*
D02*
G37*
G36*
X227977Y469994D02*
X227423D01*
X226910Y469781D01*
X226519Y469389D01*
X226306Y468877D01*
Y468323D01*
X226519Y467810D01*
X226910Y467418D01*
X227423Y467206D01*
X227977D01*
X228489Y467418D01*
X228882Y467810D01*
X229094Y468323D01*
Y468877D01*
X228882Y469389D01*
X228489Y469781D01*
X227977Y469994D01*
D02*
G37*
G36*
X528209Y470083D02*
X528125D01*
X526981Y469855D01*
X525904Y469409D01*
X524934Y468761D01*
X524109Y467936D01*
X523461Y466966D01*
X523015Y465889D01*
X522787Y464745D01*
Y464662D01*
X528209D01*
Y470083D01*
D02*
G37*
G36*
X204874D02*
X204791D01*
Y464661D01*
X210213D01*
Y464745D01*
X209985Y465889D01*
X209539Y466966D01*
X208891Y467936D01*
X208066Y468761D01*
X207096Y469409D01*
X206018Y469855D01*
X204874Y470083D01*
D02*
G37*
G36*
X528209Y463661D02*
X522787D01*
Y463578D01*
X523015Y462434D01*
X523461Y461357D01*
X524109Y460387D01*
X524934Y459562D01*
X525904Y458914D01*
X526981Y458468D01*
X528125Y458240D01*
X528209D01*
Y463661D01*
D02*
G37*
G36*
X210213Y463661D02*
X204791D01*
Y458240D01*
X204874D01*
X206018Y458468D01*
X207096Y458914D01*
X208066Y459562D01*
X208891Y460387D01*
X209539Y461357D01*
X209985Y462434D01*
X210213Y463578D01*
Y463661D01*
D02*
G37*
G36*
X523877Y458894D02*
X523323D01*
X522811Y458681D01*
X522418Y458289D01*
X522206Y457777D01*
Y457223D01*
X522418Y456710D01*
X522811Y456319D01*
X523323Y456106D01*
X523877D01*
X524390Y456319D01*
X524782Y456710D01*
X524994Y457223D01*
Y457777D01*
X524782Y458289D01*
X524390Y458681D01*
X523877Y458894D01*
D02*
G37*
G36*
X233454Y457243D02*
X232900D01*
X232387Y457031D01*
X231995Y456639D01*
X231783Y456127D01*
Y455572D01*
X231995Y455060D01*
X232387Y454668D01*
X232900Y454456D01*
X233454D01*
X233966Y454668D01*
X234358Y455060D01*
X234571Y455572D01*
Y456127D01*
X234358Y456639D01*
X233966Y457031D01*
X233454Y457243D01*
D02*
G37*
G36*
X498291Y456839D02*
X497737D01*
X497224Y456626D01*
X496832Y456234D01*
X496620Y455722D01*
Y455168D01*
X496832Y454655D01*
X497224Y454263D01*
X497737Y454051D01*
X498152D01*
X498431Y453825D01*
X498557Y453620D01*
Y453168D01*
X498769Y452655D01*
X499161Y452263D01*
X499674Y452051D01*
X500228D01*
X500740Y452263D01*
X501132Y452655D01*
X501344Y453168D01*
Y453722D01*
X501132Y454234D01*
X500740Y454626D01*
X500228Y454839D01*
X499812D01*
X499534Y455065D01*
X499407Y455270D01*
Y455722D01*
X499195Y456234D01*
X498803Y456626D01*
X498291Y456839D01*
D02*
G37*
G36*
X231296Y454683D02*
X230742D01*
X230229Y454471D01*
X229837Y454079D01*
X229625Y453567D01*
Y453012D01*
X229837Y452500D01*
X230229Y452108D01*
X230742Y451896D01*
X231296D01*
X231808Y452108D01*
X232201Y452500D01*
X232413Y453012D01*
Y453567D01*
X232201Y454079D01*
X231808Y454471D01*
X231296Y454683D01*
D02*
G37*
G36*
X226392Y454106D02*
X225838D01*
X225325Y453894D01*
X224933Y453502D01*
X224721Y452989D01*
Y452435D01*
X224933Y451923D01*
X225325Y451531D01*
X225838Y451319D01*
X226392D01*
X226904Y451531D01*
X227296Y451923D01*
X227509Y452435D01*
Y452989D01*
X227296Y453502D01*
X226904Y453894D01*
X226392Y454106D01*
D02*
G37*
G36*
X235462Y452079D02*
X234908D01*
X234396Y451867D01*
X234003Y451475D01*
X233791Y450962D01*
Y450408D01*
X234003Y449896D01*
X234396Y449504D01*
X234908Y449291D01*
X235462D01*
X235975Y449504D01*
X236367Y449896D01*
X236579Y450408D01*
Y450962D01*
X236367Y451475D01*
X235975Y451867D01*
X235462Y452079D01*
D02*
G37*
G36*
X230777Y450356D02*
X230223D01*
X229711Y450144D01*
X229318Y449752D01*
X229106Y449240D01*
Y448685D01*
X229318Y448173D01*
X229711Y447781D01*
X230223Y447569D01*
X230777D01*
X231290Y447781D01*
X231681Y448173D01*
X231894Y448685D01*
Y449240D01*
X231681Y449752D01*
X231290Y450144D01*
X230777Y450356D01*
D02*
G37*
G36*
X360666Y441919D02*
X360111D01*
X359599Y441706D01*
X359207Y441314D01*
X358995Y440802D01*
Y440248D01*
X359207Y439736D01*
X359599Y439343D01*
X360111Y439131D01*
X360666D01*
X361178Y439343D01*
X361570Y439736D01*
X361782Y440248D01*
Y440802D01*
X361570Y441314D01*
X361178Y441706D01*
X360666Y441919D01*
D02*
G37*
G36*
X356766D02*
X356211D01*
X355699Y441706D01*
X355307Y441314D01*
X355095Y440802D01*
Y440248D01*
X355307Y439736D01*
X355699Y439343D01*
X356211Y439131D01*
X356766D01*
X357278Y439343D01*
X357670Y439736D01*
X357882Y440248D01*
Y440802D01*
X357670Y441314D01*
X357278Y441706D01*
X356766Y441919D01*
D02*
G37*
G36*
X225170Y439746D02*
X224615D01*
X224103Y439534D01*
X223711Y439142D01*
X223499Y438630D01*
Y438075D01*
X223711Y437563D01*
X224103Y437171D01*
X224615Y436959D01*
X225170D01*
X225682Y437171D01*
X226074Y437563D01*
X226286Y438075D01*
Y438630D01*
X226074Y439142D01*
X225682Y439534D01*
X225170Y439746D01*
D02*
G37*
G36*
X211898Y442404D02*
X211344D01*
X210832Y442192D01*
X210440Y441800D01*
X210227Y441288D01*
Y440733D01*
X210440Y440221D01*
X210754Y439906D01*
Y439590D01*
X206851Y435687D01*
X206312D01*
X206064Y435935D01*
X205552Y436147D01*
X204997D01*
X204485Y435935D01*
X204093Y435543D01*
X203881Y435031D01*
Y434476D01*
X204093Y433964D01*
X204485Y433572D01*
X204997Y433360D01*
X205552D01*
X206064Y433572D01*
X206379Y433887D01*
X207144D01*
X207475Y433953D01*
X207757Y434141D01*
X212234Y438618D01*
X212422Y438899D01*
X212488Y439231D01*
Y439906D01*
X212803Y440221D01*
X213015Y440733D01*
Y441288D01*
X212803Y441800D01*
X212411Y442192D01*
X211898Y442404D01*
D02*
G37*
G36*
X327777Y438469D02*
X327223D01*
X326711Y438257D01*
X326319Y437864D01*
X326106Y437352D01*
Y436798D01*
X326319Y436286D01*
X326711Y435894D01*
X327223Y435681D01*
X327777D01*
X328290Y435894D01*
X328681Y436286D01*
X328894Y436798D01*
Y437352D01*
X328681Y437864D01*
X328290Y438257D01*
X327777Y438469D01*
D02*
G37*
G36*
X351102Y438417D02*
X350548D01*
X350036Y438205D01*
X349644Y437813D01*
X349432Y437301D01*
Y436747D01*
X349644Y436234D01*
X350036Y435842D01*
X350548Y435630D01*
X351102D01*
X351615Y435842D01*
X352007Y436234D01*
X352219Y436747D01*
Y437301D01*
X352007Y437813D01*
X351615Y438205D01*
X351102Y438417D01*
D02*
G37*
G36*
X347102D02*
X346548D01*
X346036Y438205D01*
X345644Y437813D01*
X345432Y437301D01*
Y436747D01*
X345644Y436234D01*
X346036Y435842D01*
X346548Y435630D01*
X347102D01*
X347615Y435842D01*
X348007Y436234D01*
X348219Y436747D01*
Y437301D01*
X348007Y437813D01*
X347615Y438205D01*
X347102Y438417D01*
D02*
G37*
G36*
X343103D02*
X342548D01*
X342036Y438205D01*
X341644Y437813D01*
X341432Y437301D01*
Y436747D01*
X341644Y436234D01*
X342036Y435842D01*
X342548Y435630D01*
X343103D01*
X343615Y435842D01*
X344007Y436234D01*
X344219Y436747D01*
Y437301D01*
X344007Y437813D01*
X343615Y438205D01*
X343103Y438417D01*
D02*
G37*
G36*
X339103D02*
X338548D01*
X338036Y438205D01*
X337644Y437813D01*
X337432Y437301D01*
Y436747D01*
X337644Y436234D01*
X338036Y435842D01*
X338548Y435630D01*
X339103D01*
X339615Y435842D01*
X340007Y436234D01*
X340219Y436747D01*
Y437301D01*
X340007Y437813D01*
X339615Y438205D01*
X339103Y438417D01*
D02*
G37*
G36*
X335103D02*
X334548D01*
X334036Y438205D01*
X333644Y437813D01*
X333432Y437301D01*
Y436747D01*
X333644Y436234D01*
X334036Y435842D01*
X334548Y435630D01*
X335103D01*
X335615Y435842D01*
X336007Y436234D01*
X336219Y436747D01*
Y437301D01*
X336007Y437813D01*
X335615Y438205D01*
X335103Y438417D01*
D02*
G37*
G36*
X331603D02*
X331048D01*
X330536Y438205D01*
X330144Y437813D01*
X329932Y437301D01*
Y436747D01*
X330144Y436234D01*
X330536Y435842D01*
X331048Y435630D01*
X331603D01*
X332115Y435842D01*
X332507Y436234D01*
X332719Y436747D01*
Y437301D01*
X332507Y437813D01*
X332115Y438205D01*
X331603Y438417D01*
D02*
G37*
G36*
X225588Y434982D02*
X225034D01*
X224521Y434769D01*
X224129Y434377D01*
X223917Y433865D01*
Y433311D01*
X224129Y432798D01*
X224521Y432406D01*
X225034Y432194D01*
X225588D01*
X226100Y432406D01*
X226493Y432798D01*
X226705Y433311D01*
Y433865D01*
X226493Y434377D01*
X226100Y434769D01*
X225588Y434982D01*
D02*
G37*
G36*
X228277Y432894D02*
X227723D01*
X227210Y432682D01*
X226818Y432290D01*
X226606Y431777D01*
Y431223D01*
X226676Y431055D01*
X226517Y430564D01*
X226402Y430509D01*
X226002Y430343D01*
X225610Y429951D01*
X225398Y429439D01*
Y428884D01*
X225480Y428685D01*
X225078Y428433D01*
X224958Y428554D01*
X224686Y428825D01*
X224174Y429037D01*
X223620D01*
X223108Y428825D01*
X222715Y428433D01*
X222503Y427921D01*
Y427366D01*
X222715Y426854D01*
X223108Y426462D01*
X223620Y426250D01*
X224174D01*
X224686Y426462D01*
X225078Y426854D01*
X225291Y427366D01*
Y427921D01*
X225208Y428121D01*
X225610Y428372D01*
X225730Y428251D01*
X226002Y427980D01*
X226514Y427768D01*
X227069D01*
X227581Y427980D01*
X227973Y428372D01*
X228185Y428884D01*
Y429439D01*
X228116Y429606D01*
X228274Y430097D01*
X228389Y430153D01*
X228789Y430318D01*
X229182Y430711D01*
X229394Y431223D01*
Y431777D01*
X229182Y432290D01*
X228789Y432682D01*
X228277Y432894D01*
D02*
G37*
G36*
X229128Y427172D02*
X228574D01*
X228062Y426959D01*
X227670Y426567D01*
X227457Y426055D01*
Y425501D01*
X227670Y424988D01*
X228062Y424596D01*
X228574Y424384D01*
X229128D01*
X229641Y424596D01*
X230033Y424988D01*
X230245Y425501D01*
Y426055D01*
X230033Y426567D01*
X229641Y426959D01*
X229128Y427172D01*
D02*
G37*
G36*
X334277Y421894D02*
X333723D01*
X333210Y421681D01*
X332819Y421289D01*
X332606Y420777D01*
Y420223D01*
X332819Y419710D01*
X333210Y419318D01*
X333723Y419106D01*
X334277D01*
X334789Y419318D01*
X335181Y419710D01*
X335394Y420223D01*
Y420777D01*
X335181Y421289D01*
X334789Y421681D01*
X334277Y421894D01*
D02*
G37*
G36*
X428277Y420894D02*
X427723D01*
X427211Y420681D01*
X426819Y420290D01*
X426606Y419777D01*
Y419223D01*
X426819Y418711D01*
X427211Y418319D01*
X427723Y418106D01*
X428277D01*
X428790Y418319D01*
X429181Y418711D01*
X429394Y419223D01*
Y419777D01*
X429181Y420290D01*
X428790Y420681D01*
X428277Y420894D01*
D02*
G37*
G36*
X349277Y411894D02*
X348723D01*
X348211Y411682D01*
X347818Y411290D01*
X347606Y410777D01*
Y410223D01*
X347818Y409711D01*
X348211Y409318D01*
X348723Y409106D01*
X349277D01*
X349790Y409318D01*
X350182Y409711D01*
X350394Y410223D01*
Y410777D01*
X350182Y411290D01*
X349790Y411682D01*
X349277Y411894D01*
D02*
G37*
G36*
X309191Y411419D02*
X308636D01*
X308124Y411207D01*
X307732Y410815D01*
X307520Y410302D01*
Y409748D01*
X307732Y409236D01*
X308124Y408844D01*
X308636Y408631D01*
X309191D01*
X309703Y408844D01*
X310095Y409236D01*
X310307Y409748D01*
Y410302D01*
X310095Y410815D01*
X309703Y411207D01*
X309191Y411419D01*
D02*
G37*
G36*
X527577Y407894D02*
X527023D01*
X526510Y407682D01*
X526119Y407290D01*
X525906Y406777D01*
Y406223D01*
X526119Y405711D01*
X526510Y405318D01*
X527023Y405106D01*
X527577D01*
X528090Y405318D01*
X528481Y405711D01*
X528694Y406223D01*
Y406777D01*
X528481Y407290D01*
X528090Y407682D01*
X527577Y407894D01*
D02*
G37*
G36*
X223777Y407394D02*
X223223D01*
X222710Y407182D01*
X222319Y406789D01*
X222106Y406277D01*
Y405723D01*
X222319Y405210D01*
X222710Y404818D01*
X223223Y404606D01*
X223777D01*
X224289Y404818D01*
X224681Y405210D01*
X224894Y405723D01*
Y406277D01*
X224681Y406789D01*
X224289Y407182D01*
X223777Y407394D01*
D02*
G37*
G36*
X348777Y406894D02*
X348223D01*
X347710Y406681D01*
X347319Y406289D01*
X347106Y405777D01*
Y405223D01*
X347319Y404710D01*
X347710Y404319D01*
X348223Y404106D01*
X348777D01*
X349289Y404319D01*
X349681Y404710D01*
X349894Y405223D01*
Y405777D01*
X349681Y406289D01*
X349289Y406681D01*
X348777Y406894D01*
D02*
G37*
G36*
X237357Y405383D02*
X236803D01*
X236290Y405171D01*
X235898Y404779D01*
X235686Y404267D01*
Y403713D01*
X235898Y403200D01*
X236290Y402808D01*
X236803Y402596D01*
X237357D01*
X237869Y402808D01*
X238261Y403200D01*
X238474Y403713D01*
Y404267D01*
X238261Y404779D01*
X237869Y405171D01*
X237357Y405383D01*
D02*
G37*
G36*
X368277Y402894D02*
X367723D01*
X367211Y402681D01*
X366818Y402289D01*
X366606Y401777D01*
Y401223D01*
X366818Y400710D01*
X367211Y400318D01*
X367723Y400106D01*
X368277D01*
X368790Y400318D01*
X369181Y400710D01*
X369394Y401223D01*
Y401777D01*
X369181Y402289D01*
X368790Y402681D01*
X368277Y402894D01*
D02*
G37*
G36*
X236753Y401252D02*
X236198D01*
X235686Y401040D01*
X235294Y400648D01*
X235082Y400135D01*
Y399581D01*
X235294Y399069D01*
X235686Y398677D01*
X236198Y398464D01*
X236753D01*
X237265Y398677D01*
X237657Y399069D01*
X237869Y399581D01*
Y400135D01*
X237657Y400648D01*
X237265Y401040D01*
X236753Y401252D01*
D02*
G37*
G36*
X428849Y403131D02*
X428295D01*
X427783Y402919D01*
X427391Y402527D01*
X427178Y402014D01*
Y401460D01*
X427206Y401394D01*
X426872Y400894D01*
X426729D01*
X426217Y400681D01*
X425824Y400289D01*
X425612Y399777D01*
Y399223D01*
X425824Y398710D01*
X426217Y398319D01*
X426729Y398106D01*
X427283D01*
X427796Y398319D01*
X428188Y398710D01*
X428400Y399223D01*
Y399777D01*
X428372Y399843D01*
X428706Y400344D01*
X428849D01*
X429362Y400556D01*
X429754Y400948D01*
X429966Y401460D01*
Y402014D01*
X429754Y402527D01*
X429362Y402919D01*
X428849Y403131D01*
D02*
G37*
G36*
X241638Y402869D02*
X240962D01*
X240309Y402694D01*
X239723Y402355D01*
X239245Y401877D01*
X238907Y401291D01*
X238732Y400638D01*
Y399962D01*
X238907Y399309D01*
X239245Y398723D01*
X239723Y398245D01*
X240309Y397906D01*
X240962Y397731D01*
X241638D01*
X242291Y397906D01*
X242877Y398245D01*
X243355Y398723D01*
X243693Y399309D01*
X243868Y399962D01*
Y400638D01*
X243693Y401291D01*
X243355Y401877D01*
X242877Y402355D01*
X242291Y402694D01*
X241638Y402869D01*
D02*
G37*
G36*
X251738Y402468D02*
X251062D01*
X250409Y402293D01*
X249823Y401955D01*
X249345Y401477D01*
X249007Y400891D01*
X248832Y400238D01*
Y399562D01*
X249007Y398909D01*
X249345Y398323D01*
X249823Y397845D01*
X250409Y397506D01*
X251062Y397332D01*
X251738D01*
X252391Y397506D01*
X252977Y397845D01*
X253455Y398323D01*
X253794Y398909D01*
X253969Y399562D01*
Y400238D01*
X253794Y400891D01*
X253455Y401477D01*
X252977Y401955D01*
X252391Y402293D01*
X251738Y402468D01*
D02*
G37*
G36*
X313777Y402043D02*
X313223D01*
X312710Y401831D01*
X312318Y401439D01*
X312106Y400927D01*
Y400372D01*
X312318Y399860D01*
X312490Y399689D01*
X312656Y399362D01*
X312490Y399036D01*
X312318Y398864D01*
X312106Y398352D01*
Y397798D01*
X312312Y397301D01*
X312284Y397241D01*
X312013Y396884D01*
X311925Y396920D01*
X311371D01*
X310859Y396708D01*
X310467Y396316D01*
X310254Y395804D01*
Y395249D01*
X310467Y394737D01*
X310859Y394345D01*
X311371Y394133D01*
X311925D01*
X312438Y394345D01*
X312830Y394737D01*
X313042Y395249D01*
Y395804D01*
X312836Y396300D01*
X312864Y396361D01*
X313135Y396717D01*
X313223Y396681D01*
X313777D01*
X314289Y396893D01*
X314682Y397285D01*
X314894Y397798D01*
Y398352D01*
X314682Y398864D01*
X314510Y399036D01*
X314344Y399362D01*
X314510Y399689D01*
X314682Y399860D01*
X314894Y400372D01*
Y400927D01*
X314682Y401439D01*
X314289Y401831D01*
X313777Y402043D01*
D02*
G37*
G36*
X441215Y399157D02*
X440660D01*
X440148Y398945D01*
X439756Y398553D01*
X439544Y398041D01*
Y397486D01*
X439731Y397035D01*
X439756Y396974D01*
X439369Y396702D01*
X439347Y396724D01*
X439290Y396781D01*
X438777Y396994D01*
X438223D01*
X437711Y396781D01*
X437319Y396390D01*
X437106Y395877D01*
Y395323D01*
X437319Y394811D01*
X437711Y394419D01*
X438223Y394206D01*
X438777D01*
X439290Y394419D01*
X439681Y394811D01*
X439894Y395323D01*
Y395877D01*
X439707Y396328D01*
X439681Y396390D01*
X440069Y396662D01*
X440091Y396639D01*
X440148Y396582D01*
X440660Y396370D01*
X441215D01*
X441727Y396582D01*
X442119Y396974D01*
X442332Y397486D01*
Y398041D01*
X442119Y398553D01*
X441727Y398945D01*
X441215Y399157D01*
D02*
G37*
G36*
X526777Y400894D02*
X526223D01*
X525710Y400681D01*
X525318Y400289D01*
X525106Y399777D01*
Y399223D01*
X525318Y398710D01*
X525710Y398319D01*
X526223Y398106D01*
X526728D01*
X526875Y397928D01*
X527006Y397660D01*
X526806Y397177D01*
Y396623D01*
X527018Y396111D01*
X527411Y395719D01*
X527923Y395506D01*
X528477D01*
X528990Y395719D01*
X529382Y396111D01*
X529594Y396623D01*
Y397177D01*
X529382Y397690D01*
X528990Y398081D01*
X528477Y398294D01*
X527972D01*
X527825Y398472D01*
X527694Y398740D01*
X527894Y399223D01*
Y399777D01*
X527681Y400289D01*
X527289Y400681D01*
X526777Y400894D01*
D02*
G37*
G36*
X222546Y397584D02*
X221992D01*
X221480Y397371D01*
X221088Y396979D01*
X220875Y396467D01*
Y395913D01*
X221088Y395400D01*
X221480Y395008D01*
X221992Y394796D01*
X222546D01*
X223059Y395008D01*
X223451Y395400D01*
X223663Y395913D01*
Y396467D01*
X223451Y396979D01*
X223059Y397371D01*
X222546Y397584D01*
D02*
G37*
G36*
X523438Y397155D02*
X522884D01*
X522371Y396943D01*
X521979Y396551D01*
X521767Y396039D01*
Y395484D01*
X521979Y394972D01*
X522371Y394580D01*
X522884Y394368D01*
X523438D01*
X523950Y394580D01*
X524342Y394972D01*
X524554Y395484D01*
Y396039D01*
X524342Y396551D01*
X523950Y396943D01*
X523438Y397155D01*
D02*
G37*
G36*
X289025Y393862D02*
X288470D01*
X287958Y393650D01*
X287566Y393258D01*
X287354Y392745D01*
Y392191D01*
X287566Y391679D01*
X287958Y391287D01*
X288470Y391074D01*
X289025D01*
X289537Y391287D01*
X289929Y391679D01*
X290141Y392191D01*
Y392745D01*
X289929Y393258D01*
X289537Y393650D01*
X289025Y393862D01*
D02*
G37*
G36*
X331577Y392694D02*
X331023D01*
X330510Y392481D01*
X330118Y392090D01*
X329906Y391577D01*
Y391023D01*
X330118Y390511D01*
X330510Y390119D01*
X331023Y389906D01*
X331577D01*
X332089Y390119D01*
X332482Y390511D01*
X332694Y391023D01*
Y391577D01*
X332482Y392090D01*
X332089Y392481D01*
X331577Y392694D01*
D02*
G37*
G36*
X406277Y392094D02*
X405723D01*
X405210Y391881D01*
X404818Y391490D01*
X404606Y390977D01*
Y390423D01*
X404818Y389911D01*
X405210Y389518D01*
X405723Y389306D01*
X406277D01*
X406789Y389518D01*
X407182Y389911D01*
X407394Y390423D01*
Y390977D01*
X407182Y391490D01*
X406789Y391881D01*
X406277Y392094D01*
D02*
G37*
G36*
X384651Y396412D02*
X383466D01*
X382321Y396105D01*
X381295Y395513D01*
X380457Y394675D01*
X379865Y393649D01*
X379558Y392504D01*
Y391319D01*
X379865Y390175D01*
X380457Y389149D01*
X381295Y388311D01*
X382321Y387718D01*
X383466Y387412D01*
X384651D01*
X385795Y387718D01*
X386821Y388311D01*
X387659Y389149D01*
X388252Y390175D01*
X388558Y391319D01*
Y392504D01*
X388252Y393649D01*
X387659Y394675D01*
X386821Y395513D01*
X385795Y396105D01*
X384651Y396412D01*
D02*
G37*
G36*
X349584Y396361D02*
X348399D01*
X347254Y396055D01*
X346228Y395462D01*
X345390Y394624D01*
X344798Y393598D01*
X344491Y392454D01*
Y391269D01*
X344798Y390125D01*
X345390Y389098D01*
X346228Y388261D01*
X347254Y387668D01*
X348399Y387361D01*
X349584D01*
X350728Y387668D01*
X351754Y388261D01*
X352592Y389098D01*
X353185Y390125D01*
X353491Y391269D01*
Y392454D01*
X353185Y393598D01*
X352592Y394624D01*
X351754Y395462D01*
X350728Y396055D01*
X349584Y396361D01*
D02*
G37*
G36*
X350765Y385054D02*
X350211D01*
X349699Y384842D01*
X349307Y384450D01*
X349095Y383938D01*
Y383383D01*
X349307Y382871D01*
X349699Y382479D01*
X350211Y382267D01*
X350765D01*
X351278Y382479D01*
X351670Y382871D01*
X351882Y383383D01*
Y383938D01*
X351670Y384450D01*
X351278Y384842D01*
X350765Y385054D01*
D02*
G37*
G36*
X269041Y383032D02*
X268487D01*
X267974Y382819D01*
X267582Y382427D01*
X267370Y381915D01*
Y381361D01*
X267582Y380848D01*
X267974Y380456D01*
X268487Y380244D01*
X269041D01*
X269553Y380456D01*
X269945Y380848D01*
X270158Y381361D01*
Y381915D01*
X269945Y382427D01*
X269553Y382819D01*
X269041Y383032D01*
D02*
G37*
G36*
X263029Y385032D02*
X262475D01*
X261963Y384819D01*
X261570Y384427D01*
X261358Y383915D01*
Y383436D01*
X261177Y383213D01*
X260953Y383032D01*
X260475D01*
X259963Y382819D01*
X259570Y382427D01*
X259358Y381915D01*
Y381361D01*
X259570Y380848D01*
X259963Y380456D01*
X260475Y380244D01*
X261029D01*
X261541Y380456D01*
X261933Y380848D01*
X262146Y381361D01*
Y381839D01*
X262327Y382063D01*
X262551Y382244D01*
X262890D01*
X263169Y382018D01*
X263295Y381813D01*
Y381361D01*
X263508Y380848D01*
X263899Y380456D01*
X264412Y380244D01*
X264966D01*
X265478Y380456D01*
X265870Y380848D01*
X266083Y381361D01*
Y381915D01*
X265870Y382427D01*
X265478Y382819D01*
X264966Y383032D01*
X264551D01*
X264272Y383258D01*
X264146Y383463D01*
Y383915D01*
X263933Y384427D01*
X263541Y384819D01*
X263029Y385032D01*
D02*
G37*
G36*
X350781Y381112D02*
X350226D01*
X349714Y380900D01*
X349322Y380507D01*
X349110Y379995D01*
Y379441D01*
X349322Y378928D01*
X349714Y378537D01*
X350226Y378324D01*
X350781D01*
X351293Y378537D01*
X351685Y378928D01*
X351897Y379441D01*
Y379995D01*
X351685Y380507D01*
X351293Y380900D01*
X350781Y381112D01*
D02*
G37*
G36*
X301757Y383141D02*
X301203D01*
X300690Y382929D01*
X300298Y382537D01*
X300086Y382025D01*
Y381470D01*
X300118Y381394D01*
X299784Y380894D01*
X299723D01*
X299211Y380681D01*
X298818Y380290D01*
X298606Y379777D01*
Y379223D01*
X298818Y378711D01*
X299211Y378319D01*
X299723Y378106D01*
X300277D01*
X300789Y378319D01*
X301182Y378711D01*
X301394Y379223D01*
Y379777D01*
X301362Y379854D01*
X301696Y380354D01*
X301757D01*
X302269Y380566D01*
X302661Y380958D01*
X302873Y381470D01*
Y382025D01*
X302661Y382537D01*
X302269Y382929D01*
X301757Y383141D01*
D02*
G37*
G36*
X310677Y379594D02*
X310123D01*
X309611Y379381D01*
X309219Y378990D01*
X309006Y378477D01*
Y377923D01*
X309219Y377411D01*
X309611Y377018D01*
X310123Y376806D01*
X310677D01*
X311190Y377018D01*
X311581Y377411D01*
X311794Y377923D01*
Y378477D01*
X311581Y378990D01*
X311190Y379381D01*
X310677Y379594D01*
D02*
G37*
G36*
X350765Y377394D02*
X350211D01*
X349699Y377182D01*
X349307Y376789D01*
X349095Y376277D01*
Y375723D01*
X349307Y375210D01*
X349699Y374818D01*
X350211Y374606D01*
X350765D01*
X351278Y374818D01*
X351670Y375210D01*
X351882Y375723D01*
Y376277D01*
X351670Y376789D01*
X351278Y377182D01*
X350765Y377394D01*
D02*
G37*
G36*
X515689Y377366D02*
X515134D01*
X514622Y377154D01*
X514230Y376762D01*
X514018Y376250D01*
Y375695D01*
X514230Y375183D01*
X514622Y374791D01*
X515134Y374579D01*
X515689D01*
X516201Y374791D01*
X516593Y375183D01*
X516805Y375695D01*
Y376250D01*
X516593Y376762D01*
X516201Y377154D01*
X515689Y377366D01*
D02*
G37*
G36*
X424433Y380827D02*
X423878D01*
X423366Y380615D01*
X422974Y380223D01*
X422762Y379711D01*
Y379156D01*
X422974Y378644D01*
X423366Y378252D01*
X423878Y378040D01*
X424433D01*
X424945Y378252D01*
X425260Y378567D01*
X428207D01*
X432606Y374168D01*
Y373723D01*
X432819Y373211D01*
X433211Y372818D01*
X433723Y372606D01*
X434277D01*
X434790Y372818D01*
X435182Y373211D01*
X435394Y373723D01*
Y374277D01*
X435182Y374790D01*
X434790Y375182D01*
X434277Y375394D01*
X433832D01*
X429179Y380047D01*
X428898Y380234D01*
X428566Y380300D01*
X425260D01*
X424945Y380615D01*
X424433Y380827D01*
D02*
G37*
G36*
X307369Y393430D02*
X306814D01*
X306302Y393218D01*
X305910Y392826D01*
X305698Y392314D01*
Y391759D01*
X305910Y391247D01*
X306302Y390855D01*
X306729Y390678D01*
X306737Y390638D01*
X306737Y390217D01*
X306729Y390178D01*
X306302Y390001D01*
X305910Y389609D01*
X305697Y389096D01*
Y388542D01*
X305910Y388030D01*
X306136Y387804D01*
X306248Y387485D01*
X306136Y387165D01*
X305910Y386940D01*
X305697Y386427D01*
Y385873D01*
X305910Y385361D01*
X306119Y385152D01*
X306246Y384827D01*
X306119Y384503D01*
X305910Y384294D01*
X305697Y383782D01*
Y383227D01*
X305910Y382715D01*
X306302Y382323D01*
X306814Y382111D01*
X307368D01*
X307638Y382223D01*
X349095Y359769D01*
Y359723D01*
X349307Y359210D01*
X349699Y358819D01*
X350211Y358606D01*
X350765D01*
X351278Y358819D01*
X351670Y359210D01*
X351882Y359723D01*
Y360277D01*
X351670Y360789D01*
X351278Y361181D01*
X350765Y361394D01*
X350211D01*
X349941Y361282D01*
X308741Y383596D01*
X308704Y383818D01*
X309155Y384152D01*
X349095Y364227D01*
Y364223D01*
X349307Y363710D01*
X349699Y363318D01*
X350211Y363106D01*
X350765D01*
X351278Y363318D01*
X351670Y363710D01*
X351882Y364223D01*
Y364777D01*
X351670Y365289D01*
X351278Y365682D01*
X350765Y365894D01*
X350211D01*
X349897Y365764D01*
X308701Y386316D01*
X308650Y386556D01*
X309088Y386900D01*
X349114Y367703D01*
X349319Y367211D01*
X349710Y366818D01*
X350223Y366606D01*
X350777D01*
X351290Y366818D01*
X351681Y367211D01*
X351894Y367723D01*
Y368277D01*
X351681Y368790D01*
X351290Y369181D01*
X350777Y369394D01*
X350223D01*
X349888Y369255D01*
X308477Y389116D01*
X308273Y389609D01*
X307881Y390001D01*
X307794Y390037D01*
X307751Y390596D01*
X307920Y390699D01*
X307921Y390699D01*
X349124Y371681D01*
X349319Y371211D01*
X349710Y370818D01*
X350223Y370606D01*
X350777D01*
X351290Y370818D01*
X351681Y371211D01*
X351894Y371723D01*
Y372277D01*
X351681Y372790D01*
X351290Y373182D01*
X350777Y373394D01*
X350223D01*
X349867Y373247D01*
X308468Y392356D01*
X308273Y392826D01*
X307881Y393218D01*
X307369Y393430D01*
D02*
G37*
G36*
X232858Y372971D02*
X232304D01*
X231791Y372758D01*
X231399Y372366D01*
X231187Y371854D01*
Y371300D01*
X231399Y370787D01*
X231791Y370395D01*
X232304Y370183D01*
X232858D01*
X233370Y370395D01*
X233762Y370787D01*
X233974Y371300D01*
Y371854D01*
X233762Y372366D01*
X233370Y372758D01*
X232858Y372971D01*
D02*
G37*
G36*
X278577Y372894D02*
X278023D01*
X277510Y372681D01*
X277118Y372289D01*
X276906Y371777D01*
Y371223D01*
X277118Y370710D01*
X277510Y370319D01*
X278023Y370106D01*
X278577D01*
X279089Y370319D01*
X279482Y370710D01*
X279694Y371223D01*
Y371777D01*
X279482Y372289D01*
X279089Y372681D01*
X278577Y372894D01*
D02*
G37*
G36*
X494477Y372594D02*
X493923D01*
X493410Y372381D01*
X493018Y371989D01*
X492806Y371477D01*
Y370923D01*
X493018Y370410D01*
X493410Y370019D01*
X493923Y369806D01*
X494477D01*
X494989Y370019D01*
X495381Y370410D01*
X495594Y370923D01*
Y371477D01*
X495381Y371989D01*
X494989Y372381D01*
X494477Y372594D01*
D02*
G37*
G36*
X282604Y372225D02*
X282050D01*
X281538Y372013D01*
X281146Y371621D01*
X280933Y371109D01*
Y370554D01*
X281146Y370042D01*
X281538Y369650D01*
X282050Y369438D01*
X282604D01*
X283117Y369650D01*
X283509Y370042D01*
X283721Y370554D01*
Y371109D01*
X283509Y371621D01*
X283117Y372013D01*
X282604Y372225D01*
D02*
G37*
G36*
X498149Y372001D02*
X497595D01*
X497083Y371789D01*
X496691Y371397D01*
X496479Y370884D01*
Y370330D01*
X496691Y369818D01*
X497083Y369426D01*
X497595Y369213D01*
X498149D01*
X498662Y369426D01*
X499054Y369818D01*
X499266Y370330D01*
Y370884D01*
X499054Y371397D01*
X498662Y371789D01*
X498149Y372001D01*
D02*
G37*
G36*
X496114Y368831D02*
X495559D01*
X495047Y368618D01*
X494655Y368227D01*
X494443Y367714D01*
Y367562D01*
X494410Y367521D01*
X493943Y367269D01*
X493629Y367399D01*
X493075D01*
X492563Y367187D01*
X492170Y366795D01*
X491958Y366283D01*
Y365728D01*
X492170Y365216D01*
X492563Y364824D01*
X493075Y364612D01*
X493629D01*
X494141Y364824D01*
X494534Y365216D01*
X494746Y365728D01*
Y365880D01*
X494779Y365921D01*
X495246Y366173D01*
X495559Y366043D01*
X496114D01*
X496626Y366255D01*
X497018Y366648D01*
X497230Y367160D01*
Y367714D01*
X497018Y368227D01*
X496626Y368618D01*
X496114Y368831D01*
D02*
G37*
G36*
X286569Y370055D02*
X286014D01*
X285502Y369843D01*
X285110Y369451D01*
X284898Y368939D01*
Y368384D01*
X285110Y367872D01*
X285502Y367480D01*
X286014Y367268D01*
X286569D01*
X287081Y367480D01*
X287473Y367872D01*
X287685Y368384D01*
Y368939D01*
X287473Y369451D01*
X287081Y369843D01*
X286569Y370055D01*
D02*
G37*
G36*
X502114Y369831D02*
X501559D01*
X501047Y369619D01*
X500655Y369227D01*
X500443Y368714D01*
Y368160D01*
X500655Y367648D01*
X501047Y367255D01*
X501559Y367043D01*
X502114D01*
X502626Y367255D01*
X503018Y367648D01*
X503230Y368160D01*
Y368714D01*
X503018Y369227D01*
X502626Y369619D01*
X502114Y369831D01*
D02*
G37*
G36*
X503614Y366831D02*
X503059D01*
X502547Y366618D01*
X502155Y366227D01*
X501943Y365714D01*
Y365160D01*
X502155Y364648D01*
X502547Y364255D01*
X503059Y364043D01*
X503614D01*
X504126Y364255D01*
X504518Y364648D01*
X504730Y365160D01*
Y365714D01*
X504518Y366227D01*
X504126Y366618D01*
X503614Y366831D01*
D02*
G37*
G36*
X511129Y366815D02*
X510575D01*
X510063Y366603D01*
X509671Y366211D01*
X509458Y365699D01*
Y365144D01*
X509671Y364632D01*
X510063Y364240D01*
X510575Y364028D01*
X511129D01*
X511642Y364240D01*
X512034Y364632D01*
X512246Y365144D01*
Y365699D01*
X512034Y366211D01*
X511642Y366603D01*
X511129Y366815D01*
D02*
G37*
G36*
X424777Y358294D02*
X424223D01*
X423710Y358082D01*
X423318Y357689D01*
X423106Y357177D01*
Y356623D01*
X423318Y356111D01*
X423710Y355718D01*
X424223Y355506D01*
X424777D01*
X425289Y355718D01*
X425681Y356111D01*
X425894Y356623D01*
Y357177D01*
X425681Y357689D01*
X425289Y358082D01*
X424777Y358294D01*
D02*
G37*
G36*
X407977Y368494D02*
X407423D01*
X406911Y368282D01*
X406519Y367889D01*
X406306Y367377D01*
Y366823D01*
X406519Y366311D01*
X406911Y365918D01*
X407423Y365706D01*
X407868D01*
X412933Y360641D01*
Y357904D01*
X412718Y357689D01*
X412506Y357177D01*
Y356623D01*
X412718Y356111D01*
X413110Y355718D01*
X413623Y355506D01*
X414177D01*
X414689Y355718D01*
X415082Y356111D01*
X415294Y356623D01*
Y357177D01*
X415082Y357689D01*
X414689Y358082D01*
X414667Y358091D01*
Y361000D01*
X414601Y361332D01*
X414413Y361613D01*
X409094Y366932D01*
Y367377D01*
X408882Y367889D01*
X408490Y368282D01*
X407977Y368494D01*
D02*
G37*
G36*
X217347Y358902D02*
X215846D01*
Y353902D01*
X217347D01*
Y358902D01*
D02*
G37*
G36*
X517281Y358683D02*
X515781D01*
Y353683D01*
X517281D01*
Y358683D01*
D02*
G37*
G36*
X432892D02*
X431392D01*
Y353683D01*
X432892D01*
Y358683D01*
D02*
G37*
G36*
X331288Y357472D02*
X330733D01*
X330221Y357260D01*
X329829Y356868D01*
X329617Y356356D01*
Y355802D01*
X329829Y355289D01*
X330221Y354897D01*
X330733Y354685D01*
X331288D01*
X331800Y354897D01*
X331922Y355019D01*
X349247Y351660D01*
X349308Y351512D01*
X349700Y351120D01*
X350213Y350908D01*
X350767D01*
X351279Y351120D01*
X351671Y351512D01*
X351883Y352025D01*
Y352579D01*
X351671Y353091D01*
X351279Y353483D01*
X350767Y353696D01*
X350213D01*
X349700Y353483D01*
X349578Y353361D01*
X332253Y356720D01*
X332192Y356868D01*
X331800Y357260D01*
X331288Y357472D01*
D02*
G37*
G36*
X330777Y353394D02*
X330223D01*
X329711Y353182D01*
X329318Y352789D01*
X329106Y352277D01*
Y351723D01*
X329318Y351210D01*
X329711Y350818D01*
X330223Y350606D01*
X330777D01*
X331290Y350818D01*
X331426Y350955D01*
X349277Y347779D01*
X349331Y347650D01*
X349723Y347258D01*
X350235Y347045D01*
X350789D01*
X351302Y347258D01*
X351694Y347650D01*
X351906Y348162D01*
Y348716D01*
X351694Y349229D01*
X351302Y349621D01*
X350789Y349833D01*
X350235D01*
X349723Y349621D01*
X349586Y349484D01*
X331735Y352660D01*
X331681Y352789D01*
X331290Y353182D01*
X330777Y353394D01*
D02*
G37*
G36*
X350765Y345694D02*
X350211D01*
X349699Y345481D01*
X349307Y345090D01*
X349095Y344577D01*
Y344023D01*
X349307Y343511D01*
X349699Y343119D01*
X350211Y342906D01*
X350765D01*
X351278Y343119D01*
X351670Y343511D01*
X351882Y344023D01*
Y344577D01*
X351670Y345090D01*
X351278Y345481D01*
X350765Y345694D01*
D02*
G37*
G36*
X350765Y341794D02*
X350211D01*
X349699Y341582D01*
X349307Y341190D01*
X349095Y340677D01*
Y340123D01*
X349307Y339611D01*
X349699Y339218D01*
X350211Y339006D01*
X350765D01*
X351278Y339218D01*
X351670Y339611D01*
X351882Y340123D01*
Y340677D01*
X351670Y341190D01*
X351278Y341582D01*
X350765Y341794D01*
D02*
G37*
G36*
X414277Y339394D02*
X413723D01*
X413210Y339181D01*
X412818Y338790D01*
X412606Y338277D01*
Y337723D01*
X412818Y337210D01*
X413210Y336819D01*
X413723Y336606D01*
X414277D01*
X414789Y336819D01*
X415181Y337210D01*
X415394Y337723D01*
Y338277D01*
X415181Y338790D01*
X414789Y339181D01*
X414277Y339394D01*
D02*
G37*
G36*
X350765Y337794D02*
X350211D01*
X349699Y337581D01*
X349307Y337190D01*
X349095Y336677D01*
Y336123D01*
X349307Y335611D01*
X349699Y335219D01*
X350211Y335006D01*
X350765D01*
X351278Y335219D01*
X351670Y335611D01*
X351882Y336123D01*
Y336677D01*
X351670Y337190D01*
X351278Y337581D01*
X350765Y337794D01*
D02*
G37*
G36*
Y333894D02*
X350211D01*
X349699Y333682D01*
X349307Y333290D01*
X349095Y332777D01*
Y332223D01*
X349307Y331711D01*
X349699Y331318D01*
X350211Y331106D01*
X350765D01*
X351278Y331318D01*
X351670Y331711D01*
X351882Y332223D01*
Y332777D01*
X351670Y333290D01*
X351278Y333682D01*
X350765Y333894D01*
D02*
G37*
G36*
X330777Y333394D02*
X330223D01*
X329711Y333182D01*
X329318Y332789D01*
X329106Y332277D01*
Y331723D01*
X329318Y331210D01*
X329711Y330819D01*
X330223Y330606D01*
X330777D01*
X331290Y330819D01*
X331681Y331210D01*
X331894Y331723D01*
Y332277D01*
X331681Y332789D01*
X331290Y333182D01*
X330777Y333394D01*
D02*
G37*
G36*
X201240Y342394D02*
X200685D01*
X200173Y342181D01*
X199781Y341790D01*
X199569Y341277D01*
Y340723D01*
X199781Y340211D01*
X200173Y339819D01*
X200685Y339606D01*
X200888D01*
X200921Y339606D01*
X201021Y339106D01*
X200974Y339087D01*
X200639Y338948D01*
X200247Y338556D01*
X200034Y338044D01*
Y337489D01*
X200247Y336977D01*
X200639Y336585D01*
X201151Y336373D01*
X201469D01*
X201585Y336124D01*
X201623Y335873D01*
X201284Y335534D01*
X201072Y335022D01*
Y334468D01*
X201284Y333955D01*
X201676Y333563D01*
X202189Y333351D01*
X202390D01*
X202507Y332933D01*
X202511Y332851D01*
X202134Y332474D01*
X201922Y331962D01*
Y331408D01*
X202134Y330895D01*
X202526Y330503D01*
X203038Y330291D01*
X203592D01*
X203758Y330360D01*
X204140Y329977D01*
X204038Y329730D01*
Y329176D01*
X204250Y328663D01*
X204642Y328272D01*
X205155Y328059D01*
X205709D01*
X206221Y328272D01*
X206613Y328663D01*
X206826Y329176D01*
Y329730D01*
X206613Y330242D01*
X206221Y330634D01*
X205709Y330847D01*
X205155D01*
X204990Y330778D01*
X204607Y331161D01*
X204709Y331408D01*
Y331962D01*
X204497Y332474D01*
X204105Y332866D01*
X203592Y333079D01*
X203391D01*
X203274Y333497D01*
X203271Y333578D01*
X203647Y333955D01*
X203859Y334468D01*
Y335022D01*
X203647Y335534D01*
X203255Y335926D01*
X202743Y336139D01*
X202424D01*
X202309Y336387D01*
X202271Y336638D01*
X202609Y336977D01*
X202822Y337489D01*
Y338044D01*
X202609Y338556D01*
X202218Y338948D01*
X201705Y339160D01*
X201503D01*
X201469Y339160D01*
X201370Y339660D01*
X201417Y339680D01*
X201752Y339819D01*
X202144Y340211D01*
X202356Y340723D01*
Y341277D01*
X202144Y341790D01*
X201752Y342181D01*
X201240Y342394D01*
D02*
G37*
G36*
X350765Y329994D02*
X350211D01*
X349699Y329782D01*
X349307Y329390D01*
X349095Y328877D01*
Y328323D01*
X349307Y327811D01*
X349699Y327418D01*
X350211Y327206D01*
X350765D01*
X351278Y327418D01*
X351670Y327811D01*
X351882Y328323D01*
Y328877D01*
X351670Y329390D01*
X351278Y329782D01*
X350765Y329994D01*
D02*
G37*
G36*
X205777Y327394D02*
X205223D01*
X204711Y327182D01*
X204318Y326789D01*
X204106Y326277D01*
Y325723D01*
X204318Y325210D01*
X204711Y324818D01*
X205223Y324606D01*
X205777D01*
X206290Y324818D01*
X206681Y325210D01*
X206894Y325723D01*
Y326277D01*
X206681Y326789D01*
X206290Y327182D01*
X205777Y327394D01*
D02*
G37*
G36*
X350765Y325994D02*
X350211D01*
X349699Y325781D01*
X349307Y325390D01*
X349095Y324877D01*
Y324323D01*
X349307Y323811D01*
X349699Y323418D01*
X350211Y323206D01*
X350765D01*
X351278Y323418D01*
X351670Y323811D01*
X351882Y324323D01*
Y324877D01*
X351670Y325390D01*
X351278Y325781D01*
X350765Y325994D01*
D02*
G37*
G36*
X209886Y324823D02*
X209331D01*
X208819Y324610D01*
X208427Y324218D01*
X208215Y323706D01*
Y323152D01*
X208427Y322639D01*
X208819Y322247D01*
X209331Y322035D01*
X209886D01*
X210398Y322247D01*
X210790Y322639D01*
X211002Y323152D01*
Y323706D01*
X210790Y324218D01*
X210398Y324610D01*
X209886Y324823D01*
D02*
G37*
G36*
X314777Y323894D02*
X314223D01*
X313710Y323681D01*
X313318Y323289D01*
X313106Y322777D01*
Y322223D01*
X313318Y321710D01*
X313710Y321319D01*
X314223Y321106D01*
X314777D01*
X315289Y321319D01*
X315682Y321710D01*
X315894Y322223D01*
Y322777D01*
X315682Y323289D01*
X315289Y323681D01*
X314777Y323894D01*
D02*
G37*
G36*
X309765Y323640D02*
X309210D01*
X308698Y323428D01*
X308306Y323036D01*
X308094Y322524D01*
Y321969D01*
X308306Y321457D01*
X308698Y321065D01*
X309210Y320853D01*
X309765D01*
X310277Y321065D01*
X310669Y321457D01*
X310881Y321969D01*
Y322524D01*
X310669Y323036D01*
X310277Y323428D01*
X309765Y323640D01*
D02*
G37*
G36*
X350765Y322094D02*
X350211D01*
X349699Y321882D01*
X349307Y321490D01*
X349095Y320977D01*
Y320423D01*
X349307Y319911D01*
X349699Y319518D01*
X350211Y319306D01*
X350765D01*
X351278Y319518D01*
X351670Y319911D01*
X351882Y320423D01*
Y320977D01*
X351670Y321490D01*
X351278Y321882D01*
X350765Y322094D01*
D02*
G37*
G36*
X209777Y321394D02*
X209223D01*
X208711Y321182D01*
X208318Y320790D01*
X208106Y320277D01*
Y319723D01*
X208318Y319211D01*
X208711Y318818D01*
X209223Y318606D01*
X209777D01*
X210290Y318818D01*
X210682Y319211D01*
X210894Y319723D01*
Y320277D01*
X210682Y320790D01*
X210290Y321182D01*
X209777Y321394D01*
D02*
G37*
G36*
X523077Y321594D02*
X522523D01*
X522011Y321381D01*
X521619Y320989D01*
X521406Y320477D01*
Y319923D01*
X521619Y319410D01*
X522011Y319019D01*
X522523Y318806D01*
X523028D01*
X523132Y318679D01*
X523277Y318348D01*
X523218Y318289D01*
X523006Y317777D01*
Y317223D01*
X523218Y316710D01*
X523610Y316318D01*
X524123Y316106D01*
X524677D01*
X525189Y316318D01*
X525582Y316710D01*
X525794Y317223D01*
Y317777D01*
X525582Y318289D01*
X525189Y318682D01*
X524677Y318894D01*
X524172D01*
X524068Y319021D01*
X523923Y319352D01*
X523982Y319410D01*
X524194Y319923D01*
Y320477D01*
X523982Y320989D01*
X523590Y321381D01*
X523077Y321594D01*
D02*
G37*
G36*
X350765Y318094D02*
X350211D01*
X349699Y317881D01*
X349307Y317490D01*
X349095Y316977D01*
Y316423D01*
X349307Y315911D01*
X349699Y315518D01*
X350211Y315306D01*
X350765D01*
X351278Y315518D01*
X351670Y315911D01*
X351882Y316423D01*
Y316977D01*
X351670Y317490D01*
X351278Y317881D01*
X350765Y318094D01*
D02*
G37*
G36*
X418677Y324494D02*
X418123D01*
X417611Y324282D01*
X417218Y323889D01*
X417006Y323377D01*
Y322823D01*
X417218Y322310D01*
X417611Y321919D01*
X418123Y321706D01*
X418252D01*
X423806Y316152D01*
Y315823D01*
X424018Y315311D01*
X424410Y314918D01*
X424923Y314706D01*
X425477D01*
X425989Y314918D01*
X426381Y315311D01*
X426594Y315823D01*
Y316377D01*
X426381Y316890D01*
X425989Y317282D01*
X425477Y317494D01*
X425348D01*
X419794Y323048D01*
Y323377D01*
X419582Y323889D01*
X419190Y324282D01*
X418677Y324494D01*
D02*
G37*
G36*
X296888Y314941D02*
X296334D01*
X295822Y314729D01*
X295430Y314337D01*
X295217Y313824D01*
Y313270D01*
X295355Y312939D01*
X295095Y312439D01*
X291828D01*
X291568Y312939D01*
X291706Y313270D01*
Y313824D01*
X291494Y314337D01*
X291102Y314729D01*
X290589Y314941D01*
X290035D01*
X289523Y314729D01*
X289130Y314337D01*
X289008Y314040D01*
X288467D01*
X288344Y314337D01*
X287952Y314729D01*
X287440Y314941D01*
X286885D01*
X286373Y314729D01*
X285981Y314337D01*
X285858Y314040D01*
X285317D01*
X285194Y314337D01*
X284802Y314729D01*
X284290Y314941D01*
X283736D01*
X283223Y314729D01*
X282831Y314337D01*
X282709Y314040D01*
X282167D01*
X282045Y314337D01*
X281652Y314729D01*
X281140Y314941D01*
X280586D01*
X280073Y314729D01*
X279681Y314337D01*
X279559Y314041D01*
X279018D01*
X278895Y314337D01*
X278503Y314729D01*
X277991Y314941D01*
X277436D01*
X276924Y314729D01*
X276532Y314337D01*
X276320Y313824D01*
Y313270D01*
X276457Y312939D01*
X276198Y312439D01*
X272930D01*
X272671Y312939D01*
X272808Y313270D01*
Y313824D01*
X272596Y314337D01*
X272204Y314729D01*
X271691Y314941D01*
X271137D01*
X270625Y314729D01*
X270233Y314337D01*
X270110Y314040D01*
X269569D01*
X269446Y314337D01*
X269054Y314729D01*
X268542Y314941D01*
X267987D01*
X267475Y314729D01*
X267083Y314337D01*
X266960Y314040D01*
X266419D01*
X266297Y314337D01*
X265904Y314729D01*
X265392Y314941D01*
X264838D01*
X264326Y314729D01*
X263933Y314337D01*
X263811Y314040D01*
X263270D01*
X263147Y314337D01*
X262755Y314729D01*
X262243Y314941D01*
X261688D01*
X261176Y314729D01*
X260784Y314337D01*
X260572Y313824D01*
Y313270D01*
X260709Y312939D01*
X260450Y312439D01*
X254032D01*
X253773Y312939D01*
X253910Y313270D01*
Y313824D01*
X253698Y314337D01*
X253306Y314729D01*
X252794Y314941D01*
X252239D01*
X251727Y314729D01*
X251335Y314337D01*
X251212Y314040D01*
X250671D01*
X250549Y314337D01*
X250156Y314729D01*
X249644Y314941D01*
X249090D01*
X248578Y314729D01*
X248185Y314337D01*
X248063Y314040D01*
X247522D01*
X247399Y314337D01*
X247007Y314729D01*
X246495Y314941D01*
X245940D01*
X245428Y314729D01*
X245036Y314337D01*
X244824Y313824D01*
Y313270D01*
X244961Y312939D01*
X244702Y312439D01*
X241434D01*
X241175Y312939D01*
X241312Y313270D01*
Y313824D01*
X241100Y314337D01*
X240708Y314729D01*
X240195Y314941D01*
X239641D01*
X239129Y314729D01*
X238737Y314337D01*
X238614Y314040D01*
X238073D01*
X237950Y314337D01*
X237558Y314729D01*
X237046Y314941D01*
X236491D01*
X235979Y314729D01*
X235587Y314337D01*
X235464Y314040D01*
X234923D01*
X234801Y314337D01*
X234408Y314729D01*
X233896Y314941D01*
X233342D01*
X232830Y314729D01*
X232437Y314337D01*
X232315Y314040D01*
X231774D01*
X231651Y314337D01*
X231259Y314729D01*
X230747Y314941D01*
X230192D01*
X229680Y314729D01*
X229288Y314337D01*
X229165Y314040D01*
X228624D01*
X228501Y314337D01*
X228109Y314729D01*
X227597Y314941D01*
X227043D01*
X226530Y314729D01*
X226138Y314337D01*
X226016Y314040D01*
X225474D01*
X225352Y314337D01*
X224960Y314729D01*
X224447Y314941D01*
X223893D01*
X223381Y314729D01*
X222989Y314337D01*
X222866Y314040D01*
X222325D01*
X222202Y314337D01*
X221810Y314729D01*
X221298Y314941D01*
X220743D01*
X220231Y314729D01*
X219839Y314337D01*
X219627Y313824D01*
Y313270D01*
X219764Y312939D01*
X219505Y312439D01*
X216247D01*
Y302239D01*
X216306D01*
X216572Y301739D01*
X216440Y301418D01*
Y300864D01*
X216652Y300352D01*
X217044Y299960D01*
X217556Y299748D01*
X218111D01*
X218623Y299960D01*
X219015Y300352D01*
X219130Y300628D01*
X219671D01*
X219790Y300340D01*
X220182Y299948D01*
X220694Y299736D01*
X221249D01*
X221761Y299948D01*
X222153Y300340D01*
X222276Y300637D01*
X222817D01*
X222940Y300340D01*
X223332Y299948D01*
X223844Y299736D01*
X224398D01*
X224911Y299948D01*
X225303Y300340D01*
X225425Y300637D01*
X225967D01*
X226089Y300340D01*
X226481Y299948D01*
X226994Y299736D01*
X227548D01*
X228060Y299948D01*
X228452Y300340D01*
X228621Y300747D01*
X229007Y300812D01*
X229141Y300797D01*
X229226Y300591D01*
X229619Y300199D01*
X230131Y299987D01*
X230685D01*
X231198Y300199D01*
X231590Y300591D01*
X231687Y300827D01*
X231939Y300840D01*
X232208Y300777D01*
X232388Y300340D01*
X232781Y299948D01*
X233293Y299736D01*
X233847D01*
X234360Y299948D01*
X234752Y300340D01*
X234874Y300637D01*
X235415D01*
X235538Y300340D01*
X235930Y299948D01*
X236442Y299736D01*
X236997D01*
X237509Y299948D01*
X237901Y300340D01*
X238024Y300637D01*
X238565D01*
X238688Y300340D01*
X239080Y299948D01*
X239592Y299736D01*
X240146D01*
X240659Y299948D01*
X241051Y300340D01*
X241173Y300637D01*
X241715D01*
X241837Y300340D01*
X242229Y299948D01*
X242742Y299736D01*
X243296D01*
X243808Y299948D01*
X244200Y300340D01*
X244352Y300705D01*
X244875Y300749D01*
X244987Y300478D01*
X245379Y300085D01*
X245891Y299873D01*
X246446D01*
X246958Y300085D01*
X247350Y300478D01*
X247470Y300768D01*
X247496Y300772D01*
X247991Y300718D01*
X248147Y300340D01*
X248539Y299948D01*
X249051Y299736D01*
X249606D01*
X250118Y299948D01*
X250510Y300340D01*
X250628Y300623D01*
X251169D01*
X251286Y300340D01*
X251678Y299948D01*
X252190Y299736D01*
X252745D01*
X253257Y299948D01*
X253649Y300340D01*
X253772Y300637D01*
X254313D01*
X254436Y300340D01*
X254828Y299948D01*
X255340Y299736D01*
X255894D01*
X256407Y299948D01*
X256799Y300340D01*
X257011Y300853D01*
Y301407D01*
X256874Y301739D01*
X257105Y302185D01*
X257167Y302239D01*
X257925D01*
Y301264D01*
X257873Y301139D01*
Y300585D01*
X258085Y300073D01*
X258477Y299680D01*
X258990Y299468D01*
X259544D01*
X260056Y299680D01*
X260399Y300023D01*
X260451Y300073D01*
X260993Y300082D01*
X261127Y299948D01*
X261639Y299736D01*
X262194D01*
X262706Y299948D01*
X263098Y300340D01*
X263310Y300853D01*
Y301407D01*
X263304Y301423D01*
X263581Y301839D01*
X264591D01*
Y307339D01*
X265591D01*
Y301839D01*
X266551D01*
X266828Y301423D01*
X266822Y301407D01*
Y300853D01*
X267034Y300340D01*
X267426Y299948D01*
X267938Y299736D01*
X268493D01*
X269005Y299948D01*
X269397Y300340D01*
X269520Y300637D01*
X270061D01*
X270184Y300340D01*
X270576Y299948D01*
X271088Y299736D01*
X271642D01*
X272155Y299948D01*
X272547Y300340D01*
X272669Y300637D01*
X273211D01*
X273333Y300340D01*
X273725Y299948D01*
X274238Y299736D01*
X274792D01*
X275304Y299948D01*
X275696Y300340D01*
X275819Y300637D01*
X276360D01*
X276483Y300340D01*
X276875Y299948D01*
X277387Y299736D01*
X277942D01*
X278454Y299948D01*
X278846Y300340D01*
X278969Y300637D01*
X279510D01*
X279632Y300340D01*
X280025Y299948D01*
X280537Y299736D01*
X281091D01*
X281604Y299948D01*
X281996Y300340D01*
X282208Y300853D01*
Y301407D01*
X282201Y301423D01*
X282479Y301839D01*
X283488D01*
Y307339D01*
X284488D01*
Y301839D01*
X285449D01*
X285726Y301423D01*
X285720Y301407D01*
Y300853D01*
X285932Y300340D01*
X286324Y299948D01*
X286836Y299736D01*
X287391D01*
X287903Y299948D01*
X288295Y300340D01*
X288418Y300637D01*
X288959D01*
X289082Y300340D01*
X289474Y299948D01*
X289986Y299736D01*
X290540D01*
X291053Y299948D01*
X291444Y300340D01*
X291567Y300637D01*
X292108D01*
X292231Y300340D01*
X292623Y299948D01*
X293135Y299736D01*
X293690D01*
X294202Y299948D01*
X294594Y300340D01*
X294717Y300637D01*
X295258D01*
X295381Y300340D01*
X295773Y299948D01*
X296285Y299736D01*
X296839D01*
X297352Y299948D01*
X297744Y300340D01*
X297866Y300637D01*
X298408D01*
X298530Y300340D01*
X298922Y299948D01*
X299435Y299736D01*
X299989D01*
X300501Y299948D01*
X300893Y300340D01*
X301105Y300853D01*
Y301407D01*
X300968Y301739D01*
X301200Y302185D01*
X301261Y302239D01*
X301336D01*
Y312439D01*
X298127D01*
X297868Y312939D01*
X298005Y313270D01*
Y313824D01*
X297793Y314337D01*
X297401Y314729D01*
X296888Y314941D01*
D02*
G37*
G36*
X512434Y314717D02*
X511879D01*
X511367Y314504D01*
X510975Y314112D01*
X510763Y313600D01*
Y313046D01*
X510898Y312720D01*
X510635Y312220D01*
X507379D01*
X507116Y312720D01*
X507251Y313046D01*
Y313600D01*
X507039Y314112D01*
X506647Y314504D01*
X506135Y314717D01*
X505580D01*
X505068Y314504D01*
X504676Y314112D01*
X504553Y313816D01*
X504012D01*
X503889Y314112D01*
X503497Y314504D01*
X502985Y314717D01*
X502430D01*
X501918Y314504D01*
X501526Y314112D01*
X501404Y313816D01*
X500862D01*
X500740Y314112D01*
X500348Y314504D01*
X499835Y314717D01*
X499281D01*
X498769Y314504D01*
X498377Y314112D01*
X498254Y313816D01*
X497713D01*
X497590Y314112D01*
X497198Y314504D01*
X496686Y314717D01*
X496131D01*
X495619Y314504D01*
X495227Y314112D01*
X495104Y313816D01*
X494563D01*
X494440Y314112D01*
X494048Y314504D01*
X493536Y314717D01*
X492982D01*
X492469Y314504D01*
X492077Y314112D01*
X491865Y313600D01*
Y313046D01*
X492000Y312720D01*
X491737Y312220D01*
X488481D01*
X488218Y312720D01*
X488353Y313046D01*
Y313600D01*
X488141Y314112D01*
X487749Y314504D01*
X487237Y314717D01*
X486682D01*
X486170Y314504D01*
X485778Y314112D01*
X485655Y313816D01*
X485114D01*
X484991Y314112D01*
X484599Y314504D01*
X484087Y314717D01*
X483533D01*
X483020Y314504D01*
X482628Y314112D01*
X482506Y313816D01*
X481964D01*
X481842Y314112D01*
X481450Y314504D01*
X480937Y314717D01*
X480383D01*
X479871Y314504D01*
X479479Y314112D01*
X479356Y313816D01*
X478815D01*
X478692Y314112D01*
X478300Y314504D01*
X477788Y314717D01*
X477234D01*
X476721Y314504D01*
X476329Y314112D01*
X476117Y313600D01*
Y313046D01*
X476252Y312720D01*
X475989Y312220D01*
X469584D01*
X469321Y312720D01*
X469456Y313046D01*
Y313600D01*
X469243Y314112D01*
X468851Y314504D01*
X468339Y314717D01*
X467785D01*
X467272Y314504D01*
X466880Y314112D01*
X466758Y313816D01*
X466217D01*
X466094Y314112D01*
X465702Y314504D01*
X465190Y314717D01*
X464635D01*
X464123Y314504D01*
X463731Y314112D01*
X463608Y313816D01*
X463067D01*
X462944Y314112D01*
X462552Y314504D01*
X462040Y314717D01*
X461485D01*
X460973Y314504D01*
X460581Y314112D01*
X460369Y313600D01*
Y313046D01*
X460504Y312720D01*
X460241Y312220D01*
X456985D01*
X456722Y312720D01*
X456857Y313046D01*
Y313600D01*
X456645Y314112D01*
X456253Y314504D01*
X455741Y314717D01*
X455186D01*
X454674Y314504D01*
X454282Y314112D01*
X454159Y313816D01*
X453618D01*
X453495Y314112D01*
X453103Y314504D01*
X452591Y314717D01*
X452037D01*
X451524Y314504D01*
X451132Y314112D01*
X451010Y313816D01*
X450468D01*
X450346Y314112D01*
X449954Y314504D01*
X449441Y314717D01*
X448887D01*
X448375Y314504D01*
X447983Y314112D01*
X447860Y313816D01*
X447319D01*
X447196Y314112D01*
X446804Y314504D01*
X446292Y314717D01*
X445738D01*
X445225Y314504D01*
X444833Y314112D01*
X444710Y313816D01*
X444169D01*
X444047Y314112D01*
X443655Y314504D01*
X443142Y314717D01*
X442588D01*
X442076Y314504D01*
X441684Y314112D01*
X441561Y313816D01*
X441020D01*
X440897Y314112D01*
X440505Y314504D01*
X439993Y314717D01*
X439438D01*
X438926Y314504D01*
X438534Y314112D01*
X438411Y313816D01*
X437870D01*
X437747Y314112D01*
X437355Y314504D01*
X436843Y314717D01*
X436289D01*
X435776Y314504D01*
X435384Y314112D01*
X435172Y313600D01*
Y313046D01*
X435307Y312720D01*
X435044Y312220D01*
X431792D01*
Y302020D01*
X431858D01*
X432120Y301520D01*
X431985Y301194D01*
Y300640D01*
X432197Y300127D01*
X432589Y299735D01*
X433102Y299523D01*
X433656D01*
X434168Y299735D01*
X434560Y300127D01*
X434675Y300404D01*
X435216D01*
X435335Y300116D01*
X435727Y299724D01*
X436240Y299512D01*
X436794D01*
X437306Y299724D01*
X437698Y300116D01*
X437821Y300412D01*
X438362D01*
X438485Y300116D01*
X438877Y299724D01*
X439389Y299512D01*
X439944D01*
X440456Y299724D01*
X440848Y300116D01*
X440971Y300412D01*
X441512D01*
X441635Y300116D01*
X442027Y299724D01*
X442539Y299512D01*
X443093D01*
X443606Y299724D01*
X443998Y300116D01*
X444166Y300522D01*
X444552Y300588D01*
X444687Y300572D01*
X444772Y300367D01*
X445164Y299975D01*
X445676Y299763D01*
X446231D01*
X446743Y299975D01*
X447135Y300367D01*
X447232Y300602D01*
X447484Y300616D01*
X447753Y300552D01*
X447934Y300116D01*
X448326Y299724D01*
X448838Y299512D01*
X449393D01*
X449905Y299724D01*
X450297Y300116D01*
X450423Y300420D01*
X450964D01*
X451083Y300132D01*
X451475Y299740D01*
X451988Y299528D01*
X452542D01*
X453054Y299740D01*
X453446Y300132D01*
X453569Y300428D01*
X454110D01*
X454233Y300132D01*
X454625Y299740D01*
X455137Y299528D01*
X455692D01*
X456204Y299740D01*
X456596Y300132D01*
X456715Y300420D01*
X457257D01*
X457383Y300116D01*
X457775Y299724D01*
X458287Y299512D01*
X458841D01*
X459354Y299724D01*
X459746Y300116D01*
X459897Y300481D01*
X460420Y300525D01*
X460532Y300253D01*
X460924Y299861D01*
X461437Y299649D01*
X461991D01*
X462503Y299861D01*
X462895Y300253D01*
X463015Y300543D01*
X463041Y300548D01*
X463536Y300494D01*
X463693Y300116D01*
X464084Y299724D01*
X464597Y299512D01*
X465151D01*
X465663Y299724D01*
X466055Y300116D01*
X466173Y300399D01*
X466714D01*
X466831Y300116D01*
X467223Y299724D01*
X467736Y299512D01*
X468290D01*
X468802Y299724D01*
X469194Y300116D01*
X469338Y300461D01*
X469869Y300486D01*
X469981Y300214D01*
X470373Y299822D01*
X470885Y299610D01*
X471440D01*
X471952Y299822D01*
X472344Y300214D01*
X472556Y300727D01*
Y301281D01*
X472457Y301520D01*
X472771Y302020D01*
X473470D01*
Y301040D01*
X473418Y300915D01*
Y300360D01*
X473631Y299848D01*
X474023Y299456D01*
X474535Y299244D01*
X475089D01*
X475602Y299456D01*
X475944Y299799D01*
X475997Y299848D01*
X476539Y299857D01*
X476672Y299724D01*
X477184Y299512D01*
X477739D01*
X478251Y299724D01*
X478643Y300116D01*
X478855Y300628D01*
Y301183D01*
X478846Y301204D01*
X479124Y301620D01*
X480136D01*
Y307120D01*
X481136D01*
Y301620D01*
X482098D01*
X482376Y301204D01*
X482367Y301183D01*
Y300628D01*
X482579Y300116D01*
X482971Y299724D01*
X483484Y299512D01*
X484038D01*
X484550Y299724D01*
X484942Y300116D01*
X485065Y300412D01*
X485606D01*
X485729Y300116D01*
X486121Y299724D01*
X486633Y299512D01*
X487188D01*
X487700Y299724D01*
X488092Y300116D01*
X488215Y300412D01*
X488756D01*
X488879Y300116D01*
X489271Y299724D01*
X489783Y299512D01*
X490337D01*
X490850Y299724D01*
X491242Y300116D01*
X491364Y300412D01*
X491905D01*
X492028Y300116D01*
X492420Y299724D01*
X492933Y299512D01*
X493487D01*
X493999Y299724D01*
X494391Y300116D01*
X494514Y300412D01*
X495055D01*
X495178Y300116D01*
X495570Y299724D01*
X496082Y299512D01*
X496636D01*
X497149Y299724D01*
X497541Y300116D01*
X497753Y300628D01*
Y301183D01*
X497744Y301204D01*
X498022Y301620D01*
X499033D01*
Y307120D01*
X500033D01*
Y301620D01*
X500996D01*
X501274Y301204D01*
X501265Y301183D01*
Y300628D01*
X501477Y300116D01*
X501869Y299724D01*
X502382Y299512D01*
X502936D01*
X503448Y299724D01*
X503840Y300116D01*
X503963Y300412D01*
X504504D01*
X504627Y300116D01*
X505019Y299724D01*
X505531Y299512D01*
X506085D01*
X506598Y299724D01*
X506990Y300116D01*
X507113Y300412D01*
X507654D01*
X507776Y300116D01*
X508168Y299724D01*
X508681Y299512D01*
X509235D01*
X509747Y299724D01*
X510139Y300116D01*
X510262Y300412D01*
X510803D01*
X510926Y300116D01*
X511318Y299724D01*
X511830Y299512D01*
X512385D01*
X512897Y299724D01*
X513289Y300116D01*
X513412Y300412D01*
X513953D01*
X514076Y300116D01*
X514468Y299724D01*
X514980Y299512D01*
X515534D01*
X516047Y299724D01*
X516439Y300116D01*
X516651Y300628D01*
Y301183D01*
X516511Y301520D01*
X516736Y301959D01*
X516804Y302020D01*
X516882D01*
Y312220D01*
X513678D01*
X513415Y312720D01*
X513550Y313046D01*
Y313600D01*
X513338Y314112D01*
X512946Y314504D01*
X512434Y314717D01*
D02*
G37*
G36*
X350765Y314194D02*
X350211D01*
X349699Y313982D01*
X349307Y313590D01*
X349095Y313077D01*
Y312523D01*
X349307Y312011D01*
X349699Y311618D01*
X350211Y311406D01*
X350765D01*
X351278Y311618D01*
X351670Y312011D01*
X351882Y312523D01*
Y313077D01*
X351670Y313590D01*
X351278Y313982D01*
X350765Y314194D01*
D02*
G37*
G36*
X314781Y312742D02*
X314227D01*
X313715Y312530D01*
X313323Y312138D01*
X313111Y311626D01*
Y311072D01*
X313323Y310559D01*
X313715Y310167D01*
X314227Y309955D01*
X314781D01*
X315294Y310167D01*
X315686Y310559D01*
X315898Y311072D01*
Y311626D01*
X315686Y312138D01*
X315294Y312530D01*
X314781Y312742D01*
D02*
G37*
G36*
X309817Y312738D02*
X309262D01*
X308750Y312526D01*
X308358Y312134D01*
X308146Y311621D01*
Y311067D01*
X308358Y310555D01*
X308750Y310163D01*
X309262Y309951D01*
X309817D01*
X310329Y310163D01*
X310721Y310555D01*
X310933Y311067D01*
Y311621D01*
X310721Y312134D01*
X310329Y312526D01*
X309817Y312738D01*
D02*
G37*
G36*
X350765Y310294D02*
X350211D01*
X349699Y310082D01*
X349307Y309689D01*
X349095Y309177D01*
Y308623D01*
X349307Y308110D01*
X349699Y307718D01*
X350211Y307506D01*
X350765D01*
X351278Y307718D01*
X351670Y308110D01*
X351882Y308623D01*
Y309177D01*
X351670Y309689D01*
X351278Y310082D01*
X350765Y310294D01*
D02*
G37*
G36*
X204874Y310083D02*
X204791D01*
Y304661D01*
X210213D01*
Y304745D01*
X209985Y305889D01*
X209539Y306966D01*
X208891Y307936D01*
X208066Y308761D01*
X207096Y309409D01*
X206018Y309855D01*
X204874Y310083D01*
D02*
G37*
G36*
X528209D02*
X528125D01*
X526981Y309855D01*
X525904Y309409D01*
X524934Y308761D01*
X524109Y307936D01*
X523461Y306966D01*
X523015Y305889D01*
X522787Y304745D01*
Y304661D01*
X528209D01*
Y310083D01*
D02*
G37*
G36*
X336277Y304394D02*
X335723D01*
X335210Y304182D01*
X334819Y303789D01*
X334606Y303277D01*
Y302723D01*
X334819Y302210D01*
X335210Y301818D01*
X335723Y301606D01*
X336277D01*
X336789Y301818D01*
X337181Y302210D01*
X337394Y302723D01*
Y303277D01*
X337181Y303789D01*
X336789Y304182D01*
X336277Y304394D01*
D02*
G37*
G36*
X324777Y302355D02*
X324223D01*
X323710Y302143D01*
X323319Y301751D01*
X323106Y301239D01*
Y300684D01*
X323319Y300172D01*
X323710Y299780D01*
X324223Y299568D01*
X324777D01*
X325290Y299780D01*
X325681Y300172D01*
X325894Y300684D01*
Y301239D01*
X325681Y301751D01*
X325290Y302143D01*
X324777Y302355D01*
D02*
G37*
G36*
X528209Y303661D02*
X522787D01*
Y303578D01*
X523015Y302434D01*
X523461Y301357D01*
X524109Y300387D01*
X524934Y299562D01*
X525904Y298914D01*
X526981Y298468D01*
X528125Y298240D01*
X528209D01*
Y303661D01*
D02*
G37*
G36*
X210213D02*
X204791D01*
Y298240D01*
X204874D01*
X206018Y298468D01*
X207096Y298914D01*
X208066Y299562D01*
X208891Y300387D01*
X209539Y301357D01*
X209985Y302434D01*
X210213Y303578D01*
Y303661D01*
D02*
G37*
G36*
X384651Y305512D02*
X383466D01*
X382321Y305205D01*
X381295Y304613D01*
X380457Y303775D01*
X379865Y302749D01*
X379558Y301604D01*
Y300419D01*
X379865Y299275D01*
X380457Y298249D01*
X381295Y297411D01*
X382321Y296818D01*
X383466Y296512D01*
X384651D01*
X385795Y296818D01*
X386821Y297411D01*
X387659Y298249D01*
X388252Y299275D01*
X388558Y300419D01*
Y301604D01*
X388252Y302749D01*
X387659Y303775D01*
X386821Y304613D01*
X385795Y305205D01*
X384651Y305512D01*
D02*
G37*
G36*
X349584Y305461D02*
X348399D01*
X347254Y305155D01*
X346228Y304562D01*
X345390Y303725D01*
X344798Y302698D01*
X344491Y301554D01*
Y300369D01*
X344798Y299224D01*
X345390Y298198D01*
X346228Y297360D01*
X347254Y296768D01*
X348399Y296461D01*
X349584D01*
X350728Y296768D01*
X351754Y297360D01*
X352592Y298198D01*
X353185Y299224D01*
X353491Y300369D01*
Y301554D01*
X353185Y302698D01*
X352592Y303725D01*
X351754Y304562D01*
X350728Y305155D01*
X349584Y305461D01*
D02*
G37*
G36*
X418677Y313494D02*
X418123D01*
X417611Y313281D01*
X417218Y312890D01*
X417006Y312377D01*
Y311823D01*
X417218Y311311D01*
X417380Y311149D01*
Y300922D01*
X411978Y295520D01*
X400151D01*
X399990Y295682D01*
X399477Y295894D01*
X398923D01*
X398411Y295682D01*
X398019Y295289D01*
X397806Y294777D01*
Y294223D01*
X398019Y293710D01*
X398411Y293319D01*
X398923Y293106D01*
X399477D01*
X399990Y293319D01*
X400151Y293480D01*
X412400D01*
X412790Y293558D01*
X413121Y293779D01*
X419121Y299779D01*
X419342Y300110D01*
X419420Y300500D01*
Y311149D01*
X419582Y311311D01*
X419794Y311823D01*
Y312377D01*
X419582Y312890D01*
X419190Y313281D01*
X418677Y313494D01*
D02*
G37*
G36*
X281069Y295555D02*
X280514D01*
X280002Y295343D01*
X279610Y294951D01*
X279398Y294439D01*
Y293884D01*
X279610Y293372D01*
X280002Y292980D01*
X280514Y292768D01*
X281069D01*
X281581Y292980D01*
X281973Y293372D01*
X282185Y293884D01*
Y294439D01*
X281973Y294951D01*
X281581Y295343D01*
X281069Y295555D01*
D02*
G37*
G36*
X264069D02*
X263514D01*
X263002Y295343D01*
X262610Y294951D01*
X262398Y294439D01*
Y293884D01*
X262610Y293372D01*
X263002Y292980D01*
X263514Y292768D01*
X264069D01*
X264581Y292980D01*
X264973Y293372D01*
X265185Y293884D01*
Y294439D01*
X264973Y294951D01*
X264581Y295343D01*
X264069Y295555D01*
D02*
G37*
%LPD*%
D15*
X256904Y445500D02*
G03*
X256555Y445355I3J-500D01*
G01*
X260704Y443500D02*
G03*
X260355Y443355I3J-500D01*
G01*
X424396Y436570D02*
G03*
X424377Y436550I1104J-1070D01*
G01*
X413777Y432420D02*
G03*
X417704Y435555I-1877J6380D01*
G01*
X397555Y426472D02*
G03*
X397409Y426419I445J-1472D01*
G01*
X414114Y431477D02*
G03*
X418575Y435062I-2214J7323D01*
G01*
X389574Y426477D02*
G03*
X389409Y426419I426J-1477D01*
G01*
X420220Y442012D02*
G03*
X419920Y441547I3657J-2685D01*
G01*
X385579Y426479D02*
G03*
X385409Y426419I421J-1479D01*
G01*
X401538Y426466D02*
G03*
X401409Y426419I462J-1466D01*
G01*
X405034Y426465D02*
G03*
X404825Y426381I466J-1465D01*
G01*
X413172Y434327D02*
G03*
X415963Y436539I-1272J4473D01*
G01*
X423879Y448674D02*
G03*
X423773Y448541I1940J-1635D01*
G01*
X413466Y433371D02*
G03*
X416834Y436047I-1566J5429D01*
G01*
X414846Y429611D02*
G03*
X419911Y433420I-2946J9189D01*
G01*
X423528Y440824D02*
G03*
X422536Y440079I349J-1497D01*
G01*
X414499Y430550D02*
G03*
X419443Y434567I-2599J8250D01*
G01*
X393566Y426475D02*
G03*
X393409Y426419I434J-1475D01*
G01*
X419414Y442604D02*
G03*
X419048Y442036I4463J-3277D01*
G01*
X415662Y428836D02*
G03*
X419679Y431526I-3762J9964D01*
G01*
X425506Y448544D02*
G03*
X424579Y447949I313J-1505D01*
G01*
X428314Y440611D02*
G03*
X428357Y440657I-1104J1070D01*
G01*
X422469Y441437D02*
G03*
X421664Y440568I1408J-2111D01*
G01*
X421189Y441625D02*
G03*
X420792Y441057I2688J-2299D01*
G01*
X440585Y436693D02*
G03*
X439290Y436310I-256J-1516D01*
G01*
X442475Y415500D02*
G03*
X442309Y416195I-1537J0D01*
G01*
X510939Y424768D02*
G03*
X510601Y424866I-595J-1418D01*
G01*
X436799Y427405D02*
G03*
X436965Y426742I1537J32D01*
G01*
X437177Y434374D02*
G03*
X436679Y433208I1039J-1133D01*
G01*
X441160Y409979D02*
G03*
X442475Y411500I-222J1521D01*
G01*
X424031Y416067D02*
G03*
X424108Y416072I-68J1536D01*
G01*
X410358Y413969D02*
G03*
X410575Y413964I142J1531D01*
G01*
X410041Y409033D02*
G03*
X410628Y408968I459J1467D01*
G01*
X402298Y411454D02*
G03*
X402083Y411497I-298J-954D01*
G01*
X515882Y409539D02*
G03*
X515766Y410438I-3537J0D01*
G01*
X513832Y417804D02*
G03*
X513636Y418247I-1487J-390D01*
G01*
X514882Y409539D02*
G03*
X514215Y411254I-2537J0D01*
G01*
X464264Y372432D02*
G03*
X462997Y370671I251J-1517D01*
G01*
X510063Y416988D02*
G03*
X509316Y414334I282J-1511D01*
G01*
X496240Y379898D02*
G03*
X496910Y380187I-258J1516D01*
G01*
X513875Y391768D02*
G03*
X514882Y393791I-1531J2024D01*
G01*
X464094Y373417D02*
G03*
X462246Y372051I421J-2502D01*
G01*
X514479Y390970D02*
G03*
X515882Y393791I-2134J2821D01*
G01*
X464845Y359463D02*
G03*
X464863Y359388I494J78D01*
G01*
X463922Y374402D02*
G03*
X461594Y372910I593J-3487D01*
G01*
X513272Y392565D02*
G03*
X513882Y393791I-927J1226D01*
G01*
Y409539D02*
G03*
X513373Y410682I-1537J0D01*
G01*
X496408Y378912D02*
G03*
X497513Y379390I-425J2502D01*
G01*
X496575Y377926D02*
G03*
X498115Y378591I-593J3487D01*
G01*
X248630Y373654D02*
G03*
X246701Y372275I340J-2514D01*
G01*
X287210Y379977D02*
G03*
X288366Y380795I-210J1523D01*
G01*
X248487Y374644D02*
G03*
X246049Y373134I483J-3504D01*
G01*
X297042Y397618D02*
G03*
X297210Y398229I-1366J705D01*
G01*
X294517Y417212D02*
G03*
X293707Y414619I282J-1511D01*
G01*
X297930Y397159D02*
G03*
X298208Y398168I-2255J1163D01*
G01*
X298306Y417945D02*
G03*
X298091Y418471I-1506J-308D01*
G01*
X287483Y377996D02*
G03*
X290146Y379883I-483J3504D01*
G01*
X299900Y409530D02*
G03*
X299835Y410456I-3531J219D01*
G01*
X248768Y372663D02*
G03*
X247453Y370889I202J-1524D01*
G01*
X249340Y359464D02*
G03*
X249319Y359607I-500J-1D01*
G01*
X298902Y409595D02*
G03*
X298338Y411349I-2533J154D01*
G01*
X298817Y396697D02*
G03*
X299206Y398112I-3142J1625D01*
G01*
X297904Y409655D02*
G03*
X297461Y410831I-1535J93D01*
G01*
X287346Y378986D02*
G03*
X289255Y380337I-346J2514D01*
G01*
X313381Y365490D02*
G03*
X312877Y365532I-381J-1489D01*
G01*
X295072Y364109D02*
G03*
X295146Y364113I-48J1537D01*
G01*
X230537Y413744D02*
G03*
X230889Y413889I0J500D01*
G01*
X228674Y417681D02*
G03*
X229026Y417826I0J500D01*
G01*
X247511Y393865D02*
G03*
X246539Y393660I1682J-10402D01*
G01*
X230793Y395528D02*
G03*
X230920Y395439I636J772D01*
G01*
X226370Y399174D02*
G03*
X226296Y399232I-978J-1186D01*
G01*
X270133Y396401D02*
G03*
X270384Y396441I-33J999D01*
G01*
X253134Y394763D02*
G03*
X252656Y394697I1205J-10468D01*
G01*
X236498Y392139D02*
G03*
X237007Y392000I509J861D01*
G01*
X266527Y396280D02*
G03*
X265665Y396216I352J-10531D01*
G01*
X240033Y392000D02*
G03*
X240293Y392034I0J1000D01*
G01*
X273958Y395500D02*
G03*
X274421Y395627I-25J1000D01*
G01*
X266685Y392283D02*
G03*
X266122Y392242I194J-6534D01*
G01*
X242497Y384545D02*
G03*
X241575Y383439I582J-1423D01*
G01*
X253590Y390789D02*
G03*
X253288Y390747I748J-6494D01*
G01*
X279131Y385040D02*
G03*
X278775Y385151I-631J-1402D01*
G01*
X279422Y392663D02*
G03*
X279975Y392785I-49J1537D01*
G01*
X274022Y393501D02*
G03*
X274330Y393526I-89J2999D01*
G01*
X241740Y386396D02*
G03*
X241283Y386169I1340J-3274D01*
G01*
X274055Y392502D02*
G03*
X274047Y392502I28J-1000D01*
G01*
X267153Y387261D02*
G03*
X266701Y387276I-275J-1513D01*
G01*
X266655Y393283D02*
G03*
X266010Y393236I224J-7534D01*
G01*
X267335Y388245D02*
G03*
X266586Y388269I-456J-2496D01*
G01*
X266595Y395282D02*
G03*
X265776Y395222I283J-9533D01*
G01*
X267036Y390283D02*
G03*
X266356Y390256I-157J-4535D01*
G01*
X253934Y387809D02*
G03*
X253773Y387787I404J-3514D01*
G01*
X266714Y391283D02*
G03*
X266241Y391249I164J-5535D01*
G01*
X267314Y389259D02*
G03*
X266467Y389262I-435J-3511D01*
G01*
X253244Y393769D02*
G03*
X252816Y393710I1094J-9475D01*
G01*
X273989Y394501D02*
G03*
X274539Y394594I-56J1999D01*
G01*
X266625Y394282D02*
G03*
X265895Y394229I253J-8534D01*
G01*
X248948Y384980D02*
G03*
X248165Y384606I246J-1518D01*
G01*
X279452Y391664D02*
G03*
X279586Y391671I-80J2536D01*
G01*
X253479Y391783D02*
G03*
X253135Y391735I859J-7488D01*
G01*
X253816Y388802D02*
G03*
X253614Y388774I523J-4507D01*
G01*
X253355Y392775D02*
G03*
X252971Y392722I983J-8481D01*
G01*
X254161Y385822D02*
G03*
X254093Y385812I177J-1527D01*
G01*
X253702Y389795D02*
G03*
X253450Y389760I636J-5501D01*
G01*
X279128Y386096D02*
G03*
X278953Y386134I-628J-2458D01*
G01*
X254046Y386815D02*
G03*
X253927Y386799I292J-2520D01*
G01*
X240982Y388247D02*
G03*
X240264Y387890I2097J-5125D01*
G01*
X240608Y389174D02*
G03*
X239753Y388750I2471J-6052D01*
G01*
X236844Y387035D02*
G03*
X236840Y387033I2300J-3911D01*
G01*
X233918Y385309D02*
G03*
X233261Y384751I1289J-2186D01*
G01*
X234426Y384448D02*
G03*
X233703Y383441I781J-1324D01*
G01*
X241366Y387323D02*
G03*
X240776Y387031I1713J-4202D01*
G01*
X237856Y385310D02*
G03*
X237509Y385064I1288J-2186D01*
G01*
X248309Y388929D02*
G03*
X247096Y388587I884J-5466D01*
G01*
X238364Y384448D02*
G03*
X237640Y383441I781J-1324D01*
G01*
X248150Y389916D02*
G03*
X246713Y389511I1044J-6453D01*
G01*
X248473Y387943D02*
G03*
X247470Y387660I720J-4480D01*
G01*
X242118Y385470D02*
G03*
X241444Y385062I961J-2348D01*
G01*
X248629Y386955D02*
G03*
X247854Y386736I565J-3492D01*
G01*
X247671Y392878D02*
G03*
X246295Y392549I1523J-9415D01*
G01*
X247994Y390904D02*
G03*
X246334Y390437I1200J-7441D01*
G01*
X248794Y385968D02*
G03*
X248015Y385710I399J-2506D01*
G01*
X276095Y396569D02*
G03*
X276314Y396718I-752J1341D01*
G01*
X247838Y391892D02*
G03*
X245960Y391364I1355J-8429D01*
G01*
X237348Y386171D02*
G03*
X237347Y386171I1796J-3047D01*
G01*
X204402Y330598D02*
G03*
X204495Y330699I-1087J1087D01*
G01*
X203045Y333321D02*
G03*
X203118Y333353I-579J1424D01*
G01*
X204345Y330540D02*
G03*
X204326Y330521I1087J-1087D01*
G01*
X449140Y300930D02*
Y307114D01*
X442840Y300930D02*
Y307114D01*
X439691Y300930D02*
Y307114D01*
X436541Y300930D02*
Y307114D01*
X205375Y434754D02*
X207144D01*
X211621Y439231D01*
X452265Y300921D02*
Y307090D01*
X455414Y300921D02*
Y307090D01*
X452265D02*
X452289Y307114D01*
X455414Y307090D02*
X455439Y307114D01*
X499509Y353207D02*
Y359386D01*
Y353207D02*
X499534Y353183D01*
X447549Y361566D02*
Y429951D01*
X442323Y435177D02*
X447549Y429951D01*
X413800Y357000D02*
X413900Y356900D01*
X413800Y357000D02*
Y361000D01*
X407700Y367100D02*
X413800Y361000D01*
X498933Y465639D02*
X507871D01*
X456839Y465000D02*
X498294D01*
X498933Y465639D01*
X458102Y467463D02*
X496021D01*
X497699Y469140D01*
X455714Y468436D02*
X457688Y466463D01*
X497117D01*
X498257Y467603D01*
X509702D01*
X456129Y469436D02*
X458102Y467463D01*
X510339Y469140D02*
X512000Y467479D01*
X497699Y469140D02*
X510339D01*
X238477Y454437D02*
X252540Y468500D01*
X277000Y465500D02*
X278500Y464000D01*
X257500Y465500D02*
X277000D01*
X252540Y468500D02*
X276784D01*
X245175Y459675D02*
X253000Y467500D01*
X253500Y466500D02*
X277683D01*
X251500Y459500D02*
X257500Y465500D01*
X253000Y467500D02*
X277198D01*
X247000Y460000D02*
X253500Y466500D01*
X307842Y457137D02*
X308027Y456952D01*
X315168D02*
X318233Y460017D01*
X300701Y457137D02*
X307842D01*
X308027Y456952D02*
X315168D01*
X295696Y452132D02*
X300701Y457137D01*
X223019Y419631D02*
X228217D01*
X352375Y440525D02*
X352588D01*
X350900Y442000D02*
X352375Y440525D01*
X350900Y442000D02*
Y443500D01*
X349289Y441290D02*
Y442810D01*
X347275Y444825D02*
X349289Y442810D01*
X348500Y440500D02*
X349289Y441290D01*
X316499Y444825D02*
X347275D01*
X348111Y446289D02*
X350900Y443500D01*
X314588Y442915D02*
X316499Y444825D01*
X341564Y443825D02*
X345021Y440368D01*
X316913Y443825D02*
X341564D01*
X312438Y439351D02*
X316913Y443825D01*
X307083Y439351D02*
X312438D01*
X307101Y442915D02*
X314588D01*
X295264Y456264D02*
Y460177D01*
X306070Y455952D02*
X316161D01*
X377726Y427100D02*
Y448363D01*
X388796Y469436D02*
X456129D01*
X374397Y463000D02*
X389546Y447852D01*
X277683Y466500D02*
X279183Y468000D01*
X348273Y460399D02*
X374101D01*
X274571Y459915D02*
X284762Y449724D01*
X299894Y462633D02*
X346039D01*
X345826Y460017D02*
X347806Y458037D01*
X289000Y463000D02*
X290633Y464633D01*
X378062Y466438D02*
X396000Y448500D01*
X278284Y470000D02*
X292000D01*
X300256Y448724D02*
X306484Y454952D01*
X398862Y466436D02*
X453319D01*
X291867Y466633D02*
X347695D01*
X347392Y457037D02*
X367637D01*
X366751Y439010D02*
X368974Y436787D01*
X374651Y439010D02*
X375949Y437712D01*
X367637Y457037D02*
X374651Y450023D01*
X302102Y443500D02*
X306680Y448078D01*
X294500Y455500D02*
X295264Y456264D01*
X299842Y449724D02*
X306070Y455952D01*
X307091Y449903D02*
X357403D01*
X349305Y466438D02*
X378062D01*
X258500Y444500D02*
X301688D01*
X316161Y455952D02*
X319226Y459017D01*
X348914Y464000D02*
X374811D01*
X389546Y439179D02*
X391155Y437570D01*
X278500Y464000D02*
X288080D01*
X361637Y455037D02*
X366751Y449923D01*
X368051Y458037D02*
X377726Y448363D01*
X277500Y463000D02*
X289000D01*
X362051Y456037D02*
X370651Y447437D01*
X348500Y463000D02*
X374397D01*
X395000Y462575D02*
X398862Y466436D01*
X272729Y454764D02*
X279769Y447724D01*
X374811Y464000D02*
X390553Y448259D01*
X279183Y468000D02*
X290500D01*
X346039Y462633D02*
X348273Y460399D01*
X380000Y440500D02*
Y452000D01*
X392436Y468436D02*
X455714D01*
X278698Y469000D02*
X291586D01*
X382062Y467438D02*
X396343Y453157D01*
X306484Y454952D02*
X316575D01*
X346977Y456037D02*
X362051D01*
X297123Y459862D02*
X299894Y462633D01*
X348891Y465438D02*
X374788D01*
X292953Y467633D02*
X348110D01*
X396343Y453157D02*
X399948D01*
X290633Y464633D02*
X346867D01*
X374101Y460399D02*
X384000Y450500D01*
X346867Y464633D02*
X348500Y463000D01*
X256907Y445500D02*
X301274D01*
X284348Y448724D02*
X300256D01*
X394436Y467436D02*
X454403D01*
X390553Y439586D02*
X391569Y438569D01*
X260707Y443500D02*
X302102D01*
X301084Y446724D02*
X307312Y452952D01*
X307138Y445489D02*
X307209D01*
X274985Y460915D02*
X283769Y452132D01*
X298720Y463633D02*
X346453D01*
X284762Y449724D02*
X299842D01*
X318233Y460017D02*
X345826D01*
X391000Y467000D02*
X392436Y468436D01*
X346563Y455037D02*
X361637D01*
X295264Y460177D02*
X298720Y463633D01*
X300408Y459830D02*
X302211Y461633D01*
X392567Y440492D02*
X392740Y440665D01*
X301688Y444500D02*
X307091Y449903D01*
X316575Y454952D02*
X319640Y458017D01*
X319931Y455480D02*
X342415D01*
X392740Y440665D02*
Y447486D01*
X345624Y461633D02*
X347858Y459399D01*
X374651Y439010D02*
Y450023D01*
X357403Y449903D02*
X361000Y453500D01*
X349719Y467438D02*
X382062D01*
X347281Y465633D02*
X348914Y464000D01*
X316989Y453952D02*
X320054Y457017D01*
X391000Y464000D02*
X394436Y467436D01*
X293367Y468633D02*
X348524D01*
X319226Y459017D02*
X345412D01*
X346453Y463633D02*
X348687Y461399D01*
X302211Y461633D02*
X345624D01*
X374788Y465438D02*
X392740Y447486D01*
X292000Y470000D02*
X293367Y468633D01*
X255310Y446724D02*
X301084D01*
X344998Y458017D02*
X346977Y456037D01*
X291586Y469000D02*
X292953Y467633D01*
X288080Y464000D02*
X289713Y465633D01*
X389546Y439179D02*
Y447852D01*
X289713Y465633D02*
X347281D01*
X390553Y439586D02*
Y448259D01*
X348524Y468633D02*
X349719Y467438D01*
X348110Y467633D02*
X349305Y466438D01*
X306855Y451081D02*
X328783D01*
X370651Y439110D02*
X372293Y437468D01*
X388734Y469374D02*
X388796Y469436D01*
X348687Y461399D02*
X374584D01*
X347695Y466633D02*
X348891Y465438D01*
X320054Y457017D02*
X344583D01*
X374584Y461399D02*
X387665Y448318D01*
X283769Y452132D02*
X295696D01*
X347858Y459399D02*
X372601D01*
X380000Y452000D01*
X384000Y440500D02*
Y450500D01*
X387665Y440511D02*
Y448318D01*
X347806Y458037D02*
X368051D01*
X307209Y445489D02*
X308330Y444369D01*
X345412Y459017D02*
X347392Y457037D01*
X274157Y458915D02*
X284348Y448724D01*
X306898Y453952D02*
X316989D01*
X319640Y458017D02*
X344998D01*
X300670Y447724D02*
X306898Y453952D01*
X366751Y439010D02*
Y449923D01*
X317404Y452952D02*
X319931Y455480D01*
X279769Y447724D02*
X300670D01*
X328783Y451081D02*
X330579Y452876D01*
X306680Y448078D02*
X319264D01*
X314055Y444369D02*
X315976Y446289D01*
X348111D01*
X308330Y444369D02*
X314055D01*
X344583Y457017D02*
X346563Y455037D01*
X307312Y452952D02*
X317404D01*
X301274Y445500D02*
X306855Y451081D01*
X370651Y439110D02*
Y447437D01*
X290500Y468000D02*
X291867Y466633D01*
X396000Y440500D02*
Y448500D01*
X265811Y459915D02*
X274571D01*
X261000Y464500D02*
X276000D01*
X268415Y458915D02*
X274157D01*
X264636Y460915D02*
X274985D01*
X276000Y464500D02*
X277500Y463000D01*
X276784Y468500D02*
X278284Y470000D01*
X277198Y467500D02*
X278698Y469000D01*
X372293Y429705D02*
Y437468D01*
X260000Y453037D02*
Y454434D01*
X266927Y451500D02*
X269421Y453994D01*
X375949Y427463D02*
Y437712D01*
X272729Y454764D02*
Y456451D01*
X229694Y415694D02*
X258500Y444500D01*
X304916Y425410D02*
Y432584D01*
X368974Y431609D02*
Y436787D01*
X400858Y435728D02*
X409494Y444364D01*
X296000Y441500D02*
X304916Y432584D01*
X401408Y465436D02*
X452064D01*
X229026Y417826D02*
X256555Y445355D01*
X256500Y453000D02*
X258000Y451500D01*
X396955Y438569D02*
X409302Y450916D01*
X381593Y435728D02*
X400858D01*
X266500Y454500D02*
X269915Y457915D01*
X260704Y443500D02*
X260707Y443500D01*
X260418Y456697D02*
X264636Y460915D01*
X260000Y454434D02*
X260418Y454852D01*
X271265Y457915D02*
X272729Y456451D01*
X263500Y454000D02*
X268415Y458915D01*
X380082Y437239D02*
Y437372D01*
X397369Y437570D02*
X408800Y449000D01*
X261955Y456060D02*
X265811Y459915D01*
X230889Y413889D02*
X260355Y443355D01*
X258000Y451500D02*
X266927D01*
X256500Y453000D02*
Y460000D01*
X261000Y464500D01*
X260418Y454852D02*
Y456697D01*
X269915Y457915D02*
X271265D01*
X391155Y437570D02*
X397369D01*
X391569Y438569D02*
X396955D01*
X396117Y460146D02*
X401408Y465436D01*
X380082Y437239D02*
X381593Y435728D01*
X256904Y445500D02*
X256907Y445500D01*
X372293Y429705D02*
X382535Y419463D01*
X383363Y421463D02*
X414306D01*
X382535Y419463D02*
X415134D01*
X408800Y449000D02*
X415500D01*
X474802Y448000D02*
X480261Y453460D01*
X470500Y450000D02*
X475500Y455000D01*
X444086Y447000D02*
X475976D01*
X471828Y449000D02*
X478264Y455436D01*
X375949Y427463D02*
X382949Y420463D01*
X442843Y450000D02*
X470500D01*
X251500Y453500D02*
Y459500D01*
X243948Y451918D02*
X245175Y453145D01*
X230000Y439000D02*
X239000Y448000D01*
X382949Y420463D02*
X414720D01*
X443672Y448000D02*
X474802D01*
X443257Y449000D02*
X471828D01*
X414720Y420463D02*
X443257Y449000D01*
X415134Y419463D02*
X443672Y448000D01*
X415548Y418463D02*
X444086Y447000D01*
X482280Y453304D02*
Y455500D01*
X368974Y431609D02*
X382121Y418463D01*
X415548D01*
X475976Y447000D02*
X482280Y453304D01*
X377726Y427100D02*
X383363Y421463D01*
X414306D02*
X442843Y450000D01*
X239000Y448000D02*
X246000D01*
X251500Y453500D01*
X409302Y450916D02*
X413532D01*
X247000Y453000D02*
Y460000D01*
X245175Y453145D02*
Y459675D01*
X410500Y405500D02*
X441160Y409979D01*
X437177Y434374D02*
X439290Y436310D01*
X436965Y426742D02*
X442309Y416195D01*
X436679Y433208D02*
X436799Y427405D01*
X440585Y436693D02*
X510601Y424866D01*
X510939Y424768D02*
X523500Y419500D01*
X442475Y411500D02*
Y415500D01*
X410500Y410500D02*
X439000Y413500D01*
X384000Y413000D02*
X402083Y411497D01*
X410628Y408968D02*
X440938Y411500D01*
X402298Y411454D02*
X410041Y409033D01*
X384000Y416500D02*
X410358Y413969D01*
X410500Y415500D02*
X424031Y416067D01*
X410575Y413964D02*
X440938Y415500D01*
X424108Y416072D02*
X439000Y417500D01*
X456973Y361591D02*
X456998Y361566D01*
X464839Y359410D02*
X464863Y359386D01*
X290146Y379883D02*
X298817Y396697D01*
X224929Y413744D02*
X230537D01*
X224929Y417681D02*
X228674D01*
X253960Y425460D02*
X297040D01*
X297500Y427500D02*
X309627Y415374D01*
X238000Y409500D02*
X253960Y425460D01*
X225000Y409500D02*
X238000D01*
X297040Y425460D02*
X309370Y413130D01*
X223019Y415694D02*
X229694D01*
X223011Y411764D02*
X236764D01*
X252500Y427500D01*
X297500D01*
X228217Y419631D02*
X255310Y446724D01*
X309627Y415374D02*
X312000D01*
X333874D02*
X334000Y415500D01*
X331875Y415374D02*
X333874D01*
X309370Y413130D02*
X344630D01*
X347000Y415500D01*
X312250Y415374D02*
X312750Y415873D01*
X322750Y414630D02*
Y420873D01*
X324750Y421374D02*
X325250Y420873D01*
X325750Y414130D02*
X327250D01*
X327750Y414630D01*
X312000Y415374D02*
X312250D01*
X312750Y420873D02*
X313250Y421374D01*
X330750Y415374D02*
X331875D01*
X320250Y414630D02*
Y420873D01*
X330250Y415873D02*
X330750Y415374D01*
X320750Y414130D02*
X322250D01*
X328250Y421374D02*
X329750D01*
X320250Y414630D02*
X320750Y414130D01*
X317750Y414630D02*
Y420873D01*
X323250Y421374D02*
X324750D01*
X315250Y414630D02*
X315750Y414130D01*
X318250Y421374D02*
X319750D01*
X327750Y414630D02*
Y420873D01*
X325250Y414630D02*
X325750Y414130D01*
X329750Y421374D02*
X330250Y420873D01*
X319750Y421374D02*
X320250Y420873D01*
X313250Y421374D02*
X314750D01*
X327750Y420873D02*
X328250Y421374D01*
X314750D02*
X315250Y420873D01*
X317250Y414130D02*
X317750Y414630D01*
X322250Y414130D02*
X322750Y414630D01*
Y420873D02*
X323250Y421374D01*
X312750Y415873D02*
Y420873D01*
X315750Y414130D02*
X317250D01*
X317750Y420873D02*
X318250Y421374D01*
X325250Y414630D02*
Y420873D01*
X330250Y415873D02*
Y420873D01*
X315250Y414630D02*
Y420873D01*
X270384Y396441D02*
X275343Y397910D01*
X266527Y396280D02*
X270133Y396401D01*
X237007Y392000D02*
X240033D01*
X230920Y395439D02*
X236498Y392139D01*
X247511Y393865D02*
X252656Y394697D01*
X253134Y394763D02*
X265665Y396216D01*
X226370Y399174D02*
X230793Y395528D01*
X240293Y392034D02*
X246539Y393660D01*
X222596Y401922D02*
X226296Y399232D01*
X238364Y384448D02*
X241283Y386169D01*
X267036Y390283D02*
X286637Y389603D01*
X274055Y392502D02*
X279422Y392663D01*
X253244Y393769D02*
X265776Y395222D01*
X266714Y391283D02*
X274083Y391502D01*
X267314Y389259D02*
X287065Y386811D01*
X253934Y387809D02*
X266467Y389262D01*
X253590Y390789D02*
X266122Y392242D01*
X274083Y391502D02*
X279452Y391664D01*
X253702Y389795D02*
X266241Y391249D01*
X279131Y385040D02*
X287000Y381500D01*
X253355Y392775D02*
X265895Y394229D01*
X254046Y386815D02*
X266586Y388269D01*
X266625Y394282D02*
X273989Y394501D01*
X246153Y382795D02*
X248165Y384606D01*
X267335Y388245D02*
X278953Y386134D01*
X253816Y388802D02*
X266356Y390256D01*
X253479Y391783D02*
X266010Y393236D01*
X237348Y386171D02*
X240264Y387890D01*
X242497Y384545D02*
X247854Y386736D01*
X267153Y387261D02*
X278775Y385151D01*
X241093Y381152D02*
X241575Y383439D01*
X254161Y385822D02*
X266701Y387276D01*
X266595Y395282D02*
X273958Y395500D01*
X241740Y386396D02*
X247096Y388587D01*
X274421Y395627D02*
X276095Y396569D01*
X266685Y392283D02*
X274047Y392502D01*
X248948Y384980D02*
X254093Y385812D01*
X279128Y386096D02*
X287025Y384080D01*
X266655Y393283D02*
X274022Y393501D01*
X240982Y388247D02*
X246334Y390437D01*
X276314Y396718D02*
X278500Y398500D01*
X233800Y388563D02*
X246295Y392549D01*
X274539Y394594D02*
X280781Y396588D01*
X240608Y389174D02*
X245960Y391364D01*
X274330Y393526D02*
X279373Y394200D01*
X247994Y390904D02*
X253135Y391735D01*
X241366Y387323D02*
X246713Y389511D01*
X237856Y385310D02*
X240776Y387031D01*
X279586Y391671D02*
X283927Y392037D01*
X235207Y383124D02*
X237509Y385064D01*
X248794Y385968D02*
X253927Y386799D01*
X242118Y385470D02*
X247470Y387660D01*
X239144Y383124D02*
X241444Y385062D01*
X279975Y392785D02*
X281876Y393594D01*
X234426Y384448D02*
X237347Y386171D01*
X247838Y391892D02*
X252971Y392722D01*
X243079Y383122D02*
X248015Y385710D01*
X248150Y389916D02*
X253288Y390747D01*
X247671Y392878D02*
X252816Y393710D01*
X233221Y381155D02*
X233703Y383441D01*
X248309Y388929D02*
X253450Y389760D01*
X230416Y381348D02*
X233261Y384751D01*
X236844Y387035D02*
X239753Y388750D01*
X233918Y385309D02*
X236840Y387033D01*
X248473Y387943D02*
X253614Y388774D01*
X237158Y381155D02*
X237640Y383441D01*
X248629Y386955D02*
X253773Y387787D01*
X423879Y448674D02*
X425819Y450976D01*
X385579Y426479D02*
X413172Y434327D01*
X386000Y425000D02*
X389409Y426419D01*
X390000Y425000D02*
X393409Y426419D01*
X394000Y425000D02*
X397409Y426419D01*
X422469Y441437D02*
X428000Y445126D01*
X423528Y440824D02*
X427211Y441681D01*
X419911Y433420D02*
X423877Y439326D01*
X464863Y353202D02*
Y359386D01*
X471187Y300930D02*
Y307114D01*
X512132Y353177D02*
Y359361D01*
X502683Y353177D02*
Y359361D01*
X477486Y300930D02*
Y307114D01*
X455439Y353177D02*
Y359361D01*
X445990Y300930D02*
Y307114D01*
X477486Y353177D02*
Y359361D01*
X440329Y435177D02*
X442323D01*
X496384Y353178D02*
Y359361D01*
X461738Y353177D02*
Y359361D01*
X493234Y353177D02*
X493309Y353252D01*
X449140Y353177D02*
Y359361D01*
X498115Y378591D02*
X514479Y390970D01*
X452289Y353177D02*
Y359361D01*
X510345Y423350D02*
X513636Y418247D01*
X436541Y353177D02*
Y359361D01*
X510320Y423375D02*
X510345Y423350D01*
X445946Y363404D02*
Y429002D01*
X444399Y361566D02*
Y361857D01*
X464863Y359388D02*
X464863Y359386D01*
X444399Y361857D02*
X445946Y363404D01*
X512132Y300930D02*
Y307114D01*
X458589Y300930D02*
Y307114D01*
X486837Y353276D02*
X486935Y353177D01*
X510320Y415501D02*
X510345Y415476D01*
X486935Y300930D02*
Y307114D01*
X512320Y417438D02*
X512345Y417413D01*
X502683Y300930D02*
Y307114D01*
X468038Y353177D02*
Y359361D01*
X505833Y300930D02*
Y307114D01*
X456998Y361566D02*
X462246Y372051D01*
X493234Y300930D02*
Y307114D01*
X441708Y433240D02*
X445946Y429002D01*
X497513Y379390D02*
X513875Y391768D01*
X496384Y300930D02*
Y307114D01*
X510345Y415476D02*
X514215Y411254D01*
X464874Y300905D02*
Y307100D01*
X461714Y301043D02*
Y307090D01*
X483785Y353177D02*
Y359361D01*
X442841Y353177D02*
Y359361D01*
X496910Y380187D02*
X513272Y392565D01*
X453848Y361566D02*
X461594Y372910D01*
X453824Y361591D02*
X453848Y361566D01*
X514882Y393791D02*
Y409539D01*
X464094Y373417D02*
X496408Y378912D01*
X513882Y393791D02*
Y409539D01*
X505857Y353202D02*
Y358996D01*
X468038Y300930D02*
Y307114D01*
X483785Y300930D02*
Y307114D01*
X463922Y374402D02*
X496240Y379898D01*
X505833Y353177D02*
X505857Y353202D01*
X496384Y353177D02*
X496384Y353178D01*
X486837Y353276D02*
Y359437D01*
X493309Y353252D02*
Y359384D01*
X439691Y353177D02*
Y359361D01*
X445990Y353177D02*
Y359361D01*
X461714Y307090D02*
X461738Y307114D01*
X510063Y416988D02*
X512345Y417413D01*
X464874Y307100D02*
X464888Y307114D01*
X462997Y370671D02*
X464845Y359463D01*
X513832Y417804D02*
X515766Y410438D01*
X515882Y393791D02*
Y409539D01*
X464264Y372432D02*
X496575Y377926D01*
X438215Y433240D02*
X441708D01*
X509316Y414334D02*
X513373Y410682D01*
X203118Y333353D02*
X204500Y334000D01*
X252492Y353402D02*
Y359586D01*
X460500Y453500D02*
Y457000D01*
X424156Y379434D02*
X428566D01*
X480636Y307114D02*
X480676Y307074D01*
X261941Y301154D02*
Y307339D01*
X220996Y301154D02*
Y307339D01*
X261941Y353402D02*
Y359586D01*
X489854Y300700D02*
X490060Y300905D01*
X459500Y452500D02*
X460500Y453500D01*
X236744Y353402D02*
Y359586D01*
X239894Y353401D02*
Y359586D01*
X280839Y353402D02*
Y359585D01*
X274474Y353467D02*
Y359661D01*
X255642Y301154D02*
Y307339D01*
X217846Y301154D02*
Y307339D01*
X274309Y300924D02*
X274515Y301130D01*
X290287Y353402D02*
X290312Y353426D01*
X293707Y414619D02*
X297461Y410831D01*
X499534Y300930D02*
Y307114D01*
X233595Y353402D02*
Y359586D01*
X287138Y353402D02*
Y359586D01*
X274539Y301154D02*
Y307339D01*
X227295Y353402D02*
Y359586D01*
X313381Y365490D02*
X350500Y356000D01*
X401538Y426466D02*
X414499Y430550D01*
X293437Y353402D02*
Y359586D01*
X454403Y467436D02*
X456839Y465000D01*
X224146Y301154D02*
Y307339D01*
Y353402D02*
Y359586D01*
X258791Y301154D02*
Y307339D01*
X238303Y361791D02*
X246049Y373134D01*
X220996Y353401D02*
Y359586D01*
X217846Y353402D02*
Y359586D01*
X248630Y373654D02*
X287346Y378986D01*
X230445Y301154D02*
Y307339D01*
X247453Y370889D02*
X249318Y359610D01*
X439809Y388294D02*
X440181Y387922D01*
X515281Y300930D02*
Y307114D01*
X230445Y353402D02*
Y359586D01*
X290312Y353426D02*
Y359220D01*
X428357Y440657D02*
X438500Y452000D01*
X251330Y362889D02*
X295072Y364109D01*
X265131Y301065D02*
Y307298D01*
X252492Y301154D02*
Y307339D01*
X268240Y353402D02*
Y359586D01*
X490085Y300930D02*
Y307114D01*
X474312Y359386D02*
Y360812D01*
X289255Y380337D02*
X297930Y397159D01*
X211621Y439231D02*
Y441011D01*
X508982Y300930D02*
Y307114D01*
X204495Y330699D02*
X206000Y332500D01*
X297210Y398229D02*
X297904Y409655D01*
X215500Y454500D02*
Y457000D01*
X462500Y452500D02*
Y457255D01*
X227295Y301154D02*
Y307339D01*
X271291Y353500D02*
Y359661D01*
X290287Y301154D02*
Y307339D01*
X405500Y425000D02*
X415662Y428836D01*
X233595Y301154D02*
Y307339D01*
X274474Y353467D02*
X274539Y353402D01*
X258791Y353401D02*
Y359586D01*
X296587Y301154D02*
Y307339D01*
X288366Y380795D02*
X297042Y397618D01*
X433392Y300930D02*
Y307114D01*
X218500Y455860D02*
Y457000D01*
X246193Y353402D02*
Y359586D01*
X283988Y301154D02*
Y307339D01*
X246168Y307314D02*
X246193Y307339D01*
X298306Y417945D02*
X299835Y410456D01*
X480676Y300841D02*
Y307074D01*
X515281Y353177D02*
Y359361D01*
X248768Y372663D02*
X287483Y377996D01*
X248487Y374644D02*
X287210Y379977D01*
X294517Y417212D02*
X296799Y417638D01*
X265091Y353402D02*
Y359586D01*
X277689Y353401D02*
X277764Y353477D01*
X241453Y361791D02*
X246701Y372275D01*
X490019Y353243D02*
X490085Y353177D01*
X243043Y301154D02*
Y307339D01*
X239894Y301154D02*
Y307339D01*
X298208Y398168D02*
X298902Y409595D01*
X271291Y353500D02*
X271390Y353402D01*
X428566Y379434D02*
X434000Y374000D01*
X307091Y392036D02*
X350500Y372000D01*
X280839Y353402D02*
X280839Y353402D01*
X294799Y415701D02*
X298338Y411349D01*
X249340Y357652D02*
Y359464D01*
X299736Y301154D02*
Y307339D01*
X433392Y353177D02*
Y359361D01*
X268240Y301154D02*
Y307339D01*
X490019Y353243D02*
Y359437D01*
X217822Y301130D02*
X217833Y301141D01*
X249329Y301130D02*
Y307325D01*
X294799Y423575D02*
X298091Y418471D01*
X204345Y330540D02*
X204402Y330598D01*
X246168Y301267D02*
Y307314D01*
X299206Y398112D02*
X299900Y409530D01*
X387000Y470912D02*
X457089D01*
X508982Y353177D02*
Y359361D01*
X474337Y353177D02*
Y359361D01*
X249318Y359610D02*
X249343Y359586D01*
X452064Y465436D02*
X460500Y457000D01*
X474337Y300930D02*
Y307114D01*
X512000Y447000D02*
Y467479D01*
X287138Y301154D02*
Y307339D01*
X439009Y388491D02*
X439206Y388294D01*
X201539Y332708D02*
X203045Y333321D01*
X439207Y383500D02*
X440181Y384474D01*
X299736Y353402D02*
Y359586D01*
X271390Y301154D02*
Y307339D01*
X203263Y329420D02*
X204326Y330521D01*
X386500Y410500D02*
X438000Y386000D01*
X265091Y307339D02*
X265131Y307298D01*
X457089Y470912D02*
X457500Y470500D01*
X433367Y300905D02*
X433379Y300917D01*
X411455Y388614D02*
X416569Y383500D01*
X249340Y357652D02*
X249343Y353402D01*
X474312Y360812D02*
X474500Y361000D01*
X249318Y359610D02*
X249319Y359607D01*
X277689Y301154D02*
Y307339D01*
X296587Y353401D02*
Y359586D01*
X280839Y301154D02*
Y307339D01*
X389574Y426477D02*
X413466Y433371D01*
X406829Y457329D02*
X430527D01*
X480636Y353177D02*
Y359361D01*
X415364Y444364D02*
X424000Y453000D01*
X283988Y353402D02*
Y359586D01*
X419414Y442604D02*
X423773Y448541D01*
X309500Y425000D02*
X310000D01*
X398000D02*
X401409Y426419D01*
X293437Y301154D02*
Y307339D01*
X307091Y383505D02*
X350488Y360000D01*
X415963Y436539D02*
X419048Y442036D01*
X405034Y426465D02*
X414846Y429611D01*
X416569Y383500D02*
X439207D01*
X421189Y441625D02*
X425819Y447039D01*
X424000Y453000D02*
X428000D01*
X419443Y434567D02*
X422536Y440079D01*
X249329Y307325D02*
X249343Y307339D01*
X397555Y426472D02*
X414114Y431477D01*
X418575Y435062D02*
X421664Y440568D01*
X402000Y425000D02*
X404825Y426381D01*
X303500Y425412D02*
X306412Y422500D01*
X296000Y437075D02*
X303500Y429575D01*
X277764Y353477D02*
Y359608D01*
X215500Y454500D02*
X228500Y441500D01*
X308463Y423963D02*
X309500Y425000D01*
X218500Y455860D02*
X230831Y443529D01*
X416834Y436047D02*
X419920Y441547D01*
X417704Y435555D02*
X420792Y441057D01*
X425506Y448544D02*
X428000Y449063D01*
X424396Y436570D02*
X428314Y440611D01*
X453319Y466436D02*
X462500Y457255D01*
X404000Y454500D02*
X406829Y457329D01*
X440181Y384474D02*
Y387922D01*
X439206Y388294D02*
X439809D01*
X382000Y425000D02*
X385409Y426419D01*
X331011Y356079D02*
X350490Y352302D01*
X307091Y388819D02*
X350500Y368000D01*
X307091Y386150D02*
X350488Y364500D01*
X409494Y444364D02*
X415364D01*
X330500Y352000D02*
X350512Y348439D01*
X419679Y431526D02*
X424377Y436550D01*
X236744Y301154D02*
Y307339D01*
X295146Y364113D02*
X312877Y365532D01*
X393566Y426475D02*
X413777Y432420D01*
X420220Y442012D02*
X424579Y447949D01*
X304916Y425410D02*
X306363Y423963D01*
X308463D01*
X303500Y425412D02*
Y429575D01*
X306412Y422500D02*
X311500D01*
X199434Y338964D02*
X203203Y339886D01*
X200000Y335500D02*
X204000Y337000D01*
D35*
X299736Y307339D02*
D03*
X296587D02*
D03*
X293437D02*
D03*
X290287D02*
D03*
X287138D02*
D03*
X283988D02*
D03*
X280839D02*
D03*
X277689D02*
D03*
X274539D02*
D03*
X271390D02*
D03*
X268240D02*
D03*
X265090D02*
D03*
X261941D02*
D03*
X258791D02*
D03*
X255642D02*
D03*
X252492D02*
D03*
X249342D02*
D03*
X246193D02*
D03*
X243043D02*
D03*
X239894D02*
D03*
X236744D02*
D03*
X233594D02*
D03*
X230445D02*
D03*
X227295D02*
D03*
X224146D02*
D03*
X220996D02*
D03*
X217846D02*
D03*
Y353402D02*
D03*
X220996D02*
D03*
X224146D02*
D03*
X227295D02*
D03*
X230445D02*
D03*
X233594D02*
D03*
X236744D02*
D03*
X239894D02*
D03*
X243043D02*
D03*
X246193D02*
D03*
X249342D02*
D03*
X252492D02*
D03*
X255642D02*
D03*
X258791D02*
D03*
X261941D02*
D03*
X265090D02*
D03*
X268240D02*
D03*
X271390D02*
D03*
X274539D02*
D03*
X277689D02*
D03*
X280839D02*
D03*
X283988D02*
D03*
X287138D02*
D03*
X290287D02*
D03*
X293437D02*
D03*
X296587D02*
D03*
X299736D02*
D03*
X515281Y307120D02*
D03*
X512132D02*
D03*
X508982D02*
D03*
X505833D02*
D03*
X502683D02*
D03*
X499534D02*
D03*
X496384D02*
D03*
X493234D02*
D03*
X490085D02*
D03*
X486935D02*
D03*
X483785D02*
D03*
X480636D02*
D03*
X477486D02*
D03*
X474337D02*
D03*
X471187D02*
D03*
X468037D02*
D03*
X464888D02*
D03*
X461738D02*
D03*
X458589D02*
D03*
X455439D02*
D03*
X452289D02*
D03*
X449140D02*
D03*
X445990D02*
D03*
X442840D02*
D03*
X439691D02*
D03*
X436541D02*
D03*
X433392D02*
D03*
Y353183D02*
D03*
X436541D02*
D03*
X439691D02*
D03*
X442840D02*
D03*
X445990D02*
D03*
X449140D02*
D03*
X452289D02*
D03*
X455439D02*
D03*
X458589D02*
D03*
X461738D02*
D03*
X464888D02*
D03*
X468037D02*
D03*
X471187D02*
D03*
X474337D02*
D03*
X477486D02*
D03*
X480636D02*
D03*
X483785D02*
D03*
X486935D02*
D03*
X490085Y353183D02*
D03*
X493234Y353183D02*
D03*
X496384D02*
D03*
X499534D02*
D03*
X502683D02*
D03*
X505833D02*
D03*
X508982Y353183D02*
D03*
X512132D02*
D03*
X515281Y353183D02*
D03*
D62*
X418400Y300500D02*
Y312100D01*
X412400Y294500D02*
X418400Y300500D01*
X399200Y294500D02*
X412400D01*
X418400Y323000D02*
X425200Y316200D01*
X418400Y323000D02*
Y323100D01*
X425200Y316100D02*
Y316200D01*
D64*
X348991Y391861D02*
D03*
Y300961D02*
D03*
X411900Y438800D02*
D03*
X321000D02*
D03*
X384058Y391912D02*
D03*
Y301012D02*
D03*
D65*
X528709Y464161D02*
D03*
Y304161D02*
D03*
X204291Y464161D02*
D03*
Y304161D02*
D03*
D66*
X251400Y399900D02*
D03*
X241300Y400300D02*
D03*
D67*
X430000Y293100D02*
D03*
X442816Y300905D02*
D03*
X436517D02*
D03*
X449115D02*
D03*
X439667D02*
D03*
X205275Y434754D02*
D03*
X455414Y300921D02*
D03*
X452265D02*
D03*
X335200Y296300D02*
D03*
X324500Y300961D02*
D03*
X482000Y368600D02*
D03*
X438500Y395600D02*
D03*
X438361Y392455D02*
D03*
X338700Y396200D02*
D03*
X523100Y425300D02*
D03*
X527300Y406500D02*
D03*
X527100Y403100D02*
D03*
X515411Y375972D02*
D03*
X494200Y371200D02*
D03*
X443300Y366500D02*
D03*
X449200Y371200D02*
D03*
X425112Y340788D02*
D03*
X408500Y337800D02*
D03*
X413900Y356900D02*
D03*
X407700Y367100D02*
D03*
X527000Y454200D02*
D03*
X523600Y457500D02*
D03*
X492900Y469700D02*
D03*
X481600Y469800D02*
D03*
X469800Y455800D02*
D03*
X467100Y455000D02*
D03*
X441000Y455700D02*
D03*
X437800Y419800D02*
D03*
X400500Y390800D02*
D03*
X368000Y416800D02*
D03*
X360700Y420400D02*
D03*
X310400Y378200D02*
D03*
X256649Y470037D02*
D03*
X246284Y468651D02*
D03*
X303500Y455600D02*
D03*
X253900Y455300D02*
D03*
X227700Y468600D02*
D03*
X222489Y422151D02*
D03*
X223019Y419631D02*
D03*
X278300Y371500D02*
D03*
X280291Y367661D02*
D03*
X399200Y294500D02*
D03*
X418400Y312100D02*
D03*
X425200Y316100D02*
D03*
X418400Y323100D02*
D03*
X414000Y338000D02*
D03*
X424500Y356900D02*
D03*
X331300Y391300D02*
D03*
X406000Y390700D02*
D03*
X292695Y394126D02*
D03*
X266878Y385749D02*
D03*
X310323Y363044D02*
D03*
X300000Y379500D02*
D03*
X302462Y378538D02*
D03*
X301480Y381748D02*
D03*
X313000Y364000D02*
D03*
X524400Y317500D02*
D03*
X522800Y320200D02*
D03*
X528200Y396900D02*
D03*
X526500Y399500D02*
D03*
X482424Y385356D02*
D03*
X424156Y379434D02*
D03*
X426342Y380971D02*
D03*
X413000Y382500D02*
D03*
X411455Y388614D02*
D03*
X439000Y388500D02*
D03*
X434000Y374000D02*
D03*
X413532Y450916D02*
D03*
X415500Y449000D02*
D03*
X523500Y419500D02*
D03*
X438000Y386000D02*
D03*
X440938Y411500D02*
D03*
X439000Y413500D02*
D03*
X440938Y415500D02*
D03*
X439000Y417500D02*
D03*
X368000Y401500D02*
D03*
X407500Y423000D02*
D03*
X386500Y410500D02*
D03*
X384000Y413000D02*
D03*
Y416500D02*
D03*
X410500Y405500D02*
D03*
Y415500D02*
D03*
Y410500D02*
D03*
X380082Y437372D02*
D03*
X405500Y425000D02*
D03*
X423877Y439326D02*
D03*
X438500Y452000D02*
D03*
X402000Y425000D02*
D03*
X398000D02*
D03*
X394000D02*
D03*
X390000D02*
D03*
X386000D02*
D03*
X382000D02*
D03*
X425500Y435500D02*
D03*
X399948Y453157D02*
D03*
X391000Y464000D02*
D03*
X388734Y469374D02*
D03*
X461500Y469000D02*
D03*
X507871Y465639D02*
D03*
X437390Y463755D02*
D03*
X512000Y447000D02*
D03*
X423963Y417602D02*
D03*
X428572Y401737D02*
D03*
X427211Y441681D02*
D03*
X428000Y419500D02*
D03*
Y445126D02*
D03*
Y449063D02*
D03*
X425819Y447039D02*
D03*
Y450976D02*
D03*
X428000Y453000D02*
D03*
X482280Y455500D02*
D03*
X480261Y453460D02*
D03*
X478264Y455436D02*
D03*
X475500Y455000D02*
D03*
X438337Y427437D02*
D03*
X442337Y428937D02*
D03*
X440938Y397764D02*
D03*
X441337Y431437D02*
D03*
X295025Y365646D02*
D03*
X350500Y368000D02*
D03*
Y356000D02*
D03*
X251330Y362889D02*
D03*
X350500Y372000D02*
D03*
X350488Y364500D02*
D03*
Y360000D02*
D03*
X350490Y352302D02*
D03*
X350512Y348439D02*
D03*
X295675Y398322D02*
D03*
X330500Y352000D02*
D03*
X350488Y344300D02*
D03*
X350488Y340400D02*
D03*
X350488Y336400D02*
D03*
Y332500D02*
D03*
X343000Y410500D02*
D03*
X334000Y415500D02*
D03*
X350488Y328600D02*
D03*
Y324600D02*
D03*
Y320700D02*
D03*
X350488Y316700D02*
D03*
X350488Y312800D02*
D03*
Y308900D02*
D03*
X350488Y376000D02*
D03*
X350504Y379718D02*
D03*
X372188Y440525D02*
D03*
X342415Y455480D02*
D03*
X308923Y458490D02*
D03*
X352000Y453500D02*
D03*
X313249Y368598D02*
D03*
X310188Y367650D02*
D03*
X310505Y360475D02*
D03*
X308500Y358000D02*
D03*
X331011Y356079D02*
D03*
X330579Y452876D02*
D03*
X311236Y446045D02*
D03*
X345021Y440368D02*
D03*
X348500Y440500D02*
D03*
X319264Y448078D02*
D03*
X361000Y453500D02*
D03*
X350734Y468975D02*
D03*
X300408Y459830D02*
D03*
X297000Y451262D02*
D03*
X274267Y456203D02*
D03*
X291417Y454551D02*
D03*
X387665Y440511D02*
D03*
X392567Y440492D02*
D03*
X297123Y459862D02*
D03*
X260000Y453037D02*
D03*
X269421Y453994D02*
D03*
X270628Y456378D02*
D03*
X266500Y454500D02*
D03*
X261955Y456060D02*
D03*
X263500Y454000D02*
D03*
X311500Y422500D02*
D03*
X307000Y425500D02*
D03*
X309121Y419643D02*
D03*
X308367Y427737D02*
D03*
X310163Y429847D02*
D03*
X247000Y453000D02*
D03*
X225311Y433588D02*
D03*
X230000Y439000D02*
D03*
X228317Y436766D02*
D03*
X228500Y441500D02*
D03*
X224893Y438353D02*
D03*
X230831Y443529D02*
D03*
X228000Y431500D02*
D03*
X226791Y429161D02*
D03*
X236476Y399858D02*
D03*
X233500Y391500D02*
D03*
X225393Y397988D02*
D03*
X350825Y437024D02*
D03*
X327500Y437075D02*
D03*
X346825Y437024D02*
D03*
X342825D02*
D03*
X338825D02*
D03*
X334825D02*
D03*
X331325D02*
D03*
X280500Y466000D02*
D03*
X276484Y470374D02*
D03*
X350488Y383661D02*
D03*
X304811Y358421D02*
D03*
X306687Y360185D02*
D03*
X303000Y356500D02*
D03*
X299712Y359610D02*
D03*
X296562D02*
D03*
X302427Y353767D02*
D03*
X302245Y351111D02*
D03*
X310143Y372156D02*
D03*
X280781Y396588D02*
D03*
X288748Y392468D02*
D03*
X287065Y386811D02*
D03*
X286637Y389603D02*
D03*
X275343Y397910D02*
D03*
X278500Y398500D02*
D03*
X279373Y394200D02*
D03*
X281876Y393594D02*
D03*
X283927Y392037D02*
D03*
X287000Y381500D02*
D03*
X287025Y384080D02*
D03*
X233800Y388563D02*
D03*
X232581Y371577D02*
D03*
X246153Y382795D02*
D03*
X241093Y381152D02*
D03*
X243079Y383122D02*
D03*
X239144Y383124D02*
D03*
X237158Y381155D02*
D03*
X233221D02*
D03*
X235207Y383124D02*
D03*
X230416Y381348D02*
D03*
X222269Y396190D02*
D03*
X307091Y392036D02*
D03*
X307091Y388819D02*
D03*
Y386150D02*
D03*
Y383505D02*
D03*
X308913Y410025D02*
D03*
X311931Y403457D02*
D03*
X296000Y437075D02*
D03*
X310000Y425000D02*
D03*
X296000Y441500D02*
D03*
X296369Y409749D02*
D03*
X293416Y409867D02*
D03*
X259000Y337500D02*
D03*
X266000D02*
D03*
X275500Y337000D02*
D03*
X294000Y337500D02*
D03*
X285000Y337000D02*
D03*
X300116Y337782D02*
D03*
X306000Y327500D02*
D03*
X307101Y442915D02*
D03*
X307138Y445489D02*
D03*
X286500Y466000D02*
D03*
X294500Y455500D02*
D03*
X288500Y456000D02*
D03*
X308000Y434000D02*
D03*
X307000Y436500D02*
D03*
X307083Y439351D02*
D03*
X396117Y460146D02*
D03*
X396000Y440500D02*
D03*
X384000D02*
D03*
X380000D02*
D03*
X404000Y454500D02*
D03*
X430527Y457329D02*
D03*
X395000Y462575D02*
D03*
X391000Y467000D02*
D03*
X509702Y467603D02*
D03*
X462500Y452500D02*
D03*
X459500D02*
D03*
X458666Y455180D02*
D03*
X427006Y399500D02*
D03*
X369500Y469000D02*
D03*
X238477Y454437D02*
D03*
X235185Y450685D02*
D03*
X226115Y452712D02*
D03*
X249031Y455539D02*
D03*
X243033Y454387D02*
D03*
X243948Y451918D02*
D03*
X241278Y452503D02*
D03*
X231019Y453289D02*
D03*
X233177Y455850D02*
D03*
X223897Y427644D02*
D03*
X223500Y406000D02*
D03*
X374412Y437075D02*
D03*
X370512D02*
D03*
X366512Y437075D02*
D03*
X362612Y437075D02*
D03*
X358712D02*
D03*
X354712Y437075D02*
D03*
X376188Y440525D02*
D03*
X368288D02*
D03*
X364388D02*
D03*
X360388D02*
D03*
X356488D02*
D03*
X352588D02*
D03*
X296562Y347193D02*
D03*
X200963Y341000D02*
D03*
X200996Y380199D02*
D03*
X201428Y337766D02*
D03*
X202466Y334745D02*
D03*
X203315Y331685D02*
D03*
X209000Y314500D02*
D03*
X205000Y320500D02*
D03*
X201500Y328000D02*
D03*
X199500Y333000D02*
D03*
X218500Y317000D02*
D03*
Y321000D02*
D03*
Y342500D02*
D03*
Y337000D02*
D03*
X199212Y345820D02*
D03*
X201791Y428161D02*
D03*
X204963Y432157D02*
D03*
X258772Y455381D02*
D03*
X218500Y457000D02*
D03*
X215500D02*
D03*
X230500Y448963D02*
D03*
X275931Y453736D02*
D03*
X311648Y395526D02*
D03*
X228851Y425778D02*
D03*
X225000Y409500D02*
D03*
X237080Y403990D02*
D03*
X227413Y366587D02*
D03*
X249193Y383463D02*
D03*
X254338Y384295D02*
D03*
X205500Y326000D02*
D03*
X210813Y381139D02*
D03*
X212791Y423661D02*
D03*
X205432Y329453D02*
D03*
X211621Y441011D02*
D03*
X217871Y313547D02*
D03*
X209500Y320000D02*
D03*
X209609Y323429D02*
D03*
X309487Y322247D02*
D03*
X314500Y322500D02*
D03*
X306000Y311000D02*
D03*
X309540Y311344D02*
D03*
X319500Y311500D02*
D03*
X314504Y311349D02*
D03*
X224929Y413744D02*
D03*
X223019Y415694D02*
D03*
X224929Y417681D02*
D03*
X348500Y405500D02*
D03*
X349000Y410500D02*
D03*
X334000Y420500D02*
D03*
X313500Y400650D02*
D03*
Y398075D02*
D03*
X222596Y401922D02*
D03*
X223011Y411764D02*
D03*
X201000Y457000D02*
D03*
X369500Y453000D02*
D03*
X347000Y415500D02*
D03*
X530000Y438500D02*
D03*
X336000Y303000D02*
D03*
X330500Y332000D02*
D03*
X299761Y313547D02*
D03*
X467551Y366437D02*
D03*
X468551Y381437D02*
D03*
X266500Y369000D02*
D03*
X253000Y382000D02*
D03*
X252000Y367000D02*
D03*
X248970Y371139D02*
D03*
X286291Y368661D02*
D03*
X282327Y370831D02*
D03*
X287791Y365661D02*
D03*
X265164Y365899D02*
D03*
X277807Y366230D02*
D03*
X262752Y383638D02*
D03*
X233570Y347193D02*
D03*
Y301130D02*
D03*
X232004Y361791D02*
D03*
X230420Y347193D02*
D03*
X230408Y301381D02*
D03*
X228854Y361791D02*
D03*
X227271Y301130D02*
D03*
Y347193D02*
D03*
X224121D02*
D03*
Y301130D02*
D03*
X220972Y347193D02*
D03*
Y301130D02*
D03*
X296611Y313547D02*
D03*
X290312Y359220D02*
D03*
Y313547D02*
D03*
X287113Y359610D02*
D03*
X287162Y313547D02*
D03*
X280839Y359585D02*
D03*
X280863Y313547D02*
D03*
X277764Y359608D02*
D03*
X277714Y313547D02*
D03*
X271291Y359661D02*
D03*
X271414Y313547D02*
D03*
X280437Y381638D02*
D03*
X268216Y359610D02*
D03*
X268265Y313547D02*
D03*
X278500Y383638D02*
D03*
X261916Y359610D02*
D03*
X261965Y313547D02*
D03*
X296562Y301130D02*
D03*
X290263Y347193D02*
D03*
Y301130D02*
D03*
X284405Y453669D02*
D03*
X287113Y301130D02*
D03*
Y347193D02*
D03*
X282469Y455669D02*
D03*
X280814Y347193D02*
D03*
Y301130D02*
D03*
X277664Y347193D02*
D03*
Y301130D02*
D03*
X268764Y381638D02*
D03*
X271365Y301130D02*
D03*
Y347193D02*
D03*
X270791Y384661D02*
D03*
X268216Y347193D02*
D03*
Y301130D02*
D03*
X276500Y381638D02*
D03*
X261916Y347193D02*
D03*
Y301130D02*
D03*
X249367Y313547D02*
D03*
X249318Y347193D02*
D03*
X246168D02*
D03*
X239869D02*
D03*
X252468D02*
D03*
X243019D02*
D03*
X255617D02*
D03*
X252468Y359610D02*
D03*
X220972D02*
D03*
X246168D02*
D03*
X221021Y313547D02*
D03*
X236769D02*
D03*
X252517D02*
D03*
X233619D02*
D03*
X227320D02*
D03*
X230469D02*
D03*
X224170D02*
D03*
X255617Y301130D02*
D03*
X252468D02*
D03*
X236720Y347193D02*
D03*
Y359610D02*
D03*
X258791Y384661D02*
D03*
X260752Y381638D02*
D03*
X249318Y359610D02*
D03*
X249329Y301130D02*
D03*
X224121Y359610D02*
D03*
X294799Y423575D02*
D03*
Y415701D02*
D03*
X296799Y417638D02*
D03*
X238303Y361791D02*
D03*
X241453D02*
D03*
X246168Y301267D02*
D03*
X227271Y359610D02*
D03*
X230420D02*
D03*
X233570D02*
D03*
X263791Y294161D02*
D03*
X259267Y300862D02*
D03*
X280791Y294161D02*
D03*
X274515Y301130D02*
D03*
X217822Y347193D02*
D03*
X258767D02*
D03*
X265115Y313547D02*
D03*
X255617Y359610D02*
D03*
X265066D02*
D03*
X274541Y346995D02*
D03*
X284013Y313547D02*
D03*
X283964Y359610D02*
D03*
X293413Y301130D02*
D03*
X299712D02*
D03*
X293413Y347193D02*
D03*
X271791Y294161D02*
D03*
X257791Y295661D02*
D03*
X258816Y313547D02*
D03*
X265066Y347193D02*
D03*
X283964Y301130D02*
D03*
X290291Y294161D02*
D03*
X297291D02*
D03*
X274564Y313547D02*
D03*
X283964Y347193D02*
D03*
X293462Y313547D02*
D03*
X217822Y359610D02*
D03*
X258767D02*
D03*
X274474Y359661D02*
D03*
X293413Y359610D02*
D03*
X265131Y301065D02*
D03*
X239918Y313547D02*
D03*
X239869Y359610D02*
D03*
X264689Y381638D02*
D03*
X243019Y301130D02*
D03*
X236720D02*
D03*
X239869D02*
D03*
X246217Y313547D02*
D03*
X217833Y301141D02*
D03*
X221278Y293036D02*
D03*
X237791D02*
D03*
X480709Y365675D02*
D03*
X471162Y359386D02*
D03*
X523161Y395761D02*
D03*
X512108Y359386D02*
D03*
X512156Y313323D02*
D03*
X512345Y393791D02*
D03*
X505857Y358996D02*
D03*
Y313323D02*
D03*
X504337Y391937D02*
D03*
X502659Y359386D02*
D03*
X502708Y313323D02*
D03*
X501837Y368437D02*
D03*
X496384Y359361D02*
D03*
X496408Y313323D02*
D03*
X495837Y367437D02*
D03*
X493309Y359384D02*
D03*
X493259Y313323D02*
D03*
X497872Y370607D02*
D03*
X486837Y359437D02*
D03*
X486960Y313323D02*
D03*
X495982Y381413D02*
D03*
X483810Y313323D02*
D03*
X483761Y359386D02*
D03*
X494045Y383413D02*
D03*
X477511Y313323D02*
D03*
X477462Y359386D02*
D03*
X492045Y381413D02*
D03*
X477462Y346968D02*
D03*
Y300905D02*
D03*
X486337Y384437D02*
D03*
X483761Y346968D02*
D03*
Y300905D02*
D03*
X486910Y346968D02*
D03*
X484309Y381413D02*
D03*
X486910Y300905D02*
D03*
X493210Y346968D02*
D03*
Y300905D02*
D03*
X512108Y346968D02*
D03*
X510345Y407602D02*
D03*
X512108Y300905D02*
D03*
X512345Y409539D02*
D03*
X505808Y346968D02*
D03*
Y300905D02*
D03*
X502659D02*
D03*
X499951Y453445D02*
D03*
X502659Y346968D02*
D03*
X498014Y455445D02*
D03*
X496359Y346968D02*
D03*
Y300905D02*
D03*
X490109Y313323D02*
D03*
X490087Y346770D02*
D03*
X480234Y381413D02*
D03*
X455414Y359386D02*
D03*
X455464Y313323D02*
D03*
X476297Y381413D02*
D03*
X452265Y359386D02*
D03*
X452314Y313323D02*
D03*
X474337Y384437D02*
D03*
X449115Y359386D02*
D03*
X449164Y313323D02*
D03*
X471337Y382437D02*
D03*
X445966Y359386D02*
D03*
X446015Y313323D02*
D03*
X466486Y383413D02*
D03*
X442816Y359386D02*
D03*
X442865Y313323D02*
D03*
X443131Y426231D02*
D03*
X439667Y359386D02*
D03*
X439715Y313323D02*
D03*
X436517Y359386D02*
D03*
X436566Y313323D02*
D03*
X478297Y383413D02*
D03*
X449115Y346968D02*
D03*
X447549Y361566D02*
D03*
X445966Y346968D02*
D03*
X445953Y301156D02*
D03*
X440329Y435177D02*
D03*
X444399Y361566D02*
D03*
X442816Y346968D02*
D03*
X438215Y433240D02*
D03*
X439667Y346968D02*
D03*
X436517D02*
D03*
X518380Y379472D02*
D03*
X521917Y365512D02*
D03*
X428342Y423437D02*
D03*
X417193Y399522D02*
D03*
X221291Y465661D02*
D03*
X223855Y394161D02*
D03*
X208441Y417827D02*
D03*
X201642Y399746D02*
D03*
X444837Y452937D02*
D03*
X433379Y300917D02*
D03*
X503337Y365437D02*
D03*
X456802Y453404D02*
D03*
X461763Y313323D02*
D03*
X464337Y454937D02*
D03*
X458564Y300905D02*
D03*
X493352Y366006D02*
D03*
X480676Y300841D02*
D03*
X515257Y359386D02*
D03*
X508958D02*
D03*
X490019Y359437D02*
D03*
X474312Y359386D02*
D03*
X433367D02*
D03*
X515306Y313323D02*
D03*
X509007D02*
D03*
X499509Y346968D02*
D03*
X512837Y293937D02*
D03*
X505837D02*
D03*
X499509Y300905D02*
D03*
X480611Y346968D02*
D03*
X474361Y313323D02*
D03*
X433416D02*
D03*
X473337Y295437D02*
D03*
X487337Y293937D02*
D03*
X510852Y365422D02*
D03*
X515257Y346968D02*
D03*
X508958D02*
D03*
X515257Y300905D02*
D03*
X508958D02*
D03*
X499509Y359386D02*
D03*
X499558Y313323D02*
D03*
X480611Y359386D02*
D03*
X480660Y313323D02*
D03*
X474312Y346968D02*
D03*
X433367D02*
D03*
X490060Y300905D02*
D03*
X496337Y293937D02*
D03*
X474812Y300638D02*
D03*
X479337Y293937D02*
D03*
X446837Y455437D02*
D03*
X461714Y301043D02*
D03*
X452675Y381413D02*
D03*
X454675Y383413D02*
D03*
X456998Y361566D02*
D03*
X453848D02*
D03*
X464515Y370915D02*
D03*
X512345Y417413D02*
D03*
X510345Y415476D02*
D03*
Y423350D02*
D03*
X464874Y300905D02*
D03*
X464863Y359386D02*
D03*
X452265Y346968D02*
D03*
X468013Y300905D02*
D03*
X471163Y301004D02*
D03*
X468062Y313323D02*
D03*
X461714Y359386D02*
D03*
X468013D02*
D03*
X471163Y346968D02*
D03*
X458564D02*
D03*
X468013D02*
D03*
X455414D02*
D03*
X461714D02*
D03*
X464863D02*
D03*
X464912Y313323D02*
D03*
D68*
X274083Y391502D02*
D03*
D69*
X251400Y399900D02*
D03*
X241300Y400300D02*
D03*
M02*
