G04*
G04 #@! TF.GenerationSoftware,Altium Limited,Altium Designer,21.8.1 (53)*
G04*
G04 Layer_Color=16711935*
%FSLAX25Y25*%
%MOIN*%
G70*
G04*
G04 #@! TF.SameCoordinates,5DCC281E-C3AB-4BB6-AEF3-D9D34D3A5336*
G04*
G04*
G04 #@! TF.FilePolarity,Negative*
G04*
G01*
G75*
%ADD56R,0.02400X0.09400*%
%ADD60C,0.08200*%
%ADD61C,0.10243*%
%ADD70C,0.04737*%
%ADD71C,0.03162*%
D56*
X299736Y307339D02*
D03*
X296587D02*
D03*
X293437D02*
D03*
X290287D02*
D03*
X287138D02*
D03*
X283988D02*
D03*
X280839D02*
D03*
X277689D02*
D03*
X274539D02*
D03*
X271390D02*
D03*
X268240D02*
D03*
X265090D02*
D03*
X261941D02*
D03*
X258791D02*
D03*
X255642D02*
D03*
X252492D02*
D03*
X249342D02*
D03*
X246193D02*
D03*
X243043D02*
D03*
X239894D02*
D03*
X236744D02*
D03*
X233594D02*
D03*
X230445D02*
D03*
X227295D02*
D03*
X224146D02*
D03*
X220996D02*
D03*
X217846D02*
D03*
Y353402D02*
D03*
X220996D02*
D03*
X224146D02*
D03*
X227295D02*
D03*
X230445D02*
D03*
X233594D02*
D03*
X236744D02*
D03*
X239894D02*
D03*
X243043D02*
D03*
X246193D02*
D03*
X249342D02*
D03*
X252492D02*
D03*
X255642D02*
D03*
X258791D02*
D03*
X261941D02*
D03*
X265090D02*
D03*
X268240D02*
D03*
X271390D02*
D03*
X274539D02*
D03*
X277689D02*
D03*
X280839D02*
D03*
X283988D02*
D03*
X287138D02*
D03*
X290287D02*
D03*
X293437D02*
D03*
X296587D02*
D03*
X299736D02*
D03*
X515281Y307120D02*
D03*
X512132D02*
D03*
X508982D02*
D03*
X505833D02*
D03*
X502683D02*
D03*
X499534D02*
D03*
X496384D02*
D03*
X493234D02*
D03*
X490085D02*
D03*
X486935D02*
D03*
X483785D02*
D03*
X480636D02*
D03*
X477486D02*
D03*
X474337D02*
D03*
X471187D02*
D03*
X468037D02*
D03*
X464888D02*
D03*
X461738D02*
D03*
X458589D02*
D03*
X455439D02*
D03*
X452289D02*
D03*
X449140D02*
D03*
X445990D02*
D03*
X442840D02*
D03*
X439691D02*
D03*
X436541D02*
D03*
X433392D02*
D03*
Y353183D02*
D03*
X436541D02*
D03*
X439691D02*
D03*
X442840D02*
D03*
X445990D02*
D03*
X449140D02*
D03*
X452289D02*
D03*
X455439D02*
D03*
X458589D02*
D03*
X461738D02*
D03*
X464888D02*
D03*
X468037D02*
D03*
X471187D02*
D03*
X474337D02*
D03*
X477486D02*
D03*
X480636D02*
D03*
X483785D02*
D03*
X486935D02*
D03*
X490085Y353183D02*
D03*
X493234Y353183D02*
D03*
X496384D02*
D03*
X499534D02*
D03*
X502683D02*
D03*
X505833D02*
D03*
X508982Y353183D02*
D03*
X512132D02*
D03*
X515281Y353183D02*
D03*
D60*
X348991Y391861D02*
D03*
Y300961D02*
D03*
X411900Y438800D02*
D03*
X321000D02*
D03*
X384058Y391912D02*
D03*
Y301012D02*
D03*
D61*
X528709Y464161D02*
D03*
Y304161D02*
D03*
X204291Y464161D02*
D03*
Y304161D02*
D03*
D70*
X251400Y399900D02*
D03*
X241300Y400300D02*
D03*
D71*
X251400Y399900D02*
D03*
X241300Y400300D02*
D03*
M02*
