G04*
G04 #@! TF.GenerationSoftware,Altium Limited,Altium Designer,21.8.1 (53)*
G04*
G04 Layer_Color=8421504*
%FSLAX25Y25*%
%MOIN*%
G70*
G04*
G04 #@! TF.SameCoordinates,5DCC281E-C3AB-4BB6-AEF3-D9D34D3A5336*
G04*
G04*
G04 #@! TF.FilePolarity,Positive*
G04*
G01*
G75*
%ADD18R,0.05512X0.05118*%
%ADD19R,0.05118X0.05512*%
%ADD20R,0.04724X0.05512*%
%ADD21R,0.08200X0.02800*%
%ADD22R,0.13400X0.05100*%
%ADD23R,0.02800X0.08200*%
%ADD24R,0.05100X0.13400*%
%ADD25R,0.06496X0.02559*%
%ADD26R,0.04331X0.07480*%
%ADD27R,0.03937X0.01968*%
%ADD28R,0.05807X0.01181*%
%ADD29R,0.01181X0.05807*%
%ADD30R,0.01968X0.03937*%
%ADD31R,0.03740X0.03347*%
%ADD32R,0.02559X0.06004*%
%ADD33R,0.02362X0.02953*%
%ADD34R,0.04724X0.02362*%
%ADD35R,0.02000X0.09000*%
%ADD36R,0.03347X0.03740*%
%ADD37R,0.02362X0.02520*%
%ADD38R,0.02520X0.02362*%
D18*
X201327Y446064D02*
D03*
Y452363D02*
D03*
X209000Y452299D02*
D03*
Y446000D02*
D03*
X425500Y345350D02*
D03*
Y351650D02*
D03*
X369500Y457701D02*
D03*
Y464000D02*
D03*
X368000Y412299D02*
D03*
Y406000D02*
D03*
X530000Y442850D02*
D03*
X314291Y456811D02*
D03*
X530000Y449150D02*
D03*
X314291Y450512D02*
D03*
D19*
X416528Y394949D02*
D03*
X422828D02*
D03*
X333650Y397000D02*
D03*
X327350D02*
D03*
X416701Y296500D02*
D03*
X423000D02*
D03*
X330799Y296000D02*
D03*
X324500D02*
D03*
X207441Y422161D02*
D03*
X201142Y395161D02*
D03*
X422782Y421943D02*
D03*
X521992Y369937D02*
D03*
X305441Y370161D02*
D03*
X416482Y421943D02*
D03*
X515693Y369937D02*
D03*
X201142Y422161D02*
D03*
X207441Y395161D02*
D03*
X299142Y370161D02*
D03*
D20*
X417193Y412768D02*
D03*
Y404106D02*
D03*
X423492Y412768D02*
D03*
X423492Y404106D02*
D03*
X201642Y412992D02*
D03*
X207941Y412992D02*
D03*
X201642Y404331D02*
D03*
X207941D02*
D03*
D21*
X356691Y309061D02*
D03*
Y312961D02*
D03*
X356691Y316861D02*
D03*
X356691Y320861D02*
D03*
Y324761D02*
D03*
Y328761D02*
D03*
Y332661D02*
D03*
X341291Y334661D02*
D03*
X356691Y336561D02*
D03*
X356691Y340561D02*
D03*
X356691Y344461D02*
D03*
Y348361D02*
D03*
X356691Y352361D02*
D03*
X356691Y356261D02*
D03*
Y360161D02*
D03*
X356691Y364161D02*
D03*
X356691Y368061D02*
D03*
X356691Y372061D02*
D03*
Y375961D02*
D03*
X356691Y379861D02*
D03*
X356691Y383861D02*
D03*
X341291Y307061D02*
D03*
X341291Y310962D02*
D03*
Y314961D02*
D03*
X341291Y318861D02*
D03*
X341291Y322761D02*
D03*
X341291Y326761D02*
D03*
Y330661D02*
D03*
Y338561D02*
D03*
Y342461D02*
D03*
Y346461D02*
D03*
Y350361D02*
D03*
Y354261D02*
D03*
Y358261D02*
D03*
Y362161D02*
D03*
Y366161D02*
D03*
Y370061D02*
D03*
Y373961D02*
D03*
Y377961D02*
D03*
Y381861D02*
D03*
Y385761D02*
D03*
X391758Y307112D02*
D03*
X376358Y309012D02*
D03*
X391758Y311012D02*
D03*
X376358Y313012D02*
D03*
X391758Y314912D02*
D03*
X376358Y316912D02*
D03*
X391758Y318912D02*
D03*
X376358Y320812D02*
D03*
X391758Y322812D02*
D03*
X376358Y324812D02*
D03*
X391758Y326712D02*
D03*
X376358Y328712D02*
D03*
X391758Y330712D02*
D03*
X376358Y332712D02*
D03*
X391758Y334612D02*
D03*
X376358Y336612D02*
D03*
X391758Y338612D02*
D03*
X376358Y340512D02*
D03*
X391758Y342512D02*
D03*
X376358Y344512D02*
D03*
X391758Y346412D02*
D03*
X376358Y348412D02*
D03*
X391758Y350412D02*
D03*
X376358Y352312D02*
D03*
X391758Y354312D02*
D03*
X376358Y356312D02*
D03*
X391758Y358212D02*
D03*
X376358Y360212D02*
D03*
X391758Y362212D02*
D03*
X376358Y364112D02*
D03*
X391758Y366112D02*
D03*
X376358Y368112D02*
D03*
X391758Y370112D02*
D03*
X376358Y372012D02*
D03*
X391758Y374012D02*
D03*
X376358Y376012D02*
D03*
X391758Y377912D02*
D03*
X376358Y379912D02*
D03*
X391758Y381912D02*
D03*
X376358Y383812D02*
D03*
X391758Y385812D02*
D03*
D22*
X348991Y397061D02*
D03*
Y295861D02*
D03*
X384058Y397012D02*
D03*
Y295812D02*
D03*
D23*
X327100Y431100D02*
D03*
X350700D02*
D03*
X331000Y431100D02*
D03*
X399900Y446500D02*
D03*
X396000D02*
D03*
X392000D02*
D03*
X388100D02*
D03*
X384100D02*
D03*
X329000D02*
D03*
X333000D02*
D03*
X334900Y431100D02*
D03*
X336900Y446500D02*
D03*
X338900Y431100D02*
D03*
X340800Y446500D02*
D03*
X342800Y431100D02*
D03*
X344800Y446500D02*
D03*
X346700Y431100D02*
D03*
X348700Y446500D02*
D03*
X352700D02*
D03*
X354600Y431100D02*
D03*
X356600Y446500D02*
D03*
X358600Y431100D02*
D03*
X360500Y446500D02*
D03*
X362500Y431100D02*
D03*
X364500Y446500D02*
D03*
X366400Y431100D02*
D03*
X368400Y446500D02*
D03*
X370400Y431100D02*
D03*
X372300Y446500D02*
D03*
X374300Y431100D02*
D03*
X376300Y446500D02*
D03*
X378200Y431100D02*
D03*
X380200Y446500D02*
D03*
X382200Y431100D02*
D03*
X386100D02*
D03*
X390100D02*
D03*
X394000D02*
D03*
X397900D02*
D03*
X401900D02*
D03*
X403800Y446500D02*
D03*
X405800Y431100D02*
D03*
D24*
X417000Y438800D02*
D03*
X315800D02*
D03*
D25*
X327327Y405500D02*
D03*
Y410500D02*
D03*
Y415500D02*
D03*
Y420500D02*
D03*
X355673D02*
D03*
Y415500D02*
D03*
Y410500D02*
D03*
Y405500D02*
D03*
X405173D02*
D03*
Y410500D02*
D03*
Y415500D02*
D03*
Y420500D02*
D03*
X376827D02*
D03*
Y415500D02*
D03*
Y410500D02*
D03*
Y405500D02*
D03*
D26*
X200679Y434800D02*
D03*
X210521D02*
D03*
D27*
X406012Y396378D02*
D03*
Y393622D02*
D03*
X400500Y396378D02*
D03*
Y393622D02*
D03*
X414012Y343878D02*
D03*
X414012Y341122D02*
D03*
X408500Y343878D02*
D03*
Y341122D02*
D03*
D28*
X217516Y453110D02*
D03*
Y451142D02*
D03*
Y449173D02*
D03*
Y447205D02*
D03*
Y445236D02*
D03*
Y443268D02*
D03*
Y441299D02*
D03*
Y439331D02*
D03*
Y437362D02*
D03*
Y435394D02*
D03*
Y433425D02*
D03*
Y431457D02*
D03*
Y429488D02*
D03*
Y427520D02*
D03*
Y425551D02*
D03*
Y423583D02*
D03*
Y421614D02*
D03*
Y419646D02*
D03*
Y417677D02*
D03*
Y415709D02*
D03*
Y413740D02*
D03*
Y411772D02*
D03*
Y409803D02*
D03*
Y407835D02*
D03*
Y405866D02*
D03*
Y403898D02*
D03*
Y401929D02*
D03*
Y399961D02*
D03*
Y397992D02*
D03*
Y396024D02*
D03*
Y394055D02*
D03*
Y392087D02*
D03*
Y390118D02*
D03*
Y388150D02*
D03*
Y386181D02*
D03*
Y384213D02*
D03*
X302067D02*
D03*
Y386181D02*
D03*
Y388150D02*
D03*
Y390118D02*
D03*
Y392087D02*
D03*
Y394055D02*
D03*
Y396024D02*
D03*
Y397992D02*
D03*
Y399961D02*
D03*
Y401929D02*
D03*
Y403898D02*
D03*
Y405866D02*
D03*
Y407835D02*
D03*
Y409803D02*
D03*
Y411772D02*
D03*
Y413740D02*
D03*
Y415709D02*
D03*
Y417677D02*
D03*
Y419646D02*
D03*
Y421614D02*
D03*
Y423583D02*
D03*
Y425551D02*
D03*
Y427520D02*
D03*
Y429488D02*
D03*
Y431457D02*
D03*
Y433425D02*
D03*
Y435394D02*
D03*
Y437362D02*
D03*
Y439331D02*
D03*
Y441299D02*
D03*
Y443268D02*
D03*
Y445236D02*
D03*
Y447205D02*
D03*
Y449173D02*
D03*
Y451142D02*
D03*
Y453110D02*
D03*
X517618Y452886D02*
D03*
Y450917D02*
D03*
Y448949D02*
D03*
Y446980D02*
D03*
Y445012D02*
D03*
Y443043D02*
D03*
Y441075D02*
D03*
Y439106D02*
D03*
Y437138D02*
D03*
Y435169D02*
D03*
Y433201D02*
D03*
Y431232D02*
D03*
Y429264D02*
D03*
Y427295D02*
D03*
Y425327D02*
D03*
Y423358D02*
D03*
Y421390D02*
D03*
Y419421D02*
D03*
Y417453D02*
D03*
Y415484D02*
D03*
Y413516D02*
D03*
Y411547D02*
D03*
Y409579D02*
D03*
Y407610D02*
D03*
Y405642D02*
D03*
Y403673D02*
D03*
Y401705D02*
D03*
Y399736D02*
D03*
Y397768D02*
D03*
Y395799D02*
D03*
Y393831D02*
D03*
Y391862D02*
D03*
Y389894D02*
D03*
Y387925D02*
D03*
Y385957D02*
D03*
Y383988D02*
D03*
X433067D02*
D03*
Y385957D02*
D03*
Y387925D02*
D03*
Y389894D02*
D03*
Y391862D02*
D03*
Y393831D02*
D03*
Y395799D02*
D03*
Y397768D02*
D03*
Y399736D02*
D03*
Y401705D02*
D03*
Y403673D02*
D03*
Y405642D02*
D03*
Y407610D02*
D03*
Y409579D02*
D03*
Y411547D02*
D03*
Y413516D02*
D03*
Y415484D02*
D03*
Y417453D02*
D03*
Y419421D02*
D03*
Y421390D02*
D03*
Y423358D02*
D03*
Y425327D02*
D03*
Y427295D02*
D03*
Y429264D02*
D03*
Y431232D02*
D03*
Y433201D02*
D03*
Y435169D02*
D03*
Y437138D02*
D03*
Y439106D02*
D03*
Y441075D02*
D03*
Y443043D02*
D03*
Y445012D02*
D03*
Y446980D02*
D03*
Y448949D02*
D03*
Y450917D02*
D03*
Y452886D02*
D03*
D29*
X225342Y376386D02*
D03*
X227311D02*
D03*
X229279D02*
D03*
X231248D02*
D03*
X233217D02*
D03*
X235185D02*
D03*
X237154D02*
D03*
X239122D02*
D03*
X241090D02*
D03*
X243059D02*
D03*
X245028D02*
D03*
X246996D02*
D03*
X248965D02*
D03*
X250933D02*
D03*
X252902D02*
D03*
X254870D02*
D03*
X256839D02*
D03*
X258807D02*
D03*
X260776D02*
D03*
X262744D02*
D03*
X264713D02*
D03*
X266681D02*
D03*
X268650D02*
D03*
X270618D02*
D03*
X272587D02*
D03*
X274555D02*
D03*
X276524D02*
D03*
X278492D02*
D03*
X280461D02*
D03*
X282429D02*
D03*
X284398D02*
D03*
X286366D02*
D03*
X288335D02*
D03*
X290303D02*
D03*
X292272D02*
D03*
X294240D02*
D03*
Y460937D02*
D03*
X292272D02*
D03*
X290303D02*
D03*
X288335D02*
D03*
X286366D02*
D03*
X284398D02*
D03*
X282429D02*
D03*
X280461D02*
D03*
X278492D02*
D03*
X276524D02*
D03*
X274555D02*
D03*
X272587D02*
D03*
X270618D02*
D03*
X268650D02*
D03*
X266681D02*
D03*
X264713D02*
D03*
X262744D02*
D03*
X260776D02*
D03*
X258807D02*
D03*
X256839D02*
D03*
X254870D02*
D03*
X252902D02*
D03*
X250933D02*
D03*
X248965D02*
D03*
X246996D02*
D03*
X245028D02*
D03*
X243059D02*
D03*
X241090D02*
D03*
X239122D02*
D03*
X237154D02*
D03*
X235185D02*
D03*
X233217D02*
D03*
X231248D02*
D03*
X229279D02*
D03*
X227311D02*
D03*
X225342D02*
D03*
X440894Y460713D02*
D03*
X442862D02*
D03*
X444831D02*
D03*
X446799D02*
D03*
X448768D02*
D03*
X450736D02*
D03*
X452705D02*
D03*
X454673D02*
D03*
X456642D02*
D03*
X458610D02*
D03*
X460579D02*
D03*
X462547D02*
D03*
X464516D02*
D03*
X466484D02*
D03*
X468453D02*
D03*
X470421D02*
D03*
X472390D02*
D03*
X474358D02*
D03*
X476327D02*
D03*
X478295D02*
D03*
X480264D02*
D03*
X482232D02*
D03*
X484201D02*
D03*
X486169D02*
D03*
X488138D02*
D03*
X490106D02*
D03*
X492075D02*
D03*
X494043D02*
D03*
X496012D02*
D03*
X497980D02*
D03*
X499949D02*
D03*
X501917D02*
D03*
X503886D02*
D03*
X505854D02*
D03*
X507823D02*
D03*
X509791D02*
D03*
Y376161D02*
D03*
X507823D02*
D03*
X505854D02*
D03*
X503886D02*
D03*
X501917D02*
D03*
X499949D02*
D03*
X497980D02*
D03*
X496012D02*
D03*
X494043D02*
D03*
X492075D02*
D03*
X490106D02*
D03*
X488138D02*
D03*
X486169D02*
D03*
X484201D02*
D03*
X482232D02*
D03*
X480264D02*
D03*
X478295D02*
D03*
X476327D02*
D03*
X474358D02*
D03*
X472390D02*
D03*
X470421D02*
D03*
X468453D02*
D03*
X466484D02*
D03*
X464516D02*
D03*
X462547D02*
D03*
X460579D02*
D03*
X458610D02*
D03*
X456642D02*
D03*
X454673D02*
D03*
X452705D02*
D03*
X450736D02*
D03*
X448768D02*
D03*
X446799D02*
D03*
X444831D02*
D03*
X442862D02*
D03*
X440894D02*
D03*
D30*
X426500Y306988D02*
D03*
X423744Y306988D02*
D03*
X426500Y312500D02*
D03*
X423744Y312500D02*
D03*
X329000Y309000D02*
D03*
X331756D02*
D03*
X329000Y303488D02*
D03*
X331756D02*
D03*
D31*
X317500Y299740D02*
D03*
Y294622D02*
D03*
X311000Y299618D02*
D03*
Y294500D02*
D03*
X403000Y299500D02*
D03*
Y294382D02*
D03*
X409500Y299500D02*
D03*
Y294382D02*
D03*
D32*
X419000Y351323D02*
D03*
X414000D02*
D03*
X409000D02*
D03*
X404000D02*
D03*
Y372677D02*
D03*
X409000D02*
D03*
X414000D02*
D03*
X419000D02*
D03*
X418500Y306823D02*
D03*
X413500D02*
D03*
X408500D02*
D03*
X403500D02*
D03*
Y328177D02*
D03*
X408500D02*
D03*
X413500D02*
D03*
X418500D02*
D03*
X324500Y306823D02*
D03*
X319500D02*
D03*
X314500D02*
D03*
X309500D02*
D03*
Y328177D02*
D03*
X314500D02*
D03*
X319500D02*
D03*
X324500D02*
D03*
D33*
X339000Y456000D02*
D03*
Y460528D02*
D03*
X334000Y456000D02*
D03*
Y460528D02*
D03*
X327500Y456000D02*
D03*
Y460528D02*
D03*
D34*
X351079Y464240D02*
D03*
X351079Y460500D02*
D03*
X351079Y456760D02*
D03*
X360921D02*
D03*
Y464240D02*
D03*
D35*
X299736Y307339D02*
D03*
X296587D02*
D03*
X293437D02*
D03*
X290287D02*
D03*
X287138D02*
D03*
X283988D02*
D03*
X280839D02*
D03*
X277689D02*
D03*
X274539D02*
D03*
X271390D02*
D03*
X268240D02*
D03*
X265090D02*
D03*
X261941D02*
D03*
X258791D02*
D03*
X255642D02*
D03*
X252492D02*
D03*
X249342D02*
D03*
X246193D02*
D03*
X243043D02*
D03*
X239894D02*
D03*
X236744D02*
D03*
X233594D02*
D03*
X230445D02*
D03*
X227295D02*
D03*
X224146D02*
D03*
X220996D02*
D03*
X217846D02*
D03*
Y353402D02*
D03*
X220996D02*
D03*
X224146D02*
D03*
X227295D02*
D03*
X230445D02*
D03*
X233594D02*
D03*
X236744D02*
D03*
X239894D02*
D03*
X243043D02*
D03*
X246193D02*
D03*
X249342D02*
D03*
X252492D02*
D03*
X255642D02*
D03*
X258791D02*
D03*
X261941D02*
D03*
X265090D02*
D03*
X268240D02*
D03*
X271390D02*
D03*
X274539D02*
D03*
X277689D02*
D03*
X280839D02*
D03*
X283988D02*
D03*
X287138D02*
D03*
X290287D02*
D03*
X293437D02*
D03*
X296587D02*
D03*
X299736D02*
D03*
X458589Y307120D02*
D03*
X471187D02*
D03*
X502683D02*
D03*
X480636D02*
D03*
X499534D02*
D03*
X433392Y353183D02*
D03*
X474337D02*
D03*
X490085D02*
D03*
X515281D02*
D03*
X508982D02*
D03*
X464888Y307120D02*
D03*
X452289Y353183D02*
D03*
X505833Y307120D02*
D03*
X439691Y353183D02*
D03*
X468037Y307120D02*
D03*
X502683Y353183D02*
D03*
X496384Y307120D02*
D03*
X477486D02*
D03*
X493234Y353183D02*
D03*
X455439Y307120D02*
D03*
X445990D02*
D03*
X458589Y353183D02*
D03*
X455439D02*
D03*
X496384D02*
D03*
X505833D02*
D03*
X512132D02*
D03*
X493234Y307120D02*
D03*
X477486Y353183D02*
D03*
X452289Y307120D02*
D03*
X436541D02*
D03*
X461738D02*
D03*
X433392D02*
D03*
X474337D02*
D03*
X490085D02*
D03*
X480636Y353183D02*
D03*
X508982Y307120D02*
D03*
X499534Y353183D02*
D03*
X515281Y307120D02*
D03*
X486935D02*
D03*
X483785Y353183D02*
D03*
X442840Y307120D02*
D03*
X461738Y353183D02*
D03*
X442840D02*
D03*
X471187D02*
D03*
X512132Y307120D02*
D03*
X436541Y353183D02*
D03*
X464888D02*
D03*
X483785Y307120D02*
D03*
X486935Y353183D02*
D03*
X449140D02*
D03*
Y307120D02*
D03*
X468037Y353183D02*
D03*
X445990D02*
D03*
X439691Y307120D02*
D03*
D36*
X243173Y296161D02*
D03*
X238055D02*
D03*
X249173D02*
D03*
X254291D02*
D03*
X205350Y388161D02*
D03*
X200232D02*
D03*
X420902Y387937D02*
D03*
X464724Y296035D02*
D03*
X453606Y296134D02*
D03*
X457909Y468661D02*
D03*
X242409D02*
D03*
X469842Y296035D02*
D03*
X452791Y468661D02*
D03*
X415784Y387937D02*
D03*
X458724Y296134D02*
D03*
X237291Y468661D02*
D03*
D37*
X266791Y362661D02*
D03*
X263327D02*
D03*
X303256D02*
D03*
X299791D02*
D03*
X294756D02*
D03*
X291291D02*
D03*
X282791D02*
D03*
X286256D02*
D03*
X271827D02*
D03*
X275291D02*
D03*
X254827D02*
D03*
X258291D02*
D03*
X214327D02*
D03*
X217791D02*
D03*
X482232Y362500D02*
D03*
X478768D02*
D03*
X470372Y362437D02*
D03*
X473837D02*
D03*
X275281Y370161D02*
D03*
X271817D02*
D03*
X433343Y362437D02*
D03*
X429878D02*
D03*
X490842D02*
D03*
X487378D02*
D03*
X498343D02*
D03*
X501807D02*
D03*
X506843D02*
D03*
X510307D02*
D03*
X515343D02*
D03*
X518807D02*
D03*
X419842Y382437D02*
D03*
X200827Y382661D02*
D03*
X416378Y382437D02*
D03*
X468110Y369937D02*
D03*
X487610D02*
D03*
X437327Y468661D02*
D03*
X469256D02*
D03*
X205327Y428161D02*
D03*
X441878Y369937D02*
D03*
X488756Y468661D02*
D03*
X221059D02*
D03*
X273524D02*
D03*
X253524D02*
D03*
X252559Y370161D02*
D03*
X226327D02*
D03*
X465791Y468661D02*
D03*
X485291D02*
D03*
X440791D02*
D03*
X491075Y369937D02*
D03*
X471575D02*
D03*
X445342D02*
D03*
X270059Y468661D02*
D03*
X250059D02*
D03*
X208791Y428161D02*
D03*
X224524Y468661D02*
D03*
X256024Y370161D02*
D03*
X229791D02*
D03*
X204291Y382661D02*
D03*
D38*
X300331Y297661D02*
D03*
Y294197D02*
D03*
X293791Y297661D02*
D03*
Y294197D02*
D03*
X284291D02*
D03*
Y297661D02*
D03*
X274791D02*
D03*
Y294197D02*
D03*
X266791Y294197D02*
D03*
Y297661D02*
D03*
X260791D02*
D03*
Y294197D02*
D03*
X217791Y297661D02*
D03*
Y294197D02*
D03*
X524205Y402964D02*
D03*
X425500Y431732D02*
D03*
X426387Y384232D02*
D03*
X520843Y379437D02*
D03*
X523842Y451437D02*
D03*
X482342Y297437D02*
D03*
X476342Y293972D02*
D03*
X490343D02*
D03*
X433385Y294015D02*
D03*
X515882Y293972D02*
D03*
X499843Y297437D02*
D03*
X509342Y293972D02*
D03*
X308291Y451661D02*
D03*
X308791Y403197D02*
D03*
X210836Y384457D02*
D03*
X305291Y379626D02*
D03*
X425500Y428268D02*
D03*
X426387Y387697D02*
D03*
X524205Y406428D02*
D03*
X520843Y375972D02*
D03*
X523842Y454902D02*
D03*
X308291Y455126D02*
D03*
X210836Y387921D02*
D03*
X308791Y406661D02*
D03*
X305291Y376161D02*
D03*
X482342Y293972D02*
D03*
X490343Y297437D02*
D03*
X433385Y297479D02*
D03*
X476342Y297437D02*
D03*
X509342D02*
D03*
X515882D02*
D03*
X499843Y293972D02*
D03*
M02*
