M48
;Layer_Color=9474304
;FILE_FORMAT=2:5
INCH,LZ
;TYPE=PLATED
T1F00S00C0.00787
T2F00S00C0.01200
T3F00S00C0.05200
T4F00S00C0.07874
%
T01
X0473337Y0295437
X0474812Y0300638
X0477462Y0300905
X0480676Y0300841
X0483761Y0300905
X048691
X049006
X049321
X0496359
X0499509
X0502659
X0505808
X0508958
X0512108
X0515257
X0512837Y0293937
X0505837
X0496337
X0487337
X0479337
X0471163Y0301004
X0468013Y0300905
X0464874
X0461714Y0301043
X0458564Y0300905
X0455414Y0300921
X0452265
X0449115Y0300905
X0445953Y0301156
X0442816Y0300905
X0439667
X0436517
X0433379Y0300917
X043Y02931
X04184Y03121
X03992Y02945
X0350488Y03089
X0336Y0303
X03352Y02963
X03245Y0300961
X03195Y03115
X0314504Y0311349
X030954Y0311344
X0306Y0311
X0299712Y030113
X0296562
X0293413
X0290263
X0287113
X0283964
X0280814
X0277664
X0274515
X0271365
X0268216
X0265131Y0301065
X0261916Y030113
X0259267Y0300862
X0255617Y030113
X0252468
X0249329
X0246168Y0301267
X0243019Y030113
X0239869
X023672
X023357
X0230408Y0301381
X0227271Y030113
X0224121
X0220972
X0217833Y0301141
X0221278Y0293036
X0237791
X0257791Y0295661
X0263791Y0294161
X0271791
X0280791
X0290291
X0297291
X0296611Y0313547
X0299761
X0293462
X0290312
X0287162
X0284013
X0280863
X0277714
X0274564
X0271414
X0268265
X0265115
X0261965
X0258816
X0252517
X0249367
X0246217
X0239918
X0236769
X0233619
X0230469
X022732
X022417
X0221021
X0217871
X02185Y0317
Y0321
X02095Y032
X0209609Y0323429
X02055Y0326
X0205432Y0329453
X0203315Y0331685
X0202466Y0334745
X0201428Y0337766
X0200963Y0341
X0199212Y034582
X01995Y0333
X02015Y0328
X0205Y03205
X0209Y03145
X02185Y0337
Y03425
X0217822Y0347193
X0220972
X0224121
X0227271
X023042
X023357
X023672
X0239869
X0243019
X0246168
X0249318
X0252468
X0255617
X0258767
X0261916
X0265066
X0268216
X0271365
X0274541Y0346995
X0277664Y0347193
X0280814
X0283964
X0287113
X0290263
X0293413
X0296562
X0302245Y0351111
X0302427Y0353767
X0303Y03565
X0304811Y0358421
X0306687Y0360185
X03085Y0358
X0310505Y0360475
X0310323Y0363044
X0310188Y036765
X0310143Y0372156
X03104Y03782
X0302462Y0378538
X03Y03795
X030148Y0381748
X0307091Y0383505
Y038615
Y0388819
X0307091Y0392036
X0311648Y0395526
X0311931Y0403457
X0308913Y0410025
X0309121Y0419643
X03115Y04225
X031Y0425
X0307Y04255
X0308367Y0427737
X0310163Y0429847
X0308Y0434
X0307Y04365
X0307083Y0439351
X0307101Y0442915
X0307138Y0445489
X0311236Y0446045
X0308923Y045849
X03035Y04556
X0300408Y045983
X0297123Y0459862
X02945Y04555
X0291417Y0454551
X02885Y0456
X0282469Y0455669
X0284405Y0453669
X0275931Y0453736
X0274267Y0456203
X0270628Y0456378
X0269421Y0453994
X02665Y04545
X02635Y0454
X0261955Y045606
X0258772Y0455381
X026Y0453037
X02539Y04553
X0249031Y0455539
X0247Y0453
X0243948Y0451918
X0241278Y0452503
X0243033Y0454387
X0238477Y0454437
X0233177Y045585
X0231019Y0453289
X02305Y0448963
X0230831Y0443529
X02285Y04415
X023Y0439
X0228317Y0436766
X0224893Y0438353
X0225311Y0433588
X0228Y04315
X0226791Y0429161
X0223897Y0427644
X0228851Y0425778
X0222489Y0422151
X0223019Y0419631
X0224929Y0417681
X0223019Y0415694
X0224929Y0413744
X0223011Y0411764
X0225Y04095
X02235Y0406
X0222596Y0401922
X0222269Y039619
X0223855Y0394161
X0225393Y0397988
X0236476Y0399858
X023708Y040399
X02335Y03915
X02338Y0388563
X0235207Y0383124
X0237158Y0381155
X0233221
X0230416Y0381348
X0239144Y0383124
X0241093Y0381152
X0243079Y0383122
X0246153Y0382795
X0249193Y0383463
X0253Y0382
X0254338Y0384295
X0258791Y0384661
X0262752Y0383638
X0264689Y0381638
X0260752
X0268764
X0270791Y0384661
X0266878Y0385749
X02785Y0383638
X0280437Y0381638
X02765
X0287Y03815
X0287025Y038408
X0287065Y0386811
X0286637Y0389603
X0288748Y0392468
X0283927Y0392037
X0281876Y0393594
X0279373Y03942
X0280781Y0396588
X02785Y03985
X0275343Y039791
X0295675Y0398322
X0292695Y0394126
X0293416Y0409867
X0296369Y0409749
X0294799Y0415701
X0296799Y0417638
X0294799Y0423575
X0296Y0437075
Y04415
X0297Y0451262
X02865Y0466
X02805
X0246284Y0468651
X02277Y04686
X0221291Y0465661
X02185Y0457
X02155
X0201
X0205275Y0434754
X0204963Y0432157
X0201791Y0428161
X0212791Y0423661
X0208441Y0417827
X0201642Y0399746
X0200996Y0380199
X0210813Y0381139
X0217822Y035961
X0220972
X0224121
X0227271
X023042
X023357
X023672
X0239869
X0238303Y0361791
X0241453
X0246168Y035961
X0249318
X0252468
X0255617
X0258767
X0261916
X0265066
X0268216
X0271291Y0359661
X0274474
X0277764Y0359608
X0280839Y0359585
X0283964Y035961
X0287113
X0290312Y035922
X0293413Y035961
X0296562
X0299712
X0295025Y0365646
X0287791Y0365661
X0286291Y0368661
X0282327Y0370831
X02783Y03715
X0277807Y036623
X0280291Y0367661
X02665Y0369
X0265164Y0365899
X0252Y0367
X025133Y0362889
X024897Y0371139
X0232581Y0371577
X0227413Y0366587
X0228854Y0361791
X0232004
X0259Y03375
X0266
X02755Y0337
X0285
X0294Y03375
X0300116Y0337782
X0306Y03275
X0309487Y0322247
X0235185Y0450685
X0226115Y0452712
X0211621Y0441011
X0319264Y0448078
X0330579Y0452876
X0342415Y045548
X0352Y04535
X0361
X03695Y0453
X0368288Y0440525
X0364388
X0360388
X0356488
X0352588
X03485Y04405
X0345021Y0440368
X0346825Y0437024
X0350825
X0354712Y0437075
X0358712Y0437075
X0362612
X0366512Y0437075
X0370512Y0437075
X0374412
X0376188Y0440525
X038Y04405
X0380082Y0437372
X0384Y04405
X0387665Y0440511
X0392567Y0440492
X0396Y04405
X0399948Y0453157
X0404Y04545
X0413532Y0450916
X04155Y0449
X0425819Y0447039
Y0450976
X0428Y0449063
Y0445126
X0427211Y0441681
X0423877Y0439326
X04255Y04355
X0428342Y0423437
X0428Y04195
X0423963Y0417602
X0439Y04175
X04378Y04198
X0440938Y04155
X0439Y04135
X0440938Y04115
Y0397764
X04385Y03956
X0438361Y0392455
X0439Y03885
X0438Y0386
X0434Y0374
X0426342Y0380971
X0424156Y0379434
X0413Y03825
X0411455Y0388614
X0406Y03907
X04005Y03908
X04105Y04055
Y04105
Y04155
X04075Y0423
X04055Y0425
X0402
X0398
X0394
X039
X0386
X0382
X0384Y04165
Y0413
X03865Y04105
X0368Y04168
X03607Y04204
X0347Y04155
X0349Y04105
X03485Y04055
X0343Y04105
X0334Y04155
Y04205
X0334825Y0437024
X0331325
X03275Y0437075
X0338825Y0437024
X0342825
X0372188Y0440525
X0391Y0464
Y0467
X0395Y0462575
X0396117Y0460146
X0430527Y0457329
X0428Y0453
X04385Y0452
X0441Y04557
X0446837Y0455437
X0444837Y0452937
X0456802Y0453404
X04595Y04525
X04625
X0464337Y0454937
X04671Y0455
X0458666Y045518
X043739Y0463755
X0438215Y043324
X0440329Y0435177
X0441337Y0431437
X0442337Y0428937
X0443131Y0426231
X0438337Y0427437
X0428572Y0401737
X0427006Y03995
X0417193Y0399522
X04077Y03671
X04139Y03569
X04245
X0433367Y0359386
X0436517
X0439667
X0442816
X0445966
X0449115
X0452265
X0455414
X0453848Y0361566
X0456998
X0461714Y0359386
X0464863
X0468013
X0467551Y0366437
X0464515Y0370915
X0466486Y0383413
X0468551Y0381437
X0454675Y0383413
X0452675Y0381413
X04492Y03712
X04433Y03665
X0444399Y0361566
X0447549
X0449115Y0346968
X0445966
X0442816
X0439667
X0436517
X0433367
X0425112Y0340788
X0414Y0338
X04085Y03378
X04184Y03231
X04252Y03161
X0433416Y0313323
X0436566
X0439715
X0442865
X0446015
X0449164
X0452314
X0455464
X0461763
X0464912
X0468062
X0468013Y0346968
X0464863
X0461714
X0458564
X0455414
X0452265
X0350512Y0348439
X035049Y0352302
X03505Y0356
X0350488Y036
Y03645
X03505Y0368
Y0372
X0350488Y0376
X0350504Y0379718
X0350488Y0383661
X03387Y03962
X03313Y03913
X03135Y0398075
Y040065
X0313249Y0368598
X0313Y0364
X0331011Y0356079
X03305Y0352
Y0332
X0350488Y03325
Y03286
Y03246
Y03207
X0350488Y03167
X0350488Y03128
Y03364
X0350488Y03404
X0350488Y03443
X03145Y03225
X0368Y04015
X0471337Y0382437
X0474337Y0384437
X0476297Y0381413
X0480234
X0478297Y0383413
X0482424Y0385356
X0486337Y0384437
X0484309Y0381413
X0492045
X0495982
X0494045Y0383413
X04942Y03712
X0497872Y0370607
X0495837Y0367437
X0493352Y0366006
X0493309Y0359384
X0496384Y0359361
X0499509Y0359386
X0502659
X0505857Y0358996
X0508958Y0359386
X0512108
X0515257
X0510852Y0365422
X0503337Y0365437
X0501837Y0368437
X0482Y03686
X0480709Y0365675
X0480611Y0359386
X0483761
X0486837Y0359437
X0490019
X0477462Y0359386
X0474312
X0471162
X0471163Y0346968
X0474312
X0477462
X0480611
X0483761
X048691
X0490087Y034677
X049321Y0346968
X0496359
X0499509
X0502659
X0505808
X0508958
X0512108
X0515257
X0521917Y0365512
X0515411Y0375972
X051838Y0379472
X0512345Y0393791
X0504337Y0391937
X0510345Y0407602
X0512345Y0409539
Y0417413
X0510345Y0415476
Y042335
X05231Y04253
X05235Y04195
X05273Y04065
X05271Y04031
X05265Y03995
X05282Y03969
X0523161Y0395761
X053Y04385
X0527Y04542
X05236Y04575
X0512Y0447
X0499951Y0453445
X0498014Y0455445
X048228Y04555
X0480261Y045346
X0478264Y0455436
X04755Y0455
X04698Y04558
X0507871Y0465639
X0509702Y0467603
X0509007Y0313323
X0512156
X0515306
X0505857
X0502708
X0499558
X0496408
X0493259
X0490109
X048696
X048381
X048066
X0477511
X0474361
X05244Y03175
X05228Y03202
X04929Y04697
X04816Y04698
X04615Y0469
X0388734Y0469374
X03695Y0469
X0350734Y0468975
X0276484Y0470374
X0256649Y0470037
T02
X02413Y04003
X02514Y03999
T03
X0348991Y0300961
X0384058Y0301012
Y0391912
X0348991Y0391861
X0321Y04388
X04119
T04
X0528709Y0304161
X0204291
Y0464161
X0528709
M30
